<svg xmlns="http://www.w3.org/2000/svg" width="703.679" height="273.668" viewBox="0 0 703.679 273.668"><g transform="translate(-579.321 -2590.833)"><g transform="matrix(0.996, -0.087, 0.087, 0.996, -184.467, 438.533)"><path d="M473-10440H25a10.01,10.01,0,0,1-10-10v-34.011c.156.006.324.009.5.009a15.4,15.4,0,0,0,10.959-4.54A15.4,15.4,0,0,0,31-10499.5a15.4,15.4,0,0,0-4.539-10.96A15.392,15.392,0,0,0,15.5-10515c-.167,0-.335,0-.5.009V-10550a10.012,10.012,0,0,1,10-10H473a10.014,10.014,0,0,1,10,10v35.007a15.411,15.411,0,0,0-10.624,4.7A15.42,15.42,0,0,0,468-10499.5a15.416,15.416,0,0,0,4.376,10.794,15.414,15.414,0,0,0,10.624,4.7v34.01A10.012,10.012,0,0,1,473-10440Z" transform="translate(771 12944)" fill="#111"/><path d="M473-10440H463v-3h10v3Zm-15,0H448v-3h10Zm-15,0H433v-3h10Zm-15,0H418v-3h10Zm-15,0H403v-3h10Zm-15,0H388v-3h10Zm-15,0H373v-3h10Zm-15,0H358v-3h10Zm-15,0H343v-3h10Zm-15,0H328v-3h10Zm-15,0H313v-3h10Zm-15,0H298v-3h10Zm-15,0H283v-3h10Zm-15,0H268v-3h10Zm-15,0H253v-3h10Zm-15,0H238v-3h10Zm-15,0H223v-3h10Zm-15,0H208v-3h10Zm-15,0H193v-3h10Zm-15,0H178v-3h10Zm-15,0H163v-3h10Zm-15,0H148v-3h10Zm-15,0H133v-3h10Zm-15,0H118v-3h10Zm-15,0H103v-3h10Zm-15,0H88v-3H98Zm-15,0H73v-3H83Zm-15,0H58v-3H68Zm-15,0H43v-3H53Zm-15,0H28v-3H38Zm-14.987-.2a9.956,9.956,0,0,1-3.491-1.439h0l-.016-.01h0l-.032-.021h0l-.015-.011h0l-.047-.031h0l-.015-.01h0l-.031-.021h0l-.013-.009,0,0-.014-.011h0l-.016-.011h0l-.014-.01,0,0-.011-.008,0,0-.029-.021,0,0-.011-.007,0,0-.013-.01h0l-.015-.011,0,0-.011-.008-.005,0-.01-.007,0,0-.013-.01-.006,0-.009-.007-.006,0-.008-.006-.006,0-.009-.007-.007,0-.011-.008-.008-.006-.006,0-.008,0-.006,0-.008-.006-.005,0-.015-.011-.006,0-.008-.006-.006,0-.008-.006,0,0-.02-.016h0l-.009-.007,0,0-.009-.007,0,0-.031-.023,0,0-.009-.007,0,0-.045-.034,0,0-.011-.008h0l-.033-.026h0l-.011-.009h0a10.048,10.048,0,0,1-3.127-4.225l2.8-1.09a7.07,7.07,0,0,0,5.134,4.33Zm-5.012-11.1H15v-10h3Zm0-15H15v-10h3ZM15.5-10481c-.174,0-.342,0-.5-.007v-3h0c.156.006.324.009.5.009s.358,0,.537-.009h.026a.118.118,0,0,0,.026,0,.079.079,0,0,0,.026,0,.117.117,0,0,1,.026,0c.01,0,.02,0,.03,0l.056,0h0l.029,0h.054a.08.08,0,0,1,.026,0,.224.224,0,0,1,.026,0c.008,0,.017,0,.025,0h.026l.053,0h0a.069.069,0,0,1,.028,0,.124.124,0,0,1,.027,0l.026,0a.079.079,0,0,0,.026,0h.026l.106-.008h0l.029,0a.063.063,0,0,0,.027,0l.026,0,.023,0a.274.274,0,0,0,.028,0h0l.132-.013a.078.078,0,0,0,.026,0h0l.026,0,.185-.019h0l.026,0h0l.026,0h0a15.365,15.365,0,0,0,3.517-.82h0l.024-.009h0l.024-.009h0l.123-.045h0l.022-.009h0l.02-.008,0,0,.02-.007,0,0,.02-.008h0l.022-.009h0l.072-.027,0,0,.019-.008.007,0,.016-.007.008,0,.015-.006.009,0,.015-.006.009,0,.015-.006.009,0,.014-.006.009,0,.015-.006.011,0,.02-.008.011,0,.012,0,.012,0,.011,0,.012,0,.011,0,.012,0,.01,0,.013-.006.009,0,.014-.006.008,0,.015-.007.005,0,.081-.034h0l.019-.008,0,0,.018-.008h0l.019-.009h0l.02-.009h0c.133-.058.266-.118.4-.18l1.273,2.717A18.344,18.344,0,0,1,15.5-10481Zm12.747-5.094-2.069-2.172.073-.07.006,0,.011-.011c.064-.062.128-.125.192-.188h0l.016-.016,0,0,.012-.013,0,0,.012-.013,0,0,.016-.016h0l.015-.015,0,0,.012-.012,0,0,.013-.013,0,0,.016-.017,0,0,.014-.014,0,0,.012-.012,0,0,.015-.016h0l.016-.017h0l.014-.015,0,0,.013-.014,0,0,.032-.033v0l.014-.015,0,0,.014-.016h0l.032-.034,0,0,.014-.015,0,0,.015-.016h0l.032-.034,0,0,.014-.016,0,0,.047-.052,0,0,.014-.015,0,0,.047-.053h0l.015-.017h0l.048-.053h0l.047-.054h0l.015-.018h0l.047-.055h0l.016-.018h0l.047-.055h0l.063-.072h0a15.5,15.5,0,0,0,1.876-2.738h0l.044-.082v0l.032-.062h0l.01-.02v0l.032-.062v0l.009-.019v0l.031-.061v0l.009-.019v0l.021-.041h0l.009-.019,0,0,.009-.019v0l.02-.041v0l.009-.018,0,0,.009-.019h0l.02-.041,0,0,.008-.018,0,0,.009-.019h0l.01-.021h0l.009-.019,0,0,.008-.016,0,0,.019-.041v0l.008-.018,0,0,.007-.016,0,0,.019-.039,0,0,.007-.016,0-.006.007-.015,0,0,.009-.02h0l.009-.019,0-.006.006-.015,0-.007.007-.014,0-.006.009-.02v0l.008-.017,0-.006.006-.014,0-.007.007-.016,0,0,.009-.02,0,0,.007-.016,0-.006.006-.013,0-.008.006-.015,0,0,.008-.02,0-.007.006-.013,0-.008.005-.012,0-.009.006-.014,0-.009.007-.015,0-.009,0-.012,0-.008,0-.012,0-.009.007-.016,0-.01.005-.012,0-.01,0-.011,0-.009,0-.011,0-.01.007-.018,0-.008,0-.012,0-.009,0-.011,0-.01,0-.01,0-.012.006-.016,0-.011,0-.009,0-.011,0-.009,0-.011,0-.009.009-.021,0-.007,0-.012,0-.007,0-.012,0-.008,0-.012,0-.007.01-.024,0,0,0-.013,0-.007,0-.013,0-.007,0-.013v0l.011-.029,0,0,.005-.014,0-.006.005-.013,0-.006.018-.046v0l.005-.015,0,0,.005-.014v0l.018-.049v0l.006-.016v0l.025-.067h0l.006-.017v0l.025-.068h0a15.362,15.362,0,0,0,.712-2.729l2.96.488a18.34,18.34,0,0,1-5.169,10.035C28.473-10486.311,28.36-10486.2,28.248-10486.095Zm2.564-15.828a15.346,15.346,0,0,0-3.455-7.561h0l-.062-.072h0l-.062-.072h0l-.015-.018h0l-.047-.054h0l-.015-.018h0l-.047-.053v0l-.014-.017h0l-.047-.053h0l-.015-.017h0l-.047-.053,0,0-.014-.016,0,0-.047-.051,0,0L26.9-10510l0,0-.015-.016h0l-.032-.034,0,0-.014-.016,0,0-.015-.017h0l-.032-.034,0,0-.013-.014,0,0-.014-.015,0,0-.032-.033,0,0-.012-.014,0,0-.013-.013,0,0-.031-.032,0,0-.012-.013,0,0-.012-.013,0,0-.016-.017h0l-.015-.016,0,0-.012-.013,0,0-.012-.012,0,0-.016-.016h0l-.015-.016,0,0-.012-.012,0,0-.012-.012,0,0-.016-.016h0l-.018-.018-.016-.017h0l-.148-.146,2.088-2.154c.073.07.145.142.216.213a18.333,18.333,0,0,1,5.195,10.2Zm-8.616-11.566a15.345,15.345,0,0,0-4.4-1.344h0l-.022,0h0l-.022,0h0l-.139-.02h0a.1.1,0,0,0-.024,0,.2.2,0,0,0-.024,0,.091.091,0,0,0-.023,0l-.115-.015-.023,0a.068.068,0,0,0-.024,0l-.025,0-.025,0h0l-.09-.011a.1.1,0,0,0-.024,0l-.024,0-.025,0-.025,0h-.006l-.085-.009a.066.066,0,0,1-.024,0,.105.105,0,0,0-.025,0,.221.221,0,0,0-.025,0l-.025,0a.23.23,0,0,0-.026,0h0l-.061-.006-.024,0a.071.071,0,0,1-.025,0,.226.226,0,0,1-.025,0l-.025,0-.025,0-.064,0a.105.105,0,0,0-.025,0,.076.076,0,0,1-.025,0,.117.117,0,0,1-.026,0,.221.221,0,0,0-.025,0,.057.057,0,0,0-.026,0l-.025,0a.245.245,0,0,1-.038,0,.056.056,0,0,0-.025,0,.115.115,0,0,1-.026,0l-.026,0h-.026a.112.112,0,0,0-.025,0h-.026a.151.151,0,0,0-.03,0h-.031a.124.124,0,0,1-.027,0,.239.239,0,0,0-.026,0,.113.113,0,0,1-.026,0h-.026a.113.113,0,0,0-.026,0,.115.115,0,0,0-.026,0,.2.2,0,0,1-.034,0,.067.067,0,0,1-.028,0c-.346-.012-.7-.014-1.043,0v-3c.166,0,.334-.007.5-.007a18.342,18.342,0,0,1,7.993,1.807Zm-4.2-9.081H15v-10h3Zm0-15H15v-10h3Zm.229-14.209-2.9-.763a9.927,9.927,0,0,1,.723-1.917h0l.008-.018h0l.026-.051v0l.026-.051v0l.008-.015v0l.018-.034h0l.008-.016h0l.027-.051v0l.008-.015v0l.018-.033v0l.008-.015v0l.018-.032,0,0,.007-.014,0,0,.007-.013,0,0,.009-.017h0l.008-.015,0,0,.006-.011,0-.006.007-.012,0,0,.009-.016,0,0,.006-.012,0,0,.007-.012,0,0,.009-.016v0l.007-.013,0-.006.006-.01,0-.006.008-.015h0l.009-.015,0-.006.006-.01,0-.006.006-.011,0,0,.009-.015,0,0,.006-.01,0-.007.005-.009,0-.006.006-.011.005-.009.006-.01,0-.007.005-.009,0-.006.006-.011,0,0,.009-.015,0-.006.005-.009,0-.007.005-.009,0-.006.007-.012.006-.009,0-.008,0-.008.005-.008,0-.007.006-.009,0-.007.008-.013,0-.007,0-.008,0-.008,0-.007,0-.008.007-.01.006-.01.005-.008,0-.008,0-.007.005-.008,0-.007.009-.013,0-.008.005-.008,0-.007.005-.008,0-.007.005-.008.009-.013,0-.007,0-.007.005-.009,0-.006.005-.008,0-.006.011-.016,0-.006.005-.008,0-.007.005-.008,0-.006.005-.008.009-.013.006-.009,0-.006.006-.008,0-.006.006-.009,0,0,.014-.021,0,0,.007-.011,0,0,.007-.01,0,0,.023-.032,0,0,.007-.01,0,0,.024-.033v0l.007-.01,0,0,.033-.045,0,0,.008-.011h0l.025-.035h0l.008-.012h0l.035-.048h0l.035-.048h0l.008-.011h0l.035-.047h0c.039-.052.079-.1.12-.153h0l.009-.012h0l.037-.046h0l.037-.046h0a10.025,10.025,0,0,1,4.666-3.2l.928,2.853A7.074,7.074,0,0,0,18.229-10551.779ZM36.864-10557h-10v-3h10Zm15,0h-10v-3h10Zm15,0h-10v-3h10Zm15,0h-10v-3h10Zm15,0h-10v-3h10Zm15,0h-10v-3h10Zm15,0h-10v-3h10Zm15,0h-10v-3h10Zm15,0h-10v-3h10Zm15,0h-10v-3h10Zm15,0h-10v-3h10Zm15,0h-10v-3h10Zm15,0h-10v-3h10Zm15,0h-10v-3h10Zm15,0h-10v-3h10Zm15,0h-10v-3h10Zm15,0h-10v-3h10Zm15,0h-10v-3h10Zm15,0h-10v-3h10Zm15,0h-10v-3h10Zm15,0h-10v-3h10Zm15,0h-10v-3h10Zm15,0h-10v-3h10Zm15,0h-10v-3h10Zm15,0h-10v-3h10Zm15,0h-10v-3h10Zm15,0h-10v-3h10Zm15,0h-10v-3h10Zm15,0h-10v-3h10Zm15,0h-10v-3h10Zm8.02,5.717a6.992,6.992,0,0,0-1.472-3.15,7.065,7.065,0,0,0-2.777-2.052l1.134-2.777a10.049,10.049,0,0,1,3.961,2.925,10.006,10.006,0,0,1,1.409,2.276h0l.023.053h0l.007.016v0l.015.034,0,0,.006.014,0,0,.006.015v0l.007.018h0l.007.017,0,0,.006.013,0,0,.007.017h0l.007.017,0,.006,0,.01,0,.008,0,.01,0,.007.006.015,0,.007,0,.01,0,.008,0,.008,0,.009,0,.009.005.014,0,.008,0,.009,0,.008,0,.009,0,.006.014.035,0,0,0,.012v0l.015.04h0l0,.013v0l0,.013v0l.021.055h0l.021.057h0a9.885,9.885,0,0,1,.439,1.6Zm3.118,14.44h-3v-10h3Zm0,15h-3v-10h3Zm-7.708,9.188-1.592-2.543a18.458,18.458,0,0,1,9.205-2.792l.036,1.146-.036-1.146.036,1.146H483v1.852h0a.121.121,0,0,0-.027,0h-.065a.22.22,0,0,0-.025,0,.089.089,0,0,0-.023,0,.213.213,0,0,0-.025,0,.084.084,0,0,1-.022,0h-.027a.21.21,0,0,0-.025,0l-.047,0h-.069a.237.237,0,0,0-.026,0h-.046a.177.177,0,0,1-.023,0h-.024a.049.049,0,0,0-.024,0l-.044,0h0a.389.389,0,0,1-.048,0l-.043,0h-.023c-.008,0-.016,0-.024,0h0l-.02,0-.024,0h0a.093.093,0,0,1-.023,0l-.022,0h0l-.022,0h0l-.044,0h0l-.044,0h0l-.044,0a.193.193,0,0,0-.024,0h0a.1.1,0,0,1-.024,0l-.021,0h0l-.045,0h0l-.044,0h0l-.044,0h0l-.044,0h0l-.022,0h0a.1.1,0,0,0-.024,0l-.021,0h0l-.044.006h0l-.044,0h0l-.044,0h0l-.044.006h0l-.043.006a.064.064,0,0,0-.023,0h0l-.023,0h0l-.022,0a.126.126,0,0,1-.024,0h0l-.021,0h0l-.044.006h0l-.044.007h0l-.044.007h0l-.022,0-.023,0-.022,0h0l-.044.007h0l-.044.007h0l-.043.007h0l-.043.007h0l-.044.007h0l-.021,0h0l-.022,0h0a.093.093,0,0,1-.023,0l-.022,0h0l-.021,0h0l-.043.008h0l-.042.007c-.008,0-.016,0-.024,0h0l-.022,0h0l-.022,0-.021,0h0a.085.085,0,0,1-.022,0l-.022,0h0l-.02,0h0l-.021,0h0c-.008,0-.017,0-.025,0l-.042.009h0l-.042.009c-.006,0-.015,0-.023,0l-.023,0h0l-.017,0a.132.132,0,0,0-.025,0,.215.215,0,0,0-.021,0h0l-.02,0a.078.078,0,0,1-.021,0h-.005l-.02,0h0l-.02,0a.092.092,0,0,0-.022,0,.076.076,0,0,0-.023,0,.175.175,0,0,0-.022,0l-.024,0a.082.082,0,0,0-.021,0l-.024,0a.14.14,0,0,1-.021,0h-.005l-.019,0a.072.072,0,0,0-.02,0h-.007l-.019,0-.02,0a.182.182,0,0,1-.024.006h0a.076.076,0,0,0-.025.006.071.071,0,0,0-.02,0l-.025.006a.072.072,0,0,0-.02,0,.077.077,0,0,0-.025.006.05.05,0,0,0-.02,0,.071.071,0,0,0-.025.006l-.014,0h-.007l-.019,0a.05.05,0,0,0-.02,0c-.008,0-.015,0-.023.006a.061.061,0,0,0-.022,0l-.008,0a.207.207,0,0,1-.023.006c-.008,0-.015,0-.023.006a.076.076,0,0,1-.02,0l-.017,0-.02,0-.008,0-.017,0-.02,0a.12.12,0,0,1-.026.007.048.048,0,0,1-.019,0l-.022.007a.067.067,0,0,0-.023.006l-.02,0-.024.007-.02.006a.122.122,0,0,0-.025.007l-.02,0-.025.008-.019,0-.01,0-.016,0a.07.07,0,0,1-.019,0l-.021.006-.024.007-.02.006-.015,0a.038.038,0,0,1-.02,0l-.009,0-.026.008a.07.07,0,0,0-.019.006l-.017,0-.009,0-.018.006-.038.012a.146.146,0,0,0-.019,0l-.005,0-.021.006a.065.065,0,0,1-.019.006l-.005,0-.021.007c-.006,0-.012,0-.018,0l-.007,0-.021.007c-.005,0-.011,0-.017.006l-.006,0-.025.008h0a.106.106,0,0,0-.018.006l-.041.013h0l-.041.014h0l-.013,0h0l-.028.009-.016,0h0l-.028.009a.034.034,0,0,0-.016.006h0l-.044.015h0l-.043.015h0l-.042.014,0,0-.042.014h0l-.1.036h0l-.044.016h0l-.044.017h0a15.2,15.2,0,0,0-2.023.9h0l-.042.021h0l-.041.021h0l-.013.007h0l-.026.015h0l-.013.007h0l-.04.021,0,0-.038.021,0,0-.038.021,0,0-.013.007h0l-.025.015,0,0-.012.006,0,0-.021.012,0,0-.011.006-.005,0-.02.011-.005,0-.01.006-.007,0-.017.011-.006,0-.01.006-.007,0-.01.006-.006,0-.017.01-.008,0-.009,0-.013.008-.01,0-.009.006-.008,0-.011.007-.011.006-.01.006-.009,0-.009.006-.011.007-.012.007-.007,0-.011.007-.007,0-.016.01-.006,0-.012.008-.006,0-.016.01-.005,0-.013.009,0,0-.017.01,0,0-.014.009,0,0-.018.011h0l-.017.011,0,0-.036.022h0l-.037.023h0l-.038.023h0Zm-7.277,12.451-3-.134a18.312,18.312,0,0,1,4.22-10.948l2.311,1.914a15.423,15.423,0,0,0-2.375,3.938h0c-.029.07-.058.143-.087.214h0l-.042.107h0l-.008.021h0c-.014.035-.028.071-.041.107h0l-.04.107h0l-.032.087h0l-.008.021h0l-.008.021h0l-.031.087h0l-.038.108h0l-.007.021h0l-.037.109h0l-.036.109h0l-.007.021h0l-.028.088h0l-.007.021v0l-.034.109h0l-.027.089h0l-.006.021h0l-.026.089h0l-.006.021h0l-.006.021h0l-.025.088h0l-.006.021h0l-.025.088v0l-.006.021h0l-.024.089h0l-.006.021h0l-.029.11v0l-.005.021h0l-.023.09h0l-.005.021h0l-.022.089v0l-.005.021h0l-.021.091h0l-.005.021h0c-.009.038-.017.075-.026.113h0l-.025.112v0l0,.021h0c-.006.029-.013.06-.019.09h0l0,.021h0l-.018.091h0l0,.022h0l-.022.113h0l-.021.114h0c-.014.076-.027.152-.04.229h0l0,.021h0l-.015.092h0l0,.022h0l-.014.092h0l0,.022h0l0,.022h0l-.013.093h0l0,.021h0c0,.03-.009.062-.013.092h0l0,.022h0l-.012.093h0l0,.021v0l-.011.092h0l0,.022h0l0,.022h0c0,.031-.007.062-.01.093h0c0,.031-.007.062-.01.093h0l0,.022h0l0,.022h0l-.009.092v0l0,.021h0c0,.03-.006.062-.008.092v0l0,.021v0l0,.021h0l-.006.069v0l0,.021v0l0,.021v0c0,.022,0,.046-.005.069h0l0,.022v.025l0,.069v.07h0l0,.047h0v.071c0,.023,0,.046,0,.069v.054Zm4.3,15.445a18.784,18.784,0,0,1-2.095-1.857,18.526,18.526,0,0,1-4.524-7.824l2.887-.817a15.357,15.357,0,0,0,.927,2.452h0l.04.083h0l.051.1h0l.041.082h0l.052.1h0l.1.185h0c.032.062.065.122.1.184h0q.05.092.1.182h0a15.571,15.571,0,0,0,1.3,1.934h0q.094.119.19.237h0l.014.018h0l.059.072h0l.059.07,0,0,.014.017v0l.045.053h0l.014.017,0,0,.058.067,0,0,.013.015,0,0,.042.049,0,0,.013.015,0,0,.013.015,0,0,.041.047,0,0,.013.014,0,0,.013.015h0l.028.031,0,0,.012.014.006.007.012.013.006.006.039.043.007.007.011.013.007.008.011.012.006.007.02.021.008.009.01.011.008.009.01.012.008.009.01.011.017.018.009.01.009.01.009.01.01.011.009.01.013.014.01.011.013.014.008.008.011.013.008.008.013.014.006.007.018.019.006.006.014.015.007.007.013.014.006.007.019.02h0l.015.015.007.007.008.008.008.009.007.006.008.009h0l.023.024,0,0,.011.012,0,0q.3.3.611.587h0l.054.05h0l.013.012,0,0,.038.034,0,0,.011.009,0,0,.01.009,0,0,.033.029.007.006.008.008.008.007.008.007.01.009.009.008.012.01.007.006.01.009.006.006.011.01,0,0,.016.014,0,0,.014.013,0,0,.013.011,0,0,.016.014h0l.017.015,0,0,.014.012,0,0,.014.012,0,0,.035.029h0l.016.014h0l.052.044,0,0,.016.014h0l.035.029h0l.017.014,0,0,.053.043h0l.016.014,0,0,.035.028h0l.015.012,0,0,.013.011,0,0,.033.026.006,0,.011.009.007,0,.009.008.007.006.015.012.009.008.007,0,.01.008.006,0,.011.009h0q.1.079.2.155Zm10.682,6.193h-3v-2.766a18.283,18.283,0,0,1-2.428-.639l.959-2.842a15.5,15.5,0,0,0,4.279.8h.025c.016,0,.033,0,.049,0h.067a.085.085,0,0,0,.022,0,.086.086,0,0,1,.027,0Zm0,15h-3v-10h3Zm-.1,15-2.97-.427a7.065,7.065,0,0,0,.071-1v-8.566h3v8.566h0c0,.007,0,.014,0,.021v.006s0,.011,0,.016,0,0,0,0v.02s0,0,0,0,0,.011,0,.016,0,0,0,.007,0,.013,0,.019,0,0,0,0,0,.011,0,.016v.021s0,0,0,.007,0,.013,0,.019v.008s0,.009,0,.013v.008c0,.006,0,.011,0,.016v.042s0,.011,0,.016v.092l0,.045v0q-.013.3-.043.6h0c0,.016,0,.03,0,.045v.021l0,.023v.035l0,.018v.007l0,.014v.006l0,.041v0Q482.913-10448.668,482.9-10448.57ZM473-10440v-3a6.954,6.954,0,0,0,5.6-2.806l2.4,1.8a10.08,10.08,0,0,1-3.081,2.709h0l-.015.008h0l-.015.008h0l-.062.034h0l-.015.008h0l-.015.009h0l-.047.025h0l-.014.008h0l-.014.008h0l-.047.024h0l-.013.008h0l-.013.007h0l-.014.008h0l-.031.017h0l-.014.007,0,0-.012.006,0,0-.012.006,0,0-.014.008h0l-.016.008h0l-.015.008h0l-.012.007,0,0-.012.006,0,0-.014.006h0l-.031.016,0,0-.012.006,0,0a.086.086,0,0,0-.016.008l-.013.006h0l-.047.022,0,0-.012.006-.015.007,0,0-.013.007h0l-.016.007h0l-.015.008h0l-.012.006,0,0-.015.008-.012,0,0,0-.031.014,0,0-.012.006,0,0-.012,0,0,0-.013.006h0l-.014.007h0l-.016.008h0l-.015.007a.044.044,0,0,0-.015.007l-.005,0-.01,0-.006,0a.04.04,0,0,1-.015.007l-.016.007h0l-.014.006,0,0-.011,0-.005,0-.011,0,0,0-.012,0,0,0-.015.007h0l-.016.007h0l-.013,0,0,0c-.005,0-.011.007-.016.007l-.011,0,0,0-.011,0,0,0-.015.006h0l-.013.006-.005,0-.011,0s-.01,0-.015.006a.127.127,0,0,0-.016.007l-.006,0c-.005,0-.011.007-.015.006l-.015.007a.085.085,0,0,1-.016.006l-.016.007s-.011,0-.016.006l-.017.007,0,0-.015.006a.026.026,0,0,1-.016.006l-.006,0c-.005,0-.011,0-.016.007l-.016.006-.016.006-.014.006h0l-.021.008-.016.006-.016.006-.008,0a.042.042,0,0,0-.017.006l-.006,0-.015.006s-.01,0-.016.006l-.007,0-.016.006a.049.049,0,0,0-.016.006.051.051,0,0,0-.016.006l-.013,0a.066.066,0,0,1-.019.006l-.016.006-.016.006-.007,0c-.005,0-.011,0-.016.006a.047.047,0,0,0-.016.006l-.015,0a.05.05,0,0,1-.016.006.051.051,0,0,1-.016,0,.107.107,0,0,1-.017.006l-.007,0a.093.093,0,0,1-.016.006l-.015,0-.016.006a.051.051,0,0,0-.016,0,.053.053,0,0,1-.016.006.115.115,0,0,0-.017,0l-.017.006-.021.007-.016,0-.017,0-.016.006c-.006,0-.012,0-.018,0l0,0-.016,0a.043.043,0,0,1-.016,0l-.016,0a.037.037,0,0,1-.017,0,.1.1,0,0,1-.016.006.05.05,0,0,0-.019.006.071.071,0,0,0-.019,0,.056.056,0,0,1-.017.006l-.016,0a.052.052,0,0,1-.017,0,.056.056,0,0,1-.017.006h-.006l-.016,0a.048.048,0,0,1-.016,0,.053.053,0,0,1-.017,0,.054.054,0,0,0-.016,0,.1.1,0,0,0-.017,0l-.019.006-.019,0a.045.045,0,0,1-.016,0,.056.056,0,0,1-.017,0,.051.051,0,0,0-.017,0,.061.061,0,0,1-.018,0l-.022.006a.108.108,0,0,1-.017,0,.056.056,0,0,0-.017,0l-.016,0a.028.028,0,0,0-.017,0l-.023.006a.025.025,0,0,1-.016,0,.055.055,0,0,1-.017,0,.049.049,0,0,0-.016,0,.052.052,0,0,1-.017,0,.034.034,0,0,1-.016,0l-.016,0a.048.048,0,0,0-.016,0,.027.027,0,0,0-.017,0,.053.053,0,0,0-.016,0,.027.027,0,0,0-.017,0l-.016,0-.016,0a.1.1,0,0,0-.017,0,.051.051,0,0,0-.017,0,.105.105,0,0,0-.017,0,.033.033,0,0,0-.016,0l-.021,0a.138.138,0,0,1-.019,0,.036.036,0,0,0-.017,0,.1.1,0,0,0-.016,0,.055.055,0,0,1-.017,0,.041.041,0,0,1-.018,0,.054.054,0,0,1-.021,0l-.016,0a.055.055,0,0,1-.017,0l-.017,0-.019,0a.059.059,0,0,0-.022,0l-.017,0-.017,0c-.006,0-.011,0-.017,0l-.017,0-.02,0a.191.191,0,0,0-.021,0,.055.055,0,0,0-.017,0c-.006,0-.011,0-.017,0l-.017,0a.038.038,0,0,0-.018,0,.045.045,0,0,0-.022,0,.033.033,0,0,1-.017,0l-.017,0a.108.108,0,0,0-.018,0l-.017,0c-.007,0-.013,0-.019,0l-.021,0a.034.034,0,0,1-.017,0l-.017,0-.017,0-.019,0-.022,0a.034.034,0,0,0-.017,0,.027.027,0,0,0-.017,0l-.018,0a.039.039,0,0,1-.018,0l-.023,0a.048.048,0,0,0-.017,0l-.017,0-.017,0-.018,0a.031.031,0,0,1-.018,0l-.022,0c-.006,0-.012,0-.017,0l-.017,0a.1.1,0,0,0-.017,0l-.018,0-.023,0a.053.053,0,0,0-.017,0l-.017,0-.018,0-.017,0a.126.126,0,0,0-.019,0,.041.041,0,0,0-.021,0,.055.055,0,0,0-.017,0l-.017,0a.114.114,0,0,0-.018,0,.124.124,0,0,0-.019,0,.086.086,0,0,0-.022,0,.052.052,0,0,0-.017,0,.038.038,0,0,0-.018,0,.054.054,0,0,0-.018,0,.044.044,0,0,0-.019,0,.277.277,0,0,1-.039,0,.026.026,0,0,0-.017,0,.106.106,0,0,0-.018,0l-.018,0-.02,0-.02,0-.018,0a.1.1,0,0,0-.017,0,.028.028,0,0,0-.018,0h-.019a.175.175,0,0,1-.023,0l-.017,0a.107.107,0,0,0-.018,0,.057.057,0,0,0-.018,0h-.038a.076.076,0,0,1-.021,0,.1.1,0,0,0-.017,0h-.018c-.006,0-.012,0-.018,0h-.042a.054.054,0,0,0-.018,0,.056.056,0,0,1-.018,0h-.018a.039.039,0,0,1-.018,0,.289.289,0,0,1-.041,0h-.018a.027.027,0,0,1-.017,0h-.038a.083.083,0,0,1-.022,0h-.036a.054.054,0,0,1-.018,0h-.078a.059.059,0,0,1-.018,0h-.018a.08.08,0,0,0-.022,0h-.038a.055.055,0,0,1-.018,0h-.133a.1.1,0,0,1-.023,0Z" transform="translate(771 12944)" fill="#333"/><path d="M9.156-5.544c-.392.168-.42.224-.28.476.252.476.5.98.728,1.512C8.428-3.164,7.14-2.8,5.88-2.492v-4H9.716c1.54,0,2.212.056,2.38.056.28,0,.308-.028.308-.28,0-.168-.056-.98-.056-2.6v-3.36c0-1.764.056-2.548.056-2.716,0-.28-.028-.308-.308-.308-.168,0-.84.056-2.38.056h-.7v-.868a3.028,3.028,0,0,1,.112-.98.8.8,0,0,0,.168-.392c0-.14-.14-.28-.392-.308-.812-.084-1.68-.112-2.548-.14a9.215,9.215,0,0,1,.168,1.848v.84H6.412c-1.876,0-2.772-.056-2.94-.056-.28,0-.308.028-.308.308,0,.2.056,1.288.056,3.556V-1.96c-.672.112-1.316.2-2.016.252a19.079,19.079,0,0,0,.7,2.716c.084.252.224.336.392.336a.793.793,0,0,0,.448-.2A5.518,5.518,0,0,1,3.808.728c2.38-.7,4.452-1.344,6.608-2.1a5.225,5.225,0,0,0,.2.616c.084.308.168.392.56.2l1.484-.728c.336-.168.364-.224.252-.5a21.9,21.9,0,0,0-1.876-4.172c-.14-.252-.224-.28-.56-.14Zm.588-3H5.88v-1.568H9.744Zm0-5.1v1.568H5.88v-1.568ZM20.188-12.32a3.912,3.912,0,0,1,.2-1.652,1.3,1.3,0,0,0,.168-.644c0-.168-.14-.252-.448-.308-.98-.14-1.876-.2-2.856-.252a22.185,22.185,0,0,1,.14,3.08c0,4.844-1.456,9.24-5.964,12.152A5.94,5.94,0,0,1,12.88,1.6c.252.392.392.56.588.56.168,0,.364-.14.672-.364a14.437,14.437,0,0,0,5.1-8.456,16.321,16.321,0,0,0,5.32,8.4c.308.252.476.364.616.364.2,0,.308-.168.532-.588a6.345,6.345,0,0,1,1.428-1.82c-3.7-2.352-6.1-6.3-6.944-11.536Zm3.3-4.256a23.465,23.465,0,0,1-2.044,5.18,7.492,7.492,0,0,1,1.764.9c.308.224.476.336.588.336.168,0,.252-.2.448-.588a26.839,26.839,0,0,0,1.932-5.516A1.574,1.574,0,0,1,26.516-17a.734.734,0,0,0,.252-.532c0-.252-.14-.476-.756-1.064-.7-.616-.952-.756-1.176-.756a.941.941,0,0,0-.392.14,1.347,1.347,0,0,1-.588.112h-5.4c.168-.532.308-1.092.476-1.68.2-.784.28-1.036.476-1.232a.719.719,0,0,0,.28-.532c0-.2-.168-.308-.476-.392a22.739,22.739,0,0,0-2.716-.5,12.224,12.224,0,0,1-.308,2.1,19.514,19.514,0,0,1-3.556,7.7,7.593,7.593,0,0,1,1.568,1.2c.28.308.448.476.588.476.168,0,.308-.2.56-.56a21.575,21.575,0,0,0,2.212-4.06ZM9.324-22.484c.2-.084.308-.2.308-.392,0-.168-.168-.28-.476-.336-.644-.14-1.652-.308-2.464-.42a4.386,4.386,0,0,1-.588,1.2A16.18,16.18,0,0,1,.952-17.584a5.922,5.922,0,0,1,.784,1.96c.084.364.168.5.308.5a1.224,1.224,0,0,0,.616-.28,20.1,20.1,0,0,0,5.152-5.04,26.017,26.017,0,0,0,4.116,3.92c.308.224.476.336.616.336.168,0,.28-.224.448-.644A4.776,4.776,0,0,1,14.028-18.4a20.668,20.668,0,0,1-4.9-3.976Zm41.86,12.04a23.218,23.218,0,0,0-5.432-1.4c.84-2.016,1.624-4.2,2.352-6.1A3.806,3.806,0,0,1,48.86-19.4a.721.721,0,0,0,.28-.476.672.672,0,0,0-.252-.476,9.358,9.358,0,0,0-1.9-1.54.643.643,0,0,0-.392-.112.616.616,0,0,0-.364.112,3.229,3.229,0,0,1-1.372.476,31.247,31.247,0,0,1-4.34.364,10.434,10.434,0,0,1-2.464-.168,16.971,16.971,0,0,0,.812,3.052.454.454,0,0,0,.448.308,1.474,1.474,0,0,0,.5-.112,5.878,5.878,0,0,1,1.26-.308c.924-.112,2.324-.28,3.864-.448-.7,2.352-1.4,4.312-2.324,6.636-4.676,0-8.26,2.716-8.26,6.188,0,2.716,1.708,3.836,3.332,3.836a4.6,4.6,0,0,0,3.584-1.54c1.12-1.12,1.932-2.52,3.416-5.6A18.933,18.933,0,0,1,50.232-7.5C49.168-4.676,47.46-2.352,43.96.084A5.77,5.77,0,0,1,46.4,1.232a.765.765,0,0,0,.42.2c.168,0,.308-.112.56-.308a17.187,17.187,0,0,0,5.656-7.364A22.754,22.754,0,0,1,56.7-3.612a.534.534,0,0,0,.336.2c.084,0,.168-.056.252-.2a24.126,24.126,0,0,0,1.2-2.408c.084-.28.112-.42-.168-.588A32.4,32.4,0,0,0,53.956-9.3c.28-1.2.56-2.436.784-3.612A4.71,4.71,0,0,1,55.188-14a.527.527,0,0,0-.2-.756,12.075,12.075,0,0,0-3.248-1.2,8.762,8.762,0,0,1,.028,1.9A27.7,27.7,0,0,1,51.184-10.444ZM41.636-9.436A19.141,19.141,0,0,1,39.592-6.02a2.261,2.261,0,0,1-1.624,1.064c-.672,0-.98-.392-.98-1.288C36.988-7.84,38.78-9.324,41.636-9.436ZM91.2-18c0-.28-.028-.308-.28-.308-.168,0-1.064.056-3.668.056H82.656c.28-.812.5-1.624.7-2.436a4.3,4.3,0,0,1,.56-1.4.583.583,0,0,0,.2-.42c0-.168-.168-.28-.532-.392-.812-.2-1.68-.392-2.6-.56A16.8,16.8,0,0,1,80.5-20.5a21.684,21.684,0,0,1-3.584,7.98c0-.308.028-.616.056-.9,0-.28-.056-.336-.336-.336-.168,0-.56.056-1.9.056h-3.22c.056-.9.056-1.848.084-2.828h2.8c2.352,0,3.108.056,3.276.056.28,0,.308-.028.308-.336v-2.072c0-.28-.028-.308-.308-.308-.168,0-.924.056-3.276.056h-.9v-1.54a4.92,4.92,0,0,1,.168-1.708,1.43,1.43,0,0,0,.168-.56c0-.112-.168-.252-.448-.28-1.036-.112-1.9-.14-2.968-.168a12.145,12.145,0,0,1,.224,2.716v1.54h-1.2c-2.352,0-3.136-.056-3.3-.056-.28,0-.308.028-.308.308V-16.8c0,.308.028.336.308.336.14,0,.84-.028,2.744-.056C68.768-9.128,68.432-4.312,65.408-.5A5.512,5.512,0,0,1,66.976,1.2c.252.308.392.476.532.476s.28-.168.476-.476c2.268-3.3,3.08-7.084,3.416-12.348h2.8a49.723,49.723,0,0,1-.588,8.316c-.2,1.148-.5,1.512-1.344,1.512a9.621,9.621,0,0,1-1.932-.2A6.1,6.1,0,0,1,70.98.7c.112.728.14.784.756.812.42.028.812.028,1.232.028A2.746,2.746,0,0,0,75.544-.084,4.855,4.855,0,0,1,76.86,1.54c.252.448.336.644.56.644a1.762,1.762,0,0,0,.644-.252,20.213,20.213,0,0,0,6.188-4.788,25.031,25.031,0,0,0,5.04,4.536,1.476,1.476,0,0,0,.672.308c.2,0,.308-.2.5-.644A7.437,7.437,0,0,1,91.784-.812a21.693,21.693,0,0,1-5.8-4.4,23.309,23.309,0,0,0,2.968-10.528c1.288.028,1.82.056,1.96.056.252,0,.28-.028.28-.308Zm-14.308,6.5a12.4,12.4,0,0,1,.924,1.176c.2.28.308.42.42.42.14,0,.308-.168.56-.532.392-.532.756-1.092,1.092-1.652a24.824,24.824,0,0,0,2.66,6.86A17.769,17.769,0,0,1,75.6-.168a4.467,4.467,0,0,0,.28-.644c.644-1.652.98-5.964,1.008-9.576Zm4.844-4.228h4.34A21.043,21.043,0,0,1,84.2-7.728,22.771,22.771,0,0,1,81.7-15.652Zm33.544-4.2a15.392,15.392,0,0,1-.616,1.82c-1.988,0-2.66-.056-2.828-.056-.28,0-.308.028-.308.308,0,.168.056.98.056,2.94v5.768c0,1.932-.056,2.772-.056,2.94,0,.28.028.308.308.308.168,0,.868-.056,3-.056h3.808c2.128,0,2.828.056,3.024.056.28,0,.308-.028.308-.308,0-.168-.056-1.008-.056-2.94v-5.768c0-1.96.056-2.772.056-2.94,0-.28-.028-.308-.308-.308-.2,0-.9.056-3.024.056h-1.26a14.632,14.632,0,0,0,.7-1.82h1.54c2.408,0,3.22.056,3.388.056.28,0,.308-.028.308-.28v-1.932c0-.28-.028-.308-.308-.308-.168,0-.98.056-3.388.056H114.24c-2.408,0-3.22-.056-3.388-.056-.308,0-.336.028-.336.308v1.932c0,.252.028.28.336.28.168,0,.98-.056,3.388-.056Zm4.06,11.984H114.1V-9.52h5.236ZM114.1-11.34v-1.484h5.236v1.484Zm0-4.76h5.236v1.456H114.1Zm3.332,11.2c-.28.224-.336.308-.112.532a15.392,15.392,0,0,0,3.892,2.744,2.2,2.2,0,0,0,.644.224,77.034,77.034,0,0,1-8.456.42,24.631,24.631,0,0,1-7-.728v-3.22h1.232c1.512,0,1.9.056,2.072.056.28,0,.308-.028.308-.308V-7c0-.28-.028-.308-.308-.308-.168,0-.56.056-2.072.056H106.4v-2.38h.588c2.408,0,3.22.056,3.388.056.28,0,.308-.028.308-.308v-1.9c0-.28-.028-.308-.308-.308-.168,0-.98.056-3.388.056h-5.32c-2.408,0-3.22-.056-3.388-.056-.252,0-.28.028-.28.308v1.9c0,.28.028.308.28.308.168,0,.98-.056,3.388-.056h2.1v6.58a7.518,7.518,0,0,1-1.82-2.044l.2-1.512a2.171,2.171,0,0,1,.2-.784.9.9,0,0,0,.168-.5c0-.14-.14-.252-.476-.308-.756-.14-1.568-.308-2.324-.392a13.965,13.965,0,0,1-.028,1.568c-.308,3.192-.924,5.4-2.352,7.252A8.461,8.461,0,0,1,98.98,1.372c.28.28.42.392.56.392s.252-.168.476-.532a15.557,15.557,0,0,0,1.428-3.7,8.328,8.328,0,0,0,2.6,2.38c2.072,1.232,5.1,1.736,9.436,1.736,3.108,0,5.824-.056,8.68-.308.9-.056.9-.056,1.064-.98a9.146,9.146,0,0,1,.784-2.016c-.7.112-1.428.2-2.072.252.168-.084.224-.14.56-.728a5.743,5.743,0,0,1,.98-1.232A12.106,12.106,0,0,1,119.112-5.8c-.112-.084-.168-.14-.252-.14-.112,0-.2.056-.364.2Zm-14.84-17.444c-2.1,0-2.828-.056-3.024-.056-.28,0-.308.028-.308.308,0,.168.056.84.056,2.436v3.444c0,1.624-.056,2.268-.056,2.464,0,.28.028.308.308.308.2,0,.924-.056,3.024-.056h3.7c2.1,0,2.828.056,3,.056.252,0,.28-.028.28-.308,0-.168-.056-.84-.056-2.464v-3.444c0-1.6.056-2.268.056-2.436,0-.28-.028-.308-.28-.308-.168,0-.9.056-3,.056Zm4.284,6.944H101.92V-17h4.956Zm-4.956-3.472v-1.512h4.956v1.512ZM113.792-5.908a5.407,5.407,0,0,1-.9.9,13.407,13.407,0,0,1-3.7,1.988,6.473,6.473,0,0,1,1.036,1.288c.224.336.308.5.5.5a2.018,2.018,0,0,0,.672-.224,17.48,17.48,0,0,0,3.416-2.072,2.327,2.327,0,0,1,.588-.448c.2-.084.336-.168.336-.364,0-.168-.112-.252-.308-.42A14.378,14.378,0,0,0,113.792-5.908Z" transform="translate(829 2466)" fill="#fff"/><path d="M8.856-11.538c-2.16.126-4.482.27-5.58.36a11.872,11.872,0,0,1-2.2.072,12.613,12.613,0,0,0,.45,1.818c.054.18.126.252.306.252.162,0,.45-.162.846-.216,1.422-.2,3.96-.414,6.228-.54,0,.594.018,1.206.018,1.836a2.206,2.206,0,0,0-1.368-.36,2.623,2.623,0,0,0-2.718,2.7,2.493,2.493,0,0,0,2.5,2.754,2.078,2.078,0,0,0,1.692-.72A6.013,6.013,0,0,1,5.346.378a4.012,4.012,0,0,1,1.368.72,1.019,1.019,0,0,0,.54.27,1.716,1.716,0,0,0,.7-.342,6.721,6.721,0,0,0,3.2-5.814,5.608,5.608,0,0,0-.27-1.782c-.018-1.1-.018-2.25-.018-3.348,1.872-.018,3.618-.018,5.49.036.216.018.306-.036.306-.234.018-.45.018-.918,0-1.368-.018-.234-.054-.27-.27-.27-1.728,0-3.582.018-5.526.09.018-.684.018-.918.036-1.152a1.882,1.882,0,0,1,.144-.522.759.759,0,0,0,.162-.414c0-.162-.2-.288-.5-.342A18.288,18.288,0,0,0,8.6-14.346a5.72,5.72,0,0,1,.216,1.314C8.838-12.546,8.838-12.1,8.856-11.538ZM7.7-6.912A1.079,1.079,0,0,1,8.892-5.76,1.156,1.156,0,0,1,7.668-4.518,1.116,1.116,0,0,1,6.516-5.742,1.145,1.145,0,0,1,7.7-6.912Zm4.95-7.4a8.931,8.931,0,0,1,1.818,2.088.188.188,0,0,0,.306.054l.756-.558a.182.182,0,0,0,.054-.288,8.285,8.285,0,0,0-1.71-1.926c-.108-.09-.18-.108-.27-.036Zm2.07-.684a8.515,8.515,0,0,1,1.8,2.07.185.185,0,0,0,.306.054l.72-.558a.208.208,0,0,0,.054-.324,7.517,7.517,0,0,0-1.71-1.854c-.108-.09-.162-.108-.27-.036ZM21.672-7a9.2,9.2,0,0,0,.972,1.746c.18.216.306.324.468.324a.563.563,0,0,0,.36-.18A5.777,5.777,0,0,1,24.48-5.67a16.107,16.107,0,0,1,5.094-1.4c1.44,0,2.232.7,2.232,1.98a2.815,2.815,0,0,1-1.62,2.682A13.08,13.08,0,0,1,25.848-1.17a3.78,3.78,0,0,1,1.1,1.188c.126.234.27.306.594.252A9.765,9.765,0,0,0,31.266-.918,4.3,4.3,0,0,0,33.84-4.95a3.8,3.8,0,0,0-4.1-3.852A17.692,17.692,0,0,0,24.48-7.7,19.375,19.375,0,0,1,21.672-7Zm23.472-7.272a8.054,8.054,0,0,1,.468,2.088,27.318,27.318,0,0,0,.936,4.392c-2.106,1.332-3.42,2.646-3.42,4.644,0,2.34,1.8,3.456,5.2,3.456a38.465,38.465,0,0,0,5.364-.27c.216-.018.342-.108.324-.306a15.894,15.894,0,0,0-.18-1.674c-.036-.216-.126-.252-.324-.216a31.436,31.436,0,0,1-5.49.414c-2.07,0-2.862-.45-2.862-1.512,0-.846.558-1.692,2.124-2.718a25.048,25.048,0,0,1,4.23-2.106,8.637,8.637,0,0,1,1.728-.54c.252-.036.36-.18.36-.36a.729.729,0,0,0-.126-.378,9.243,9.243,0,0,0-1.314-1.692,4.452,4.452,0,0,1-1.242.972c-1.008.54-1.656.882-2.556,1.368a25.309,25.309,0,0,1-.576-3.1c-.036-.414-.09-.846-.09-1.206,0-.252.126-.5.126-.756,0-.144-.108-.234-.324-.288A10.418,10.418,0,0,0,45.144-14.274ZM74.628.54c1.62,0,2.178.036,2.286.036.18,0,.2-.018.2-.2V-1.134c0-.18-.018-.2-.2-.2-.108,0-.666.036-2.286.036H70.362V-4.572h2.25c1.764,0,2.376.036,2.484.036.18,0,.2-.018.2-.2V-6.192c0-.162-.018-.18-.2-.18-.108,0-.72.036-2.484.036h-2.25V-9.414h3.1c1.764,0,2.358.036,2.466.036.2,0,.216-.018.216-.2v-1.476c0-.18-.018-.2-.216-.2-.108,0-.7.036-2.466.036h-3.1v-.99a7.141,7.141,0,0,1,.126-2,.885.885,0,0,0,.09-.36c0-.09-.108-.18-.288-.2-.594-.072-1.332-.108-2.034-.126A17.025,17.025,0,0,1,68.4-12.15v.936H65.43l.432-1.188a1.773,1.773,0,0,1,.342-.684c.126-.144.18-.234.18-.324,0-.126-.126-.216-.324-.27-.5-.144-1.152-.324-1.746-.432a6.11,6.11,0,0,1-.252,1.188,15.313,15.313,0,0,1-2.9,5.256,4.433,4.433,0,0,1,1.134.81c.2.18.306.288.4.288.108,0,.18-.108.342-.324a13.741,13.741,0,0,0,1.584-2.52H68.4v3.078H66.42c-1.764,0-2.376-.036-2.484-.036-.18,0-.2.018-.2.18v1.458c0,.18.018.2.2.2.108,0,.72-.036,2.484-.036H68.4V-1.3H63.882c-1.638,0-2.178-.036-2.286-.036-.18,0-.2.018-.2.2V.378c0,.18.018.2.2.2.108,0,.648-.036,2.286-.036ZM87.066-10.692a4.1,4.1,0,0,1,.18-1.62.786.786,0,0,0,.126-.378c0-.126-.072-.234-.288-.288a15.41,15.41,0,0,0-2.268-.36A18.7,18.7,0,0,1,85-10.044V-3.4c0,1.476.378,2.322,1.278,2.7a8.864,8.864,0,0,0,3.42.486A36,36,0,0,0,95.04-.54c.27-.018.378-.09.378-.324,0-.378-.054-1.062-.108-1.566-.018-.216-.054-.288-.324-.252a31.76,31.76,0,0,1-5.076.414,9.223,9.223,0,0,1-2.268-.2c-.468-.144-.594-.432-.594-1.278V-6.138A47.223,47.223,0,0,0,93.222-8.37a9.56,9.56,0,0,1,1.494-.594c.216-.054.306-.18.306-.324a.522.522,0,0,0-.144-.324,10.326,10.326,0,0,0-1.494-1.62,5.587,5.587,0,0,1-1.926,1.3A33.812,33.812,0,0,1,87.066-8.19Zm6.57-2.034a8.931,8.931,0,0,1,1.818,2.088.188.188,0,0,0,.306.054l.756-.558a.182.182,0,0,0,.054-.288,8.284,8.284,0,0,0-1.71-1.926c-.108-.09-.18-.108-.27-.036Zm1.656-1.188a8.515,8.515,0,0,1,1.8,2.07.185.185,0,0,0,.306.054l.72-.558a.208.208,0,0,0,.054-.324,7.517,7.517,0,0,0-1.71-1.854c-.108-.09-.162-.108-.27-.036ZM112.32-5.562c1.332,0,2.664.018,4.014.036.252.018.324-.054.324-.27a13.269,13.269,0,0,0,0-1.692c0-.216-.054-.27-.324-.252-1.386.018-2.772.054-4.14.054h-5.8A23.125,23.125,0,0,1,102.51-7.9a19.537,19.537,0,0,0,.27,2.178c.054.27.2.378.414.378a14.394,14.394,0,0,1,2.646-.216ZM132.156-9.81a4.981,4.981,0,0,1,.162-2,1.152,1.152,0,0,0,.144-.45c0-.144-.09-.252-.324-.306a17.177,17.177,0,0,0-2.25-.378,14.374,14.374,0,0,1,.18,3.132v5.634c0,.918.018,1.134-.108,1.368a.553.553,0,0,0-.072.27.718.718,0,0,0,.162.378,5.2,5.2,0,0,0,1.08,1.1.767.767,0,0,0,.378.144.572.572,0,0,0,.36-.144,5.977,5.977,0,0,1,.522-.378,29.891,29.891,0,0,0,3.2-2.16,22.752,22.752,0,0,0,2.664-2.358c.2-.2.27-.324.27-.45a.9.9,0,0,0-.108-.306,5.189,5.189,0,0,1-.558-1.818,17.274,17.274,0,0,1-3.15,3.06A18.3,18.3,0,0,1,132.156-3.8Zm-6.282-2a4.842,4.842,0,0,1,.18,1.512c-.018,2.88-.252,3.87-.756,5.094A8.936,8.936,0,0,1,122.31-1.62a6.378,6.378,0,0,1,1.53.756.612.612,0,0,0,.342.144.816.816,0,0,0,.468-.234,9.273,9.273,0,0,0,2.556-3.384,13.471,13.471,0,0,0,.972-5.292,2.6,2.6,0,0,1,.216-1.224c.108-.252.072-.468-.234-.558A14.552,14.552,0,0,0,125.874-11.808ZM142.7-6.3a7.5,7.5,0,0,1,1.386-4.851,4.815,4.815,0,0,1,3.96-1.7,5.549,5.549,0,0,1,2.358.468,4.442,4.442,0,0,1,1.674,1.332,5.822,5.822,0,0,1,.99,2.07A10.333,10.333,0,0,1,153.4-6.3,7.466,7.466,0,0,1,152-1.449a4.821,4.821,0,0,1-3.951,1.7,5.6,5.6,0,0,1-2.376-.468,4.367,4.367,0,0,1-1.665-1.332,5.913,5.913,0,0,1-.981-2.07A10.333,10.333,0,0,1,142.7-6.3Zm2.592,0a8.864,8.864,0,0,0,.162,1.755,4.534,4.534,0,0,0,.495,1.377,2.519,2.519,0,0,0,.855.9,2.308,2.308,0,0,0,1.242.324,2.34,2.34,0,0,0,2.034-1.026,5.933,5.933,0,0,0,.72-3.33,9.018,9.018,0,0,0-.153-1.71,4.77,4.77,0,0,0-.477-1.386,2.483,2.483,0,0,0-.846-.927,2.329,2.329,0,0,0-1.278-.333A2.322,2.322,0,0,0,146.016-9.6,5.953,5.953,0,0,0,145.3-6.3Zm15.678.918h-.648V0H157.86V-12.6h2.466v5.58l.576-.252,3.474-5.328h2.808l-3.672,5.292-.972.684,1.008.7L167.742,0H164.7ZM172.44-12.6h2.412v5.922l-.468,2.934h-1.476l-.468-2.934Zm-.252,11.412a1.3,1.3,0,0,1,.4-1,1.47,1.47,0,0,1,1.044-.369,1.522,1.522,0,0,1,1.08.369,1.3,1.3,0,0,1,.4,1,1.328,1.328,0,0,1-.4,1.008,1.5,1.5,0,0,1-1.08.378,1.449,1.449,0,0,1-1.044-.378A1.328,1.328,0,0,1,172.188-1.188Z" transform="translate(828.07 2430.853)" fill="#fff"/><path d="M11.228-16.884H9.548V-9.24H1.876v1.624H9.548V.056h1.68V-7.616H18.9V-9.24H11.228Z" transform="translate(1042 2465)" fill="#fff"/><text transform="translate(1197 2465)" fill="#fff" font-size="20" font-family="YuGo-Bold, YuGothic" font-weight="700" letter-spacing="0.3em"><tspan x="0" y="0">円</tspan></text><path d="M3.838-4.18H9.12V-19.19l.57-2.584L7.866-19.532,4.484-17.214l-2.09-2.85,8.664-6.992h2.774V-4.18H19V0H3.838Zm23.1,1.748A2.607,2.607,0,0,1,27.8-4.484a3.06,3.06,0,0,1,2.109-.76A3.129,3.129,0,0,1,32.414-4.18a4.171,4.171,0,0,1,.912,2.812,7.414,7.414,0,0,1-.532,2.945,6.884,6.884,0,0,1-1.311,2.052,6.6,6.6,0,0,1-1.672,1.292,9.772,9.772,0,0,1-1.615.7L26.752,3.572A4.4,4.4,0,0,0,28.538,2.2,3.6,3.6,0,0,0,29.374.19a2.094,2.094,0,0,1-1.653-.532A2.567,2.567,0,0,1,26.942-2.432ZM40.128-6.5a7.623,7.623,0,0,1,.342-2.375,6.727,6.727,0,0,1,.969-1.9,8.1,8.1,0,0,1,1.482-1.539,14.715,14.715,0,0,1,1.843-1.254,9.955,9.955,0,0,1-2.926-2.717A6.556,6.556,0,0,1,40.774-20.1a7,7,0,0,1,.551-2.774,6.378,6.378,0,0,1,1.6-2.242A7.444,7.444,0,0,1,45.448-26.6a9.853,9.853,0,0,1,3.344-.532,10.061,10.061,0,0,1,3.116.456,7.216,7.216,0,0,1,2.413,1.292,5.713,5.713,0,0,1,1.558,2.033,6.24,6.24,0,0,1,.551,2.641,6.854,6.854,0,0,1-1.007,3.8,10.085,10.085,0,0,1-2.945,2.85,11.028,11.028,0,0,1,3.439,2.926,6.813,6.813,0,0,1,1.159,4.1,7.435,7.435,0,0,1-.627,3.1,6.824,6.824,0,0,1-1.767,2.375A8.22,8.22,0,0,1,51.946-.019a10.65,10.65,0,0,1-3.5.551A10.835,10.835,0,0,1,45.011.019a7.9,7.9,0,0,1-2.622-1.425,6.218,6.218,0,0,1-1.672-2.2A6.883,6.883,0,0,1,40.128-6.5Zm12.236-.494a3.128,3.128,0,0,0-.418-1.6A5.288,5.288,0,0,0,50.863-9.9a10.142,10.142,0,0,0-1.482-1.083q-.817-.494-1.653-.95a6.263,6.263,0,0,0-2.451,2.223,4.86,4.86,0,0,0-.665,2.375,3.615,3.615,0,0,0,1.045,2.6,3.85,3.85,0,0,0,2.907,1.083,4.279,4.279,0,0,0,2.755-.836A3.019,3.019,0,0,0,52.364-6.992ZM45.486-20.026a3.526,3.526,0,0,0,.342,1.6,3.871,3.871,0,0,0,.931,1.2,8.907,8.907,0,0,0,1.33.95q.741.437,1.539.817a5.57,5.57,0,0,0,2.28-4.256,3.039,3.039,0,0,0-.931-2.413,3.309,3.309,0,0,0-2.261-.817,3.124,3.124,0,0,0-2.451.874A2.985,2.985,0,0,0,45.486-20.026Zm19.19,6.688q0-6.992,2.394-10.393a7.9,7.9,0,0,1,6.878-3.4q4.788,0,7.03,3.363T83.22-13.338q0,7.03-2.413,10.45a7.933,7.933,0,0,1-6.9,3.42,7.652,7.652,0,0,1-6.992-3.591Q64.676-6.65,64.676-13.338Zm4.94,0a20.067,20.067,0,0,0,1.007,7.163,3.451,3.451,0,0,0,3.325,2.527,3.448,3.448,0,0,0,3.287-2.318q1.045-2.318,1.045-7.372a20.117,20.117,0,0,0-.988-7.106,3.46,3.46,0,0,0-3.382-2.508A3.406,3.406,0,0,0,70.623-20.6,19.576,19.576,0,0,0,69.616-13.338Zm20.406,0q0-6.992,2.394-10.393a7.9,7.9,0,0,1,6.878-3.4q4.788,0,7.03,3.363t2.242,10.431q0,7.03-2.413,10.45a7.933,7.933,0,0,1-6.9,3.42,7.652,7.652,0,0,1-6.992-3.591Q90.022-6.65,90.022-13.338Zm4.94,0a20.067,20.067,0,0,0,1.007,7.163,3.451,3.451,0,0,0,3.325,2.527,3.448,3.448,0,0,0,3.287-2.318q1.045-2.318,1.045-7.372a20.117,20.117,0,0,0-.988-7.106,3.46,3.46,0,0,0-3.382-2.508A3.406,3.406,0,0,0,95.969-20.6,19.576,19.576,0,0,0,94.962-13.338Z" transform="translate(1076 2466)" fill="#fff"/><path d="M12.825-14.283a8.256,8.256,0,0,1-.5,2.781,17.2,17.2,0,0,1-1.269,2.754,25.868,25.868,0,0,1-1.7,2.605Q8.424-4.887,7.533-3.834L6.1-2.727v.135L8.046-2.97H13.23V0H1.863V-1.809q.648-.675,1.458-1.579T4.955-5.306Q5.778-6.318,6.561-7.4a23.357,23.357,0,0,0,1.4-2.174,13.391,13.391,0,0,0,.985-2.12,5.812,5.812,0,0,0,.365-1.944,2.645,2.645,0,0,0-.634-1.822,2.559,2.559,0,0,0-2.012-.716,4.713,4.713,0,0,0-1.768.365,5.016,5.016,0,0,0-1.526.932l-1.4-2.484a8.852,8.852,0,0,1,2.39-1.391,8.56,8.56,0,0,1,3.145-.526,6.711,6.711,0,0,1,2.133.324,4.768,4.768,0,0,1,1.674.945,4.358,4.358,0,0,1,1.107,1.553A5.414,5.414,0,0,1,12.825-14.283ZM29.16,0V-7.668a4.636,4.636,0,0,0-.459-2.376,1.821,1.821,0,0,0-1.674-.729,2.522,2.522,0,0,0-1.634.607,2.881,2.881,0,0,0-.986,1.553V0H20.9V-18.9h3.51v6.912h.108a4.879,4.879,0,0,1,1.593-1.377,5,5,0,0,1,2.4-.513,5.544,5.544,0,0,1,1.809.27,2.941,2.941,0,0,1,1.309.891,4.032,4.032,0,0,1,.783,1.688A11.463,11.463,0,0,1,32.67-8.4V0Z" transform="translate(971 2467)" fill="#fff"/><path d="M1198.2,13220.664a1.5,1.5,0,0,1-1.5-1.5v-8.6a1.5,1.5,0,0,1,3,0v8.6A1.5,1.5,0,0,1,1198.2,13220.664Z" transform="translate(1605.052 -10838.989) rotate(7)" fill="#fff"/><path d="M1198.2,13220.664a1.5,1.5,0,0,1-1.5-1.5v-8.6a1.5,1.5,0,0,1,3,0v8.6A1.5,1.5,0,0,1,1198.2,13220.664Z" transform="matrix(0.875, 0.485, -0.485, 0.875, 6554.468, -9714.021)" fill="#fff"/><path d="M1198.2,13220.664a1.5,1.5,0,0,1-1.5-1.5v-8.6a1.5,1.5,0,0,1,3,0v8.6A1.5,1.5,0,0,1,1198.2,13220.664Z" transform="matrix(0.574, 0.819, -0.819, 0.574, 11341.548, -6128.342)" fill="#fff"/></g><g transform="matrix(0.996, 0.087, -0.087, 0.996, 14.55, 147.402)"><path d="M473-10440H25a10.01,10.01,0,0,1-10-10v-34.011c.156.006.324.009.5.009a15.4,15.4,0,0,0,10.959-4.54A15.4,15.4,0,0,0,31-10499.5a15.4,15.4,0,0,0-4.539-10.96A15.392,15.392,0,0,0,15.5-10515c-.167,0-.335,0-.5.009V-10550a10.012,10.012,0,0,1,10-10H473a10.014,10.014,0,0,1,10,10v35.007a15.411,15.411,0,0,0-10.624,4.7A15.42,15.42,0,0,0,468-10499.5a15.416,15.416,0,0,0,4.376,10.794,15.414,15.414,0,0,0,10.624,4.7v34.01A10.012,10.012,0,0,1,473-10440Z" transform="translate(771 12944)" fill="#111"/><path d="M473-10440H463v-3h10v3Zm-15,0H448v-3h10Zm-15,0H433v-3h10Zm-15,0H418v-3h10Zm-15,0H403v-3h10Zm-15,0H388v-3h10Zm-15,0H373v-3h10Zm-15,0H358v-3h10Zm-15,0H343v-3h10Zm-15,0H328v-3h10Zm-15,0H313v-3h10Zm-15,0H298v-3h10Zm-15,0H283v-3h10Zm-15,0H268v-3h10Zm-15,0H253v-3h10Zm-15,0H238v-3h10Zm-15,0H223v-3h10Zm-15,0H208v-3h10Zm-15,0H193v-3h10Zm-15,0H178v-3h10Zm-15,0H163v-3h10Zm-15,0H148v-3h10Zm-15,0H133v-3h10Zm-15,0H118v-3h10Zm-15,0H103v-3h10Zm-15,0H88v-3H98Zm-15,0H73v-3H83Zm-15,0H58v-3H68Zm-15,0H43v-3H53Zm-15,0H28v-3H38Zm-14.987-.2a9.956,9.956,0,0,1-3.491-1.439h0l-.016-.01h0l-.032-.021h0l-.015-.011h0l-.047-.031h0l-.015-.01h0l-.031-.021h0l-.013-.009,0,0-.014-.011h0l-.016-.011h0l-.014-.01,0,0-.011-.008,0,0-.029-.021,0,0-.011-.007,0,0-.013-.01h0l-.015-.011,0,0-.011-.008-.005,0-.01-.007,0,0-.013-.01-.006,0-.009-.007-.006,0-.008-.006-.006,0-.009-.007-.007,0-.011-.008-.008-.006-.006,0-.008,0-.006,0-.008-.006-.005,0-.015-.011-.006,0-.008-.006-.006,0-.008-.006,0,0-.02-.016h0l-.009-.007,0,0-.009-.007,0,0-.031-.023,0,0-.009-.007,0,0-.045-.034,0,0-.011-.008h0l-.033-.026h0l-.011-.009h0a10.048,10.048,0,0,1-3.127-4.225l2.8-1.09a7.07,7.07,0,0,0,5.134,4.33Zm-5.012-11.1H15v-10h3Zm0-15H15v-10h3ZM15.5-10481c-.174,0-.342,0-.5-.007v-3h0c.156.006.324.009.5.009s.358,0,.537-.009h.026a.118.118,0,0,0,.026,0,.079.079,0,0,0,.026,0,.117.117,0,0,1,.026,0c.01,0,.02,0,.03,0l.056,0h0l.029,0h.054a.08.08,0,0,1,.026,0,.224.224,0,0,1,.026,0c.008,0,.017,0,.025,0h.026l.053,0h0a.069.069,0,0,1,.028,0,.124.124,0,0,1,.027,0l.026,0a.079.079,0,0,0,.026,0h.026l.106-.008h0l.029,0a.063.063,0,0,0,.027,0l.026,0,.023,0a.274.274,0,0,0,.028,0h0l.132-.013a.078.078,0,0,0,.026,0h0l.026,0,.185-.019h0l.026,0h0l.026,0h0a15.365,15.365,0,0,0,3.517-.82h0l.024-.009h0l.024-.009h0l.123-.045h0l.022-.009h0l.02-.008,0,0,.02-.007,0,0,.02-.008h0l.022-.009h0l.072-.027,0,0,.019-.008.007,0,.016-.007.008,0,.015-.006.009,0,.015-.006.009,0,.015-.006.009,0,.014-.006.009,0,.015-.006.011,0,.02-.008.011,0,.012,0,.012,0,.011,0,.012,0,.011,0,.012,0,.01,0,.013-.006.009,0,.014-.006.008,0,.015-.007.005,0,.081-.034h0l.019-.008,0,0,.018-.008h0l.019-.009h0l.02-.009h0c.133-.058.266-.118.4-.18l1.273,2.717A18.344,18.344,0,0,1,15.5-10481Zm12.747-5.094-2.069-2.172.073-.07.006,0,.011-.011c.064-.062.128-.125.192-.188h0l.016-.016,0,0,.012-.013,0,0,.012-.013,0,0,.016-.016h0l.015-.015,0,0,.012-.012,0,0,.013-.013,0,0,.016-.017,0,0,.014-.014,0,0,.012-.012,0,0,.015-.016h0l.016-.017h0l.014-.015,0,0,.013-.014,0,0,.032-.033v0l.014-.015,0,0,.014-.016h0l.032-.034,0,0,.014-.015,0,0,.015-.016h0l.032-.034,0,0,.014-.016,0,0,.047-.052,0,0,.014-.015,0,0,.047-.053h0l.015-.017h0l.048-.053h0l.047-.054h0l.015-.018h0l.047-.055h0l.016-.018h0l.047-.055h0l.063-.072h0a15.5,15.5,0,0,0,1.876-2.738h0l.044-.082v0l.032-.062h0l.01-.02v0l.032-.062v0l.009-.019v0l.031-.061v0l.009-.019v0l.021-.041h0l.009-.019,0,0,.009-.019v0l.02-.041v0l.009-.018,0,0,.009-.019h0l.02-.041,0,0,.008-.018,0,0,.009-.019h0l.01-.021h0l.009-.019,0,0,.008-.016,0,0,.019-.041v0l.008-.018,0,0,.007-.016,0,0,.019-.039,0,0,.007-.016,0-.006.007-.015,0,0,.009-.02h0l.009-.019,0-.006.006-.015,0-.007.007-.014,0-.006.009-.02v0l.008-.017,0-.006.006-.014,0-.007.007-.016,0,0,.009-.02,0,0,.007-.016,0-.006.006-.013,0-.008.006-.015,0,0,.008-.02,0-.007.006-.013,0-.008.005-.012,0-.009.006-.014,0-.009.007-.015,0-.009,0-.012,0-.008,0-.012,0-.009.007-.016,0-.01.005-.012,0-.01,0-.011,0-.009,0-.011,0-.01.007-.018,0-.008,0-.012,0-.009,0-.011,0-.01,0-.01,0-.012.006-.016,0-.011,0-.009,0-.011,0-.009,0-.011,0-.009.009-.021,0-.007,0-.012,0-.007,0-.012,0-.008,0-.012,0-.007.01-.024,0,0,0-.013,0-.007,0-.013,0-.007,0-.013v0l.011-.029,0,0,.005-.014,0-.006.005-.013,0-.006.018-.046v0l.005-.015,0,0,.005-.014v0l.018-.049v0l.006-.016v0l.025-.067h0l.006-.017v0l.025-.068h0a15.362,15.362,0,0,0,.712-2.729l2.96.488a18.34,18.34,0,0,1-5.169,10.035C28.473-10486.311,28.36-10486.2,28.248-10486.095Zm2.564-15.828a15.346,15.346,0,0,0-3.455-7.561h0l-.062-.072h0l-.062-.072h0l-.015-.018h0l-.047-.054h0l-.015-.018h0l-.047-.053v0l-.014-.017h0l-.047-.053h0l-.015-.017h0l-.047-.053,0,0-.014-.016,0,0-.047-.051,0,0L26.9-10510l0,0-.015-.016h0l-.032-.034,0,0-.014-.016,0,0-.015-.017h0l-.032-.034,0,0-.013-.014,0,0-.014-.015,0,0-.032-.033,0,0-.012-.014,0,0-.013-.013,0,0-.031-.032,0,0-.012-.013,0,0-.012-.013,0,0-.016-.017h0l-.015-.016,0,0-.012-.013,0,0-.012-.012,0,0-.016-.016h0l-.015-.016,0,0-.012-.012,0,0-.012-.012,0,0-.016-.016h0l-.018-.018-.016-.017h0l-.148-.146,2.088-2.154c.073.07.145.142.216.213a18.333,18.333,0,0,1,5.195,10.2Zm-8.616-11.566a15.345,15.345,0,0,0-4.4-1.344h0l-.022,0h0l-.022,0h0l-.139-.02h0a.1.1,0,0,0-.024,0,.2.2,0,0,0-.024,0,.091.091,0,0,0-.023,0l-.115-.015-.023,0a.068.068,0,0,0-.024,0l-.025,0-.025,0h0l-.09-.011a.1.1,0,0,0-.024,0l-.024,0-.025,0-.025,0h-.006l-.085-.009a.066.066,0,0,1-.024,0,.105.105,0,0,0-.025,0,.221.221,0,0,0-.025,0l-.025,0a.23.23,0,0,0-.026,0h0l-.061-.006-.024,0a.071.071,0,0,1-.025,0,.226.226,0,0,1-.025,0l-.025,0-.025,0-.064,0a.105.105,0,0,0-.025,0,.076.076,0,0,1-.025,0,.117.117,0,0,1-.026,0,.221.221,0,0,0-.025,0,.057.057,0,0,0-.026,0l-.025,0a.245.245,0,0,1-.038,0,.056.056,0,0,0-.025,0,.115.115,0,0,1-.026,0l-.026,0h-.026a.112.112,0,0,0-.025,0h-.026a.151.151,0,0,0-.03,0h-.031a.124.124,0,0,1-.027,0,.239.239,0,0,0-.026,0,.113.113,0,0,1-.026,0h-.026a.113.113,0,0,0-.026,0,.115.115,0,0,0-.026,0,.2.2,0,0,1-.034,0,.067.067,0,0,1-.028,0c-.346-.012-.7-.014-1.043,0v-3c.166,0,.334-.007.5-.007a18.342,18.342,0,0,1,7.993,1.807Zm-4.2-9.081H15v-10h3Zm0-15H15v-10h3Zm.229-14.209-2.9-.763a9.927,9.927,0,0,1,.723-1.917h0l.008-.018h0l.026-.051v0l.026-.051v0l.008-.015v0l.018-.034h0l.008-.016h0l.027-.051v0l.008-.015v0l.018-.033v0l.008-.015v0l.018-.032,0,0,.007-.014,0,0,.007-.013,0,0,.009-.017h0l.008-.015,0,0,.006-.011,0-.006.007-.012,0,0,.009-.016,0,0,.006-.012,0,0,.007-.012,0,0,.009-.016v0l.007-.013,0-.006.006-.01,0-.006.008-.015h0l.009-.015,0-.006.006-.01,0-.006.006-.011,0,0,.009-.015,0,0,.006-.01,0-.007.005-.009,0-.006.006-.011.005-.009.006-.01,0-.007.005-.009,0-.006.006-.011,0,0,.009-.015,0-.006.005-.009,0-.007.005-.009,0-.006.007-.012.006-.009,0-.008,0-.008.005-.008,0-.007.006-.009,0-.007.008-.013,0-.007,0-.008,0-.008,0-.007,0-.008.007-.01.006-.01.005-.008,0-.008,0-.007.005-.008,0-.007.009-.013,0-.008.005-.008,0-.007.005-.008,0-.007.005-.008.009-.013,0-.007,0-.007.005-.009,0-.006.005-.008,0-.006.011-.016,0-.006.005-.008,0-.007.005-.008,0-.006.005-.008.009-.013.006-.009,0-.006.006-.008,0-.006.006-.009,0,0,.014-.021,0,0,.007-.011,0,0,.007-.01,0,0,.023-.032,0,0,.007-.01,0,0,.024-.033v0l.007-.01,0,0,.033-.045,0,0,.008-.011h0l.025-.035h0l.008-.012h0l.035-.048h0l.035-.048h0l.008-.011h0l.035-.047h0c.039-.052.079-.1.12-.153h0l.009-.012h0l.037-.046h0l.037-.046h0a10.025,10.025,0,0,1,4.666-3.2l.928,2.853A7.074,7.074,0,0,0,18.229-10551.779ZM36.864-10557h-10v-3h10Zm15,0h-10v-3h10Zm15,0h-10v-3h10Zm15,0h-10v-3h10Zm15,0h-10v-3h10Zm15,0h-10v-3h10Zm15,0h-10v-3h10Zm15,0h-10v-3h10Zm15,0h-10v-3h10Zm15,0h-10v-3h10Zm15,0h-10v-3h10Zm15,0h-10v-3h10Zm15,0h-10v-3h10Zm15,0h-10v-3h10Zm15,0h-10v-3h10Zm15,0h-10v-3h10Zm15,0h-10v-3h10Zm15,0h-10v-3h10Zm15,0h-10v-3h10Zm15,0h-10v-3h10Zm15,0h-10v-3h10Zm15,0h-10v-3h10Zm15,0h-10v-3h10Zm15,0h-10v-3h10Zm15,0h-10v-3h10Zm15,0h-10v-3h10Zm15,0h-10v-3h10Zm15,0h-10v-3h10Zm15,0h-10v-3h10Zm15,0h-10v-3h10Zm8.02,5.717a6.992,6.992,0,0,0-1.472-3.15,7.065,7.065,0,0,0-2.777-2.052l1.134-2.777a10.049,10.049,0,0,1,3.961,2.925,10.006,10.006,0,0,1,1.409,2.276h0l.023.053h0l.007.016v0l.015.034,0,0,.006.014,0,0,.006.015v0l.007.018h0l.007.017,0,0,.006.013,0,0,.007.017h0l.007.017,0,.006,0,.01,0,.008,0,.01,0,.007.006.015,0,.007,0,.01,0,.008,0,.008,0,.009,0,.009.005.014,0,.008,0,.009,0,.008,0,.009,0,.006.014.035,0,0,0,.012v0l.015.04h0l0,.013v0l0,.013v0l.021.055h0l.021.057h0a9.885,9.885,0,0,1,.439,1.6Zm3.118,14.44h-3v-10h3Zm0,15h-3v-10h3Zm-7.708,9.188-1.592-2.543a18.458,18.458,0,0,1,9.205-2.792l.036,1.146-.036-1.146.036,1.146H483v1.852h0a.121.121,0,0,0-.027,0h-.065a.22.22,0,0,0-.025,0,.089.089,0,0,0-.023,0,.213.213,0,0,0-.025,0,.084.084,0,0,1-.022,0h-.027a.21.21,0,0,0-.025,0l-.047,0h-.069a.237.237,0,0,0-.026,0h-.046a.177.177,0,0,1-.023,0h-.024a.049.049,0,0,0-.024,0l-.044,0h0a.389.389,0,0,1-.048,0l-.043,0h-.023c-.008,0-.016,0-.024,0h0l-.02,0-.024,0h0a.093.093,0,0,1-.023,0l-.022,0h0l-.022,0h0l-.044,0h0l-.044,0h0l-.044,0a.193.193,0,0,0-.024,0h0a.1.1,0,0,1-.024,0l-.021,0h0l-.045,0h0l-.044,0h0l-.044,0h0l-.044,0h0l-.022,0h0a.1.1,0,0,0-.024,0l-.021,0h0l-.044.006h0l-.044,0h0l-.044,0h0l-.044.006h0l-.043.006a.064.064,0,0,0-.023,0h0l-.023,0h0l-.022,0a.126.126,0,0,1-.024,0h0l-.021,0h0l-.044.006h0l-.044.007h0l-.044.007h0l-.022,0-.023,0-.022,0h0l-.044.007h0l-.044.007h0l-.043.007h0l-.043.007h0l-.044.007h0l-.021,0h0l-.022,0h0a.093.093,0,0,1-.023,0l-.022,0h0l-.021,0h0l-.043.008h0l-.042.007c-.008,0-.016,0-.024,0h0l-.022,0h0l-.022,0-.021,0h0a.085.085,0,0,1-.022,0l-.022,0h0l-.02,0h0l-.021,0h0c-.008,0-.017,0-.025,0l-.042.009h0l-.042.009c-.006,0-.015,0-.023,0l-.023,0h0l-.017,0a.132.132,0,0,0-.025,0,.215.215,0,0,0-.021,0h0l-.02,0a.078.078,0,0,1-.021,0h-.005l-.02,0h0l-.02,0a.092.092,0,0,0-.022,0,.076.076,0,0,0-.023,0,.175.175,0,0,0-.022,0l-.024,0a.082.082,0,0,0-.021,0l-.024,0a.14.14,0,0,1-.021,0h-.005l-.019,0a.072.072,0,0,0-.02,0h-.007l-.019,0-.02,0a.182.182,0,0,1-.024.006h0a.076.076,0,0,0-.025.006.071.071,0,0,0-.02,0l-.025.006a.072.072,0,0,0-.02,0,.077.077,0,0,0-.025.006.05.05,0,0,0-.02,0,.071.071,0,0,0-.025.006l-.014,0h-.007l-.019,0a.05.05,0,0,0-.02,0c-.008,0-.015,0-.023.006a.061.061,0,0,0-.022,0l-.008,0a.207.207,0,0,1-.023.006c-.008,0-.015,0-.023.006a.076.076,0,0,1-.02,0l-.017,0-.02,0-.008,0-.017,0-.02,0a.12.12,0,0,1-.026.007.048.048,0,0,1-.019,0l-.022.007a.067.067,0,0,0-.023.006l-.02,0-.024.007-.02.006a.122.122,0,0,0-.025.007l-.02,0-.025.008-.019,0-.01,0-.016,0a.07.07,0,0,1-.019,0l-.021.006-.024.007-.02.006-.015,0a.038.038,0,0,1-.02,0l-.009,0-.026.008a.07.07,0,0,0-.019.006l-.017,0-.009,0-.018.006-.038.012a.146.146,0,0,0-.019,0l-.005,0-.021.006a.065.065,0,0,1-.019.006l-.005,0-.021.007c-.006,0-.012,0-.018,0l-.007,0-.021.007c-.005,0-.011,0-.017.006l-.006,0-.025.008h0a.106.106,0,0,0-.018.006l-.041.013h0l-.041.014h0l-.013,0h0l-.028.009-.016,0h0l-.028.009a.034.034,0,0,0-.016.006h0l-.044.015h0l-.043.015h0l-.042.014,0,0-.042.014h0l-.1.036h0l-.044.016h0l-.044.017h0a15.2,15.2,0,0,0-2.023.9h0l-.042.021h0l-.041.021h0l-.013.007h0l-.026.015h0l-.013.007h0l-.04.021,0,0-.038.021,0,0-.038.021,0,0-.013.007h0l-.025.015,0,0-.012.006,0,0-.021.012,0,0-.011.006-.005,0-.02.011-.005,0-.01.006-.007,0-.017.011-.006,0-.01.006-.007,0-.01.006-.006,0-.017.01-.008,0-.009,0-.013.008-.01,0-.009.006-.008,0-.011.007-.011.006-.01.006-.009,0-.009.006-.011.007-.012.007-.007,0-.011.007-.007,0-.016.01-.006,0-.012.008-.006,0-.016.01-.005,0-.013.009,0,0-.017.01,0,0-.014.009,0,0-.018.011h0l-.017.011,0,0-.036.022h0l-.037.023h0l-.038.023h0Zm-7.277,12.451-3-.134a18.312,18.312,0,0,1,4.22-10.948l2.311,1.914a15.423,15.423,0,0,0-2.375,3.938h0c-.029.07-.058.143-.087.214h0l-.042.107h0l-.008.021h0c-.014.035-.028.071-.041.107h0l-.04.107h0l-.032.087h0l-.008.021h0l-.008.021h0l-.031.087h0l-.038.108h0l-.007.021h0l-.037.109h0l-.036.109h0l-.007.021h0l-.028.088h0l-.007.021v0l-.034.109h0l-.027.089h0l-.006.021h0l-.026.089h0l-.006.021h0l-.006.021h0l-.025.088h0l-.006.021h0l-.025.088v0l-.006.021h0l-.024.089h0l-.006.021h0l-.029.11v0l-.005.021h0l-.023.09h0l-.005.021h0l-.022.089v0l-.005.021h0l-.021.091h0l-.005.021h0c-.009.038-.017.075-.026.113h0l-.025.112v0l0,.021h0c-.006.029-.013.06-.019.09h0l0,.021h0l-.018.091h0l0,.022h0l-.022.113h0l-.021.114h0c-.014.076-.027.152-.04.229h0l0,.021h0l-.015.092h0l0,.022h0l-.014.092h0l0,.022h0l0,.022h0l-.013.093h0l0,.021h0c0,.03-.009.062-.013.092h0l0,.022h0l-.012.093h0l0,.021v0l-.011.092h0l0,.022h0l0,.022h0c0,.031-.007.062-.01.093h0c0,.031-.007.062-.01.093h0l0,.022h0l0,.022h0l-.009.092v0l0,.021h0c0,.03-.006.062-.008.092v0l0,.021v0l0,.021h0l-.006.069v0l0,.021v0l0,.021v0c0,.022,0,.046-.005.069h0l0,.022v.025l0,.069v.07h0l0,.047h0v.071c0,.023,0,.046,0,.069v.054Zm4.3,15.445a18.784,18.784,0,0,1-2.095-1.857,18.526,18.526,0,0,1-4.524-7.824l2.887-.817a15.357,15.357,0,0,0,.927,2.452h0l.04.083h0l.051.1h0l.041.082h0l.052.1h0l.1.185h0c.032.062.065.122.1.184h0q.05.092.1.182h0a15.571,15.571,0,0,0,1.3,1.934h0q.094.119.19.237h0l.014.018h0l.059.072h0l.059.07,0,0,.014.017v0l.045.053h0l.014.017,0,0,.058.067,0,0,.013.015,0,0,.042.049,0,0,.013.015,0,0,.013.015,0,0,.041.047,0,0,.013.014,0,0,.013.015h0l.028.031,0,0,.012.014.006.007.012.013.006.006.039.043.007.007.011.013.007.008.011.012.006.007.02.021.008.009.01.011.008.009.01.012.008.009.01.011.017.018.009.01.009.01.009.01.01.011.009.01.013.014.01.011.013.014.008.008.011.013.008.008.013.014.006.007.018.019.006.006.014.015.007.007.013.014.006.007.019.02h0l.015.015.007.007.008.008.008.009.007.006.008.009h0l.023.024,0,0,.011.012,0,0q.3.3.611.587h0l.054.05h0l.013.012,0,0,.038.034,0,0,.011.009,0,0,.01.009,0,0,.033.029.007.006.008.008.008.007.008.007.01.009.009.008.012.01.007.006.01.009.006.006.011.01,0,0,.016.014,0,0,.014.013,0,0,.013.011,0,0,.016.014h0l.017.015,0,0,.014.012,0,0,.014.012,0,0,.035.029h0l.016.014h0l.052.044,0,0,.016.014h0l.035.029h0l.017.014,0,0,.053.043h0l.016.014,0,0,.035.028h0l.015.012,0,0,.013.011,0,0,.033.026.006,0,.011.009.007,0,.009.008.007.006.015.012.009.008.007,0,.01.008.006,0,.011.009h0q.1.079.2.155Zm10.682,6.193h-3v-2.766a18.283,18.283,0,0,1-2.428-.639l.959-2.842a15.5,15.5,0,0,0,4.279.8h.025c.016,0,.033,0,.049,0h.067a.085.085,0,0,0,.022,0,.086.086,0,0,1,.027,0Zm0,15h-3v-10h3Zm-.1,15-2.97-.427a7.065,7.065,0,0,0,.071-1v-8.566h3v8.566h0c0,.007,0,.014,0,.021v.006s0,.011,0,.016,0,0,0,0v.02s0,0,0,0,0,.011,0,.016,0,0,0,.007,0,.013,0,.019,0,0,0,0,0,.011,0,.016v.021s0,0,0,.007,0,.013,0,.019v.008s0,.009,0,.013v.008c0,.006,0,.011,0,.016v.042s0,.011,0,.016v.092l0,.045v0q-.013.3-.043.6h0c0,.016,0,.03,0,.045v.021l0,.023v.035l0,.018v.007l0,.014v.006l0,.041v0Q482.913-10448.668,482.9-10448.57ZM473-10440v-3a6.954,6.954,0,0,0,5.6-2.806l2.4,1.8a10.08,10.08,0,0,1-3.081,2.709h0l-.015.008h0l-.015.008h0l-.062.034h0l-.015.008h0l-.015.009h0l-.047.025h0l-.014.008h0l-.014.008h0l-.047.024h0l-.013.008h0l-.013.007h0l-.014.008h0l-.031.017h0l-.014.007,0,0-.012.006,0,0-.012.006,0,0-.014.008h0l-.016.008h0l-.015.008h0l-.012.007,0,0-.012.006,0,0-.014.006h0l-.031.016,0,0-.012.006,0,0a.086.086,0,0,0-.016.008l-.013.006h0l-.047.022,0,0-.012.006-.015.007,0,0-.013.007h0l-.016.007h0l-.015.008h0l-.012.006,0,0-.015.008-.012,0,0,0-.031.014,0,0-.012.006,0,0-.012,0,0,0-.013.006h0l-.014.007h0l-.016.008h0l-.015.007a.044.044,0,0,0-.015.007l-.005,0-.01,0-.006,0a.04.04,0,0,1-.015.007l-.016.007h0l-.014.006,0,0-.011,0-.005,0-.011,0,0,0-.012,0,0,0-.015.007h0l-.016.007h0l-.013,0,0,0c-.005,0-.011.007-.016.007l-.011,0,0,0-.011,0,0,0-.015.006h0l-.013.006-.005,0-.011,0s-.01,0-.015.006a.127.127,0,0,0-.016.007l-.006,0c-.005,0-.011.007-.015.006l-.015.007a.085.085,0,0,1-.016.006l-.016.007s-.011,0-.016.006l-.017.007,0,0-.015.006a.026.026,0,0,1-.016.006l-.006,0c-.005,0-.011,0-.016.007l-.016.006-.016.006-.014.006h0l-.021.008-.016.006-.016.006-.008,0a.042.042,0,0,0-.017.006l-.006,0-.015.006s-.01,0-.016.006l-.007,0-.016.006a.049.049,0,0,0-.016.006.051.051,0,0,0-.016.006l-.013,0a.066.066,0,0,1-.019.006l-.016.006-.016.006-.007,0c-.005,0-.011,0-.016.006a.047.047,0,0,0-.016.006l-.015,0a.05.05,0,0,1-.016.006.051.051,0,0,1-.016,0,.107.107,0,0,1-.017.006l-.007,0a.093.093,0,0,1-.016.006l-.015,0-.016.006a.051.051,0,0,0-.016,0,.053.053,0,0,1-.016.006.115.115,0,0,0-.017,0l-.017.006-.021.007-.016,0-.017,0-.016.006c-.006,0-.012,0-.018,0l0,0-.016,0a.043.043,0,0,1-.016,0l-.016,0a.037.037,0,0,1-.017,0,.1.1,0,0,1-.016.006.05.05,0,0,0-.019.006.071.071,0,0,0-.019,0,.056.056,0,0,1-.017.006l-.016,0a.052.052,0,0,1-.017,0,.056.056,0,0,1-.017.006h-.006l-.016,0a.048.048,0,0,1-.016,0,.053.053,0,0,1-.017,0,.054.054,0,0,0-.016,0,.1.1,0,0,0-.017,0l-.019.006-.019,0a.045.045,0,0,1-.016,0,.056.056,0,0,1-.017,0,.051.051,0,0,0-.017,0,.061.061,0,0,1-.018,0l-.022.006a.108.108,0,0,1-.017,0,.056.056,0,0,0-.017,0l-.016,0a.028.028,0,0,0-.017,0l-.023.006a.025.025,0,0,1-.016,0,.055.055,0,0,1-.017,0,.049.049,0,0,0-.016,0,.052.052,0,0,1-.017,0,.034.034,0,0,1-.016,0l-.016,0a.048.048,0,0,0-.016,0,.027.027,0,0,0-.017,0,.053.053,0,0,0-.016,0,.027.027,0,0,0-.017,0l-.016,0-.016,0a.1.1,0,0,0-.017,0,.051.051,0,0,0-.017,0,.105.105,0,0,0-.017,0,.033.033,0,0,0-.016,0l-.021,0a.138.138,0,0,1-.019,0,.036.036,0,0,0-.017,0,.1.1,0,0,0-.016,0,.055.055,0,0,1-.017,0,.041.041,0,0,1-.018,0,.054.054,0,0,1-.021,0l-.016,0a.055.055,0,0,1-.017,0l-.017,0-.019,0a.059.059,0,0,0-.022,0l-.017,0-.017,0c-.006,0-.011,0-.017,0l-.017,0-.02,0a.191.191,0,0,0-.021,0,.055.055,0,0,0-.017,0c-.006,0-.011,0-.017,0l-.017,0a.038.038,0,0,0-.018,0,.045.045,0,0,0-.022,0,.033.033,0,0,1-.017,0l-.017,0a.108.108,0,0,0-.018,0l-.017,0c-.007,0-.013,0-.019,0l-.021,0a.034.034,0,0,1-.017,0l-.017,0-.017,0-.019,0-.022,0a.034.034,0,0,0-.017,0,.027.027,0,0,0-.017,0l-.018,0a.039.039,0,0,1-.018,0l-.023,0a.048.048,0,0,0-.017,0l-.017,0-.017,0-.018,0a.031.031,0,0,1-.018,0l-.022,0c-.006,0-.012,0-.017,0l-.017,0a.1.1,0,0,0-.017,0l-.018,0-.023,0a.053.053,0,0,0-.017,0l-.017,0-.018,0-.017,0a.126.126,0,0,0-.019,0,.041.041,0,0,0-.021,0,.055.055,0,0,0-.017,0l-.017,0a.114.114,0,0,0-.018,0,.124.124,0,0,0-.019,0,.086.086,0,0,0-.022,0,.052.052,0,0,0-.017,0,.038.038,0,0,0-.018,0,.054.054,0,0,0-.018,0,.044.044,0,0,0-.019,0,.277.277,0,0,1-.039,0,.026.026,0,0,0-.017,0,.106.106,0,0,0-.018,0l-.018,0-.02,0-.02,0-.018,0a.1.1,0,0,0-.017,0,.028.028,0,0,0-.018,0h-.019a.175.175,0,0,1-.023,0l-.017,0a.107.107,0,0,0-.018,0,.057.057,0,0,0-.018,0h-.038a.076.076,0,0,1-.021,0,.1.1,0,0,0-.017,0h-.018c-.006,0-.012,0-.018,0h-.042a.054.054,0,0,0-.018,0,.056.056,0,0,1-.018,0h-.018a.039.039,0,0,1-.018,0,.289.289,0,0,1-.041,0h-.018a.027.027,0,0,1-.017,0h-.038a.083.083,0,0,1-.022,0h-.036a.054.054,0,0,1-.018,0h-.078a.059.059,0,0,1-.018,0h-.018a.08.08,0,0,0-.022,0h-.038a.055.055,0,0,1-.018,0h-.133a.1.1,0,0,1-.023,0Z" transform="translate(771 12944)" fill="#333"/><path d="M9.156-5.544c-.392.168-.42.224-.28.476.252.476.5.98.728,1.512C8.428-3.164,7.14-2.8,5.88-2.492v-4H9.716c1.54,0,2.212.056,2.38.056.28,0,.308-.028.308-.28,0-.168-.056-.98-.056-2.6v-3.36c0-1.764.056-2.548.056-2.716,0-.28-.028-.308-.308-.308-.168,0-.84.056-2.38.056h-.7v-.868a3.028,3.028,0,0,1,.112-.98.8.8,0,0,0,.168-.392c0-.14-.14-.28-.392-.308-.812-.084-1.68-.112-2.548-.14a9.215,9.215,0,0,1,.168,1.848v.84H6.412c-1.876,0-2.772-.056-2.94-.056-.28,0-.308.028-.308.308,0,.2.056,1.288.056,3.556V-1.96c-.672.112-1.316.2-2.016.252a19.079,19.079,0,0,0,.7,2.716c.084.252.224.336.392.336a.793.793,0,0,0,.448-.2A5.518,5.518,0,0,1,3.808.728c2.38-.7,4.452-1.344,6.608-2.1a5.225,5.225,0,0,0,.2.616c.084.308.168.392.56.2l1.484-.728c.336-.168.364-.224.252-.5a21.9,21.9,0,0,0-1.876-4.172c-.14-.252-.224-.28-.56-.14Zm.588-3H5.88v-1.568H9.744Zm0-5.1v1.568H5.88v-1.568ZM20.188-12.32a3.912,3.912,0,0,1,.2-1.652,1.3,1.3,0,0,0,.168-.644c0-.168-.14-.252-.448-.308-.98-.14-1.876-.2-2.856-.252a22.185,22.185,0,0,1,.14,3.08c0,4.844-1.456,9.24-5.964,12.152A5.94,5.94,0,0,1,12.88,1.6c.252.392.392.56.588.56.168,0,.364-.14.672-.364a14.437,14.437,0,0,0,5.1-8.456,16.321,16.321,0,0,0,5.32,8.4c.308.252.476.364.616.364.2,0,.308-.168.532-.588a6.345,6.345,0,0,1,1.428-1.82c-3.7-2.352-6.1-6.3-6.944-11.536Zm3.3-4.256a23.465,23.465,0,0,1-2.044,5.18,7.492,7.492,0,0,1,1.764.9c.308.224.476.336.588.336.168,0,.252-.2.448-.588a26.839,26.839,0,0,0,1.932-5.516A1.574,1.574,0,0,1,26.516-17a.734.734,0,0,0,.252-.532c0-.252-.14-.476-.756-1.064-.7-.616-.952-.756-1.176-.756a.941.941,0,0,0-.392.14,1.347,1.347,0,0,1-.588.112h-5.4c.168-.532.308-1.092.476-1.68.2-.784.28-1.036.476-1.232a.719.719,0,0,0,.28-.532c0-.2-.168-.308-.476-.392a22.739,22.739,0,0,0-2.716-.5,12.224,12.224,0,0,1-.308,2.1,19.514,19.514,0,0,1-3.556,7.7,7.593,7.593,0,0,1,1.568,1.2c.28.308.448.476.588.476.168,0,.308-.2.56-.56a21.575,21.575,0,0,0,2.212-4.06ZM9.324-22.484c.2-.084.308-.2.308-.392,0-.168-.168-.28-.476-.336-.644-.14-1.652-.308-2.464-.42a4.386,4.386,0,0,1-.588,1.2A16.18,16.18,0,0,1,.952-17.584a5.922,5.922,0,0,1,.784,1.96c.084.364.168.5.308.5a1.224,1.224,0,0,0,.616-.28,20.1,20.1,0,0,0,5.152-5.04,26.017,26.017,0,0,0,4.116,3.92c.308.224.476.336.616.336.168,0,.28-.224.448-.644A4.776,4.776,0,0,1,14.028-18.4a20.668,20.668,0,0,1-4.9-3.976Zm41.86,12.04a23.218,23.218,0,0,0-5.432-1.4c.84-2.016,1.624-4.2,2.352-6.1A3.806,3.806,0,0,1,48.86-19.4a.721.721,0,0,0,.28-.476.672.672,0,0,0-.252-.476,9.358,9.358,0,0,0-1.9-1.54.643.643,0,0,0-.392-.112.616.616,0,0,0-.364.112,3.229,3.229,0,0,1-1.372.476,31.247,31.247,0,0,1-4.34.364,10.434,10.434,0,0,1-2.464-.168,16.971,16.971,0,0,0,.812,3.052.454.454,0,0,0,.448.308,1.474,1.474,0,0,0,.5-.112,5.878,5.878,0,0,1,1.26-.308c.924-.112,2.324-.28,3.864-.448-.7,2.352-1.4,4.312-2.324,6.636-4.676,0-8.26,2.716-8.26,6.188,0,2.716,1.708,3.836,3.332,3.836a4.6,4.6,0,0,0,3.584-1.54c1.12-1.12,1.932-2.52,3.416-5.6A18.933,18.933,0,0,1,50.232-7.5C49.168-4.676,47.46-2.352,43.96.084A5.77,5.77,0,0,1,46.4,1.232a.765.765,0,0,0,.42.2c.168,0,.308-.112.56-.308a17.187,17.187,0,0,0,5.656-7.364A22.754,22.754,0,0,1,56.7-3.612a.534.534,0,0,0,.336.2c.084,0,.168-.056.252-.2a24.126,24.126,0,0,0,1.2-2.408c.084-.28.112-.42-.168-.588A32.4,32.4,0,0,0,53.956-9.3c.28-1.2.56-2.436.784-3.612A4.71,4.71,0,0,1,55.188-14a.527.527,0,0,0-.2-.756,12.075,12.075,0,0,0-3.248-1.2,8.762,8.762,0,0,1,.028,1.9A27.7,27.7,0,0,1,51.184-10.444ZM41.636-9.436A19.141,19.141,0,0,1,39.592-6.02a2.261,2.261,0,0,1-1.624,1.064c-.672,0-.98-.392-.98-1.288C36.988-7.84,38.78-9.324,41.636-9.436ZM91.2-18c0-.28-.028-.308-.28-.308-.168,0-1.064.056-3.668.056H82.656c.28-.812.5-1.624.7-2.436a4.3,4.3,0,0,1,.56-1.4.583.583,0,0,0,.2-.42c0-.168-.168-.28-.532-.392-.812-.2-1.68-.392-2.6-.56A16.8,16.8,0,0,1,80.5-20.5a21.684,21.684,0,0,1-3.584,7.98c0-.308.028-.616.056-.9,0-.28-.056-.336-.336-.336-.168,0-.56.056-1.9.056h-3.22c.056-.9.056-1.848.084-2.828h2.8c2.352,0,3.108.056,3.276.056.28,0,.308-.028.308-.336v-2.072c0-.28-.028-.308-.308-.308-.168,0-.924.056-3.276.056h-.9v-1.54a4.92,4.92,0,0,1,.168-1.708,1.43,1.43,0,0,0,.168-.56c0-.112-.168-.252-.448-.28-1.036-.112-1.9-.14-2.968-.168a12.145,12.145,0,0,1,.224,2.716v1.54h-1.2c-2.352,0-3.136-.056-3.3-.056-.28,0-.308.028-.308.308V-16.8c0,.308.028.336.308.336.14,0,.84-.028,2.744-.056C68.768-9.128,68.432-4.312,65.408-.5A5.512,5.512,0,0,1,66.976,1.2c.252.308.392.476.532.476s.28-.168.476-.476c2.268-3.3,3.08-7.084,3.416-12.348h2.8a49.723,49.723,0,0,1-.588,8.316c-.2,1.148-.5,1.512-1.344,1.512a9.621,9.621,0,0,1-1.932-.2A6.1,6.1,0,0,1,70.98.7c.112.728.14.784.756.812.42.028.812.028,1.232.028A2.746,2.746,0,0,0,75.544-.084,4.855,4.855,0,0,1,76.86,1.54c.252.448.336.644.56.644a1.762,1.762,0,0,0,.644-.252,20.213,20.213,0,0,0,6.188-4.788,25.031,25.031,0,0,0,5.04,4.536,1.476,1.476,0,0,0,.672.308c.2,0,.308-.2.5-.644A7.437,7.437,0,0,1,91.784-.812a21.693,21.693,0,0,1-5.8-4.4,23.309,23.309,0,0,0,2.968-10.528c1.288.028,1.82.056,1.96.056.252,0,.28-.028.28-.308Zm-14.308,6.5a12.4,12.4,0,0,1,.924,1.176c.2.28.308.42.42.42.14,0,.308-.168.56-.532.392-.532.756-1.092,1.092-1.652a24.824,24.824,0,0,0,2.66,6.86A17.769,17.769,0,0,1,75.6-.168a4.467,4.467,0,0,0,.28-.644c.644-1.652.98-5.964,1.008-9.576Zm4.844-4.228h4.34A21.043,21.043,0,0,1,84.2-7.728,22.771,22.771,0,0,1,81.7-15.652Zm33.544-4.2a15.392,15.392,0,0,1-.616,1.82c-1.988,0-2.66-.056-2.828-.056-.28,0-.308.028-.308.308,0,.168.056.98.056,2.94v5.768c0,1.932-.056,2.772-.056,2.94,0,.28.028.308.308.308.168,0,.868-.056,3-.056h3.808c2.128,0,2.828.056,3.024.056.28,0,.308-.028.308-.308,0-.168-.056-1.008-.056-2.94v-5.768c0-1.96.056-2.772.056-2.94,0-.28-.028-.308-.308-.308-.2,0-.9.056-3.024.056h-1.26a14.632,14.632,0,0,0,.7-1.82h1.54c2.408,0,3.22.056,3.388.056.28,0,.308-.028.308-.28v-1.932c0-.28-.028-.308-.308-.308-.168,0-.98.056-3.388.056H114.24c-2.408,0-3.22-.056-3.388-.056-.308,0-.336.028-.336.308v1.932c0,.252.028.28.336.28.168,0,.98-.056,3.388-.056Zm4.06,11.984H114.1V-9.52h5.236ZM114.1-11.34v-1.484h5.236v1.484Zm0-4.76h5.236v1.456H114.1Zm3.332,11.2c-.28.224-.336.308-.112.532a15.392,15.392,0,0,0,3.892,2.744,2.2,2.2,0,0,0,.644.224,77.034,77.034,0,0,1-8.456.42,24.631,24.631,0,0,1-7-.728v-3.22h1.232c1.512,0,1.9.056,2.072.056.28,0,.308-.028.308-.308V-7c0-.28-.028-.308-.308-.308-.168,0-.56.056-2.072.056H106.4v-2.38h.588c2.408,0,3.22.056,3.388.056.28,0,.308-.028.308-.308v-1.9c0-.28-.028-.308-.308-.308-.168,0-.98.056-3.388.056h-5.32c-2.408,0-3.22-.056-3.388-.056-.252,0-.28.028-.28.308v1.9c0,.28.028.308.28.308.168,0,.98-.056,3.388-.056h2.1v6.58a7.518,7.518,0,0,1-1.82-2.044l.2-1.512a2.171,2.171,0,0,1,.2-.784.9.9,0,0,0,.168-.5c0-.14-.14-.252-.476-.308-.756-.14-1.568-.308-2.324-.392a13.965,13.965,0,0,1-.028,1.568c-.308,3.192-.924,5.4-2.352,7.252A8.461,8.461,0,0,1,98.98,1.372c.28.28.42.392.56.392s.252-.168.476-.532a15.557,15.557,0,0,0,1.428-3.7,8.328,8.328,0,0,0,2.6,2.38c2.072,1.232,5.1,1.736,9.436,1.736,3.108,0,5.824-.056,8.68-.308.9-.056.9-.056,1.064-.98a9.146,9.146,0,0,1,.784-2.016c-.7.112-1.428.2-2.072.252.168-.084.224-.14.56-.728a5.743,5.743,0,0,1,.98-1.232A12.106,12.106,0,0,1,119.112-5.8c-.112-.084-.168-.14-.252-.14-.112,0-.2.056-.364.2Zm-14.84-17.444c-2.1,0-2.828-.056-3.024-.056-.28,0-.308.028-.308.308,0,.168.056.84.056,2.436v3.444c0,1.624-.056,2.268-.056,2.464,0,.28.028.308.308.308.2,0,.924-.056,3.024-.056h3.7c2.1,0,2.828.056,3,.056.252,0,.28-.028.28-.308,0-.168-.056-.84-.056-2.464v-3.444c0-1.6.056-2.268.056-2.436,0-.28-.028-.308-.28-.308-.168,0-.9.056-3,.056Zm4.284,6.944H101.92V-17h4.956Zm-4.956-3.472v-1.512h4.956v1.512ZM113.792-5.908a5.407,5.407,0,0,1-.9.9,13.407,13.407,0,0,1-3.7,1.988,6.473,6.473,0,0,1,1.036,1.288c.224.336.308.5.5.5a2.018,2.018,0,0,0,.672-.224,17.48,17.48,0,0,0,3.416-2.072,2.327,2.327,0,0,1,.588-.448c.2-.084.336-.168.336-.364,0-.168-.112-.252-.308-.42A14.378,14.378,0,0,0,113.792-5.908Z" transform="translate(829 2466)" fill="#fff"/><path d="M3.132-2.754C1.62-2.754,1.1-2.79,1.008-2.79c-.18,0-.2.018-.2.2V-1.44c0,.2.018.216.2.216.09,0,.612-.036,2.124-.036h.936c0,1.638-.036,2.412-.036,2.538,0,.18.018.2.216.2H5.6c.18,0,.2-.018.2-.2,0-.09-.036-.882-.036-2.5V-1.26h.576c1.512,0,2.016.036,2.124.036.18,0,.2-.018.2-.216V-2.592c0-.18-.018-.2-.2-.2-.108,0-.612.036-2.124.036H5.76V-4.068h.324c1.332,0,1.782.036,1.908.036.162,0,.18-.018.18-.18,0-.126-.018-.594-.018-1.692V-9.162a5.975,5.975,0,0,1,.756.54c.216.18.324.288.432.288.09,0,.18-.108.36-.306v1.116c0,.2.018.216.2.216.09,0,.4-.036,1.458-.036h1.926c-.63.684-1.278,1.4-2.232,2.574C9.7-3.132,9.2-2.16,9.2-.936A1.928,1.928,0,0,0,9.99.63a5.29,5.29,0,0,0,2.844.45c2.142,0,2.988-.234,3.528-.738a3.388,3.388,0,0,0,.882-2.43c.036-.558.036-.558-.5-.7a5.127,5.127,0,0,1-1.17-.468c-.072,1.4-.2,1.89-.486,2.2-.306.306-.846.414-1.908.414A3.341,3.341,0,0,1,11.5-.864.576.576,0,0,1,11.2-1.44c0-.63.468-1.3,1.908-3.024.864-1.08,1.728-1.962,2.322-2.592a1.916,1.916,0,0,1,.612-.468c.162-.09.252-.162.252-.306,0-.162-.09-.306-.558-.774-.414-.414-.522-.468-.7-.468A.6.6,0,0,0,14.76-9a1.008,1.008,0,0,1-.378.036H11.358c-.9,0-1.26-.018-1.4-.036a11.6,11.6,0,0,0,1.1-1.782h3.222c2.052,0,2.682.036,2.79.036.162,0,.18-.018.18-.2v-1.314c0-.2-.018-.216-.18-.216-.108,0-.738.036-2.79.036H11.79l.324-.972a2.152,2.152,0,0,1,.36-.81.484.484,0,0,0,.144-.324c0-.126-.144-.2-.324-.252a14.653,14.653,0,0,0-1.638-.324,10.167,10.167,0,0,1-.288,1.4A12.156,12.156,0,0,1,8.154-9.558c0-.324.018-.522.018-.594,0-.18-.018-.2-.18-.2-.126,0-.576.036-1.908.036H5.76v-1.3h.684c1.53,0,2.016.036,2.124.036.2,0,.216-.018.216-.2v-1.152c0-.18-.018-.2-.216-.2-.108,0-.594.036-2.124.036H5.76v-.324a2.515,2.515,0,0,1,.108-1.026.811.811,0,0,0,.09-.306c0-.108-.09-.162-.27-.2a15.531,15.531,0,0,0-1.746-.126,14.406,14.406,0,0,1,.126,1.98H3.294c-1.512,0-2.016-.036-2.124-.036-.18,0-.2.018-.2.2v1.152c0,.18.018.2.2.2.108,0,.612-.036,2.124-.036h.774v1.3H3.726c-1.332,0-1.764-.036-1.89-.036-.18,0-.2.018-.2.2,0,.126.036.594.036,1.656V-5.9c0,1.1-.036,1.566-.036,1.692,0,.162.018.18.2.18.126,0,.576-.036,1.908-.036h.324v1.314Zm3.42-2.682H3.258V-6.552H6.552ZM3.258-8.946H6.552v1.1H3.258ZM31.77-12.06a14.58,14.58,0,0,1-5.2,7.614,4.139,4.139,0,0,1,.864,1.08c.144.252.234.378.342.378.09,0,.216-.108.4-.27a17.767,17.767,0,0,0,3.15-3.78c-.018.756-.036,1.548-.036,2.2V-1.53c0,1.764-.036,2.61-.036,2.718,0,.18.018.2.216.2h1.512c.18,0,.2-.018.2-.2,0-.09-.036-.954-.036-2.718V-10.4c.2-.54.4-1.1.54-1.656H35.19c1.728,0,2.322.036,2.43.036.162,0,.18-.018.18-.2V-13.68c0-.18-.018-.2-.18-.2-.108,0-.7.036-2.43.036H30.078c-1.71,0-2.3-.036-2.412-.036-.2,0-.216.018-.216.2v1.458c0,.18.018.2.216.2.108,0,.7-.036,2.412-.036ZM25.668,1.4c.2,0,.216-.018.216-.2,0-.378-.108-4.158-.126-9.144a9.03,9.03,0,0,0,1.188,1.98c.126.162.2.252.27.252s.144-.108.234-.324a5.575,5.575,0,0,1,.684-1.224A7.831,7.831,0,0,1,26.01-9.882c1.26,0,1.692.036,1.8.036.18,0,.2-.018.2-.2v-1.3c0-.18-.018-.2-.2-.2-.108,0-.54.036-1.854.036h-.144v-1.044c0-1.422.018-1.638.108-1.836a.809.809,0,0,0,.108-.342c0-.126-.126-.2-.306-.216-.612-.072-1.1-.108-1.782-.126a14.946,14.946,0,0,1,.144,2.556V-11.5h-.36c-1.314,0-1.746-.036-1.854-.036-.18,0-.2.018-.2.2v1.3c0,.18.018.2.2.2.108,0,.54-.036,1.854-.036h.18A14.306,14.306,0,0,1,21.132-4.3a5.712,5.712,0,0,1,.684,1.494c.072.216.126.306.2.306s.162-.09.27-.27a15.34,15.34,0,0,0,1.854-4.05c-.036,4.284-.126,7.668-.126,8.028,0,.18.018.2.2.2ZM33.354-8.55c-.2.126-.216.234-.144.4a18.88,18.88,0,0,0,3.276,4.68c.162.18.27.27.36.27.108,0,.2-.108.324-.342a6.069,6.069,0,0,1,1.008-1.26,13.767,13.767,0,0,1-3.456-4.248c-.108-.2-.18-.234-.378-.108Zm14.508-5.238H46.026a10.145,10.145,0,0,1-3.2,1.62l.36,1.89A10.094,10.094,0,0,0,45.72-11.5V-1.71h-2.7V.036h7.416V-1.71H47.862ZM65.484-12.06a14.58,14.58,0,0,1-5.2,7.614,4.139,4.139,0,0,1,.864,1.08c.144.252.234.378.342.378.09,0,.216-.108.4-.27a17.767,17.767,0,0,0,3.15-3.78C65.016-6.282,65-5.49,65-4.842V-1.53c0,1.764-.036,2.61-.036,2.718,0,.18.018.2.216.2H66.69c.18,0,.2-.018.2-.2,0-.09-.036-.954-.036-2.718V-10.4c.2-.54.4-1.1.54-1.656H68.9c1.728,0,2.322.036,2.43.036.162,0,.18-.018.18-.2V-13.68c0-.18-.018-.2-.18-.2-.108,0-.7.036-2.43.036H63.792c-1.71,0-2.3-.036-2.412-.036-.2,0-.216.018-.216.2v1.458c0,.18.018.2.216.2.108,0,.7-.036,2.412-.036ZM59.382,1.4c.2,0,.216-.018.216-.2,0-.378-.108-4.158-.126-9.144a9.03,9.03,0,0,0,1.188,1.98c.126.162.2.252.27.252s.144-.108.234-.324a5.576,5.576,0,0,1,.684-1.224,7.831,7.831,0,0,1-2.124-2.628c1.26,0,1.692.036,1.8.036.18,0,.2-.018.2-.2v-1.3c0-.18-.018-.2-.2-.2-.108,0-.54.036-1.854.036h-.144v-1.044c0-1.422.018-1.638.108-1.836a.809.809,0,0,0,.108-.342c0-.126-.126-.2-.306-.216-.612-.072-1.1-.108-1.782-.126A14.946,14.946,0,0,1,57.8-12.51V-11.5h-.36c-1.314,0-1.746-.036-1.854-.036-.18,0-.2.018-.2.2v1.3c0,.18.018.2.2.2.108,0,.54-.036,1.854-.036h.18A14.306,14.306,0,0,1,54.846-4.3a5.712,5.712,0,0,1,.684,1.494c.072.216.126.306.2.306s.162-.09.27-.27a15.34,15.34,0,0,0,1.854-4.05c-.036,4.284-.126,7.668-.126,8.028,0,.18.018.2.2.2ZM67.068-8.55c-.2.126-.216.234-.144.4A18.88,18.88,0,0,0,70.2-3.474c.162.18.27.27.36.27.108,0,.2-.108.324-.342a6.069,6.069,0,0,1,1.008-1.26,13.767,13.767,0,0,1-3.456-4.248c-.108-.2-.18-.234-.378-.108Zm18.144-5.67c-.2.09-.234.108-.162.306a18.958,18.958,0,0,0,3.87,5.706c-.18.018-.774.036-2.34.036H81.738c-1.386,0-2.016-.018-2.268-.036a16.243,16.243,0,0,0,3.294-4.77,1.443,1.443,0,0,1,.414-.576.37.37,0,0,0,.144-.27c0-.126-.054-.216-.252-.306a12.629,12.629,0,0,0-1.872-.63,5.09,5.09,0,0,1-.36,1.152,14.054,14.054,0,0,1-5.2,5.94,4.036,4.036,0,0,1,1.008,1.1c.18.27.252.4.378.4.09,0,.2-.09.4-.234A19.616,19.616,0,0,0,79.164-7.9v1.314c0,.18.018.2.2.2.108,0,.684-.036,2.376-.036h.216c-.342,3.168-1.926,5.076-5.2,6.264A3.4,3.4,0,0,1,77.67.918c.18.306.234.432.378.432a1.183,1.183,0,0,0,.432-.144,8.706,8.706,0,0,0,5.472-7.632h3.2a29.709,29.709,0,0,1-.342,4.464c-.144.828-.45,1.116-1.206,1.116a13.413,13.413,0,0,1-2.052-.162,3.7,3.7,0,0,1,.558,1.44c.126.594.108.594.666.63.432.036.774.036,1.224.036a2.331,2.331,0,0,0,2.682-2.214,35.929,35.929,0,0,0,.45-5.04c.018-.63.018-1.26.054-1.782A14.892,14.892,0,0,0,90.9-6.48c.18.144.288.234.378.234.108,0,.18-.126.342-.4a6.162,6.162,0,0,1,1.044-1.35,14.413,14.413,0,0,1-5.832-6.642c-.072-.18-.108-.2-.342-.09Zm23.31,1.728A8.932,8.932,0,0,1,110.34-10.4a.188.188,0,0,0,.306.054l.756-.558a.182.182,0,0,0,.054-.288,8.284,8.284,0,0,0-1.71-1.926c-.108-.09-.18-.108-.27-.036Zm1.656-1.188a8.515,8.515,0,0,1,1.8,2.07.185.185,0,0,0,.306.054l.72-.558a.208.208,0,0,0,.054-.324,7.517,7.517,0,0,0-1.71-1.854c-.108-.09-.162-.108-.27-.036Zm-6.516,2.43c.126-.45.252-1.062.432-1.71a3.427,3.427,0,0,1,.378-.72.432.432,0,0,0,.09-.288.3.3,0,0,0-.2-.288,10.491,10.491,0,0,0-2.268-.5,12.385,12.385,0,0,1-.108,1.656c-.126.738-.27,1.53-.45,2.25a24.326,24.326,0,0,1-2.916.18,8.307,8.307,0,0,1-1.332-.054c.09.648.18,1.26.252,1.638.036.234.108.288.378.288.846,0,2.106-.09,3.15-.2A67.566,67.566,0,0,1,97.956-.468a.29.29,0,0,0,.144.36c.378.216,1.26.594,1.44.666.2.054.306.072.4-.18,1.152-2.988,2.07-5.742,3.294-9.738a28.744,28.744,0,0,0,3.132-.684c.234-.054.288-.108.27-.342-.018-.378-.072-.9-.126-1.3-.018-.144-.09-.234-.288-.18C105.336-11.61,104.364-11.376,103.662-11.25Zm.324,8.262a3.511,3.511,0,0,0,.81,2.466c.81.846,2.034,1.17,4.338,1.17a19.888,19.888,0,0,0,2.5-.2c.288-.018.306-.072.288-.288A11.253,11.253,0,0,0,111.78-1.4c-.018-.144-.072-.18-.216-.162a26.91,26.91,0,0,1-3.024.252c-1.728,0-2.61-.378-2.754-1.692-.018-.18-.09-.252-.27-.252A9.168,9.168,0,0,0,103.986-2.988Zm1.4-3.4a19.92,19.92,0,0,1,3.618-.414,12.037,12.037,0,0,1,2.232.216c.252.054.342-.018.342-.324a12.7,12.7,0,0,0-.018-1.44c0-.216-.054-.234-.306-.27a13.108,13.108,0,0,0-2.106-.18,18.8,18.8,0,0,0-3.51.414c-.27.054-.324.108-.324.36C105.318-7.668,105.354-7.02,105.39-6.39Zm22.986-.63a9.946,9.946,0,0,1-.558,4.014,5.842,5.842,0,0,1-3.042,2.988,5.938,5.938,0,0,1,1.4.882.375.375,0,0,0,.36.162.8.8,0,0,0,.45-.162,6.333,6.333,0,0,0,2.574-2.79,9.393,9.393,0,0,0,.792-4.176l-.018-2.772c.828-.09,1.62-.2,2.484-.36.162-.018.252-.09.234-.324-.036-.468-.072-.9-.144-1.35-.018-.18-.108-.216-.324-.162-.756.162-1.53.288-2.3.4v-2a2.2,2.2,0,0,1,.09-.756.725.725,0,0,0,.126-.36c0-.144-.09-.234-.288-.288a10.967,10.967,0,0,0-2.322-.252,5.617,5.617,0,0,1,.306,1.476c.072.684.072,1.494.108,2.394-.648.054-1.494.072-2,.072-.666,0-1.566-.018-2.232-.09.09.792.126,1.278.2,1.638.018.2.162.288.414.288.666.018,1.134.018,1.512,0,.522,0,1.206-.036,2.16-.108ZM122.13-.936a2.2,2.2,0,0,1,.054-.468,13.53,13.53,0,0,1,.81-2.2,1.347,1.347,0,0,0,.216-.594.54.54,0,0,0-.162-.342,5.226,5.226,0,0,1-.594-1.206c-.432,1.008-.756,1.62-1.206,2.574a15.311,15.311,0,0,1-.18-2.844,33.54,33.54,0,0,1,.684-5.4,10.225,10.225,0,0,1,.342-1.332.651.651,0,0,0,.108-.36c0-.126-.108-.252-.4-.4a8.83,8.83,0,0,0-1.89-.63,19.462,19.462,0,0,1-.2,2.682,41.03,41.03,0,0,0-.54,5.76,15.391,15.391,0,0,0,1.062,5.58c.108.216.2.27.414.234A4.453,4.453,0,0,0,121.9-.252c.18-.072.234-.126.234-.252ZM151.542.54c1.62,0,2.178.036,2.286.036.18,0,.2-.018.2-.2V-1.134c0-.18-.018-.2-.2-.2-.108,0-.666.036-2.286.036h-4.266V-4.572h2.25c1.764,0,2.376.036,2.484.036.18,0,.2-.018.2-.2V-6.192c0-.162-.018-.18-.2-.18-.108,0-.72.036-2.484.036h-2.25V-9.414h3.1c1.764,0,2.358.036,2.466.036.2,0,.216-.018.216-.2v-1.476c0-.18-.018-.2-.216-.2-.108,0-.7.036-2.466.036h-3.1v-.99a7.141,7.141,0,0,1,.126-2,.885.885,0,0,0,.09-.36c0-.09-.108-.18-.288-.2-.594-.072-1.332-.108-2.034-.126a17.024,17.024,0,0,1,.144,2.736v.936h-2.97l.432-1.188a1.773,1.773,0,0,1,.342-.684c.126-.144.18-.234.18-.324,0-.126-.126-.216-.324-.27-.5-.144-1.152-.324-1.746-.432a6.109,6.109,0,0,1-.252,1.188,15.313,15.313,0,0,1-2.9,5.256,4.433,4.433,0,0,1,1.134.81c.2.18.306.288.4.288.108,0,.18-.108.342-.324a13.741,13.741,0,0,0,1.584-2.52h3.78v3.078h-1.98c-1.764,0-2.376-.036-2.484-.036-.18,0-.2.018-.2.18v1.458c0,.18.018.2.2.2.108,0,.72-.036,2.484-.036h1.98V-1.3H140.8c-1.638,0-2.178-.036-2.286-.036-.18,0-.2.018-.2.2V.378c0,.18.018.2.2.2.108,0,.648-.036,2.286-.036ZM163.98-10.692a4.1,4.1,0,0,1,.18-1.62.786.786,0,0,0,.126-.378c0-.126-.072-.234-.288-.288a15.41,15.41,0,0,0-2.268-.36,18.694,18.694,0,0,1,.18,3.294V-3.4c0,1.476.378,2.322,1.278,2.7a8.864,8.864,0,0,0,3.42.486,36,36,0,0,0,5.346-.324c.27-.018.378-.09.378-.324,0-.378-.054-1.062-.108-1.566-.018-.216-.054-.288-.324-.252a31.76,31.76,0,0,1-5.076.414,9.223,9.223,0,0,1-2.268-.2c-.468-.144-.594-.432-.594-1.278V-6.138a47.224,47.224,0,0,0,6.174-2.232,9.56,9.56,0,0,1,1.494-.594c.216-.054.306-.18.306-.324a.522.522,0,0,0-.144-.324,10.327,10.327,0,0,0-1.494-1.62,5.587,5.587,0,0,1-1.926,1.3A33.811,33.811,0,0,1,163.98-8.19Zm6.57-2.034a8.931,8.931,0,0,1,1.818,2.088.188.188,0,0,0,.306.054l.756-.558a.182.182,0,0,0,.054-.288,8.285,8.285,0,0,0-1.71-1.926c-.108-.09-.18-.108-.27-.036Zm1.656-1.188a8.515,8.515,0,0,1,1.8,2.07.185.185,0,0,0,.306.054l.72-.558a.208.208,0,0,0,.054-.324,7.517,7.517,0,0,0-1.71-1.854c-.108-.09-.162-.108-.27-.036Zm17.028,8.352c1.332,0,2.664.018,4.014.036.252.018.324-.054.324-.27a13.264,13.264,0,0,0,0-1.692c0-.216-.054-.27-.324-.252-1.386.018-2.772.054-4.14.054h-5.8a23.125,23.125,0,0,1-3.888-.216,19.538,19.538,0,0,0,.27,2.178c.054.27.2.378.414.378a14.394,14.394,0,0,1,2.646-.216ZM209.07-9.81a4.98,4.98,0,0,1,.162-2,1.152,1.152,0,0,0,.144-.45c0-.144-.09-.252-.324-.306a17.177,17.177,0,0,0-2.25-.378,14.372,14.372,0,0,1,.18,3.132v5.634c0,.918.018,1.134-.108,1.368a.553.553,0,0,0-.072.27.718.718,0,0,0,.162.378,5.2,5.2,0,0,0,1.08,1.1.767.767,0,0,0,.378.144.572.572,0,0,0,.36-.144,5.978,5.978,0,0,1,.522-.378,29.892,29.892,0,0,0,3.2-2.16,22.753,22.753,0,0,0,2.664-2.358c.2-.2.27-.324.27-.45a.9.9,0,0,0-.108-.306,5.189,5.189,0,0,1-.558-1.818,17.274,17.274,0,0,1-3.15,3.06A18.3,18.3,0,0,1,209.07-3.8Zm-6.282-2a4.842,4.842,0,0,1,.18,1.512c-.018,2.88-.252,3.87-.756,5.094a8.936,8.936,0,0,1-2.988,3.582,6.379,6.379,0,0,1,1.53.756.612.612,0,0,0,.342.144.816.816,0,0,0,.468-.234,9.273,9.273,0,0,0,2.556-3.384,13.472,13.472,0,0,0,.972-5.292,2.6,2.6,0,0,1,.216-1.224c.108-.252.072-.468-.234-.558A14.552,14.552,0,0,0,202.788-11.808ZM219.618-6.3A7.5,7.5,0,0,1,221-11.151a4.815,4.815,0,0,1,3.96-1.7,5.549,5.549,0,0,1,2.358.468A4.442,4.442,0,0,1,229-11.052a5.822,5.822,0,0,1,.99,2.07A10.333,10.333,0,0,1,230.31-6.3a7.466,7.466,0,0,1-1.4,4.851,4.821,4.821,0,0,1-3.951,1.7,5.6,5.6,0,0,1-2.376-.468,4.367,4.367,0,0,1-1.665-1.332,5.913,5.913,0,0,1-.981-2.07A10.333,10.333,0,0,1,219.618-6.3Zm2.592,0a8.864,8.864,0,0,0,.162,1.755,4.534,4.534,0,0,0,.495,1.377,2.519,2.519,0,0,0,.855.9,2.308,2.308,0,0,0,1.242.324A2.34,2.34,0,0,0,227-2.97a5.933,5.933,0,0,0,.72-3.33,9.018,9.018,0,0,0-.153-1.71,4.77,4.77,0,0,0-.477-1.386,2.483,2.483,0,0,0-.846-.927,2.329,2.329,0,0,0-1.278-.333A2.322,2.322,0,0,0,222.93-9.6,5.953,5.953,0,0,0,222.21-6.3Zm15.678.918h-.648V0h-2.466V-12.6h2.466v5.58l.576-.252L241.29-12.6H244.1l-3.672,5.292-.972.684,1.008.7L244.656,0h-3.042Z" transform="translate(828.07 2429.853)" fill="#fff"/><path d="M11.228-16.884H9.548V-9.24H1.876v1.624H9.548V.056h1.68V-7.616H18.9V-9.24H11.228Z" transform="translate(1042 2465)" fill="#fff"/><path d="M18-11.3c0-2.56.04-3.9.04-4.02,0-.22-.02-.24-.22-.24-.12,0-.8.04-2.7.04H4.98c-1.9,0-2.58-.04-2.72-.04-.2,0-.22.02-.22.24,0,.12.04,1.38.04,3.94v8.56c0,2.56-.04,3.78-.04,3.92,0,.2.02.22.22.22H4c.22,0,.24-.02.24-.22,0-.12-.04-1.24-.04-3.42V-6.58H15.88v5c0,.5-.18.68-.78.68-.48,0-1.42-.02-2.26-.1A5.787,5.787,0,0,1,13.36.54c.12.62.14.64.78.64,2.12,0,2.78-.14,3.26-.52A1.889,1.889,0,0,0,18.04-1c0-.68-.04-1.72-.04-3.46Zm-2.12-2.26v5.04h-4.9v-5.04ZM4.2-8.52v-5.04H8.9v5.04Z" transform="translate(1197 2465)" fill="#fff"/><path d="M3.838-4.18H9.12V-19.19l.57-2.584L7.866-19.532,4.484-17.214l-2.09-2.85,8.664-6.992h2.774V-4.18H19V0H3.838Zm23.1,1.748A2.607,2.607,0,0,1,27.8-4.484a3.06,3.06,0,0,1,2.109-.76A3.129,3.129,0,0,1,32.414-4.18a4.171,4.171,0,0,1,.912,2.812,7.414,7.414,0,0,1-.532,2.945,6.884,6.884,0,0,1-1.311,2.052,6.6,6.6,0,0,1-1.672,1.292,9.772,9.772,0,0,1-1.615.7L26.752,3.572A4.4,4.4,0,0,0,28.538,2.2,3.6,3.6,0,0,0,29.374.19a2.094,2.094,0,0,1-1.653-.532A2.567,2.567,0,0,1,26.942-2.432ZM46.17-3.838a5.5,5.5,0,0,0,3.838-1.216A4.3,4.3,0,0,0,51.338-8.4a3.763,3.763,0,0,0-1.558-3.344,7.844,7.844,0,0,0-4.446-1.064l-3,.114V-26.6H55.4v4.636H46.588v5.13l1.558-.152a9.987,9.987,0,0,1,3.363.684,7.485,7.485,0,0,1,2.565,1.691,7.306,7.306,0,0,1,1.634,2.622,9.842,9.842,0,0,1,.57,3.439,9.648,9.648,0,0,1-.76,3.952,7.835,7.835,0,0,1-2.109,2.85,9.021,9.021,0,0,1-3.173,1.71,13.321,13.321,0,0,1-3.99.57A17.825,17.825,0,0,1,43,.247a10.957,10.957,0,0,1-2.6-.779l1.33-4.1a9.449,9.449,0,0,0,1.919.589A13.1,13.1,0,0,0,46.17-3.838Zm18.506-9.5q0-6.992,2.394-10.393a7.9,7.9,0,0,1,6.878-3.4q4.788,0,7.03,3.363T83.22-13.338q0,7.03-2.413,10.45a7.933,7.933,0,0,1-6.9,3.42,7.652,7.652,0,0,1-6.992-3.591Q64.676-6.65,64.676-13.338Zm4.94,0a20.067,20.067,0,0,0,1.007,7.163,3.451,3.451,0,0,0,3.325,2.527,3.448,3.448,0,0,0,3.287-2.318q1.045-2.318,1.045-7.372a20.117,20.117,0,0,0-.988-7.106,3.46,3.46,0,0,0-3.382-2.508A3.406,3.406,0,0,0,70.623-20.6,19.576,19.576,0,0,0,69.616-13.338Zm20.406,0q0-6.992,2.394-10.393a7.9,7.9,0,0,1,6.878-3.4q4.788,0,7.03,3.363t2.242,10.431q0,7.03-2.413,10.45a7.933,7.933,0,0,1-6.9,3.42,7.652,7.652,0,0,1-6.992-3.591Q90.022-6.65,90.022-13.338Zm4.94,0a20.067,20.067,0,0,0,1.007,7.163,3.451,3.451,0,0,0,3.325,2.527,3.448,3.448,0,0,0,3.287-2.318q1.045-2.318,1.045-7.372a20.117,20.117,0,0,0-.988-7.106,3.46,3.46,0,0,0-3.382-2.508A3.406,3.406,0,0,0,95.969-20.6,19.576,19.576,0,0,0,94.962-13.338Z" transform="translate(1076 2466)" fill="#fff"/><path d="M12.825-14.283a8.256,8.256,0,0,1-.5,2.781,17.2,17.2,0,0,1-1.269,2.754,25.868,25.868,0,0,1-1.7,2.605Q8.424-4.887,7.533-3.834L6.1-2.727v.135L8.046-2.97H13.23V0H1.863V-1.809q.648-.675,1.458-1.579T4.955-5.306Q5.778-6.318,6.561-7.4a23.357,23.357,0,0,0,1.4-2.174,13.391,13.391,0,0,0,.985-2.12,5.812,5.812,0,0,0,.365-1.944,2.645,2.645,0,0,0-.634-1.822,2.559,2.559,0,0,0-2.012-.716,4.713,4.713,0,0,0-1.768.365,5.016,5.016,0,0,0-1.526.932l-1.4-2.484a8.852,8.852,0,0,1,2.39-1.391,8.56,8.56,0,0,1,3.145-.526,6.711,6.711,0,0,1,2.133.324,4.768,4.768,0,0,1,1.674.945,4.358,4.358,0,0,1,1.107,1.553A5.414,5.414,0,0,1,12.825-14.283ZM29.16,0V-7.668a4.636,4.636,0,0,0-.459-2.376,1.821,1.821,0,0,0-1.674-.729,2.522,2.522,0,0,0-1.634.607,2.881,2.881,0,0,0-.986,1.553V0H20.9V-18.9h3.51v6.912h.108a4.879,4.879,0,0,1,1.593-1.377,5,5,0,0,1,2.4-.513,5.544,5.544,0,0,1,1.809.27,2.941,2.941,0,0,1,1.309.891,4.032,4.032,0,0,1,.783,1.688A11.463,11.463,0,0,1,32.67-8.4V0Z" transform="translate(971 2467)" fill="#fff"/><path d="M1198.2,13220.664a1.5,1.5,0,0,1-1.5-1.5v-8.6a1.5,1.5,0,0,1,3,0v8.6A1.5,1.5,0,0,1,1198.2,13220.664Z" transform="translate(1605.052 -10838.989) rotate(7)" fill="#fff"/><path d="M1198.2,13220.664a1.5,1.5,0,0,1-1.5-1.5v-8.6a1.5,1.5,0,0,1,3,0v8.6A1.5,1.5,0,0,1,1198.2,13220.664Z" transform="matrix(0.875, 0.485, -0.485, 0.875, 6554.468, -9714.021)" fill="#fff"/><path d="M1198.2,13220.664a1.5,1.5,0,0,1-1.5-1.5v-8.6a1.5,1.5,0,0,1,3,0v8.6A1.5,1.5,0,0,1,1198.2,13220.664Z" transform="matrix(0.574, 0.819, -0.819, 0.574, 11341.548, -6128.342)" fill="#fff"/></g></g></svg>