<svg xmlns="http://www.w3.org/2000/svg" width="152.303" height="81.771" viewBox="0 0 152.303 81.771"><g transform="translate(-402.166 -2110.804)"><path d="M13.146-10.654a9.105,9.105,0,0,1-1.372.07H9.114c.112-.21.168-.336.252-.532.14-.336.14-.336.21-.49l-.784-.21A5.607,5.607,0,0,1,7.126-9.03a1.783,1.783,0,0,1,.476.5,7.578,7.578,0,0,0,.7-.77A5.5,5.5,0,0,0,9.534-7.938a8.308,8.308,0,0,1-2.464.91,1.923,1.923,0,0,1,.336.546.779.779,0,0,1,.056.112,8.256,8.256,0,0,0,2.7-1.134,11.749,11.749,0,0,0,2.954,1.232,2.7,2.7,0,0,1,.364-.756,11.688,11.688,0,0,1-2.716-.938A5.511,5.511,0,0,0,12.18-9.912c.448.014.63.028.966.056Zm-4.41.742h2.6a3.891,3.891,0,0,1-1.218,1.554,4.413,4.413,0,0,1-1.4-1.526ZM5.488-7.938A4.41,4.41,0,0,1,5.5-8.456a6.675,6.675,0,0,1-.77.014H2.912c-.5,0-.588,0-.784-.014.014.28.014.294.014.546v.6a5.565,5.565,0,0,1-.028.616c.238-.014.49-.028.84-.028H5.208a1.8,1.8,0,0,1,.056.35c.49.028.49.028.7.028.448,0,.672-.112.812-.406A8.1,8.1,0,0,0,7.07-9.016c.028-.308.028-.322.042-.574A11.868,11.868,0,0,1,5.8-9.548H2.7c.07-.14.084-.2.168-.364l-.77-.154A3.674,3.674,0,0,1,.532-8.022a2.188,2.188,0,0,1,.546.532,5.847,5.847,0,0,0,1.3-1.456H6.356a11.337,11.337,0,0,1-.14,1.638c-.056.28-.154.378-.378.378-.056,0-.126,0-.35-.014v-.994ZM2.814-7.952H4.83v.728H2.814ZM7.49-4.69v-.672h3.528a8.556,8.556,0,0,1,1.148.056v-.77a6.133,6.133,0,0,1-1.148.07H3.71a8.591,8.591,0,0,1-1.344-.07,10.639,10.639,0,0,1,.056,1.218v2.282c0,.6-.014.868-.042,1.218.35-.028.658-.042,1.134-.042h8.3C11.592.112,11.466.322,10.738.322A5.712,5.712,0,0,1,9.744.238C9.632.21,9.632.21,9.562.2l.532-.336A5.024,5.024,0,0,0,9.072-1.274L8.5-.966A4.471,4.471,0,0,1,9.464.252L9.52.224A2.286,2.286,0,0,1,9.688.98a6.43,6.43,0,0,0,.868.056c.882,0,1.344-.168,1.568-.56a6.745,6.745,0,0,0,.56-2.058A2.457,2.457,0,0,1,12.8-2.1a8.184,8.184,0,0,1-1.092.056H7.49v-.7h2.884a6.149,6.149,0,0,1,1.134.07V-3.43a6.057,6.057,0,0,1-1.134.07H7.49v-.714h2.9A6.242,6.242,0,0,1,11.522-4V-4.76a5.877,5.877,0,0,1-1.134.07ZM6.734-2.744v.7H3.206v-.7Zm0-.616H3.206v-.714H6.734Zm0-1.33H3.206v-.672H6.734ZM2.814-10.4a1.934,1.934,0,0,1-.028.462h.8c-.014-.14-.014-.168-.028-.462H4.984a1.87,1.87,0,0,1-.028.462h.8c-.014-.126-.014-.154-.028-.462h.546c.462,0,.91.014,1.246.042V-11.1a6.858,6.858,0,0,1-1.26.07H5.726v-.14a3.151,3.151,0,0,1,.042-.56H4.956a3.574,3.574,0,0,1,.028.574v.126H3.556v-.126a3.323,3.323,0,0,1,.042-.574H2.772a3.686,3.686,0,0,1,.042.574v.126H2.17A7.713,7.713,0,0,1,.882-11.1v.742c.378-.028.784-.042,1.3-.042ZM2.226-1.2A5.068,5.068,0,0,1,.672.588l.742.532A7.6,7.6,0,0,0,2.926-.812Zm1.806.35a9.091,9.091,0,0,1,.42,1.876l.84-.168a9.33,9.33,0,0,0-.5-1.848ZM6.244-.9A8.691,8.691,0,0,1,6.986.784L7.728.532A8.033,8.033,0,0,0,6.9-1.092ZM16.17-8.148a7.64,7.64,0,0,1,.868-.042,29.784,29.784,0,0,0,3.78-.252c.35.756.434.91.8,1.6a27.889,27.889,0,0,1-4.41.35,10.881,10.881,0,0,1-1.12-.042l.028.924c.252-.028.308-.028.98-.056a29.167,29.167,0,0,0,4.914-.406,12.832,12.832,0,0,0,1.5,2.156,8.415,8.415,0,0,0-2.828-.406c-2.66,0-4.27.91-4.27,2.422a1.956,1.956,0,0,0,1.05,1.736A5.649,5.649,0,0,0,20.342.42,12.194,12.194,0,0,0,23.926-.1a8.153,8.153,0,0,1,.84-.238l-.2-1.092a9.437,9.437,0,0,1-4.144.938c-1.918,0-2.982-.5-2.982-1.428,0-.966,1.3-1.6,3.318-1.6a14.154,14.154,0,0,1,1.834.126,3.8,3.8,0,0,1,1.54.532l.826-.588A16.409,16.409,0,0,1,22.9-6.23c.518-.1,1.218-.252,2.2-.5.462-.126.518-.126.756-.182l-.112-.938a14.241,14.241,0,0,1-3.206.868c-.21-.378-.588-1.12-.8-1.582.784-.126,2.282-.448,3.528-.784l-.084-.91a17.711,17.711,0,0,1-3.738.924,11.66,11.66,0,0,1-.742-1.974l-1.05.182a18.13,18.13,0,0,1,.84,1.918,27.661,27.661,0,0,1-3.318.2c-.476,0-.714-.014-1.05-.042ZM35.756-9.282a4.029,4.029,0,0,1,1.624.35,3.691,3.691,0,0,1,2.226,3.514A4.226,4.226,0,0,1,37.128-1.5,8.392,8.392,0,0,1,34.79-.84,2.225,2.225,0,0,1,35.28.1a10.83,10.83,0,0,0,2.128-.644,5.1,5.1,0,0,0,3.206-4.83,4.686,4.686,0,0,0-1.358-3.416,5.42,5.42,0,0,0-3.85-1.386,5.847,5.847,0,0,0-4.522,1.862,5.824,5.824,0,0,0-1.47,3.864c0,1.96.994,3.416,2.324,3.416,1.008,0,1.834-.84,2.646-2.688A20.986,20.986,0,0,0,35.756-9.282Zm-1.008.014a19.229,19.229,0,0,1-1.274,5.18c-.6,1.372-1.162,2.03-1.75,2.03-.756,0-1.344-1.036-1.344-2.38A4.841,4.841,0,0,1,32.662-8.61,4.421,4.421,0,0,1,34.748-9.268Zm13.384,1.54a8.128,8.128,0,0,1-1.89,1.162,16.618,16.618,0,0,1-3.6,1.134,3.306,3.306,0,0,1,.56.714,15.71,15.71,0,0,0,3.878-1.456A9.139,9.139,0,0,0,49.14-7.728h.07V-5.88c0,.238-.084.308-.364.308a13.815,13.815,0,0,1-1.834-.154,2.18,2.18,0,0,1,.21.77c.5.042.994.07,1.428.07a3.307,3.307,0,0,0,.994-.084c.28-.112.392-.322.392-.756v-2h3.458a8.92,8.92,0,0,1-2.436,1.554,2.722,2.722,0,0,1,.658.6,11.962,11.962,0,0,0,2.73-1.946c.182-.182.308-.308.42-.406l-.518-.588a10.078,10.078,0,0,1-1.2.056H49.952c-.14-.112-.168-.14-.294-.252a13.288,13.288,0,0,0,3.22-1.6,1.03,1.03,0,0,0,.168-.112,2.392,2.392,0,0,0,.238-.154l.084-.07-.462-.588c-.294.028-.63.042-1.232.042H45.822a10.76,10.76,0,0,1-1.484-.084v.9a9.116,9.116,0,0,1,1.358-.084h6.1a14.192,14.192,0,0,1-2.73,1.316,16.58,16.58,0,0,0-1.89-1.064l-.63.462a11.194,11.194,0,0,1,2.268,1.288h-4.13a11.864,11.864,0,0,1-1.6-.084v.9a11.04,11.04,0,0,1,1.554-.084ZM49.42-3.71a4.027,4.027,0,0,1,.056-.826h-.994a4.484,4.484,0,0,1,.056.826h-4.1a9.868,9.868,0,0,1-1.47-.084v.952a11.689,11.689,0,0,1,1.568-.084h3.29A13.561,13.561,0,0,1,42.616-.1a2.785,2.785,0,0,1,.6.8A12.87,12.87,0,0,0,48.58-2.73c-.028.672-.042.966-.042,1.33V-.112a7.879,7.879,0,0,1-.084,1.176H49.5A5.314,5.314,0,0,1,49.42-.112v-1.3c0-.308-.014-.518-.056-1.316a12.051,12.051,0,0,0,5.6,3.444,3.381,3.381,0,0,1,.574-.854,11.777,11.777,0,0,1-5.46-2.786h3.5a11.864,11.864,0,0,1,1.6.084v-.952a11.58,11.58,0,0,1-1.6.084Zm11.032-6.44a15.592,15.592,0,0,0,2.142.882,21.593,21.593,0,0,0,2.73.8l.392-.98A16.879,16.879,0,0,1,60.97-11ZM59.29-8.638a4.709,4.709,0,0,1-.1.742C59-6.72,58.744-5.1,58.6-4.032c-.056.448-.07.574-.112.826l1.092.028a2.434,2.434,0,0,1,.56-.574,6.783,6.783,0,0,1,3.92-1.218c1.708,0,2.716.672,2.716,1.82C66.78-1.722,65.31-.8,63-.8a9.943,9.943,0,0,1-3.57-.7,3.238,3.238,0,0,1,.1.868,2.207,2.207,0,0,1-.014.266c.854.21.854.21,1.12.28a11.632,11.632,0,0,0,2.45.252A5.811,5.811,0,0,0,66.57-.756a2.993,2.993,0,0,0,1.26-2.408c0-1.638-1.47-2.7-3.752-2.7a6.93,6.93,0,0,0-4.046,1.2,3.921,3.921,0,0,0-.434.42l-.028-.014a1.687,1.687,0,0,0,.056-.322c.042-.322.07-.42.406-2.45a11.718,11.718,0,0,1,.322-1.54Zm12.068,1.9a8.011,8.011,0,0,1,.812-.182c.126-.028.8-.14,2-.322A23.112,23.112,0,0,1,72.632-2.8,13.426,13.426,0,0,1,71.176-.266l.952.56c.434-.784.728-1.344.91-1.68a26.413,26.413,0,0,0,2.114-5.936,8.038,8.038,0,0,1,1.008-.07c1.3,0,1.722.476,1.722,1.96a10.837,10.837,0,0,1-.588,3.892q-.273.672-.8.672a5.233,5.233,0,0,1-2.086-.644,2.711,2.711,0,0,1,.042.56,3.046,3.046,0,0,1-.028.49,5.267,5.267,0,0,0,2.114.546A1.462,1.462,0,0,0,77.91-.574a9.65,9.65,0,0,0,.938-4.816,2.826,2.826,0,0,0-.686-2.254,2.676,2.676,0,0,0-2.016-.588,8.159,8.159,0,0,0-.826.042c.126-.672.224-1.19.294-1.6a8.607,8.607,0,0,1,.266-1.344l-1.12-.126v.182a17.111,17.111,0,0,1-.42,2.968c-1.134.182-2.59.35-3.094.364Zm8.26-1.848a11.46,11.46,0,0,1,2.856,5.026l.9-.518A12.66,12.66,0,0,0,80.444-9.03Zm6.5,1.176a3.092,3.092,0,0,1,.546-.042,41.222,41.222,0,0,0,4.984-.364c.084.14.084.168.238.462a17.072,17.072,0,0,0,1.68,2.744,6.991,6.991,0,0,0-2.9-.5,5.951,5.951,0,0,0-2.716.518A2.617,2.617,0,0,0,86.366-2.31,2.258,2.258,0,0,0,87-.77,5.133,5.133,0,0,0,90.636.28a11.606,11.606,0,0,0,4.116-.756L94.6-1.554a9.23,9.23,0,0,1-3.976.9,4.742,4.742,0,0,1-2.73-.644,1.4,1.4,0,0,1-.532-1.092,1.59,1.59,0,0,1,.756-1.3,4.963,4.963,0,0,1,2.66-.588,7.586,7.586,0,0,1,2.45.364,2.8,2.8,0,0,1,.966.574l.938-.532a25.926,25.926,0,0,1-2.52-4.074l.476-.1c.882-.168,1.05-.21,1.89-.434.42-.112.532-.14.826-.2l-.14-.994a16.385,16.385,0,0,1-3.388.882,11.519,11.519,0,0,1-.5-1.232,4.462,4.462,0,0,1-.406-1.26l-1.106.154c.126.252.21.448.364.812.252.63.476,1.19.686,1.666a32.677,32.677,0,0,1-4.172.294,6.138,6.138,0,0,1-1.078-.07ZM99.62-10.042h1.388v3.3l-.335,4.348h-.7L99.62-6.74Zm0,8.62h1.36V0H99.62Zm3.89-8.62H104.9v3.3l-.335,4.348h-.7L103.51-6.74Zm0,8.62h1.36V0h-1.36Z" transform="matrix(0.978, -0.208, 0.208, 0.978, 429.021, 2151.396)" fill="#fff"/><path d="M8.61-12.124l1.316.353L9.8-11.5c-.068.15-.068.15-.207.483-.029.067-.055.127-.081.186h2.258a8.816,8.816,0,0,0,1.337-.067l.285-.041v1.358l-.271-.023c-.288-.024-.461-.038-.8-.05A5.784,5.784,0,0,1,11.2-8.031a12.65,12.65,0,0,0,2.34.761l.343.087-.2.294a2.449,2.449,0,0,0-.334.693l-.075.237-.237-.074c-.226-.07-.434-.137-.628-.2v1.213l-.282-.037a8.259,8.259,0,0,0-1.116-.054H7.74v.172h2.648a5.627,5.627,0,0,0,1.089-.066l.295-.054v1.351l-.014,0v1.334l-.293-.051a5.873,5.873,0,0,0-1.091-.066H7.74v.2H11.7a7.894,7.894,0,0,0,1.061-.054l.394-.049-.125.376a2.217,2.217,0,0,0-.1.476A6.856,6.856,0,0,1,12.339.6c-.275.478-.809.682-1.783.682a6.614,6.614,0,0,1-.9-.058L9.448,1.2,9.438.992A1.8,1.8,0,0,0,9.374.577l-.01.005L9.255.389,8.9.319,9.128.174a4.165,4.165,0,0,0-.8-.958l-.254-.238.239-.128H7.161A8.138,8.138,0,0,1,7.96.438l.1.246L6.828,1.1,6.749.863A8.491,8.491,0,0,0,6.025-.775l-.15-.272.346-.1H5l.026.07A9.6,9.6,0,0,1,5.538.811l.042.241-1.338.268L4.2,1.058a8.9,8.9,0,0,0-.41-1.833L3.7-1.048l.553-.1H3.514c-.265,0-.473,0-.658.012L3.272-.9l-.132.221A7.875,7.875,0,0,1,1.587,1.3l-.15.143L.254.6.519.391A4.806,4.806,0,0,0,2.009-1.328l.123-.215.011.006c.02-.284.029-.545.029-1.039V-4.858a10.332,10.332,0,0,0-.054-1.19l-.036-.322.321.048a8.255,8.255,0,0,0,1.307.067H5.024L5.01-6.4c0-.028,0-.051-.007-.072H2.954c-.357,0-.617.015-.825.028l-.289.017.025-.288a5.315,5.315,0,0,0,.027-.594v-.6c-.177.184-.385.376-.65.607l-.2.173L.881-7.337a1.954,1.954,0,0,0-.5-.483l-.279-.2.278-.2a3.435,3.435,0,0,0,1.476-1.914l0-.012c-.356,0-.668.017-.964.039l-.268.02v-1.3l.288.044a7.5,7.5,0,0,0,1.25.067h.392a3.192,3.192,0,0,0-.037-.409l-.049-.291H3.893l-.049.291a2.856,2.856,0,0,0-.037.409h.926a2.621,2.621,0,0,0-.024-.409l-.049-.291H6.068l-.054.295a2.632,2.632,0,0,0-.037.405h.281a6.534,6.534,0,0,0,1.213-.066l.3-.057v1.25a5.006,5.006,0,0,0,.781-1.721Zm.621.684-.261-.07A5.8,5.8,0,0,1,7.5-9.047a1.886,1.886,0,0,1,.133.138,6.284,6.284,0,0,0,.478-.544l.212-.265.19.282a5.236,5.236,0,0,0,1.182,1.3l.282.229-.315.182a8.006,8.006,0,0,1-2.168.849,2.042,2.042,0,0,1,.107.208,7.727,7.727,0,0,0,2.427-1.047l.133-.09.137.084a10.8,10.8,0,0,0,2.668,1.134,2.733,2.733,0,0,1,.132-.287,11.056,11.056,0,0,1-2.442-.874l-.327-.167.275-.243a5.285,5.285,0,0,0,1.357-1.873l.072-.141.158,0c.322.01.508.02.708.035v-.245c-.326.032-.66.038-1.122.038H8.7l.2-.368c.106-.2.157-.314.243-.513Zm-5.914-.042H3.052c.008.1.012.214.012.324v.376H2.17a10.174,10.174,0,0,1-1.038-.036v.191c.317-.017.658-.025,1.052-.025h.88v.25c0,.091,0,.158,0,.212h.253l0-.085-.018-.377h1.94v.25c0,.089,0,.157,0,.212h.252l0-.094-.017-.368h.808c.363,0,.707.009,1,.024v-.187c-.263.026-.576.032-1.01.032H5.476v-.39c0-.112,0-.214.01-.31H5.23c0,.1,0,.209,0,.324v.376H3.306v-.376C3.306-11.277,3.309-11.383,3.317-11.482Zm1.415,1.33H3.818c0,.073.007.113.015.187l.017.167h.823l.038-.191A.892.892,0,0,0,4.732-10.152Zm2.992.06L7.5-10.111c-.318-.027-.753-.041-1.225-.041H5.988c0,.079.007.116.015.184l.019.169a9.865,9.865,0,0,0,1.065-.04l.292-.031-.013.227Q7.56-9.865,7.724-10.092Zm-5.23.36-.226-.045A3.77,3.77,0,0,1,.94-8.018a2.047,2.047,0,0,1,.167.169,5.694,5.694,0,0,0,.761-.8l0-.081.061,0c.081-.11.16-.227.243-.359L2.243-9.2H6.611l-.005.255a11.618,11.618,0,0,1-.144,1.677v.005a.608.608,0,0,1-.623.579c-.06,0-.134,0-.366-.014h0c.007.033.013.061.017.087.279.016.308.016.476.016.427,0,.515-.114.586-.263a1.436,1.436,0,0,0,.091-.316l-.01-.012.013,0A13.017,13.017,0,0,0,6.817-8.95l-.075-.056.084-.081c.01-.107.015-.173.02-.23C6.623-9.3,6.326-9.3,5.8-9.3H2.3l.181-.362.015-.03H2.486Zm6.6,1.749a5.354,5.354,0,0,1-.809-.9c-.127.147-.261.288-.507.534l-.219.219-.168-.261c-.033-.051-.065-.1-.1-.139-.031.5-.071.905-.121,1.22A8.235,8.235,0,0,0,9.094-7.983ZM5.369-8.7H2.516l0,0H4.732C5.151-8.692,5.286-8.692,5.369-8.7Zm.729,0H5.773l-.022.261a4.259,4.259,0,0,0-.013.5v.757h.1c.082,0,.1,0,.132-.175A10.4,10.4,0,0,0,6.1-8.7Zm-3.534.5-.174,0c0,.079,0,.148,0,.284v.6c0,.126,0,.216-.008.351.17-.008.35-.013.57-.013H5.238v-.968c0-.116,0-.2,0-.255H5.08v1.218H2.564ZM4.58-7.7H3.064v.228H4.58Zm7.564,1.376a10.021,10.021,0,0,1-1.974-.883,7.989,7.989,0,0,1-2.179.953h3.027a5.9,5.9,0,0,0,1.105-.066Zm-4.939,0L7.2-6.338,7.178-6.38a1.565,1.565,0,0,0-.158-.3L7-6.641a.9.9,0,0,1-.326.385h.564v0c-.013-.025-.023-.048-.031-.067Zm3.813.573H3.71c-.44,0-.76-.006-1.067-.035.02.271.029.561.029.933v2.282c0,.433-.007.7-.022.948.271-.016.529-.022.864-.022h8.592l-.042.287C11.85.075,11.726.572,10.738.572a6.124,6.124,0,0,1-.864-.06,2.188,2.188,0,0,1,.046.243,6.355,6.355,0,0,0,.637.03c.972,0,1.228-.219,1.351-.434l.005-.008a6.651,6.651,0,0,0,.525-1.964c.012-.078.022-.142.031-.2-.219.016-.455.022-.764.022H7.24v-1.2h3.134a8.317,8.317,0,0,1,.884.033v-.181a8.117,8.117,0,0,1-.884.033H7.24V-4.324h3.148a8.288,8.288,0,0,1,.884.033v-.18a8.453,8.453,0,0,1-.884.031H7.24V-5.612h3.778c.383,0,.655.008.9.028v-.2A8.51,8.51,0,0,1,11.018-5.756Zm.7,2.038-.235-.039a5.976,5.976,0,0,0-1.093-.067H7.74v.214h2.634a5.83,5.83,0,0,0,1.093-.067ZM11.525-1.15H9.577a4.7,4.7,0,0,1,.724.87l.145.214-.188.119c.157.013.32.02.48.02C11.218.072,11.331.072,11.525-1.15ZM9.739-.212a4.482,4.482,0,0,0-.7-.759l-.119.064a4.294,4.294,0,0,1,.634.814ZM2.578-.72,2.318-.866A4.952,4.952,0,0,1,1.086.577L1.39.8A6.876,6.876,0,0,0,2.578-.72ZM7.4.381A6.894,6.894,0,0,0,6.791-.8l-.181.054A8.287,8.287,0,0,1,7.142.467ZM5,.657A8.482,8.482,0,0,0,4.625-.71l-.268.05A8.616,8.616,0,0,1,4.66.725ZM20.892-11.6l.056.225a11.08,11.08,0,0,0,.646,1.757,17.007,17.007,0,0,0,3.493-.876l.316-.135.135,1.462-.2.055c-1.134.306-2.419.586-3.228.733.177.369.4.8.563,1.109a13.267,13.267,0,0,0,2.966-.811l.316-.154.18,1.509-.217.051-.188.042c-.126.027-.245.052-.559.138-.716.184-1.328.328-1.86.438a15.627,15.627,0,0,0,1.844,2.449l.178.208-1.18.84-.139-.081a3.57,3.57,0,0,0-1.455-.5,13.945,13.945,0,0,0-1.794-.123c-1.835,0-3.068.541-3.068,1.346,0,.354.266,1.178,2.732,1.178a9.194,9.194,0,0,0,4.013-.9l.312-.193.3,1.691-.236.051A8.042,8.042,0,0,0,24,.141,12.358,12.358,0,0,1,20.342.67,5.894,5.894,0,0,1,17.334.049,2.205,2.205,0,0,1,16.158-1.9a2.242,2.242,0,0,1,1.264-2,6.747,6.747,0,0,1,3.256-.676,9.184,9.184,0,0,1,2.136.206A16.156,16.156,0,0,1,21.88-5.8,30.035,30.035,0,0,1,17.1-5.42l-.208.009c-.477.02-.538.022-.753.046l-.269.03-.045-1.477.281.026a10.61,10.61,0,0,0,1.1.041,29.092,29.092,0,0,0,4.027-.289c-.214-.4-.326-.625-.564-1.134a30.831,30.831,0,0,1-3.627.229h-.049a6.873,6.873,0,0,0-.8.039l-.265.029-.067-1.461.284.024c.341.028.571.041,1.029.041a26.253,26.253,0,0,0,2.962-.16,15.156,15.156,0,0,0-.694-1.569l-.2-.317Zm.41,2.537-.08-.17a12.873,12.873,0,0,1-.7-1.8l-.488.085c.128.271.335.75.692,1.637L20.851-9l-.328.036a27.745,27.745,0,0,1-3.345.2c-.337,0-.561-.007-.787-.022l.017.367c.117-.007.264-.011.574-.018h.05a29.38,29.38,0,0,0,3.751-.25l.184-.026.078.169c.332.718.42.883.747,1.5l.2.386-.336.061a28.283,28.283,0,0,1-4.455.354c-.394,0-.642-.007-.862-.021l.012.38c.112-.007.254-.013.518-.024l.21-.009a28.768,28.768,0,0,0,4.88-.4l.174-.032.088.153a12.582,12.582,0,0,0,1.463,2.109l.659.7-.917-.292a8.177,8.177,0,0,0-2.752-.394c-2.517,0-4.02.812-4.02,2.172a1.7,1.7,0,0,0,.923,1.518A5.44,5.44,0,0,0,20.342.17a11.865,11.865,0,0,0,3.511-.507c.353-.108.516-.157.625-.187l-.093-.52a10.346,10.346,0,0,1-3.959.8c-1.207,0-3.232-.218-3.232-1.678,0-1.121,1.4-1.846,3.568-1.846a14.5,14.5,0,0,1,1.869.129,4.016,4.016,0,0,1,1.489.484l.474-.337a15.9,15.9,0,0,1-1.9-2.609l-.192-.31.358-.068c.592-.112,1.327-.28,2.182-.5.291-.079.427-.11.543-.135l-.045-.378a18.967,18.967,0,0,1-2.948.749l-.18.037-.089-.16c-.208-.374-.59-1.123-.807-1.6l-.136-.3.324-.052c.7-.112,2.064-.4,3.3-.724l-.034-.368a20.221,20.221,0,0,1-3.48.816Zm70.271-2.5.037.244A4.324,4.324,0,0,0,92-10.115c.252.672.337.875.416,1.045A15.853,15.853,0,0,0,95.564-9.9l.3-.128.219,1.553-.234.045c-.285.054-.391.081-.808.192-.825.22-1.008.267-1.908.438l-.159.033A26.831,26.831,0,0,0,95.33-4.028L95.5-3.8l-1.334.757-.133-.108a2.552,2.552,0,0,0-.89-.531,7.307,7.307,0,0,0-2.368-.35,4.763,4.763,0,0,0-2.528.55,1.346,1.346,0,0,0-.638,1.09,1.149,1.149,0,0,0,.439.9,4.555,4.555,0,0,0,2.573.589,9.035,9.035,0,0,0,3.861-.868l.313-.163.232,1.627-.189.07a11.923,11.923,0,0,1-4.2.772A5.359,5.359,0,0,1,86.816-.6a2.51,2.51,0,0,1-.7-1.713,2.857,2.857,0,0,1,1.723-2.507,6.187,6.187,0,0,1,2.825-.543,9.335,9.335,0,0,1,2.232.25,17.471,17.471,0,0,1-1.236-2.126c-.071-.136-.111-.218-.14-.277l-.013-.027a42.118,42.118,0,0,1-4.843.343,2.618,2.618,0,0,0-.451.031l-.333.045-.088-1.6.3.047a5.892,5.892,0,0,0,1.04.067,32.713,32.713,0,0,0,3.811-.249c-.172-.406-.354-.86-.557-1.369-.148-.349-.232-.546-.355-.793l-.156-.311Zm.555,3.051-.111-.235a12.3,12.3,0,0,1-.481-1.187A7.163,7.163,0,0,1,91.158-11l-.528.074c.066.146.132.3.222.514.256.641.476,1.191.684,1.663l.134.3-.328.045a33.159,33.159,0,0,1-4.206.3,7.414,7.414,0,0,1-.812-.033l.025.454c.081-.007.172-.011.311-.011a41.13,41.13,0,0,0,4.949-.362l.164-.023.085.142a2.3,2.3,0,0,1,.111.209c.029.06.065.135.134.266a16.8,16.8,0,0,0,1.66,2.712l-.318.369a6.859,6.859,0,0,0-2.782-.475,5.722,5.722,0,0,0-2.606.492A2.364,2.364,0,0,0,86.616-2.31a2.011,2.011,0,0,0,.563,1.369A4.913,4.913,0,0,0,90.636.03a11.374,11.374,0,0,0,3.84-.672L94.4-1.18a9.691,9.691,0,0,1-3.777.772,4.938,4.938,0,0,1-2.884-.7l-.006,0a1.656,1.656,0,0,1-.622-1.284,1.832,1.832,0,0,1,.872-1.513,5.229,5.229,0,0,1,2.794-.627,7.9,7.9,0,0,1,2.529.377l.005,0a2.81,2.81,0,0,1,.906.508l.545-.309a25.842,25.842,0,0,1-2.378-3.891l-.133-.288.311-.062.474-.1c.889-.169,1.051-.211,1.877-.431.3-.079.445-.118.61-.153l-.063-.446a18.081,18.081,0,0,1-3.144.779Zm-48.041-3.04.282.036a10.477,10.477,0,0,0,1.452.082h5.852c.553,0,.9-.012,1.208-.041l.136-.013.7.886-.285.237a2.462,2.462,0,0,1-.236.154,1.528,1.528,0,0,1-.18.12,11.79,11.79,0,0,1-2.685,1.387h2.816a9.729,9.729,0,0,0,1.174-.054l.13-.016.771.875-.189.165c-.106.093-.232.219-.408.395a12.3,12.3,0,0,1-2.787,1.989l-.179.1-.132-.155a2.49,2.49,0,0,0-.61-.559l-.351-.244.386-.186A9.784,9.784,0,0,0,52.8-7.478H50.286v1.752a.943.943,0,0,1-.518.975l-.046.258a3.052,3.052,0,0,0-.05.533h3.906a11.235,11.235,0,0,0,1.564-.082l.282-.036v1.521l-.282-.036a11.741,11.741,0,0,0-1.564-.082H50.74A12.112,12.112,0,0,0,55.6-.382l.389.1-.264.3a3.127,3.127,0,0,0-.541.8l-.1.191-.2-.07a12.716,12.716,0,0,1-5.234-3.019c.015.291.021.454.021.654v1.3a5.129,5.129,0,0,0,.078,1.123l.066.3H48.166l.041-.285a7.662,7.662,0,0,0,.081-1.141V-1.4c0-.22.005-.414.015-.677A13.608,13.608,0,0,1,43.31.933l-.206.081L43,.819a2.546,2.546,0,0,0-.559-.74l-.29-.29.391-.125a14.474,14.474,0,0,0,4.63-2.34H44.534A11.487,11.487,0,0,0,43-2.594l-.282.036V-4.084L43-4.041a9.654,9.654,0,0,0,1.433.081h3.849a3.669,3.669,0,0,0-.05-.537l-.023-.147c-.3-.011-.634-.031-1.011-.063l-.209-.017-.019-.209a1.933,1.933,0,0,0-.191-.694l-.037-.086a17.208,17.208,0,0,1-3.476,1.237l-.184.049-.1-.164a3.079,3.079,0,0,0-.526-.669l-.3-.315.423-.1a16.44,16.44,0,0,0,3.552-1.118,9.112,9.112,0,0,0,1.246-.685H44.646a10.806,10.806,0,0,0-1.519.081l-.285.041v-1.47l.283.038a11.764,11.764,0,0,0,1.563.082h3.325a16.663,16.663,0,0,0-1.57-.812L46.063-9.7l.7-.511H45.7a8.875,8.875,0,0,0-1.323.081l-.285.041Zm7.586.618H45.822a11.8,11.8,0,0,1-1.234-.053v.332a10.142,10.142,0,0,1,1.108-.051h6.99l-.756.463a14.494,14.494,0,0,1-2.773,1.337l-.118.044-.106-.068a15.848,15.848,0,0,0-1.73-.982l-.169.124a10.1,10.1,0,0,1,1.936,1.136l.578.448H44.688c-.54,0-.968-.017-1.346-.054v.334c.356-.036.772-.052,1.3-.052H48.8l-.5.438a8.412,8.412,0,0,1-1.951,1.2,15.4,15.4,0,0,1-3.232,1.051,2.816,2.816,0,0,1,.205.279,15.109,15.109,0,0,0,3.643-1.385,8.945,8.945,0,0,0,2-1.512l.073-.073h.424v2.1c0,.5-.35.558-.614.558a12.074,12.074,0,0,1-1.455-.1,2.051,2.051,0,0,1,.054.236c.469.036.865.053,1.205.053a3.2,3.2,0,0,0,.9-.066c.133-.053.235-.126.235-.524V-7.978h4.367l-.493.437a8.442,8.442,0,0,1-2.128,1.413,2.621,2.621,0,0,1,.24.239,11.539,11.539,0,0,0,2.5-1.808c.094-.094.174-.174.247-.245l-.271-.308c-.3.03-.643.043-1.1.043h-3.28L49.8-8.261c-.12-.1-.164-.135-.244-.207l-.364-.324.379-.149a12.978,12.978,0,0,0,3.167-1.568l.02-.013a1.139,1.139,0,0,0,.121-.077l.016-.016.026-.016.1-.057-.22-.28C52.5-10.945,52.165-10.936,51.674-10.936Zm-.808.728H47.729a15,15,0,0,1,1.37.788A14.683,14.683,0,0,0,50.866-10.208ZM48.958-5.829a.484.484,0,0,0,0-.051V-7.211A9.465,9.465,0,0,1,47.2-5.956l0,0a12.75,12.75,0,0,0,1.646.131A.693.693,0,0,0,48.958-5.829Zm.231,1.543h-.422c.016.164.021.329.021.576v.25H44.436a11.769,11.769,0,0,1-1.22-.051v.389a13.131,13.131,0,0,1,1.318-.054h3.9L48-2.748A13.4,13.4,0,0,1,43.066.017a2.525,2.525,0,0,1,.263.37A12.391,12.391,0,0,0,48.395-2.9l.464-.512-.037.879c-.023.538-.034.808-.034,1.131V-.112a8.072,8.072,0,0,1-.05.926h.47a7.618,7.618,0,0,1-.038-.926v-1.3c0-.256-.01-.44-.039-.987L49.077-3.42l.472.523A11.573,11.573,0,0,0,54.843.408,3.191,3.191,0,0,1,55.1,0a11.749,11.749,0,0,1-5.193-2.744l-.46-.432h4.131c.548,0,.96.016,1.346.054v-.392a13.14,13.14,0,0,1-1.346.054H49.17v-.25C49.17-3.975,49.175-4.142,49.189-4.286Zm25.321-7.25,1.7.191-.092.29a8.369,8.369,0,0,0-.257,1.307c-.059.344-.137.761-.235,1.282.16-.011.313-.017.52-.017a2.887,2.887,0,0,1,2.19.658A3.053,3.053,0,0,1,79.1-5.39a9.809,9.809,0,0,1-.984,4.96,1.711,1.711,0,0,1-1.576.764,5.5,5.5,0,0,1-2.212-.566l-.175-.074L74.176-.5A2.791,2.791,0,0,0,74.2-.952a2.483,2.483,0,0,0-.039-.519l-.081-.488.441.225a5.045,5.045,0,0,0,1.973.617c.153,0,.378-.053.566-.516a10.573,10.573,0,0,0,.57-3.8c0-1.342-.316-1.71-1.472-1.71a6.622,6.622,0,0,0-.806.05,26.429,26.429,0,0,1-2.092,5.817l0,.009-.18.335C72.9-.6,72.66-.15,72.347.415L72.222.64,70.8-.2l.179-.225A13.165,13.165,0,0,0,72.4-2.9a21.953,21.953,0,0,0,1.43-4.029c-1.011.155-1.515.241-1.61.262l-.011,0a7.737,7.737,0,0,0-.792.178l-.279.072-.174-1.565.272-.008c.442-.012,1.743-.156,2.894-.335a16.447,16.447,0,0,0,.377-2.748Zm1.05.621-.552-.062a18.277,18.277,0,0,1-.425,2.926l-.038.164-.166.027c-.953.153-2.192.3-2.856.352l.051.459c.19-.047.316-.074.547-.114.149-.032.836-.146,2.013-.324l.373-.056-.094.366a23.174,23.174,0,0,1-1.556,4.482A15.053,15.053,0,0,1,71.544-.339l.489.288c.252-.459.452-.833.6-1.116l.179-.333a26.057,26.057,0,0,0,2.093-5.878l.04-.173.176-.019a8.319,8.319,0,0,1,1.035-.071,1.9,1.9,0,0,1,1.537.508,2.5,2.5,0,0,1,.435,1.7,11.063,11.063,0,0,1-.608,3.989A1.1,1.1,0,0,1,76.5-.618,4.86,4.86,0,0,1,74.7-1.1c0,.045,0,.092,0,.145,0,.125,0,.216-.009.331a4.756,4.756,0,0,0,1.845.455,1.222,1.222,0,0,0,1.168-.552A9.524,9.524,0,0,0,78.6-5.39a2.6,2.6,0,0,0-.607-2.072,2.46,2.46,0,0,0-1.844-.52,7.921,7.921,0,0,0-.8.041l-.328.029.1-.548c.106-.565.19-1.011.251-1.368C75.457-10.393,75.505-10.684,75.56-10.914Zm-14.678-.426.211.119A16.576,16.576,0,0,0,65.755-9.7l.31.048-.59,1.476-.213-.055a21.75,21.75,0,0,1-2.752-.8,15.736,15.736,0,0,1-2.162-.89l-.254-.117Zm4.487,2.085a17.832,17.832,0,0,1-4.308-1.416l-.25.411a13.861,13.861,0,0,0,1.864.755,19.814,19.814,0,0,0,2.5.737ZM35.406-10.428A5.66,5.66,0,0,1,39.431-8.97a4.93,4.93,0,0,1,1.433,3.594,5.369,5.369,0,0,1-3.358,5.06,11.054,11.054,0,0,1-2.173.658l-.225.049L35.041.171a2,2,0,0,0-.447-.855l-.264-.333.419-.069a8.169,8.169,0,0,0,2.273-.638,3.992,3.992,0,0,0,2.334-3.694A3.442,3.442,0,0,0,37.278-8.7a3.631,3.631,0,0,0-1.3-.316,21.041,21.041,0,0,1-1.364,5.394c-.863,1.964-1.75,2.84-2.876,2.84a2.257,2.257,0,0,1-1.867-1.082,4.632,4.632,0,0,1-.707-2.584A6.04,6.04,0,0,1,30.7-8.483,6.079,6.079,0,0,1,35.406-10.428ZM35.448-.2a10.069,10.069,0,0,0,1.863-.581,5.055,5.055,0,0,0,2.253-1.834,4.986,4.986,0,0,0,.8-2.765,4.436,4.436,0,0,0-1.282-3.236,5.169,5.169,0,0,0-3.676-1.316,5.6,5.6,0,0,0-4.337,1.78,5.54,5.54,0,0,0-1.4,3.7c0,1.8.892,3.166,2.074,3.166.9,0,1.646-.783,2.417-2.539a20.632,20.632,0,0,0,1.352-5.484l.025-.232.233.009a4.306,4.306,0,0,1,1.713.37,3.925,3.925,0,0,1,2.377,3.743A4.485,4.485,0,0,1,37.231-1.27a7.884,7.884,0,0,1-2,.607A2.131,2.131,0,0,1,35.448-.2Zm63.922-10.1h1.888v3.571L100.9-2.143H99.745l-.375-4.6Zm1.388.5H99.87v3.041l.336,4.108h.235l.316-4.107Zm2.5-.5h1.888v3.571l-.353,4.578h-1.159l-.375-4.6Zm1.388.5h-.888v3.041l.336,4.108h.235l.316-4.107Zm-96.066-.37h3.147l-.162.354a4.159,4.159,0,0,1-1.283,1.641l-.151.128-.159-.117a4.648,4.648,0,0,1-1.466-1.6l-.071-.118Zm2.355.5H9.159a3.862,3.862,0,0,0,.952.983A3.492,3.492,0,0,0,10.936-9.662Zm24.091.12-.03.3A19.533,19.533,0,0,1,33.7-3.988c-.662,1.508-1.272,2.18-1.979,2.18-.909,0-1.594-1.131-1.594-2.63a5.118,5.118,0,0,1,2.4-4.386,4.653,4.653,0,0,1,2.194-.693Zm-3.3,7.234c.462,0,.974-.633,1.521-1.88a18.85,18.85,0,0,0,1.22-4.8,4.068,4.068,0,0,0-1.673.59A4.616,4.616,0,0,0,30.63-4.438C30.63-3.264,31.121-2.308,31.724-2.308ZM80.5-9.342l.132.142a12.889,12.889,0,0,1,2.98,5.047l.064.193-1.353.782-.086-.312a11.163,11.163,0,0,0-2.794-4.917l-.232-.237Zm2.572,5.154a12.3,12.3,0,0,0-2.676-4.529l-.367.2a11.633,11.633,0,0,1,2.6,4.586ZM59.054-8.9l1.626.107-.087.3a11.472,11.472,0,0,0-.315,1.511c-.157.95-.248,1.484-.3,1.8-.021.121-.036.213-.049.289a7.261,7.261,0,0,1,4.151-1.22,4.9,4.9,0,0,1,2.878.784A2.585,2.585,0,0,1,68.08-3.164,3.226,3.226,0,0,1,66.715-.553a6.049,6.049,0,0,1-3.631.971,11.944,11.944,0,0,1-2.5-.258l-.01,0c-.264-.069-.264-.069-1.116-.279l-.213-.052.024-.218a1.958,1.958,0,0,0,.012-.238,2.989,2.989,0,0,0-.092-.812l-.108-.47.446.182A9.7,9.7,0,0,0,63-1.048c2.144,0,3.53-.825,3.53-2.1,0-1-.9-1.57-2.466-1.57a6.494,6.494,0,0,0-3.772,1.17,2.178,2.178,0,0,0-.51.525l-.078.1L58.2-2.963l.047-.284c.035-.213.05-.332.09-.65l.021-.166c.146-1.107.4-2.743.589-3.874a4.493,4.493,0,0,0,.095-.715Zm.978.565-.511-.034c-.015.139-.037.277-.083.522C59.251-6.728,59-5.1,58.852-4l-.02.164c-.021.167-.035.282-.049.386l.683.018a2.465,2.465,0,0,1,.529-.521,7,7,0,0,1,4.07-1.268c1.857,0,2.966.774,2.966,2.07,0,1.581-1.582,2.6-4.03,2.6a10.3,10.3,0,0,1-3.245-.56,3.892,3.892,0,0,1,.023.478c0,.02,0,.044,0,.073.65.16.675.166.915.23a11.441,11.441,0,0,0,2.391.245,5.58,5.58,0,0,0,3.342-.879,2.725,2.725,0,0,0,1.154-2.2c0-1.49-1.375-2.452-3.5-2.452a6.7,6.7,0,0,0-3.891,1.15,3.677,3.677,0,0,0-.406.394l-.127.137-.37-.185.042-.191c.006-.029.012-.053.017-.075a1.121,1.121,0,0,0,.034-.214V-4.61c.023-.176.042-.288.105-.659.054-.318.145-.851.3-1.8C59.884-7.673,59.949-8.012,60.032-8.339ZM2.956-5.612H6.984V-4.44H2.956Zm3.528.5H3.456v.172H6.484Zm-3.528.788H6.984V-3.11H2.956Zm3.528.5H3.456v.214H6.484Zm-3.528.83H6.984v1.2H2.956Zm3.528.5H3.456v.2H6.484Zm92.886.822h1.86V.25H99.37Zm1.36.5h-.86V-.25h.86Zm2.529-.5h1.86V.25h-1.86Zm1.36.5h-.86V-.25h.86Z" transform="matrix(0.978, -0.208, 0.208, 0.978, 429.021, 2151.396)" fill="#fff"/><path d="M200.881,12391.12l-1.524-1.293a6.889,6.889,0,0,0,1.2-5.261c-.542-2.327-2.59-4.366-6.088-6.062-1.951-.945-5.318-1.526-10.294-1.775-4.622-.231-10.224-.168-16.154-.1-8.4.1-17.911.2-26.67-.526-10.136-.841-17.708-2.672-23.149-5.6-6.033-3.246-9.243-7.183-9.541-11.7a12.425,12.425,0,0,1,1.283-6.108,22.09,22.09,0,0,1,3.27-4.926,31.31,31.31,0,0,1,4.877-4.585,1,1,0,1,1,1.171,1.621c-.117.085-9.084,6.675-8.6,13.871.252,3.782,3.109,7.169,8.493,10.065,5.194,2.795,12.51,4.551,22.367,5.368,8.665.719,18.131.613,26.482.521,5.962-.066,11.593-.13,16.276.1,5.322.267,8.839.894,11.067,1.975,4.081,1.978,6.493,4.479,7.17,7.435a7.644,7.644,0,0,1,.156,2.431c.612-.557,1.3-1.163,2.055-1.8a51.608,51.608,0,0,1,12.777-8.092c3.97-1.646,7.7-1.8,11.313-1.947a38.956,38.956,0,0,0,8.491-1,25.546,25.546,0,0,0,9.469-4.9c3.306-2.615,4.93-5.312,4.825-8.018-.167-4.33-4.716-7.437-4.761-7.467a1,1,0,0,1,1.112-1.663c.222.148,5.432,3.688,5.647,9.04.136,3.383-1.742,6.639-5.582,9.676a27.505,27.505,0,0,1-10.2,5.271,40.6,40.6,0,0,1-8.915,1.059c-3.594.147-6.989.287-10.63,1.8C208.852,12382.429,200.96,12391.033,200.881,12391.12Z" transform="translate(-2689.282 -9804.195) rotate(-14)" fill="#fff"/></g></svg>