<svg height="324" viewBox="0 0 574 324" width="574" xmlns="http://www.w3.org/2000/svg" xmlns:xlink="http://www.w3.org/1999/xlink"><clipPath id="a"><path d="m0 0h574v324h-574z"/></clipPath><g clip-path="url(#a)" fill="#fff"><path d="m232.1 246.453a2.042 2.042 0 0 0 -2.04 2.04v39.718a2.043 2.043 0 0 0 3.844.96h24.577a1.934 1.934 0 0 0 1.758 1.08 2.1 2.1 0 0 0 2.1-2.04v-39.718a2.1 2.1 0 0 0 -2.1-2.04 2.027 2.027 0 0 0 -1.585.78h-21.76a1.84 1.84 0 0 0 -1.86 1.86 1.87 1.87 0 0 0 1.86 1.92h21.3v34.378h-24.06v-9.54h21.3a1.893 1.893 0 0 0 1.92-1.859 1.922 1.922 0 0 0 -1.92-1.92h-21.3v-8.64h21.3a1.893 1.893 0 0 0 1.92-1.859 1.922 1.922 0 0 0 -1.92-1.92h-21.3v-11.16a2.042 2.042 0 0 0 -2.039-2.04"/><path d="m248.039 243.154a1.32 1.32 0 0 0 .717-.215 5.9 5.9 0 0 0 3.023-4.642c.267-4.218-4.445-8.219-4.645-8.387a1.315 1.315 0 0 0 -1.774.066c-3.743 3.652-5.292 6.813-4.6 9.4.76 2.856 3.891 3.7 4.023 3.734a1.32 1.32 0 0 0 1.185-2.286.882.882 0 0 1 -.342-.633 3.918 3.918 0 0 1 .693-1.876c1.285 1.538.676 2.693.6 2.819a1.315 1.315 0 0 0 .193 1.639l.211-.213-.21.213a1.317 1.317 0 0 0 .925.383m-1.038-7.824a1.319 1.319 0 0 0 -1.749.115 9.218 9.218 0 0 0 -1.982 3.075c-.238-1.367.834-3.393 3.045-5.751.873.907 2.773 3.105 2.829 5.082a6.946 6.946 0 0 0 -2.143-2.521"/><path d="m302.894 271.772v13.379a2.042 2.042 0 0 0 2.04 2.04 2.1 2.1 0 0 0 1.8-1.02h13.986a2.1 2.1 0 0 0 1.8 1.02 2.042 2.042 0 0 0 2.04-2.04v-13.379a2.042 2.042 0 0 0 -2.04-2.04 2.108 2.108 0 0 0 -1.586.72h-11.2a1.871 1.871 0 0 0 -1.861 1.92 1.841 1.841 0 0 0 1.861 1.86h10.739v8.16h-13.5v-10.62a2.039 2.039 0 1 0 -4.079 0"/><path d="m291.934 242.94a1.81 1.81 0 0 0 -.9-1.131 1.867 1.867 0 0 0 -2.565.717 102 102 0 0 1 -10.879 15.185 1.891 1.891 0 0 0 -.488 1.407 1.758 1.758 0 0 0 .634 1.241 1.881 1.881 0 0 0 1.268.488h.107a1.927 1.927 0 0 0 1.335-.644l.151-.179a105.865 105.865 0 0 0 11.159-15.645 1.951 1.951 0 0 0 .175-1.436"/><path d="m305.534 264.692h16.379a1.87 1.87 0 0 0 1.86-1.92 1.82 1.82 0 0 0 -1.86-1.86h-16.379a1.818 1.818 0 0 0 -1.859 1.86 1.87 1.87 0 0 0 1.859 1.92"/><path d="m284.655 257.853v23.279a2.04 2.04 0 1 0 4.079 0v-23.279a2.04 2.04 0 1 0 -4.079 0"/><path d="m305.534 256.652h16.379a1.87 1.87 0 0 0 1.86-1.919 1.819 1.819 0 0 0 -1.86-1.86h-16.379a1.818 1.818 0 0 0 -1.859 1.86 1.869 1.869 0 0 0 1.859 1.919"/><path d="m327.733 246.693a1.87 1.87 0 0 0 -1.92-1.859h-10.019v-5.221a2.07 2.07 0 0 0 -4.14 0v5.221h-10.02a1.86 1.86 0 1 0 0 3.719h24.179a1.87 1.87 0 0 0 1.92-1.86"/><path d="m273.454 182.469a2.4 2.4 0 0 0 -1.515-.916c-3.519-.366-9.958.178-16.772.754l-1.08.091c-5.9.566-11.546 1.073-15.645 1.073a23.266 23.266 0 0 1 -5.932-1.22 2.245 2.245 0 0 0 -2.78 1.512 2.131 2.131 0 0 0 .114 1.7 2.162 2.162 0 0 0 1.319 1.087 30.1 30.1 0 0 0 7.283 1.392c3.757-.066 9.012-.418 16.064-1.076 4.754-.462 10.677-.975 14.563-.925-.214 1.285-.645 3.9-1.141 6.913-.889 5.388-1.99 12.064-2.4 14.5-4.551.069-8.577.3-12.135.511l-3 .188c-3.989.278-7.436.518-11.185.45a21.245 21.245 0 0 1 -5.308-1.063 2.175 2.175 0 0 0 -2.793 1.438 2.347 2.347 0 0 0 .148 1.7 2.041 2.041 0 0 0 1.26 1.068 26.478 26.478 0 0 0 6.612 1.327q.684.012 1.363.012c3.649 0 7.2-.25 10.943-.513l1.435-.1c4.559-.3 9.726-.633 16.054-.633a2.195 2.195 0 0 0 1.065-4.153l3.893-23.429a2.3 2.3 0 0 0 -.429-1.691"/><path d="m343.2 197.533a2.261 2.261 0 0 0 2.62-1.781 2.286 2.286 0 0 0 -1.851-2.6c-6.1-1.108-23.8.2-35.522 1.072l-10.437.691c-1.67.064-3.889-1.383-4.7-2.1a2.174 2.174 0 0 0 -3.115.161 2.244 2.244 0 0 0 .093 3.139l.091.075a12.171 12.171 0 0 0 7.462 3.205c.14 0 .279 0 .416-.012l10.52-.691c10.075-.735 28.825-2.1 34.418-1.156"/><path d="m367.989 183.325a2.35 2.35 0 0 0 -1.365 1.071 2.176 2.176 0 0 0 -.231 1.71 2.25 2.25 0 0 0 2.78 1.52l.2-.055c9.722-2.68 19.776-5.451 25.224-11.206 1.458-1.458 2.28-4.476 2.63-5.764.045-.164.08-.295.112-.4a2.328 2.328 0 0 0 -1.677-2.691h-.016a2.247 2.247 0 0 0 -2.69 1.685 12.682 12.682 0 0 1 -1.563 4.131c-4.609 4.837-14.055 7.434-23.191 9.945z"/><path d="m411.18 196.309a2.271 2.271 0 0 0 2.439-2.029 2.308 2.308 0 0 0 -2.023-2.439c-5.774-.509-14.928.037-21.682.6a29.2 29.2 0 0 0 -1.021-7.194 2.254 2.254 0 0 0 -2.707-1.61 2.331 2.331 0 0 0 -1.363 1.03 2.079 2.079 0 0 0 -.234 1.67 22.75 22.75 0 0 1 .837 5.785 3.463 3.463 0 0 1 -.04.656c-3.761.28-7.769.648-11.6 1.064l-1.069.092c-3.865.335-6.918.6-7.895.6a42.244 42.244 0 0 1 -4.831-.358l-.21-.024a2.252 2.252 0 0 0 -2.531 1.848 2.211 2.211 0 0 0 1.849 2.526 35.853 35.853 0 0 0 5.721.465c1.309 0 4.7-.308 9.386-.769 3.08-.308 6.847-.615 10.484-.9-1.77 9.075-5.147 14.339-13.653 24.453a2.163 2.163 0 0 0 -.466 1.627 2.252 2.252 0 0 0 .794 1.488 2.1 2.1 0 0 0 1.426.551c.054 0 .109 0 .163-.006a2.208 2.208 0 0 0 1.539-.794c8.569-10.253 12.833-16.352 14.759-27.734 6.84-.5 16.476-1.1 21.928-.6"/><path d="m428.634 181.02c4.69 1.587 9.9 5.813 10.46 6.339l.08.081a2.406 2.406 0 0 0 1.446.5 2.267 2.267 0 0 0 1.482-3.968c-.023-.017-.076-.06-.157-.126-2.435-1.963-7.214-5.489-11.876-7.044a2.159 2.159 0 0 0 -1.721.117 2.216 2.216 0 0 0 -1 3.022 2.067 2.067 0 0 0 1.285 1.079"/><path d="m477.235 183.782a2.3 2.3 0 0 0 .339-1.683 2.184 2.184 0 0 0 -.93-1.435 2.306 2.306 0 0 0 -1.683-.338 2.174 2.174 0 0 0 -1.435.931c-5.911 8.865-31.02 30.716-39.18 34.915-.788-.166-2.965-2.47-4.4-4.966a2.239 2.239 0 0 0 -3.038-.833 2.319 2.319 0 0 0 -.836 3.114c1.088 1.835 4.554 7.121 8.335 7.121a4.057 4.057 0 0 0 1.832-.442c8.682-4.341 34.648-26.82 41-36.384"/><path d="m34.465 146.66a2.122 2.122 0 0 0 2.119 2.12h44.159a2.122 2.122 0 0 0 2.119-2.12v-.72a2.122 2.122 0 0 0 -2.119-2.12 2.039 2.039 0 0 0 -1.578.78h-42.581a2.092 2.092 0 0 0 -2.119 2.06"/><path d="m40.524 112.462a2.069 2.069 0 0 0 2.12 2.06h32.039a2.067 2.067 0 0 0 2.119-2.06v-.78a2.092 2.092 0 0 0 -2.119-2.06 2.116 2.116 0 0 0 -1.558.72h-30.481a2.122 2.122 0 0 0 -2.12 2.12"/><path d="m45.884 126.241a2.069 2.069 0 0 0 -2.061 2.12 2.039 2.039 0 0 0 2.061 2.06h25.559a2.037 2.037 0 0 0 2.059-2.06 2.068 2.068 0 0 0 -2.059-2.12z"/><path d="m133.9 121.3a2.092 2.092 0 0 0 2.119-2.06v-1.2a2.122 2.122 0 0 0 -2.119-2.12 2.066 2.066 0 0 0 -1.846 1.2h-18.76a89.682 89.682 0 0 0 .589-11.32 2.092 2.092 0 0 0 -2.059-2.119 2.122 2.122 0 0 0 -2.12 2.119 89.124 89.124 0 0 1 -.538 11.32h-17.382a2.122 2.122 0 0 0 -2.119 2.12 2.092 2.092 0 0 0 2.119 2.06h16.659c-2.054 9.1-7 15.232-18 22.414a2.046 2.046 0 0 0 -.935 1.314 2.111 2.111 0 0 0 2.056 2.559 1.96 1.96 0 0 0 1.093-.329c12.319-8.008 17.779-15.078 20-25.958z"/><path d="m137.241 155.426a2.223 2.223 0 0 0 1.167.339 2.024 2.024 0 0 0 1.735-.975 1.978 1.978 0 0 0 .277-1.552 2.146 2.146 0 0 0 -.921-1.308c-1.681-1.093-16.615-11.087-23.621-25.1a1.985 1.985 0 0 0 -1.189-1.051 2.084 2.084 0 0 0 -2.533 2.925c7.848 15.634 24.379 26.272 25.085 26.721"/><path d="m427.458 133.267c1.384 0 3.943-1.439 6.978-5.479 2.37-3.157 5.8-9.005 8.682-18.942a2.1 2.1 0 0 0 -.176-1.591 2.053 2.053 0 0 0 -1.247-1.008 2.117 2.117 0 0 0 -1.591.176 2.051 2.051 0 0 0 -1.006 1.245c-4.455 15.321-9.866 20.049-11.294 21.073-1.489-2.006-4.346-8.017-4.346-9.594 0-5.1 5.667-14.2 16.96-14.2 10.219 0 15.794 6 16.786 11.94.983 6.142-2.377 14.851-15.1 19.188a2.178 2.178 0 0 0 -1.322 2.679 2.075 2.075 0 0 0 1.96 1.389 2.1 2.1 0 0 0 .711-.124c14.216-4.82 19.21-15.442 17.853-23.836-1.3-7.673-8.265-15.416-20.893-15.416-13.611 0-21.14 10.868-21.14 18.379 0 2.032 4.324 14.12 8.18 14.12"/><path d="m517.7 219.2a1.531 1.531 0 0 0 -1.737-1.335c-9.472 1.136-11.924-1.3-12.451-2.071a2.823 2.823 0 0 1 -.032-2.92 1.546 1.546 0 1 0 -2.729-1.452 5.921 5.921 0 0 0 .207 6.116c1.239 1.782 4.054 3.676 10.426 3.676a41.657 41.657 0 0 0 4.935-.319 1.588 1.588 0 0 0 1.383-1.677z"/><path d="m487.828 219.983a1.452 1.452 0 0 0 1.258.768c.053 0 .106.008.159.008a1.479 1.479 0 0 0 1.2-.648l5.063-7.078a1.563 1.563 0 0 0 -.365-2.148 1.544 1.544 0 0 0 -2.143.356s-1.495 2.094-2.883 4.043c-.021-.394-.037-.815-.037-1.293a87.839 87.839 0 0 1 1.308-14.1 13.941 13.941 0 0 0 .143-1.915 11.667 11.667 0 0 0 -1.011-4.854 1.55 1.55 0 0 0 -2.053-.748 1.547 1.547 0 0 0 -.693 2.073 9.483 9.483 0 0 1 .539 4.931c-1.308 7.944-1.864 18.076-.484 20.6"/><path d="m515.865 197.973a1.751 1.751 0 0 0 .493-2.19c-1.392-2.735-13.641-.43-14.609-.157a1.483 1.483 0 0 0 -.952.689 1.5 1.5 0 0 0 -.163 1.185 1.628 1.628 0 0 0 1.916 1.1 37.524 37.524 0 0 1 8.8-1.022c-1.262.991-2.555 1.979-2.828 2.188a.479.479 0 0 0 -.083.067l.024.027a1.608 1.608 0 0 0 -.439 1.074 1.539 1.539 0 0 0 1.518 1.517 1.817 1.817 0 0 0 .355-.031v.2z"/><path d="m369.024 271.69v.172a1.546 1.546 0 0 0 .568 1.083 1.576 1.576 0 0 0 1 .357 1.724 1.724 0 0 0 .215-.014c5.738-.62 8.619-2.053 8.565-4.254-.1-5.134-5.923-9.365-11.493-10.489a1.639 1.639 0 0 0 -1.959 1.345v.25a1.68 1.68 0 0 0 1.292 1.593c4.005.8 8.466 3.691 8.843 7.005a18.988 18.988 0 0 1 -5.63 1.306 1.652 1.652 0 0 0 -1.4 1.646"/><path d="m369.96 251.915a1.287 1.287 0 0 0 -.91.476 1.265 1.265 0 0 0 -.324.928 1.476 1.476 0 0 0 .506 1c2.065 1.72 3.516 3.168 3.531 3.182l.012.012a1.466 1.466 0 0 0 .973.381 1.292 1.292 0 0 0 .926-.381 1.265 1.265 0 0 0 .437-.919 1.38 1.38 0 0 0 -.424-1.018c-.155-.154-1.572-1.56-3.728-3.375a1.438 1.438 0 0 0 -1-.287"/><path d="m376.674 254.243a1.362 1.362 0 0 0 .963-2.314c-.012-.012-1.527-1.483-3.767-3.367a1.356 1.356 0 0 0 -1.932.193 1.385 1.385 0 0 0 -.284 1.014 1.266 1.266 0 0 0 .478.85c2.113 1.77 3.565 3.219 3.58 3.233a1.355 1.355 0 0 0 .962.391"/><path d="m351.922 277.475a1.572 1.572 0 0 0 -1.043-.672 1.6 1.6 0 0 0 -1.224.288 1.543 1.543 0 0 0 -.672 1.027 1.5 1.5 0 0 0 .27 1.158c.027.052 3.264 4.958 7.424 3.447 3-1.11 5.357-10.248 5.5-14.773.123-3.734-.879-6.1-2.983-7.037a8.718 8.718 0 0 0 -3.85-.6c.476-1.519.878-3.075 1.326-4.913a7.692 7.692 0 0 0 -1.2-6.141 1.5 1.5 0 0 0 -1.027-.594 1.584 1.584 0 0 0 -1.2.33 1.651 1.651 0 0 0 -.343 2.289 4.168 4.168 0 0 1 .581 3.387c-.443 1.989-1 4.006-1.691 6.162-.791.187-1.541.374-2.3.564-1.793.5-4.247 1.184-5.177.675a1.633 1.633 0 0 0 -2.207.672 1.613 1.613 0 0 0 -.123 1.243 1.64 1.64 0 0 0 .8.964c2.015 1.062 4.711.339 7.563-.424.049-.012.1-.025.157-.037a62.892 62.892 0 0 1 -9.563 17.233c-.055.067-.084.1-.1.127a1.632 1.632 0 0 0 -.406 1.2 1.511 1.511 0 0 0 .545 1.068 1.615 1.615 0 0 0 1.09.418h.091a1.666 1.666 0 0 0 1.161-.57c1.1-1.275 6.747-8.225 10.927-20.3a7.055 7.055 0 0 1 3.657.252c.588.257.916 1.395.973 2.362a9.723 9.723 0 0 1 .048 1.213c0 4.911-2.468 11.359-3.44 12.18-1.408.392-3.06-1.553-3.561-2.2"/><path d="m412.066 282.812a1.575 1.575 0 0 0 -.883.882 1.537 1.537 0 0 0 .015 1.216 1.657 1.657 0 0 0 1.536 1.015 1.781 1.781 0 0 0 .606-.107c9.735-4.128 13.056-11.054 12.03-16.084-.777-4.033-4.729-8.343-13.5-8.343a22.038 22.038 0 0 0 -7.8 1.493 35.724 35.724 0 0 1 .746-4.472 44.883 44.883 0 0 0 9.658-2.439 1.618 1.618 0 0 0 .981-2.091 1.641 1.641 0 0 0 -2.084-.924 46.392 46.392 0 0 1 -7.653 2.007c.058-.176.113-.354.169-.535.07-.226.141-.457.219-.691a9.974 9.974 0 0 0 .1-3.653l-.034-.339a1.64 1.64 0 0 0 -3.243.492 9.951 9.951 0 0 1 .113 2.452c-.305.871-.532 1.694-.751 2.491l-.047.168a9.918 9.918 0 0 1 -4.876-.724 1.542 1.542 0 0 0 -1.225-.1 1.587 1.587 0 0 0 -.933.825 1.609 1.609 0 0 0 -.113 1.266 1.5 1.5 0 0 0 .789.893 12.23 12.23 0 0 0 5.567 1.089 46.994 46.994 0 0 0 -.815 5.911 22.809 22.809 0 0 0 -6.853 5.8c-2.11 2.778-2.872 5.623-2.151 8.009.131.554.681 1.837 2.969 2.072 2.377.171 6.043-.98 9.344-2.935a23.651 23.651 0 0 0 9.4-10.031 1.609 1.609 0 1 0 -2.888-1.416 21.278 21.278 0 0 1 -12.912 10.744 6.667 6.667 0 0 1 -2.86.344 3.319 3.319 0 0 1 -.059-.556 7.568 7.568 0 0 1 1.739-4.269 18.585 18.585 0 0 1 4.215-3.922c.027 1.649.166 3.038.3 4.233a1.672 1.672 0 0 0 1.836 1.406 1.643 1.643 0 0 0 1.409-1.835 40.37 40.37 0 0 1 -.3-5.668 19.574 19.574 0 0 1 8.055-1.845c5.668 0 9.636 2.207 10.355 5.757.73 3.744-2.133 9.035-10.163 12.414"/><path d="m446.873 283.659a1.631 1.631 0 0 0 .537 3.164 1.671 1.671 0 0 0 .567-.1c11.253-4.125 14.508-15.847 12.743-25.635-.774-4.382-2.926-9.5-6.446-9.5-4.819 0-6.97 7.476-8.869 14.073l-.249.865a42.57 42.57 0 0 1 -1.378 4.277c-.014-.034-.028-.07-.042-.11a8.425 8.425 0 0 1 -.763-3.9 18.7 18.7 0 0 1 3.148-10.083 7.463 7.463 0 0 0 1.3-4.268 8.915 8.915 0 0 0 -1.035-4.093 1.622 1.622 0 0 0 -.995-.8 1.557 1.557 0 0 0 -1.221.18 1.592 1.592 0 0 0 -.634 2.1c.006.016.021.052.045.1a5.124 5.124 0 0 1 -.159 4.984c-4.132 6.172-4.548 13.649-2.565 17.311a3.723 3.723 0 0 0 3.264 2.307c2.088 0 2.811-2.5 4.252-7.467l.117-.406c1.181-4.134 3.379-11.828 5.782-11.828.72 0 2.472 2.353 3.254 6.853 1.38 7.83-.584 18.281-10.655 21.966"/><path d="m534.946 289.441a5 5 0 1 0 -5-5 5.005 5.005 0 0 0 5 5m0-7.95a2.976 2.976 0 1 1 -3 2.95 2.943 2.943 0 0 1 3-2.95"/><path d="m484.47 288.964h25.408a7.6 7.6 0 0 0 7.586-7.587v-25.408a7.6 7.6 0 0 0 -7.586-7.586h-25.408a7.6 7.6 0 0 0 -7.587 7.586v25.408a7.6 7.6 0 0 0 7.587 7.587m-4.587-32.995a4.592 4.592 0 0 1 4.587-4.586h25.408a4.591 4.591 0 0 1 4.586 4.586v25.408a4.592 4.592 0 0 1 -4.586 4.587h-25.408a4.593 4.593 0 0 1 -4.587-4.587z"/><path d="m485.992 281.355a1.5 1.5 0 0 0 1.061-.438l12.774-12.775a1.5 1.5 0 0 0 -2.121-2.121l-12.775 12.779a1.5 1.5 0 0 0 1.061 2.56"/><path d="m503.65 263.7a1.5 1.5 0 0 0 1.061-.439l4.706-4.707a1.5 1.5 0 0 0 -2.121-2.121l-4.707 4.706a1.5 1.5 0 0 0 1.061 2.561"/><path d="m278.379 130.751a3.459 3.459 0 0 0 -2.641-3.359v-9.36a2.586 2.586 0 0 0 -2.639-2.639 2.663 2.663 0 0 0 -2.64 2.639v9.239h-40.2v-49.317l13.079-4.44v15.84a3.587 3.587 0 0 0 3.6 3.479 3.483 3.483 0 0 0 3.48-3.479v-18.241l12.6-4.2v34.2h-9.241a2.663 2.663 0 0 0 -2.639 2.64 2.587 2.587 0 0 0 2.639 2.64h9.361a3.71 3.71 0 0 0 3.479 2.759 3.586 3.586 0 0 0 3.48-3.6v-44.4a3.483 3.483 0 0 0 -3.48-3.481 3.539 3.539 0 0 0 -3.36 2.4l-12.837 4.324v-27.119a3.483 3.483 0 0 0 -3.48-3.48 3.586 3.586 0 0 0 -3.6 3.48v29.518l-13.079 4.44v-22.679a3.48 3.48 0 1 0 -6.96 0v24.959l-9.72 3.239a3.228 3.228 0 0 0 2.04 6.121l7.68-2.64v50.517a3.482 3.482 0 0 0 3.479 3.481h48.12a3.483 3.483 0 0 0 3.48-3.481"/><path d="m175.423 102.553a3.185 3.185 0 1 0 .36 6.359c8.64-.48 28.679-4.679 29.639-4.8a3.19 3.19 0 0 0 -1.32-6.24c-.12 0-4.68.96-10.44 2.04v-25.438h10.32a3.1 3.1 0 0 0 3.12-3.12 3.2 3.2 0 0 0 -3.12-3.24h-10.32v-17.879a3.482 3.482 0 1 0 -6.96 0v17.879h-10.319a3.2 3.2 0 0 0 -3.12 3.24 3.1 3.1 0 0 0 3.12 3.12h10.317v26.639a107.191 107.191 0 0 1 -11.279 1.44"/><path d="m350.141 76.634v-23.279a3.662 3.662 0 0 0 -3.719-3.72c-1.561 0-3.12 1.679-3.12 3.72v50.757a3.471 3.471 0 0 0 3.12 3.241h42.238v25.318h-9.48a2.52 2.52 0 0 0 -2.64 2.64 2.83 2.83 0 0 0 2.64 2.64h9.48c0 1.56 1.68 2.64 3.239 2.64 2.04 0 3.72-1.56 3.72-3.12v-34.918c0-1.56-1.68-3.12-3.72-3.12a2.768 2.768 0 0 0 -2.639 1.56h-2.246a1.979 1.979 0 0 0 .268-.983v-11.3c7.132-1.837 13.064-6.422 13.064-13.443 0-2-.048-3.849-.09-5.479-.127-4.955-.22-8.535 1.187-9.832a62.649 62.649 0 0 0 5.434-5.851 2 2 0 0 0 -1.917-3.223 11.1 11.1 0 0 1 -3.528.006 6.144 6.144 0 0 1 -1.451-.409l-.153-.076a8.26 8.26 0 0 1 -.781-.423c.685-1.583 1.421-5.2-.488-6.964a3.9 3.9 0 0 0 -3.071-1.08 6.554 6.554 0 0 0 -4.221 2.749 1.64 1.64 0 0 1 -.392.419 2.584 2.584 0 0 1 -.318.035 4.275 4.275 0 0 0 -2.524.916 4.224 4.224 0 0 0 -1.59 3.6l-.09.041a3.707 3.707 0 0 0 -2.03 2.065c-1.4 3.533 1.511 4.9 2.606 5.413a7.243 7.243 0 0 1 .933.481c.539 1.083-.013 5.785-.636 6.76-.494.586-4.357 2.486-8.209-.1a12.233 12.233 0 0 1 -3.057-3.036c-1.612-2.081-3.278-4.233-9.216-5.267-8.234-1.436-11.143-.162-11.838.262a2 2 0 0 0 -.017 3.4c.671.614 3.946 5.329 4.358 14.071.387 8.217 8.64 14.994 18.8 15.79v10.475a1.979 1.979 0 0 0 .268.983h-28.174zm31.639 24.359a1.99 1.99 0 0 0 .268-.983v-10.46c.412-.028.823-.067 1.234-.112v10.572a1.979 1.979 0 0 0 .268.983zm-18.537-27.43a32.159 32.159 0 0 0 -3.714-14.2 33.194 33.194 0 0 1 6.529.589h.017a2 2 0 0 0 -.676.871c-.135.345-3.268 8.521 2.731 14.519a11.551 11.551 0 0 0 8.348 3.6 12.485 12.485 0 0 0 7.592-2.566 10.458 10.458 0 0 0 3.087-4.013 1.986 1.986 0 0 0 -1.157-2.545 2.012 2.012 0 0 0 -2.583 1.127 6.924 6.924 0 0 1 -1.917 2.365 7.977 7.977 0 0 1 -10.542-.792c-4.119-4.12-1.933-9.975-1.835-10.229a1.992 1.992 0 0 0 -.052-1.567 7.539 7.539 0 0 1 3.726 3.007 16.157 16.157 0 0 0 3.988 3.906c5.6 3.769 11.947 1.444 13.635-.808 1.369-1.825 2.55-9.093.655-11.542a6.209 6.209 0 0 0 -2.447-1.728c-.157-.074-.361-.169-.529-.258a4.032 4.032 0 0 0 1.994-1.838 3.714 3.714 0 0 0 .35-1.789c0-.151 0-.38.011-.423l.1-.087a2.543 2.543 0 0 1 .316-.035 4.453 4.453 0 0 0 3.6-2.053 3.3 3.3 0 0 1 1.286-1.108 5.177 5.177 0 0 1 -.4 2.452 3.727 3.727 0 0 0 -.3 2.568 2.516 2.516 0 1 0 1.741 2.386c0-.051-.012-.1-.015-.149a8.8 8.8 0 0 0 1.262.764l.139.07a9.828 9.828 0 0 0 2.474.756c.077.016.153.03.23.043-.675.719-1.418 1.471-2.165 2.159-2.741 2.526-2.635 6.644-2.474 12.876.041 1.606.088 3.427.088 5.376 0 7.543-10 10.354-16.3 10.354-9.713 0-16.532-6.235-16.8-12.058"/><path d="m341.382 117.552c1.8 4.56 3.839 11.4 3.839 11.4a3.189 3.189 0 1 0 6.12-1.8c-.12-.24-2.16-7.08-4.08-11.88a3.153 3.153 0 1 0 -5.879 2.28"/><path d="m332.142 131.591c.479 1.56 1.56 2.16 3.239 2.16a3.21 3.21 0 0 0 1.08-.24 3 3 0 0 0 1.56-3.48c0-.48-2.159-7.44-4.319-13.8-.6-2.04-2.04-2.641-4.081-2.16a2.794 2.794 0 0 0 -1.679 3.84c2.04 6.359 4.2 13.679 4.2 13.679"/><path d="m356.741 112.632a3.049 3.049 0 0 0 -1.8 4.08c1.8 4.56 3.84 11.4 3.84 11.4a3.208 3.208 0 0 0 3.96 2.161 3.051 3.051 0 0 0 2.04-3.96c-.12-.241-2.04-7.08-3.96-11.88a3.144 3.144 0 0 0 -4.08-1.8"/><path d="m354.821 49.155a3.4 3.4 0 0 0 2.16-1.08c.6 0 5.279-5.28 8.52-9.96a4.1 4.1 0 0 0 -.6-4.8c-1.559-.6-3.72-.6-4.68 1.08-3.239 4.2-7.439 9.479-8.039 9.479a2.866 2.866 0 0 0 .6 4.2 2.49 2.49 0 0 0 2.04 1.08"/><path d="m376.06 129.551a5.729 5.729 0 0 0 1.56-.36 2.989 2.989 0 0 0 1.44-3.84c-.721-1.679-2.28-6.96-4.08-11.759a3.121 3.121 0 0 0 -4.2-2.04c-1.68.48-2.159 2.64-1.68 4.2 1.68 4.8 3.72 11.159 3.72 11.159.6 1.56 1.56 2.64 3.24 2.64"/><path d="m330.7 106.752c0-.12-4.92-6.24-8.76-10.919a3.2 3.2 0 0 0 -4.439-.361 3 3 0 0 0 -.361 4.44c3.72 4.56 8.52 10.68 8.64 10.68a3.107 3.107 0 0 0 4.441.6 3.209 3.209 0 0 0 .479-4.44"/><path d="m306.823 54.915c-1.68 1.08-1.68 3.24-.6 4.8a59.477 59.477 0 0 1 4.32 7.439 2.8 2.8 0 0 0 2.519 1.56 4.364 4.364 0 0 0 1.92-.36c1.561-.72 2.04-2.52 1.32-4.439a95.646 95.646 0 0 0 -5.279-8.4c-.6-1.08-2.64-1.56-4.2-.6"/><path d="m295.664 55.875c-1.561 1.2-1.561 2.76-.48 4.44 1.08 2.039 3.719 6.239 4.44 7.319a3.063 3.063 0 0 0 2.159 1.92 3.94 3.94 0 0 0 2.04-.48 3.117 3.117 0 0 0 1.32-4.074c-.6-.84-3.12-5.76-5.28-8.4-.96-1.68-2.639-1.68-4.2-.72"/><path d="m294.1 119.952a3.591 3.591 0 0 0 2.641 1.08 4.591 4.591 0 0 0 2.159-1.08c.48-.48 11.519-10.56 16.319-29.039h15.36a2.943 2.943 0 0 0 3.12-2.64 3.354 3.354 0 0 0 -3.12-3.119h-14.279a16.707 16.707 0 0 0 .481-4.8h13.8a3.355 3.355 0 0 0 3.12-3.12 2.953 2.953 0 0 0 -3.12-2.76h-13.2v-1.56a3.374 3.374 0 0 0 -3.24-3.12 3.021 3.021 0 0 0 -3.119 3.12v1.56h-11.16c-2.04 0-3.119 1.08-3.119 2.76a2.9 2.9 0 0 0 3.119 3.12h10.559a16.773 16.773 0 0 1 -.479 4.8h-10.08c-2.04 0-3.36 1.08-3.239 3 .12 1.679 1.2 2.759 3.239 2.759h9c-4.68 15.84-14.28 24.359-14.28 24.359a3.1 3.1 0 0 0 -.48 4.68"/><path d="m321.1 39.675a150.109 150.109 0 0 1 -19.559 6.84 3.254 3.254 0 0 0 -2.28 4.2 3.076 3.076 0 0 0 2.76 2.28 6.633 6.633 0 0 0 1.08-.12 188.912 188.912 0 0 0 20.639-7.44c1.56-1.08 2.64-2.64 1.56-4.2a3.277 3.277 0 0 0 -4.2-1.56"/><path d="m332.622 51.315a2.737 2.737 0 0 0 -4.2.96 73.781 73.781 0 0 1 -7.919 11.64c-1.08 1.679-1.08 3.719.6 4.8.48.48.96.48 2.041.48a2.261 2.261 0 0 0 2.16-.96 134.374 134.374 0 0 0 8.4-12.719 2.75 2.75 0 0 0 -1.08-4.2"/><path d="m59.213 72.332a7.531 7.531 0 1 0 -7.532-7.532 7.531 7.531 0 0 0 7.532 7.531"/><path d="m191.926 203.183a1.59 1.59 0 0 0 1.256-.618h11.376a1.586 1.586 0 0 0 1.27.618 1.557 1.557 0 0 0 1.555-1.555v-12.082a1.557 1.557 0 0 0 -1.555-1.555 1.609 1.609 0 0 0 -1.1.436h-9.893a1.487 1.487 0 0 0 -1.37.916 1.555 1.555 0 0 0 -3.1.2v12.082a1.557 1.557 0 0 0 1.555 1.555m1.555-12.69a1.486 1.486 0 0 0 1.356.863h9.435v8.28h-10.785z"/><path d="m180.669 191.815a1.507 1.507 0 0 0 -.707 1.262 1.228 1.228 0 0 0 .224.742 1.458 1.458 0 0 0 .882.686 1.405 1.405 0 0 0 .368.049 1.39 1.39 0 0 0 .729-.206c.531-.3 13.08-7.55 20.885-19.239a1.552 1.552 0 0 0 .049-1.49 1.468 1.468 0 0 0 -1.274-.767h-8.444a1.5 1.5 0 0 0 -.94.329 1.485 1.485 0 0 0 0-.333 1.444 1.444 0 0 0 -.558-.975 1.423 1.423 0 0 0 -1.07-.306 1.461 1.461 0 0 0 -.984.564 50.741 50.741 0 0 1 -7.187 6.971 1.443 1.443 0 0 0 -.571.953 1.465 1.465 0 0 0 .29 1.094l.013.016a1.518 1.518 0 0 0 2.078.227c.033-.031.128-.108.273-.227q.7-.571 1.35-1.13a1.554 1.554 0 0 0 .47 1.913l3.887 2.762a68.978 68.978 0 0 1 -9.649 7.055zm7.517-12.276a1.348 1.348 0 0 0 -.815-.275 1.438 1.438 0 0 0 -.536.106 45.046 45.046 0 0 0 5.065-5.124v.052a1.484 1.484 0 0 0 1.482 1.483h5.559a55.763 55.763 0 0 1 -6.293 6.935z"/><path d="m210.258 221.838v-.655a1.467 1.467 0 0 0 -1.447-1.483 1.447 1.447 0 0 0 -1.233.692h-11.513v-6.815a1.574 1.574 0 0 0 -3.147 0v6.815h-12.711a1.465 1.465 0 0 0 0 2.929h12.711v6.279h-2.594a1.485 1.485 0 0 0 -1.367.888 1.556 1.556 0 0 0 -3.1.194v12.483a1.556 1.556 0 0 0 2.824.9h11.184a1.555 1.555 0 0 0 2.823-.9v-12.484a1.557 1.557 0 0 0 -1.555-1.555 1.527 1.527 0 0 0 -1.116.473h-3.952v-6.278h12.746a1.467 1.467 0 0 0 1.447-1.483m-10.68 10.69v8.607h-10.609v-9.489a1.484 1.484 0 0 0 1.355.882z"/><path d="m188.687 287.588h19.033a1.465 1.465 0 0 0 0-2.929h-7.943v-2.859h4.886a1.485 1.485 0 0 0 1.483-1.483 1.467 1.467 0 0 0 -1.483-1.446h-4.886v-1.429a1.555 1.555 0 0 0 -.755-1.333l.938-.047c.573-.028.957-.048 1.063-.05a1.5 1.5 0 0 0 1.373-1.553c0-.014 0-.028 0-.042l1.178 1.651a1.479 1.479 0 0 0 2.047.318 1.5 1.5 0 0 0 .6-.986 1.412 1.412 0 0 0 -.27-1.051l-2.361-3.306a1.409 1.409 0 0 0 -.573-.488h1.108a1.465 1.465 0 0 0 0-2.929h-11.799a1.484 1.484 0 0 0 -1.482 1.482 1.467 1.467 0 0 0 1.482 1.447h1.237l-2.255 3.55a1.408 1.408 0 0 0 -.021 1.43 1.384 1.384 0 0 0 1.294.806c1.137 0 3.022-.073 4.718-.15a1.552 1.552 0 0 0 -.633 1.251v1.429h-4.922a1.465 1.465 0 0 0 0 2.929h4.922v2.857h-7.979a1.465 1.465 0 0 0 0 2.929m6.563-14.239c.639-1.016 1.353-2.154 1.755-2.792h4.8a1.044 1.044 0 0 0 -.217.139 1.434 1.434 0 0 0 -.615.944 1.491 1.491 0 0 0 .23 1.109l.338.473a1.318 1.318 0 0 0 -.659-.136l-.42.021c-.929.051-3.185.172-5.208.242"/><path d="m179.726 283.529q.054 0 .108 0a1.441 1.441 0 0 0 1-.51 35.305 35.305 0 0 0 6.883-17.482h14.33a1.555 1.555 0 0 0 2.823-.9v-6.042a1.557 1.557 0 0 0 -1.555-1.555 1.575 1.575 0 0 0 -1.085.437h-15.764a1.466 1.466 0 0 0 -.52 2.828 1.486 1.486 0 0 0 -.926 1.384 33.744 33.744 0 0 1 -6.37 19.4l-.034.043a1.4 1.4 0 0 0 -.342 1.034 1.452 1.452 0 0 0 .514 1.006 1.4 1.4 0 0 0 .938.357m22.034-23.129v2.2h-13.837c0-.063 0-.127.007-.19.01-.243.018-.486.018-.729a1.482 1.482 0 0 0 -.74-1.283z"/><path d="m532.031 212.995a35.835 35.835 0 0 1 4.59 5.381 1.453 1.453 0 0 0 1.188.619 1.351 1.351 0 0 0 .781-.245 1.419 1.419 0 0 0 .374-1.967 40.708 40.708 0 0 0 -5.241-6.05l-.057-.053a1.4 1.4 0 0 0 -1.866 2.082c.046.053.119.124.231.233"/><path d="m91.052 76.109.205-.171c3.769-3.141 13.113-11.362 18.481-19.847a2.047 2.047 0 0 0 .28-1.589 2 2 0 0 0 -.914-1.274 2.169 2.169 0 0 0 -1.586-.3 2.027 2.027 0 0 0 -1.319.934c-5.859 9.259-17.17 18.482-17.72 18.92l-.057.043a2.095 2.095 0 0 0 1.294 3.735 2.219 2.219 0 0 0 1.336-.455"/><path d="m113.282 91.052a2.246 2.246 0 0 0 2.3-2.24v-11.26h6.34a2.09 2.09 0 0 0 0-4.18h-6.34v-21.859h17.979a2.092 2.092 0 0 0 2.06-2.119v-1.2a2.087 2.087 0 0 0 -2.06-2.06 2.013 2.013 0 0 0 -1.853 1.2h-16.126v-9.58a2.27 2.27 0 0 0 -4.54 0v9.58h-17.979a2.09 2.09 0 0 0 0 4.179h17.979v21.859h-6.342a2.09 2.09 0 0 0 0 4.18h6.339v11.26a2.243 2.243 0 0 0 2.24 2.24"/><path d="m136.34 78.4c.187.176.306.287.364.345a2.078 2.078 0 0 0 1.408.545h.119a2.121 2.121 0 0 0 1.46-.7 2.05 2.05 0 0 0 -.155-2.926l-.081-.077c-2.274-2.122-13.9-13.154-19.388-21.955a2.08 2.08 0 0 0 -3.823.6 1.97 1.97 0 0 0 .272 1.546c5.078 8.221 14.6 17.7 19.824 22.621"/><path d="m45.4 90.994h26.531a3.3 3.3 0 0 0 3.294-3.294v-46.616a3.3 3.3 0 0 0 -3.294-3.294h-26.531a3.3 3.3 0 0 0 -3.3 3.294v46.616a3.3 3.3 0 0 0 3.3 3.294m-.3-49.91a.294.294 0 0 1 .294-.294h26.537a.294.294 0 0 1 .294.294v46.616a.294.294 0 0 1 -.294.294h-26.531a.294.294 0 0 1 -.3-.294z"/><path d="m82.863 181.579h-50.729a28.166 28.166 0 0 1 -28.134-28.134v-128.445a21.021 21.021 0 0 1 21-21h394.278a2 2 0 0 0 0-4h-394.278a25.026 25.026 0 0 0 -25 25v128.445a32.17 32.17 0 0 0 32.134 32.134h50.729a2 2 0 0 0 0-4"/><path d="m450.44 4h19.427a28.167 28.167 0 0 1 28.133 28.134v93.86a25.026 25.026 0 0 0 25 25 2 2 0 0 0 0-4 21.02 21.02 0 0 1 -21-21v-93.86a32.17 32.17 0 0 0 -32.133-32.134h-19.427a2 2 0 0 0 0 4"/><path d="m541.866 146.991a2 2 0 0 0 0 4 28.166 28.166 0 0 1 28.134 28.133v119.876a21.021 21.021 0 0 1 -21 21h-378.4a28.166 28.166 0 0 1 -28.134-28.133v-85.291a25.025 25.025 0 0 0 -25-25 2 2 0 1 0 0 4 21.021 21.021 0 0 1 21 21v85.291a32.17 32.17 0 0 0 32.14 32.133h378.394a25.026 25.026 0 0 0 25-25v-119.876a32.17 32.17 0 0 0 -32.134-32.133"/></g></svg>