<svg xmlns="http://www.w3.org/2000/svg" width="380.893" height="115.271" viewBox="0 0 380.893 115.271"><g transform="translate(-509.648 -1875.825) rotate(17)"><path d="M-109.326-6.52c1.2,3.72,3.06,5.72,7.06,7.58a4.155,4.155,0,0,1,.78-1.06,12.06,12.06,0,0,1-4.68-2.94,17.9,17.9,0,0,0,2.8-2.34l-1.06-.72a9.222,9.222,0,0,1-2.42,2.26,9.013,9.013,0,0,1-1.38-2.78h2.28a12.015,12.015,0,0,1,1.58.08V-7.52a7.956,7.956,0,0,1-1.56.1h-8.86a8.612,8.612,0,0,1-1.66-.1v1.08a13.223,13.223,0,0,1,1.7-.08h2.92a17.2,17.2,0,0,1-6.34,1.86,2.966,2.966,0,0,1,.54.98c.36-.08.36-.08.84-.18,1-.22,1.14-.26,1.78-.44a16.664,16.664,0,0,0,2.86-1.1,4.316,4.316,0,0,1,.74.74,23.133,23.133,0,0,1-7.34,2.52,2.763,2.763,0,0,1,.54.96,25.028,25.028,0,0,0,7.32-2.76,5.777,5.777,0,0,1,.52,1.06,26.773,26.773,0,0,1-8.58,3.2,3.042,3.042,0,0,1,.62,1.02,28.784,28.784,0,0,0,8.22-3.32,4.63,4.63,0,0,1,.08.8c0,1.4-.2,1.66-1.22,1.66a13.449,13.449,0,0,1-2.02-.2,3.3,3.3,0,0,1,.4,1.18c.78.04,1.12.06,1.5.06a2.72,2.72,0,0,0,1.88-.44,2.8,2.8,0,0,0,.62-2.08,6.743,6.743,0,0,0-2.42-4.88,6.393,6.393,0,0,0,.98-.64Zm-7.48-8.92a13.393,13.393,0,0,1-2.16-.12v1.24a13.113,13.113,0,0,1,2.14-.1h12.88a17.646,17.646,0,0,1,2.18.1v-1.24a13.223,13.223,0,0,1-2.16.12h-6.04a6.954,6.954,0,0,1,.1-1.38h-1.5a5.913,5.913,0,0,1,.12,1.38Zm10.58,5.06c.76,0,1.08.02,1.72.06a9.927,9.927,0,0,1-.04-1.1v-1.02a8.882,8.882,0,0,1,.06-1.1,14.263,14.263,0,0,1-1.76.08h-8.38a14.975,14.975,0,0,1-1.74-.08,6.836,6.836,0,0,1,.06,1.06v1.08a8.771,8.771,0,0,1-.06,1.08,14.1,14.1,0,0,1,1.66-.06Zm-8.9-2.16h9.4v1.24h-9.4Zm12.08,6.32h1.28a7.017,7.017,0,0,1-.06-1.06v-1.1a7.205,7.205,0,0,1,.06-1.12,20.233,20.233,0,0,1-2.08.08h-12.92a19.093,19.093,0,0,1-2.14-.08,7.137,7.137,0,0,1,.06,1.08v1a9.468,9.468,0,0,1-.06,1.16h1.28v-2.2h14.58Zm16.22-8.6v-.52a5.485,5.485,0,0,1,.12-1.26h-1.44a7.223,7.223,0,0,1,.12,1.26v.52h-4.8v-.52a6.826,6.826,0,0,1,.1-1.26h-1.44a6.881,6.881,0,0,1,.12,1.26v.52h-2.8a15.509,15.509,0,0,1-2.24-.12v1.3a21.752,21.752,0,0,1,2.24-.1h2.8v.1a8.078,8.078,0,0,1-.08,1.24h1.38a7.672,7.672,0,0,1-.08-1.34h4.8a8.437,8.437,0,0,1-.08,1.34h1.36a7.748,7.748,0,0,1-.08-1.24v-.1h3.1a21.752,21.752,0,0,1,2.24.1v-1.3a15.509,15.509,0,0,1-2.24.12Zm-8.9,4.04v2.02h-1.74a13.641,13.641,0,0,1-2.02-.12v1.3a14.216,14.216,0,0,1,2.02-.12h1.74v2.26h-.68a12.092,12.092,0,0,1-1.94-.1V-4.3a12.558,12.558,0,0,1,1.94-.1h5.34v1.9h-5.78a13.866,13.866,0,0,1-2.06-.12V-1.3a15.035,15.035,0,0,1,2.06-.12h5.78V-.34a12.223,12.223,0,0,1-.14,2h1.46a12.389,12.389,0,0,1-.14-2V-1.42h6.22a14.745,14.745,0,0,1,2.08.12V-2.62a14.437,14.437,0,0,1-2.06.12h-6.24V-4.4h5.64a18.3,18.3,0,0,1,1.92.1V-5.54a17.432,17.432,0,0,1-1.92.1h-.72V-7.7h1.74a13.721,13.721,0,0,1,2,.12v-1.3a13.162,13.162,0,0,1-2,.12h-1.74v-2.02h.72a18.6,18.6,0,0,1,1.92.1v-1.24a12.371,12.371,0,0,1-1.92.12h-12.16a12.3,12.3,0,0,1-1.94-.12v1.24a18.7,18.7,0,0,1,1.94-.1Zm1.2,0h3.46v2.02h-3.46Zm4.64,0h3.72v2.02h-3.72Zm-4.64,3.08h3.46v2.26h-3.46Zm4.64,0h3.72v2.26h-3.72Zm11.414-2.2V-11.25a7.161,7.161,0,0,0,2.656-.62,3.056,3.056,0,0,0,1.123-2.056h1.387V0h-1.875V-9.9Zm9.648,0V-11.25a7.161,7.161,0,0,0,2.656-.62,3.056,3.056,0,0,0,1.123-2.056h1.387V0h-1.875V-9.9Zm13.769-1.058a15.2,15.2,0,0,1-.08,1.74,19.378,19.378,0,0,1,2.12-.08h6.82a18.969,18.969,0,0,1,2.1.08,14.057,14.057,0,0,1-.08-1.76v-3.38a13.145,13.145,0,0,1,.08-1.66,15.253,15.253,0,0,1-2.26.1h-6.54a16.5,16.5,0,0,1-2.24-.1,13.9,13.9,0,0,1,.08,1.68Zm1.26-3.82h8.34v4.34h-8.34ZM-57.934-.54a13.488,13.488,0,0,1-.1,2.08h1.34V.28h4.64v.88h1.3a15.4,15.4,0,0,1-.08-1.96V-5.42a17.473,17.473,0,0,1,.06-1.88c-.52.04-.98.06-1.62.06h-3.78a16.382,16.382,0,0,1-1.84-.08,18.579,18.579,0,0,1,.08,1.94Zm1.24-5.58h4.64V-.84h-4.64Zm7.84,5.7a16.446,16.446,0,0,1-.08,1.96h1.3V.28h5.12V1.54h1.36a12.86,12.86,0,0,1-.1-2.08V-5.36a17.326,17.326,0,0,1,.08-1.96,13.365,13.365,0,0,1-1.72.08h-4.4c-.68,0-1.12-.02-1.62-.06a12.49,12.49,0,0,1,.06,1.72Zm1.22-5.7h5.14V-.84h-5.14Zm10.04-.64a7.051,7.051,0,0,1,1.68-1.4,4.1,4.1,0,0,1,2.06-.52c1.22,0,2.02.34,3.6,1.52a9.963,9.963,0,0,0,2.78,1.62,6.31,6.31,0,0,0,1.9.32,5.4,5.4,0,0,0,2.64-.68,8.179,8.179,0,0,0,2.3-2.06l-1.04-.9a5.333,5.333,0,0,1-2.28,1.94,3.89,3.89,0,0,1-1.6.34c-1.14,0-2.16-.44-3.84-1.64a12.282,12.282,0,0,0-1.88-1.2,5.4,5.4,0,0,0-2.5-.58c-1.8,0-3.04.62-4.82,2.36Zm28.72,3.02c-.04-.5-.06-.86-.06-1.22,0-.08,0-.08.02-.92l.16-7.12c.02-.84.06-1.44.12-2.2h-1.98c.08.76.1,1.36.12,2.2l.18,7.12v.72c0,.66,0,.8-.04,1.42ZM-8.634,0V-1.88h-1.94V0Zm20.76-13.18a20.212,20.212,0,0,1-4.08.86v-1.92a11.438,11.438,0,0,1,.1-1.86H6.666a13.286,13.286,0,0,1,.1,1.9v1.98c-.6.04-1.38.06-1.92.06a11.328,11.328,0,0,1-2.04-.14v1.32h.82c.22.02.76.02,1.06.02.58,0,.92,0,1.28-.02.62-.04.62-.04.8-.06v3.78a10.7,10.7,0,0,0-2.82,1.64,3.62,3.62,0,0,0-1.58,2.66,2.412,2.412,0,0,0,.92,1.88A5.282,5.282,0,0,0,6.586.2c.98,0,1.46-.52,1.46-1.6v-5a13.494,13.494,0,0,1,4.24-.78c2.62,0,4.28,1.22,4.28,3.18a2.655,2.655,0,0,1-2.68,2.82c-1.46,0-2.06-.86-2.06-2.94a5.94,5.94,0,0,1,.04-.78,4.335,4.335,0,0,1-1.32.52,7.3,7.3,0,0,0,.24,2.26A2.95,2.95,0,0,0,13.866.14,4.048,4.048,0,0,0,17.946-4a4.025,4.025,0,0,0-2.06-3.54,6.771,6.771,0,0,0-3.54-.84,14.169,14.169,0,0,0-4.3.72v-3.46a35.1,35.1,0,0,0,3.54-.6c.28-.06.36-.08.6-.12ZM6.766-2.14c0,.86-.06.98-.46.98a3.735,3.735,0,0,1-1.78-.58c-.58-.38-.86-.78-.86-1.2,0-.96,1.12-2.04,3.1-3Zm12.02-8.46a16.806,16.806,0,0,0-4.04-3.8l-1.04.78a16.38,16.38,0,0,1,4.04,3.92Zm18.5,5.2a9.477,9.477,0,0,1-1.54.08h-3.54a10.819,10.819,0,0,0,.76-1.28h3.4a14.71,14.71,0,0,1,1.82.08,15.491,15.491,0,0,1-.08-1.92v-2.22a14.174,14.174,0,0,1,.08-1.88,15.332,15.332,0,0,1-1.9.08h-4.88c-.62,0-1.06-.02-1.62-.04a13.872,13.872,0,0,0,.84-1.3h6.64a13.682,13.682,0,0,1,2.06.12v-1.34a14.357,14.357,0,0,1-2.08.12h-6.06c.34-.76.54-1.2.62-1.34,0-.02.04-.08.06-.14l-1.3-.32a9.584,9.584,0,0,1-2.96,4.96,2.652,2.652,0,0,1,.92.8,10.945,10.945,0,0,0,1.02-1.22c.02.5.04.96.04,1.48v2.3a15.435,15.435,0,0,1-.08,1.86,14.559,14.559,0,0,1,1.8-.08h.46a7.04,7.04,0,0,1-1.64,2.06,9.588,9.588,0,0,1-2.58,1.68,3.665,3.665,0,0,1,.76.96,10.8,10.8,0,0,0,2.38-1.7,10.528,10.528,0,0,0,2.16,2.16A14.951,14.951,0,0,1,27.806.3a4.684,4.684,0,0,1,.6,1.14,17.29,17.29,0,0,0,5.44-2.2,17.58,17.58,0,0,0,5.28,2.18,5.038,5.038,0,0,1,.68-1.2,18.583,18.583,0,0,1-4.94-1.68A13.832,13.832,0,0,0,37.486-4c.2-.26.2-.26.38-.48.02-.04.06-.08.1-.14Zm-.98,1.08a12.172,12.172,0,0,1-2.46,2.24,10.431,10.431,0,0,1-2.42-2.24Zm-5.58-7.12h6.24v1.38h-6.24Zm0,2.36h6.24v1.5h-6.24ZM26.306-5.4V-.44c0,.52-.1.6-.66.6a8.488,8.488,0,0,1-1.5-.18,3.625,3.625,0,0,1,.26,1.26,13.245,13.245,0,0,0,1.34.08c1.32,0,1.7-.36,1.7-1.6V-14.1a15,15,0,0,1,.08-1.96,9.225,9.225,0,0,1-1.5.08h-1.66a13.565,13.565,0,0,1-1.72-.08,25.958,25.958,0,0,1,.08,2.64c0,9.46-.22,11.8-1.3,14a4.117,4.117,0,0,1,1.02.96c.82-1.72,1.16-3.46,1.32-6.94Zm0-5.88h-2.42v-3.56h2.42Zm0,1.12v3.64h-2.5c.04-.7.04-.82.04-2.08,0-.32.02-.92.02-1.56Zm16.8-4.02a10.821,10.821,0,0,1,.06,1.18c.1,4.92.38,7.48,1.08,9.38.68,1.92,1.72,3.04,2.84,3.04,1.42,0,2.34-1.34,3.32-4.84a6.393,6.393,0,0,1-1.18-1.14,14.389,14.389,0,0,1-1.04,3.42c-.3.66-.64,1-1,1-.76,0-1.58-1.38-2.02-3.42-.3-1.28-.52-6.22-.52-6.22s.04-1.76.14-2.38Zm10.12,1.7a17.663,17.663,0,0,1,4.16,9.86l1.42-.58a19.15,19.15,0,0,0-1.5-5.34,17.36,17.36,0,0,0-2.86-4.56Zm10.8,5.82a8.826,8.826,0,0,1,2.14-.66,23.247,23.247,0,0,1,5.26-.8c2.42,0,3.7.98,3.7,2.8,0,1.78-1.38,3.3-3.66,4.04a13.637,13.637,0,0,1-3.94.62,1.521,1.521,0,0,1-.28-.02A4.38,4.38,0,0,1,67.766.7a18.943,18.943,0,0,0,4.12-.76c2.78-.88,4.58-2.92,4.58-5.16a4.375,4.375,0,0,0-.62-2.28c-.76-1.24-2.18-1.86-4.24-1.86a25.821,25.821,0,0,0-6.1.88,9.39,9.39,0,0,1-1.84.36Zm20.12-8.92a8.278,8.278,0,0,1-.22,1.26,33.772,33.772,0,0,0-1.04,8.22,32,32,0,0,0,.56,5.94c.08.48.1.56.12.74l1.42-.16a2.052,2.052,0,0,1-.04-.4,17.32,17.32,0,0,1,1.72-5.66l-.98-.46a4.1,4.1,0,0,1-.16.4,18.042,18.042,0,0,0-1.18,3.5h-.08l-.02-.96c-.06-.9-.08-2.08-.08-2.8a28.592,28.592,0,0,1,1.54-9.38Zm9.32,4.22c-.82.04-1.36.06-2.14.06a13.942,13.942,0,0,1-3.6-.32l-.04,1.4h.08a.918.918,0,0,1,.2.02,3.471,3.471,0,0,1,.36.02,5.2,5.2,0,0,1,.62.04c.68.04,1.42.06,2.26.06.82,0,1.42-.02,2.28-.06.06,3.02.14,4.82.2,5.22a6,6,0,0,0-2.22-.38c-2.24,0-3.8,1.18-3.8,2.88,0,1.72,1.46,2.8,3.78,2.8,1.66,0,2.88-.62,3.36-1.68a3.552,3.552,0,0,0,.24-1.38,2.68,2.68,0,0,0-.04-.5,1.184,1.184,0,0,1,.12.08l.12.08a1.184,1.184,0,0,0,.12.08,10.408,10.408,0,0,1,2.84,2.08l.64-1.42a2.65,2.65,0,0,1-.5-.32,15.446,15.446,0,0,0-3.36-1.98c-.14-2.4-.2-3.92-.2-5.66.94-.12,1.66-.22,2.1-.32.74-.14,1.16-.24,1.28-.26.02,0,.08-.02.12-.02l-.06-1.34a15.122,15.122,0,0,1-3.46.72v-.98a24.944,24.944,0,0,1,.12-3.14h-1.5a4.013,4.013,0,0,1,.06.82v2.28Zm.24,7.66a3.693,3.693,0,0,1,.04.58,2.223,2.223,0,0,1-.38,1.58,2.794,2.794,0,0,1-2.04.72c-1.4,0-2.34-.64-2.34-1.6,0-1.04,1-1.68,2.58-1.68A5.476,5.476,0,0,1,93.706-3.7Zm4.32-13.76a2.275,2.275,0,0,0-2.28,2.26,2.279,2.279,0,0,0,2.28,2.28,2.275,2.275,0,0,0,2.26-2.28A2.245,2.245,0,0,0,98.026-17.46Zm0,.84a1.425,1.425,0,0,1,1.42,1.42,1.43,1.43,0,0,1-1.42,1.44,1.434,1.434,0,0,1-1.44-1.44A1.43,1.43,0,0,1,98.026-16.62Zm5.08,2.44a10.819,10.819,0,0,1,.06,1.18c.1,4.92.38,7.48,1.08,9.38.68,1.92,1.72,3.04,2.84,3.04,1.42,0,2.34-1.34,3.32-4.84a6.393,6.393,0,0,1-1.18-1.14,14.389,14.389,0,0,1-1.04,3.42c-.3.66-.64,1-1,1-.76,0-1.58-1.38-2.02-3.42a34.25,34.25,0,0,1-.52-6.22,14.5,14.5,0,0,1,.14-2.38Zm10.12,1.7a17.663,17.663,0,0,1,4.16,9.86l1.42-.58a19.15,19.15,0,0,0-1.5-5.34,17.36,17.36,0,0,0-2.86-4.56ZM-123.38,23.28a14.85,14.85,0,0,1,2.9,2.22,27.11,27.11,0,0,1-7.88,4.5,3.633,3.633,0,0,1,.8,1.18,32.512,32.512,0,0,0,4.46-2.34v4.84a13.086,13.086,0,0,1-.12,1.78h1.4V34.34h8.36v1.12h1.4a11.5,11.5,0,0,1-.12-1.78V28.84a9.5,9.5,0,0,1,.1-1.6,9.507,9.507,0,0,1-1.44.08h-7.34a29.113,29.113,0,0,0,6.44-6.38,9.907,9.907,0,0,1,.68-.86l-.72-.86a15.757,15.757,0,0,1-1.86.1h-4.4c.38-.5.38-.5,1.3-1.8l-1.36-.52A11.862,11.862,0,0,1-123,20.18a18.706,18.706,0,0,1-4.94,3.84,3.374,3.374,0,0,1,.84.96,21.9,21.9,0,0,0,5.48-4.54h5.98a24.1,24.1,0,0,1-3.86,4.26,18.1,18.1,0,0,0-2.94-2.14Zm1.56,5.2h8.36v4.74h-8.36Zm21.42-7.3h-5.7a14.859,14.859,0,0,1-2.1-.12V22.5a15.309,15.309,0,0,1,2.1-.1h5.7v4.18h-4.06a9.92,9.92,0,0,1-1.48-.08,13.026,13.026,0,0,1,.1,1.62V33.5a13.761,13.761,0,0,1-.12,1.84h1.46V34.1h9.98v1.24h1.46a12.526,12.526,0,0,1-.12-1.84V28.12a9.756,9.756,0,0,1,.1-1.62,9.92,9.92,0,0,1-1.48.08h-4.48V22.4h6.18c.76,0,1.4.04,2.08.1V21.06a14.55,14.55,0,0,1-2.08.12h-6.18V19.02a8.227,8.227,0,0,1,.14-1.74h-1.62a7.765,7.765,0,0,1,.12,1.74Zm-4.1,6.6h9.98v5.14h-9.98Zm23.52-2.84a16.245,16.245,0,0,1-1.4,2.42c-1.66.04-1.66.04-1.74.04a3.092,3.092,0,0,1-.7-.06l.22,1.28a3.805,3.805,0,0,1,.74-.08c4.38-.24,7.16-.44,9.92-.7.44.48.6.64,1.18,1.3l1.04-.64a28.434,28.434,0,0,0-3.84-3.42l-1.02.54c.86.64,1.18.88,1.7,1.32-2.82.26-3.36.28-6.18.38a22.111,22.111,0,0,0,1.4-2.38h6.32a16.616,16.616,0,0,1,2.28.1V23.76a15.677,15.677,0,0,1-2.34.1H-85.34l.04-1.54h11.6c.62,0,1.2.02,1.98.06a7.8,7.8,0,0,1-.06-1.26V19.34a10.469,10.469,0,0,1,.06-1.36,14,14,0,0,1-2.06.1H-84.2a18.621,18.621,0,0,1-2.42-.1,23.911,23.911,0,0,1,.1,2.48,44.948,44.948,0,0,1-.84,10.24,11.57,11.57,0,0,1-1.46,3.4,5.137,5.137,0,0,1,1.08,1,14.548,14.548,0,0,0,1.7-4.5,37.112,37.112,0,0,0,.66-5.66Zm-4.3-3.7V19.18H-73v2.06Zm7.34,9.16a8.98,8.98,0,0,1,.1-1.68h-1.44a8.85,8.85,0,0,1,.1,1.68H-82.4a12.371,12.371,0,0,1-2.12-.1v1.28a14.445,14.445,0,0,1,2.1-.1h3.24v2.24h-4.54a14.685,14.685,0,0,1-2.34-.1v1.32a18.278,18.278,0,0,1,2.42-.12h10.46a19.258,19.258,0,0,1,2.56.12V33.62a15.56,15.56,0,0,1-2.48.1h-4.84V31.48H-74a14.785,14.785,0,0,1,2.1.1V30.3a12.238,12.238,0,0,1-2.1.1Zm23.42,2.16v1.2h1.6a13.4,13.4,0,0,1-.1-1.82V21.7c0-.72,0-1.06.04-1.56-.5.02-.78.04-1.04.04h-9.6a10.94,10.94,0,0,1-2.3-.14v1.6a16.767,16.767,0,0,1,2.3-.1h9.1V31.2h-9.52a9.779,9.779,0,0,1-2.18-.14v1.58a16.091,16.091,0,0,1,2.14-.08Zm6.76-5.42a21.848,21.848,0,0,1,2.48-.08h11.6a22.879,22.879,0,0,1,2.44.08V25.52a15.774,15.774,0,0,1-2.42.1H-45.28a14.148,14.148,0,0,1-2.48-.12Zm33.54-8.94a8.355,8.355,0,0,1-2.28.96,32.135,32.135,0,0,1-8.4,1.26c-.3,0-.6,0-1.16-.04a5.216,5.216,0,0,1,.48,1.34,37.933,37.933,0,0,0,5.92-.56c0,1.76-.02,2.88-.06,3.76h-5.74a9.491,9.491,0,0,1-2.1-.14V26.3a15.488,15.488,0,0,1,2.1-.1h5.62a7.522,7.522,0,0,1-1.22,3.92,9.349,9.349,0,0,1-4.68,3.44,3.788,3.788,0,0,1,1.08,1.24,10.784,10.784,0,0,0,4.98-4.18,9.524,9.524,0,0,0,1.3-4.42h4.9a15.488,15.488,0,0,1,2.1.1V24.78a9.491,9.491,0,0,1-2.1.14h-4.8c.02-.78.04-2.08.06-4a30.991,30.991,0,0,0,4.4-1.24,4.133,4.133,0,0,1,.62-.2Zm6.84,2.74a22.084,22.084,0,0,1,4.76,3.92l1.04-1.24A26.054,26.054,0,0,0-6.4,19.86Zm.14,13a10.509,10.509,0,0,1,1.2-.32,20.164,20.164,0,0,0,7.46-2.98A17.541,17.541,0,0,0,7.52,23,4.006,4.006,0,0,1,6.3,21.82a15.112,15.112,0,0,1-8.16,8.9,17.408,17.408,0,0,1-5.82,1.54Zm25.36-4.76a10.211,10.211,0,0,0,2.42,2.92,16.259,16.259,0,0,0,7.1,3.42,5.278,5.278,0,0,1,.72-1.3,15.747,15.747,0,0,1-5.44-1.9,32.225,32.225,0,0,0,3.92-3.1l-1.14-.76a17.737,17.737,0,0,1-3.82,3.22,8.348,8.348,0,0,1-2.46-2.5h3.66c.84,0,1.38.02,1.86.06-.04-.46-.06-.82-.06-1.62V24.18c0-.64,0-1.02.04-1.46a26.717,26.717,0,0,0,3.04,1.5,4.341,4.341,0,0,1,.76-1.28,22.51,22.51,0,0,1-5.12-2.42A15.69,15.69,0,0,1,20,17.4H18.64a18.253,18.253,0,0,1-8.42,5.54,3.608,3.608,0,0,1,.74,1.22,24.613,24.613,0,0,0,2.86-1.36c.04.4.06,1,.06,1.66v9.36a15.743,15.743,0,0,1-2.74.32l.34,1.4c.34-.08.52-.12.74-.16a74.6,74.6,0,0,0,7.72-1.8l.02-1.16a44.337,44.337,0,0,1-4.82,1.18V29.18Zm1.76-6.66v-.68a7.751,7.751,0,0,1,.1-1.52H18.56a7.1,7.1,0,0,1,.12,1.52v.68H15.72c-.6,0-.86,0-1.38-.02a18.614,18.614,0,0,0,5-4.12,19.132,19.132,0,0,0,5.18,4.1c-.54.04-.82.04-1.52.04Zm-4.74,1.06h8.5v1.66h-8.5Zm0,2.72h8.5v1.82h-8.5Zm16.5,2.72c.18-.22.22-.26.58-.66a52.653,52.653,0,0,0,3.5-4.26c.96-1.28,1.14-1.44,1.58-1.44.34,0,.66.24,1.2.86a61.3,61.3,0,0,0,8.74,8.62,3.584,3.584,0,0,1,.48.42l.68-1.72c-1.06-.3-5.5-4.32-7.94-7.2-.92-1.06-1.26-1.44-1.46-1.62a2.468,2.468,0,0,0-1.72-.9,2.463,2.463,0,0,0-1.6.76,8.574,8.574,0,0,0-1,1.2,24.58,24.58,0,0,1-4.02,4.46ZM42.62,20.5a14.812,14.812,0,0,1,2.06,3.18l1-.6a15.183,15.183,0,0,0-2.06-3.1Zm2.28-1.08a14.594,14.594,0,0,1,2.04,3.16l1-.58a16.847,16.847,0,0,0-2.06-3.12Zm9.42,1.18a9.853,9.853,0,0,1,1.08-.1c3.04-.1,5.44-.24,6.08-.36a.774.774,0,0,1,.18-.02l.04.04-.08.08-.08.08-.28.28c-1.38,1.36-4.54,4.14-6.68,5.84a22.281,22.281,0,0,1-2.8,2.04l.9,1.28a12.835,12.835,0,0,1,8.42-3.42c2.7,0,4.3,1.14,4.3,3.06,0,1.7-1.1,2.92-3.2,3.5a5.725,5.725,0,0,0-.92-1.92,4.028,4.028,0,0,0-3.3-1.64c-1.66,0-2.9,1-2.9,2.34,0,1.84,1.62,2.88,4.44,2.88,4.44,0,7.34-2.06,7.34-5.18,0-2.56-2.14-4.2-5.48-4.2a10.134,10.134,0,0,0-4.9,1.24l-.04-.06a51.319,51.319,0,0,0,6.58-5.68,3.691,3.691,0,0,1,1.02-.84l-.84-1.1a2.045,2.045,0,0,1-.96.22c-1.8.14-4.46.26-6.12.26a9.236,9.236,0,0,1-1.88-.12Zm6.56,12.66a7.2,7.2,0,0,1-1.46.14,5.11,5.11,0,0,1-2.24-.46,1.365,1.365,0,0,1-.8-1.22c0-.76.62-1.24,1.62-1.24C59.44,30.48,60.44,31.44,60.88,33.26ZM76.1,17.78a20.577,20.577,0,0,1-.68,3.76c-.38,0-1.04.02-1.44.02a12.638,12.638,0,0,1-2.38-.16l-.02,1.38h.26c.06,0,.22,0,.44.02.3,0,.98.02,1.32.02.3,0,.98-.02,1.48-.04A29.947,29.947,0,0,1,73,27.94a17.657,17.657,0,0,1-1.92,3.12l1.36.8c.1-.16.22-.4.4-.68.76-1.32.94-1.66,1.42-2.62a37.262,37.262,0,0,0,2.22-5.84,24.145,24.145,0,0,0,3.28-.42c.48-.08.48-.08.7-.12L80.4,20.8a16.643,16.643,0,0,1-3.58.66c.28-1.02.4-1.5.54-2.18A6.264,6.264,0,0,1,77.68,18ZM87.88,23.3a27.566,27.566,0,0,0-5.28-2.64l-.74,1.12a21.691,21.691,0,0,1,5.3,2.72Zm.04,8.86a2.024,2.024,0,0,1-.36-.32,14.367,14.367,0,0,0-3.92-2.42,23.858,23.858,0,0,1-.22-3.04,6.138,6.138,0,0,1,.26-1.86l-1.36-.14a8.1,8.1,0,0,0-.2,1.94c0,.5.04,1.44.14,2.74a6.6,6.6,0,0,0-2.02-.3,5.845,5.845,0,0,0-2.36.44,2.836,2.836,0,0,0-1.86,2.54c0,1.78,1.5,2.9,3.9,2.9,2.44,0,3.8-1.14,3.8-3.2a4.146,4.146,0,0,0-.04-.64,11.44,11.44,0,0,1,3.5,2.72Zm-5.56-1.82s.04.62.04.86c0,1.5-.78,2.18-2.5,2.18-1.58,0-2.54-.62-2.54-1.64,0-1.1,1.08-1.8,2.78-1.8A5.935,5.935,0,0,1,82.36,30.34ZM95.86,19.5a22.275,22.275,0,0,0,3.06,1.26,30.848,30.848,0,0,0,3.9,1.14l.56-1.4a24.112,24.112,0,0,1-6.78-2.22ZM94.2,21.66a6.726,6.726,0,0,1-.14,1.06c-.28,1.68-.64,4-.84,5.52-.08.64-.1.82-.16,1.18l1.56.04a3.477,3.477,0,0,1,.8-.82,9.69,9.69,0,0,1,5.6-1.74c2.44,0,3.88.96,3.88,2.6,0,2.04-2.1,3.36-5.4,3.36a14.2,14.2,0,0,1-5.1-1,4.626,4.626,0,0,1,.14,1.24,3.152,3.152,0,0,1-.02.38c1.22.3,1.22.3,1.6.4a16.617,16.617,0,0,0,3.5.36,8.3,8.3,0,0,0,4.98-1.32,4.276,4.276,0,0,0,1.8-3.44c0-2.34-2.1-3.86-5.36-3.86a9.9,9.9,0,0,0-5.78,1.72,5.6,5.6,0,0,0-.62.6l-.04-.02a2.409,2.409,0,0,0,.08-.46c.06-.46.1-.6.58-3.5a16.739,16.739,0,0,1,.46-2.2Zm26.04,8.6c-.04-.5-.06-.86-.06-1.22,0-.08,0-.08.02-.92l.16-7.12c.02-.84.06-1.44.12-2.2H118.5c.08.76.1,1.36.12,2.2l.18,7.12v.72c0,.66,0,.8-.04,1.42Zm.24,3.74V32.12h-1.94V34Z" transform="translate(1237.821 1630.412) rotate(-11)" fill="#fff"/><path d="M98.026-17.71a2.483,2.483,0,0,1,2.51,2.51,2.523,2.523,0,0,1-2.51,2.53A2.533,2.533,0,0,1,95.5-15.2,2.523,2.523,0,0,1,98.026-17.71Zm0,4.54a2.022,2.022,0,0,0,2.01-2.03,1.989,1.989,0,0,0-2.01-2.01A2.022,2.022,0,0,0,96-15.2,2.032,2.032,0,0,0,98.026-13.17Zm-209.7-3.9h2.1l-.051.293a6.047,6.047,0,0,0-.095,1.087h5.789a12.743,12.743,0,0,0,2.12-.117l.289-.046v1.818l-.282-.037a17.6,17.6,0,0,0-2.148-.1h-12.88a12.871,12.871,0,0,0-2.1.1l-.291.049v-1.828l.289.046a13.3,13.3,0,0,0,2.12.117h5.308a5.1,5.1,0,0,0-.113-1.079Zm1.515.5h-.907a6.715,6.715,0,0,1,.07,1.13v.25h-5.81a16.01,16.01,0,0,1-1.91-.083v.665a17.455,17.455,0,0,1,1.89-.063h12.88c.8,0,1.436.023,1.93.07v-.673a15.775,15.775,0,0,1-1.91.082h-6.29v-.25A7.9,7.9,0,0,1-110.158-16.57Zm140.527-.436,1.82.448L32.1-16.3a.847.847,0,0,1-.047.11v.017l-.033.058c-.066.115-.242.5-.451.966h5.674a14.165,14.165,0,0,0,2.041-.117l.29-.046v1.933l-.295-.054a13.327,13.327,0,0,0-2.015-.116h-6.5c-.173.294-.31.517-.515.817.367.013.713.023,1.151.023h4.88a15.156,15.156,0,0,0,1.872-.078l.317-.035-.041.316a13.93,13.93,0,0,0-.078,1.848v2.22a15.162,15.162,0,0,0,.078,1.888l.041.317-.318-.037a14.5,14.5,0,0,0-1.791-.078h-3.25c-.2.376-.311.568-.446.78h3.076a9.226,9.226,0,0,0,1.5-.077l.137-.022.9,1.028-.106.159c-.023.034-.044.062-.062.084s-.021.027-.025.033l-.012.025-.016.018c-.178.217-.178.217-.375.474a13.655,13.655,0,0,1-2.351,2.341A18.746,18.746,0,0,0,39.856-.025l.387.079L40.006.37a4.786,4.786,0,0,0-.649,1.146l-.084.2-.21-.055A17.849,17.849,0,0,1,33.849-.467a17.55,17.55,0,0,1-5.38,2.149l-.218.057-.079-.211a4.405,4.405,0,0,0-.546-1.05c-.181.8-.73,1.092-1.88,1.092a13.382,13.382,0,0,1-1.363-.081l-.21-.02-.016-.211A3.389,3.389,0,0,0,23.913.071L23.75-.346l.441.08a8.122,8.122,0,0,0,1.455.176c.285,0,.356-.026.373-.041s.037-.041.037-.309V-5.15H24c-.165,3.332-.508,5.067-1.333,6.8L22.5,2l-.25-.3A3.834,3.834,0,0,0,21.29.79L21.1.669l.1-.2c1.06-2.159,1.274-4.5,1.274-13.89a26.023,26.023,0,0,0-.079-2.615l-.031-.307.307.034a13.394,13.394,0,0,0,1.692.078h1.66a8.955,8.955,0,0,0,1.459-.077l.333-.055-.044.334A14.761,14.761,0,0,0,27.7-14.1v1.939a9.26,9.26,0,0,0,2.624-4.585Zm1.14.8-.752-.185a9.968,9.968,0,0,1-2.741,4.62,2.834,2.834,0,0,1,.528.452,10.923,10.923,0,0,0,.769-.943h0l.27-.379a13.566,13.566,0,0,0,.827-1.281l.072-.124h6.784a16.983,16.983,0,0,1,1.81.082v-.765a16.72,16.72,0,0,1-1.83.084H30.8L30.958-15C31.226-15.6,31.4-15.993,31.509-16.21Zm-5.483.48h-1.66c-.64,0-1.019-.012-1.445-.051.041.54.055,1.185.055,2.361,0,9.216-.21,11.721-1.232,13.915a3.839,3.839,0,0,1,.638.585,17.461,17.461,0,0,0,1.135-6.491l.011-.239h3.029V-.44c0,.727-.281.85-.91.85A6.993,6.993,0,0,1,24.519.3a3.784,3.784,0,0,1,.119.712c.507.045.786.06,1.108.06,1.179,0,1.45-.252,1.45-1.35V-2.845l-.087-.081.087-.042v-8.723l-.015-.009.015-.013V-14.1c0-.794.013-1.275.047-1.671C26.942-15.742,26.573-15.73,26.026-15.73ZM37.9-6.8c-.034-.4-.049-.905-.049-1.64v-2.22c0-.752.013-1.211.048-1.6-.439.038-.865.051-1.618.051h-4.88c-.536,0-.935-.015-1.4-.032l-.217-.008.007.179c.019.463.036.9.036,1.39v2.3c0,.691-.014,1.167-.05,1.58.406-.036.855-.05,1.52-.05h.882l-.2.37a7.273,7.273,0,0,1-1.693,2.126A9.342,9.342,0,0,1,27.97-2.79a3.632,3.632,0,0,1,.425.552,10.262,10.262,0,0,0,2.124-1.547l.2-.182.165.215A10.281,10.281,0,0,0,33-1.639l.3.227-.327.189a14.648,14.648,0,0,1-4.752,1.7,4.783,4.783,0,0,1,.338.669A16.61,16.61,0,0,0,33.712-.971l.13-.082.132.079a17.021,17.021,0,0,0,5.007,2.1,5.077,5.077,0,0,1,.4-.737,18.615,18.615,0,0,1-4.631-1.624L34.4-1.419l.316-.24a13.531,13.531,0,0,0,2.573-2.494c.192-.249.2-.262.358-.453l-.459-.527a10.919,10.919,0,0,1-1.441.063H31.739L32-5.459a10.6,10.6,0,0,0,.747-1.258l.07-.133h3.551C37.05-6.85,37.486-6.837,37.9-6.8Zm-8.685.566.038-.316a15.086,15.086,0,0,0,.078-1.83v-2.3c0-.271-.006-.527-.014-.781-.184.229-.345.41-.616.694l-.216.225-.173-.26a2.117,2.117,0,0,0-.622-.588v8.177a8.974,8.974,0,0,0,2.263-1.514A6.735,6.735,0,0,0,31.333-6.35h-.028a14.256,14.256,0,0,0-1.77.078Zm3.175,4.76a10.468,10.468,0,0,1-1.741-1.761,10.828,10.828,0,0,1-2.225,1.553l-.217.122-.123-.216a3.52,3.52,0,0,0-.393-.571V-.28q0,.185-.012.349l.074-.014A15.137,15.137,0,0,0,32.395-1.474Zm65.631-15.4A1.672,1.672,0,0,1,99.7-15.2a1.682,1.682,0,0,1-1.67,1.69,1.692,1.692,0,0,1-1.69-1.69A1.682,1.682,0,0,1,98.026-16.87Zm0,2.86A1.181,1.181,0,0,0,99.2-15.2a1.171,1.171,0,0,0-1.17-1.17,1.181,1.181,0,0,0-1.19,1.17A1.177,1.177,0,0,0,98.026-14.01ZM-94.463-16.85h2.032l-.049.291a6.625,6.625,0,0,0-.1,1.219v.27h4.3v-.27a6.9,6.9,0,0,0-.117-1.219l-.049-.291H-86.4l-.063.3a5.255,5.255,0,0,0-.115,1.209v.27h2.85a15.331,15.331,0,0,0,2.2-.117l.287-.042v1.866l-.275-.028a21.625,21.625,0,0,0-2.215-.1h-2.849a7.168,7.168,0,0,0,.077,1.055l.041.285h-1.937l.041-.285a7.345,7.345,0,0,0,.076-1.055h-4.3a6.551,6.551,0,0,0,.076,1.055l.041.285h-1.955l.039-.284A7.582,7.582,0,0,0-94.3-13.49h-2.549a21.625,21.625,0,0,0-2.215.1l-.275.028V-15.23l.287.042a15.331,15.331,0,0,0,2.2.117h2.55v-.27a6.628,6.628,0,0,0-.116-1.217Zm1.447.5h-.856a6.586,6.586,0,0,1,.076,1.01v.77h-3.05a18,18,0,0,1-1.99-.085v.741c.611-.052,1.237-.076,1.99-.076h3.05v.35a8.478,8.478,0,0,1-.047.99h.812a8.832,8.832,0,0,1-.045-1.09v-.25h5.3v.25a9.652,9.652,0,0,1-.046,1.09h.792a8.432,8.432,0,0,1-.046-.99v-.35h3.35c.753,0,1.379.024,1.99.076v-.741a18,18,0,0,1-1.99.085h-3.35v-.77a5.962,5.962,0,0,1,.069-1.01h-.847a6.828,6.828,0,0,1,.078,1.01v.77h-5.3v-.77A7.116,7.116,0,0,1-93.016-16.35Zm99.4,0H8.434l-.041.285a11.259,11.259,0,0,0-.1,1.825V-12.6a19.24,19.24,0,0,0,3.748-.811l.316-.109.085,1.9-.219.036c-.19.032-.272.049-.452.088l-.137.029c-1.5.311-2.439.474-3.342.579v2.9a14.028,14.028,0,0,1,4.05-.636,7,7,0,0,1,3.67.876A4.287,4.287,0,0,1,18.2-4a4.407,4.407,0,0,1-1.25,3.123A4.286,4.286,0,0,1,13.866.39a3.19,3.19,0,0,1-3.322-2.446A7.552,7.552,0,0,1,10.3-4.385l0-.19.184-.047a4.083,4.083,0,0,0,1.26-.5l.424-.238-.054.483a5.706,5.706,0,0,0-.038.752c0,2.233.724,2.69,1.81,2.69a2.37,2.37,0,0,0,1.744-.717A2.662,2.662,0,0,0,16.316-4c0-1.807-1.544-2.93-4.03-2.93a12.932,12.932,0,0,0-3.99.713V-1.4C8.3.129,7.366.45,6.586.45A5.538,5.538,0,0,1,3.12-.893a2.674,2.674,0,0,1-1-2.067A3.869,3.869,0,0,1,3.784-5.81,10.632,10.632,0,0,1,6.516-7.424v-3.342l-.534.035c-.369.021-.718.021-1.3.021-.313,0-.834,0-1.071-.02H2.556V-12.6l.292.05a11.039,11.039,0,0,0,2,.136c.442,0,1.1-.014,1.67-.045V-14.2a13.183,13.183,0,0,0-.1-1.867Zm1.481.5H6.948a14.843,14.843,0,0,1,.068,1.65v2.214l-.233.016c-.627.042-1.425.061-1.937.061a12.736,12.736,0,0,1-1.79-.1v.778h.593c.209.019.748.019,1.037.019.569,0,.913,0,1.266-.02.612-.039.612-.039.786-.059l.278-.031V-7.1l-.152.065a10.441,10.441,0,0,0-2.758,1.6A3.417,3.417,0,0,0,2.616-2.96,2.169,2.169,0,0,0,3.45-1.269,5.011,5.011,0,0,0,6.586-.05C7.423-.05,7.8-.466,7.8-1.4V-6.582l.174-.056a13.678,13.678,0,0,1,4.316-.792,5.472,5.472,0,0,1,3.271.9A3.029,3.029,0,0,1,16.816-4a2.9,2.9,0,0,1-2.93,3.07,2.006,2.006,0,0,1-1.782-.8,4.149,4.149,0,0,1-.528-2.393c0-.119,0-.225,0-.347a4.219,4.219,0,0,1-.787.28,6.761,6.761,0,0,0,.234,2A2.689,2.689,0,0,0,13.866-.11,3.79,3.79,0,0,0,16.59-1.228,3.91,3.91,0,0,0,17.7-4a3.752,3.752,0,0,0-1.937-3.325,6.512,6.512,0,0,0-3.413-.805,13.872,13.872,0,0,0-4.228.71l-.322.1v-4.02l.224-.024a34.812,34.812,0,0,0,3.516-.6l.134-.029c.1-.022.176-.038.257-.054l-.035-.791a21.734,21.734,0,0,1-3.813.767l-.282.036v-2.2A13.126,13.126,0,0,1,7.861-15.85Zm-51.67-.465-.037.324a12.916,12.916,0,0,0-.078,1.631v3.38a13.819,13.819,0,0,0,.078,1.729l.039.313-.314-.034a18.675,18.675,0,0,0-2.073-.079h-6.82a18.967,18.967,0,0,0-2.092.078l-.311.035.035-.311A14.861,14.861,0,0,0-55.3-10.96v-3.38a13.629,13.629,0,0,0-.078-1.651l-.037-.318.317.041a16.039,16.039,0,0,0,2.208.1h6.54a14.886,14.886,0,0,0,2.223-.1Zm-2.546.645h-6.54a19.546,19.546,0,0,1-1.96-.066c.035.4.05.824.05,1.4v3.38c0,.591-.015,1.038-.052,1.462.462-.037,1.014-.052,1.841-.052h6.82c.826,0,1.349.014,1.819.052-.035-.392-.049-.848-.049-1.482v-3.38c0-.583.013-.972.049-1.373A19.589,19.589,0,0,1-46.354-15.67Zm130.271-.2,2.146.33-.128.3a28.3,28.3,0,0,0-1.52,9.281c0,.614.015,1.532.054,2.33A20.644,20.644,0,0,1,85.295-5.8c.032-.079.058-.138.079-.185a1.3,1.3,0,0,0,.072-.187l.081-.282L87-5.759l-.109.227A17.086,17.086,0,0,0,85.2.02a1.849,1.849,0,0,0,.037.362l.04.257L83.345.856,83.317.608C83.305.5,83.293.43,83.264.263c-.016-.092-.037-.211-.065-.379A32.038,32.038,0,0,1,82.636-6.1a34.157,34.157,0,0,1,1.046-8.275A7.985,7.985,0,0,0,83.9-15.6Zm1.438.727-.987-.152c-.027.2-.077.461-.2,1.025A33.723,33.723,0,0,0,83.136-6.1a31.528,31.528,0,0,0,.555,5.892V-.2c.028.168.049.287.065.379L83.779.3,84.7.2A1.59,1.59,0,0,1,84.7.02a16.947,16.947,0,0,1,1.637-5.54l-.511-.24c-.019.042-.039.09-.064.153l0,.006a17.834,17.834,0,0,0-1.166,3.459l-.046.192h-.522L84-3.149c-.059-.892-.08-2.071-.08-2.811A29.956,29.956,0,0,1,85.355-15.141Zm7.71-.689h2.11l-.042.287a24.943,24.943,0,0,0-.117,3.1v.7a14.368,14.368,0,0,0,3.117-.673l.327-.131.087,1.953h-.255l-.03.006a.553.553,0,0,1-.065.012c-.041.007-.119.024-.224.046-.21.045-.561.12-1.037.21-.41.093-1.036.183-1.9.3,0,1.525.056,2.952.191,5.276A15.436,15.436,0,0,1,98.5-2.8l.09.066a1.956,1.956,0,0,0,.372.231l.215.107L98.275-.4l-.256-.29a10.093,10.093,0,0,0-2.723-2v.013A3.78,3.78,0,0,1,95.034-1.2C94.508-.036,93.2.63,91.446.63a4.867,4.867,0,0,1-2.909-.8A2.694,2.694,0,0,1,87.416-2.42c0-1.843,1.665-3.13,4.05-3.13a7.312,7.312,0,0,1,1.933.255c-.056-.792-.114-2.447-.158-4.584-.715.032-1.286.049-2.035.049-.839,0-1.583-.02-2.275-.06h-.015a5.119,5.119,0,0,0-.591-.038H88.3a3.235,3.235,0,0,0-.335-.019h-.025l-.024,0a.676.676,0,0,0-.151-.015h-.337l.056-1.966.3.074a13.7,13.7,0,0,0,3.541.313c.691,0,1.189-.016,1.886-.048l-.016-.877V-14.76a3.9,3.9,0,0,0-.053-.759Zm1.538.5h-.929c.017.188.021.4.021.57v2.28l.024,1.358-.242.012c-.838.041-1.373.06-2.152.06a15.121,15.121,0,0,1-3.359-.258l-.024.85.047.008c.057,0,.174,0,.348.02a5.636,5.636,0,0,1,.629.041c.679.04,1.412.059,2.238.059s1.436-.021,2.268-.06l.256-.012.005.257c.065,3.3.147,4.854.2,5.188L94-4.481l-.43-.215a5.821,5.821,0,0,0-2.108-.354c-2.09,0-3.55,1.081-3.55,2.63,0,1.573,1.353,2.55,3.53,2.55C93,.13,94.137-.429,94.578-1.4A3.331,3.331,0,0,0,94.8-2.68a2.465,2.465,0,0,0-.038-.467l-.073-.548.46.307.053.034a.69.69,0,0,1,.081.056l.126.084.009.009.023.014.058.036A11.672,11.672,0,0,1,98.131-1.3l.391-.868c-.082-.05-.145-.1-.233-.161L98.2-2.4a15.235,15.235,0,0,0-3.317-1.955l-.137-.063-.009-.15c-.148-2.536-.2-4.021-.2-5.675v-.22l.218-.028c.94-.12,1.653-.22,2.076-.316l.009,0c.472-.089.808-.161,1.029-.208l.157-.033-.035-.783a17.29,17.29,0,0,1-3.2.62l-.276.028V-12.44C94.516-13.82,94.543-14.735,94.6-15.33Zm-105.5-.12h2.528l-.021.27c-.062.791-.1,1.374-.119,2.186l-.16,7.12c-.02.837-.02.837-.02.914,0,.331.017.668.059,1.2l.022.27h-2.017l.017-.266c.039-.612.039-.748.039-1.4v-.717l-.18-7.116c-.02-.822-.038-1.417-.119-2.18Zm1.988.5h-1.434c.06.659.077,1.233.094,1.944l.18,7.126v.72c0,.563,0,.751-.024,1.17h.944c-.029-.4-.04-.685-.04-.97,0-.083,0-.083.02-.926l.16-7.12C-8.987-13.735-8.955-14.28-8.9-14.95Zm32.54-.14h2.92v4.06h-2.92Zm2.42.5h-1.92v3.06h1.92Zm-80.1-.44h8.84v4.84h-8.84Zm8.34.5h-7.84v3.84h7.84Zm60.446-.179.149.105a17.077,17.077,0,0,1,4.093,3.851l.146.187L17.7-9.332l-.16-.223a16.209,16.209,0,0,0-3.977-3.859l-.29-.2Zm3.7,4.076a16.388,16.388,0,0,0-3.692-3.458l-.617.463a16.8,16.8,0,0,1,3.655,3.561Zm24.384-3.8,2.253.027-.046.286c-.093.575-.134,2.206-.137,2.338.011.232.228,4.947.513,6.166.452,2.1,1.253,3.227,1.777,3.227.248,0,.522-.3.772-.853A14.131,14.131,0,0,0,48.98-6.607l.1-.514.338.4a6.156,6.156,0,0,0,1.144,1.1l.131.1-.045.161a13.315,13.315,0,0,1-1.53,3.807A2.4,2.4,0,0,1,47.086-.33c-1.233,0-2.354-1.169-3.076-3.207-.7-1.888-.993-4.452-1.094-9.458l0-.105a9.582,9.582,0,0,0-.056-1.052Zm1.677.52-1.121-.013c.014.183.019.364.031.813l0,.107c.1,4.946.389,7.466,1.065,9.3C45.119-1.9,46.092-.83,47.086-.83c1.257,0,2.113-1.264,3.034-4.5a6.02,6.02,0,0,1-.75-.686,13.879,13.879,0,0,1-.957,2.978c-.345.76-.758,1.146-1.227,1.146-.9,0-1.79-1.42-2.264-3.617-.3-1.284-.516-6.059-.525-6.262v-.017C44.4-11.849,44.428-13.162,44.5-13.913Zm58.323-.52,2.253.027-.046.286a14.326,14.326,0,0,0-.137,2.34,34.065,34.065,0,0,0,.513,6.163c.452,2.1,1.253,3.227,1.777,3.227.248,0,.522-.3.772-.853a14.131,14.131,0,0,0,1.022-3.363l.1-.514.338.4a6.157,6.157,0,0,0,1.144,1.1l.131.1-.045.161a13.316,13.316,0,0,1-1.53,3.807A2.4,2.4,0,0,1,107.086-.33c-1.233,0-2.354-1.169-3.076-3.207-.7-1.888-.993-4.453-1.094-9.458l0-.1a9.566,9.566,0,0,0-.056-1.053Zm1.671.52-1.115-.013c.014.183.019.364.031.814l0,.106c.1,4.946.389,7.466,1.065,9.3.638,1.8,1.612,2.876,2.605,2.876,1.257,0,2.113-1.264,3.034-4.5a6.023,6.023,0,0,1-.75-.686,13.879,13.879,0,0,1-.957,2.978c-.345.76-.758,1.146-1.227,1.146-.9,0-1.79-1.42-2.264-3.617a34.62,34.62,0,0,1-.526-6.273A16.554,16.554,0,0,1,104.5-13.913Zm-179.389-.262h1.836V.25h-2.375v-9.9h-3.291v-1.824l.226-.022a6.993,6.993,0,0,0,2.555-.588,2.861,2.861,0,0,0,1-1.895Zm1.336.5h-.94a3.062,3.062,0,0,1-1.195,2.022,6.838,6.838,0,0,1-2.531.629v.872h3.291v9.9h1.375Zm8.313-.5h1.836V.25h-2.375v-9.9h-3.291v-1.824l.226-.022a6.993,6.993,0,0,0,2.555-.588,2.862,2.862,0,0,0,1-1.895Zm1.336.5h-.94a3.062,3.062,0,0,1-1.195,2.022,6.838,6.838,0,0,1-2.531.629v.872h3.291v9.9h1.375Zm-40.3-.15-.035.313a8.637,8.637,0,0,0-.058,1.072v1.02a9.681,9.681,0,0,0,.039,1.077l.026.29-.291-.018c-.634-.04-.952-.059-1.7-.059h-8.48a13.948,13.948,0,0,0-1.636.059l-.309.03.036-.308a8.565,8.565,0,0,0,.058-1.051v-1.08a6.58,6.58,0,0,0-.058-1.029l-.039-.314.315.035a14.66,14.66,0,0,0,1.712.078h8.38a14.033,14.033,0,0,0,1.73-.078Zm-2.043.616h-8.38c-.6,0-1.034-.015-1.457-.051.018.2.027.4.027.781v1.08c0,.294-.01.548-.031.8.443-.034.749-.034,1.381-.034h8.48c.645,0,.976.014,1.448.043-.018-.277-.018-.482-.018-.833v-1.02c0-.339.011-.581.031-.82C-105.167-13.224-105.613-13.21-106.246-13.21Zm160.755-.2.128.151a17.615,17.615,0,0,1,2.9,4.621,19.322,19.322,0,0,1,1.518,5.4l.032.2-1.915.782L57.137-2.6a17.37,17.37,0,0,0-4.1-9.721l-.208-.242ZM58.527-3.356a18.541,18.541,0,0,0-1.449-5.081,17.031,17.031,0,0,0-2.7-4.35l-.761.387A17.858,17.858,0,0,1,57.6-2.977Zm55.982-10.056.128.151a17.615,17.615,0,0,1,2.9,4.621,19.322,19.322,0,0,1,1.518,5.4l.032.2-1.915.782-.032-.334a17.371,17.371,0,0,0-4.1-9.721l-.208-.242Zm4.018,10.056a18.543,18.543,0,0,0-1.449-5.081,17.031,17.031,0,0,0-2.7-4.35l-.761.387A17.858,17.858,0,0,1,117.6-2.977Zm-233.9-9.434h9.9v1.74h-9.9Zm9.4.5h-8.9v.74h8.9Zm7.38.079.288.044a12.208,12.208,0,0,0,1.9.117h12.16a12.245,12.245,0,0,0,1.883-.117l.287-.042V-10.4l-.275-.028a18.384,18.384,0,0,0-1.9-.1h-.47v1.52h1.49a13.054,13.054,0,0,0,1.963-.117l.287-.042v1.88l-.287-.042a13.416,13.416,0,0,0-1.963-.117h-1.49v1.76h.47a17.132,17.132,0,0,0,1.893-.1l.277-.03v1.8l-.276-.029a17.973,17.973,0,0,0-1.894-.1h-5.39v1.4h5.99a14.126,14.126,0,0,0,2.023-.117l.287-.042v1.9l-.284-.039a14.492,14.492,0,0,0-2.046-.118h-5.97v.83A12.149,12.149,0,0,0-89.5,1.621l.045.289H-91.5l.047-.29a11.984,11.984,0,0,0,.137-1.96v-.83h-5.53a14.717,14.717,0,0,0-2.026.118l-.284.039v-1.9l.287.042a13.737,13.737,0,0,0,2.023.117h5.53v-1.4h-5.09a12.2,12.2,0,0,0-1.9.1l-.287.042V-5.831l.288.044a11.749,11.749,0,0,0,1.9.1h.43V-7.45h-1.49a13.99,13.99,0,0,0-1.986.118l-.284.039V-9.17l.287.042a13.4,13.4,0,0,0,1.983.117h1.49v-1.52h-.43a18.417,18.417,0,0,0-1.914.1l-.276.028Zm16.02,1.257v-.679a13.6,13.6,0,0,1-1.67.084h-12.16a13.9,13.9,0,0,1-1.69-.083v.678c.564-.05,1.119-.075,1.69-.075h.93v2.52h-1.99a15.205,15.205,0,0,1-1.77-.085v.731a15.289,15.289,0,0,1,1.77-.087h1.99v2.76h-.93a14.652,14.652,0,0,1-1.69-.064v.669a14.991,14.991,0,0,1,1.69-.065h5.59v2.4h-6.03a15.7,15.7,0,0,1-1.81-.085v.752a16.257,16.257,0,0,1,1.81-.087h6.03V-.34a13.162,13.162,0,0,1-.1,1.75h.882a13.108,13.108,0,0,1-.1-1.75V-1.67h6.47a16,16,0,0,1,1.83.087v-.752a16.188,16.188,0,0,1-1.81.085h-6.49v-2.4h5.89c.568,0,1.1.024,1.67.075v-.688c-.551.051-1.077.074-1.67.074h-.97V-7.95h1.99a15.2,15.2,0,0,1,1.75.085v-.729a14.737,14.737,0,0,1-1.75.085h-1.99v-2.52h.97C-83.687-11.03-83.162-11.007-82.576-10.955ZM30.476-11.69h6.74v1.88h-6.74Zm6.24.5h-5.74v.88h5.74Zm-131.491.16h3.96v2.52h-3.96Zm3.46.5h-2.96v1.52h2.96Zm1.18-.5h4.22v2.52h-4.22Zm3.72.5h-3.22v1.52h3.22Zm110.032.12h2.94v4.14H23.541l.015-.264c.04-.693.04-.8.04-2.066,0-.135,0-.318.007-.529.006-.293.013-.658.013-1.031Zm2.44.5H24.115c0,.287-.007.561-.012.79,0,.209-.007.39-.007.52,0,1.083,0,1.329-.026,1.83h1.986Zm-59.83-.34a5.631,5.631,0,0,1,2.612.606,12.378,12.378,0,0,1,1.913,1.22c1.648,1.177,2.615,1.594,3.7,1.594a3.664,3.664,0,0,0,1.5-.317l.008,0a5.1,5.1,0,0,0,2.18-1.863l.162-.207,1.427,1.235-.162.189A8.378,8.378,0,0,1-22.81-5.683a5.674,5.674,0,0,1-2.765.713A6.554,6.554,0,0,1-27.551-5.3l-.007,0A10.213,10.213,0,0,1-30.4-6.959c-1.547-1.155-2.288-1.471-3.452-1.471a3.849,3.849,0,0,0-1.94.489,6.827,6.827,0,0,0-1.621,1.355l-.166.17L-38.962-7.63l.193-.188C-36.933-9.614-35.626-10.25-33.774-10.25Zm8.22,3.92c-1.2,0-2.242-.441-3.985-1.687A12.027,12.027,0,0,0-31.386-9.2a5.149,5.149,0,0,0-2.388-.554c-1.658,0-2.806.535-4.451,2.1l.619.544a6.687,6.687,0,0,1,1.569-1.273,4.328,4.328,0,0,1,2.184-.553c1.278,0,2.119.352,3.75,1.57a9.808,9.808,0,0,0,2.711,1.584,6.047,6.047,0,0,0,1.82.307,5.16,5.16,0,0,0,2.515-.646,7.508,7.508,0,0,0,2.073-1.818l-.654-.566a5.3,5.3,0,0,1-2.213,1.809A4.117,4.117,0,0,1-25.554-6.33ZM-119.2-9.783l.32.034a18.9,18.9,0,0,0,2.113.079h12.92a19.933,19.933,0,0,0,2.054-.079l.315-.033-.042.314a6.935,6.935,0,0,0-.058,1.087v1.1a6.689,6.689,0,0,0,.058,1.025l.041.285H-103.3V-8.21h-14.08v2.2h-1.811l.033-.279A9.293,9.293,0,0,0-119.1-7.42v-1a6.843,6.843,0,0,0-.058-1.045Zm17.152,3.313c-.021-.228-.029-.478-.029-.81v-1.1c0-.4.008-.632.027-.843-.48.037-1.04.053-1.8.053h-12.92c-.861,0-1.384-.014-1.857-.052.019.223.027.469.027.8v1c0,.348-.01.634-.034.91h.754v-2.2h15.08v2.24ZM71.606-9.61c2.15,0,3.648.666,4.453,1.979a4.6,4.6,0,0,1,.657,2.411c0,2.365-1.866,4.484-4.755,5.4A19.31,19.31,0,0,1,67.8.948l-.227.028L67.521.752a4.117,4.117,0,0,0-.5-1.318l-.229-.443.492.082a1.283,1.283,0,0,0,.239.017,13.3,13.3,0,0,0,3.861-.607c2.185-.709,3.489-2.131,3.489-3.8A2.227,2.227,0,0,0,74.032-7.2a4.292,4.292,0,0,0-2.606-.667,22.975,22.975,0,0,0-5.2.793,8.647,8.647,0,0,0-2.092.643l-.276.129-.5-2.041.293-.023a9.155,9.155,0,0,0,1.8-.354A26.124,26.124,0,0,1,71.606-9.61ZM67.96.424A17.731,17.731,0,0,0,71.811-.3c2.675-.847,4.4-2.779,4.4-4.921a4.154,4.154,0,0,0-.582-2.148C74.925-8.524,73.57-9.11,71.606-9.11a25.672,25.672,0,0,0-6.042.873,13.4,13.4,0,0,1-1.585.339l.219.887a10.394,10.394,0,0,1,1.913-.553,23.393,23.393,0,0,1,5.316-.806c2.547,0,3.95,1.083,3.95,3.05,0,1.9-1.433,3.5-3.833,4.278a13.869,13.869,0,0,1-3.882.631A3.8,3.8,0,0,1,67.96.424ZM30.476-9.33h6.74v2h-6.74Zm6.24.5h-5.74v1h5.74Zm-131.491.88h3.96v2.76h-3.96Zm3.46.5h-2.96v1.76h2.96Zm1.18-.5h4.22v2.76h-4.22Zm3.72.5h-3.22v1.76h3.22Zm-17.7-.372V-6.16l-.12-.014,1.261.856-.214.214a17.455,17.455,0,0,1-2.594,2.2,12.026,12.026,0,0,0,4.389,2.674l.354.14-.269.269a3.888,3.888,0,0,0-.737,1l-.112.206-.213-.1a14.528,14.528,0,0,1-4.658-3.149,11.62,11.62,0,0,1-2.478-4.408h-.713a5.625,5.625,0,0,1-.641.435A6.99,6.99,0,0,1-108.616-1a3.017,3.017,0,0,1-.7,2.266,2.9,2.9,0,0,1-2.047.5c-.345,0-.654-.016-1.27-.048l-.443-.023-.033-.2a3.034,3.034,0,0,0-.372-1.1l-.171-.311a37.036,37.036,0,0,1-4.607,1.492l-.213.055-.082-.2a2.794,2.794,0,0,0-.575-.947l-.287-.322L-119,.075a26.681,26.681,0,0,0,8.323-3.061,4.748,4.748,0,0,0-.3-.609,25.664,25.664,0,0,1-7.172,2.659l-.222.052-.072-.217a2.538,2.538,0,0,0-.5-.884l-.258-.327.41-.074a23.712,23.712,0,0,0,7-2.337,3.476,3.476,0,0,0-.394-.382,16.921,16.921,0,0,1-2.755,1.045l-.021.006c-.629.177-.778.219-1.775.438-.481.1-.481.1-.84.18l-.22.049-.071-.214a2.719,2.719,0,0,0-.5-.911l-.249-.338.416-.058a19.094,19.094,0,0,0,5.317-1.362h-1.863a13.051,13.051,0,0,0-1.672.078l-.278.031V-7.817l.293.051a8.432,8.432,0,0,0,1.617.1h8.86a7.675,7.675,0,0,0,1.513-.1Zm-1.81.652h-8.86a10.775,10.775,0,0,1-1.41-.059v.512a14.3,14.3,0,0,1,1.45-.053h3.887l-.846.469a16.937,16.937,0,0,1-6.021,1.831,2.579,2.579,0,0,1,.26.5c.176-.039.266-.058.629-.133.98-.216,1.127-.257,1.744-.431l.019-.005a16.479,16.479,0,0,0,2.818-1.084l.144-.07.124.1a4.561,4.561,0,0,1,.775.775l.182.221-.243.151a23.027,23.027,0,0,1-7.034,2.48,2.593,2.593,0,0,1,.261.493,24.4,24.4,0,0,0,7.032-2.679l.219-.132.167.292a5.63,5.63,0,0,1,.5,1.029l.07.192-.174.107A26.531,26.531,0,0,1-118.5.479a3.092,3.092,0,0,1,.318.564,28.376,28.376,0,0,0,7.94-3.235l.318-.2.062.371a4.873,4.873,0,0,1,.083.841c0,1.433-.212,1.91-1.47,1.91a11.385,11.385,0,0,1-1.592-.136,3.487,3.487,0,0,1,.182.626l.045,0c.608.031.913.047,1.245.047a2.55,2.55,0,0,0,1.714-.377A2.616,2.616,0,0,0-109.116-1a6.518,6.518,0,0,0-2.332-4.69l-.272-.232.312-.176a6.16,6.16,0,0,0,.95-.62l.068-.053h1.248l.056.173c1.158,3.59,2.928,5.53,6.719,7.332a4.192,4.192,0,0,1,.452-.64,11.858,11.858,0,0,1-4.43-2.863l-.2-.209.236-.167a17.493,17.493,0,0,0,2.553-2.1l-.607-.413A9.936,9.936,0,0,1-106.7-3.534l-.2.14-.143-.2a9.246,9.246,0,0,1-1.417-2.858l-.09-.318h2.61a12.934,12.934,0,0,1,1.33.052v-.509A10.281,10.281,0,0,1-105.926-7.17Zm1.342.958a12.058,12.058,0,0,0-1.362-.058h-1.942a8.821,8.821,0,0,0,1.1,2.182,8.617,8.617,0,0,0,2.152-2.053ZM-111.246.23c.532,0,.7-.081.791-.2a2.291,2.291,0,0,0,.179-1.206,3.367,3.367,0,0,0-.023-.387A23.445,23.445,0,0,1-113.44,0l.211.031A13.1,13.1,0,0,0-111.246.23Zm70.356-7.838-.036.316A16.859,16.859,0,0,0-41-5.36V-.54a12.476,12.476,0,0,0,.1,2.041l.046.289h-1.9V.53h-4.62V1.79h-1.831l.032-.279A16.2,16.2,0,0,0-49.1-.42V-5.58a12.249,12.249,0,0,0-.058-1.689l-.038-.3.306.024c.457.037.884.059,1.6.059h4.4a13.051,13.051,0,0,0,1.689-.078Zm-.552,8.9A16.335,16.335,0,0,1-41.5-.54V-5.36c0-.729.015-1.244.051-1.679-.386.035-.814.049-1.441.049h-4.4c-.522,0-.914-.011-1.34-.039.03.358.03.711.03,1.449V-.42c0,.779-.014,1.269-.053,1.71h.773V.03h5.62V1.29ZM-58.294-7.6l.305.032a16.191,16.191,0,0,0,1.814.079h3.78c.6,0,1.046-.017,1.6-.059l.3-.023-.028.3a17.025,17.025,0,0,0-.059,1.856V-.8a15.155,15.155,0,0,0,.078,1.929l.035.281H-52.3V.53h-4.14V1.79h-1.881l.044-.288a13.118,13.118,0,0,0,.1-2.042V-5.38A18.208,18.208,0,0,0-58.263-7.3Zm5.9.61h-3.78c-.656,0-1.1-.014-1.564-.053.038.482.054.977.054,1.663V-.54a16.932,16.932,0,0,1-.065,1.83h.8V.03h5.14V.91h.772c-.038-.416-.052-.9-.052-1.71V-5.42c0-.848.011-1.257.036-1.61C-51.489-7-51.9-6.99-52.394-6.99Zm-4.55.62h5.14V-.59h-5.14Zm4.64.5h-4.14v4.78h4.14Zm4.42-.5h5.64V-.59h-5.64Zm5.14.5h-4.64v4.78h4.64Zm49.76-.469v4.2c0,.714,0,1.23-.71,1.23a3.988,3.988,0,0,1-1.913-.618A1.768,1.768,0,0,1,3.416-2.94c0-1.066,1.151-2.212,3.241-3.225ZM6.306-1.41a.378.378,0,0,0,.151-.016,2.573,2.573,0,0,0,.059-.714V-5.535c-1.658.863-2.6,1.8-2.6,2.595,0,.333.251.666.747.991A3.5,3.5,0,0,0,6.306-1.41ZM30.9-4.57h5.939l-.346.411a12.448,12.448,0,0,1-2.506,2.282l-.144.1-.145-.1a10.713,10.713,0,0,1-2.472-2.288Zm4.852.5h-3.8a9.874,9.874,0,0,0,1.884,1.683A11.962,11.962,0,0,0,35.755-4.07Zm55.81-.28a5.694,5.694,0,0,1,2.226.415l.052.019.039.039c.05.05.113.113.113.757a2.484,2.484,0,0,1-.444,1.747,3.011,3.011,0,0,1-2.226.8c-1.549,0-2.59-.743-2.59-1.85a1.661,1.661,0,0,1,.812-1.44A3.736,3.736,0,0,1,91.566-4.35Zm1.913.834a5.128,5.128,0,0,0-1.913-.334c-1.437,0-2.33.548-2.33,1.43,0,.807.84,1.35,2.09,1.35A2.588,2.588,0,0,0,93.177-1.7l.006-.007A2.048,2.048,0,0,0,93.5-3.12C93.5-3.224,93.488-3.4,93.479-3.516ZM-10.824-2.13h2.44V.25h-2.44Zm1.94.5h-1.44V-.25h1.44ZM-120.918,16.68l1.888.722-.186.263c-.616.87-.821,1.16-1,1.406h3.9a15.465,15.465,0,0,0,1.832-.1l.133-.015.947,1.131-.148.161a7.816,7.816,0,0,0-.557.7l-.107.143a29.023,29.023,0,0,1-5.894,5.98h6.594a9.274,9.274,0,0,0,1.4-.077l.338-.048-.056.337a9.383,9.383,0,0,0-.1,1.559v4.84a11.2,11.2,0,0,0,.116,1.735l.054.295h-1.95V34.59h-7.86v1.12h-1.941l.044-.288a12.691,12.691,0,0,0,.117-1.742V29.29a33.454,33.454,0,0,1-4.108,2.118l-.226.1-.1-.225a3.391,3.391,0,0,0-.754-1.112l-.26-.272.352-.134a26.715,26.715,0,0,0,7.589-4.283,14.605,14.605,0,0,0-2.654-1.993l-.3-.192,1.363-1.044.147.093a18.5,18.5,0,0,1,2.805,2.018,22.869,22.869,0,0,0,3.363-3.676h-5.367a22.34,22.34,0,0,1-5.464,4.5l-.21.128-.131-.208a3.117,3.117,0,0,0-.786-.9l-.288-.233.324-.18a18.371,18.371,0,0,0,4.876-3.789,11.659,11.659,0,0,0,2.174-3.108Zm1.108.959-.836-.32a12.791,12.791,0,0,1-2.167,3.028,18.637,18.637,0,0,1-4.7,3.718,3.309,3.309,0,0,1,.485.576,21.32,21.32,0,0,0,5.214-4.363l.075-.087h6.59l-.295.4a24.451,24.451,0,0,1-3.9,4.3l-.165.147-.166-.146a17.163,17.163,0,0,0-2.761-2.023l-.518.4a14.358,14.358,0,0,1,2.637,2.058l.205.2-.221.178a27.076,27.076,0,0,1-7.608,4.408,3.5,3.5,0,0,1,.491.749,31.469,31.469,0,0,0,4.206-2.223l.384-.243V33.68a14.443,14.443,0,0,1-.084,1.53h.864V34.09h8.86v1.12h.86a13.76,13.76,0,0,1-.08-1.53V28.84a11.545,11.545,0,0,1,.058-1.313c-.317.031-.656.043-1.148.043h-8.1l.609-.451a28.978,28.978,0,0,0,6.387-6.327l.108-.145c.206-.275.317-.423.443-.572l-.5-.593a15.961,15.961,0,0,1-1.754.087h-4.9l.3-.4C-120.569,18.708-120.544,18.675-119.81,17.638Zm18.98-.608H-98.6l-.06.3a8.065,8.065,0,0,0-.135,1.691v1.91h5.93a14.293,14.293,0,0,0,2.045-.118l.285-.041v2l-.272-.024c-.555-.049-1.234-.1-2.058-.1h-5.93v3.68h4.23a9.7,9.7,0,0,0,1.446-.078l.334-.046-.053.333a9.524,9.524,0,0,0-.1,1.58V33.5a12.26,12.26,0,0,0,.117,1.8l.044.288h-2V34.35h-9.48v1.24h-2l.038-.283a13.531,13.531,0,0,0,.118-1.807V28.12a12.7,12.7,0,0,0-.1-1.59l-.039-.321.321.044a9.7,9.7,0,0,0,1.446.078h3.81V22.65h-5.45a14.921,14.921,0,0,0-2.068.1l-.282.036V20.772l.285.041a14.667,14.667,0,0,0,2.065.118h5.45V19.02a7.58,7.58,0,0,0-.114-1.687Zm1.632.5h-1.022a10.191,10.191,0,0,1,.07,1.49v2.41h-5.95a16.59,16.59,0,0,1-1.85-.086v.875a17.4,17.4,0,0,1,1.85-.069h5.95v4.68h-4.31a11.74,11.74,0,0,1-1.2-.045,12.845,12.845,0,0,1,.067,1.335V33.5a14.119,14.119,0,0,1-.087,1.59h.927V33.85h10.48v1.24h.924a13.8,13.8,0,0,1-.084-1.59V28.12a11.61,11.61,0,0,1,.059-1.334,11.8,11.8,0,0,1-1.189.044h-4.73V22.15h6.43c.713,0,1.318.036,1.83.078v-.884a16.087,16.087,0,0,1-1.83.086h-6.43V19.02A9.41,9.41,0,0,1-99.2,17.53Zm117.717-.38h1.6l.075.087a15.343,15.343,0,0,0,3.548,3.074,22.17,22.17,0,0,0,5.057,2.39l.353.111-.234.286a4.117,4.117,0,0,0-.722,1.216l-.1.234-.233-.1a26.09,26.09,0,0,1-2.72-1.32c-.013.3-.013.613-.013,1.05v3.44c0,.474.007.792.021,1.071.12-.128.24-.26.361-.4l.145-.163,1.588,1.058-.237.215A31.86,31.86,0,0,1,23.394,32.3a15.534,15.534,0,0,0,5,1.676l.4.062-.234.33a5,5,0,0,0-.69,1.243l-.078.207-.215-.052a16.592,16.592,0,0,1-7.2-3.472l-.164-.14-.028,1.618-.177.051a74.474,74.474,0,0,1-7.741,1.805c-.225.041-.407.082-.732.158l-.242.057-.474-1.95h.318a14.733,14.733,0,0,0,2.49-.28V24.46c0-.48-.011-.912-.03-1.258a24.059,24.059,0,0,1-2.544,1.189l-.23.1-.1-.229a3.36,3.36,0,0,0-.7-1.154l-.243-.284.355-.116a17.952,17.952,0,0,0,8.3-5.457Zm1.367.5H18.761a18.432,18.432,0,0,1-8.117,5.411,3.374,3.374,0,0,1,.448.774A23.693,23.693,0,0,0,13.7,22.58l.17-.092.341-.2a18.3,18.3,0,0,0,4.936-4.065l.19-.228.192.226a18.977,18.977,0,0,0,5.117,4.047l.476.282a26.283,26.283,0,0,0,2.7,1.345,4.242,4.242,0,0,1,.476-.825,23.02,23.02,0,0,1-4.837-2.336A16.018,16.018,0,0,1,19.885,17.65Zm3.8,4.617a18.558,18.558,0,0,1-4.345-3.5,18.187,18.187,0,0,1-4.148,3.505H18.43v-.43a6.827,6.827,0,0,0-.115-1.471l-.06-.3H20.28l-.054.295a7.454,7.454,0,0,0-.1,1.475v.43H23C23.286,22.27,23.5,22.27,23.687,22.267Zm-4-1.7h-.83a8.433,8.433,0,0,1,.072,1.27v.93H15.72c-.594,0-.865,0-1.39-.02l-.265-.01,0,.036c.039.395.061.993.061,1.685v9.57l-.207.036a18.734,18.734,0,0,1-2.467.317l.208.857c.2-.045.342-.076.511-.106a74.714,74.714,0,0,0,7.518-1.743l.011-.636a43.54,43.54,0,0,1-4.517,1.09l-.3.058V28.93h3.374l.072.124A9.974,9.974,0,0,0,20.7,31.909a15.76,15.76,0,0,0,6.787,3.316,5.067,5.067,0,0,1,.444-.823A16.023,16.023,0,0,1,22.8,32.537l-.347-.2.33-.225a31.466,31.466,0,0,0,3.655-2.864l-.693-.462c-.181.2-.359.389-.54.572l.013.154L25.06,29.5a19.983,19.983,0,0,1-3.041,2.387l-.142.1-.14-.1a8.6,8.6,0,0,1-2.527-2.569l-.25-.386h4.12c.656,0,1.15.012,1.588.039-.025-.357-.038-.719-.038-1.349V24.18c0-.633,0-1.018.039-1.46l-.131.01c-.549.041-.839.041-1.538.041H19.63v-.93A9.627,9.627,0,0,1,19.688,20.57Zm-1.711,8.86H15.39V33.3a43.842,43.842,0,0,0,4.5-1.116l.269-.079A10.3,10.3,0,0,1,17.977,29.43Zm6.406.025c-.366-.017-.782-.025-1.3-.025H19.892a8.051,8.051,0,0,0,1.991,1.946A20.507,20.507,0,0,0,24.383,29.455Zm51.479-11.96,2.16.3-.107.291a6.056,6.056,0,0,0-.309,1.241c-.123.6-.228,1.035-.449,1.849a15.815,15.815,0,0,0,3.166-.615l.313-.1.084,1.927-.215.039c-.221.04-.222.04-.7.12a23.8,23.8,0,0,1-3.136.412,37.357,37.357,0,0,1-2.186,5.71c-.485.971-.662,1.3-1.429,2.637l-.006.01c-.1.162-.187.309-.26.44-.051.091-.1.169-.138.238l-.129.206L70.7,31.129l.18-.225a17.408,17.408,0,0,0,1.893-3.078,29.6,29.6,0,0,0,1.959-4.783c-.425.015-.893.027-1.137.027-.178,0-.445-.005-.7-.011s-.474-.009-.617-.009h-.023c-.209-.019-.36-.019-.417-.019h-.514l.028-1.927.289.051a12.433,12.433,0,0,0,2.337.156c.2,0,.471-.005.733-.01l.516-.009a20.074,20.074,0,0,0,.621-3.522Zm1.481.711-1.012-.141a22.26,22.26,0,0,1-.671,3.543l-.051.182H75.42c-.185,0-.446,0-.7.01s-.537.01-.742.01a14.054,14.054,0,0,1-2.134-.117l-.012.837h.006c.062,0,.226,0,.451.02.148,0,.375,0,.615.01.256.005.521.01.693.01.3,0,.981-.02,1.47-.04l.352-.014-.1.337a30.234,30.234,0,0,1-2.1,5.2,18.935,18.935,0,0,1-1.771,2.936l.9.528,0-.007c.072-.128.162-.287.272-.459.758-1.317.933-1.647,1.41-2.6a36.934,36.934,0,0,0,2.2-5.8l.049-.168.175-.011a24.063,24.063,0,0,0,3.243-.415l.012,0,.482-.081-.036-.839a17.842,17.842,0,0,1-3.323.575l-.357.031.095-.346c.285-1.037.4-1.5.536-2.164A9.572,9.572,0,0,1,77.343,18.206Zm-148.784-.516-.03.315a10.19,10.19,0,0,0-.059,1.336v1.78a7.536,7.536,0,0,0,.058,1.226l.041.3-.3-.015c-.837-.043-1.389-.06-1.967-.06H-85.056l-.027,1.04H-73.4a15.485,15.485,0,0,0,2.306-.1l.284-.039v1.85l-.281-.035a16.362,16.362,0,0,0-2.249-.1h-1.667a28.174,28.174,0,0,1,3.467,3.136l.218.224-1.485.914-.139-.158c-.418-.476-.614-.687-.861-.955l-.231-.25c-1.464.137-2.913.255-4.56.369h1.056l-.049.291a7.675,7.675,0,0,0-.1,1.389H-74a11.938,11.938,0,0,0,2.063-.1l.287-.042v1.855l-.283-.038A14.389,14.389,0,0,0-74,31.73h-3.69v1.74h4.59a15.582,15.582,0,0,0,2.442-.1l.288-.044v1.9l-.282-.036a19.311,19.311,0,0,0-2.528-.118H-83.64a18.1,18.1,0,0,0-2.386.118l-.284.039V33.32l.295.054a14.3,14.3,0,0,0,2.3.1h4.29V31.73h-2.99a14.107,14.107,0,0,0-2.065.1l-.285.041v-1.86l.288.044a12.067,12.067,0,0,0,2.082.1h2.969a7.57,7.57,0,0,0-.1-1.389l-.038-.226c-1.271.083-2.67.166-4.282.255l-.136.008a2.84,2.84,0,0,0-.562.066l-.258.059-.325-1.891.35.062a2.863,2.863,0,0,0,.657.056c.075,0,.077,0,1.605-.037a16.4,16.4,0,0,0,1.137-1.923h-3.765a37.251,37.251,0,0,1-.653,5.46,14.779,14.779,0,0,1-1.727,4.573l-.183.325-.231-.292a4.9,4.9,0,0,0-1.027-.95l-.191-.134.121-.2A11.306,11.306,0,0,0-87.6,30.638,45.093,45.093,0,0,0-86.77,20.46a24.148,24.148,0,0,0-.1-2.454L-86.9,17.7l.309.035a18.376,18.376,0,0,0,2.392.1h10.42a13.7,13.7,0,0,0,2.026-.1Zm-2.339.641H-84.2a20.981,20.981,0,0,1-2.143-.069c.05.6.073,1.313.073,2.2a45.526,45.526,0,0,1-.847,10.3,11.54,11.54,0,0,1-1.371,3.272,5.554,5.554,0,0,1,.7.633,14.24,14.24,0,0,0,1.5-4.119,37.133,37.133,0,0,0,.654-5.617l.011-.239h5.03l-.165.355a16.518,16.518,0,0,1-1.42,2.456l-.072.106-.128,0c-1.663.04-1.663.04-1.746.04a3.754,3.754,0,0,1-.4-.013l.119.692c.121-.016.236-.022.387-.031l.135-.008c4.279-.234,7.058-.431,9.911-.7l.124-.012.084.092.313.34c.221.238.4.433.731.806l.594-.366a27.049,27.049,0,0,0-3.468-3.075l-.529.28c.653.487.943.711,1.395,1.093l.455.385-.594.055c-2.842.262-3.419.282-6.194.381l-.487.017.271-.406a21.95,21.95,0,0,0,1.387-2.358l.07-.133h6.471a19.013,19.013,0,0,1,2.03.07v-.717a19.132,19.132,0,0,1-2.09.067H-85.6l.053-2.04H-73.7c.516,0,1.01.013,1.7.046-.027-.29-.027-.533-.027-1V19.34A10.672,10.672,0,0,1-72,18.266,16.6,16.6,0,0,1-73.78,18.33ZM-76.3,25.19h-3.207c-.437.825-.694,1.273-1.076,1.863,2.219-.079,2.913-.111,5.077-.307-.305-.243-.635-.49-1.221-.926l-.318-.236Zm-1.828,3.78h-.86a10.824,10.824,0,0,1,.06,1.43v.25H-82.4a15.727,15.727,0,0,1-1.87-.063v.71a17.5,17.5,0,0,1,1.85-.067h3.49v2.74h-4.79c-1.087,0-1.677-.016-2.09-.062v.749a21.037,21.037,0,0,1,2.17-.088h10.46a21.989,21.989,0,0,1,2.31.089v-.753a20.953,20.953,0,0,1-2.23.064h-5.09V31.23H-74a16.921,16.921,0,0,1,1.85.068v-.712A15.2,15.2,0,0,1-74,30.65h-4.19V30.4A10.97,10.97,0,0,1-78.13,28.97Zm63.966-11.1,1.4,1.758-.377.094a3.969,3.969,0,0,0-.594.192,31.4,31.4,0,0,1-4.239,1.21c-.017,1.571-.034,2.761-.052,3.546h4.544a9.277,9.277,0,0,0,2.055-.136l.295-.054v2.1l-.278-.031a15.12,15.12,0,0,0-2.072-.1h-4.672a9.554,9.554,0,0,1-1.314,4.3,10.979,10.979,0,0,1-5.085,4.276l-.206.1-.118-.2A3.532,3.532,0,0,0-25.9,33.754l-.334-.272.4-.155a9.137,9.137,0,0,0,4.561-3.345,7.063,7.063,0,0,0,1.155-3.532H-25.46a15.12,15.12,0,0,0-2.072.1l-.278.031v-2.1l.295.054a9.276,9.276,0,0,0,2.055.136h5.5c.032-.813.048-1.824.049-3.206a41.256,41.256,0,0,1-5.66.506l-.207.008-.047-.2a4.983,4.983,0,0,0-.463-1.29l-.181-.386.425.03c.551.039.838.039,1.142.039a31.971,31.971,0,0,0,8.329-1.25,8.1,8.1,0,0,0,2.219-.932Zm.535,1.474-.65-.816a9.051,9.051,0,0,1-2.149.871A32.517,32.517,0,0,1-24.9,20.67c-.217,0-.438,0-.76-.015a4.451,4.451,0,0,1,.275.807,37.37,37.37,0,0,0,5.674-.546l.3-.062v.307c0,1.691-.019,2.855-.06,3.771l-.011.239H-25.46a10.829,10.829,0,0,1-1.85-.094v.946a16.247,16.247,0,0,1,1.85-.072h5.891l-.022.27a7.748,7.748,0,0,1-1.262,4.039,9.351,9.351,0,0,1-4.409,3.378,3.5,3.5,0,0,1,.7.838,10.343,10.343,0,0,0,4.671-3.984,9.291,9.291,0,0,0,1.265-4.313l.019-.229h5.13a16.247,16.247,0,0,1,1.85.072v-.946a10.829,10.829,0,0,1-1.85.094h-5.057l.007-.256c.02-.8.041-2.142.06-4l0-.2.2-.04a30.771,30.771,0,0,0,4.366-1.23Zm110.14-1.4.211.119a23.808,23.808,0,0,0,6.7,2.191l.31.048-.758,1.9-.213-.055A31.008,31.008,0,0,1,98.836,21a22.415,22.415,0,0,1-3.08-1.268L95.5,19.61Zm6.521,2.752a25.082,25.082,0,0,1-6.343-2.082l-.471.776A20.5,20.5,0,0,0,99,20.524,29.044,29.044,0,0,0,102.67,21.6ZM63.269,18.419l1.153,1.51-.27.135c-.246.123-.323.181-.958.8-1.907,1.866-3.694,3.473-5.084,4.583a10.347,10.347,0,0,1,3.27-.513c3.481,0,5.73,1.747,5.73,4.45A4.707,4.707,0,0,1,65,33.344,9.472,9.472,0,0,1,59.52,34.81c-2.981,0-4.69-1.141-4.69-3.13,0-1.477,1.354-2.59,3.15-2.59a4.291,4.291,0,0,1,3.5,1.739,5.556,5.556,0,0,1,.883,1.762c1.825-.567,2.787-1.667,2.787-3.192a2.381,2.381,0,0,0-1.032-2.046A5.237,5.237,0,0,0,61.1,26.59a12.553,12.553,0,0,0-8.25,3.354l-.21.194L51.419,28.4l.235-.137a22.19,22.19,0,0,0,2.769-2.018c2.206-1.753,5.306-4.492,6.635-5.8-.994.1-3.052.216-5.649.3a9.561,9.561,0,0,0-1.054.1l-.269.037L53.974,18.8l.31.055a9.012,9.012,0,0,0,1.836.116c1.578,0,4.2-.111,6.1-.259a1.809,1.809,0,0,0,.861-.191Zm.4,1.346-.544-.712a2.745,2.745,0,0,1-.865.157c-1.911.149-4.55.261-6.139.261a11.031,11.031,0,0,1-1.614-.074l.049.921c.275-.034.48-.051.833-.067,3.056-.1,5.428-.24,6.045-.356h0a1.006,1.006,0,0,1,.221-.023h.1l.29.29-.617.617c-1.323,1.3-4.47,4.086-6.7,5.859a25.006,25.006,0,0,1-2.6,1.921l.583.829a13.043,13.043,0,0,1,8.378-3.3c2.849,0,4.55,1.237,4.55,3.31a3.363,3.363,0,0,1-.878,2.338,5.175,5.175,0,0,1-2.506,1.4l-.232.064-.073-.229a5.488,5.488,0,0,0-.882-1.846,3.8,3.8,0,0,0-3.1-1.54c-1.511,0-2.65.9-2.65,2.09a2.168,2.168,0,0,0,1.048,1.92,5.9,5.9,0,0,0,3.142.71,8.985,8.985,0,0,0,5.191-1.374,4.226,4.226,0,0,0,1.9-3.556,3.477,3.477,0,0,0-1.39-2.862,6.274,6.274,0,0,0-3.84-1.088A9.832,9.832,0,0,0,56.6,26.64l-.2.108-.307-.461.214-.137a51.519,51.519,0,0,0,6.54-5.648A7.015,7.015,0,0,1,63.668,19.765Zm54.554-1.215h2.528l-.021.27c-.062.79-.1,1.373-.119,2.186l-.16,7.12c-.02.837-.02.837-.02.914,0,.331.017.668.059,1.2l.022.27h-2.017l.017-.266c.039-.612.039-.748.039-1.4v-.717l-.18-7.116c-.02-.822-.038-1.417-.119-2.18Zm1.988.5h-1.434c.06.659.077,1.233.094,1.944l.18,7.126v.72c0,.563,0,.751-.024,1.17h.944c-.029-.4-.04-.685-.04-.97,0-.083,0-.083.02-.926l.16-7.12C120.127,20.264,120.159,19.719,120.21,19.05Zm-74.267-.49.132.164a17.173,17.173,0,0,1,2.087,3.161l.111.212-1.449.841-.112-.257a14.231,14.231,0,0,0-2-3.1l-.2-.233ZM47.607,21.9a16.045,16.045,0,0,0-1.79-2.7l-.531.293a15.266,15.266,0,0,1,1.767,2.733ZM-85.53,18.93h12.78v2.56H-85.53Zm12.28.5H-85.03v1.56h11.78Zm66.806.106.178.113A26.372,26.372,0,0,1-1.4,23.442l.164.162-1.371,1.634L-2.8,25.03A21.987,21.987,0,0,0-7.51,21.153L-7.768,21Zm4.523,4.1a25.634,25.634,0,0,0-4.436-3.452l-.636.7a22.492,22.492,0,0,1,4.363,3.6Zm45.6-3.971.129.155A15.409,15.409,0,0,1,45.9,22.967l.106.208-1.437.862-.118-.25a14.5,14.5,0,0,0-2.014-3.113l-.233-.241Zm1.667,3.321A14.676,14.676,0,0,0,43.556,20.3l-.536.279a16.428,16.428,0,0,1,1.765,2.752ZM-66.17,19.743l.292.05a10.758,10.758,0,0,0,2.258.136h9.6c.162,0,.334-.008.571-.019l.459-.02.282-.011-.022.281c-.039.49-.039.819-.039,1.54V31.94a13.29,13.29,0,0,0,.1,1.779l.049.291H-54.77v-1.2h-9.31a15.937,15.937,0,0,0-2.111.078l-.279.032V30.76l.295.054a9.62,9.62,0,0,0,2.135.136h9.27V21.79h-8.85a16.648,16.648,0,0,0-2.271.1l-.279.033Zm12.15.687h-9.6a12.5,12.5,0,0,1-2.05-.1v1.027a18.689,18.689,0,0,1,2.05-.071h9.35V31.45h-9.77a11.207,11.207,0,0,1-1.93-.093v1c.322-.032.588-.035,1.887-.051h9.813v1.2H-53.2c-.041-.4-.066-.979-.066-1.57V21.7c0-.575,0-.919.021-1.3l-.176.008C-53.669,20.422-53.846,20.43-54.02,20.43ZM82.5,20.353l.189.075a27.684,27.684,0,0,1,5.323,2.662l.2.131-.982,1.636-.219-.151a21.5,21.5,0,0,0-5.243-2.691l-.3-.108ZM87.54,23.38A26.935,26.935,0,0,0,82.7,20.968l-.454.687a21.7,21.7,0,0,1,4.839,2.49ZM37.28,20.87a2.7,2.7,0,0,1,1.892.969c.2.185.512.527,1.476,1.637,2.538,3,6.893,6.861,7.819,7.123l.266.075-.922,2.331-.269-.269a3.417,3.417,0,0,0-.458-.4l0,0a61.592,61.592,0,0,1-8.771-8.65c-.49-.562-.764-.772-1.01-.772-.3,0-.415.053-1.38,1.34A52.6,52.6,0,0,1,32.4,28.529l-.16.178c-.214.238-.265.294-.41.471l-.215.262-1.31-1.978.22-.136a24.8,24.8,0,0,0,3.953-4.4A8.721,8.721,0,0,1,35.51,21.7,2.7,2.7,0,0,1,37.28,20.87Zm10.8,10.107c-1.494-.744-5.647-4.625-7.808-7.175-.932-1.073-1.254-1.432-1.437-1.6l-.01-.009a2.258,2.258,0,0,0-1.543-.827,2.239,2.239,0,0,0-1.434.7,8.5,8.5,0,0,0-.968,1.165A28.849,28.849,0,0,1,31,27.6l.662,1,.208-.232.162-.18A52.152,52.152,0,0,0,35.52,23.95c.966-1.288,1.205-1.54,1.78-1.54.472,0,.867.347,1.389.946A61.164,61.164,0,0,0,47.4,31.945c.105.083.173.136.227.181ZM6.229,21.3l.272.366a3.764,3.764,0,0,0,1.16,1.122l.175.119-.088.192a17.845,17.845,0,0,1-6.185,7.741,20.517,20.517,0,0,1-7.546,3.018,10.245,10.245,0,0,0-1.179.314l-.251.08L-8,32.022l.311-.012a17.092,17.092,0,0,0,5.725-1.517,14.828,14.828,0,0,0,8.031-8.762ZM7.2,23.086a3.7,3.7,0,0,1-.833-.765,16.832,16.832,0,0,1-3.127,5.063,15,15,0,0,1-5,3.565,18.183,18.183,0,0,1-5.6,1.543l.3,1.131c.331-.1.524-.148.97-.247a19.805,19.805,0,0,0,7.374-2.943A17.245,17.245,0,0,0,7.2,23.086Zm86.76-1.692,2.082.137-.087.3A16.473,16.473,0,0,0,95.507,24c-.225,1.357-.354,2.119-.432,2.574-.06.35-.091.535-.115.692.045-.039.091-.079.142-.12l.006,0a10.191,10.191,0,0,1,5.932-1.772,6.9,6.9,0,0,1,4.049,1.1,3.59,3.59,0,0,1,1.561,3.01,4.5,4.5,0,0,1-1.9,3.643A8.541,8.541,0,0,1,99.62,34.49a16.953,16.953,0,0,1-3.553-.366l-.01,0c-.378-.1-.378-.1-1.6-.4l-.213-.052.024-.218a2.893,2.893,0,0,0,.018-.352,4.359,4.359,0,0,0-.134-1.184l-.108-.47.446.182a13.965,13.965,0,0,0,5.006.981c3.128,0,5.15-1.221,5.15-3.11,0-1.493-1.323-2.35-3.63-2.35a9.386,9.386,0,0,0-5.452,1.692,3.233,3.233,0,0,0-.75.771l-.077.1-1.974-.051.047-.284c.051-.306.072-.477.129-.933l.03-.237c.208-1.58.572-3.915.841-5.53a6.552,6.552,0,0,0,.137-1.033Zm1.432.6-.964-.063a8.076,8.076,0,0,1-.127.84c-.268,1.606-.631,3.935-.838,5.507l-.029.235c-.038.3-.06.486-.087.669l1.149.029a3.513,3.513,0,0,1,.77-.767,9.9,9.9,0,0,1,5.75-1.79c2.586,0,4.13,1.065,4.13,2.85,0,2.193-2.218,3.61-5.65,3.61a14.582,14.582,0,0,1-4.766-.854,4.946,4.946,0,0,1,.056.844c0,.048,0,.109,0,.188,1.012.249,1.038.256,1.393.349a16.453,16.453,0,0,0,3.441.353,8.071,8.071,0,0,0,4.836-1.274,4,4,0,0,0,1.694-3.236c0-2.193-2.006-3.61-5.11-3.61a9.678,9.678,0,0,0-5.624,1.665,5.417,5.417,0,0,0-.593.575l-.127.137-.382-.191.042-.191c.009-.041.017-.075.024-.106a1.69,1.69,0,0,0,.05-.321v-.012c.033-.25.06-.409.15-.937.077-.455.207-1.216.432-2.571A19.122,19.122,0,0,1,95.4,21.989ZM14.89,23.33h9v2.16h-9Zm8.5.5h-8v1.16h8Zm58.733.278L84,24.3l-.077.284a5.913,5.913,0,0,0-.251,1.795,24.418,24.418,0,0,0,.2,2.867,14.519,14.519,0,0,1,3.859,2.406l.011.01a1.866,1.866,0,0,0,.329.293l.18.129-1.024,1.882-.235-.29a10.875,10.875,0,0,0-3.018-2.437c0,.066,0,.128,0,.2,0,2.193-1.476,3.45-4.05,3.45a5,5,0,0,1-3-.832A2.785,2.785,0,0,1,75.77,31.74a3.075,3.075,0,0,1,2.015-2.771,6.048,6.048,0,0,1,2.455-.459,6.517,6.517,0,0,1,1.744.217c-.073-1.012-.114-1.877-.114-2.407a8.291,8.291,0,0,1,.206-1.993Zm1.242.63-.846-.087a7.8,7.8,0,0,0-.149,1.668c0,.274.014,1.087.139,2.721l.027.357-.345-.1a6.345,6.345,0,0,0-1.952-.291,5.571,5.571,0,0,0-2.262.42,2.581,2.581,0,0,0-1.708,2.31c0,1.635,1.4,2.65,3.65,2.65a4.041,4.041,0,0,0,2.654-.769,2.7,2.7,0,0,0,.9-2.181,3.906,3.906,0,0,0-.038-.609l-.059-.473.423.22a12.131,12.131,0,0,1,3.338,2.5l.465-.854c-.049-.044-.106-.1-.21-.205a14.182,14.182,0,0,0-3.849-2.373l-.125-.055-.021-.135a23.925,23.925,0,0,1-.223-3.079A6.137,6.137,0,0,1,83.365,24.739ZM-48.01,25.2l.292.05a14.177,14.177,0,0,0,2.438.116h11.62a15.588,15.588,0,0,0,2.388-.1l.282-.036v2.179l-.273-.026a22.744,22.744,0,0,0-2.417-.079h-11.6a21.669,21.669,0,0,0-2.455.079l-.275.028Zm14.35.667H-45.28a18.151,18.151,0,0,1-2.23-.08v1.075c.5-.042.994-.056,2.23-.056h11.6c1.158,0,1.668.015,2.19.057V25.8A18.8,18.8,0,0,1-33.66,25.87Zm48.55.18h9v2.32h-9Zm8.5.5h-8v1.32h8Zm-128.14.98h10.48v5.64h-10.48Zm9.98.5h-9.48v4.64h9.48Zm-27.3.2h8.86v5.24h-8.86Zm8.36.5h-7.86v4.24h7.86Zm193.85.96a6.164,6.164,0,0,1,2.3.415l.155.055.011.164c0,.026.041.631.041.876,0,1.635-.9,2.43-2.75,2.43-1.721,0-2.79-.724-2.79-1.89C77.11,30.495,78.3,29.69,80.14,29.69Zm1.981.831a5.6,5.6,0,0,0-1.981-.331c-1.561,0-2.53.594-2.53,1.55,0,.87.856,1.39,2.29,1.39,1.577,0,2.25-.577,2.25-1.93C82.15,31.046,82.132,30.72,82.121,30.521ZM58,30.23a2.767,2.767,0,0,1,1.988.778A4.427,4.427,0,0,1,61.123,33.2l.063.261-.265.044a7.428,7.428,0,0,1-1.5.143,5.355,5.355,0,0,1-2.359-.49l-.009-.005a1.617,1.617,0,0,1-.923-1.435C56.13,30.815,56.864,30.23,58,30.23Zm2.568,2.827A2.738,2.738,0,0,0,58,30.73c-.858,0-1.37.37-1.37.99a1.114,1.114,0,0,0,.673,1,4.922,4.922,0,0,0,2.117.428A6.194,6.194,0,0,0,60.568,33.057ZM118.29,31.87h2.44v2.38h-2.44Zm1.94.5h-1.44v1.38h1.44Z" transform="translate(1237.821 1630.412) rotate(-11)" fill="#fff"/><path d="M0,73.773H-.006A1,1,0,0,1-1,72.767,73.255,73.255,0,0,1,.555,60.13,104.821,104.821,0,0,1,11.082,30.939C17.223,19.566,22.23,11.6,25.349,6.921,28.741,1.83,30.654-.533,30.734-.631a1,1,0,0,1,1.407-.145A1,1,0,0,1,32.286.631h0c-.019.024-1.951,2.413-5.3,7.439-3.09,4.639-8.053,12.538-14.145,23.819A102.821,102.821,0,0,0,2.516,60.52,72.564,72.564,0,0,0,1,72.778,1,1,0,0,1,0,73.773Z" transform="translate(1377.497 1579.417) rotate(-8)" fill="#fff"/><path d="M0,52H0a1,1,0,0,1-1-1,60.972,60.972,0,0,1,.917-8.883A83.883,83.883,0,0,1,6.126,21.6C13.057,6.315,17.525-.29,17.712-.564A1,1,0,0,1,19.1-.826,1,1,0,0,1,19.364.563h0c-.045.066-4.57,6.764-11.416,21.863A81.854,81.854,0,0,0,1.89,42.438,60.023,60.023,0,0,0,1,51,1,1,0,0,1,0,52Z" transform="matrix(0.995, 0.105, -0.105, 0.995, 1399.622, 1594.888)" fill="#fff"/><path d="M31.51,73.773a1,1,0,0,1-1-.994,72.968,72.968,0,0,0-1.528-12.317,101.94,101.94,0,0,0-3.523-13.039,102.916,102.916,0,0,0-6.791-15.533C6.994,10.271-.7.725-.776.631A1,1,0,0,1-.631-.776,1,1,0,0,1,.776-.631c.08.1,1.992,2.461,5.385,7.552C9.28,11.6,14.287,19.566,20.428,30.939a104.925,104.925,0,0,1,6.936,15.875A103.921,103.921,0,0,1,30.955,60.13,73.256,73.256,0,0,1,32.51,72.767a1,1,0,0,1-.994,1.006Z" transform="translate(1041.969 1647.566) rotate(-23)" fill="#fff"/><path d="M18.539,52a1,1,0,0,1-.827-.436c-.187-.274-4.655-6.879-11.585-22.164A83.883,83.883,0,0,1-.083,8.887,60.971,60.971,0,0,1-1,0,1,1,0,0,1,0-1,1,1,0,0,1,1,0a60.421,60.421,0,0,0,.9,8.612,81.859,81.859,0,0,0,6.05,19.962c6.846,15.1,11.371,21.8,11.416,21.863A1,1,0,0,1,18.539,52Z" transform="translate(1090.667 1700.638) rotate(143)" fill="#fff"/></g></svg>