<svg xmlns="http://www.w3.org/2000/svg" width="39.547" height="37.777" viewBox="0 0 39.547 37.777"><g transform="translate(0.582 0.582)"><g transform="translate(0.418 0.418)"><path d="M18,37.04h0a1.588,1.588,0,0,1-1.272-.554,2.211,2.211,0,0,1-.313-1.859l.006-.035.265-1.586a3.182,3.182,0,0,0,.012-1.142,2.326,2.326,0,0,0-.913-.35,21.114,21.114,0,0,1-11.748-5.4A14.676,14.676,0,0,1-.737,15.5,13.683,13.683,0,0,1,.854,9.111,16.475,16.475,0,0,1,5.137,3.954a22.035,22.035,0,0,1,13.9-4.691,22.04,22.04,0,0,1,13.9,4.691,16.474,16.474,0,0,1,4.284,5.157A13.683,13.683,0,0,1,38.81,15.5a14.555,14.555,0,0,1-4.245,10l-.023.027C30.549,30.122,21.62,35.769,19.423,36.695A3.731,3.731,0,0,1,18,37.04ZM19.035,1.263a21.4,21.4,0,0,0-6.975,1.145A18.468,18.468,0,0,0,6.4,5.507,12.881,12.881,0,0,0,1.263,15.5,11.755,11.755,0,0,0,2.356,20.44,13.839,13.839,0,0,0,5.42,24.668a19.113,19.113,0,0,0,10.673,4.87q.041.005.081.014a3.01,3.01,0,0,1,2.37,1.524l0,.007a4.461,4.461,0,0,1,.125,2.2q0,.019-.006.037s-.222,1.325-.269,1.61v.006l0,.016c.073-.025.158-.057.255-.1,2.015-.849,10.588-6.3,14.347-10.591q.025-.032.052-.062c2.568-2.815,3.764-5.58,3.764-8.7a12.88,12.88,0,0,0-5.135-9.992A20.037,20.037,0,0,0,19.035,1.263Z" transform="translate(-0.263 -0.263)" fill="#fff"/><path d="M7.76,5.159H6.443a.366.366,0,0,0-.365.365V13.7a.365.365,0,0,0,.365.365H7.76a.365.365,0,0,0,.365-.365V5.524a.366.366,0,0,0-.365-.365" transform="translate(7.197 6.018)" fill="#fff"/><path d="M14.954,5.159H13.637a.366.366,0,0,0-.365.365v4.86L9.523,5.321,9.5,5.285l0,0-.021-.023-.007-.007-.021-.016L9.436,5.23l-.021-.014L9.4,5.209,9.386,5.2l-.011,0-.023-.009-.011,0L9.32,5.175l-.014,0-.021,0-.016,0-.021,0-.018,0H7.9a.366.366,0,0,0-.365.365V13.7a.365.365,0,0,0,.365.365H9.219a.365.365,0,0,0,.365-.365V8.846l3.753,5.07a.385.385,0,0,0,.094.089l0,0,.023.014.011.007.016.009.018.007.011,0,.025.007h0a.332.332,0,0,0,.094.014h1.317a.363.363,0,0,0,.365-.365V5.524a.365.365,0,0,0-.365-.365" transform="translate(9.069 6.018)" fill="#fff"/><path d="M8.587,12.021H5.01v-6.5a.365.365,0,0,0-.368-.365H3.325a.365.365,0,0,0-.365.365V13.7a.363.363,0,0,0,.1.253l0,.007,0,0a.371.371,0,0,0,.253.1H8.587a.366.366,0,0,0,.365-.365V12.387a.366.366,0,0,0-.365-.365" transform="translate(3.197 6.018)" fill="#fff"/><path d="M17.132,7.207a.365.365,0,0,0,.365-.365V5.524a.366.366,0,0,0-.365-.365H11.87a.371.371,0,0,0-.253.1l0,0-.007.007a.371.371,0,0,0-.1.253V13.7a.354.354,0,0,0,.1.251l0,.007,0,0a.368.368,0,0,0,.251.1h5.262A.366.366,0,0,0,17.5,13.7V12.387a.368.368,0,0,0-.365-.368H13.555V10.638h3.577a.366.366,0,0,0,.365-.365V8.955a.368.368,0,0,0-.365-.368H13.555V7.207Z" transform="translate(14.162 6.018)" fill="#fff"/></g></g></svg>