<svg xmlns="http://www.w3.org/2000/svg" width="214.342" height="129.922" viewBox="0 0 214.342 129.922"><g transform="translate(-494.703 -845.768)"><path d="M8.32-6.528a5.546,5.546,0,0,1,.064-.96H7.328a8.746,8.746,0,0,1,.048.96H3.12A8.411,8.411,0,0,1,1.7-6.608V-5.6A8.884,8.884,0,0,1,3.12-5.68h9.872a8.645,8.645,0,0,1,1.424.08V-6.608a8.392,8.392,0,0,1-1.44.08ZM5.024-5.44A4.217,4.217,0,0,1,3.9-4.048a6.886,6.886,0,0,1-2.112,1.3A2.875,2.875,0,0,1,2.5-2,8.8,8.8,0,0,0,4.848-3.744a6.406,6.406,0,0,0,1.824,1.3,3.183,3.183,0,0,1,.544-.736A4.612,4.612,0,0,1,5.36-4.32c.176-.24.288-.384.528-.752Zm5.664.032a5.03,5.03,0,0,1-2.16,2.5A2.887,2.887,0,0,1,9.2-2.3a7.867,7.867,0,0,0,1.552-1.552A8.989,8.989,0,0,0,13.808-2.1a2.677,2.677,0,0,1,.528-.8A7.318,7.318,0,0,1,11.2-4.5c.128-.208.192-.3.352-.592ZM8.368-.992h5.056a12.362,12.362,0,0,1,1.648.1V-1.968a11.217,11.217,0,0,1-1.616.1H8.368v-.656a5.449,5.449,0,0,1,.08-1.056H7.328a5.87,5.87,0,0,1,.08,1.056v.656H2.544a10.976,10.976,0,0,1-1.6-.1V-.9a12.362,12.362,0,0,1,1.648-.1H7.408v.88a9.379,9.379,0,0,1-.112,1.5H8.48a9.579,9.579,0,0,1-.112-1.52ZM7.68-11.152a12.393,12.393,0,0,1,.064-1.536,10.831,10.831,0,0,1-1.536.064H2.736a10.155,10.155,0,0,1-1.584-.1v1.056a8.051,8.051,0,0,1,1.52-.1h4.08v3.184c0,.368-.128.464-.608.464a8.419,8.419,0,0,1-1.472-.16,3.086,3.086,0,0,1,.192.864c.432.048.992.08,1.312.08,1.152,0,1.5-.288,1.5-1.232Zm-2.8.8a12.917,12.917,0,0,0-2.336-1.232l-.528.656a10.5,10.5,0,0,1,2.32,1.3Zm9.808-.784a12.688,12.688,0,0,1,.064-1.552,10.294,10.294,0,0,1-1.5.064H9.808a10.825,10.825,0,0,1-1.6-.1v1.056a8.152,8.152,0,0,1,1.52-.1h4.016v3.248c0,.352-.112.448-.576.448A9.767,9.767,0,0,1,11.52-8.24a4.387,4.387,0,0,1,.208.88c.784.064,1.056.08,1.552.08,1.1,0,1.408-.272,1.408-1.216Zm-3.008.88a9.439,9.439,0,0,0-2.176-1.2l-.5.624a8.861,8.861,0,0,1,2.176,1.248Zm-5.616.272a19.1,19.1,0,0,1-4.8,1.7l.352.96c.32-.144.528-.224.672-.288A31.3,31.3,0,0,0,6.112-9.184Zm6.992-.128A17.333,17.333,0,0,1,8.432-8.528l.384.912c.224-.1.32-.128.64-.24C11.168-8.464,11.9-8.768,13.1-9.3Zm6.3.56v1.984H18.352a7.428,7.428,0,0,1-1.072-.064v.96a7.957,7.957,0,0,1,1.088-.064h.976c-.016.96-.032,1.392-.112,2.192a20.4,20.4,0,0,1-2.32.416l.224,1.072a8.728,8.728,0,0,1,1.184-.336c.384-.1.64-.16.8-.192A5.931,5.931,0,0,1,17.152.24a2.754,2.754,0,0,1,.8.752A8.091,8.091,0,0,0,20.08-3.856c1.072-.288,1.424-.416,2.576-.816v-.9c-1.136.384-1.536.512-2.464.768.048-.736.08-1.2.1-1.936h.928a7.344,7.344,0,0,1,1.056.064v-.96a7.658,7.658,0,0,1-1.088.064H20.3V-9.552h.96a8.949,8.949,0,0,1,1.232.064V-10.5a7.72,7.72,0,0,1-1.28.08h-.288a18.752,18.752,0,0,0,1.136-2.656l-.912-.352a15.318,15.318,0,0,1-1.136,3.008h-1.7a6.531,6.531,0,0,1-1.328-.1v1.056a6.551,6.551,0,0,1,1.312-.1ZM25.376-5.76a12.7,12.7,0,0,1-3.232,2.112l.416,1.056c.192-.128.224-.16.64-.416a22.294,22.294,0,0,0,2.176-1.68V-.464c0,.256-.144.368-.5.368A8.8,8.8,0,0,1,23.12-.32,3.612,3.612,0,0,1,23.408.736a11.41,11.41,0,0,0,1.648.112c.912,0,1.248-.3,1.248-1.168V-11.168a10.466,10.466,0,0,1,.064-1.344,9.483,9.483,0,0,1-1.12.048H23.712a6.1,6.1,0,0,1-1.216-.08v1.056a5.735,5.735,0,0,1,1.12-.08h1.76Zm4.288,0A12.077,12.077,0,0,1,26.72-3.744l.448,1.024c.352-.272.352-.272.624-.464A16.944,16.944,0,0,0,29.664-4.7V-.5c0,.3-.128.4-.512.4a8.156,8.156,0,0,1-1.7-.24A3.7,3.7,0,0,1,27.744.736a11.828,11.828,0,0,0,1.632.112c.9,0,1.248-.32,1.248-1.168V-11.168a10.308,10.308,0,0,1,.064-1.344,10.717,10.717,0,0,1-1.152.048H28a6.2,6.2,0,0,1-1.216-.08v1.056a5.81,5.81,0,0,1,1.136-.08h1.744ZM17.52-13.04a10.9,10.9,0,0,1,1.088,2.4l.864-.352a14.341,14.341,0,0,0-1.12-2.4ZM22.8-9.92a12.662,12.662,0,0,1,1.3,3.088l.8-.416a16.841,16.841,0,0,0-1.28-3.056Zm4.208.016a12.555,12.555,0,0,1,1.3,3.1l.8-.416a16.378,16.378,0,0,0-1.3-3.088Zm13.856-.7a4.6,4.6,0,0,1,1.856.4,4.218,4.218,0,0,1,2.544,4.016,4.83,4.83,0,0,1-2.832,4.48A9.591,9.591,0,0,1,39.76-.96,2.542,2.542,0,0,1,40.32.112a12.378,12.378,0,0,0,2.432-.736,5.826,5.826,0,0,0,3.664-5.52,5.356,5.356,0,0,0-1.552-3.9,6.194,6.194,0,0,0-4.4-1.584A6.683,6.683,0,0,0,35.3-9.5a6.656,6.656,0,0,0-1.68,4.416c0,2.24,1.136,3.9,2.656,3.9,1.152,0,2.1-.96,3.024-3.072A23.984,23.984,0,0,0,40.864-10.608Zm-1.152.016a21.976,21.976,0,0,1-1.456,5.92c-.688,1.568-1.328,2.32-2,2.32-.864,0-1.536-1.184-1.536-2.72A5.533,5.533,0,0,1,37.328-9.84,5.053,5.053,0,0,1,39.712-10.592ZM55.984-4.32a4.058,4.058,0,0,1-.048.736,4.382,4.382,0,0,1-1.008,2.352A5.122,5.122,0,0,1,52.3.368a1.951,1.951,0,0,1,.608.9A5.615,5.615,0,0,0,56.7-2.592a7.235,7.235,0,0,0,.272-1.728h1.776v4.1c0,.928.384,1.136,2.064,1.136,1.1,0,1.632-.1,1.92-.336.336-.272.512-.928.624-2.176a2.89,2.89,0,0,1-.944-.464,4.957,4.957,0,0,1-.24,1.728c-.1.272-.352.32-1.376.32-.944,0-1.088-.064-1.088-.512V-4.32H61.6a9.719,9.719,0,0,1,1.44.1v-1.04a6.942,6.942,0,0,1-1.376.1h-.7V-7.152h.992a8.554,8.554,0,0,1,1.344.1V-8.128a8.27,8.27,0,0,1-1.344.1H60.96v-.72a4.861,4.861,0,0,1,.064-.912H59.968a4.971,4.971,0,0,1,.064.912v.72H56.144v-.72a4.754,4.754,0,0,1,.064-.912H55.152a5.2,5.2,0,0,1,.064.912v.72h-.56a7.308,7.308,0,0,1-1.328-.08v1.04a7.863,7.863,0,0,1,1.328-.08h.56v1.984h-.528a7.22,7.22,0,0,1-1.312-.08V-4.24A8.645,8.645,0,0,1,54.8-4.32Zm.16-.848V-7.152h3.888v1.984Zm-5.088-8.064a9.077,9.077,0,0,1,.112,1.952c0,1.408-.064,3.376-.144,4.624a15.665,15.665,0,0,1-.5,3.216A8.476,8.476,0,0,1,48.64.224a2.527,2.527,0,0,1,.72.816,10.28,10.28,0,0,0,2.112-4.288A10.679,10.679,0,0,0,53.2-.976a3.557,3.557,0,0,1,.592-.912A7.955,7.955,0,0,1,51.728-4.48,23.127,23.127,0,0,0,52-7.184a15.58,15.58,0,0,0,2.048-2.592l-.752-.56a8.719,8.719,0,0,1-1.232,1.968c.032-.752.048-1.264.048-1.952a17.267,17.267,0,0,1,.112-2.912Zm6.512,2.656v.912A6.166,6.166,0,0,1,57.5-8.608h1.04a5.934,5.934,0,0,1-.064-1.056v-.912h2.7a8.907,8.907,0,0,1,1.392.1v-1.072a9.272,9.272,0,0,1-1.408.1H58.48v-.512a6.956,6.956,0,0,1,.1-1.28h-1.1a7.078,7.078,0,0,1,.1,1.28v.512h-2.16a8.527,8.527,0,0,1-1.424-.08v1.04a8.884,8.884,0,0,1,1.424-.08ZM49.584-5.632a14.016,14.016,0,0,0,.624-4.448l-.88-.1A19.687,19.687,0,0,1,48.72-6Zm16.9-3.68a8.731,8.731,0,0,1,.992-.048,34.039,34.039,0,0,0,4.32-.288c.4.864.5,1.04.912,1.824a31.874,31.874,0,0,1-5.04.4,12.435,12.435,0,0,1-1.28-.048l.032,1.056c.288-.032.352-.032,1.12-.064a33.334,33.334,0,0,0,5.616-.464A14.665,14.665,0,0,0,74.864-4.48a9.618,9.618,0,0,0-3.232-.464c-3.04,0-4.88,1.04-4.88,2.768a2.235,2.235,0,0,0,1.2,1.984,6.456,6.456,0,0,0,3.3.672,13.936,13.936,0,0,0,4.1-.592,9.317,9.317,0,0,1,.96-.272L76.08-1.632A10.786,10.786,0,0,1,71.344-.56c-2.192,0-3.408-.576-3.408-1.632,0-1.1,1.488-1.824,3.792-1.824a16.176,16.176,0,0,1,2.1.144,4.338,4.338,0,0,1,1.76.608l.944-.672A18.754,18.754,0,0,1,74.176-7.12c.592-.112,1.392-.288,2.512-.576.528-.144.592-.144.864-.208l-.128-1.072a16.276,16.276,0,0,1-3.664.992c-.24-.432-.672-1.28-.912-1.808.9-.144,2.608-.512,4.032-.9l-.1-1.04a20.241,20.241,0,0,1-4.272,1.056,13.325,13.325,0,0,1-.848-2.256l-1.2.208a20.718,20.718,0,0,1,.96,2.192,31.613,31.613,0,0,1-3.792.224c-.544,0-.816-.016-1.2-.048Zm17.936-2.544a9.562,9.562,0,0,1-1.28-.064,10.16,10.16,0,0,1,.064,1.248v6.1a12.275,12.275,0,0,1-.064,1.456c.368-.016.7-.032,1.328-.032h9.1A15.814,15.814,0,0,1,93.2-.9c-.192.768-.416.944-1.216.944A10.986,10.986,0,0,1,90.336-.1,3.374,3.374,0,0,1,90.56.912c.448.032,1.024.064,1.456.064,1.792,0,2.1-.512,2.56-4.24.032-.272.08-.576.128-.784a7.232,7.232,0,0,1-1.216.064h-9.3V-5.2H93.36a10.806,10.806,0,0,1,1.568.1v-1.04a10.27,10.27,0,0,1-1.552.1H84.192V-7.072h7.152c.448,0,.832.016,1.248.048-.032-.352-.048-.688-.048-1.1V-10.9a7.869,7.869,0,0,1,.048-1.024,9.332,9.332,0,0,1-1.312.064H87.3c.208-.32.592-1.024.784-1.392l-1.072-.208a7.264,7.264,0,0,1-.752,1.6Zm-.224,1.984v-1.152h7.36v1.152Zm0,.8h7.36v1.184h-7.36ZM82.416-2.736A7.5,7.5,0,0,1,80.832.48l.864.576a9.061,9.061,0,0,0,1.6-3.424Zm2.208.288a19.043,19.043,0,0,1,.512,3.1L86.16.48a20.874,20.874,0,0,0-.624-3.056ZM87.3-2.464A12.52,12.52,0,0,1,88.24.16l.9-.272a13.459,13.459,0,0,0-1.024-2.56Zm2.688-.112a8.619,8.619,0,0,1,1.008,1.92l.816-.384A9.935,9.935,0,0,0,90.72-2.9Zm10.368-7.584c-.016,1.776-.032,2.112-.1,2.992h-1.52a9.729,9.729,0,0,1-1.728-.1v1.12a9.866,9.866,0,0,1,1.7-.1h1.456A7.431,7.431,0,0,1,96.72-.3a2.834,2.834,0,0,1,.8.832,8.412,8.412,0,0,0,3.2-4.608,12.717,12.717,0,0,0,2.688,3.392,3.246,3.246,0,0,1,.64-.96,9.647,9.647,0,0,1-3.04-3.648c.064-.384.08-.576.128-.944h1.44a9.813,9.813,0,0,1,1.52.1v-1.12a9.394,9.394,0,0,1-1.52.1h-1.36c.08-1.072.08-1.264.112-2.992h1.024c.544,0,1.072.032,1.568.08v-1.1a8.874,8.874,0,0,1-1.568.1h-2.9a9.719,9.719,0,0,0,.416-1.264c.144-.48.176-.608.272-.864l-1.088-.176a3.908,3.908,0,0,1-.144.88,8.236,8.236,0,0,1-2.128,4,2.106,2.106,0,0,1,.784.7,11.017,11.017,0,0,0,1.488-2.352Zm5.28,9.616H109.5V.592h1.12a15.839,15.839,0,0,1-.1-1.936v-8.768a12.106,12.106,0,0,1,.08-1.68,8.979,8.979,0,0,1-1.44.08h-3.2a8.859,8.859,0,0,1-1.44-.08,13.976,13.976,0,0,1,.1,1.68v8.88a14.234,14.234,0,0,1-.1,1.824h1.1Zm0-10.24H109.5v9.312h-3.872Zm9.28,5.456a7.061,7.061,0,0,1,1.712-.528,18.6,18.6,0,0,1,4.208-.64c1.936,0,2.96.784,2.96,2.24,0,1.424-1.1,2.64-2.928,3.232a10.91,10.91,0,0,1-3.152.5,1.217,1.217,0,0,1-.224-.016A3.5,3.5,0,0,1,117.9.56a15.154,15.154,0,0,0,3.3-.608c2.224-.7,3.664-2.336,3.664-4.128a3.5,3.5,0,0,0-.5-1.824,3.66,3.66,0,0,0-3.392-1.488,20.657,20.657,0,0,0-4.88.7,7.511,7.511,0,0,1-1.472.288Zm14.864-3.6a2.382,2.382,0,0,1,.272-.016h.064c.624.032.768.032,1.328.032.592,0,.784,0,1.1-.016A32.179,32.179,0,0,1,129.536-.08l1.168.5a42.159,42.159,0,0,0,1.84-4.88c.432-1.456.88-3.264,1.12-4.528a23.386,23.386,0,0,0,2.7-.384c.32-.064.32-.064.448-.08l-.08-1.1a13.193,13.193,0,0,1-2.88.544c.08-.48.128-.7.208-1.216a15.124,15.124,0,0,1,.288-1.52l-1.264-.128a15.645,15.645,0,0,1-.352,2.944c-.464.032-.64.032-.96.032a11.034,11.034,0,0,1-2-.144Zm12.08.784c-1.2-.048-1.44-.048-1.744-.048a18.127,18.127,0,0,0-4.24.528l.112,1.088a13.926,13.926,0,0,1,4-.544,16.063,16.063,0,0,1,1.888.112Zm-5.824,3.456c-.848,1.088-1.072,1.584-1.072,2.3,0,1.584,1.36,2.4,3.984,2.4a16.033,16.033,0,0,0,2.848-.272c.528-.08.528-.08.7-.112l-.112-1.2a11.888,11.888,0,0,1-3.536.544c-1.824,0-2.8-.512-2.8-1.472a1.926,1.926,0,0,1,.4-1.136,5.362,5.362,0,0,1,.48-.608ZM149.088-11.6a17.82,17.82,0,0,0,2.448,1.008,24.679,24.679,0,0,0,3.12.912l.448-1.12a19.29,19.29,0,0,1-5.424-1.776ZM147.76-9.872a5.38,5.38,0,0,1-.112.848c-.224,1.344-.512,3.2-.672,4.416-.064.512-.08.656-.128.944l1.248.032a2.782,2.782,0,0,1,.64-.656,7.752,7.752,0,0,1,4.48-1.392c1.952,0,3.1.768,3.1,2.08,0,1.632-1.68,2.688-4.32,2.688a11.364,11.364,0,0,1-4.08-.8,3.7,3.7,0,0,1,.112.992,2.524,2.524,0,0,1-.016.3c.976.24.976.24,1.28.32a13.293,13.293,0,0,0,2.8.288A6.641,6.641,0,0,0,156.08-.864a3.421,3.421,0,0,0,1.44-2.752c0-1.872-1.68-3.088-4.288-3.088a7.92,7.92,0,0,0-4.624,1.376,4.482,4.482,0,0,0-.5.48l-.032-.016a1.927,1.927,0,0,0,.064-.368c.048-.368.08-.48.464-2.8a13.391,13.391,0,0,1,.368-1.76ZM2,16.64a1.668,1.668,0,0,1,.5.1,16.865,16.865,0,0,0,2.416.4c-.016.144-.016.144-.032.384a8.46,8.46,0,0,0-.064,1.056,4.339,4.339,0,0,0,.5,2.208,3.981,3.981,0,0,0,3.584,1.6c2.8,0,4.688-1.52,4.688-3.776a4.271,4.271,0,0,0-1.5-3.184,3.167,3.167,0,0,1-1.168.32,3.648,3.648,0,0,1,1.52,2.784c0,1.7-1.392,2.8-3.536,2.8A3.364,3.364,0,0,1,6.64,20.64,2.362,2.362,0,0,1,5.9,18.72c0-.272.032-.8.064-1.184a2.9,2.9,0,0,0,.016-.32c.72.032.976.032,1.376.032a18.463,18.463,0,0,0,2.256-.128c.224-.016.272-.016.432-.032l.032-1.072a13.99,13.99,0,0,1-2.944.256c-.224,0-.448,0-1.056-.016.1-.9.112-1.056.368-2.9.88.032,1.152.032,1.408.032.464,0,.944-.016,1.44-.064.8-.064.8-.064,1.12-.1l.048-1.1a12.983,12.983,0,0,1-2.928.272c-.256,0-.48,0-.928-.016.08-.448.112-.608.16-.96.144-.88.144-.88.16-1.024a8.23,8.23,0,0,1,.256-1.072L5.9,9.184v.128A25.179,25.179,0,0,1,5.52,12.32,10.326,10.326,0,0,1,2.64,11.7L2.5,12.752c.224.048.288.064.5.112a21.26,21.26,0,0,0,2.384.432c-.128.848-.288,2.1-.368,2.88a10.639,10.639,0,0,1-2.864-.64Zm18.432-6.16a29.128,29.128,0,0,0,6.72,1.056l.176-1.152a20.19,20.19,0,0,1-6.512-.992Zm-1.664,5.2a22.343,22.343,0,0,1,6.1-1.072,4.456,4.456,0,0,1,1.968.352,1.941,1.941,0,0,1,1.024,1.792,3.582,3.582,0,0,1-.816,2.176,3.917,3.917,0,0,1-1.376,1.136,10.157,10.157,0,0,1-4.5,1.3,4.06,4.06,0,0,1,.512,1.168,12.289,12.289,0,0,0,4.64-1.52,5.1,5.1,0,0,0,2.752-4.32,2.846,2.846,0,0,0-1.36-2.544,5.088,5.088,0,0,0-2.752-.608,26.734,26.734,0,0,0-4.88.576,12.589,12.589,0,0,1-1.616.272ZM39.168,9.1a7.356,7.356,0,0,1,.08,1.3c.016,2.288.128,5.376.256,7.216v.1a.443.443,0,0,1,.016.144c-.048-.032-.048-.032-.08-.032-.064,0-.064-.016-.144-.032a6.9,6.9,0,0,0-1.392-.144c-2.272,0-3.76.992-3.76,2.528,0,1.472,1.264,2.368,3.328,2.368a3.381,3.381,0,0,0,2.848-1.1,2.866,2.866,0,0,0,.4-1.616,4.572,4.572,0,0,0-.064-.688,3.107,3.107,0,0,0,.384.176,16.1,16.1,0,0,1,2.16,1.232,7.081,7.081,0,0,1,1.664,1.392l.752-1.12a7.333,7.333,0,0,1-.736-.5,13.829,13.829,0,0,0-4.272-2.272c-.08-1.024-.16-2.576-.208-4.128a27.624,27.624,0,0,0,3.856-.352,8.9,8.9,0,0,1,.96-.112l-.144-1.184a15.926,15.926,0,0,1-4.688.608c-.032-1.136-.032-1.312-.032-1.664a11.482,11.482,0,0,1,.1-2.112Zm.368,9.776a8.55,8.55,0,0,1,.048.88,1.484,1.484,0,0,1-.384,1.2,2.7,2.7,0,0,1-1.776.528,2.582,2.582,0,0,1-1.92-.64,1.086,1.086,0,0,1-.24-.688c0-.928.992-1.5,2.624-1.5A5.449,5.449,0,0,1,39.536,18.88ZM51.52,11.216c.32-.032.384-.032.992-.064a38.77,38.77,0,0,0,5.008-.384,5.294,5.294,0,0,0-.528.448,33.928,33.928,0,0,1-5.312,4.128,21.171,21.171,0,0,1-2.8.32h-.112L48.9,16.88a41.074,41.074,0,0,1,4.72-.72c.912-.112,2.336-.3,2.608-.336.656-.112.656-.112.88-.144-2.3,1.008-3.488,2.272-3.488,3.7a2.605,2.605,0,0,0,.944,2.016,6.564,6.564,0,0,0,4.032,1.04c.816.016.816.016,1.088.032l-.048-1.232a5.736,5.736,0,0,1-1.088.1c-2.432,0-3.808-.752-3.808-2.064a2.022,2.022,0,0,1,.512-1.328,5.656,5.656,0,0,1,2-1.52,10.628,10.628,0,0,1,4.4-.864H62l-.112-1.12a2.164,2.164,0,0,1-.464.064c-.32.032-.8.08-1.456.128-1.216.112-2.192.208-2.848.256a37.081,37.081,0,0,0-3.84.432,31.1,31.1,0,0,0,5.248-4.08,5.2,5.2,0,0,1,.784-.672l-.672-.848a3.122,3.122,0,0,1-.9.192c-1.136.128-3.44.224-4.88.224a12.5,12.5,0,0,1-1.44-.064Zm15.1-1.7A8.909,8.909,0,0,1,66.4,10.8a26.469,26.469,0,0,0-.72,6.336,22.932,22.932,0,0,0,.416,4.528c.048.3.064.384.1.64l1.152-.1v-.24a13.947,13.947,0,0,1,1.3-4.4l-.768-.368a14.865,14.865,0,0,0-1.04,3.12c-.064-.848-.1-1.792-.1-3.04a23.653,23.653,0,0,1,.48-5.008,22.735,22.735,0,0,1,.672-2.56Zm3.3,3.024a21.311,21.311,0,0,0,2.56.16,27.01,27.01,0,0,0,3.44-.208q1.056-.144,1.1-.144l-.08-1.136a17.169,17.169,0,0,1-4.288.432,10.867,10.867,0,0,1-2.72-.24Zm1.168,3.12A4.42,4.42,0,0,0,69.7,18.64a2.262,2.262,0,0,0,.48,1.472c.688.832,1.84,1.216,3.664,1.216a16.507,16.507,0,0,0,3.28-.32c.32-.048.352-.064.56-.08L77.52,19.7a10.53,10.53,0,0,1-3.68.56c-2.064,0-3.072-.576-3.072-1.76a3.717,3.717,0,0,1,1.2-2.352Zm14.3-1.92h.064a.735.735,0,0,1,.16.016,2.382,2.382,0,0,1,.272.016,4.2,4.2,0,0,1,.512.032c.56.032,1.152.048,1.808.048.608,0,1.1-.016,1.824-.048.048,2.336.112,3.84.16,4.176a4.52,4.52,0,0,0-1.776-.32c-1.776,0-3.04.944-3.04,2.272,0,1.392,1.168,2.272,3.024,2.272a2.732,2.732,0,0,0,2.672-1.344,2.758,2.758,0,0,0,.192-1.088,2.3,2.3,0,0,0-.032-.416,1.123,1.123,0,0,1,.144.1,1.027,1.027,0,0,0,.16.1,8.646,8.646,0,0,1,2.272,1.664l.5-1.12c-.176-.112-.208-.144-.4-.272a11.582,11.582,0,0,0-2.672-1.568c-.128-2.128-.16-2.944-.176-4.528a15.3,15.3,0,0,0,1.7-.256c1.088-.224,1.088-.224,1.12-.224l-.048-1.088a10.905,10.905,0,0,1-2.768.592c-.016-.352-.016-.608-.016-.784a16.371,16.371,0,0,1,.112-2.512h-1.2a3.549,3.549,0,0,1,.048.656c0,1.216,0,1.216.016,2.72-.656.032-1.088.048-1.712.048a11.076,11.076,0,0,1-2.88-.256Zm4.816,5.216s.016.368.016.48a1.869,1.869,0,0,1-.3,1.248,2.205,2.205,0,0,1-1.632.56c-1.12,0-1.856-.512-1.856-1.3,0-.8.816-1.328,2.064-1.328A4.133,4.133,0,0,1,90.208,18.96ZM82.56,9.44a7.369,7.369,0,0,1-.176,1.008,27.11,27.11,0,0,0-.832,6.576A25.47,25.47,0,0,0,82,21.776c.064.368.08.448.1.592l1.136-.112a1.743,1.743,0,0,1-.032-.32,13.817,13.817,0,0,1,1.376-4.544l-.784-.368a2.207,2.207,0,0,1-.128.32,14.2,14.2,0,0,0-.944,2.816l-.064-.016v-.3c-.016-.288-.016-.32-.016-.448-.032-.736-.064-1.68-.064-2.24a22.8,22.8,0,0,1,1.232-7.5Zm26.1,8.8a11.531,11.531,0,0,1,1.616.1V17.264a10.333,10.333,0,0,1-1.616.1h-4.128c.048-.32.08-.56.1-.8a6.476,6.476,0,0,1,.1-.992h-1.152a4.129,4.129,0,0,1,.064.64,8.646,8.646,0,0,1-.112,1.152h-2.784a9.331,9.331,0,0,1-1.536-.08v1.04a10.461,10.461,0,0,1,1.536-.08h2.608a4.4,4.4,0,0,1-2.272,2.752,10.675,10.675,0,0,1-2.864,1.04,3.344,3.344,0,0,1,.528.992,10.408,10.408,0,0,0,3.456-1.616,5.614,5.614,0,0,0,1.984-2.688,6.479,6.479,0,0,0,2.192,2.688,11.048,11.048,0,0,0,3.792,1.648A3.549,3.549,0,0,1,110.64,22a11.849,11.849,0,0,1-1.92-.5,9.044,9.044,0,0,1-1.808-.88A5.292,5.292,0,0,1,104.9,18.24Zm1.792-8.976a13.359,13.359,0,0,1-1.792.1H98.4a13.5,13.5,0,0,1-1.76-.1v1.1a13.4,13.4,0,0,1,1.76-.08h10.256a12.912,12.912,0,0,1,1.792.08Zm-2.624,5.84a12.817,12.817,0,0,1,1.5.064,7.788,7.788,0,0,1-.048-1.1v-1.5a7.222,7.222,0,0,1,.048-1.088,11.653,11.653,0,0,1-1.5.064H99.648c-.752,0-1.28-.016-1.76-.064.032.432.064.9.064,1.472,0,5.392-.384,7.152-2.016,9.392a3.989,3.989,0,0,1,.848.688C98.336,20.8,98.8,19.04,98.912,15.1Zm-8.88-.864c0-.3.016-.48.016-.928V12.4h9.328v1.84Zm14.336,5.776a3.391,3.391,0,0,1,.416-.512c.272-.3.5-.56.672-.752.544-.608.544-.608.784-.88a1.777,1.777,0,0,0,.288-.384h.032c-.048.72-.048.72-.048,2.592a13.68,13.68,0,0,1-.112,2.64h1.248a24.806,24.806,0,0,1-.048-2.656V16.608a25.945,25.945,0,0,1,3.088-2.72,4.555,4.555,0,0,1,2.416-1.088.811.811,0,0,1,.88.864,11.993,11.993,0,0,1-.4,2.4,15.543,15.543,0,0,0-.608,3.728,1.842,1.842,0,0,0,1.872,2.16,2.754,2.754,0,0,0,2.208-1.152,7.9,7.9,0,0,0,.992-1.584,5.266,5.266,0,0,1-.736-1.088,6.584,6.584,0,0,1-.912,1.84,1.929,1.929,0,0,1-1.36.88c-.624,0-.96-.4-.96-1.136a17.6,17.6,0,0,1,.688-3.792,10.687,10.687,0,0,0,.368-2.336,1.739,1.739,0,0,0-1.872-1.872,6.431,6.431,0,0,0-3.616,1.76,11.421,11.421,0,0,0-2.032,1.872l-.032-.016c0-.1.016-.128.016-.256a.816.816,0,0,0,.016-.144c.016-.752.016-.752.032-1.072a2.727,2.727,0,0,0,.016-.4,5.514,5.514,0,0,1,.816-.992l-.416-.5a1.045,1.045,0,0,1-.32.08,18.623,18.623,0,0,1,.192-2.848l-1.264-.016a6.513,6.513,0,0,1,.048.8c0,.208-.016.928-.064,2.144-1.344.08-2.048.128-2.1.128a3.237,3.237,0,0,1-.5-.032l.064,1.1a16.3,16.3,0,0,1,2.512-.224c-.048,1.408-.08,2.416-.1,3.056a24.569,24.569,0,0,1-2.816,2.7ZM132.8,9.024a16.463,16.463,0,0,1-.544,3.008c-.3,0-.832.016-1.152.016a10.111,10.111,0,0,1-1.9-.128l-.016,1.1h.208c.048,0,.176,0,.352.016.24,0,.784.016,1.056.016.24,0,.784-.016,1.184-.032a23.957,23.957,0,0,1-1.664,4.128,14.126,14.126,0,0,1-1.536,2.5l1.088.64c.08-.128.176-.32.32-.544.608-1.056.752-1.328,1.136-2.1a29.81,29.81,0,0,0,1.776-4.672,19.316,19.316,0,0,0,2.624-.336c.384-.064.384-.064.56-.1l-.048-1.1a13.314,13.314,0,0,1-2.864.528c.224-.816.32-1.2.432-1.744a5.011,5.011,0,0,1,.256-1.024Zm9.424,4.416A22.053,22.053,0,0,0,138,11.328l-.592.9a17.353,17.353,0,0,1,4.24,2.176Zm.032,7.088a1.619,1.619,0,0,1-.288-.256,11.493,11.493,0,0,0-3.136-1.936,19.085,19.085,0,0,1-.176-2.432,4.911,4.911,0,0,1,.208-1.488l-1.088-.112a6.478,6.478,0,0,0-.16,1.552c0,.4.032,1.152.112,2.192a5.28,5.28,0,0,0-1.616-.24,4.676,4.676,0,0,0-1.888.352,2.269,2.269,0,0,0-1.488,2.032c0,1.424,1.2,2.32,3.12,2.32,1.952,0,3.04-.912,3.04-2.56a3.317,3.317,0,0,0-.032-.512,9.152,9.152,0,0,1,2.8,2.176Zm-4.448-1.456s.032.5.032.688c0,1.2-.624,1.744-2,1.744-1.264,0-2.032-.5-2.032-1.312,0-.88.864-1.44,2.224-1.44A4.748,4.748,0,0,1,137.808,19.072Zm7.888-8.416a8.658,8.658,0,0,1,.048.944c.08,3.936.3,5.984.864,7.5.544,1.536,1.376,2.432,2.272,2.432,1.136,0,1.872-1.072,2.656-3.872a5.114,5.114,0,0,1-.944-.912,11.512,11.512,0,0,1-.832,2.736c-.24.528-.512.8-.8.8-.608,0-1.264-1.1-1.616-2.736a27.4,27.4,0,0,1-.416-4.976,11.6,11.6,0,0,1,.112-1.9Zm8.1,1.36A14.131,14.131,0,0,1,157.12,19.9l1.136-.464a15.32,15.32,0,0,0-1.2-4.272,13.888,13.888,0,0,0-2.288-3.648Zm14.32,6.992c-.032-.4-.048-.688-.048-.976,0-.064,0-.064.016-.736l.128-5.7c.016-.672.048-1.152.1-1.76H166.72c.064.608.08,1.088.1,1.76l.144,5.7v.576c0,.528,0,.64-.032,1.136ZM168.3,22V20.5h-1.552V22Z" transform="matrix(0.978, -0.208, 0.208, 0.978, 514.757, 919.244)" fill="#fff"/><path d="M20.987-13.756l1.395.538-.083.23-.052.144.294.053a5.85,5.85,0,0,0,1.171.076h1.536a9.389,9.389,0,0,0,1.091-.046l.2-.023v-.058l.293.051A5.966,5.966,0,0,0,28-12.714h1.536a10.4,10.4,0,0,0,1.127-.047l.314-.031-.041.312a10.048,10.048,0,0,0-.062,1.312V-.32c0,.981-.462,1.418-1.5,1.418A12.155,12.155,0,0,1,27.71.984L27.52.957,27.5.767a3.469,3.469,0,0,0-.271-1.009l-.18-.442.466.1a7.924,7.924,0,0,0,1.642.234c.2,0,.245-.032.247-.034h0A.269.269,0,0,0,29.414-.5v-3.64c-.424.37-.933.769-1.477,1.156-.268.189-.268.189-.616.458l-.253.2L26.554-3.5V-.32c0,.994-.448,1.418-1.5,1.418A11.621,11.621,0,0,1,23.374.984L23.185.957,23.16.768a3.378,3.378,0,0,0-.27-.991L22.7-.66l.465.1a8.437,8.437,0,0,0,1.71.219c.246,0,.246-.042.246-.118V-4.146A22.119,22.119,0,0,1,23.34-2.8l-.009.006c-.3.187-.4.25-.5.324l-.129.087-.258.172L21.817-3.8l.242-.087a12.379,12.379,0,0,0,3.067-1.992v-1.21l-1.184.616-.086-.292a12.347,12.347,0,0,0-1.11-2.743v.3l-.281-.035a8.688,8.688,0,0,0-1.2-.062h-.71v1.484h.63a7.368,7.368,0,0,0,1.051-.061l.287-.043v1.541l-.287-.043a6.986,6.986,0,0,0-1.019-.061h-.684c-.014.492-.036.872-.067,1.351.709-.2,1.13-.338,2.112-.669l.33-.112v1.422l-.376.131c-.944.328-1.329.462-2.224.705A8.249,8.249,0,0,1,18.137,1.16l-.2.221-.182-.236a2.526,2.526,0,0,0-.739-.7L16.75.276l.23-.218A5.513,5.513,0,0,0,18.8-3.255l-.423.105a8.472,8.472,0,0,0-1.157.328l-.273.1L16.61-4.352l.279-.025A18.787,18.787,0,0,0,19-4.749c.056-.6.075-1.008.089-1.737h-.722a7.647,7.647,0,0,0-1.053.061l-.285.041V-7.922l.287.043a7.123,7.123,0,0,0,1.035.061h.758V-9.3H18.3a6.314,6.314,0,0,0-1.268.092l-.294.053v-1.657l.3.057a6.333,6.333,0,0,0,1.281.092h.016a10.538,10.538,0,0,0-1.03-2.246l-.147-.246,1.3-.55.11.192a14.592,14.592,0,0,1,1.137,2.436l.086.228-.457.186h.526a15.048,15.048,0,0,0,1.051-2.827Zm.758.829-.429-.166A14.963,14.963,0,0,1,20.24-10.3l-.069.138H18.32a8.017,8.017,0,0,1-1.078-.052v.47A7.579,7.579,0,0,1,18.3-9.8H19.61v2.484H18.352c-.313,0-.584-.011-.822-.033v.4c.247-.022.528-.034.838-.034H19.6l0,.254c-.016.989-.034,1.423-.113,2.213l-.018.18-.177.039c-.886.2-1.569.325-2.073.39l.109.524c.186-.059.431-.125.938-.249.388-.1.645-.161.81-.194l.357-.071-.062.359A6.166,6.166,0,0,1,17.543.209a2.622,2.622,0,0,1,.418.4,7.879,7.879,0,0,0,1.872-4.492l.021-.167.162-.044c1-.268,1.365-.4,2.351-.739l.04-.014v-.37c-.9.3-1.316.431-2.148.661l-.339.093.03-.459c.044-.676.073-1.123.088-1.817l.005-.245h1.173c.3,0,.571.011.806.032v-.4c-.24.022-.517.033-.838.033h-1.13V-9.8h1.21c.415,0,.7.009.982.035v-.444a8.779,8.779,0,0,1-1.03.045h-.709l.2-.37A17.318,17.318,0,0,0,21.745-12.927Zm-2.594,1.8a13.542,13.542,0,0,0-.907-1.944l-.365.154a10.67,10.67,0,0,1,.88,1.949Zm3.095-.055v-1.655a20.519,20.519,0,0,1-.905,2.174,7.08,7.08,0,0,0,1.118-.077l.287-.042v.615l.982-.462.11.215A17.141,17.141,0,0,1,25.126-7.35v-3.968h-1.51a5.516,5.516,0,0,0-1.073.076Zm7.29-1.028H28a7.957,7.957,0,0,1-.966-.04v.475a7.806,7.806,0,0,1,.886-.038h1.994v6.169l-.083.075a13.764,13.764,0,0,1-2.78,1.963l.218.5c.131-.1.191-.142.379-.275a16.609,16.609,0,0,0,1.842-1.5l.424-.41V-.5c0,.65-.554.65-.762.65A7.007,7.007,0,0,1,27.845,0a3.539,3.539,0,0,1,.119.512A11.686,11.686,0,0,0,29.376.6c.765,0,1-.214,1-.918V-11.168c0-.449.01-.783.034-1.07C30.155-12.221,29.891-12.214,29.536-12.214Zm-4.288,0H23.712a8.137,8.137,0,0,1-.966-.039v.474a7.422,7.422,0,0,1,.87-.039h2.01v6.173l-.087.075a14.05,14.05,0,0,1-3.071,2.062l.211.535c.083-.055.195-.127.386-.244a22.038,22.038,0,0,0,2.147-1.658l.414-.361V-.464c0,.282-.129.618-.746.618A7.554,7.554,0,0,1,23.509.01a3.566,3.566,0,0,1,.119.5A11.131,11.131,0,0,0,25.056.6c.783,0,1-.2,1-.918V-11.168c0-.448.01-.775.034-1.068C25.859-12.221,25.591-12.214,25.248-12.214Zm4.166.9H27.92a5.621,5.621,0,0,0-1.087.075l-.279.056v7.236l.083-.029a11.683,11.683,0,0,0,2.777-1.892Zm-4.82,3.945a15.876,15.876,0,0,0-1.09-2.6l-.354.166a12.347,12.347,0,0,1,1.1,2.615Zm62.244-6.371,1.618.314-.155.3c-.142.273-.368.69-.563,1.026H91.28a9.107,9.107,0,0,0,1.28-.062l.316-.041-.035.317a7.582,7.582,0,0,0-.046,1v2.768c0,.391.014.724.047,1.081l.027.295-.295-.023c-.425-.033-.8-.047-1.229-.047h-6.9V-6.3h8.934a10.044,10.044,0,0,0,1.517-.093l.285-.041v1.618l-.287-.042A10.568,10.568,0,0,0,93.36-4.95H84.442v.716h9.046a7.064,7.064,0,0,0,1.175-.061l.369-.061-.084.364c-.043.187-.09.477-.123.757A10.441,10.441,0,0,1,94.008.383c-.425.705-1.052.843-1.992.843-.495,0-1.136-.04-1.474-.065l-.214-.015L90.311.933a3.133,3.133,0,0,0-.21-.944L89.961-.4l.409.056A10.8,10.8,0,0,0,91.984-.2c.682,0,.81-.1.973-.755A15.027,15.027,0,0,0,93.292-2.9H91.023a10.056,10.056,0,0,1,1.011,1.756l.106.226-1.286.605-.1-.252a8.362,8.362,0,0,0-.983-1.871l-.164-.248.5-.215H88.273l.06.113a13.624,13.624,0,0,1,1.042,2.6l.076.241L88.064.475,88,.223a12.239,12.239,0,0,0-.928-2.58l-.13-.274L88-2.9H84.464c-.589,0-.918.014-1.266.03l-.344.015.034-.291a12.019,12.019,0,0,0,.062-1.427v-6.1a9.813,9.813,0,0,0-.062-1.217l-.04-.317.318.038a9.292,9.292,0,0,0,1.25.062h1.7a6.926,6.926,0,0,0,.654-1.427Zm.863.677-.527-.1a7.554,7.554,0,0,1-.706,1.446l-.073.118H84.416c-.427,0-.712-.009-1-.034.023.282.034.6.034.968v6.1c0,.505-.011.868-.037,1.194.279-.011.585-.02,1.051-.02h9.378l-.025.273a16.258,16.258,0,0,1-.375,2.3C93.223.044,92.9.3,91.984.3A9.346,9.346,0,0,1,90.7.2a3.24,3.24,0,0,1,.092.473c.347.023.837.049,1.229.049,1.561,0,1.845-.273,2.312-4.021.019-.159.041-.318.066-.464-.225.018-.5.025-.906.025H83.942V-5.45H93.36a12.24,12.24,0,0,1,1.318.062V-5.86a11.247,11.247,0,0,1-1.3.062H83.942V-7.322h7.4c.339,0,.65.009.976.029-.018-.269-.026-.536-.026-.835V-10.9c0-.34.006-.55.02-.742-.276.024-.574.032-1.034.032H86.835l.251-.386C87.24-12.228,87.5-12.691,87.7-13.067ZM91.474-1.159a9.2,9.2,0,0,0-.84-1.427l-.28.122A8.341,8.341,0,0,1,91.127-1Zm-2.653.882a12.742,12.742,0,0,0-.839-2.1L87.65-2.3a12.124,12.124,0,0,1,.765,2.142Zm9.985-13.408,1.679.272-.107.286c-.071.189-.106.308-.183.569l-.082.276c-.092.344-.171.613-.293.946h2.532a8.524,8.524,0,0,0,1.525-.092l.293-.051V-9.8l-.274-.027c-.548-.053-1.053-.079-1.544-.079h-.779v.028c-.025,1.345-.031,1.659-.088,2.464h1.091a9.166,9.166,0,0,0,1.479-.093l.291-.049v1.708l-.289-.046a9.578,9.578,0,0,0-1.48-.093h-1.22l-.009.074c-.023.186-.042.348-.079.577A9.328,9.328,0,0,0,104.2-1.847l.175.133v-8.4a13.8,13.8,0,0,0-.094-1.651l-.038-.323.322.046a8.6,8.6,0,0,0,1.4.077h3.2a8.707,8.707,0,0,0,1.4-.077l.327-.047-.044.327a11.772,11.772,0,0,0-.078,1.647v8.768a15.542,15.542,0,0,0,.094,1.9l.039.284h-1.657V-.294h-3.372V.842H104.24l.041-.285a14,14,0,0,0,.093-1.789v-.4l-.145.153a3.011,3.011,0,0,0-.6.9l-.147.306-.248-.232a12.382,12.382,0,0,1-2.446-2.976,8.635,8.635,0,0,1-3.115,4.2l-.213.17L97.312.667a2.592,2.592,0,0,0-.741-.77l-.278-.205.282-.2a7.139,7.139,0,0,0,3.3-5.482H98.7a9.7,9.7,0,0,0-1.656.093l-.29.047V-7.559l.291.049c.157.026.307.045.466.059l-.151-.211a1.871,1.871,0,0,0-.709-.635l-.265-.159.211-.226a8.017,8.017,0,0,0,2.068-3.889,3.659,3.659,0,0,0,.137-.82Zm1,.669-.525-.085c-.024.18-.068.378-.13.646a8.449,8.449,0,0,1-1.987,3.892,2.009,2.009,0,0,1,.4.348,10.339,10.339,0,0,0,1.264-2.055l.069-.14h1.7l0,.252c-.016,1.751-.031,2.109-.1,3.008l-.017.232H98.736a12.208,12.208,0,0,1-1.478-.057v.544A11.949,11.949,0,0,1,98.7-6.49h1.736l-.032.279A7.608,7.608,0,0,1,97.135-.3a2.712,2.712,0,0,1,.435.461,8.069,8.069,0,0,0,2.91-4.316l.161-.547.293.49a12.368,12.368,0,0,0,2.4,3.109,3.093,3.093,0,0,1,.346-.515,9.891,9.891,0,0,1-2.9-3.564l-.04-.075.014-.084c.044-.263.065-.438.09-.639.011-.089.022-.185.037-.3l.028-.218h1.66a11.494,11.494,0,0,1,1.27.06v-.547a11.3,11.3,0,0,1-1.27.059h-1.629l.02-.269c.075-1.006.079-1.232.106-2.7l.01-.519h1.269c.424,0,.857.019,1.318.057V-10.9a11.291,11.291,0,0,1-1.318.057H99.087l.137-.343a9.47,9.47,0,0,0,.407-1.236l0-.007.083-.278C99.754-12.832,99.783-12.929,99.81-13.017ZM110.344.342c-.042-.443-.066-1.038-.066-1.686v-8.768c0-.564.008-.985.046-1.393a10.938,10.938,0,0,1-1.156.043h-3.2a10.783,10.783,0,0,1-1.158-.043c.043.456.064.906.064,1.393v8.88c0,.606-.023,1.152-.065,1.574h.573V-.794h4.372V.342ZM100.1-9.91h-.888a11.181,11.181,0,0,1-1.446,2.256l-.164.209c.3.022.646.027,1.135.027h1.287C100.071-8.108,100.086-8.536,100.1-9.91ZM57.175-13.5h1.7l-.054.295a6.786,6.786,0,0,0-.092,1.235v.262h2.438a8.992,8.992,0,0,0,1.373-.093l.285-.041v1.652l-.288-.044a8.632,8.632,0,0,0-1.354-.093H58.73v.662a5.675,5.675,0,0,0,.06,1.01l.056.3H57.206l.052-.293a5.894,5.894,0,0,0,.06-1.013v-.662h-1.91a8.552,8.552,0,0,0-1.386.077l-.158.024.523.389-.131.2c-.34.513-.62.915-.9,1.277l.012,0a7.085,7.085,0,0,0,1.287.077h.31v-.47a4.919,4.919,0,0,0-.061-.871l-.049-.291h1.649l-.052.293a4.523,4.523,0,0,0-.06.869v.47h3.388v-.47a4.679,4.679,0,0,0-.06-.866l-.056-.3h1.655l-.052.293a4.641,4.641,0,0,0-.06.869v.47h.742a8.022,8.022,0,0,0,1.307-.093l.287-.042v1.652l-.287-.042A8.368,8.368,0,0,0,61.952-6.9H61.21v1.484h.454a6.73,6.73,0,0,0,1.33-.092l.3-.055v1.629L63-3.977a9.462,9.462,0,0,0-1.4-.093H59.962V-.528c0,.176.023.187.046.2a2.737,2.737,0,0,0,.792.064c.924,0,1.1-.049,1.14-.153l.006-.015a4.828,4.828,0,0,0,.22-1.634l.009-.494.392.3a2.652,2.652,0,0,0,.868.424l.191.061-.018.2C63.486-.205,63.285.453,62.893.77c-.342.285-.906.392-2.077.392C59.184,1.162,58.5.969,58.5-.224V-4.07H57.207a6.817,6.817,0,0,1-.263,1.547A5.881,5.881,0,0,1,53,1.5l-.239.093-.087-.241a1.707,1.707,0,0,0-.539-.794l-.32-.286.407-.137a4.856,4.856,0,0,0,2.514-1.525l0,0a4.148,4.148,0,0,0,.947-2.219v-.007a3.051,3.051,0,0,0,.041-.445H54.8a8.334,8.334,0,0,0-1.386.077l-.288.044V-5.541l.289.046a7.009,7.009,0,0,0,1.273.077h.278V-6.9h-.31a7.612,7.612,0,0,0-1.29.077l-.288.044V-8.009c-.251.305-.516.6-.835.933a23.316,23.316,0,0,1-.255,2.558A7.765,7.765,0,0,0,53.953-2.08l.189.159-.156.191a3.326,3.326,0,0,0-.558.858l-.155.337L53.018-.8a12.1,12.1,0,0,1-1.46-1.809A10.176,10.176,0,0,1,49.552,1.2l-.227.271-.18-.3A2.273,2.273,0,0,0,48.49.424L48.271.26l.184-.2a8.234,8.234,0,0,0,1.832-3.563,15.458,15.458,0,0,0,.488-3.167c.082-1.274.143-3.256.143-4.606a8.871,8.871,0,0,0-.107-1.9l-.058-.3h1.766l-.049.291a17.257,17.257,0,0,0-.109,2.874c0,.425-.006.78-.018,1.162a8.2,8.2,0,0,0,.723-1.283l.127-.286.539.4v-1.508l.289.046a8.213,8.213,0,0,0,1.384.077h1.91v-.262a6.849,6.849,0,0,0-.092-1.237Zm1.11.5h-.522a8.015,8.015,0,0,1,.056,1.03v.762h-2.41a10.826,10.826,0,0,1-1.174-.044v.47a10.926,10.926,0,0,1,1.174-.045h2.41v1.162c0,.339-.009.593-.029.806h.469c-.019-.208-.028-.463-.028-.806v-1.162h2.954a9.669,9.669,0,0,1,1.142.06v-.5a9.737,9.737,0,0,1-1.158.062H58.23v-.762A8.222,8.222,0,0,1,58.285-13Zm-6.352.016h-.581a12.077,12.077,0,0,1,.066,1.7c0,1.36-.062,3.355-.145,4.64a15.922,15.922,0,0,1-.5,3.266A8.836,8.836,0,0,1,49,.194a2.591,2.591,0,0,1,.383.422A10.092,10.092,0,0,0,51.23-3.309l.155-.615.306.556a9.775,9.775,0,0,0,1.448,1.96,3.527,3.527,0,0,1,.306-.448A8.174,8.174,0,0,1,51.5-4.37l-.036-.073.014-.08A22.647,22.647,0,0,0,51.751-7.2l.006-.09.063-.065a14.845,14.845,0,0,0,1.889-2.36l-.316-.236a9.164,9.164,0,0,1-1.136,1.744l-.474.572.032-.742c.032-.745.048-1.249.048-1.941C51.887-12.229,51.893-12.653,51.933-12.982ZM55.92-9.414h-.482a6.423,6.423,0,0,1,.028.662v.97h-.81a9.38,9.38,0,0,1-1.078-.042v.466A9.391,9.391,0,0,1,54.656-7.4h.81v2.484h-.778a8.888,8.888,0,0,1-1.062-.043v.435A10.644,10.644,0,0,1,54.8-4.57h1.434v.25a4.258,4.258,0,0,1-.051.774,4.642,4.642,0,0,1-1.067,2.479A4.973,4.973,0,0,1,52.758.474a2,2,0,0,1,.292.465,5.267,5.267,0,0,0,3.414-3.6,6.978,6.978,0,0,0,.263-1.677l.017-.231H59V-.224c0,.658.088.886,1.814.886,1.013,0,1.523-.081,1.76-.278s.411-.764.516-1.811a3.418,3.418,0,0,1-.442-.191,4.233,4.233,0,0,1-.242,1.373c-.167.458-.642.479-1.609.479-.806,0-1.338,0-1.338-.762V-4.57H61.6a10.248,10.248,0,0,1,1.19.062v-.463a8.516,8.516,0,0,1-1.126.054H60.71V-7.4h1.242a8.939,8.939,0,0,1,1.094.06v-.5a8.606,8.606,0,0,1-1.094.06H60.71v-.97a6.409,6.409,0,0,1,.027-.662h-.481c.018.185.027.4.027.662v.97H55.894v-.97A6.356,6.356,0,0,1,55.92-9.414Zm15.93-3.8.056.225a12.761,12.761,0,0,0,.752,2.039,19.557,19.557,0,0,0,4.027-1.008L77-12.093l.147,1.592-.2.055c-1.317.355-2.812.68-3.732.846.211.441.483.974.677,1.335A15.3,15.3,0,0,0,77.314-9.2l.316-.154.2,1.643-.217.051c-.085.02-.15.034-.214.048-.144.031-.28.06-.641.158-.84.216-1.555.384-2.174.51A17.923,17.923,0,0,0,76.718-4.1l.178.208-1.3.924-.139-.081a4.11,4.11,0,0,0-1.675-.578,15.978,15.978,0,0,0-2.056-.141c-2.119,0-3.542.633-3.542,1.574,0,1.2,1.979,1.382,3.158,1.382a10.548,10.548,0,0,0,4.6-1.035l.312-.193L76.593-.19l-.236.051a9.209,9.209,0,0,0-.94.267,14.088,14.088,0,0,1-4.169.6,6.7,6.7,0,0,1-3.42-.7,2.485,2.485,0,0,1-1.326-2.2,2.528,2.528,0,0,1,1.427-2.249,7.676,7.676,0,0,1,3.7-.769,10.327,10.327,0,0,1,2.529.257,18.132,18.132,0,0,1-1.137-1.73,34.154,34.154,0,0,1-5.48.437l-.238.01c-.546.023-.617.025-.863.053l-.269.03-.049-1.609.281.026a12.154,12.154,0,0,0,1.257.047,33.128,33.128,0,0,0,4.657-.339c-.269-.509-.391-.746-.678-1.362a35.054,35.054,0,0,1-4.167.265H67.42a7.875,7.875,0,0,0-.913.045l-.265.029-.073-1.591.284.024c.391.033.654.047,1.179.047a30.164,30.164,0,0,0,3.436-.188,17.79,17.79,0,0,0-.814-1.843l-.2-.317Zm.516,2.819-.08-.17a14.561,14.561,0,0,1-.8-2.077l-.636.11c.174.364.436.981.81,1.911l.123.306-.328.036a31.68,31.68,0,0,1-3.819.225c-.4,0-.665-.009-.937-.027l.023.5c.14-.01.3-.014.691-.023h.058A33.611,33.611,0,0,0,71.757-9.9l.184-.026.078.169c.38.821.481,1.011.855,1.716l.211.4-.336.061a32.283,32.283,0,0,1-5.085.4c-.473,0-.761-.009-1.022-.026l.015.511c.134-.01.3-.016.628-.03l.24-.01a32.9,32.9,0,0,0,5.582-.46l.174-.032.088.153a14.416,14.416,0,0,0,1.677,2.417l.659.7-.917-.292a9.377,9.377,0,0,0-3.156-.452c-2.9,0-4.63.941-4.63,2.518A1.974,1.974,0,0,0,68.075-.41a6.249,6.249,0,0,0,3.173.64,13.6,13.6,0,0,0,4.023-.581c.443-.135.623-.19.745-.222L75.9-1.246a11.7,11.7,0,0,1-4.551.936c-3.183,0-3.658-1.179-3.658-1.882,0-1.26,1.587-2.074,4.042-2.074a16.523,16.523,0,0,1,2.131.147,4.557,4.557,0,0,1,1.709.559l.592-.421a18.243,18.243,0,0,1-2.2-3.007l-.192-.31.358-.068c.678-.128,1.518-.321,2.5-.572.359-.1.511-.131.651-.161l-.061-.511a20.952,20.952,0,0,1-3.406.871l-.18.037-.089-.16c-.237-.426-.673-1.281-.921-1.826l-.136-.3.324-.052c.806-.13,2.383-.462,3.8-.836l-.046-.5a22.751,22.751,0,0,1-4.014.947Zm60.472-2.762,1.827.185-.07.28a15.006,15.006,0,0,0-.284,1.5c-.047.3-.083.5-.121.715l-.031.175a12.079,12.079,0,0,0,2.5-.5l.305-.1.12,1.662-.236.029c-.119.015-.119.015-.43.077a23.594,23.594,0,0,1-2.543.372c-.247,1.248-.676,2.973-1.09,4.366a42.591,42.591,0,0,1-1.85,4.908l-.1.227-1.656-.7.14-.244a31.642,31.642,0,0,0,2.919-8.462c-.2,0-.414,0-.8,0-.558,0-.709,0-1.334-.032h-.058a2.14,2.14,0,0,0-.244.014l-.278.031v-1.7l.3.056a10.9,10.9,0,0,0,1.954.14c.264,0,.429,0,.745-.019a14.351,14.351,0,0,0,.317-2.707Zm1.2.624-.706-.072a19.39,19.39,0,0,1-.353,2.708l-.032.2-.2.014c-.473.033-.652.033-.977.033a12.605,12.605,0,0,1-1.75-.1v.56h.1c.618.032.751.032,1.315.032.6,0,.778,0,1.092-.016l.317-.016-.059.312a33.236,33.236,0,0,1-2.9,8.68l.683.29a40.691,40.691,0,0,0,1.732-4.627c.429-1.447.877-3.257,1.113-4.5l.035-.187.19-.015a23.271,23.271,0,0,0,2.672-.379l.235-.047-.041-.56a14.632,14.632,0,0,1-2.628.46l-.326.033.054-.323c.033-.2.061-.355.088-.506.038-.211.073-.41.12-.708C133.955-12.086,133.995-12.323,134.042-12.532ZM.9-13.011l.288.044a9.975,9.975,0,0,0,1.546.093H6.208a10.584,10.584,0,0,0,1.5-.061l.253-.04v-.032l.284.039a10.457,10.457,0,0,0,1.566.094h3.44a10.1,10.1,0,0,0,1.465-.061l.327-.052L15-12.658a12.4,12.4,0,0,0-.062,1.522V-8.5c0,1.1-.418,1.466-1.658,1.466-.51,0-.793-.017-1.572-.081l-.2-.016-.027-.2a4.175,4.175,0,0,0-.2-.838l-.028-.088c-.47.182-1.011.382-1.714.631l-.075.026c-.264.092-.353.123-.551.208l-.231.1-.056-.134a4.741,4.741,0,0,0-.054.643h4.4a8.117,8.117,0,0,0,1.4-.077l.291-.049v1.6l-.29-.046a8.323,8.323,0,0,0-1.384-.077H11.348l.564.209-.141.255c-.109.2-.176.308-.246.421a7.269,7.269,0,0,0,2.882,1.41l.39.114-.278.3a2.23,2.23,0,0,0-.413.591c.336-.014.629-.04.933-.082l.284-.039V-.61l-.283-.038a12.06,12.06,0,0,0-1.615-.094H8.618v.614a9.338,9.338,0,0,0,.11,1.486l.039.284H7.008l.041-.285A9.156,9.156,0,0,0,7.158-.112v-.63H2.592A12.06,12.06,0,0,0,.977-.648L.694-.61V-2.256l.285.041a9.555,9.555,0,0,0,1.113.088,2.867,2.867,0,0,0-.454-.427l-.332-.258.386-.168A6.627,6.627,0,0,0,3.739-4.236,3.827,3.827,0,0,0,4.731-5.43H3.12a8.552,8.552,0,0,0-1.386.077l-.288.044V-6.9l.29.046a8.109,8.109,0,0,0,1.384.077h4c0-.148-.01-.277-.019-.4a3.3,3.3,0,0,1-.928.1c-.345,0-.921-.035-1.34-.082l-.2-.022-.02-.2a2.882,2.882,0,0,0-.168-.776c-.522.211-1.121.432-2.066.775L2.19-7.3c-.123.051-.276.115-.471.2l-.245.11-.551-1.5.308-.042a13.2,13.2,0,0,0,2.949-.9A10.158,10.158,0,0,0,1.917-10.7l-.3-.131.544-.676a6.191,6.191,0,0,0-.967.088L.9-11.369Zm12.346.637H9.808a11.915,11.915,0,0,1-1.35-.063v.483a9.862,9.862,0,0,1,1.27-.056h4.266v3.5c0,.579-.33.7-.826.7a8.726,8.726,0,0,1-1.295-.115c.028.107.051.213.072.336.618.049.888.063,1.335.063,1.014,0,1.158-.206,1.158-.966v-2.64c0-.571.01-.946.035-1.269C14.195-12.383,13.824-12.374,13.248-12.374Zm-7.04,0H2.736A11.854,11.854,0,0,1,1.4-12.435v.481a9.578,9.578,0,0,1,1.27-.056H7v3.434c0,.659-.443.714-.858.714a8.15,8.15,0,0,1-1.113-.094c.023.1.042.205.058.32.372.034.809.059,1.087.059a2.3,2.3,0,0,0,.88-.117l0-.043h.087c.237-.146.291-.4.291-.822v-2.592c0-.562.01-.932.035-1.253C7.18-12.383,6.795-12.374,6.208-12.374Zm1.75,1.007v-.927c-.02.292-.028.636-.028,1.142V-8.56a1.944,1.944,0,0,1-.147.822h.71l-.418-.993L8.4-8.776a12.213,12.213,0,0,0,2.52-.7A8.75,8.75,0,0,0,8.908-10.6l-.3-.13.614-.773a6.23,6.23,0,0,0-.973.088ZM6.5-11.51H3.328a12.307,12.307,0,0,1,1.688.948l.225.146-.592.784q.614-.259,1.311-.58l.332-.153.08,1.332-.151.073c-.429.207-.77.368-1.093.511a7.544,7.544,0,0,0,1.016.085c.358,0,.358-.016.358-.214Zm6.992,0H10.005a9.105,9.105,0,0,1,1.819,1.05l.209.147-.416.564q.638-.263,1.333-.589l.334-.157.08,1.358-.159.07c-.523.23-.96.419-1.443.614a8.874,8.874,0,0,0,1.406.139c.255,0,.3-.034.307-.038a.366.366,0,0,0,.019-.16ZM4.518-10.287a12.058,12.058,0,0,0-1.9-.992l-.2.254A10.52,10.52,0,0,1,4.286-9.98Zm6.809.089a8.606,8.606,0,0,0-1.746-.953l-.176.221a8.63,8.63,0,0,1,1.729.993Zm1.518.743-.016-.276a18.23,18.23,0,0,1-4.042,1.4l.165.391c.1-.037.2-.071.35-.125l.073-.026C11.037-8.683,11.781-8.989,12.844-9.455Zm-6.992.118-.016-.269A20.4,20.4,0,0,1,1.6-8.09l.156.426L2-7.764c.074-.031.136-.057.189-.08L2.2-7.851A31.362,31.362,0,0,0,5.852-9.336ZM8.1-7.238H7.6c.016.208.025.425.025.71v.25H3.12a10.7,10.7,0,0,1-1.174-.044v.437A10.927,10.927,0,0,1,3.12-5.93h9.872a10.975,10.975,0,0,1,1.174.045v-.436a11.123,11.123,0,0,1-1.19.044H8.07v-.25A6.476,6.476,0,0,1,8.1-7.238ZM10.423-5.43H5.685l.575.245-.163.25c-.179.274-.29.43-.4.585a4.222,4.222,0,0,0,1.4.853l-.007-.047-.046-.29h1.71l-.051.293c-.015.083-.027.161-.036.236A4.579,4.579,0,0,0,10.423-5.43Zm-4.91.47-.382-.163A4.231,4.231,0,0,1,4.066-3.857,6.668,6.668,0,0,1,2.254-2.685a2.911,2.911,0,0,1,.316.355,8.146,8.146,0,0,0,2.1-1.587L4.846-4.1l.181.187A5.854,5.854,0,0,0,6.577-2.78a2.291,2.291,0,0,1,.216-.3A4.707,4.707,0,0,1,5.186-4.141L5.03-4.292l.207-.282C5.329-4.7,5.409-4.807,5.513-4.96Zm5.676,0-.372-.138A4.972,4.972,0,0,1,8.959-2.906a3.376,3.376,0,0,1,.266.258,7.175,7.175,0,0,0,1.328-1.359l.16-.211.2.172a8.389,8.389,0,0,0,2.773,1.632,2.843,2.843,0,0,1,.215-.353,7.158,7.158,0,0,1-2.868-1.542l-.157-.139.178-.289C11.1-4.813,11.142-4.878,11.189-4.956Zm1.9,2.834A8.278,8.278,0,0,1,10.79-3.5,8.257,8.257,0,0,1,9.372-2.122Zm-6.326,0-.2-.1A6.869,6.869,0,0,1,4.851-3.389,8.147,8.147,0,0,1,3.2-2.122Zm1.4-1.212H7.616l0,.027.028.01-.024.027a6.491,6.491,0,0,1,.035.742v.906H2.544a12.366,12.366,0,0,1-1.35-.063v.507a13.39,13.39,0,0,1,1.4-.065H7.658v1.13a9.167,9.167,0,0,1-.076,1.254h.613a9.384,9.384,0,0,1-.077-1.27V-1.242h5.306a13.39,13.39,0,0,1,1.4.065v-.508a12.29,12.29,0,0,1-1.366.063H8.118v-.906c0-.127,0-.239,0-.342L8.068-2.9l.057-.039C8.132-3.082,8.142-3.207,8.158-3.334Zm-1,1.212v-.406c0-.073,0-.14,0-.2a2.4,2.4,0,0,0-.267.408l-.115.2Zm1.869,0-.014-.016a3.809,3.809,0,0,0-.4-.4s0,.008,0,.012v.406ZM149.592-12.913l.211.119a18.986,18.986,0,0,0,5.34,1.747l.31.048-.646,1.616-.213-.055a24.834,24.834,0,0,1-3.142-.919,17.963,17.963,0,0,1-2.468-1.016l-.254-.117Zm5.165,2.308a20.252,20.252,0,0,1-4.987-1.638l-.323.533a16.07,16.07,0,0,0,2.17.881,22.892,22.892,0,0,0,2.888.851ZM40.464-11.882a6.433,6.433,0,0,1,4.575,1.656,5.6,5.6,0,0,1,1.627,4.082,6.231,6.231,0,0,1-1,3.456A6.312,6.312,0,0,1,42.85-.394a12.6,12.6,0,0,1-2.477.75l-.225.049L40.081.184A2.311,2.311,0,0,0,39.564-.8L39.3-1.138l.419-.069a9.369,9.369,0,0,0,2.607-.732,4.6,4.6,0,0,0,2.688-4.254,3.969,3.969,0,0,0-2.4-3.788,4.2,4.2,0,0,0-1.532-.366,24.03,24.03,0,0,1-1.56,6.188c-.98,2.23-1.983,3.224-3.254,3.224a2.545,2.545,0,0,1-2.1-1.221,5.258,5.258,0,0,1-.8-2.933A6.868,6.868,0,0,1,35.11-9.671,6.913,6.913,0,0,1,40.464-11.882Zm.025,11.7a11.609,11.609,0,0,0,2.166-.673,5.813,5.813,0,0,0,2.591-2.11,5.733,5.733,0,0,0,.92-3.18A5.105,5.105,0,0,0,44.69-9.868a5.942,5.942,0,0,0-4.226-1.514,6.432,6.432,0,0,0-4.983,2.046,6.367,6.367,0,0,0-1.615,4.248c0,2.083,1.034,3.654,2.406,3.654,1.045,0,1.907-.9,2.8-2.923a23.618,23.618,0,0,0,1.548-6.278l.025-.232.233.009a4.829,4.829,0,0,1,1.945.42,4.451,4.451,0,0,1,2.695,4.245,5.091,5.091,0,0,1-2.979,4.708,9.068,9.068,0,0,1-2.333.7A2.421,2.421,0,0,1,40.489-.181ZM83.942-11.274H91.8v1.652h-7.86Zm7.36.5h-6.86v.652H91.3Zm14.08-.26h4.372v9.812h-4.372Zm3.872.5h-3.372v8.812h3.372Zm-69.263-.332-.03.3a22.285,22.285,0,0,1-1.476,5.995c-.739,1.685-1.448,2.47-2.229,2.47-1.018,0-1.786-1.277-1.786-2.97A5.813,5.813,0,0,1,37.2-10.054a5.285,5.285,0,0,1,2.492-.787ZM36.256-2.6c.543,0,1.139-.73,1.771-2.17a21.607,21.607,0,0,0,1.4-5.539,4.7,4.7,0,0,0-1.972.685A5.311,5.311,0,0,0,34.97-5.072C34.97-3.71,35.547-2.6,36.256-2.6Zm-8.338-8.036.113.22a16.589,16.589,0,0,1,1.313,3.129l.061.2-1.255.652-.085-.292a12.352,12.352,0,0,0-1.273-3.049l-.132-.23Zm.886,3.3A15.554,15.554,0,0,0,27.7-9.97l-.343.171a12.35,12.35,0,0,1,1.1,2.637Zm20.275-3.113,1.385.151-.005.229a14.289,14.289,0,0,1-.637,4.521l-.086.257-1.312-.559.055-.209a19.567,19.567,0,0,0,.6-4.112Zm.874.6L49.574-9.9a19.916,19.916,0,0,1-.559,3.751l.415.177A13.915,13.915,0,0,0,49.952-9.856Zm97.572-.282,1.778.117-.087.3a13.139,13.139,0,0,0-.361,1.731c-.18,1.086-.284,1.7-.346,2.06-.032.189-.054.318-.071.42l.011-.009.006,0a8.205,8.205,0,0,1,4.776-1.428,5.569,5.569,0,0,1,3.268.889,2.92,2.92,0,0,1,1.27,2.449,3.652,3.652,0,0,1-1.545,2.955A6.88,6.88,0,0,1,152.1.442a13.614,13.614,0,0,1-2.853-.294l-.01,0c-.3-.079-.3-.079-1.276-.319l-.213-.052.024-.218a2.268,2.268,0,0,0,.014-.276,3.446,3.446,0,0,0-.106-.936l-.108-.47.446.182A11.119,11.119,0,0,0,152-1.162c2.472,0,4.07-.957,4.07-2.438,0-1.163-1.04-1.83-2.854-1.83a7.458,7.458,0,0,0-4.332,1.344,2.519,2.519,0,0,0-.59.607l-.077.1-1.662-.043.047-.284c.041-.244.058-.38.1-.744l.024-.19c.166-1.265.458-3.134.673-4.426a5.208,5.208,0,0,0,.109-.821Zm1.129.575-.662-.044c-.016.17-.042.329-.1.628-.214,1.284-.5,3.146-.67,4.4l-.023.188c-.026.212-.044.351-.062.481l.838.021a2.813,2.813,0,0,1,.609-.6,7.969,7.969,0,0,1,4.63-1.442c2.1,0,3.354.871,3.354,2.33,0,1.785-1.794,2.938-4.57,2.938a11.728,11.728,0,0,1-3.751-.658,4.2,4.2,0,0,1,.033.6c0,.03,0,.067,0,.112.77.189.8.2,1.074.269a13.111,13.111,0,0,0,2.741.281,6.41,6.41,0,0,0,3.84-1.01,3.15,3.15,0,0,0,1.334-2.547c0-1.724-1.585-2.838-4.038-2.838a7.69,7.69,0,0,0-4.469,1.322,4.3,4.3,0,0,0-.468.454l-.127.137-.374-.187.042-.191c.007-.033.014-.06.02-.085a1.308,1.308,0,0,0,.039-.249v-.012c.026-.2.048-.329.12-.752.062-.364.166-.973.345-2.057C148.478-8.788,148.553-9.177,148.653-9.563Zm-64.711.241H91.8v1.684h-7.86Zm7.36.5h-6.86v.684H91.3Zm48.81.38c.307,0,.549,0,1.754.048l.237.009.023,1.654-.28-.029a15.812,15.812,0,0,0-1.862-.111,13.709,13.709,0,0,0-3.934.535l-.285.078-.165-1.6.219-.047A18.284,18.284,0,0,1,140.112-8.442Zm1.5.538c-.992-.038-1.217-.038-1.5-.038a17.3,17.3,0,0,0-3.968.476l.059.573a14.023,14.023,0,0,1,3.781-.477,15.251,15.251,0,0,1,1.634.085Zm-20.633.166c1.739,0,2.951.541,3.605,1.607a3.73,3.73,0,0,1,.533,1.955c0,1.914-1.507,3.628-3.839,4.366a15.484,15.484,0,0,1-3.341.618l-.227.028L117.66.612a3.257,3.257,0,0,0-.394-1.042l-.229-.443.492.082a.972.972,0,0,0,.183.013,10.583,10.583,0,0,0,3.073-.483c1.727-.561,2.757-1.68,2.757-2.995s-.912-1.99-2.71-1.99a18.337,18.337,0,0,0-4.151.633,6.881,6.881,0,0,0-1.664.511l-.276.129-.431-1.749.293-.023a7.3,7.3,0,0,0,1.433-.282A20.946,20.946,0,0,1,120.976-7.738ZM118.1.284a13.958,13.958,0,0,0,3.029-.571c2.119-.671,3.488-2.2,3.488-3.889a3.272,3.272,0,0,0-.458-1.691,3.441,3.441,0,0,0-3.18-1.37,20.5,20.5,0,0,0-4.822.7,12.334,12.334,0,0,1-1.218.265l.147.6a8.769,8.769,0,0,1,1.485-.422,18.757,18.757,0,0,1,4.264-.646c2.07,0,3.21.884,3.21,2.49,0,1.543-1.159,2.84-3.1,3.47A11.156,11.156,0,0,1,117.9-.28,2.97,2.97,0,0,1,118.1.284ZM55.894-7.4h4.388v2.484H55.894Zm3.888.5H56.394v1.484h3.388ZM135.961-5l1.361.681-.2.242-.149.178a3.236,3.236,0,0,0-.312.4l-.012.017a1.668,1.668,0,0,0-.349.984c0,1.01,1.387,1.222,2.55,1.222A11.584,11.584,0,0,0,142.3-1.8l.3-.106.163,1.747-.225.041c-.179.033-.18.033-.708.113a16.29,16.29,0,0,1-2.888.275c-1.932,0-4.234-.46-4.234-2.65a3.722,3.722,0,0,1,1.125-2.458Zm.573.845-.429-.215a3.053,3.053,0,0,0-.894,1.988c0,1.427,1.256,2.15,3.734,2.15a15.8,15.8,0,0,0,2.8-.268h.007l.471-.072-.062-.659a12.616,12.616,0,0,1-3.316.46,4.847,4.847,0,0,1-2.2-.4A1.441,1.441,0,0,1,135.8-2.5a2.176,2.176,0,0,1,.445-1.279A3.217,3.217,0,0,1,136.533-4.158ZM82.251-3.076l1.345.563-.059.213A9.328,9.328,0,0,1,81.9,1.2l-.141.192L80.468.538l.168-.213A7.265,7.265,0,0,0,82.175-2.8ZM83-2.223,82.58-2.4A7.4,7.4,0,0,1,81.195.421l.44.293A8.522,8.522,0,0,0,83-2.223Zm2.724-.631.058.212a21.182,21.182,0,0,1,.63,3.087l.034.24L84.911.948l-.024-.27a18.78,18.78,0,0,0-.505-3.063l-.07-.271ZM85.878.275A19.594,19.594,0,0,0,85.352-2.3l-.419.059a19.29,19.29,0,0,1,.426,2.6Zm46.684,8.464L134.406,9l-.107.291a4.813,4.813,0,0,0-.245.985c-.1.462-.177.8-.341,1.413a12.471,12.471,0,0,0,2.45-.482l.313-.1.072,1.651-.214.039c-.177.032-.178.032-.557.1a19.006,19.006,0,0,1-2.48.328,29.919,29.919,0,0,1-1.742,4.542c-.389.779-.53,1.046-1.145,2.113l-.006.01c-.082.128-.148.246-.207.349-.041.073-.077.136-.112.192l-.129.206-1.546-.91.18-.225a13.884,13.884,0,0,0,1.509-2.454,23.616,23.616,0,0,0,1.543-3.751c-.321.011-.658.019-.84.019-.143,0-.357,0-.564-.008s-.378-.008-.492-.008h-.023c-.165-.015-.284-.015-.329-.015h-.462l.024-1.651.289.051a9.9,9.9,0,0,0,1.861.124c.16,0,.376,0,.585-.008l.375-.006a15.949,15.949,0,0,0,.486-2.77Zm1.168.667-.7-.1A18.072,18.072,0,0,1,132.5,12.1l-.051.182h-.189c-.148,0-.356,0-.557.008s-.43.008-.595.008a11.591,11.591,0,0,1-1.658-.086l-.008.562c.066,0,.177,0,.318.016.119,0,.3,0,.491.008s.416.008.554.008c.237,0,.783-.016,1.174-.032l.352-.014-.1.337a24.234,24.234,0,0,1-1.68,4.168,15.431,15.431,0,0,1-1.387,2.312l.626.368c.054-.1.119-.209.2-.331.605-1.051.745-1.315,1.126-2.078a29.5,29.5,0,0,0,1.759-4.63l.049-.168.175-.011a19.2,19.2,0,0,0,2.587-.331l.012,0,.342-.057L136,11.773a14.488,14.488,0,0,1-2.607.445l-.357.031.095-.346c.227-.828.319-1.2.428-1.728C133.645,9.752,133.683,9.567,133.73,9.406ZM38.873,8.854h1.88l-.06.3a11.6,11.6,0,0,0-.091,2.063c0,.322,0,.5.025,1.412a15.379,15.379,0,0,0,4.352-.588l.3-.121L45.5,13.69l-.266.016a8.758,8.758,0,0,0-.94.11,27.693,27.693,0,0,1-3.633.347c.044,1.337.114,2.713.186,3.694a14.461,14.461,0,0,1,4.182,2.26l.193.139a5.37,5.37,0,0,0,.526.345l.226.135-1.088,1.62-.213-.264a6.906,6.906,0,0,0-1.608-1.341,16.027,16.027,0,0,0-2.1-1.2c.007.1.012.191.012.275a3.106,3.106,0,0,1-.448,1.763,3.59,3.59,0,0,1-3.05,1.207c-2.207,0-3.578-1-3.578-2.618a2.394,2.394,0,0,1,1.139-2.048A5.165,5.165,0,0,1,37.9,17.4a7.433,7.433,0,0,1,1.343.127C39.12,15.639,39.013,12.6,39,10.4l0-.1a6.532,6.532,0,0,0-.075-1.16Zm1.283.5h-.7c.025.223.029.441.039.941l0,.1c.016,2.24.125,5.336.255,7.2v.084a.671.671,0,0,1,.016.173v.467l-.377-.251a.433.433,0,0,1-.11-.025.232.232,0,0,0-.037-.01l-.009,0A6.67,6.67,0,0,0,37.9,17.9c-2.132,0-3.51.894-3.51,2.278,0,1.326,1.151,2.118,3.078,2.118a3.168,3.168,0,0,0,2.644-1,2.658,2.658,0,0,0,.354-1.472,4.351,4.351,0,0,0-.06-.643l-.095-.52.462.257a1.694,1.694,0,0,0,.223.107l.138.058a16.446,16.446,0,0,1,2.2,1.254,8.58,8.58,0,0,1,1.5,1.19l.425-.634c-.144-.091-.218-.145-.339-.232l-.19-.137a13.631,13.631,0,0,0-4.195-2.235l-.167-.048-.014-.173c-.082-1.053-.162-2.64-.209-4.14l-.008-.252.252-.006a27.323,27.323,0,0,0,3.824-.349c.418-.058.587-.082.719-.1l-.075-.617a17.889,17.889,0,0,1-4.477.521h-.243l-.007-.243c-.032-1.14-.032-1.317-.032-1.671A17.637,17.637,0,0,1,40.156,9.354ZM5.654,8.9l1.86.209-.092.29a7.93,7.93,0,0,0-.247,1.034c-.016.141-.019.16-.16,1.023-.037.269-.065.43-.11.682.265.007.438.007.631.007a12.754,12.754,0,0,0,2.869-.265l.324-.079-.072,1.653-.215.022c-.322.032-.322.032-1.125.1-.449.043-.928.065-1.46.065-.238,0-.484,0-1.191-.024-.2,1.442-.237,1.743-.307,2.395.408.009.6.009.778.009a13.724,13.724,0,0,0,2.882-.248l.322-.083-.048,1.624-.218.022c-.109.011-.168.015-.259.02l-.175.012A18.6,18.6,0,0,1,7.36,17.5c-.349,0-.594,0-1.137-.022l-.006.079c-.031.378-.063.9-.063,1.165a2.129,2.129,0,0,0,.65,1.731,3.144,3.144,0,0,0,2.092.627c2,0,3.286-1,3.286-2.55a3.4,3.4,0,0,0-1.433-2.594l-.43-.37.563-.068a2.935,2.935,0,0,0,1.1-.3l.164-.074.122.132a4.517,4.517,0,0,1,1.57,3.353,3.64,3.64,0,0,1-1.387,2.929,5.585,5.585,0,0,1-3.551,1.1,4.2,4.2,0,0,1-3.8-1.72,4.562,4.562,0,0,1-.533-2.338,8.655,8.655,0,0,1,.065-1.08c0-.058.007-.1.009-.138a16.713,16.713,0,0,1-2.2-.38l-.015,0a1.376,1.376,0,0,0-.407-.083l-.3-.025.221-1.7.307.138a9.651,9.651,0,0,0,2.54.589c.076-.7.2-1.638.305-2.386a21.13,21.13,0,0,1-2.157-.4l-.118-.027c-.123-.029-.2-.046-.373-.083l-.227-.049.219-1.608.3.126a9.749,9.749,0,0,0,2.575.584,23.7,23.7,0,0,0,.343-2.737Zm1.206.639-.71-.08c-.024.527-.161,1.563-.383,2.9l-.038.228-.23-.02a11.38,11.38,0,0,1-2.654-.527l-.07.515.154.036.119.028a20.953,20.953,0,0,0,2.359.428l.254.032-.038.253c-.13.861-.287,2.094-.367,2.868l-.026.253-.252-.03a12.533,12.533,0,0,1-2.628-.537l-.069.533a2.454,2.454,0,0,1,.282.075,16.7,16.7,0,0,0,2.374.392l.251.025-.028.251c-.015.139-.015.139-.031.373v.013a8.184,8.184,0,0,0-.062,1.026,4.136,4.136,0,0,0,.46,2.078,3.731,3.731,0,0,0,3.37,1.48c2.655,0,4.438-1.417,4.438-3.526a3.907,3.907,0,0,0-1.318-2.883,3.015,3.015,0,0,1-.556.186,3.646,3.646,0,0,1,1.222,2.618,2.75,2.75,0,0,1-1.059,2.232,4.343,4.343,0,0,1-2.727.818,3.624,3.624,0,0,1-2.421-.75,2.59,2.59,0,0,1-.821-2.108c0-.28.033-.818.065-1.2a2.73,2.73,0,0,0,.015-.3v-.261L6,16.966C6.71,17,6.968,17,7.36,17a18.124,18.124,0,0,0,2.227-.126H9.6l.184-.012H9.8l.016-.53a16.434,16.434,0,0,1-2.685.195c-.222,0-.451,0-1.063-.016L5.8,16.5l.034-.32c.093-.865.112-1.045.364-2.854l.031-.224.226.008c.875.032,1.142.032,1.4.032.516,0,.979-.021,1.416-.063.579-.046.74-.059.9-.075l.025-.563a14.562,14.562,0,0,1-2.664.209c-.26,0-.484,0-.937-.016l-.288-.01.088-.492c.055-.3.082-.455.121-.742v-.007c.143-.874.143-.874.158-1.011l0-.02C6.76,9.954,6.808,9.736,6.86,9.543ZM115.307,8.93l1.847.023-.062.3a16.209,16.209,0,0,0-.176,2.472l.137-.051.69.822-.19.161a4.938,4.938,0,0,0-.728.882,2.439,2.439,0,0,1-.017.345c-.013.263-.015.306-.026.792.344-.34.858-.781,1.619-1.4,1.523-1.222,2.757-1.816,3.773-1.816a1.989,1.989,0,0,1,2.122,2.122,10.882,10.882,0,0,1-.374,2.391,17.275,17.275,0,0,0-.682,3.737c0,.886.534.886.71.886a1.714,1.714,0,0,0,1.158-.777,6.322,6.322,0,0,0,.875-1.766l.17-.554.286.5a5.021,5.021,0,0,0,.708,1.048l.112.129-.08.151a8.167,8.167,0,0,1-1.02,1.626,3,3,0,0,1-2.4,1.243,2.088,2.088,0,0,1-2.122-2.41,15.906,15.906,0,0,1,.613-3.779,12.184,12.184,0,0,0,.395-2.349.566.566,0,0,0-.63-.614,4.355,4.355,0,0,0-2.27,1.041,24.983,24.983,0,0,0-2.984,2.623v3.35a24.717,24.717,0,0,0,.047,2.631l.028.275h-1.818l.047-.29a13.571,13.571,0,0,0,.109-2.6c0-1.07,0-1.531.009-1.863-.123.139-.23.258-.629.7-.11.12-.237.263-.383.428l-.289.324-.073.082a2.54,2.54,0,0,0-.318.4l-.225.354-.958-1.724.2-.127a24.012,24.012,0,0,0,2.7-2.6c.015-.577.042-1.439.084-2.686a13.94,13.94,0,0,0-2.2.2l-.286.062-.1-1.7.3.037a3,3,0,0,0,.465.03l.444-.027,1.411-.087c.043-1.133.055-1.74.055-1.908a5.965,5.965,0,0,0-.043-.733Zm1.245.516-.693-.009c.015.166.022.314.022.546,0,.182-.013.867-.064,2.154l-.009.226-.226.013q-1.111.066-1.636.1c-.378.024-.448.028-.475.028-.078,0-.145,0-.23,0l.031.527c.266-.04.7-.069,2.262-.174l.276-.019-.009.276c-.05,1.47-.081,2.44-.1,3.054l0,.1-.065.07a31.2,31.2,0,0,1-2.672,2.606l.346.623.123-.139.074-.083.288-.323c.148-.167.276-.311.387-.432.54-.6.541-.605.779-.874l.064-.076a1.115,1.115,0,0,0,.189-.257l.069-.138h.454l-.018.267c-.047.712-.047.712-.047,2.575a20.018,20.018,0,0,1-.07,2.39h.683c-.025-.349-.025-.762-.025-2.406V16.5l.077-.074a25.974,25.974,0,0,1,3.113-2.741,4.769,4.769,0,0,1,2.564-1.136,1.062,1.062,0,0,1,1.13,1.114,12.228,12.228,0,0,1-.406,2.454,15.229,15.229,0,0,0-.6,3.674,1.758,1.758,0,0,0,.645,1.619,1.72,1.72,0,0,0,.977.291,2.5,2.5,0,0,0,2.014-1.06,7.02,7.02,0,0,0,.885-1.393,4.128,4.128,0,0,1-.381-.531,6.872,6.872,0,0,1-.763,1.4,2.156,2.156,0,0,1-1.563.985c-.769,0-1.21-.505-1.21-1.386a17.9,17.9,0,0,1,.694-3.848,10.515,10.515,0,0,0,.362-2.28,1.49,1.49,0,0,0-1.622-1.622,6.267,6.267,0,0,0-3.46,1.7,11.568,11.568,0,0,0-1.982,1.818l-.123.18-.366-.183v-.155a1.12,1.12,0,0,1,.009-.136.928.928,0,0,0,.007-.12v-.025l0-.024a.587.587,0,0,0,.011-.1c.016-.759.016-.759.032-1.083l0-.029a2.7,2.7,0,0,0,.013-.359v-.081l.047-.066a8.767,8.767,0,0,1,.676-.865l-.156-.185a1.326,1.326,0,0,1-.211.037l-.287.032.009-.289C116.457,10.5,116.5,9.85,116.552,9.446ZM96.39,8.981l.281.035A13.4,13.4,0,0,0,98.4,9.11h10.256a13.024,13.024,0,0,0,1.762-.094l.28-.034v1.67l-.282-.036a12.629,12.629,0,0,0-1.76-.078H98.4a13.175,13.175,0,0,0-1.731.078l-.279.033ZM110.2,10.088V9.544a14.357,14.357,0,0,1-1.542.066H98.4a14.692,14.692,0,0,1-1.51-.066v.546c.417-.04.813-.052,1.51-.052h10.256C109.4,10.038,109.809,10.05,110.2,10.088ZM20.665,9.068l.239.09a20.146,20.146,0,0,0,6.427.976l.288,0L27.365,11.8l-.227-.012a29.249,29.249,0,0,1-6.774-1.065l-.256-.073Zm6.372,1.561a20.6,20.6,0,0,1-6.07-.916l-.211.6a28.621,28.621,0,0,0,6.182.962ZM82.332,9.148l1.832.305-.126.293a22.58,22.58,0,0,0-1.212,7.405c0,.4.016.987.037,1.55.132-.388.3-.8.57-1.454l.03-.067a1.515,1.515,0,0,0,.089-.225l.081-.282,1.278.6L84.8,17.5a13.625,13.625,0,0,0-1.351,4.436,1.571,1.571,0,0,0,.029.285l.037.259-1.642.162-.027-.245c-.012-.111-.024-.179-.064-.405l-.03-.171a25.666,25.666,0,0,1-.452-4.795,27.206,27.206,0,0,1,.838-6.631,7.111,7.111,0,0,0,.171-.972Zm1.129.695-.682-.114c-.023.147-.065.355-.149.768a26.787,26.787,0,0,0-.827,6.526,25.172,25.172,0,0,0,.443,4.7l.031.175c.014.079.025.14.033.192l.643-.063c0-.032,0-.06,0-.1a13.553,13.553,0,0,1,1.293-4.424l-.315-.148-.009.021-.026.058a13.982,13.982,0,0,0-.93,2.775l-.059.245-.5-.125v-.492c-.016-.285-.016-.323-.016-.45-.031-.714-.064-1.677-.064-2.246A24.2,24.2,0,0,1,83.46,9.843Zm6.187-.637h1.806l-.055.3a16.3,16.3,0,0,0-.108,2.466c0,.122,0,.29.006.5a9.84,9.84,0,0,0,2.431-.541l.331-.139.075,1.708h-.255c-.05.008-.3.06-1.072.218a13.51,13.51,0,0,1-1.5.234c.016,1.4.049,2.217.164,4.14a11.584,11.584,0,0,1,2.575,1.529c.084.056.137.094.186.128s.11.078.2.138L94.62,20l-.741,1.673-.258-.291a8.032,8.032,0,0,0-2.107-1.554,2.936,2.936,0,0,1-.213,1.138,2.96,2.96,0,0,1-2.9,1.492c-1.989,0-3.274-.99-3.274-2.522A2.26,2.26,0,0,1,86.08,18.1a3.918,3.918,0,0,1,2.336-.688,5.678,5.678,0,0,1,1.493.2c-.042-.663-.087-1.947-.121-3.541-.576.024-1.028.037-1.579.037-.656,0-1.252-.016-1.822-.048h-.015a3.938,3.938,0,0,0-.483-.03l-.028,0a2.14,2.14,0,0,0-.244-.014h-.025l-.024,0a.491.491,0,0,0-.111-.011h-.321l.048-1.686.3.074a10.917,10.917,0,0,0,2.821.249c.536,0,.927-.012,1.459-.036-.013-1.268-.013-1.333-.013-2.482a3.342,3.342,0,0,0-.043-.607Zm1.216.5h-.628c.009.12.014.256.014.406,0,1.215,0,1.215.016,2.717l0,.241-.24.012c-.671.033-1.1.048-1.724.048a12.382,12.382,0,0,1-2.639-.195l-.016.575c.049,0,.136,0,.253.016a4.446,4.446,0,0,1,.52.033c.558.032,1.143.047,1.786.047.621,0,1.116-.017,1.813-.048l.256-.011.005.256c.05,2.455.115,3.851.158,4.146l.069.482-.432-.225a4.336,4.336,0,0,0-1.66-.292c-1.643,0-2.79.831-2.79,2.022,0,1.247,1.063,2.022,2.774,2.022a2.492,2.492,0,0,0,2.444-1.2,2.528,2.528,0,0,0,.17-.985,2.072,2.072,0,0,0-.03-.383l-.069-.514.445.267a1.334,1.334,0,0,1,.16.106.829.829,0,0,0,.127.077l.013.007a10.331,10.331,0,0,1,2.07,1.438l.26-.586-.044-.031c-.047-.033-.1-.07-.18-.124l-.01-.007a11.281,11.281,0,0,0-2.626-1.541l-.137-.062-.009-.151c-.129-2.146-.16-2.952-.176-4.541l0-.225.224-.026a14.805,14.805,0,0,0,1.668-.251H92.7l.911-.187-.023-.526a13.051,13.051,0,0,1-2.5.486l-.267.031-.012-.268c-.016-.358-.016-.621-.016-.8A22.493,22.493,0,0,1,90.864,9.706ZM66.4,9.233l1.825.277-.1.284a22.641,22.641,0,0,0-.664,2.532,23.377,23.377,0,0,0-.474,4.954c0,.524.006,1,.018,1.446.167-.5.374-1.021.639-1.627l.1-.237,1.222.586-.1.223a13.823,13.823,0,0,0-1.274,4.3v.47l-1.62.135-.03-.238c-.023-.188-.038-.277-.064-.439l-.03-.19a23.093,23.093,0,0,1-.42-4.57,26.818,26.818,0,0,1,.726-6.39A8.676,8.676,0,0,0,66.375,9.5Zm1.159.682-.712-.108c-.032.246-.081.484-.2,1.046a26.37,26.37,0,0,0-.715,6.284,22.651,22.651,0,0,0,.412,4.484v.005l.031.191c.013.082.024.148.034.219l.686-.057v-.01a13.669,13.669,0,0,1,1.219-4.28L68,17.538a14.139,14.139,0,0,0-.921,2.833l-.494-.032c-.066-.874-.1-1.846-.1-3.059a23.849,23.849,0,0,1,.485-5.057C67.177,11.287,67.353,10.555,67.557,9.915Zm-8.84-.508.957,1.208-.22.152a5,5,0,0,0-.752.646,32.89,32.89,0,0,1-4.285,3.475c.577-.069,1.365-.144,2.682-.257.484-.035,1.126-.1,1.939-.171l.907-.084c.657-.048,1.137-.1,1.454-.128l.077-.006a1.616,1.616,0,0,0,.351-.052l.281-.07.168,1.683h-.628a10.31,10.31,0,0,0-4.293.84,5.447,5.447,0,0,0-1.91,1.447,1.782,1.782,0,0,0-.459,1.175c0,1.153,1.3,1.814,3.558,1.814a5.466,5.466,0,0,0,1.043-.092l.283-.052.07,1.8-.275-.016c-.267-.016-.267-.016-1.078-.032a6.709,6.709,0,0,1-4.189-1.1,2.844,2.844,0,0,1-1.032-2.206,3.138,3.138,0,0,1,.948-2.175,6.431,6.431,0,0,1,1.332-1.05l-.19.025c-.566.074-1.27.167-1.809.233a41.328,41.328,0,0,0-4.679.711l-.288.086-.189-1.791h.39a20.581,20.581,0,0,0,2.712-.308,33.772,33.772,0,0,0,5.116-3.965c-.966.112-2.368.2-4.187.261l-.269.014c-.362.019-.448.023-.706.049l-.253.025-.142-1.7.3.029a12.325,12.325,0,0,0,1.416.063c1.361,0,3.689-.091,4.852-.222h.005a2.9,2.9,0,0,0,.82-.173Zm.237,1.1-.4-.5a3.964,3.964,0,0,1-.786.144c-1.181.133-3.532.225-4.906.225-.527,0-.823-.011-1.166-.038l.05.6c.127-.01.25-.016.477-.028L52.5,10.9a38.663,38.663,0,0,0,4.973-.38l.2.443-.017.013a4.958,4.958,0,0,0-.493.419,34.259,34.259,0,0,1-5.355,4.16l-.04.024-.046.008a23.77,23.77,0,0,1-2.677.32l.069.655c.744-.17,2.216-.385,4.472-.654.536-.066,1.239-.158,1.8-.232.379-.05.68-.089.8-.1.653-.111.654-.112.88-.144l.136.477c-2.184.955-3.338,2.154-3.338,3.467a2.352,2.352,0,0,0,.855,1.825,6.363,6.363,0,0,0,3.875.981c.486.01.685.013.823.018l-.026-.677a6.089,6.089,0,0,1-.849.055c-2.579,0-4.058-.843-4.058-2.314a2.254,2.254,0,0,1,.564-1.48,5.881,5.881,0,0,1,2.092-1.594,10.815,10.815,0,0,1,4.506-.888h.076l-.057-.575c-.047.005-.1.009-.153.013l-.068.005c-.32.032-.8.08-1.459.128l-.9.084c-.816.076-1.46.137-1.946.172a36.956,36.956,0,0,0-3.813.429l-.172-.461a30.633,30.633,0,0,0,5.2-4.044A7.624,7.624,0,0,1,58.954,10.511ZM166.442,9.59h2.132l-.021.27c-.05.632-.08,1.1-.1,1.746l-.128,5.7c-.016.669-.016.669-.016.73,0,.263.013.531.047.956l.022.27h-1.721l.017-.266c.031-.488.031-.6.031-1.12V17.3l-.144-5.693c-.016-.656-.031-1.132-.095-1.74Zm1.592.5H167c.044.506.058.954.071,1.5l.144,5.7v.576c0,.418,0,.581-.016.886h.649c-.02-.293-.029-.51-.029-.726,0-.067,0-.067.016-.742l.128-5.7C167.972,11.03,168,10.6,168.034,10.09Zm-22.618.313,1.917.023-.046.286a11.417,11.417,0,0,0-.109,1.864,27.2,27.2,0,0,0,.409,4.919c.357,1.653.973,2.543,1.373,2.543.175,0,.384-.238.572-.653a11.257,11.257,0,0,0,.814-2.679l.1-.514.338.4a4.886,4.886,0,0,0,.908.877l.131.1-.045.161a10.7,10.7,0,0,1-1.231,3.06,1.97,1.97,0,0,1-1.666.995c-1.009,0-1.923-.947-2.508-2.6-.558-1.516-.8-3.572-.878-7.582l0-.084a7.515,7.515,0,0,0-.044-.838Zm1.336.516-.782-.009c.009.132.013.283.021.6l0,.085c.08,3.951.31,5.963.849,7.424.5,1.422,1.265,2.268,2.037,2.268.815,0,1.532-.606,2.37-3.53a4.92,4.92,0,0,1-.514-.463,11.028,11.028,0,0,1-.749,2.3c-.285.627-.631.946-1.027.946-.905,0-1.555-1.515-1.86-2.933a27.752,27.752,0,0,1-.422-5.029A13.694,13.694,0,0,1,146.753,10.919ZM77.172,10.9l.12,1.706h-.261c-.041,0-.239.027-1.077.142a27.314,27.314,0,0,1-3.474.21,21.635,21.635,0,0,1-2.587-.161l-.226-.024.024-1.681.307.079a10.57,10.57,0,0,0,2.658.232,16.955,16.955,0,0,0,4.223-.423Zm-.414,1.236-.042-.6a18.56,18.56,0,0,1-4.06.367,12.474,12.474,0,0,1-2.474-.177l-.008.6a20.1,20.1,0,0,0,2.307.135,26.791,26.791,0,0,0,3.406-.206C76.329,12.188,76.6,12.152,76.758,12.132ZM137.9,11.021l.189.075a22.192,22.192,0,0,1,4.267,2.134l.2.131-.838,1.4-.219-.151a17.154,17.154,0,0,0-4.183-2.147l-.3-.108Zm3.981,2.5a21.447,21.447,0,0,0-3.788-1.885l-.306.463a17.356,17.356,0,0,1,3.78,1.945Zm-32.263-2.337-.046.324a7.024,7.024,0,0,0-.045,1.053v1.5a7.536,7.536,0,0,0,.046,1.072l.041.316-.317-.035a12.547,12.547,0,0,0-1.476-.062h-2.811l-.054.3a6.8,6.8,0,0,0-.086.927c-.011.17-.03.341-.057.534h3.839a10.235,10.235,0,0,0,1.578-.093l.288-.044v1.649l-.283-.038a11.319,11.319,0,0,0-1.583-.094H105.3a4.955,4.955,0,0,0,1.75,1.924,8.8,8.8,0,0,0,1.754.854,11.641,11.641,0,0,0,1.888.487l.359.072-.2.308a3.312,3.312,0,0,0-.453,1l-.074.23-.232-.066a11.259,11.259,0,0,1-3.871-1.686,6.592,6.592,0,0,1-2.023-2.291,5.757,5.757,0,0,1-1.853,2.287,10.71,10.71,0,0,1-3.532,1.656l-.238.076L98.5,23.1A3.1,3.1,0,0,0,98,22.176l-.212-.3.356-.088a10.379,10.379,0,0,0,2.8-1.014A4.168,4.168,0,0,0,103,18.49h-2.264a10.085,10.085,0,0,0-1.5.078l-.284.039v-.5a10.416,10.416,0,0,1-1.961,5.057l-.176.252L96.6,23.2a3.729,3.729,0,0,0-.8-.649l-.225-.143.157-.215c1.6-2.2,1.968-3.924,1.968-9.245,0-.553-.03-1-.063-1.454l-.022-.3.3.03a17.306,17.306,0,0,0,1.735.063h8.176a11.413,11.413,0,0,0,1.473-.062Zm-1.8.6H99.648c-.639,0-1.1-.012-1.49-.04.025.367.044.748.044,1.2,0,5.284-.362,7.122-1.912,9.327a3.963,3.963,0,0,1,.457.364c1.388-2.067,1.807-3.759,1.915-7.538l.007-.243h9.155c.531,0,.89.01,1.224.036-.018-.25-.018-.491-.018-.826v-1.5c0-.332,0-.574.017-.808C108.739,11.777,108.382,11.786,107.824,11.786Zm-4.542,3.568H99.154c-.02.6-.049,1.145-.089,1.651l.174.028a9,9,0,0,0,1.5.077H103.3a7.382,7.382,0,0,0,.078-.9,3.9,3.9,0,0,0-.061-.6Zm1.147.464h-.573a3.213,3.213,0,0,1,.026.39,8.807,8.807,0,0,1-.115,1.19l-.033.212h-3a12.267,12.267,0,0,1-1.286-.044v.473a12.46,12.46,0,0,1,1.286-.048h2.941l-.092.32a4.646,4.646,0,0,1-2.387,2.9,10.048,10.048,0,0,1-2.583.978,3.282,3.282,0,0,1,.275.525,9.714,9.714,0,0,0,3.154-1.505,5.33,5.33,0,0,0,1.9-2.576l.21-.555.25.538a6.251,6.251,0,0,0,2.112,2.591A10.387,10.387,0,0,0,110,22.749a3.321,3.321,0,0,1,.245-.575,10.526,10.526,0,0,1-1.609-.435,9.347,9.347,0,0,1-1.86-.906,5.54,5.54,0,0,1-2.107-2.49l-.161-.353h4.148a12.4,12.4,0,0,1,1.366.064v-.5a12.266,12.266,0,0,1-1.366.061h-4.418l.043-.287c.046-.31.078-.548.094-.78C104.4,16.161,104.415,15.953,104.429,15.818Zm50.4-4.611.128.151a14.141,14.141,0,0,1,2.326,3.71A15.5,15.5,0,0,1,158.5,19.4l.031.2-1.631.666-.032-.334a13.847,13.847,0,0,0-3.269-7.749l-.208-.242Zm3.146,8.076a14.723,14.723,0,0,0-1.149-4.013,13.556,13.556,0,0,0-2.124-3.438l-.518.263a14.333,14.333,0,0,1,3.147,7.451ZM98.71,12.15h9.828v2.34H98.694v-.25c0-.141,0-.256.007-.378,0-.144.009-.308.009-.55Zm9.328.5H99.21v.662c0,.249,0,.417-.009.565,0,.039,0,.076,0,.113h8.84Zm-83.078.636a5.342,5.342,0,0,1,2.886.647,3.088,3.088,0,0,1,1.476,2.755,5.356,5.356,0,0,1-2.871,4.533,12.506,12.506,0,0,1-4.724,1.553l-.216.041-.068-.209a3.823,3.823,0,0,0-.486-1.113l-.221-.354.417-.028a9.966,9.966,0,0,0,4.388-1.264,3.692,3.692,0,0,0,1.3-1.072,3.32,3.32,0,0,0,.764-2.023,1.694,1.694,0,0,0-.892-1.572,4.23,4.23,0,0,0-1.85-.322,21.94,21.94,0,0,0-6,1.053l-.271.111-.437-1.863.288-.025a12.481,12.481,0,0,0,1.59-.268A27.108,27.108,0,0,1,24.96,13.286Zm-3.111,8.955a11.671,11.671,0,0,0,4.342-1.447,4.876,4.876,0,0,0,2.631-4.106,2.611,2.611,0,0,0-1.243-2.332,4.879,4.879,0,0,0-2.619-.57,26.652,26.652,0,0,0-4.834.572c-.878.169-1.144.22-1.354.247l.174.742a23.64,23.64,0,0,1,5.918-.988,4.635,4.635,0,0,1,2.09.384,2.2,2.2,0,0,1,1.152,2.01,3.8,3.8,0,0,1-.867,2.327,4.179,4.179,0,0,1-1.455,1.2,10.3,10.3,0,0,1-4.2,1.294A4.416,4.416,0,0,1,21.849,22.241Zm115.73-8.209,1.6.165-.077.284a4.687,4.687,0,0,0-.2,1.423,19.577,19.577,0,0,0,.153,2.259,11.637,11.637,0,0,1,3.075,1.922l.011.01a1.463,1.463,0,0,0,.257.229l.18.129-.876,1.61-.235-.29a8.582,8.582,0,0,0-2.324-1.894c0,.023,0,.047,0,.072,0,1.786-1.2,2.81-3.29,2.81a4.049,4.049,0,0,1-2.429-.675,2.276,2.276,0,0,1-.941-1.895,2.51,2.51,0,0,1,1.643-2.263,4.885,4.885,0,0,1,1.983-.371,5.218,5.218,0,0,1,1.341.159c-.056-.782-.087-1.447-.087-1.861a6.677,6.677,0,0,1,.166-1.6Zm.971.6-.574-.059a6.214,6.214,0,0,0-.11,1.28c0,.455.042,1.267.111,2.173l.027.357-.345-.1a5.033,5.033,0,0,0-1.548-.231,4.409,4.409,0,0,0-1.79.332,2.015,2.015,0,0,0-1.337,1.8c0,1.277,1.1,2.07,2.87,2.07,1.273,0,2.79-.4,2.79-2.31a3.086,3.086,0,0,0-.03-.481L138.557,19l.423.22a9.829,9.829,0,0,1,2.637,1.961l.32-.588c-.034-.032-.076-.074-.14-.138a11.3,11.3,0,0,0-3.065-1.889l-.125-.055-.021-.135a19.2,19.2,0,0,1-.179-2.471A4.924,4.924,0,0,1,138.55,14.635Zm-67.518.713,1.335.728-.214.235A3.5,3.5,0,0,0,71.018,18.5c0,1.353,1.611,1.51,2.822,1.51a10.347,10.347,0,0,0,3.586-.542l.3-.122.236,1.815-.263.02a2.583,2.583,0,0,0-.284.037c-.062.01-.139.023-.253.04a16.779,16.779,0,0,1-3.323.324c-1.894,0-3.119-.415-3.857-1.307a2.5,2.5,0,0,1-.537-1.631A4.637,4.637,0,0,1,70.9,15.5Zm.542.865-.428-.234a4.027,4.027,0,0,0-1.2,2.66,2.022,2.022,0,0,0,.425,1.316c.632.765,1.735,1.122,3.469,1.122a16.284,16.284,0,0,0,3.231-.315l.012,0c.112-.017.189-.03.25-.04l.067-.011-.087-.671a11.5,11.5,0,0,1-3.472.467c-2.2,0-3.322-.676-3.322-2.01A3.665,3.665,0,0,1,71.574,16.214ZM88.5,18.374a4.405,4.405,0,0,1,1.8.353l.152.059.007.163c0,.015.016.375.016.491a2.079,2.079,0,0,1-.365,1.412,2.427,2.427,0,0,1-1.821.646c-1.26,0-2.106-.621-2.106-1.546C86.182,19.008,87.112,18.374,88.5,18.374Zm1.469.761a3.748,3.748,0,0,0-1.469-.261c-1.1,0-1.814.423-1.814,1.078,0,.635.63,1.046,1.606,1.046a1.974,1.974,0,0,0,1.443-.473,1.688,1.688,0,0,0,.243-1.085C89.974,19.385,89.969,19.251,89.965,19.135Zm-52.077-.729a5.647,5.647,0,0,1,1.693.227c.194.029.212.245.219.33.005.064.011.152.016.254.009.174.018.409.018.543a1.716,1.716,0,0,1-.463,1.382l-.007.006a2.952,2.952,0,0,1-1.941.59,2.8,2.8,0,0,1-2.108-.725,1.325,1.325,0,0,1-.3-.853C35.014,19.078,36.115,18.406,37.888,18.406Zm1.419.672a5.014,5.014,0,0,0-1.419-.172c-1.464,0-2.374.48-2.374,1.254a.842.842,0,0,0,.176.521l.006.006a2.388,2.388,0,0,0,1.729.551,2.474,2.474,0,0,0,1.608-.463c.181-.172.3-.412.3-1.015C39.334,19.6,39.32,19.27,39.307,19.078Zm96.725-.576a4.976,4.976,0,0,1,1.86.335l.155.055.011.164c0,.021.033.506.033.7,0,1.342-.736,1.994-2.25,1.994-1.408,0-2.282-.6-2.282-1.562C133.558,19.165,134.529,18.5,136.032,18.5Zm1.537.752A4.416,4.416,0,0,0,136.032,19c-1.218,0-1.974.456-1.974,1.19,0,.665.666,1.062,1.782,1.062,1.243,0,1.75-.433,1.75-1.494C137.59,19.646,137.578,19.413,137.569,19.254Zm28.933.992h2.052v2H166.5Zm1.552.5H167v1h1.052Z" transform="matrix(0.978, -0.208, 0.208, 0.978, 514.757, 919.244)" fill="#fff"/><path d="M566.62,11365.546a103.159,103.159,0,0,1,21.627,2.114,61.83,61.83,0,0,1,18.589,7.021c11.865,7.051,19.011,18.057,21.24,32.711a85.262,85.262,0,0,1,.977,17.467,56.328,56.328,0,0,1-2.623,14.425,46.615,46.615,0,0,1-5.8,11.776,51.377,51.377,0,0,1-8.511,9.513,70.736,70.736,0,0,1-10.726,7.688,115.216,115.216,0,0,1-12.476,6.332c-8.785,3.867-18.472,7.162-28.453,10.476a178.171,178.171,0,0,1-26.8,6.819,131.517,131.517,0,0,1-22,1.869c-11.3,0-21.392-1.5-31.157-2.94-2.043-.3-4.156-.615-6.253-.911a78.639,78.639,0,0,0-10.927-.762,82.781,82.781,0,0,0-22.363,3.124,58.162,58.162,0,0,0-8.623,3.1,1,1,0,0,1-1.009-1.72c.072-.05,7.265-5.129,6.823-10.347-.226-2.666-2.473-5.021-6.677-7a34.522,34.522,0,0,1-10.349-7.18,22.189,22.189,0,0,1-5.68-10.094,25.365,25.365,0,0,1,.682-13.569,53.538,53.538,0,0,1,8.841-16.262,144.345,144.345,0,0,1,13.695-15.795,116.01,116.01,0,0,1,16.826-13.733c13.18-8.879,29.779-16.442,52.238-23.8a221.422,221.422,0,0,1,28.942-7.394A167.283,167.283,0,0,1,566.62,11365.546Zm-54.955,126.21a129.538,129.538,0,0,0,21.665-1.841,176.337,176.337,0,0,0,26.5-6.746c9.935-3.3,19.573-6.575,28.278-10.407a113.431,113.431,0,0,0,12.261-6.222,68.826,68.826,0,0,0,10.426-7.47,45.6,45.6,0,0,0,13.735-20.412,54.331,54.331,0,0,0,2.526-13.912,83.28,83.28,0,0,0-.958-17.054,46.042,46.042,0,0,0-7.05-18.94,40.947,40.947,0,0,0-13.234-12.353,59.829,59.829,0,0,0-17.989-6.784,101.2,101.2,0,0,0-21.2-2.069,165.349,165.349,0,0,0-29.587,2.892,219.555,219.555,0,0,0-28.68,7.327c-22.279,7.3-38.721,14.789-51.743,23.562a114.073,114.073,0,0,0-16.539,13.5,142.512,142.512,0,0,0-13.5,15.578,51.59,51.59,0,0,0-8.522,15.639,23.4,23.4,0,0,0-.653,12.507,20.216,20.216,0,0,0,5.183,9.189,32.542,32.542,0,0,0,9.756,6.752c4.9,2.306,7.531,5.214,7.82,8.645.268,3.192-1.577,6.18-3.526,8.395,1.105-.378,2.374-.781,3.794-1.187a84.239,84.239,0,0,1,22.911-3.2,80.541,80.541,0,0,1,11.206.781c2.1.3,4.22.609,6.267.913C490.94,11490.338,500.516,11491.756,511.664,11491.756Z" transform="translate(1123.864 12341.235) rotate(180)" fill="#fff"/></g></svg>