<svg xmlns="http://www.w3.org/2000/svg" width="432.41" height="208.393" viewBox="0 0 432.41 208.393"><g transform="translate(-1010.658 -1557.471)"><path d="M13-10.2a8.666,8.666,0,0,1,.1-1.5H11.45a13.665,13.665,0,0,1,.075,1.5H4.875a13.143,13.143,0,0,1-2.225-.125V-8.75a13.882,13.882,0,0,1,2.225-.125H20.3a13.507,13.507,0,0,1,2.225.125v-1.575a13.112,13.112,0,0,1-2.25.125ZM7.85-8.5A6.589,6.589,0,0,1,6.1-6.325,10.759,10.759,0,0,1,2.8-4.3,4.492,4.492,0,0,1,3.9-3.125,13.744,13.744,0,0,0,7.575-5.85a10.01,10.01,0,0,0,2.85,2.025,4.973,4.973,0,0,1,.85-1.15,7.206,7.206,0,0,1-2.9-1.775c.275-.375.45-.6.825-1.175Zm8.85.05a7.859,7.859,0,0,1-3.375,3.9,4.512,4.512,0,0,1,1.05.95A12.292,12.292,0,0,0,16.8-6.025a14.046,14.046,0,0,0,4.775,2.75,4.182,4.182,0,0,1,.825-1.25,11.435,11.435,0,0,1-4.9-2.5c.2-.325.3-.475.55-.925Zm-3.625,6.9h7.9a19.315,19.315,0,0,1,2.575.15V-3.075a17.527,17.527,0,0,1-2.525.15h-7.95V-3.95A8.514,8.514,0,0,1,13.2-5.6H11.45a9.172,9.172,0,0,1,.125,1.65v1.025h-7.6a17.151,17.151,0,0,1-2.5-.15V-1.4A19.315,19.315,0,0,1,4.05-1.55h7.525V-.175a14.655,14.655,0,0,1-.175,2.35h1.85A14.967,14.967,0,0,1,13.075-.2ZM12-17.425a19.363,19.363,0,0,1,.1-2.4,16.924,16.924,0,0,1-2.4.1H4.275a15.867,15.867,0,0,1-2.475-.15v1.65a12.58,12.58,0,0,1,2.375-.15H10.55V-13.4c0,.575-.2.725-.95.725a13.154,13.154,0,0,1-2.3-.25,4.822,4.822,0,0,1,.3,1.35c.675.075,1.55.125,2.05.125,1.8,0,2.35-.45,2.35-1.925Zm-4.375,1.25A20.183,20.183,0,0,0,3.975-18.1L3.15-17.075A16.412,16.412,0,0,1,6.775-15.05ZM22.95-17.4a19.825,19.825,0,0,1,.1-2.425,16.084,16.084,0,0,1-2.35.1H15.325a16.914,16.914,0,0,1-2.5-.15v1.65a12.737,12.737,0,0,1,2.375-.15h6.275V-13.3c0,.55-.175.7-.9.7A15.261,15.261,0,0,1,18-12.875a6.855,6.855,0,0,1,.325,1.375c1.225.1,1.65.125,2.425.125,1.725,0,2.2-.425,2.2-1.9Zm-4.7,1.375a14.749,14.749,0,0,0-3.4-1.875l-.775.975a13.846,13.846,0,0,1,3.4,1.95ZM9.475-15.6a29.844,29.844,0,0,1-7.5,2.65l.55,1.5c.5-.225.825-.35,1.05-.45A48.908,48.908,0,0,0,9.55-14.35ZM20.4-15.8a27.083,27.083,0,0,1-7.225,2.475l.6,1.425c.35-.15.5-.2,1-.375,2.675-.95,3.825-1.425,5.7-2.25Zm9.85.875v3.1H28.675a11.606,11.606,0,0,1-1.675-.1v1.5a12.434,12.434,0,0,1,1.7-.1h1.525c-.025,1.5-.05,2.175-.175,3.425a31.876,31.876,0,0,1-3.625.65l.35,1.675a13.637,13.637,0,0,1,1.85-.525c.6-.15,1-.25,1.25-.3A9.267,9.267,0,0,1,26.8.375,4.3,4.3,0,0,1,28.05,1.55a12.642,12.642,0,0,0,3.325-7.575C33.05-6.475,33.6-6.675,35.4-7.3V-8.7c-1.775.6-2.4.8-3.85,1.2.075-1.15.125-1.875.15-3.025h1.45a11.475,11.475,0,0,1,1.65.1v-1.5a11.966,11.966,0,0,1-1.7.1H31.725v-3.1h1.5a13.983,13.983,0,0,1,1.925.1V-16.4a12.062,12.062,0,0,1-2,.125H32.7a29.3,29.3,0,0,0,1.775-4.15l-1.425-.55a23.935,23.935,0,0,1-1.775,4.7h-2.65a10.2,10.2,0,0,1-2.075-.15v1.65a10.236,10.236,0,0,1,2.05-.15ZM39.65-9A19.848,19.848,0,0,1,34.6-5.7l.65,1.65c.3-.2.35-.25,1-.65a34.835,34.835,0,0,0,3.4-2.625v6.6c0,.4-.225.575-.775.575a13.75,13.75,0,0,1-2.75-.35,5.644,5.644,0,0,1,.45,1.65,17.828,17.828,0,0,0,2.575.175C40.575,1.325,41.1.85,41.1-.5V-17.45a16.353,16.353,0,0,1,.1-2.1,14.818,14.818,0,0,1-1.75.075h-2.4a9.535,9.535,0,0,1-1.9-.125v1.65a8.962,8.962,0,0,1,1.75-.125h2.75Zm6.7,0a18.87,18.87,0,0,1-4.6,3.15l.7,1.6c.55-.425.55-.425.975-.725A26.475,26.475,0,0,0,46.35-7.35V-.775c0,.475-.2.625-.8.625A12.744,12.744,0,0,1,42.9-.525a5.789,5.789,0,0,1,.45,1.675,18.481,18.481,0,0,0,2.55.175c1.4,0,1.95-.5,1.95-1.825V-17.45a16.107,16.107,0,0,1,.1-2.1,16.746,16.746,0,0,1-1.8.075h-2.4a9.689,9.689,0,0,1-1.9-.125v1.65a9.079,9.079,0,0,1,1.775-.125H46.35ZM27.375-20.375a17.027,17.027,0,0,1,1.7,3.75l1.35-.55a22.408,22.408,0,0,0-1.75-3.75Zm8.25,4.875a19.785,19.785,0,0,1,2.025,4.825l1.25-.65a26.314,26.314,0,0,0-2-4.775Zm6.575.025a19.617,19.617,0,0,1,2.025,4.85l1.25-.65A25.59,25.59,0,0,0,43.45-16.1Zm15.55-4.15a8.363,8.363,0,0,1,.425,1.575,50.926,50.926,0,0,0,1.825,7,15.568,15.568,0,0,0-3.275,2.025A5.408,5.408,0,0,0,54.5-4.775a4.151,4.151,0,0,0,3.1,4.1A17.008,17.008,0,0,0,63.15,0a50.151,50.151,0,0,0,5.525-.325,12.957,12.957,0,0,1,1.85-.15l-.2-2.075a24.822,24.822,0,0,1-7.15.85c-4.9,0-6.825-.875-6.825-3.15,0-2.075,1.85-3.725,6.125-5.425A57.5,57.5,0,0,1,70-12.7l-.75-1.9a13.519,13.519,0,0,1-1.6.65c-3.875,1.35-4.575,1.625-6.05,2.225A43.482,43.482,0,0,1,59.725-20Zm20.65,1.9a13.527,13.527,0,0,1,.075,1.475c.125,6.15.475,9.35,1.35,11.725.85,2.4,2.15,3.8,3.55,3.8,1.775,0,2.925-1.675,4.15-6.05A7.991,7.991,0,0,1,86.05-8.2a17.987,17.987,0,0,1-1.3,4.275c-.375.825-.8,1.25-1.25,1.25-.95,0-1.975-1.725-2.525-4.275a42.812,42.812,0,0,1-.65-7.775A18.122,18.122,0,0,1,80.5-17.7ZM91.05-15.6a22.079,22.079,0,0,1,5.2,12.325L98.025-4a23.938,23.938,0,0,0-1.875-6.675,21.7,21.7,0,0,0-3.575-5.7Zm16.25-2.7a35.617,35.617,0,0,0,9.325,1.7l.35-1.675a30.572,30.572,0,0,1-9.05-1.55Zm-2.15,6.45c.65-.075,1.175-.125,2.375-.2a47.952,47.952,0,0,0,7.45-.8c-1.8,1.725-3.075,2.975-3.8,3.7-2.025,2-4.1,4-5.9,5.675a18.012,18.012,0,0,1-2.7,2.3l1.4,1.55c.875-1,2.525-2.7,3.75-3.825,2.075-1.925,3.3-2.625,4.6-2.625a1.221,1.221,0,0,1,1.15.6,4.325,4.325,0,0,1,.275,1.725A6.325,6.325,0,0,0,114.3-1c.525.975,1.625,1.425,3.5,1.425A19.88,19.88,0,0,0,121.225.1C123-.175,123-.175,123.25-.2l-.275-1.925a13.481,13.481,0,0,1-5.05.925c-1.15,0-1.725-.2-2.075-.675-.275-.4-.35-.775-.45-2.35-.1-1.425-.275-2-.775-2.5a2.319,2.319,0,0,0-1.7-.65,5.3,5.3,0,0,0-2.5.825,55.471,55.471,0,0,0,4.95-4.5,23.024,23.024,0,0,1,2.225-2.075L116.5-14.5a4.754,4.754,0,0,1-1.2.275,85.242,85.242,0,0,1-8.775.6c-.55,0-.875,0-1.5-.05Zm24.325-7.625A10.348,10.348,0,0,1,129.2-17.9a42.216,42.216,0,0,0-1.3,10.275A40,40,0,0,0,128.6-.2c.1.6.125.7.15.925l1.775-.2a2.566,2.566,0,0,1-.05-.5,21.65,21.65,0,0,1,2.15-7.075L131.4-7.625a5.126,5.126,0,0,1-.2.5,22.553,22.553,0,0,0-1.475,4.375h-.1l-.025-1.2c-.075-1.125-.1-2.6-.1-3.5,0-4.075.85-9.225,1.925-11.725Zm11.65,5.275c-1.025.05-1.7.075-2.675.075a17.427,17.427,0,0,1-4.5-.4l-.05,1.75h.1a1.148,1.148,0,0,1,.25.025,4.339,4.339,0,0,1,.45.025,6.5,6.5,0,0,1,.775.05c.85.05,1.775.075,2.825.075,1.025,0,1.775-.025,2.85-.075.075,3.775.175,6.025.25,6.525a7.5,7.5,0,0,0-2.775-.475c-2.8,0-4.75,1.475-4.75,3.6,0,2.15,1.825,3.5,4.725,3.5,2.075,0,3.6-.775,4.2-2.1a4.44,4.44,0,0,0,.3-1.725,3.35,3.35,0,0,0-.05-.625,1.48,1.48,0,0,1,.15.1l.15.1a1.48,1.48,0,0,0,.15.1,13.011,13.011,0,0,1,3.55,2.6l.8-1.775a3.312,3.312,0,0,1-.625-.4,19.308,19.308,0,0,0-4.2-2.475c-.175-3-.25-4.9-.25-7.075,1.175-.15,2.075-.275,2.625-.4.925-.175,1.45-.3,1.6-.325.025,0,.1-.025.15-.025l-.075-1.65a20.378,20.378,0,0,1-4.325.875V-15.55a31.183,31.183,0,0,1,.15-3.925h-1.875a5.016,5.016,0,0,1,.075,1.025v2.85Zm.3,9.575a4.617,4.617,0,0,1,.05.725A2.779,2.779,0,0,1,141-1.925a3.493,3.493,0,0,1-2.55.9c-1.75,0-2.925-.8-2.925-2,0-1.3,1.25-2.1,3.225-2.1A6.845,6.845,0,0,1,141.425-4.625ZM143.75-20.65a20.183,20.183,0,0,1,1.875,4.125L146.95-17a18.7,18.7,0,0,0-1.9-4.05Zm2.95-.75a20.523,20.523,0,0,1,1.9,4.05l1.275-.5a19.009,19.009,0,0,0-1.9-4.025Zm9.175,5.2a5.871,5.871,0,0,1,.825.075,48.9,48.9,0,0,0,5.5.325,19.76,19.76,0,0,0,3.775-.325c-.25.15-.3.15-.475.25-.3.15-.35.175-.625.325a38.734,38.734,0,0,0-3.325,2.075l1.275,1.025a35.606,35.606,0,0,1,6.3-3.8L169-17.9a27.34,27.34,0,0,1-6.325.525,28.582,28.582,0,0,1-6.65-.6Zm1.5,6.4C155.45-8.175,154.5-6.6,154.5-4.975c0,1.725.975,3,2.85,3.775a17.637,17.637,0,0,0,5.75.775A40.781,40.781,0,0,0,169.85-1a6.992,6.992,0,0,1,.85-.125l-.225-2.05a23.716,23.716,0,0,1-7.5.95,15.92,15.92,0,0,1-4.575-.5c-1.4-.475-2.125-1.3-2.125-2.45,0-1.175.75-2.325,2.375-3.675ZM177.75-3.1a5.3,5.3,0,0,1,.65-.8c.425-.475.775-.875,1.05-1.175.85-.95.85-.95,1.225-1.375a2.777,2.777,0,0,0,.45-.6h.05C181.1-5.925,181.1-5.925,181.1-3a21.377,21.377,0,0,1-.175,4.125h1.95a38.765,38.765,0,0,1-.075-4.15v-5.4a40.539,40.539,0,0,1,4.825-4.25c1.6-1.15,2.8-1.7,3.775-1.7a1.267,1.267,0,0,1,1.375,1.35,18.74,18.74,0,0,1-.625,3.75c-.9,4.275-.95,4.55-.95,5.825A3.112,3.112,0,0,0,192.375-.6a3.082,3.082,0,0,0,1.75.525,4.3,4.3,0,0,0,3.45-1.8,12.339,12.339,0,0,0,1.55-2.475,8.228,8.228,0,0,1-1.15-1.7,10.288,10.288,0,0,1-1.425,2.875A3.015,3.015,0,0,1,194.425-1.8c-.975,0-1.5-.625-1.5-1.775,0-1.025.15-1.9,1.075-5.925a16.7,16.7,0,0,0,.575-3.65,2.718,2.718,0,0,0-2.925-2.925c-1.5,0-3.375.925-5.65,2.75a17.846,17.846,0,0,0-3.175,2.925l-.05-.025c0-.15.025-.2.025-.4a1.276,1.276,0,0,0,.025-.225c.025-1.175.025-1.175.05-1.675a4.262,4.262,0,0,0,.025-.625,8.616,8.616,0,0,1,1.275-1.55l-.65-.775a1.632,1.632,0,0,1-.5.125,29.1,29.1,0,0,1,.3-4.45l-1.975-.025a10.178,10.178,0,0,1,.075,1.25c0,.325-.025,1.45-.1,3.35-2.1.125-3.2.2-3.275.2a5.059,5.059,0,0,1-.775-.05l.1,1.725a25.475,25.475,0,0,1,3.925-.35c-.075,2.2-.125,3.775-.15,4.775a38.389,38.389,0,0,1-4.4,4.225Zm35.675-1.575c-.05-.625-.075-1.075-.075-1.525,0-.1,0-.1.025-1.15l.2-8.9c.025-1.05.075-1.8.15-2.75H211.25c.1.95.125,1.7.15,2.75l.225,8.9v.9c0,.825,0,1-.05,1.775Zm.3,4.675V-2.35H211.3V0ZM6.575,33.6v2.8h-2.5A13.032,13.032,0,0,1,1.9,36.275V37.9a13.4,13.4,0,0,1,2.175-.125h2.5V41.3a31.733,31.733,0,0,1-5.25.575l.4,1.775a16.974,16.974,0,0,1,1.925-.4C7,42.725,9.2,42.3,12.9,41.425l-.025-1.375c-2.325.55-3.3.75-4.875,1.025v-3.3h2.525A13.215,13.215,0,0,1,12.7,37.9V36.275a13.215,13.215,0,0,1-2.175.125H8V33.6h2.2a16.29,16.29,0,0,1,2.225.1c-.05-.525-.075-1.15-.075-2.325V25.7c0-1.05.025-1.75.075-2.3a16.713,16.713,0,0,1-2.25.1h-5.6a22.778,22.778,0,0,1-2.325-.1,18.838,18.838,0,0,1,.1,2.3v5.625a19.953,19.953,0,0,1-.1,2.375,17.574,17.574,0,0,1,2.3-.1Zm0-8.75v2.975H3.725V24.85ZM8,24.85h2.975v2.975H8ZM6.575,29.125V32.3H3.725V29.125Zm1.425,0h2.975V32.3H8ZM22.225,23.4a10.954,10.954,0,0,1-1.875.1H15.7a13.324,13.324,0,0,1-2.225-.125v1.65a13.257,13.257,0,0,1,2.15-.125h5.3a20.6,20.6,0,0,1-3.075,3.2,31.186,31.186,0,0,0-2.65-1.925l-.975,1.05a22.2,22.2,0,0,1,4.875,3.95h-4a12.352,12.352,0,0,1-2.15-.125v1.675A12.888,12.888,0,0,1,15.1,32.6h2.075v9.875c0,.475-.175.575-.975.575a17.762,17.762,0,0,1-2.85-.325,5.678,5.678,0,0,1,.375,1.675,22.679,22.679,0,0,0,2.325.125c2.075,0,2.675-.4,2.675-1.85V32.6h3.55A14.011,14.011,0,0,1,19.4,36.175a5.079,5.079,0,0,1,1.25.875,24.3,24.3,0,0,0,3.525-4.95l-.825-1.025a10.954,10.954,0,0,1-1.875.1h-2.1l.925-.95c-.675-.6-.9-.8-1.4-1.25a23.211,23.211,0,0,0,3.025-3.125,16.092,16.092,0,0,1,1.2-1.425ZM32.9,24.475H29.175a19.231,19.231,0,0,1-2.775-.15v1.65a20.891,20.891,0,0,1,2.775-.125H32.9v.55a10.311,10.311,0,0,1-.1,1.55h1.725a9.888,9.888,0,0,1-.1-1.55v-.55H40.35v.2a10.532,10.532,0,0,1-.1,1.55h1.725a9.888,9.888,0,0,1-.1-1.55v-.2h4a21.307,21.307,0,0,1,2.8.125v-1.65a19.626,19.626,0,0,1-2.8.15h-4v-.65A8.366,8.366,0,0,1,42,22.25H40.225a12.428,12.428,0,0,1,.125,1.575v.65H34.425v-.65a8.7,8.7,0,0,1,.125-1.575h-1.8a8.812,8.812,0,0,1,.15,1.575ZM35.8,37.65a21.437,21.437,0,0,1-9.6,4.825,4.481,4.481,0,0,1,1.075,1.45,24.576,24.576,0,0,0,5.6-2.475,17.323,17.323,0,0,0,3.9-3.05c-.025.375-.075,1.15-.1,2.325V42.25a16.066,16.066,0,0,1-.175,2.625h1.85a13.48,13.48,0,0,1-.175-2.625V40.725c0-.575-.025-1.075-.05-1.45-.025-.625-.025-.625-.05-.9a20.142,20.142,0,0,0,3.825,3.05A25.418,25.418,0,0,0,47.85,44a6.607,6.607,0,0,1,1.025-1.5,21.264,21.264,0,0,1-9.85-4.85h6.45a22.363,22.363,0,0,1,2.825.15V36.15a18.392,18.392,0,0,1-2.825.15h-7.3a7.272,7.272,0,0,1,.125-1.6H36.55a7.842,7.842,0,0,1,.125,1.6H29.5a17.854,17.854,0,0,1-2.775-.15V37.8a21.643,21.643,0,0,1,2.75-.15Zm-3.025-2.975A16.54,16.54,0,0,0,30.3,31.1l-1.35.65a12.459,12.459,0,0,1,2.5,3.65Zm2.6-3.5a11.533,11.533,0,0,1,1.8,3.175l1.35-.65a18.516,18.516,0,0,0-1.85-3.075ZM44.35,29.9a17.088,17.088,0,0,1-3.15,5l1.275.675a31.83,31.83,0,0,0,3.4-4.975Zm1.2-2.6a31.181,31.181,0,0,1-7.475,1.4,99.3,99.3,0,0,1-10.175.375,4.277,4.277,0,0,1,.725,1.425,96,96,0,0,0,10.325-.55,56.593,56.593,0,0,0,7.725-1.275Zm12.2-3.925a8.363,8.363,0,0,1,.425,1.575,50.926,50.926,0,0,0,1.825,7,15.568,15.568,0,0,0-3.275,2.025,5.408,5.408,0,0,0-2.225,4.25,4.151,4.151,0,0,0,3.1,4.1A17.008,17.008,0,0,0,63.15,43a50.151,50.151,0,0,0,5.525-.325,12.957,12.957,0,0,1,1.85-.15l-.2-2.075a24.822,24.822,0,0,1-7.15.85c-4.9,0-6.825-.875-6.825-3.15,0-2.075,1.85-3.725,6.125-5.425A57.5,57.5,0,0,1,70,30.3l-.75-1.9a13.519,13.519,0,0,1-1.6.65c-3.875,1.35-4.575,1.625-6.05,2.225A43.482,43.482,0,0,1,59.725,23ZM87.05,32.1l3.575-1.2v6.35a16.28,16.28,0,0,1-.15,2.425h1.85a16.387,16.387,0,0,1-.15-2.4v-6.9l4.15-1.425a50.388,50.388,0,0,1-.4,6.325c-.125.725-.25.85-.825.85a8.941,8.941,0,0,1-1.925-.225,5.821,5.821,0,0,1,.375,1.575c.575.05.875.075,1.1.075a3.418,3.418,0,0,0,1.8-.35c.65-.375.975-1.425,1.15-3.65.2-2.45.3-4.2.4-6.7a18.064,18.064,0,0,1-1.975.775L92.175,28.9V24.8a16.633,16.633,0,0,1,.15-2.35h-1.85a15.777,15.777,0,0,1,.15,2.325V29.4L87.05,30.6V27.1a17.755,17.755,0,0,1,.15-2.475H85.325a18.153,18.153,0,0,1,.15,2.55V31.1l-.9.3a9.634,9.634,0,0,1-2.175.5l.45,1.7a13.783,13.783,0,0,1,2.075-.8l.55-.175V41.8c0,1.95,1.025,2.325,6.2,2.325,6.5,0,6.95-.3,7.25-4.925a4.585,4.585,0,0,1-1.6-.65,7.287,7.287,0,0,1-.525,3.375c-.4.575-1.45.725-4.975.725a18.173,18.173,0,0,1-4.025-.225c-.6-.15-.75-.35-.75-.95ZM79.4,29.025h-.925a9.226,9.226,0,0,1-2.1-.15v1.7a9.489,9.489,0,0,1,2.1-.15H79.4v8.55A14.081,14.081,0,0,1,76.05,40.1l.425,1.725c.275-.125.65-.3,1-.425a48.258,48.258,0,0,0,6.45-3.05l-.15-1.525c-1.3.725-1.75.95-2.825,1.45v-7.85h.675a15.593,15.593,0,0,1,2.025.1V28.9a9.448,9.448,0,0,1-2,.125h-.7V25.3a20.874,20.874,0,0,1,.15-2.8H79.25a20.464,20.464,0,0,1,.15,2.775Zm29.8,8.425a6.428,6.428,0,0,1,.875.025,2.717,2.717,0,0,1,.325.025,3.571,3.571,0,0,1,.825.075V36a11.486,11.486,0,0,1-2.025.125h-2.1a18.449,18.449,0,0,0,.2-2.175h1.8l1.175.05a3.543,3.543,0,0,1,.575.025,1.868,1.868,0,0,0,.275.05v-1.55a10.363,10.363,0,0,1-2,.125H107.35c.025-.8.025-1,.1-1.7h-1.575a9.731,9.731,0,0,1,.1,1.7H104.2a10.205,10.205,0,0,1-2-.125v1.55a11.658,11.658,0,0,1,2.025-.125h1.7c-.025.85-.1,1.55-.175,2.175H103.5A11.315,11.315,0,0,1,101.475,36v1.575a12.148,12.148,0,0,1,2.05-.125H105.5a7.515,7.515,0,0,1-1.425,3.2,8.874,8.874,0,0,1-3.2,2.675A3.947,3.947,0,0,1,101.9,44.55a9.989,9.989,0,0,0,4.675-6.025A11.489,11.489,0,0,0,109.55,42.1a4.451,4.451,0,0,1,.875-1.35,9.188,9.188,0,0,1-3.1-3.3Zm5.475-13.275a17.961,17.961,0,0,1-2.35-.1,13.982,13.982,0,0,1,.1,1.925v9.2a18.131,18.131,0,0,1-.1,2.275,12.949,12.949,0,0,1,1.85-.075h7.65a25.38,25.38,0,0,1-.35,4.025c-.25,1.35-.55,1.725-1.4,1.725a15.412,15.412,0,0,1-2.775-.35,3.584,3.584,0,0,1,.35,1.525,21.927,21.927,0,0,0,2.475.2,2.277,2.277,0,0,0,2.175-.875c.5-.775.875-2.625,1-5.3.1-1.75.1-1.9.125-2.075a.555.555,0,0,0,.025-.225,19,19,0,0,1-2.025.075H113.85V34.4h7.875a13.916,13.916,0,0,1,2.05.1V33.025a11.659,11.659,0,0,1-2.025.125h-7.9v-1.7h6c.725,0,1.425.025,2.05.05-.05-.575-.075-1.15-.075-2.125V26.1c0-.925.075-2.025.075-2.025s-1.225.1-2.4.1h-2.525c.3-.575.5-.975.875-1.8l-1.6-.35a9.09,9.09,0,0,1-.8,2.15Zm-.825,3.05V25.4h6.525v1.825Zm0,1.15h6.525V30.25H113.85Zm-3.5-5.975c-1.7,1.1-5.475,2.025-9.05,2.2a4.036,4.036,0,0,1,.725,1.375,29.913,29.913,0,0,0,9.3-2.4Zm-5.475,8.275a21.1,21.1,0,0,0-1.65-4.05l-1.225.4a17.466,17.466,0,0,1,1.6,4.15Zm6.85,7.625a12.633,12.633,0,0,1-1.85,5.175l1.275.75a15.5,15.5,0,0,0,1.825-5.5Zm2.025.4a21.538,21.538,0,0,1,.325,4.125c0,.15-.025.4-.025.7l1.325-.325a27.961,27.961,0,0,0-.425-4.675Zm2.325-.1a16.1,16.1,0,0,1,.8,3.825l1.2-.35a18.6,18.6,0,0,0-.875-3.725Zm2.35-.15A14.164,14.164,0,0,1,119.5,41.5l1.1-.45a17.742,17.742,0,0,0-1.15-2.95ZM107.85,29.675a21.6,21.6,0,0,0-1.175-3.775l-1.275.375a19.278,19.278,0,0,1,1.2,3.85Zm2.6-4.475a20.768,20.768,0,0,1-2.075,5.625l1.15.575a25.318,25.318,0,0,0,2.25-5.55Zm32.75-1.825a19.162,19.162,0,0,1,2.575,3.975l1.25-.75a18.979,18.979,0,0,0-2.575-3.875Zm-16.1,7.7a32.544,32.544,0,0,1,5.025-.9C131,34.9,128.85,39.9,126.775,42.625l1.7,1a48.555,48.555,0,0,0,5.4-13.6,14.354,14.354,0,0,1,1.8-.125c2.325,0,3.075.85,3.075,3.5a19.352,19.352,0,0,1-1.05,6.95q-.487,1.2-1.425,1.2a9.345,9.345,0,0,1-3.725-1.15,4.613,4.613,0,0,1,.075.975,5.586,5.586,0,0,1-.05.9,9.406,9.406,0,0,0,3.775.975,2.611,2.611,0,0,0,2.45-1.175c1.025-1.45,1.675-4.775,1.675-8.6,0-2.05-.35-3.2-1.225-4.025-.775-.75-1.825-1.05-3.6-1.05a14.569,14.569,0,0,0-1.475.075c.2-1.075.425-2.225.525-2.85a15.367,15.367,0,0,1,.475-2.4l-2-.225v.325a30.879,30.879,0,0,1-.75,5.3,51.284,51.284,0,0,1-5.525.65Zm18.95-9.025a18.107,18.107,0,0,1,2.55,3.925l1.25-.725a20.08,20.08,0,0,0-2.575-3.875Zm-4.2,5.7a21.112,21.112,0,0,1,5.1,8.975l1.6-.9a22.893,22.893,0,0,0-5.225-8.85ZM9.2,80.45a6.427,6.427,0,0,1,.875.025,2.717,2.717,0,0,1,.325.025,3.571,3.571,0,0,1,.825.075V79a11.486,11.486,0,0,1-2.025.125H7.1a18.449,18.449,0,0,0,.2-2.175H9.1l1.175.05a3.543,3.543,0,0,1,.575.025,1.867,1.867,0,0,0,.275.05v-1.55a10.362,10.362,0,0,1-2,.125H7.35c.025-.8.025-1,.1-1.7H5.875a9.731,9.731,0,0,1,.1,1.7H4.2a10.205,10.205,0,0,1-2-.125v1.55a11.659,11.659,0,0,1,2.025-.125h1.7c-.025.85-.1,1.55-.175,2.175H3.5A11.315,11.315,0,0,1,1.475,79v1.575a12.149,12.149,0,0,1,2.05-.125H5.5a7.515,7.515,0,0,1-1.425,3.2,8.874,8.874,0,0,1-3.2,2.675A3.947,3.947,0,0,1,1.9,87.55a9.989,9.989,0,0,0,4.675-6.025A11.488,11.488,0,0,0,9.55,85.1a4.452,4.452,0,0,1,.875-1.35,9.188,9.188,0,0,1-3.1-3.3Zm5.475-13.275a17.96,17.96,0,0,1-2.35-.1,13.983,13.983,0,0,1,.1,1.925v9.2a18.132,18.132,0,0,1-.1,2.275,12.949,12.949,0,0,1,1.85-.075h7.65a25.382,25.382,0,0,1-.35,4.025c-.25,1.35-.55,1.725-1.4,1.725A15.412,15.412,0,0,1,17.3,85.8a3.584,3.584,0,0,1,.35,1.525,21.927,21.927,0,0,0,2.475.2A2.277,2.277,0,0,0,22.3,86.65c.5-.775.875-2.625,1-5.3.1-1.75.1-1.9.125-2.075a.555.555,0,0,0,.025-.225,19,19,0,0,1-2.025.075H13.85V77.4h7.875a13.916,13.916,0,0,1,2.05.1V76.025a11.659,11.659,0,0,1-2.025.125h-7.9v-1.7h6c.725,0,1.425.025,2.05.05-.05-.575-.075-1.15-.075-2.125V69.1c0-.925.025-1.475.075-2.025a18.354,18.354,0,0,1-2.4.1H16.975c.3-.575.5-.975.875-1.8l-1.6-.35a9.089,9.089,0,0,1-.8,2.15Zm-.825,3.05V68.4h6.525v1.825Zm0,1.15h6.525V73.25H13.85ZM10.35,65.4c-1.7,1.1-5.475,2.025-9.05,2.2a4.036,4.036,0,0,1,.725,1.375,29.913,29.913,0,0,0,9.3-2.4ZM4.875,73.675a21.1,21.1,0,0,0-1.65-4.05L2,70.025a17.466,17.466,0,0,1,1.6,4.15Zm6.85,7.625a12.633,12.633,0,0,1-1.85,5.175l1.275.75a15.5,15.5,0,0,0,1.825-5.5Zm2.025.4a21.538,21.538,0,0,1,.325,4.125c0,.15-.025.4-.025.7l1.325-.325a27.962,27.962,0,0,0-.425-4.675Zm2.325-.1a16.1,16.1,0,0,1,.8,3.825l1.2-.35A18.6,18.6,0,0,0,17.2,81.35Zm2.35-.15A14.164,14.164,0,0,1,19.5,84.5l1.1-.45a17.742,17.742,0,0,0-1.15-2.95ZM7.85,72.675A21.6,21.6,0,0,0,6.675,68.9L5.4,69.275a19.278,19.278,0,0,1,1.2,3.85Zm2.6-4.475a20.768,20.768,0,0,1-2.075,5.625l1.15.575a25.318,25.318,0,0,0,2.25-5.55ZM36.5,73.925H30.4v-4.7a12.834,12.834,0,0,1,.1-1.85H28.625A17.721,17.721,0,0,1,28.75,69.3v4.95c0,.425-.025.8-.05,1.275.525-.025,1.1-.05,1.55-.05H36.5v9.15H29.375V80a12.565,12.565,0,0,1,.125-2.125H27.6a13.882,13.882,0,0,1,.125,2.225v5.5a13.141,13.141,0,0,1-.15,2.1h1.8V86.2h16.25v1.5h1.8a12.5,12.5,0,0,1-.15-2.1V79.95a13.882,13.882,0,0,1,.125-2.225H45.5a13.257,13.257,0,0,1,.125,2.15v4.75h-7.45v-9.15H44.9c.475,0,1.05.025,1.55.05-.025-.425-.05-.775-.05-1.275V69.275a12.33,12.33,0,0,1,.125-1.9H44.65a13.608,13.608,0,0,1,.1,1.825v4.725H38.175V67.6a11.343,11.343,0,0,1,.175-2.275H36.325A10.11,10.11,0,0,1,36.5,67.6Zm29.725.85h4.75a23.661,23.661,0,0,1,2.8.15v-1.85a21.936,21.936,0,0,1-2.8.15h-4.75V68.35A21.589,21.589,0,0,1,66.4,65.3H64.375a23.2,23.2,0,0,1,.175,3.075v4.85H60.725a20.538,20.538,0,0,1-2.7-.15v1.85a21.64,21.64,0,0,1,2.7-.15H64.55V84.4a23.026,23.026,0,0,1-.175,3.175H66.4a22.787,22.787,0,0,1-.175-3.175ZM52.75,66.725a20.572,20.572,0,0,1,4.6,3.475l1.025-1.35a30.535,30.535,0,0,0-4.55-3.3ZM51.125,72.8a23.311,23.311,0,0,1,5.05,3.025l.95-1.45a36.42,36.42,0,0,0-5.075-2.85Zm5.3,5.65A31.547,31.547,0,0,1,53.3,84.125a7.919,7.919,0,0,1-1.6,1.825l1.45,1.4a7.929,7.929,0,0,1,.55-.8,45.257,45.257,0,0,0,4.025-7.05Zm20.95-7.025A83.224,83.224,0,0,1,86,70.6a51.164,51.164,0,0,0,5.5-.55,16.365,16.365,0,0,0-2.375,1.325C86.15,73.4,84.45,76.15,84.45,79.05a6.053,6.053,0,0,0,2.775,5.1,12.61,12.61,0,0,0,5.4,1.925c.45.075.5.1.775.15l.325-2.025h-.25a12.813,12.813,0,0,1-3.75-.8,4.9,4.9,0,0,1-3.5-4.625A7.641,7.641,0,0,1,89.3,73a12.3,12.3,0,0,1,4.8-2.5,10.486,10.486,0,0,1,2.8-.35l-.15-1.85a16.885,16.885,0,0,1-2.975.275l-1.425.05c-.825.025-1.15.05-4.225.225L84.2,69.1c-3.075.175-3.225.2-4.625.3-.775.05-1.075.075-1.425.075-.175,0-.425,0-.9-.025Zm15.35,2.4a17.581,17.581,0,0,1,2.55,3.975l1.275-.75a18.979,18.979,0,0,0-2.575-3.875Zm2.85-1.35a19.783,19.783,0,0,1,2.55,3.925l1.25-.7A20.259,20.259,0,0,0,96.8,71.8Zm8.2.3a5.522,5.522,0,0,1,.975-.075,73.611,73.611,0,0,0,8.9-.65c.15.25.15.3.425.825a30.486,30.486,0,0,0,3,4.9,12.484,12.484,0,0,0-5.175-.9,10.627,10.627,0,0,0-4.85.925,4.673,4.673,0,0,0-2.825,4.075,4.032,4.032,0,0,0,1.125,2.75c1.15,1.2,3.45,1.875,6.5,1.875a20.725,20.725,0,0,0,7.35-1.35l-.275-1.925a16.483,16.483,0,0,1-7.1,1.6,8.468,8.468,0,0,1-4.875-1.15,2.5,2.5,0,0,1-.95-1.95,2.839,2.839,0,0,1,1.35-2.325,8.862,8.862,0,0,1,4.75-1.05,13.547,13.547,0,0,1,4.375.65,5,5,0,0,1,1.725,1.025l1.675-.95a46.3,46.3,0,0,1-4.5-7.275c.25-.05.25-.05.85-.175,1.575-.3,1.875-.375,3.375-.775.75-.2.95-.25,1.475-.35l-.25-1.775a29.258,29.258,0,0,1-6.05,1.575,20.568,20.568,0,0,1-.9-2.2,7.968,7.968,0,0,1-.725-2.25l-1.975.275c.225.45.375.8.65,1.45.45,1.125.85,2.125,1.225,2.975a58.353,58.353,0,0,1-7.45.525,10.96,10.96,0,0,1-1.925-.125Zm29.175-4.9a27.844,27.844,0,0,0,3.825,1.575,38.559,38.559,0,0,0,4.875,1.425l.7-1.75a30.14,30.14,0,0,1-8.475-2.775Zm-2.075,2.7A8.408,8.408,0,0,1,130.7,71.9c-.35,2.1-.8,5-1.05,6.9-.1.8-.125,1.025-.2,1.475l1.95.05a4.346,4.346,0,0,1,1-1.025,12.112,12.112,0,0,1,7-2.175c3.05,0,4.85,1.2,4.85,3.25,0,2.55-2.625,4.2-6.75,4.2a17.756,17.756,0,0,1-6.375-1.25,5.782,5.782,0,0,1,.175,1.55,3.94,3.94,0,0,1-.025.475c1.525.375,1.525.375,2,.5a20.771,20.771,0,0,0,4.375.45,10.376,10.376,0,0,0,6.225-1.65,5.345,5.345,0,0,0,2.25-4.3c0-2.925-2.625-4.825-6.7-4.825a12.375,12.375,0,0,0-7.225,2.15,7,7,0,0,0-.775.75l-.05-.025a3.013,3.013,0,0,0,.1-.575c.075-.575.125-.75.725-4.375a20.926,20.926,0,0,1,.575-2.75ZM154.85,66.5a13.921,13.921,0,0,1-.35,2,41.358,41.358,0,0,0-1.125,9.9,35.832,35.832,0,0,0,.65,7.075c.075.475.1.6.15,1l1.8-.15V85.95A21.792,21.792,0,0,1,158,79.075l-1.2-.575a23.226,23.226,0,0,0-1.625,4.875c-.1-1.325-.15-2.8-.15-4.75a36.958,36.958,0,0,1,.75-7.825,35.523,35.523,0,0,1,1.05-4ZM160,71.225a33.3,33.3,0,0,0,4,.25,42.2,42.2,0,0,0,5.375-.325q1.65-.225,1.725-.225l-.125-1.775a26.826,26.826,0,0,1-6.7.675,16.98,16.98,0,0,1-4.25-.375Zm1.825,4.875c-1.55,1.775-2.175,3.125-2.175,4.65a3.534,3.534,0,0,0,.75,2.3c1.075,1.3,2.875,1.9,5.725,1.9a25.792,25.792,0,0,0,5.125-.5c.5-.075.55-.1.875-.125l-.25-1.925a16.453,16.453,0,0,1-5.75.875c-3.225,0-4.8-.9-4.8-2.75A5.808,5.808,0,0,1,163.2,76.85ZM188.3,70.05V67.5a9.814,9.814,0,0,1,.125-1.575h-2.1a7.842,7.842,0,0,1,.125,1.6V70.05h-5.3a21.353,21.353,0,0,1-2.3-.1,16.353,16.353,0,0,1,.1,2.025V75.35c0,.65-.05,1.45-.1,1.875h2.05a17.809,17.809,0,0,1-.075-1.85v-3.75h13.65c-.475,5.075-2.3,8.5-5.8,10.925a16.508,16.508,0,0,1-5.525,2.425,5.12,5.12,0,0,1,1.15,1.7,19.6,19.6,0,0,0,7.325-4.15A15.578,15.578,0,0,0,196.15,73.4c.325-2.125.325-2.125.55-2.525l-1.025-.975a5.567,5.567,0,0,1-2.1.15Zm17.5,5.425a47.185,47.185,0,0,1,9.75,10.75l1.525-1.275c-1.675-2.225-2.7-3.525-3.65-4.55a38.229,38.229,0,0,0,8.25-9.375,7.138,7.138,0,0,1,1-1.325l-1.05-1.25a3.052,3.052,0,0,1-1.4.175H205.65a18.171,18.171,0,0,1-2.925-.15V70.45c.85-.075,1.55-.1,2.9-.1,13.925-.025,13.925-.025,14.275-.05-.1.15-.125.175-.2.3a36.5,36.5,0,0,1-4.125,5.425A43.6,43.6,0,0,1,212.25,79.1a54.021,54.021,0,0,0-5.075-4.725Zm34.675-9.625c-.875,1.375-4,4.3-7.325,6.85a19.317,19.317,0,0,0-2.125,1.7,2.42,2.42,0,0,0-.725,1.675c0,.85.4,1.4,1.8,2.5,3.65,2.85,4.65,3.675,6.325,5.225a23.6,23.6,0,0,1,3.225,3.425l1.575-1.55a6.364,6.364,0,0,1-.7-.625,73.71,73.71,0,0,0-8-6.825c-2.025-1.575-2.225-1.75-2.225-2.2,0-.35.175-.55,1.1-1.25a72.826,72.826,0,0,0,5.75-4.725c2.6-2.5,2.8-2.675,3.075-2.9Zm22.95,15.475c-.05-.625-.075-1.075-.075-1.525,0-.1,0-.1.025-1.15l.2-8.9c.025-1.05.075-1.8.15-2.75H261.25c.1.95.125,1.7.15,2.75l.225,8.9v.9c0,.825,0,1-.05,1.775Zm.3,4.675V83.65H261.3V86Z" transform="matrix(0.978, -0.208, 0.208, 0.978, 1090.562, 1662.401)" fill="#fff"/><path d="M148.08-22.181l.108.175a19.278,19.278,0,0,1,1.925,4.078l.073.224-1.736.681-.086-.245a20.174,20.174,0,0,0-1.873-4l-.172-.262ZM149.562-18a18.832,18.832,0,0,0-1.693-3.573l-.793.3a21.522,21.522,0,0,1,1.673,3.6Zm-4.407-3.348.1.157a18.919,18.919,0,0,1,1.927,4.1l.083.235-1.8.644-.083-.238a19.86,19.86,0,0,0-1.851-4.074l-.173-.276Zm1.475,4.193a18.459,18.459,0,0,0-1.688-3.6l-.812.25a20.687,20.687,0,0,1,1.646,3.66ZM32.885-21.307l1.908.736-.083.23a31.638,31.638,0,0,1-1.595,3.815h.034a11.823,11.823,0,0,0,1.963-.122l.287-.042v1.019l1.612-.759.11.215A26.359,26.359,0,0,1,39.138-11.4l.063.2-1.706.887L37.41-10.6a19.51,19.51,0,0,0-2-4.771L35.4-15.39v.848l-.281-.035a13.7,13.7,0,0,0-1.894-.1h-1.25v2.6H33.1a11.644,11.644,0,0,0,1.663-.1l.287-.043v2.081l-.287-.043a11.049,11.049,0,0,0-1.613-.1H31.944c-.024.9-.064,1.552-.122,2.44,1.207-.337,1.876-.554,3.5-1.1l.33-.112v1.926l-.493.171c-1.5.522-2.1.729-3.556,1.124a12.8,12.8,0,0,1-3.367,7.545l-.2.221L27.852,1.7A4.062,4.062,0,0,0,26.663.584L26.4.411l.23-.218a8.827,8.827,0,0,0,2.934-5.467c-.225.054-.513.126-.876.216a13.322,13.322,0,0,0-1.823.517l-.273.1-.467-2.235L26.4-6.7A30.161,30.161,0,0,0,29.819-7.3c.1-1.034.129-1.693.152-2.97H28.7a12.08,12.08,0,0,0-1.665.1l-.285.041v-2.079l.287.043a11.263,11.263,0,0,0,1.638.1H30v-2.6H28.6a9.983,9.983,0,0,0-2.006.146l-.294.052v-2.251l.3.057a10.013,10.013,0,0,0,2.028.146h.22l-.007-.021a16.8,16.8,0,0,0-1.678-3.7l-.147-.246,1.768-.748.11.192a22.677,22.677,0,0,1,1.767,3.786l.086.228-1.253.51H31.12a23.571,23.571,0,0,0,1.69-4.519Zm1.271,1.027-.942-.364a23.582,23.582,0,0,1-1.716,4.48l-.069.138h-2.8a11.545,11.545,0,0,1-1.825-.1v1.058a11.139,11.139,0,0,1,1.8-.105h1.9v3.6H28.675a13.208,13.208,0,0,1-1.425-.066v.933a13.873,13.873,0,0,1,1.45-.067h1.779l0,.254C30.449-8.98,30.422-8.3,30.3-7.075l-.018.18-.177.039c-1.472.327-2.582.533-3.378.626l.234,1.122c.312-.107.667-.205,1.6-.435.6-.151,1-.251,1.26-.3l.357-.071-.062.359A9.519,9.519,0,0,1,27.2.341a4.084,4.084,0,0,1,.866.82,12.424,12.424,0,0,0,3.066-7.218l.021-.167.162-.044c1.561-.419,2.139-.62,3.683-1.157l.157-.054v-.874c-1.534.517-2.181.72-3.534,1.093l-.339.093.034-.52c.069-1.059.115-1.758.139-2.845l.005-.245H33.15a12.878,12.878,0,0,1,1.4.066v-.931a13.54,13.54,0,0,1-1.45.066H31.475v-3.6h1.75a15.3,15.3,0,0,1,1.675.07v-1.008a12.914,12.914,0,0,1-1.75.088h-.871l.2-.37A27.752,27.752,0,0,0,34.156-20.28ZM30.1-17.314a21.615,21.615,0,0,0-1.537-3.294l-.833.352a16.78,16.78,0,0,1,1.492,3.3ZM38.6-11.45a25.274,25.274,0,0,0-1.811-4.321l-.812.382A19.437,19.437,0,0,1,37.8-11.037ZM59.958-20.3l.017.284a42.941,42.941,0,0,0,1.778,7.958c1.34-.543,2.18-.863,5.811-2.128l.273-.1a10.806,10.806,0,0,0,1.3-.538l.244-.122.959,2.428-.288.062a57.33,57.33,0,0,0-7.483,2.412,15.883,15.883,0,0,0-4.594,2.528A3.514,3.514,0,0,0,56.6-4.85a2.192,2.192,0,0,0,1.429,2.2,13.11,13.11,0,0,0,5.146.7,24.676,24.676,0,0,0,7.066-.836l.3-.107L70.8-.225h-.275A12.829,12.829,0,0,0,68.7-.076,50.31,50.31,0,0,1,63.15.25a17.21,17.21,0,0,1-5.638-.691A4.38,4.38,0,0,1,54.25-4.775a5.689,5.689,0,0,1,2.317-4.444,15.2,15.2,0,0,1,3.126-1.957A51.6,51.6,0,0,1,57.93-18a8.177,8.177,0,0,0-.406-1.516l-.112-.3Zm1.491,8.905-.085-.251A45.921,45.921,0,0,1,59.5-19.7l-1.412.268a11.055,11.055,0,0,1,.333,1.332,50.726,50.726,0,0,0,1.817,6.972l.071.207-.2.1a15.319,15.319,0,0,0-3.229,2A5.141,5.141,0,0,0,54.75-4.775,3.92,3.92,0,0,0,57.686-.91a16.765,16.765,0,0,0,5.464.66,49.878,49.878,0,0,0,5.5-.324c1.076-.117,1.316-.144,1.6-.149l-.144-1.491a26.451,26.451,0,0,1-6.931.765,13.521,13.521,0,0,1-5.354-.745A2.7,2.7,0,0,1,56.1-4.85a3.984,3.984,0,0,1,1.543-3.04,16.332,16.332,0,0,1,4.739-2.617A60.07,60.07,0,0,1,69.66-12.88l-.544-1.378c-.32.149-.58.246-1.106.44l-.278.1c-3.84,1.338-4.55,1.615-6.038,2.221Zm119.625-8.885,2.558.032-.062.3a26.91,26.91,0,0,0-.284,4.095c.043-.014.09-.031.152-.055l.166-.062.924,1.1-.19.161a8,8,0,0,0-1.187,1.44,3.954,3.954,0,0,1-.026.57c-.024.476-.024.493-.048,1.6a29.8,29.8,0,0,1,2.767-2.424c2.354-1.888,4.253-2.806,5.807-2.806a2.975,2.975,0,0,1,3.175,3.175,16.9,16.9,0,0,1-.581,3.705c-.943,4.1-1.069,4.9-1.069,5.87,0,1.012.421,1.525,1.25,1.525a2.776,2.776,0,0,0,1.923-1.272,10.025,10.025,0,0,0,1.388-2.8l.17-.554.286.5a7.948,7.948,0,0,0,1.122,1.66l.112.129-.08.151a12.65,12.65,0,0,1-1.578,2.517A4.551,4.551,0,0,1,194.125.175a3.346,3.346,0,0,1-1.9-.572A3.348,3.348,0,0,1,190.95-3.45c0-1.288.036-1.508.955-5.876a19.091,19.091,0,0,0,.62-3.7,1.022,1.022,0,0,0-1.125-1.1,6.918,6.918,0,0,0-3.629,1.653,39.492,39.492,0,0,0-4.721,4.153v5.294a38.615,38.615,0,0,0,.074,4.125l.027.275h-2.52l.047-.29A21.268,21.268,0,0,0,180.85-3c0-2.125,0-2.709.029-3.3l-.016.019c-.376.426-.376.426-1.226,1.376-.172.187-.37.41-.6.669l-.451.506-.115.129a4.064,4.064,0,0,0-.51.638l-.225.354-1.318-2.372.2-.127A37.877,37.877,0,0,0,180.9-9.227c.024-.924.068-2.333.138-4.405a23.1,23.1,0,0,0-3.613.326l-.286.062-.134-2.317.3.037a4.8,4.8,0,0,0,.744.048c.036,0,.315-.018.7-.043.52-.033,1.289-.081,2.332-.144.072-1.854.091-2.844.091-3.114a9.548,9.548,0,0,0-.067-1.16Zm1.952.525-1.4-.018a8.947,8.947,0,0,1,.049,1c0,.284-.021,1.352-.1,3.36l-.009.226-.226.013c-1.157.069-2,.122-2.556.157-.537.034-.694.044-.734.044a4.957,4.957,0,0,1-.508-.019l.066,1.141c.416-.077.914-.11,3.675-.3l.276-.019-.009.276c-.078,2.3-.126,3.814-.15,4.773l0,.1-.065.07a44.433,44.433,0,0,1-4.255,4.129l.7,1.257c.078-.1.174-.2.322-.369l.115-.129.45-.505c.231-.26.43-.485.6-.673.846-.946.847-.947,1.22-1.37l.1-.119a1.879,1.879,0,0,0,.315-.43l.069-.138h.472l-.018.267c-.074,1.117-.074,1.117-.074,4.033a26.191,26.191,0,0,1-.132,3.875H182.6c-.05-.588-.05-1.1-.05-3.9V-8.531l.077-.074a40.484,40.484,0,0,1,4.85-4.271c1.66-1.193,2.906-1.748,3.923-1.748a1.511,1.511,0,0,1,1.625,1.6,19.036,19.036,0,0,1-.631,3.8c-.909,4.317-.944,4.533-.944,5.771a2.869,2.869,0,0,0,1.068,2.645,2.832,2.832,0,0,0,1.607.48,4.081,4.081,0,0,0,3.256-1.708,11.393,11.393,0,0,0,1.443-2.284,6.838,6.838,0,0,1-.791-1.13,10.6,10.6,0,0,1-1.28,2.417,3.229,3.229,0,0,1-2.328,1.48c-1.112,0-1.75-.738-1.75-2.025,0-1.073.172-2.023,1.081-5.981a16.534,16.534,0,0,0,.569-3.594,2.7,2.7,0,0,0-.714-1.961,2.7,2.7,0,0,0-1.961-.714c-1.416,0-3.264.907-5.494,2.695a18.118,18.118,0,0,0-3.125,2.871l-.123.18-.384-.192v-.155a1.6,1.6,0,0,1,.013-.2,1.585,1.585,0,0,0,.012-.2v-.025l0-.024a1.05,1.05,0,0,0,.02-.177c.025-1.183.025-1.183.05-1.687l0-.029a4.169,4.169,0,0,0,.022-.584v-.081l.047-.066a11.779,11.779,0,0,1,1.133-1.426l-.384-.458a1.739,1.739,0,0,1-.393.079l-.287.032.009-.289A39.154,39.154,0,0,1,183.026-19.754ZM1.55-20.166l.288.044a15.715,15.715,0,0,0,2.437.147H9.7a16.62,16.62,0,0,0,2.361-.1l.327-.052-.039.328a19.214,19.214,0,0,0-.1,2.37v4.05a2.506,2.506,0,0,1-.325,1.425H13.39l-.043.287a7.8,7.8,0,0,0-.1,1.213h7.024a12.794,12.794,0,0,0,2.209-.122l.291-.049v2.163l-.29-.046A13.43,13.43,0,0,0,20.3-8.625H16.947l1.463.542-.141.255c-.2.364-.31.538-.444.755A11.38,11.38,0,0,0,22.47-4.765l.39.114-.278.3a3.886,3.886,0,0,0-.773,1.169,15.322,15.322,0,0,0,1.707-.137l.284-.039v2.247l-.283-.038A18.98,18.98,0,0,0,20.975-1.3h-7.65V-.2A14.715,14.715,0,0,0,13.5,2.141l.04.284H11.112l.041-.285a14.424,14.424,0,0,0,.173-2.315V-1.3H4.05a18.98,18.98,0,0,0-2.542.148l-.283.038V-3.363l.285.041a15.849,15.849,0,0,0,2.051.145A4.315,4.315,0,0,0,2.647-4.1l-.332-.258L2.7-4.529A10.472,10.472,0,0,0,5.935-6.513a6.33,6.33,0,0,0,1.7-2.109l0,0H4.875A13.763,13.763,0,0,0,2.688-8.5L2.4-8.459v-2.16l.29.046a12.779,12.779,0,0,0,2.185.122h6.4c-.005-.374-.022-.666-.048-.967A4.448,4.448,0,0,1,9.65-11.2c-.535,0-1.428-.054-2.078-.127l-.2-.022-.02-.2a4.591,4.591,0,0,0-.284-1.284l-.038-.1c-.847.346-1.8.7-3.36,1.264-.086.038-.186.08-.3.128-.193.08-.433.18-.74.318l-.245.11-.749-2.044.308-.042a21.474,21.474,0,0,0,4.87-1.511l-.187-.143a15.98,15.98,0,0,0-3.573-1.994l-.3-.131.923-1.147a10.53,10.53,0,0,0-1.831.144l-.291.049Zm8.15.691H4.275a17.536,17.536,0,0,1-2.225-.113v1.071a13.933,13.933,0,0,1,2.125-.108H10.8V-13.4c0,.815-.44.975-1.2.975A12.982,12.982,0,0,1,7.671-12.6a5.3,5.3,0,0,1,.155.8c.607.06,1.357.1,1.824.1a3.375,3.375,0,0,0,1.525-.242v-.008h.016c.451-.249.56-.7.56-1.425v-4.05c0-.973.018-1.576.068-2.113C11.364-19.493,10.734-19.475,9.7-19.475Zm.6,1.35H4.546a19.432,19.432,0,0,1,3.215,1.74l.225.146L6.839-14.72Q8-15.2,9.371-15.827L9.7-15.98,9.81-14.2l-.151.073c-.862.416-1.5.713-2.139.987a12.744,12.744,0,0,0,2.081.212,1.266,1.266,0,0,0,.6-.1c.044-.034.1-.107.1-.379ZM7.263-16.111A19.293,19.293,0,0,0,4.051-17.8l-.5.623A16.43,16.43,0,0,1,6.725-15.4ZM9.29-14.5l-.043-.719A31.244,31.244,0,0,1,2.315-12.75l.353.963c.2-.087.366-.156.507-.215.116-.048.216-.09.3-.127l.016-.007A49,49,0,0,0,9.29-14.5Zm3.523,3.052H11.725c.032.374.05.736.05,1.25v.25h-6.9A15.1,15.1,0,0,1,2.9-10.036v1a15.8,15.8,0,0,1,1.975-.088H20.3a15.72,15.72,0,0,1,1.975.087v-1a15.718,15.718,0,0,1-2,.086H12.75v-.25A9.367,9.367,0,0,1,12.813-11.45Zm3.692,2.825H8.194l1.378.587-.163.25c-.316.485-.5.73-.7,1.009a6.87,6.87,0,0,0,2.542,1.53c-.013-.1-.029-.2-.046-.311l-.046-.289H13.5l-.051.293c-.043.246-.072.459-.091.685a7.5,7.5,0,0,0,3.118-3.682Zm-7.679.812-.869-.37a6.591,6.591,0,0,1-1.7,2.048,10.511,10.511,0,0,1-2.991,1.9,4.42,4.42,0,0,1,.706.779A13.051,13.051,0,0,0,7.394-6.023l.179-.188.181.187a9.419,9.419,0,0,0,2.574,1.867,3.959,3.959,0,0,1,.52-.709A7.275,7.275,0,0,1,8.2-6.571l-.156-.152L8.173-6.9,8.3-7.064C8.468-7.3,8.612-7.492,8.826-7.813Zm8.862,0-.859-.318a7.81,7.81,0,0,1-3.063,3.587,4.887,4.887,0,0,1,.635.6,11.572,11.572,0,0,0,2.2-2.231l.16-.211.2.172a13.4,13.4,0,0,0,4.49,2.622,4.272,4.272,0,0,1,.5-.8,11.259,11.259,0,0,1-4.622-2.441l-.157-.139.11-.179.106-.172C17.494-7.491,17.575-7.621,17.688-7.817Zm3.464,4.642a13.772,13.772,0,0,1-4.314-2.49,12.672,12.672,0,0,1-2.306,2.259l-.186.151-.159-.179a4.7,4.7,0,0,0-.861-.816c0,.093,0,.193,0,.3v.775h7.827ZM10.524-3.494,10.311-3.6A10.472,10.472,0,0,1,7.577-5.493,13.31,13.31,0,0,1,4.491-3.175h6.834V-3.95c0-.262,0-.479-.016-.684a4.119,4.119,0,0,0-.667.933ZM12.907-5.35H11.74a9.467,9.467,0,0,1,.085,1.4v1.275H3.975a18.56,18.56,0,0,1-2.25-.115v1.107A20.282,20.282,0,0,1,4.05-1.8h7.775V-.175a14.363,14.363,0,0,1-.138,2.1h1.277A14.515,14.515,0,0,1,12.825-.2V-1.8h8.15a20.283,20.283,0,0,1,2.325.117V-2.791a18.534,18.534,0,0,1-2.275.116h-8.2V-3.95A9.241,9.241,0,0,1,12.907-5.35Zm-.332-14.812.284.039a16.67,16.67,0,0,0,2.466.148H20.7a15.872,15.872,0,0,0,2.311-.1l.327-.052L23.3-19.8a19.489,19.489,0,0,0-.1,2.4v4.125c0,1.628-.6,2.15-2.45,2.15-.791,0-1.232-.027-2.445-.126l-.2-.016-.027-.2a6.637,6.637,0,0,0-.316-1.333l-.089-.28c-.765.3-1.646.625-2.814,1.039L14.743-12c-.4.141-.555.194-.869.329l-.231.1-.824-1.957.323-.044a19.8,19.8,0,0,0,4.2-1.187l-.023-.018A13.627,13.627,0,0,0,13.975-16.7l-.3-.13,1.031-1.3a10.708,10.708,0,0,0-1.84.144l-.292.05Zm8.125.687H15.325a17.991,17.991,0,0,1-2.25-.116v1.073a14.277,14.277,0,0,1,2.125-.107h6.525V-13.3c0,.795-.422.95-1.15.95a14.2,14.2,0,0,1-2.217-.212,6.151,6.151,0,0,1,.185.829c1.049.085,1.477.108,2.206.108,1.681,0,1.95-.392,1.95-1.65V-17.4c0-.988.018-1.6.068-2.137C22.321-19.492,21.718-19.475,20.7-19.475Zm.525,1.35H14.961a14.879,14.879,0,0,1,3.433,1.9l.209.147-.861,1.167c.805-.32,1.658-.691,2.552-1.111l.334-.157.107,1.817-.159.07c-.979.431-1.765.769-2.714,1.143l.181.032a15.092,15.092,0,0,0,2.532.271,1.256,1.256,0,0,0,.567-.09c.039-.031.083-.1.083-.36ZM17.9-15.967a13.881,13.881,0,0,0-2.97-1.627l-.454.572a13.6,13.6,0,0,1,2.953,1.694Zm2.318,1.284-.043-.734a28.067,28.067,0,0,1-6.642,2.292l.379.9c.2-.079.363-.137.669-.244l.115-.04C17.343-13.452,18.5-13.932,20.215-14.684Zm87.568-5.455.224.078a30.485,30.485,0,0,0,8.975,1.536l.3.009-.456,2.185-.221-.02a35.87,35.87,0,0,1-9.38-1.711l-.256-.083Zm8.886,2.1a31.027,31.027,0,0,1-8.6-1.477l-.433,1.057a35.124,35.124,0,0,0,8.792,1.586ZM34.9-19.9l.295.054a9.249,9.249,0,0,0,1.855.121h2.4a14.8,14.8,0,0,0,1.721-.073l.317-.037-.04.317a16.086,16.086,0,0,0-.1,2.069V-.5c0,1.474-.637,2.075-2.2,2.075A18.023,18.023,0,0,1,36.541,1.4l-.189-.026-.025-.189A5.4,5.4,0,0,0,35.895-.4L35.71-.84l.465.1a13.307,13.307,0,0,0,2.7.345c.525,0,.525-.165.525-.325V-6.78a34.663,34.663,0,0,1-3.01,2.288l-.009.006c-.477.293-.623.394-.793.51l-.2.135-.258.172-.858-2.178.242-.087A19.281,19.281,0,0,0,39.4-9.115v-8.71H36.9a8.736,8.736,0,0,0-1.7.121l-.3.056Zm4.55.675h-2.4a11.287,11.287,0,0,1-1.65-.081v1.061a10.572,10.572,0,0,1,1.5-.08h3v9.44l-.087.075a21.212,21.212,0,0,1-4.888,3.252l.443,1.125c.149-.1.322-.217.746-.478a34.586,34.586,0,0,0,3.371-2.6l.414-.361v7.15c0,.547-.345.825-1.025.825a12.343,12.343,0,0,1-2.351-.266A5.553,5.553,0,0,1,36.8.927a17.513,17.513,0,0,0,2.354.148c1.3,0,1.7-.368,1.7-1.575V-17.45c0-.781.019-1.325.068-1.821C40.528-19.239,40.068-19.225,39.45-19.225ZM41.6-19.9l.293.051a9.435,9.435,0,0,0,1.857.121h2.4a16.363,16.363,0,0,0,1.775-.074l.314-.031-.041.312a15.822,15.822,0,0,0-.1,2.068V-.5c0,1.454-.658,2.075-2.2,2.075A18.851,18.851,0,0,1,43.316,1.4l-.19-.026-.024-.19a5.541,5.541,0,0,0-.433-1.612l-.18-.442.466.1a12.506,12.506,0,0,0,2.6.369c.55,0,.55-.118.55-.375v-6a28.877,28.877,0,0,1-2.53,2c-.421.3-.421.3-.967.719l-.254.2L41.413-6l.255-.089A18.514,18.514,0,0,0,46.1-9.112v-8.713H43.625a8.9,8.9,0,0,0-1.726.12l-.3.06Zm4.55.672h-2.4a11.173,11.173,0,0,1-1.65-.082v1.061a10.992,10.992,0,0,1,1.525-.079H46.6v9.436l-.083.075a20.614,20.614,0,0,1-4.435,3.1l.468,1.07c.315-.243.379-.288.73-.536a26.106,26.106,0,0,0,2.9-2.35l.424-.41V-.775C46.6,0,46.069.1,45.55.1A11.531,11.531,0,0,1,43.3-.184,5.54,5.54,0,0,1,43.572.927a18.384,18.384,0,0,0,2.328.148c1.271,0,1.7-.4,1.7-1.575V-17.45c0-.785.02-1.342.067-1.823C47.283-19.243,46.844-19.225,46.15-19.225Zm83.1-.538,2.536.39-.128.3c-1.068,2.484-1.9,7.591-1.9,11.626,0,.862.023,2.2.086,3.276a24.163,24.163,0,0,1,1.133-3.047c.039-.1.072-.171.1-.23a1.67,1.67,0,0,0,.093-.242l.081-.282,1.719.807-.109.227A21.423,21.423,0,0,0,130.725.025a2.373,2.373,0,0,0,.047.462l.04.257L128.529,1,128.5.753c-.015-.138-.03-.225-.067-.435-.02-.114-.046-.264-.081-.474a39.984,39.984,0,0,1-.7-7.469,42.636,42.636,0,0,1,1.306-10.33,10.015,10.015,0,0,0,.27-1.539Zm1.827.787-1.374-.211c-.031.254-.09.574-.254,1.34A42.2,42.2,0,0,0,128.15-7.625a39.472,39.472,0,0,0,.7,7.377v.006c.035.211.061.359.081.474.015.088.027.156.037.217l1.277-.144a1.951,1.951,0,0,1-.016-.28,21.6,21.6,0,0,1,2.067-6.955l-.753-.353-.015.034c-.026.059-.055.126-.092.217l0,.006a22.344,22.344,0,0,0-1.461,4.334l-.046.192h-.542l-.03-1.439c-.074-1.113-.1-2.586-.1-3.511A37.125,37.125,0,0,1,131.073-18.976Zm9.632-.749h2.485l-.042.287A31.218,31.218,0,0,0,143-15.55v.941a19.242,19.242,0,0,0,4.005-.831l.3-.088.1,2.228h-.258l-.047.009a.617.617,0,0,1-.076.014c-.052.009-.151.03-.284.059-.279.06-.7.15-1.3.262-.519.118-1.317.232-2.425.375,0,1.936.069,3.734.241,6.69a19.291,19.291,0,0,1,4.109,2.439l.113.083a2.493,2.493,0,0,0,.474.294l.215.107L147.119-.619l-.256-.29a12.8,12.8,0,0,0-3.482-2.546l-.019-.011-.012-.008c0,.036,0,.077,0,.125a4.664,4.664,0,0,1-.322,1.827C142.381-.094,140.767.725,138.6.725A6.023,6.023,0,0,1,135-.268a3.307,3.307,0,0,1-1.376-2.757c0-2.267,2.056-3.85,5-3.85a8.888,8.888,0,0,1,2.486.343c-.073-.955-.148-3.093-.205-5.882-.923.041-1.647.064-2.605.064-1.048,0-1.977-.025-2.84-.075h-.015a6.457,6.457,0,0,0-.746-.048h-.025a4.1,4.1,0,0,0-.425-.024h-.025l-.024,0a.9.9,0,0,0-.2-.02h-.357l.066-2.316.3.074a17.174,17.174,0,0,0,4.441.393c.885,0,1.517-.02,2.421-.063L140.85-15.6V-18.45a4.85,4.85,0,0,0-.068-.964Zm1.912.5h-1.3c.026.248.032.54.032.775v2.85l.029,1.638-.242.012c-1.046.051-1.715.075-2.687.075a18.565,18.565,0,0,1-4.259-.337l-.034,1.195c.034,0,.073.009.117.017.068,0,.215,0,.439.025a6.986,6.986,0,0,1,.785.051c.851.05,1.768.074,2.8.074s1.8-.026,2.838-.075l.256-.012.005.257c.082,4.121.184,6.074.247,6.493l.071.476-.43-.215a7.345,7.345,0,0,0-2.663-.449c-2.65,0-4.5,1.378-4.5,3.35,0,2,1.715,3.25,4.475,3.25,1.962,0,3.41-.712,3.972-1.953a4.166,4.166,0,0,0,.278-1.622,3.148,3.148,0,0,0-.048-.592l-.073-.547.459.306.068.043a.783.783,0,0,1,.1.067l.156.1.011.011.036.023.073.046a14.284,14.284,0,0,1,3.347,2.369l.549-1.219a3.173,3.173,0,0,1-.334-.226l-.113-.083a19.092,19.092,0,0,0-4.157-2.45l-.137-.063-.009-.15c-.185-3.17-.25-5.025-.25-7.09v-.22l.218-.028c1.177-.15,2.07-.275,2.6-.4l.009,0c.591-.112,1.011-.2,1.288-.261l.249-.052-.051-1.113a20.122,20.122,0,0,1-4.058.795l-.282.036V-15.55C142.5-17.328,142.536-18.486,142.616-19.225Zm68.356-.025H214l-.021.27c-.078.99-.125,1.719-.149,2.736l-.2,8.9C213.6-6.3,213.6-6.3,213.6-6.2c0,.416.021.838.074,1.505l.022.27h-2.387l.017-.266c.049-.767.049-.938.049-1.759v-.9l-.225-8.9c-.024-1.029-.048-1.774-.149-2.73Zm2.482.5h-1.929c.08.847.1,1.554.124,2.494l.225,8.906v.9c0,.731,0,.955-.034,1.525h1.314c-.039-.532-.055-.9-.055-1.275,0-.1,0-.1.025-1.156l.2-8.9C213.347-17.19,213.388-17.883,213.455-18.75Zm-57.655.466.281.066a28.46,28.46,0,0,0,6.593.593,27.348,27.348,0,0,0,6.263-.517l.288-.073.161,2.127-.166.07a35.27,35.27,0,0,0-6.25,3.772l-.155.112-1.689-1.357.282-.189c1.531-1.029,2.145-1.416,3.165-1.987a19.572,19.572,0,0,1-2.376.12,48.929,48.929,0,0,1-5.531-.327c-.137-.015-.238-.028-.322-.039a2.953,2.953,0,0,0-.473-.034H155.6Zm6.875,1.159a29.8,29.8,0,0,1-6.425-.543l-.1,1.227c.087.006.164.016.266.03.081.01.18.023.316.038a48.4,48.4,0,0,0,5.472.323,19.524,19.524,0,0,0,3.734-.322l.17.461a3.144,3.144,0,0,1-.317.169c-.052.025-.1.046-.163.083l-.012.007c-.3.15-.346.173-.617.321-1.047.582-1.629.94-3.023,1.874l.861.693a36.344,36.344,0,0,1,6.029-3.645l-.089-1.18A29.778,29.778,0,0,1,162.675-17.125ZM78.12-17.978l2.673.032-.046.286a17.967,17.967,0,0,0-.172,2.935,42.648,42.648,0,0,0,.643,7.718C81.8-4.326,82.8-2.925,83.5-2.925c.336,0,.7-.392,1.022-1.1A17.723,17.723,0,0,0,85.8-8.247l.1-.514.338.4a7.746,7.746,0,0,0,1.439,1.39l.131.1-.045.161a16.591,16.591,0,0,1-1.9,4.74A2.912,2.912,0,0,1,83.375-.475c-1.513,0-2.893-1.446-3.786-3.967C78.722-6.8,78.352-10,78.225-16.245l0-.132a12.011,12.011,0,0,0-.07-1.321Zm2.09.525-1.534-.018c.022.254.028.466.044,1.082l0,.133c.126,6.19.488,9.346,1.335,11.645A7.879,7.879,0,0,0,81.577-1.9a2.485,2.485,0,0,0,1.8.921c1.61,0,2.7-1.6,3.864-5.707a7.491,7.491,0,0,1-1.044-.968,17.456,17.456,0,0,1-1.218,3.83c-.421.926-.918,1.4-1.477,1.4-1.1,0-2.183-1.755-2.769-4.472a43.2,43.2,0,0,1-.656-7.828A20.147,20.147,0,0,1,80.211-17.453Zm12.428.766.128.151a21.962,21.962,0,0,1,3.613,5.762A24.1,24.1,0,0,1,98.272-4.04l.031.2-2.27.927L96-3.251A21.776,21.776,0,0,0,90.86-15.437l-.208-.242ZM97.746-4.156a23.318,23.318,0,0,0-1.824-6.416,21.375,21.375,0,0,0-3.411-5.49l-1.066.542A22.261,22.261,0,0,1,96.464-3.633ZM43.56-16.434l.113.22a25.8,25.8,0,0,1,2.042,4.866l.061.2-1.7.886-.085-.292a19.424,19.424,0,0,0-2-4.8l-.132-.23ZM45.175-11.4a24.758,24.758,0,0,0-1.834-4.365l-.792.4a19.412,19.412,0,0,1,1.831,4.383Zm71.406-3.4,1.374,1.718-.2.155A20.808,20.808,0,0,0,115.7-11.02l-.15.148c-1.342,1.342-2.55,2.479-3.608,3.4a3.086,3.086,0,0,1,.983-.149A2.584,2.584,0,0,1,114.8-6.9c.545.545.743,1.166.848,2.659.1,1.571.176,1.889.4,2.222.254.342.671.57,1.872.57a13.165,13.165,0,0,0,4.95-.9l.3-.13.358,2.508-.259.026c-.243.024-.243.024-2.012.3A19.994,19.994,0,0,1,117.8.675c-1.966,0-3.148-.495-3.72-1.556a6.584,6.584,0,0,1-.579-2.85,4.2,4.2,0,0,0-.249-1.632l0-.006a.987.987,0,0,0-.923-.456c-1.219,0-2.42.693-4.43,2.558-1.279,1.175-2.9,2.858-3.732,3.806l-.185.212L102.2-1.22l.236-.162A17.864,17.864,0,0,0,105.1-3.656c1.743-1.622,3.782-3.583,5.9-5.672.767-.767,1.9-1.877,3.181-3.106a62.557,62.557,0,0,1-6.64.633c-1.185.074-1.706.123-2.362.2l-.26.03-.163-2.376.289.023c.615.049.941.049,1.48.049a84.991,84.991,0,0,0,8.74-.6,4.458,4.458,0,0,0,1.145-.261Zm.666,1.632-.83-1.038a5.458,5.458,0,0,1-1.084.227,85.652,85.652,0,0,1-8.807.6c-.462,0-.77,0-1.231-.03l.087,1.277c.557-.061,1.091-.107,2.128-.172a47.4,47.4,0,0,0,7.411-.794l.878-.2-.65.623c-2.164,2.074-3.376,3.276-3.8,3.7-2.119,2.093-4.161,4.057-5.906,5.681a19.448,19.448,0,0,1-2.494,2.16L103.973,0c.879-.982,2.382-2.531,3.583-3.634,2.141-1.987,3.389-2.691,4.769-2.691a1.46,1.46,0,0,1,1.375.741,4.492,4.492,0,0,1,.3,1.818,6.035,6.035,0,0,0,.52,2.647C115-.236,116.038.175,117.8.175a19.556,19.556,0,0,0,3.385-.322c1.166-.181,1.57-.243,1.782-.272l-.193-1.353a14.094,14.094,0,0,1-4.848.822c-1.21,0-1.87-.225-2.276-.777l0-.007c-.308-.448-.391-.865-.493-2.476-.1-1.365-.253-1.89-.7-2.339a2.068,2.068,0,0,0-1.523-.577,5.076,5.076,0,0,0-2.391.8l-.262-.423a55.712,55.712,0,0,0,4.926-4.479l.152-.149C116.5-12.511,116.843-12.843,117.247-13.167Zm40.119,3.048,1.689,1.258-.244.2c-1.559,1.295-2.285,2.4-2.285,3.483,0,1.028.658,1.773,1.955,2.213a15.835,15.835,0,0,0,4.495.487,23.71,23.71,0,0,0,7.405-.931l.307-.126L170.977-.9l-.258.02a5.039,5.039,0,0,0-.631.087l-.2.035a41.252,41.252,0,0,1-6.793.579,17.935,17.935,0,0,1-5.84-.792l-.005,0a5.238,5.238,0,0,1-2.232-1.611,3.871,3.871,0,0,1-.773-2.395c0-1.692.969-3.333,2.964-5.016Zm.883,1.282-.863-.643c-1.773,1.536-2.636,3.011-2.636,4.505a3.739,3.739,0,0,0,2.693,3.543,17.458,17.458,0,0,0,5.657.757,40.731,40.731,0,0,0,6.708-.571L170-1.281c.176-.032.29-.052.424-.069l-.162-1.479a25.75,25.75,0,0,1-7.287.853,16.043,16.043,0,0,1-4.656-.513c-1.9-.643-2.294-1.816-2.294-2.687C156.025-6.372,156.713-7.51,158.248-8.837Zm-19.5,3.462a7.063,7.063,0,0,1,2.761.515l.052.019.039.039c.046.046.123.123.123.9a2.96,2.96,0,0,1-.539,2.142,3.7,3.7,0,0,1-2.736.983c-1.9,0-3.175-.9-3.175-2.25a2.016,2.016,0,0,1,.986-1.747A4.609,4.609,0,0,1,138.75-5.375Zm2.451.935a6.5,6.5,0,0,0-2.451-.435c-1.835,0-2.975.709-2.975,1.85,0,1.047,1.075,1.75,2.675,1.75a3.25,3.25,0,0,0,2.361-.813l.006-.007c.293-.314.408-.82.408-1.8C141.225-4.045,141.213-4.292,141.2-4.44ZM211.05-2.6h2.925V.25H211.05Zm2.425.5H211.55V-.25h1.925ZM147.337,21.056l.132.161a20.389,20.389,0,0,1,2.6,3.917l.111.212-1.7.985-.113-.254a17.752,17.752,0,0,0-2.511-3.863l-.2-.234Zm2.18,4.1a19.5,19.5,0,0,0-2.3-3.46l-.775.427a18.839,18.839,0,0,1,2.273,3.5Zm-33.452-3.426,2.141.468-.128.282c-.292.642-.478,1.028-.692,1.447H119.5c1.151,0,2.368-.1,2.38-.1l.29-.024-.02.29c0,.011-.074,1.1-.074,2.008v3.275c0,.9.021,1.49.074,2.1l.025.283-.284-.011c-.6-.024-1.306-.05-2.04-.05H114.1v1.2h7.65a11.362,11.362,0,0,0,1.987-.122l.288-.044v2.059l-.289-.046a13.564,13.564,0,0,0-2.011-.1H114.1v1.225h7.325a18.919,18.919,0,0,0,2-.073l.279-.033v.281a.859.859,0,0,1-.031.29c-.012.1-.02.233-.046.713-.016.29-.038.7-.073,1.312-.124,2.648-.493,4.574-1.04,5.421l0,.005a2.527,2.527,0,0,1-2.382.984,22.048,22.048,0,0,1-2.5-.2l-.212-.025-.009-.213a3.342,3.342,0,0,0-.329-1.435l-.1-.241-.306.089-.034-.295a15.858,15.858,0,0,0-.79-3.777l-.084-.261,1.613-.358.071.214a18.8,18.8,0,0,1,.885,3.765l.034.217-1.023.3.013,0a15.11,15.11,0,0,0,2.729.346c.62,0,.9-.138,1.154-1.521a24.276,24.276,0,0,0,.34-3.729h-7.395a12.632,12.632,0,0,0-1.821.073l-.318.037.041-.317a17.634,17.634,0,0,0,.1-2.243V26a13.6,13.6,0,0,0-.1-1.89l-.047-.328.328.045a17.712,17.712,0,0,0,2.316.1h.622a8.816,8.816,0,0,0,.71-1.959Zm1.429.824-1.061-.232a9.261,9.261,0,0,1-.761,1.969l-.07.135h-.927c-.955,0-1.575-.019-2.064-.065.044.435.064.957.064,1.64v9.2c0,.887-.02,1.5-.067,1.994a15.154,15.154,0,0,1,1.567-.044h7.9l0,.254a25.516,25.516,0,0,1-.355,4.07c-.241,1.3-.549,1.926-1.645,1.926a13.449,13.449,0,0,1-2.377-.274,3.524,3.524,0,0,1,.191.975,20.365,20.365,0,0,0,2.237.174c1.054,0,1.587-.207,1.967-.763.491-.765.841-2.65.959-5.174.035-.609.057-1.024.073-1.313.024-.431.032-.59.043-.7-.425.032-1,.047-1.742.047H113.6V34.15h8.125a17.544,17.544,0,0,1,1.8.065v-.9a12.853,12.853,0,0,1-1.775.087H113.6V31.2h6.25c.631,0,1.238.019,1.779.039-.038-.534-.054-1.085-.054-1.864V26.1c0-.637.036-1.363.058-1.755-.436.03-1.3.08-2.133.08h-2.937l.191-.366C117.019,23.55,117.2,23.183,117.494,22.553Zm.3,19.344a17.636,17.636,0,0,0-.76-3.254l-.638.142a15.461,15.461,0,0,1,.693,3.317ZM32.455,22h2.39l-.049.291a8.442,8.442,0,0,0-.122,1.534v.4H40.1v-.4a12.29,12.29,0,0,0-.123-1.545L39.943,22H42.3l-.051.293a8.142,8.142,0,0,0-.121,1.532v.4h3.75a19.432,19.432,0,0,0,2.765-.147l.285-.041v2.224l-.283-.038a21.354,21.354,0,0,0-2.767-.123h-3.75a9.532,9.532,0,0,0,.1,1.466l.039.284h-2.3L40,27.566a10.171,10.171,0,0,0,.1-1.466H34.675v.3a9.65,9.65,0,0,0,.1,1.516l.039.284h-2.3l.039-.284a10.016,10.016,0,0,0,.1-1.516v-.3H29.175a20.773,20.773,0,0,0-2.742.123l-.283.038V24.035l.287.042a18.992,18.992,0,0,0,2.738.147H32.65v-.4a8.555,8.555,0,0,0-.147-1.534Zm1.8.5H33.043a8.36,8.36,0,0,1,.107,1.325v.9H29.175a21.558,21.558,0,0,1-2.525-.114v1.083a23.787,23.787,0,0,1,2.525-.093H33.15v.8a10.723,10.723,0,0,1-.067,1.3h1.158a10.266,10.266,0,0,1-.066-1.3v-.8H40.6v.45a10.885,10.885,0,0,1-.067,1.3h1.158a10.267,10.267,0,0,1-.066-1.3V25.6h4.25a24.544,24.544,0,0,1,2.55.093V24.61a21.757,21.757,0,0,1-2.55.115h-4.25v-.9a8.812,8.812,0,0,1,.082-1.325h-1.2a10.782,10.782,0,0,1,.093,1.325v.9H34.175v-.9A9.044,9.044,0,0,1,34.259,22.5Zm76.142-.431,1.329,1.6-.305.133a30.145,30.145,0,0,1-9.368,2.419l-.21.027-.062-.2a3.789,3.789,0,0,0-.687-1.3l-.276-.375.465-.023c3.5-.171,7.257-1.08,8.926-2.16Zm.519,1.408-.623-.751a22.124,22.124,0,0,1-8.534,2.1,3.779,3.779,0,0,1,.436.877A29.475,29.475,0,0,0,110.919,23.477ZM90.189,22.2h2.422l-.039.284a16.373,16.373,0,0,0-.148,2.316v3.754l3.521-1.166a17.872,17.872,0,0,0,1.952-.766l.367-.163-.016.4c-.1,2.61-.209,4.366-.4,6.71s-.542,3.424-1.274,3.846a3.656,3.656,0,0,1-1.925.383c-.237,0-.548-.026-1.122-.076l-.2-.018-.023-.2a5.58,5.58,0,0,0-.36-1.515l-.165-.434.453.1a8.675,8.675,0,0,0,1.871.219c.415,0,.468,0,.579-.642a48,48,0,0,0,.386-5.929l-3.64,1.25v6.722a16.111,16.111,0,0,0,.148,2.366l.039.284H90.187l.041-.285a16.029,16.029,0,0,0,.147-2.39v-6L87.3,32.28v9.2c0,.488.079.587.561.707l.009,0a17.928,17.928,0,0,0,3.955.215c3.367,0,4.436-.139,4.77-.618.2-.282.45-1.069.48-3.236l.006-.438.374.228a4.324,4.324,0,0,0,1.529.62l.2.049-.014.21c-.145,2.233-.312,3.643-1.409,4.388-1.024.7-2.723.771-6.09.771-2.866,0-4.256-.121-5.128-.447A1.953,1.953,0,0,1,85.225,41.8V32.967L85,33.038a13.656,13.656,0,0,0-2.024.778l-.291.139-.6-2.273.29-.031a9.37,9.37,0,0,0,2.12-.488l.731-.244V27.175a17.99,17.99,0,0,0-.148-2.516l-.039-.284h2.447l-.038.283A17.65,17.65,0,0,0,87.3,27.1v3.152l3.075-1.032V24.775a15.6,15.6,0,0,0-.148-2.292Zm1.851.5H90.759a16.017,16.017,0,0,1,.116,2.075v4.8L86.8,30.948V27.1a18.565,18.565,0,0,1,.117-2.225H85.609a19.4,19.4,0,0,1,.116,2.3V31.28l-1.071.357a10.026,10.026,0,0,1-1.939.476l.3,1.132a16.3,16.3,0,0,1,1.83-.682l.88-.28V41.8c0,.95.261,1.384,1,1.66a17.284,17.284,0,0,0,4.953.415c3.385,0,4.94-.1,5.81-.685.813-.552,1.025-1.583,1.177-3.8a4.463,4.463,0,0,1-1.1-.414A6.409,6.409,0,0,1,97,42.071c-.463.665-1.479.829-5.178.829a17.8,17.8,0,0,1-4.09-.234,1.032,1.032,0,0,1-.935-1.191V31.92l4.075-1.368v6.7a17.2,17.2,0,0,1-.115,2.175h1.28a17.211,17.211,0,0,1-.116-2.15V30.2l4.66-1.6-.01.361a50.494,50.494,0,0,1-.4,6.364c-.134.776-.316,1.054-1.071,1.054a8.818,8.818,0,0,1-1.545-.144,5.926,5.926,0,0,1,.218,1.012c.434.037.688.057.877.057a3.186,3.186,0,0,0,1.679-.319c.55-.317.857-1.35,1.022-3.451.181-2.216.284-3.9.383-6.29a16.561,16.561,0,0,1-1.632.622l-4.177,1.383V24.8A17.219,17.219,0,0,1,92.041,22.7Zm-13.078-.45h2.42l-.035.281A20.4,20.4,0,0,0,81.2,25.3v3.475h.45a9.154,9.154,0,0,0,1.948-.12l.3-.063v2.215l-.28-.034a15.24,15.24,0,0,0-2-.1H81.2v7.207c.837-.393,1.315-.641,2.453-1.276l.333-.186.2,2.068-.143.08a48.281,48.281,0,0,1-6.477,3.063l-.01,0c-.3.109-.631.258-.893.377l-.362.164L75.743,39.9l.266-.044a13.165,13.165,0,0,0,3.141-1.045V30.675h-.675a9.271,9.271,0,0,0-2.053.146l-.3.057V28.565l.3.066a9.053,9.053,0,0,0,2.047.144h.675v-3.5A20.257,20.257,0,0,0,79,22.534Zm1.856.5H79.533a22.391,22.391,0,0,1,.117,2.525v4H78.475a11.344,11.344,0,0,1-1.85-.1v1.1a10.739,10.739,0,0,1,1.85-.1H79.65v8.967l-.154.064a15.777,15.777,0,0,1-3.14,1.093l.289,1.174c.23-.1.489-.216.74-.306a47.725,47.725,0,0,0,6.274-2.955l-.1-.983c-1.057.585-1.517.812-2.508,1.273l-.355.165V30.175h.925a17.025,17.025,0,0,1,1.775.071V29.2a12.393,12.393,0,0,1-1.75.076H80.7V25.3A21.877,21.877,0,0,1,80.819,22.75Zm63.694-.34.129.155a19.2,19.2,0,0,1,2.606,3.922l.106.208-1.687,1.012-.118-.25a18.91,18.91,0,0,0-2.531-3.911l-.226-.241Zm2.182,4.1a18.466,18.466,0,0,0-2.309-3.466l-.787.409A20.82,20.82,0,0,1,145.88,27ZM59.958,22.7l.017.284a42.941,42.941,0,0,0,1.778,7.958c1.34-.543,2.18-.863,5.811-2.128l.273-.1a10.805,10.805,0,0,0,1.3-.538l.244-.122.959,2.428-.288.062a57.33,57.33,0,0,0-7.483,2.412,15.883,15.883,0,0,0-4.594,2.528A3.514,3.514,0,0,0,56.6,38.15a2.192,2.192,0,0,0,1.429,2.2,13.11,13.11,0,0,0,5.146.7,24.676,24.676,0,0,0,7.066-.836l.3-.107.257,2.668h-.275a12.828,12.828,0,0,0-1.823.149,50.31,50.31,0,0,1-5.552.326,17.21,17.21,0,0,1-5.638-.691,4.38,4.38,0,0,1-3.262-4.334,5.689,5.689,0,0,1,2.317-4.444,15.2,15.2,0,0,1,3.126-1.957A51.6,51.6,0,0,1,57.93,25a8.177,8.177,0,0,0-.406-1.516l-.112-.3Zm1.491,8.905-.085-.251A45.92,45.92,0,0,1,59.5,23.3l-1.412.268a11.055,11.055,0,0,1,.333,1.332,50.726,50.726,0,0,0,1.817,6.972l.071.207-.2.1a15.319,15.319,0,0,0-3.229,2,5.141,5.141,0,0,0-2.133,4.056,3.92,3.92,0,0,0,2.936,3.865,16.765,16.765,0,0,0,5.464.66,49.878,49.878,0,0,0,5.5-.324c1.076-.117,1.316-.144,1.6-.149l-.144-1.491a26.451,26.451,0,0,1-6.931.765,13.521,13.521,0,0,1-5.354-.745A2.7,2.7,0,0,1,56.1,38.15a3.984,3.984,0,0,1,1.543-3.04,16.332,16.332,0,0,1,4.739-2.617A60.07,60.07,0,0,1,69.66,30.12l-.544-1.378c-.32.149-.58.246-1.106.44l-.278.1c-3.84,1.338-4.55,1.615-6.038,2.221Zm71.476-8.886,2.58.29-.091.29a14.909,14.909,0,0,0-.466,2.361c-.071.446-.205,1.153-.346,1.9l-.12.635c.386-.031.7-.048,1.169-.048,1.858,0,2.952.325,3.774,1.12.924.871,1.3,2.09,1.3,4.2,0,3.892-.659,7.243-1.721,8.744A2.847,2.847,0,0,1,136.35,43.5a9.656,9.656,0,0,1-3.873-.995l-.175-.074.025-.189a5.333,5.333,0,0,0,.048-.867,4.39,4.39,0,0,0-.072-.934l-.081-.488.441.225a9.2,9.2,0,0,0,3.612,1.123c.518,0,.908-.342,1.193-1.044A19.073,19.073,0,0,0,138.5,33.4a3.88,3.88,0,0,0-.6-2.579,2.793,2.793,0,0,0-2.222-.671,12.944,12.944,0,0,0-1.6.1,48.712,48.712,0,0,1-5.387,13.494l-.125.221L126.405,42.7l.171-.224c2-2.633,4.081-7.417,5.219-12a29.906,29.906,0,0,0-4.626.841l-.285.082-.263-2.365.272-.008a49.677,49.677,0,0,0,5.326-.623,30.651,30.651,0,0,0,.706-5.077Zm1.926.72-1.426-.16v.045a31.013,31.013,0,0,1-.756,5.355l-.038.168-.17.024c-3.343.478-4.427.6-5.282.643l.138,1.239a36.9,36.9,0,0,1,4.774-.827l.363-.051-.085.356a37.85,37.85,0,0,1-5.226,12.318l1.24.73a47.964,47.964,0,0,0,5.248-13.31l.039-.175.178-.019a14.709,14.709,0,0,1,1.827-.126,3.22,3.22,0,0,1,2.6.841A4.29,4.29,0,0,1,139,33.4a19.562,19.562,0,0,1-1.07,7.047,1.8,1.8,0,0,1-1.655,1.353,8.924,8.924,0,0,1-3.415-.97c.015.179.015.328.015.545a6.2,6.2,0,0,1-.029.743,8.906,8.906,0,0,0,3.5.882,2.378,2.378,0,0,0,2.246-1.069c.99-1.4,1.629-4.719,1.629-8.456,0-1.988-.321-3.065-1.146-3.843-.721-.7-1.714-.982-3.428-.982a14.3,14.3,0,0,0-1.453.074l-.328.028.06-.323c.059-.318.121-.643.18-.959.141-.745.274-1.448.344-1.885A19.3,19.3,0,0,1,134.851,23.44ZM13.225,23.082l.289.046a12.946,12.946,0,0,0,2.186.122h4.65a10.719,10.719,0,0,0,1.832-.1l.139-.024,1.147,1.307L23.3,24.6a16.088,16.088,0,0,0-1.183,1.406,22.747,22.747,0,0,1-2.844,2.968c.369.332.619.553,1.191,1.062l.2.174-.694.713h1.508a10.719,10.719,0,0,0,1.832-.1l.146-.026,1.027,1.276-.089.149a24.623,24.623,0,0,1-3.554,4.99l-.171.189-.186-.175a4.828,4.828,0,0,0-1.2-.838l-.3-.165.251-.236a13.323,13.323,0,0,0,2.6-3.143H18.975v9.825c0,1.078-.357,1.461-.668,1.675a4.039,4.039,0,0,1-2.257.425,22.912,22.912,0,0,1-2.349-.126l-.2-.019-.021-.2a5.454,5.454,0,0,0-.36-1.613l-.152-.406.427.071A17.265,17.265,0,0,0,16.2,42.8c.725,0,.725-.056.725-.325V32.85H15.1a12.8,12.8,0,0,0-2.111.122l-.29.046V30.757l.29.046a12.058,12.058,0,0,0,2.111.122h3.416a22.314,22.314,0,0,0-4.424-3.489l-.254-.161,1.325-1.427.177.118c1.182.788,1.7,1.172,2.507,1.81A19.6,19.6,0,0,0,20.4,25.15H15.625a13.173,13.173,0,0,0-2.111.122l-.289.046Zm7.125.668H15.7a15.481,15.481,0,0,1-1.975-.087v1.074a15.3,15.3,0,0,1,1.9-.087h5.817l-.321.405a20.931,20.931,0,0,1-3.111,3.237l-.157.131-.16-.128A30.171,30.171,0,0,0,15.238,26.5l-.626.674a22.136,22.136,0,0,1,4.626,3.782l.7-.719c-.528-.469-.757-.673-1.206-1.077l-.208-.187.209-.186a22.951,22.951,0,0,0,3-3.094c.717-.882.912-1.122,1.055-1.278l-.656-.748A12.553,12.553,0,0,1,20.35,23.75Zm-.674,7.675H15.1a14.065,14.065,0,0,1-1.9-.086v1.1a14.83,14.83,0,0,1,1.9-.087h2.325V42.475c0,.766-.508.825-1.225.825a15.493,15.493,0,0,1-2.476-.26,5.713,5.713,0,0,1,.227,1.13c.957.087,1.537.105,2.1.105,2.074,0,2.425-.4,2.425-1.6V32.35h4.244l-.23.38a14.08,14.08,0,0,1-2.671,3.393,4.708,4.708,0,0,1,.815.574,23.526,23.526,0,0,0,3.238-4.575l-.625-.776a12.634,12.634,0,0,1-1.771.08ZM12.7,23.112l-.028.311c-.051.563-.074,1.265-.074,2.277v5.675c0,1.1.021,1.743.074,2.3l.03.318-.316-.047a15.947,15.947,0,0,0-2.188-.1H8.25v2.3h2.275a12.949,12.949,0,0,0,2.138-.122l.287-.042v2.2l-.287-.042a12.948,12.948,0,0,0-2.138-.122H8.25v2.752c1.362-.241,2.348-.445,4.567-.971l.3-.071.034,1.887-.2.046c-3.613.854-5.779,1.282-9.269,1.829a16.681,16.681,0,0,0-1.9.4l-.25.065-.525-2.332h.313a30.572,30.572,0,0,0,5-.538V38.025H4.075a13.341,13.341,0,0,0-2.137.122l-.288.044V35.98l.291.049a12.872,12.872,0,0,0,2.134.122h2.25v-2.3H4.55a17.2,17.2,0,0,0-2.265.1l-.326.047L2,33.668a19.545,19.545,0,0,0,.1-2.343V25.7A18.4,18.4,0,0,0,2,23.43l-.037-.31.31.031a22.276,22.276,0,0,0,2.3.1h5.6a16.447,16.447,0,0,0,2.218-.1Zm-2.527.638h-5.6c-.8,0-1.434-.022-2.044-.073.05.53.069,1.12.069,2.023v5.625c0,.919-.021,1.583-.067,2.09.474-.045,1.1-.065,2.017-.065H6.825v3.3H4.075a15.3,15.3,0,0,1-1.925-.086v1.049a15.21,15.21,0,0,1,1.925-.088h2.75v3.988l-.211.034a35.145,35.145,0,0,1-4.977.575l.275,1.221A17.134,17.134,0,0,1,3.61,43c3.413-.535,5.554-.955,9.036-1.775l-.016-.863c-2.171.511-3.121.7-4.588.957l-.293.051V37.525h2.775a14.542,14.542,0,0,1,1.925.088V36.562a14.543,14.543,0,0,1-1.925.088H7.75v-3.3H10.2c.9,0,1.5.019,1.951.064-.036-.508-.051-1.118-.051-2.039V25.7c0-.854.016-1.493.052-2.017C11.657,23.732,11.1,23.75,10.175,23.75Zm-6.7.85h3.35v3.475H3.475Zm2.85.5H3.975v2.475h2.35Zm1.425-.5h3.475v3.475H7.75Zm2.975.5H8.25v2.475h2.475Zm99.559-.26,1.793.88-.064.2a25.67,25.67,0,0,1-2.268,5.593l-.114.215-1.6-.8.121-.226a20.459,20.459,0,0,0,2.053-5.57Zm1.188,1.14-.857-.42a20.457,20.457,0,0,1-1.9,5.156l.7.351A24.25,24.25,0,0,0,111.472,25.98Zm2.128-.83h7.025v2.325H113.6Zm6.525.5H114.1v1.325h6.025Zm-13.3-.053.086.208a21.945,21.945,0,0,1,1.188,3.814l.05.216-1.726.621-.062-.277a18.962,18.962,0,0,0-1.186-3.806l-.11-.259Zm.736,3.918a20.767,20.767,0,0,0-1.028-3.311l-.79.232a18.785,18.785,0,0,1,1.043,3.358Zm-4.207-3.194.1.189a21.282,21.282,0,0,1,1.666,4.09l.07.223-1.752.687-.073-.269a17.3,17.3,0,0,0-1.58-4.1l-.138-.262Zm1.217,4.206a20.151,20.151,0,0,0-1.466-3.6l-.742.242a17.145,17.145,0,0,1,1.41,3.67Zm38.811-3.863.13.139a23.137,23.137,0,0,1,5.281,8.945l.062.194L146.79,37.1l-.082-.314a20.972,20.972,0,0,0-5.034-8.86l-.243-.24Zm4.872,9.042a22.612,22.612,0,0,0-4.977-8.422l-1.007.529a21.765,21.765,0,0,1,4.843,8.535ZM45.629,27l1.495,1.827-.392.09a56.8,56.8,0,0,1-7.754,1.28c-.878.093-1.531.162-2.146.216l.046.064a18.723,18.723,0,0,1,1.871,3.109l.116.228-1.32.636H38.6l-.06.3a6.27,6.27,0,0,0-.119,1.3h7.049a17.922,17.922,0,0,0,2.788-.147l.287-.042v2.223l-.281-.035a22.04,22.04,0,0,0-2.794-.148H39.724a20.971,20.971,0,0,0,9.208,4.356l.412.1-.282.315a6.332,6.332,0,0,0-.99,1.449l-.1.184-.2-.061a25.807,25.807,0,0,1-6.007-2.6A19,19,0,0,1,38.364,39c0,.074.007.162.011.267.034.509.05.987.05,1.463V42.25a13.352,13.352,0,0,0,.17,2.576l.06.3H36.209l.044-.287a15.921,15.921,0,0,0,.172-2.588V40.72c.015-.717.04-1.284.062-1.7A16.474,16.474,0,0,1,33,41.666a24.965,24.965,0,0,1-5.65,2.5l-.2.065-.1-.188a4.223,4.223,0,0,0-1.025-1.384l-.329-.313.44-.111A21.226,21.226,0,0,0,35.106,37.9H29.475a21.348,21.348,0,0,0-2.719.148l-.281.035V35.86l.287.042a17.526,17.526,0,0,0,2.738.147h6.924a7.037,7.037,0,0,0-.12-1.307l-.051-.293h.693l0-.007a11.233,11.233,0,0,0-1.766-3.116l-.2-.256,1.477-.625c-1.545.124-3.089.168-7.708.3l-.3.009-.057-.18a4.016,4.016,0,0,0-.689-1.354l-.289-.4H27.9a98.676,98.676,0,0,0,10.15-.374,31.047,31.047,0,0,0,7.41-1.384Zm.6,1.52L45.47,27.6a32.816,32.816,0,0,1-7.37,1.352,95.932,95.932,0,0,1-9.728.376,4.154,4.154,0,0,1,.432.92A93.277,93.277,0,0,0,38.924,29.7,56.211,56.211,0,0,0,46.226,28.521Zm-8.04,5.065a17.453,17.453,0,0,0-1.6-2.653l-.821.347a11.339,11.339,0,0,1,1.538,2.729ZM38,34.95H36.844a8.308,8.308,0,0,1,.081,1.35v.25H29.5a20,20,0,0,1-2.525-.114v1.083a22.651,22.651,0,0,1,2.5-.119h7.007l-.52.441a21.5,21.5,0,0,1-9.275,4.767,4.371,4.371,0,0,1,.711,1.014,23.928,23.928,0,0,0,5.351-2.388A16.984,16.984,0,0,0,36.6,38.22l.467-.452-.043.648c-.022.331-.074,1.106-.1,2.311V42.25a16.843,16.843,0,0,1-.137,2.375h1.264a15.968,15.968,0,0,1-.127-2.375V40.725c0-.465-.016-.934-.049-1.433v-.007c-.025-.619-.025-.619-.049-.887l-.061-.669.483.467a19.9,19.9,0,0,0,3.779,3.015,24.736,24.736,0,0,0,5.7,2.49,6.674,6.674,0,0,1,.694-1.052,21.367,21.367,0,0,1-9.555-4.807l-.526-.442h7.137a23.553,23.553,0,0,1,2.575.119V36.436a20.554,20.554,0,0,1-2.575.114h-7.55V36.3A8.5,8.5,0,0,1,38,34.95Zm75.6-6.825h7.025V30.5H113.6Zm6.525.5H114.1V30h6.025Zm-116.65.25h3.35V32.55H3.475Zm2.85.5H3.975V32.05h2.35Zm1.425-.5h3.475V32.55H7.75Zm2.975.5H8.25V32.05h2.475Zm33.5.191,2.006.921-.136.237a32.176,32.176,0,0,1-3.425,5.011l-.13.156L40.8,34.973l.209-.238A16.809,16.809,0,0,0,44.12,29.8Zm1.3,1.147-1.045-.48A16.945,16.945,0,0,1,41.6,34.826l.817.433A31.317,31.317,0,0,0,45.522,30.713Zm60.055-.013h2.151l-.03.277c-.065.609-.072.823-.091,1.423h1.517a9.987,9.987,0,0,0,1.953-.121l.3-.057V34.38l-.3-.06c-.043-.009-.083-.014-.122-.019a.88.88,0,0,1-.164-.032,3.38,3.38,0,0,0-.515-.02h-.011l-1.17-.05h-1.558c-.037.677-.065,1.078-.148,1.675H109.2a11.162,11.162,0,0,0,1.986-.122l.29-.046v2.161l-.289-.046a3.406,3.406,0,0,0-.786-.072.555.555,0,0,1-.075-.007,1.845,1.845,0,0,0-.25-.018h-.031l-.03-.007c-.075-.018-.434-.018-.814-.018h-1.441a9.067,9.067,0,0,0,2.81,2.846l.234.165-.2.21a4.2,4.2,0,0,0-.834,1.291l-.142.283-.243-.2a11.672,11.672,0,0,1-2.75-3.157,10.2,10.2,0,0,1-4.6,5.624l-.235.154-.126-.251a3.667,3.667,0,0,0-.96-1.144l-.285-.234.323-.178a8.643,8.643,0,0,0,3.118-2.6,6.979,6.979,0,0,0,1.31-2.8h-1.657a11.827,11.827,0,0,0-2.012.122l-.288.044V35.7l.291.049a10.97,10.97,0,0,0,1.984.122h2.028c.055-.478.111-1.028.138-1.675h-1.441a11.3,11.3,0,0,0-1.986.122l-.29.046V32.22l.3.06a9.827,9.827,0,0,0,1.951.12h1.524a8.334,8.334,0,0,0-.1-1.407Zm1.6.5h-1.009a12.342,12.342,0,0,1,.06,1.45v.25H104.2a12.97,12.97,0,0,1-1.75-.079v.965a13.121,13.121,0,0,1,1.775-.086h1.957l-.008.257c-.026.886-.1,1.6-.177,2.2l-.026.22H103.5a12.847,12.847,0,0,1-1.775-.084v1a13.3,13.3,0,0,1,1.8-.087h2.29l-.071.307a7.768,7.768,0,0,1-1.469,3.293,8.781,8.781,0,0,1-2.971,2.57,4.174,4.174,0,0,1,.682.822,9.684,9.684,0,0,0,4.35-5.741l.171-.56.286.511a11.035,11.035,0,0,0,2.677,3.3,4.264,4.264,0,0,1,.581-.914,9.254,9.254,0,0,1-2.945-3.219L106.9,37.2h2.3a6.925,6.925,0,0,1,.9.025,2.357,2.357,0,0,1,.289.022l.019,0a3.086,3.086,0,0,1,.565.034v-.994a12.931,12.931,0,0,1-1.775.086h-2.391l.044-.287a18.335,18.335,0,0,0,.2-2.151l.012-.237h2.048l1.17.05a3.747,3.747,0,0,1,.595.026v-.957a12.761,12.761,0,0,1-1.75.081h-2.033l.015-.484C107.123,31.893,107.13,31.645,107.173,31.2Zm-76.809-.408.125.145A16.723,16.723,0,0,1,33,34.556l.118.219-1.774.971-.114-.237a12.135,12.135,0,0,0-2.454-3.584l-.244-.249Zm2.072,3.784a15.76,15.76,0,0,0-2.2-3.167l-.867.417a12.525,12.525,0,0,1,2.191,3.229Zm87.143,3.216.1.2a17.979,17.979,0,0,1,1.163,2.982l.069.219-1.578.646-.072-.277a13.969,13.969,0,0,0-1.059-3.007l-.118-.253Zm.712,3.114a16.327,16.327,0,0,0-.972-2.5l-.551.188a13.457,13.457,0,0,1,.9,2.564Zm-8.763-2.937,1.727.587-.034.209a15.81,15.81,0,0,1-1.853,5.581l-.125.223-1.719-1.011.14-.219a12.44,12.44,0,0,0,1.814-5.083Zm1.164.924-.773-.263a12.671,12.671,0,0,1-1.7,4.76l.831.489A15,15,0,0,0,112.693,38.893Zm2.462-.651.041.24a28.371,28.371,0,0,1,.428,4.709l.007.2-1.832.449v-.319c0-.182.009-.347.016-.479,0-.089.009-.165.009-.221a21.348,21.348,0,0,0-.321-4.079l-.048-.256Zm-.037,4.763a26.936,26.936,0,0,0-.374-4.2l-.7.1a22.419,22.419,0,0,1,.283,3.915c0,.069,0,.152-.01.248,0,.042,0,.086-.007.131ZM16.064,64.729l2.141.468-.128.282c-.292.642-.478,1.028-.692,1.447H19.5a18,18,0,0,0,2.366-.1l.311-.042-.028.313c-.053.586-.074,1.147-.074,2v3.275c0,.9.021,1.49.074,2.1l.025.283-.284-.011c-.6-.024-1.306-.05-2.04-.05H14.1v1.2h7.65a11.362,11.362,0,0,0,1.987-.122l.288-.044v2.059l-.289-.046a13.565,13.565,0,0,0-2.011-.1H14.1v1.225h7.325a18.92,18.92,0,0,0,2-.073l.279-.033v.281a.859.859,0,0,1-.031.29c-.012.1-.02.233-.046.713-.016.29-.038.7-.073,1.312-.124,2.648-.493,4.574-1.04,5.421l0,.005a2.527,2.527,0,0,1-2.382.984,22.048,22.048,0,0,1-2.5-.2l-.212-.025-.009-.213a3.342,3.342,0,0,0-.329-1.435l-.1-.241-.306.089-.034-.295a15.858,15.858,0,0,0-.79-3.777l-.084-.261,1.613-.358.071.214a18.8,18.8,0,0,1,.885,3.765l.034.217-1.023.3.013,0a15.111,15.111,0,0,0,2.729.346c.62,0,.9-.138,1.154-1.521a24.276,24.276,0,0,0,.34-3.729H14.175a12.633,12.633,0,0,0-1.821.073l-.318.037.041-.317a17.634,17.634,0,0,0,.1-2.243V69a13.6,13.6,0,0,0-.1-1.89l-.047-.328.328.045a17.713,17.713,0,0,0,2.316.1H15.3a8.816,8.816,0,0,0,.71-1.959Zm1.429.824-1.061-.232a9.261,9.261,0,0,1-.761,1.969l-.07.135h-.927c-.955,0-1.575-.019-2.064-.065.044.435.064.957.064,1.64v9.2c0,.887-.02,1.5-.067,1.994a15.153,15.153,0,0,1,1.567-.044h7.9l0,.254a25.516,25.516,0,0,1-.355,4.07c-.241,1.3-.549,1.926-1.645,1.926a13.449,13.449,0,0,1-2.377-.274,3.524,3.524,0,0,1,.191.975,20.363,20.363,0,0,0,2.237.174c1.054,0,1.587-.207,1.967-.763.491-.765.841-2.65.959-5.174.035-.609.057-1.024.073-1.313.024-.431.032-.59.043-.7-.425.032-1,.047-1.742.047H13.6V77.15h8.125a17.544,17.544,0,0,1,1.8.065v-.9a12.854,12.854,0,0,1-1.775.087H13.6V74.2h6.25c.631,0,1.238.019,1.779.039-.038-.534-.054-1.085-.054-1.864V69.1c0-.724.015-1.242.051-1.742-.494.048-1.119.067-2.126.067H16.563l.191-.366C17.019,66.55,17.2,66.183,17.494,65.553Zm.3,19.344a17.636,17.636,0,0,0-.76-3.254l-.638.142a15.461,15.461,0,0,1,.693,3.317ZM64.09,65.05h2.6l-.042.286a21.23,21.23,0,0,0-.172,3.014v4.625h4.5a21.62,21.62,0,0,0,2.767-.148l.283-.038v2.417l-.279-.033a23.276,23.276,0,0,0-2.771-.148h-4.5V84.4a22.5,22.5,0,0,0,.173,3.14l.041.285h-2.6l.038-.283A22.828,22.828,0,0,0,64.3,84.4V75.025H60.725a21.481,21.481,0,0,0-2.669.148l-.281.035V72.792l.281.035a20.346,20.346,0,0,0,2.669.148H64.3v-4.6a22.736,22.736,0,0,0-.173-3.042Zm2.024.5H64.658a24.44,24.44,0,0,1,.142,2.825v5.1H60.725a21.4,21.4,0,0,1-2.45-.119v1.288a22.761,22.761,0,0,1,2.45-.119H64.8V84.4a24.5,24.5,0,0,1-.141,2.925h1.456a24.72,24.72,0,0,1-.14-2.925V74.525h5a24.35,24.35,0,0,1,2.55.121V73.357a23.724,23.724,0,0,1-2.55.118h-5V68.35A23.372,23.372,0,0,1,66.114,65.55ZM10.4,65.069l1.329,1.6-.305.133a30.144,30.144,0,0,1-9.368,2.419l-.21.027-.062-.2a3.788,3.788,0,0,0-.687-1.3l-.276-.375.466-.023c3.5-.171,7.257-1.08,8.926-2.16Zm.519,1.408-.623-.751a22.124,22.124,0,0,1-8.534,2.1A3.779,3.779,0,0,1,2.2,68.7,29.475,29.475,0,0,0,10.919,66.477Zm25.1-1.4h2.634l-.053.294a11.026,11.026,0,0,0-.171,2.231v6.075H44.5V69.2a13.23,13.23,0,0,0-.1-1.793l-.037-.282h2.447l-.039.284a12.053,12.053,0,0,0-.123,1.866V74.25c0,.434.019.749.041,1.114l.025.425-.278-.014c-.463-.023-1.056-.05-1.537-.05H38.425v8.65h6.95v-4.5a13.174,13.174,0,0,0-.122-2.111l-.046-.289h2.485l-.044.288a13.762,13.762,0,0,0-.122,2.187V85.6a12.181,12.181,0,0,0,.147,2.062l.044.288H45.375v-1.5H29.625v1.5H27.282l.046-.289a13,13,0,0,0,.147-2.061V80.1a13.823,13.823,0,0,0-.122-2.186l-.046-.289h2.486l-.046.289A12.18,12.18,0,0,0,29.625,80v4.375H36.25v-8.65h-6c-.434,0-1,.024-1.538.05l-.276.013.027-.5c.02-.368.037-.686.037-1.035V69.3a17.427,17.427,0,0,0-.124-1.9l-.03-.277h2.441l-.041.285a12.556,12.556,0,0,0-.1,1.815v4.45h5.6V67.6a9.989,9.989,0,0,0-.169-2.222Zm2.04.5H36.628A11.921,11.921,0,0,1,36.75,67.6v6.575h-6.6v-4.95a14.805,14.805,0,0,1,.067-1.6H28.9A16.36,16.36,0,0,1,29,69.3v4.95c0,.346-.016.658-.035,1.012.459-.021.915-.037,1.285-.037h6.5v9.65H29.125V80a14.32,14.32,0,0,1,.086-1.875H27.888a16.22,16.22,0,0,1,.087,1.975v5.5a14.085,14.085,0,0,1-.111,1.85h1.261v-1.5h16.75v1.5h1.261a12.859,12.859,0,0,1-.111-1.85V79.95a15.8,15.8,0,0,1,.088-1.975H45.788a15.3,15.3,0,0,1,.087,1.9v5h-7.95v-9.65H44.9c.4,0,.87.018,1.284.037-.018-.311-.034-.618-.034-1.012V69.275a12.615,12.615,0,0,1,.091-1.65H44.931A14.735,14.735,0,0,1,45,69.2v4.975H37.925V67.6A12.112,12.112,0,0,1,38.054,65.575Zm15.725-.345.175.106a30.911,30.911,0,0,1,4.583,3.324l.178.153-1.341,1.766-.2-.2a20.406,20.406,0,0,0-4.549-3.436l-.267-.156Zm4.254,3.657a30.005,30.005,0,0,0-4.163-3.016l-.728.8a20.515,20.515,0,0,1,4.181,3.156Zm182.375-3.4,2.223,1.651-.248.2c-.269.22-.5.421-3.06,2.887a74.228,74.228,0,0,1-5.771,4.743c-.921.7-1,.835-1,1.052,0,.318.179.486,2.128,2a73.7,73.7,0,0,1,8.018,6.841l0,0a5.42,5.42,0,0,0,.554.5l.128.1.216.176-1.983,1.952-.17-.241a23.4,23.4,0,0,0-3.19-3.386c-1.66-1.536-2.662-2.364-6.309-5.212-1.471-1.156-1.9-1.761-1.9-2.7a2.673,2.673,0,0,1,.794-1.847l0,0A19.305,19.305,0,0,1,233,72.5c3.283-2.518,6.407-5.435,7.266-6.786Zm1.415,1.674-1.288-.957A42.547,42.547,0,0,1,233.3,72.9a19.477,19.477,0,0,0-2.1,1.676,2.183,2.183,0,0,0-.654,1.5c0,.757.366,1.252,1.7,2.3,3.661,2.858,4.668,3.69,6.34,5.238a26.057,26.057,0,0,1,3.086,3.227l1.169-1.151a6.2,6.2,0,0,1-.5-.463,73.341,73.341,0,0,0-7.978-6.806c-2.014-1.566-2.323-1.807-2.323-2.4,0-.5.311-.777,1.2-1.449a73.836,73.836,0,0,0,5.73-4.708C240.91,68.011,241.519,67.434,241.824,67.163Zm-128.464-1.6.037.244a7.83,7.83,0,0,0,.711,2.2c.52,1.386.644,1.66.812,2.013a28.852,28.852,0,0,0,5.807-1.527l.3-.128.329,2.334-.234.045c-.515.1-.707.146-1.457.346-1.495.4-1.789.473-3.393.779l-.534.111a47.239,47.239,0,0,0,4.337,6.943l.171.227-2.071,1.175-.133-.108a4.771,4.771,0,0,0-1.649-.983A13.237,13.237,0,0,0,112.1,78.6a8.687,8.687,0,0,0-4.618,1.012,2.6,2.6,0,0,0-1.232,2.113,2.243,2.243,0,0,0,.857,1.755,8.306,8.306,0,0,0,4.718,1.095A16.344,16.344,0,0,0,118.81,83l.313-.163.353,2.474-.189.07a21.1,21.1,0,0,1-7.437,1.366c-3.1,0-5.474-.693-6.68-1.952a4.286,4.286,0,0,1-1.195-2.923,4.909,4.909,0,0,1,2.966-4.3,10.865,10.865,0,0,1,4.959-.95,15.29,15.29,0,0,1,4.463.59,30.279,30.279,0,0,1-2.51-4.226c-.126-.241-.2-.386-.248-.492-.034-.07-.059-.122-.088-.176a74.641,74.641,0,0,1-8.763.629,4.814,4.814,0,0,0-.829.057l-.384.051-.132-2.4.3.047a10.683,10.683,0,0,0,1.887.122,58.608,58.608,0,0,0,7.089-.479c-.337-.782-.692-1.669-1.1-2.679-.267-.631-.418-.984-.641-1.431l-.156-.311Zm1.27,5.009-.136-.286a21.832,21.832,0,0,1-.853-2.1,9.773,9.773,0,0,1-.7-2.056l-1.391.194c.157.332.3.658.5,1.152.457,1.143.85,2.125,1.223,2.971l.134.3-.328.045a59,59,0,0,1-7.484.527,11.914,11.914,0,0,1-1.659-.085l.069,1.251a5.127,5.127,0,0,1,.74-.041,73.659,73.659,0,0,0,8.865-.648l.164-.023.085.142a3.885,3.885,0,0,1,.19.358c.05.1.118.243.242.48a30.159,30.159,0,0,0,2.98,4.868l-.318.369a12.249,12.249,0,0,0-5.059-.871,10.4,10.4,0,0,0-4.74.9,4.416,4.416,0,0,0-2.685,3.851,3.786,3.786,0,0,0,1.058,2.579c1.109,1.157,3.353,1.8,6.317,1.8a20.547,20.547,0,0,0,7.074-1.265l-.2-1.382a16.913,16.913,0,0,1-6.9,1.472,8.635,8.635,0,0,1-5.029-1.2l-.006,0a2.765,2.765,0,0,1-1.04-2.142,3.074,3.074,0,0,1,1.466-2.536A9.153,9.153,0,0,1,112.1,78.1a13.907,13.907,0,0,1,4.454.663l.005,0a5,5,0,0,1,1.666.959l1.28-.726a46.19,46.19,0,0,1-4.357-7.093l-.133-.288.311-.062c.249-.05.249-.05.848-.175,1.591-.3,1.882-.377,3.362-.772.632-.169.883-.233,1.259-.308l-.172-1.222a30.96,30.96,0,0,1-5.807,1.469Zm71.4-4.9h2.688l-.046.289a9.611,9.611,0,0,0-.122,1.536v2.3h5.025c1.564,0,1.621,0,2.021-.137l.143-.048,1.275,1.213-.1.17c-.2.36-.2.36-.521,2.44a15.811,15.811,0,0,1-4.6,9.269,19.728,19.728,0,0,1-7.418,4.206l-.211.07-.094-.2a4.865,4.865,0,0,0-1.107-1.636l-.284-.306.4-.106a16.322,16.322,0,0,0,5.449-2.391,12.227,12.227,0,0,0,3.953-4.379,16.433,16.433,0,0,0,1.71-6.089H181.075v3.5a17.708,17.708,0,0,0,.074,1.824l.029.276h-2.609l.033-.279c.048-.4.1-1.19.1-1.846V71.975a15.987,15.987,0,0,0-.1-1.994l-.039-.31.311.03a21.2,21.2,0,0,0,2.276.1h5.05V67.525a7.584,7.584,0,0,0-.122-1.559Zm2.106.5h-1.518a8.087,8.087,0,0,1,.082,1.35V70.3h-5.55c-.828,0-1.378-.019-2.018-.073.047.488.068,1.043.068,1.748V75.35c0,.546-.034,1.181-.074,1.625h1.5c-.035-.438-.051-.956-.051-1.6v-4H194.75l-.026.273a17.159,17.159,0,0,1-1.794,6.55,12.719,12.719,0,0,1-4.113,4.557,16.431,16.431,0,0,1-5.208,2.354,4.725,4.725,0,0,1,.822,1.257,19.089,19.089,0,0,0,7.023-4.025,15.321,15.321,0,0,0,4.449-8.982,9.017,9.017,0,0,1,.485-2.437l-.778-.74a6.9,6.9,0,0,1-2.035.117H188.05V67.5A10,10,0,0,1,188.136,66.175Zm-54.349-.162.211.119a29.834,29.834,0,0,0,8.391,2.746l.31.048-.9,2.246-.213-.055a38.718,38.718,0,0,1-4.9-1.432,27.988,27.988,0,0,1-3.845-1.583l-.254-.117ZM142,69.321a31.121,31.121,0,0,1-8.038-2.637l-.656,1.081a26.046,26.046,0,0,0,3.547,1.448,36.749,36.749,0,0,0,4.643,1.364Zm12.622-3.108,2.536.385-.1.284a35.477,35.477,0,0,0-1.042,3.972,36.665,36.665,0,0,0-.744,7.771c0,1.154.018,2.167.055,3.09a26.906,26.906,0,0,1,1.241-3.315l.1-.237,1.654.793-.1.223a21.738,21.738,0,0,0-2,6.772v.605l-2.268.189-.03-.238c-.037-.3-.06-.436-.1-.691-.014-.084-.029-.181-.048-.3a35.958,35.958,0,0,1-.653-7.116,41.774,41.774,0,0,1,1.131-9.954,13.651,13.651,0,0,0,.345-1.967Zm1.868.79-1.419-.216a17.41,17.41,0,0,1-.329,1.765,41.325,41.325,0,0,0-1.12,9.848,35.519,35.519,0,0,0,.646,7.031v.005c.019.118.034.215.048.3.029.177.049.3.072.47l1.333-.111V85.95a21.453,21.453,0,0,1,1.947-6.755l-.746-.358a22.482,22.482,0,0,0-1.506,4.589l-.494-.032c-.1-1.362-.151-2.878-.151-4.769a37.133,37.133,0,0,1,.755-7.874C155.868,69.217,156.153,68.035,156.492,67Zm104.48-.252H264l-.021.27c-.078.99-.125,1.719-.149,2.736l-.2,8.9C263.6,79.7,263.6,79.7,263.6,79.8c0,.415.021.837.074,1.505l.022.27h-2.387l.017-.266c.049-.767.049-.938.049-1.759v-.9l-.225-8.9c-.024-1.029-.048-1.774-.149-2.73Zm2.482.5h-1.929c.08.847.1,1.554.124,2.494l.225,8.906v.9c0,.731,0,.955-.034,1.525h1.314c-.039-.532-.055-.9-.055-1.275,0-.1,0-.1.025-1.156l.2-8.9C263.347,68.81,263.388,68.117,263.455,67.25Zm-253.17.59,1.793.88-.064.2a25.671,25.671,0,0,1-2.268,5.593l-.114.215-1.6-.8.121-.226a20.459,20.459,0,0,0,2.053-5.57Zm1.188,1.14-.857-.42a20.457,20.457,0,0,1-1.9,5.156l.7.351A24.25,24.25,0,0,0,11.472,68.98Zm85.5-1,.2,2.424H96.9a10.191,10.191,0,0,0-2.736.342,12.056,12.056,0,0,0-4.7,2.448,7.353,7.353,0,0,0-2.987,5.585,4.674,4.674,0,0,0,3.339,4.391,12.588,12.588,0,0,0,3.661.784h.543l-.412,2.567-.251-.046c-.112-.02-.187-.036-.266-.054-.117-.025-.238-.051-.505-.1a12.9,12.9,0,0,1-5.5-1.965A6.269,6.269,0,0,1,84.2,79.05a8.154,8.154,0,0,1,1.259-4.3,11.912,11.912,0,0,1,3.526-3.586c.371-.251.711-.461,1.053-.654-1.06.125-2.3.22-4.021.335a82.531,82.531,0,0,0-8.581.818l-.291.073-.162-2.555.28.015c.468.025.71.025.887.025.278,0,.528-.017,1.027-.049l.382-.025.749-.055c.838-.062,1.443-.107,3.878-.245l3.923-.25,1.665-.1c1.59-.091,1.921-.11,2.569-.13l1.421-.05a16.885,16.885,0,0,0,2.918-.266ZM96.629,69.9l-.105-1.3c-.38.066-1.038.119-2.735.217h-.006l-1.425.05c-.642.019-.971.038-2.556.13l-1.663.1-3.923.25c-2.433.138-3.036.183-3.871.245l-.752.055-.383.025c-.51.034-.766.051-1.06.051-.135,0-.324,0-.633-.012l.089,1.407c1.083-.2,3.594-.433,8.376-.769a51.293,51.293,0,0,0,5.474-.547l.15.472a16.178,16.178,0,0,0-2.342,1.306,11.417,11.417,0,0,0-3.38,3.433A7.661,7.661,0,0,0,84.7,79.05a5.783,5.783,0,0,0,2.665,4.893,12.3,12.3,0,0,0,5.3,1.886c.277.046.41.075.527.1l.237-1.479a13.083,13.083,0,0,1-3.793-.815,5.152,5.152,0,0,1-3.664-4.86,6.67,6.67,0,0,1,.817-3.155,9.578,9.578,0,0,1,2.348-2.812,12.569,12.569,0,0,1,4.9-2.551A10.494,10.494,0,0,1,96.629,69.9ZM13.6,68.15h7.025v2.325H13.6Zm6.525.5H14.1v1.325h6.025Zm201.578-.5,1.311,1.561-.162.162a6.874,6.874,0,0,0-.968,1.285,38.39,38.39,0,0,1-8.1,9.264c.96,1.061,2.02,2.425,3.487,4.373l.143.19L215.491,86.6l-.152-.243a47.036,47.036,0,0,0-9.7-10.688l-.242-.2,1.777-1.421.157.13a53.532,53.532,0,0,1,4.932,4.577c.94-.8,2.2-1.933,3.127-2.906a36.161,36.161,0,0,0,4.034-5.287c-.877.011-3.617.016-13.8.035-1.329,0-2.029.024-2.878.1l-.272.024V68.187l.285.041a18.074,18.074,0,0,0,2.89.147h14.575a2.825,2.825,0,0,0,1.312-.159Zm.636,1.535-.793-.944a3.606,3.606,0,0,1-1.321.131H205.65a19.948,19.948,0,0,1-2.675-.114v1.417c.752-.059,1.447-.078,2.65-.078,13.916-.025,13.916-.025,14.257-.049l.509-.036-.283.424c-.039.059-.068.1-.092.134-.036.052-.06.086-.1.156a36.634,36.634,0,0,1-4.158,5.468,44.2,44.2,0,0,1-3.346,3.095l-.177.148-.162-.165a54.157,54.157,0,0,0-4.9-4.577l-.974.779a47.856,47.856,0,0,1,9.41,10.374l1.124-.94c-1.473-1.954-2.528-3.3-3.491-4.341l-.182-.2.208-.168a37.828,37.828,0,0,0,8.2-9.316A9,9,0,0,1,222.339,69.689ZM6.82,68.6l.086.208a21.939,21.939,0,0,1,1.188,3.814l.05.216-1.726.621-.062-.277A18.962,18.962,0,0,0,5.17,69.373l-.11-.259Zm.736,3.918A20.765,20.765,0,0,0,6.529,69.2l-.79.232a18.785,18.785,0,0,1,1.043,3.358ZM171.2,68.83l.165,2.345h-.263c-.051,0-.343.038-1.7.223a42.53,42.53,0,0,1-5.409.327,33.681,33.681,0,0,1-4.027-.251l-.226-.024.033-2.32.307.079a16.635,16.635,0,0,0,4.188.367,26.625,26.625,0,0,0,6.635-.666Zm-.369,1.873-.087-1.237a28.242,28.242,0,0,1-6.472.608,18.492,18.492,0,0,1-4-.31L160.253,71a32.123,32.123,0,0,0,3.747.224,42.008,42.008,0,0,0,5.341-.323C170.177,70.788,170.607,70.732,170.834,70.7ZM3.35,69.321l.1.189A21.282,21.282,0,0,1,5.113,73.6l.07.223-1.752.687-.073-.269a17.3,17.3,0,0,0-1.58-4.1l-.138-.262Zm1.217,4.206a20.152,20.152,0,0,0-1.466-3.6l-.742.242a17.145,17.145,0,0,1,1.41,3.67Zm126.073-3.219,2.462.162-.087.3a20.639,20.639,0,0,0-.568,2.721c-.281,1.7-.443,2.648-.54,3.217s-.135.791-.169,1.039c.095-.089.191-.173.3-.265l.006,0a12.675,12.675,0,0,1,7.377-2.2,8.564,8.564,0,0,1,5.024,1.363,4.427,4.427,0,0,1,1.926,3.712,5.565,5.565,0,0,1-2.355,4.5,10.617,10.617,0,0,1-6.37,1.7,21.13,21.13,0,0,1-4.428-.456l-.01,0c-.473-.124-.473-.124-2-.5L131,85.54l.024-.218a3.72,3.72,0,0,0,.023-.447,5.564,5.564,0,0,0-.169-1.494l-.108-.47.446.182a17.521,17.521,0,0,0,6.281,1.231,9.154,9.154,0,0,0,4.79-1.106A3.285,3.285,0,0,0,144,80.375a2.5,2.5,0,0,0-1.17-2.186,6.249,6.249,0,0,0-3.43-.814,11.8,11.8,0,0,0-6.852,2.127,4.09,4.09,0,0,0-.95.976l-.078.1-2.364-.061.047-.284c.064-.384.091-.6.162-1.168l.037-.3c.26-1.973.715-4.892,1.051-6.91a8.229,8.229,0,0,0,.172-1.3Zm1.811.62-1.342-.088a9.548,9.548,0,0,1-.162,1.1c-.335,2.009-.789,4.921-1.048,6.887l-.037.295c-.052.416-.081.651-.119.905l1.538.039a4.336,4.336,0,0,1,.97-.972,12.307,12.307,0,0,1,7.15-2.225c3.193,0,5.1,1.308,5.1,3.5,0,2.7-2.748,4.45-7,4.45a18.151,18.151,0,0,1-6.037-1.1,5.978,5.978,0,0,1,.087,1.15c0,.069,0,.161-.007.283,1.315.323,1.342.33,1.791.448a20.626,20.626,0,0,0,4.317.443,10.147,10.147,0,0,0,6.081-1.6,5.063,5.063,0,0,0,2.144-4.1c0-2.779-2.532-4.575-6.45-4.575a12.16,12.16,0,0,0-7.07,2.1,6.827,6.827,0,0,0-.747.724l-.127.137-.392-.2.042-.191c.011-.051.021-.093.03-.131a2.184,2.184,0,0,0,.064-.411v-.012c.041-.311.074-.51.187-1.169.1-.569.259-1.52.539-3.214A23.13,23.13,0,0,1,132.451,70.929Zm-118.851.2h7.025V73.5H13.6Zm6.525.5H14.1V73h6.025Zm31.844-.414.187.088a36.7,36.7,0,0,1,5.106,2.867l.21.137-1.235,1.885-.214-.165a22.97,22.97,0,0,0-5-3l-.273-.129Zm4.81,3.237a35.58,35.58,0,0,0-4.648-2.608L51.5,72.7a22.743,22.743,0,0,1,4.609,2.76Zm40.083-2.967.132.161a20.47,20.47,0,0,1,2.6,3.942l.113.215-1.7.95-.114-.243a19.665,19.665,0,0,0-2.514-3.869l-.2-.233ZM99.04,75.6a19.572,19.572,0,0,0-2.3-3.481l-.777.428a20.394,20.394,0,0,1,2.274,3.5Zm-5-2.741.129.155a19.2,19.2,0,0,1,2.606,3.922l.107.21-1.717,1.01-.115-.253a17.461,17.461,0,0,0-2.5-3.9l-.233-.241Zm2.181,4.094a18.465,18.465,0,0,0-2.308-3.464l-.784.407a18.984,18.984,0,0,1,2.257,3.548ZM5.577,73.7H7.728l-.03.277c-.065.609-.073.823-.091,1.423H9.125a9.987,9.987,0,0,0,1.953-.121l.3-.056V77.38l-.3-.06c-.043-.009-.083-.014-.122-.019a.88.88,0,0,1-.164-.032,3.38,3.38,0,0,0-.515-.02h-.011l-1.17-.05H7.537c-.037.677-.065,1.078-.148,1.675H9.2a11.162,11.162,0,0,0,1.986-.122l.29-.046v2.161l-.289-.046a3.406,3.406,0,0,0-.786-.072.555.555,0,0,1-.075-.007,1.846,1.846,0,0,0-.25-.018h-.031l-.03-.007C9.939,80.7,9.58,80.7,9.2,80.7H7.759a9.067,9.067,0,0,0,2.81,2.846l.234.165-.2.21a4.2,4.2,0,0,0-.834,1.291l-.142.283-.243-.2a11.672,11.672,0,0,1-2.75-3.157,10.2,10.2,0,0,1-4.6,5.624l-.235.154-.126-.251a3.667,3.667,0,0,0-.96-1.144l-.285-.234.323-.178a8.643,8.643,0,0,0,3.118-2.6,6.98,6.98,0,0,0,1.31-2.8H3.525a11.827,11.827,0,0,0-2.012.122l-.288.044V78.7l.291.049a10.969,10.969,0,0,0,1.984.122H5.528c.055-.478.111-1.028.138-1.675H4.225a11.3,11.3,0,0,0-1.986.122l-.289.046V75.22l.3.06A9.826,9.826,0,0,0,4.2,75.4H5.724a8.334,8.334,0,0,0-.1-1.407Zm1.6.5H6.165a12.338,12.338,0,0,1,.06,1.45v.25H4.2a12.968,12.968,0,0,1-1.75-.079v.965A13.12,13.12,0,0,1,4.225,76.7H6.182l-.008.257c-.026.886-.1,1.6-.177,2.2l-.026.22H3.5a12.847,12.847,0,0,1-1.775-.084v1a13.3,13.3,0,0,1,1.8-.087h2.29l-.071.307A7.768,7.768,0,0,1,4.275,83.8,8.781,8.781,0,0,1,1.3,86.37a4.175,4.175,0,0,1,.682.822,9.684,9.684,0,0,0,4.35-5.741l.171-.56.286.511a11.035,11.035,0,0,0,2.677,3.3,4.264,4.264,0,0,1,.581-.914,9.254,9.254,0,0,1-2.945-3.219L6.9,80.2H9.2a6.923,6.923,0,0,1,.9.025,2.357,2.357,0,0,1,.289.022l.019,0a3.087,3.087,0,0,1,.565.034v-.994a12.931,12.931,0,0,1-1.775.086H6.809l.044-.287a18.323,18.323,0,0,0,.2-2.151l.012-.237H9.111l1.17.05a3.746,3.746,0,0,1,.595.026v-.957a12.76,12.76,0,0,1-1.75.081H7.092l.015-.484C7.123,74.893,7.13,74.645,7.173,74.2Zm154.6,1.584,1.83,1-.214.235a5.59,5.59,0,0,0-1.81,3.507,1.982,1.982,0,0,0,1.065,1.852,7.279,7.279,0,0,0,3.485.648,16.308,16.308,0,0,0,5.656-.857l.3-.122.326,2.508-.263.02a4.158,4.158,0,0,0-.456.059c-.1.016-.218.037-.4.063a26.075,26.075,0,0,1-5.168.5c-2.914,0-4.795-.633-5.918-1.991a3.777,3.777,0,0,1-.807-2.459c0-1.6.648-3,2.237-4.814Zm1.036,1.134-.922-.5c-1.406,1.644-1.982,2.91-1.982,4.334a3.294,3.294,0,0,0,.7,2.144c1.018,1.231,2.776,1.806,5.53,1.806a25.583,25.583,0,0,0,5.076-.5l.012,0c.177-.026.3-.047.393-.063s.161-.027.238-.037l-.176-1.356a17.406,17.406,0,0,1-5.543.778,7.626,7.626,0,0,1-3.734-.714,2.476,2.476,0,0,1-1.316-2.286A5.749,5.749,0,0,1,162.8,76.919ZM56.33,78.052l1.706,1.378-.084.178A45.594,45.594,0,0,1,53.9,86.7l0,.007a6.835,6.835,0,0,0-.453.648l-.084.134-.164.258L51.309,85.92l.247-.174A7.774,7.774,0,0,0,53.1,83.979a31.391,31.391,0,0,0,3.1-5.631Zm1.085,1.519-.895-.723A31.068,31.068,0,0,1,53.5,84.27a10.053,10.053,0,0,1-1.424,1.7l1.023.988c.088-.138.188-.282.4-.556A44.681,44.681,0,0,0,57.415,79.571ZM19.58,80.791l.1.2a17.979,17.979,0,0,1,1.163,2.982l.069.219-1.578.646-.072-.277A13.969,13.969,0,0,0,18.2,81.556L18.08,81.3Zm.712,3.114a16.326,16.326,0,0,0-.972-2.5l-.551.188a13.458,13.458,0,0,1,.9,2.564Zm-8.763-2.937,1.727.587-.034.209a15.81,15.81,0,0,1-1.853,5.581l-.125.223L9.525,86.559l.14-.219a12.44,12.44,0,0,0,1.814-5.083Zm1.164.924-.773-.263a12.671,12.671,0,0,1-1.7,4.76l.831.489A15,15,0,0,0,12.693,81.893Zm2.462-.651.041.24a28.371,28.371,0,0,1,.428,4.709l.007.2-1.832.449v-.319c0-.182.009-.347.016-.479,0-.089.009-.165.009-.221a21.348,21.348,0,0,0-.321-4.079l-.048-.256Zm-.037,4.763a26.936,26.936,0,0,0-.374-4.2l-.7.1a22.419,22.419,0,0,1,.283,3.915c0,.069,0,.152-.01.248,0,.042,0,.086-.007.131ZM261.05,83.4h2.925v2.85H261.05Zm2.425.5H261.55v1.85h1.925Z" transform="matrix(0.978, -0.208, 0.208, 0.978, 1090.562, 1662.401)" fill="#fff"/><path d="M0,115.329H-.006A1,1,0,0,1-1,114.324,114.471,114.471,0,0,1,1.432,94.579a164.109,164.109,0,0,1,16.481-45.7C27.551,31.03,35.407,18.532,40.3,11.19,45.615,3.215,48.6-.478,48.728-.631a1,1,0,0,1,1.407-.145A1,1,0,0,1,50.279.631c-.036.044-3.077,3.8-8.342,11.708-4.864,7.3-12.676,19.733-22.265,37.489A162.114,162.114,0,0,0,3.4,94.91,115.034,115.034,0,0,0,1,114.335,1,1,0,0,1,0,115.329Z" transform="translate(1377.005 1565.49) rotate(-8)" fill="#fff"/><path d="M0,81.117H0a1,1,0,0,1-1-1A95.17,95.17,0,0,1,.433,66.249a131.9,131.9,0,0,1,3.312-14.63,127.667,127.667,0,0,1,6.4-17.447c5.674-12.515,10.3-21.28,13.181-26.43,3.133-5.6,4.9-8.2,4.972-8.306a1,1,0,0,1,1.39-.262A1,1,0,0,1,29.95.564h0c-.018.026-1.8,2.658-4.9,8.2C22.191,13.869,17.6,22.57,11.967,35a125.653,125.653,0,0,0-6.29,17.141,129.9,129.9,0,0,0-3.263,14.39A95.324,95.324,0,0,0,1,80.122,1,1,0,0,1,0,81.117Z" transform="translate(1411.765 1589.795) rotate(6)" fill="#fff"/><path d="M49.5,115.33a1,1,0,0,1-1-.994A115.03,115.03,0,0,0,46.1,94.91a160.709,160.709,0,0,0-5.554-20.57A162.26,162.26,0,0,0,29.832,49.828C20.242,32.072,12.431,19.64,7.566,12.339,2.3,4.428-.746.668-.776.631A1,1,0,0,1-.631-.776,1,1,0,0,1,.776-.631C.9-.478,3.889,3.215,9.2,11.19,14.1,18.532,21.953,31.03,31.591,48.878A164.267,164.267,0,0,1,42.451,73.731a162.69,162.69,0,0,1,5.621,20.848A114.469,114.469,0,0,1,50.5,114.324a1,1,0,0,1-.994,1.006Z" transform="matrix(0.921, -0.391, 0.391, 0.921, 1011.969, 1659.312)" fill="#fff"/><path d="M29.125,81.117a1,1,0,0,1-.827-.436c-.074-.108-1.839-2.706-4.972-8.306-2.881-5.149-7.507-13.915-13.181-26.43A127.666,127.666,0,0,1,3.745,28.5,131.9,131.9,0,0,1,.433,13.869,95.172,95.172,0,0,1-1,0,1,1,0,0,1,0-1,1,1,0,0,1,1,0,95.329,95.329,0,0,0,2.414,13.589a129.906,129.906,0,0,0,3.263,14.39,125.654,125.654,0,0,0,6.29,17.141c10.8,23.811,17.913,34.33,17.983,34.434a1,1,0,0,1-.825,1.564Z" transform="translate(1088.476 1742.691) rotate(143)" fill="#fff"/></g></svg>