<svg xmlns="http://www.w3.org/2000/svg" width="170.285" height="91.323" viewBox="0 0 170.285 91.323"><g transform="translate(-26.163 -2127.561)"><path d="M4.018-10.038a2.961,2.961,0,0,1,.462.154,11.918,11.918,0,0,0,3.612.9,4.05,4.05,0,0,0-.9.518A2.838,2.838,0,0,0,5.81-6.328a2.431,2.431,0,0,0,.8,1.694A8.992,8.992,0,0,1,7.77-3.248,2.04,2.04,0,0,1,8.2-2.072,1.423,1.423,0,0,1,6.664-.728a3.462,3.462,0,0,1-2.408-1.2,3.892,3.892,0,0,1-.294.994A4.1,4.1,0,0,0,6.748.238,2.322,2.322,0,0,0,9.254-2.03,3.674,3.674,0,0,0,7.966-4.536,6.6,6.6,0,0,1,6.86-5.81a1.341,1.341,0,0,1-.154-.546c0-.644.588-1.33,1.68-1.974a3.022,3.022,0,0,1,1.05-.42l.014-.994a1.384,1.384,0,0,1-.21.014,14.207,14.207,0,0,1-3.234-.546,6.155,6.155,0,0,1-1.568-.672ZM2.87-5.446A11.019,11.019,0,0,1,.938-.952a2.976,2.976,0,0,1,.854.588c.084-.14.1-.154.154-.252.294-.448.294-.448.406-.644A15.871,15.871,0,0,0,3.64-4.508c.112-.378.126-.42.2-.63Zm7.14.28A12.554,12.554,0,0,1,12.334-.6l.91-.476a14.4,14.4,0,0,0-.938-2.254,13.561,13.561,0,0,0-1.442-2.24Zm5.614,3.052a11.935,11.935,0,0,1,1.26-1.33,3.939,3.939,0,0,0,.728-.77h.028c-.028.336-.028.448-.042,2.156a14.946,14.946,0,0,1-.07,2.646h1.106c-.07-.644-.084-1.344-.084-5.558,1.834-1.652,3.094-2.31,4.466-2.31A2.569,2.569,0,0,1,25.69-4.536a3.539,3.539,0,0,1-.392,1.68,3.117,3.117,0,0,1-2.8,1.582A6.131,6.131,0,0,1,20.02-1.82a3.441,3.441,0,0,1,.112.812,1.828,1.828,0,0,1-.014.238,7.062,7.062,0,0,0,2.38.42,3.979,3.979,0,0,0,4.228-4.214A3.54,3.54,0,0,0,22.96-8.2a5.451,5.451,0,0,0-3.542,1.386,7.668,7.668,0,0,0-.812.714l-.042.042h-.028c0-.028.028-.5.07-1.414a4.139,4.139,0,0,1,.742-.91l-.364-.462a.818.818,0,0,1-.322.084c.014-.322.014-.322.028-.8a8.775,8.775,0,0,1,.14-1.624H17.724a2.519,2.519,0,0,1,.042.546c0,.546-.014,1.078-.056,1.946-1.148.084-1.736.112-1.946.112-.112,0-.2,0-.392-.014l.07.966a12.228,12.228,0,0,1,1.54-.168c.518-.028.518-.028.714-.042-.042,1.19-.042,1.316-.07,2.478-.182.154-.182.154-.406.364-.476.434-.476.434-.952.882a10.36,10.36,0,0,1-1.2,1.036Zm16.394-7.924a2.961,2.961,0,0,1,.462.154,11.918,11.918,0,0,0,3.612.9,4.05,4.05,0,0,0-.9.518A2.838,2.838,0,0,0,33.81-6.328a2.431,2.431,0,0,0,.8,1.694A8.992,8.992,0,0,1,35.77-3.248,2.04,2.04,0,0,1,36.2-2.072a1.423,1.423,0,0,1-1.54,1.344,3.462,3.462,0,0,1-2.408-1.2,3.892,3.892,0,0,1-.294.994A4.1,4.1,0,0,0,34.748.238,2.322,2.322,0,0,0,37.254-2.03a3.674,3.674,0,0,0-1.288-2.506A6.6,6.6,0,0,1,34.86-5.81a1.341,1.341,0,0,1-.154-.546c0-.644.588-1.33,1.68-1.974a3.022,3.022,0,0,1,1.05-.42l.014-.994a1.384,1.384,0,0,1-.21.014,14.207,14.207,0,0,1-3.234-.546,6.155,6.155,0,0,1-1.568-.672ZM30.87-5.446A11.019,11.019,0,0,1,28.938-.952a2.976,2.976,0,0,1,.854.588c.084-.14.1-.154.154-.252.294-.448.294-.448.406-.644A15.871,15.871,0,0,0,31.64-4.508c.112-.378.126-.42.2-.63Zm7.14.28A12.554,12.554,0,0,1,40.334-.6l.91-.476a14.4,14.4,0,0,0-.938-2.254,13.56,13.56,0,0,0-1.442-2.24Zm5.614,3.052a11.935,11.935,0,0,1,1.26-1.33,3.939,3.939,0,0,0,.728-.77h.028c-.028.336-.028.448-.042,2.156a14.946,14.946,0,0,1-.07,2.646h1.106c-.07-.644-.084-1.344-.084-5.558,1.834-1.652,3.094-2.31,4.466-2.31A2.569,2.569,0,0,1,53.69-4.536a3.539,3.539,0,0,1-.392,1.68,3.117,3.117,0,0,1-2.8,1.582A6.131,6.131,0,0,1,48.02-1.82a3.441,3.441,0,0,1,.112.812,1.828,1.828,0,0,1-.014.238,7.062,7.062,0,0,0,2.38.42,3.979,3.979,0,0,0,4.228-4.214A3.54,3.54,0,0,0,50.96-8.2a5.451,5.451,0,0,0-3.542,1.386,7.668,7.668,0,0,0-.812.714l-.042.042h-.028c0-.028.028-.5.07-1.414a4.139,4.139,0,0,1,.742-.91l-.364-.462a.818.818,0,0,1-.322.084c.014-.322.014-.322.028-.8a8.775,8.775,0,0,1,.14-1.624H45.724a2.519,2.519,0,0,1,.042.546c0,.546-.014,1.078-.056,1.946-1.148.084-1.736.112-1.946.112-.112,0-.2,0-.392-.014l.07.966a12.228,12.228,0,0,1,1.54-.168c.518-.028.518-.028.714-.042-.042,1.19-.042,1.316-.07,2.478-.182.154-.182.154-.406.364-.476.434-.476.434-.952.882a10.36,10.36,0,0,1-1.2,1.036ZM60.34-10.99a4.684,4.684,0,0,1,.238.882A28.519,28.519,0,0,0,61.6-6.188a8.718,8.718,0,0,0-1.834,1.134,3.029,3.029,0,0,0-1.246,2.38,2.324,2.324,0,0,0,1.736,2.3A9.524,9.524,0,0,0,63.364,0a28.084,28.084,0,0,0,3.094-.182,7.256,7.256,0,0,1,1.036-.084l-.112-1.162a13.9,13.9,0,0,1-4,.476c-2.744,0-3.822-.49-3.822-1.764,0-1.162,1.036-2.086,3.43-3.038A32.2,32.2,0,0,1,67.2-7.112l-.42-1.064a7.571,7.571,0,0,1-.9.364c-2.17.756-2.562.91-3.388,1.246a24.35,24.35,0,0,1-1.05-4.634ZM72.87-9.3a5.664,5.664,0,0,1,1.008-.07c1.568-.042,3.388-.154,3.99-.252a.709.709,0,0,1,.182-.028l.028.014-.112.112a1.262,1.262,0,0,0-.126.14c-1.288,1.344-3.192,3.15-4.648,4.424a13.293,13.293,0,0,1-1.82,1.386l.7.868a7.062,7.062,0,0,1,1.092-.882,8.308,8.308,0,0,1,4.494-1.54c1.722,0,2.786.742,2.786,1.96,0,1.442-1.484,2.436-3.654,2.436A7.907,7.907,0,0,1,73.22-1.6a5.326,5.326,0,0,1,.1.882,1.8,1.8,0,0,1-.014.252A9.745,9.745,0,0,0,76.678.2,7.152,7.152,0,0,0,79.66-.392a3.121,3.121,0,0,0,1.82-2.772c0-1.708-1.414-2.786-3.64-2.786a6.262,6.262,0,0,0-3.556,1.106l-.042-.042a25.4,25.4,0,0,0,3.822-3.43,11.264,11.264,0,0,1,1.512-1.442l-.588-.812a1.669,1.669,0,0,1-.574.126c-.966.1-2.744.182-4.046.182a8.39,8.39,0,0,1-1.554-.084Zm15.946,2.31A1.384,1.384,0,0,1,89.026-7a2.013,2.013,0,0,1,.252.014c.5.028,1.3.056,1.694.056.616,0,1.428-.028,2.044-.084.028.406.028.714.028,1.106,0,2.24-.224,3.262-.938,4.172a5.74,5.74,0,0,1-2.142,1.61A3.23,3.23,0,0,1,90.72.63a6.767,6.767,0,0,0,2.2-1.806C93.744-2.3,94-3.444,94-6.1c0-.406,0-.63-.014-1.008a13.353,13.353,0,0,0,1.526-.28,7.078,7.078,0,0,1,.742-.168l-.07-1.008a7.389,7.389,0,0,1-2.226.588c-.07-1.946-.07-1.946-.084-2.268-.014-.252-.014-.322-.014-.42a3.29,3.29,0,0,1,.042-.476l-1.078.014a27,27,0,0,1,.168,3.262c-.7.056-1.218.084-1.778.084a11.331,11.331,0,0,1-2.38-.182ZM86.3-10.962A7.113,7.113,0,0,1,86.17-10a28.772,28.772,0,0,0-.56,5.39,15.93,15.93,0,0,0,.518,4.144,3.723,3.723,0,0,1,.112.49l.966-.084A5.465,5.465,0,0,1,87.6-1.834a26.556,26.556,0,0,1,1.036-2.45L87.92-4.62a15.3,15.3,0,0,0-1.176,2.968,4.874,4.874,0,0,0-.084-.756c-.056-.476-.112-1.512-.112-2.282a24.209,24.209,0,0,1,.854-6.1ZM100.534-9.38a6.9,6.9,0,0,1,.756-.07c2.128-.07,3.808-.168,4.256-.252a.542.542,0,0,1,.126-.014l.028.028-.056.056-.056.056-.2.2c-.966.952-3.178,2.9-4.676,4.088a15.6,15.6,0,0,1-1.96,1.428l.63.9a8.984,8.984,0,0,1,5.894-2.394c1.89,0,3.01.8,3.01,2.142,0,1.19-.77,2.044-2.24,2.45a4.008,4.008,0,0,0-.644-1.344,2.82,2.82,0,0,0-2.31-1.148,1.819,1.819,0,0,0-2.03,1.638c0,1.288,1.134,2.016,3.108,2.016,3.108,0,5.138-1.442,5.138-3.626,0-1.792-1.5-2.94-3.836-2.94a7.094,7.094,0,0,0-3.43.868l-.028-.042a35.924,35.924,0,0,0,4.606-3.976,2.584,2.584,0,0,1,.714-.588l-.588-.77a1.432,1.432,0,0,1-.672.154c-1.26.1-3.122.182-4.284.182a6.465,6.465,0,0,1-1.316-.084Zm4.592,8.862a5.041,5.041,0,0,1-1.022.1,3.577,3.577,0,0,1-1.568-.322.955.955,0,0,1-.56-.854c0-.532.434-.868,1.134-.868C104.118-2.464,104.818-1.792,105.126-.518Zm7.448-4.214a4.935,4.935,0,0,1,1.176-.98,2.869,2.869,0,0,1,1.442-.364,3.806,3.806,0,0,1,2.52,1.064,6.974,6.974,0,0,0,1.946,1.134,4.417,4.417,0,0,0,1.33.224,3.782,3.782,0,0,0,1.848-.476,5.725,5.725,0,0,0,1.61-1.442l-.728-.63a3.733,3.733,0,0,1-1.6,1.358,2.723,2.723,0,0,1-1.12.238,4.55,4.55,0,0,1-2.688-1.148A8.6,8.6,0,0,0,117-6.594,3.782,3.782,0,0,0,115.248-7a4.44,4.44,0,0,0-3.374,1.652Z" transform="matrix(0.978, -0.208, 0.208, 0.978, 48.354, 2180.491)" fill="#fff"/><path d="M61.679-11.5l.017.284A23.773,23.773,0,0,0,62.65-6.9c.693-.28,1.214-.475,3.149-1.149l.151-.056a5.974,5.974,0,0,0,.718-.3l.244-.122.629,1.592-.288.062a31.973,31.973,0,0,0-4.172,1.345c-2.265.9-3.275,1.766-3.275,2.807a1.129,1.129,0,0,0,.736,1.133,7.253,7.253,0,0,0,2.836.381,13.712,13.712,0,0,0,3.92-.462l.3-.107.169,1.755h-.275a7.129,7.129,0,0,0-1.009.083A28.274,28.274,0,0,1,63.364.25a9.736,9.736,0,0,1-3.2-.394,2.582,2.582,0,0,1-1.9-2.53,3.292,3.292,0,0,1,1.338-2.574,8.387,8.387,0,0,1,1.686-1.066,29.219,29.219,0,0,1-.961-3.745,4.494,4.494,0,0,0-.223-.832L60-11.18Zm.666,5.264-.085-.251A26.566,26.566,0,0,1,61.222-10.9l-.551.1c.038.128.079.3.151.638a28.325,28.325,0,0,0,1.014,3.892l.071.207-.2.1a8.485,8.485,0,0,0-1.788,1.1A2.774,2.774,0,0,0,58.77-2.674,2.071,2.071,0,0,0,60.342-.613a9.29,9.29,0,0,0,3.022.363,27.845,27.845,0,0,0,3.07-.181c.458-.05.647-.071.785-.079L67.163-1.1a15.563,15.563,0,0,1-3.785.4,7.663,7.663,0,0,1-3.044-.427,1.615,1.615,0,0,1-1.028-1.587,2.334,2.334,0,0,1,.9-1.785,9.247,9.247,0,0,1,2.686-1.486,34.456,34.456,0,0,1,3.967-1.3l-.216-.546c-.141.061-.283.114-.521.2l-.158.058c-2.148.748-2.545.9-3.376,1.241Zm-44.919-5.2h1.711l-.062.3a8.645,8.645,0,0,0-.135,1.584c-.007.235-.01.354-.014.453l.128-.064.638.81-.182.156a3.707,3.707,0,0,0-.658.807q-.021.446-.036.744c.124-.107.272-.229.446-.368a5.715,5.715,0,0,1,3.7-1.441,3.783,3.783,0,0,1,4.016,3.89A4.233,4.233,0,0,1,22.5-.1a7.288,7.288,0,0,1-2.46-.433L19.845-.6l.025-.2a1.581,1.581,0,0,0,.012-.207,3.2,3.2,0,0,0-.106-.76l-.1-.481.45.2a5.887,5.887,0,0,0,2.376.524,2.865,2.865,0,0,0,2.579-1.449,3.3,3.3,0,0,0,.363-1.563A2.329,2.329,0,0,0,23.016-7.03c-1.279,0-2.467.61-4.216,2.172,0,4.23.016,4.809.083,5.419l.03.277H17.234l.047-.29a14.939,14.939,0,0,0,.067-2.606v-.176c.005-.653.009-1.052.013-1.32-.085.082-.185.177-.306.291A11.741,11.741,0,0,0,15.828-1.97l-.225.319-.872-1.5.191-.131A9.953,9.953,0,0,0,16.1-4.3c.477-.449.477-.449.955-.884.183-.172.219-.205.327-.3l.01-.414c.015-.636.022-.914.048-1.679L17-7.549a12.177,12.177,0,0,0-1.507.164l-.278.056L15.1-8.866l.288.021c.187.013.266.013.374.013.09,0,.471-.007,1.707-.1.032-.707.045-1.2.045-1.713a2.293,2.293,0,0,0-.038-.5Zm1.1.5h-.522c.007.1.007.182.007.3,0,.572-.016,1.121-.056,1.958l-.011.221-.221.016c-.979.072-1.694.113-1.964.113h-.122l.03.409c.279-.042.617-.071,1.291-.123h.006c.516-.028.516-.028.71-.042l.277-.02-.01.278c-.035.98-.041,1.244-.057,1.949l-.015.638-.086.073c-.177.15-.177.15-.4.356-.477.435-.477.435-.952.882-.515.483-.8.739-1.046.924l.265.457c.273-.312.687-.736,1.056-1.075A3.926,3.926,0,0,0,17.4-4.34l.072-.124h.443l-.023.271c-.026.315-.027.439-.04,1.964v.174c0,1.686,0,2.1-.032,2.394h.543c-.051-.66-.06-1.72-.06-5.308v-.111l.083-.074c1.9-1.709,3.2-2.374,4.633-2.374a2.87,2.87,0,0,1,2.115.833,3.017,3.017,0,0,1,.809,2.161,3.783,3.783,0,0,1-.42,1.794A3.364,3.364,0,0,1,22.5-1.024a6.294,6.294,0,0,1-2.146-.392,2.6,2.6,0,0,1,.03.408c0,.015,0,.036,0,.061A6.664,6.664,0,0,0,22.5-.6a3.721,3.721,0,0,0,3.978-3.964A3.307,3.307,0,0,0,25.5-7.008a3.565,3.565,0,0,0-2.544-.946,5.183,5.183,0,0,0-3.387,1.332,7.6,7.6,0,0,0-.782.686l-.008.009-.115.115h-.382v-.25c0-.015,0-.038.009-.19.012-.22.033-.63.061-1.236l0-.076.045-.061c.368-.5.5-.673.6-.789L18.9-8.551c-.043.01-.09.017-.151.026l-.35.054.013-.3c.014-.32.014-.32.028-.794C18.472-10.335,18.488-10.65,18.531-10.936Zm26.9-.5h1.711l-.062.3a8.645,8.645,0,0,0-.135,1.584c-.007.235-.01.354-.014.453l.128-.064.638.81-.182.156a3.707,3.707,0,0,0-.658.807q-.021.446-.036.744c.124-.107.272-.229.446-.368a5.715,5.715,0,0,1,3.7-1.441,3.783,3.783,0,0,1,4.016,3.89A4.233,4.233,0,0,1,50.5-.1a7.288,7.288,0,0,1-2.46-.433L47.845-.6l.025-.2a1.581,1.581,0,0,0,.012-.207,3.2,3.2,0,0,0-.106-.76l-.1-.481.45.2a5.887,5.887,0,0,0,2.376.524,2.865,2.865,0,0,0,2.579-1.449,3.3,3.3,0,0,0,.363-1.563A2.329,2.329,0,0,0,51.016-7.03c-1.279,0-2.467.61-4.216,2.172,0,4.23.016,4.809.083,5.419l.03.277H45.234l.047-.29a14.939,14.939,0,0,0,.067-2.606v-.176c.005-.653.009-1.052.013-1.32-.085.082-.185.177-.306.291A11.742,11.742,0,0,0,43.828-1.97l-.225.319-.872-1.5.191-.131A9.953,9.953,0,0,0,44.1-4.3c.477-.449.477-.449.955-.884.183-.172.219-.205.327-.3l.01-.414c.015-.636.022-.914.048-1.678L45-7.549a12.176,12.176,0,0,0-1.507.164l-.278.056L43.1-8.866l.288.021c.187.013.266.013.374.013.09,0,.471-.007,1.707-.1.032-.707.045-1.2.045-1.713a2.293,2.293,0,0,0-.038-.5Zm1.1.5h-.522c.007.1.007.182.007.3,0,.572-.016,1.121-.056,1.958l-.011.221-.221.016c-.979.072-1.694.113-1.964.113h-.122l.03.409c.279-.042.617-.071,1.291-.123h.006c.516-.028.516-.028.71-.042l.277-.02-.01.278c-.035.98-.041,1.244-.057,1.948l-.015.639-.086.073c-.177.15-.177.15-.4.356-.477.435-.477.435-.952.882-.515.483-.8.739-1.046.924l.265.457c.273-.312.687-.736,1.056-1.075A3.926,3.926,0,0,0,45.4-4.34l.072-.124h.443l-.023.271c-.026.315-.027.439-.04,1.964v.174c0,1.686,0,2.1-.032,2.394h.543c-.051-.66-.06-1.72-.06-5.308v-.111l.083-.074c1.9-1.709,3.2-2.374,4.633-2.374a2.87,2.87,0,0,1,2.115.833,3.017,3.017,0,0,1,.809,2.161,3.783,3.783,0,0,1-.42,1.794A3.364,3.364,0,0,1,50.5-1.024a6.294,6.294,0,0,1-2.146-.392,2.6,2.6,0,0,1,.03.408c0,.015,0,.036,0,.061A6.664,6.664,0,0,0,50.5-.6a3.721,3.721,0,0,0,3.978-3.964A3.307,3.307,0,0,0,53.5-7.008a3.565,3.565,0,0,0-2.544-.946,5.183,5.183,0,0,0-3.387,1.332,7.6,7.6,0,0,0-.782.686l-.008.009-.115.115h-.382v-.25c0-.015,0-.038.009-.19.012-.22.033-.63.061-1.236l0-.076.045-.061c.368-.5.5-.673.6-.789L46.9-8.551c-.043.01-.09.017-.151.026l-.35.054.013-.3c.014-.32.014-.32.028-.794C46.472-10.335,46.488-10.65,46.531-10.936ZM94.182-11.4l-.046.368a2.458,2.458,0,0,0-.029.361c0,.1,0,.161.014.406.013.309.014.325.074,1.992a6.624,6.624,0,0,0,1.877-.523l.333-.162.111,1.6-.326.062c-.2.037-.263.049-.616.144l-.007,0c-.5.118-.89.194-1.326.255.007.26.007.468.007.79,0,2.719-.263,3.905-1.127,5.076A6.977,6.977,0,0,1,90.846.846l-.19.111L90.522.782a3.006,3.006,0,0,0-.71-.71l-.32-.246.364-.177A5.528,5.528,0,0,0,91.909-1.89c.67-.854.885-1.83.885-4.018,0-.3,0-.552-.013-.836-.54.04-1.22.064-1.809.064-.415,0-1.218-.029-1.708-.056H89.25a1.768,1.768,0,0,0-.224-.012,1.141,1.141,0,0,0-.175.011l-.29.041.023-1.584.3.072a11.115,11.115,0,0,0,2.322.175c.46,0,.9-.019,1.521-.065a25.1,25.1,0,0,0-.158-2.99l-.048-.287Zm-.467,3.705-.01-.278c-.07-1.945-.07-1.945-.084-2.266-.014-.256-.014-.329-.014-.431,0-.086,0-.153.01-.222l-.509.007c.047.416.076,1.084.131,3.009l.007.237-.237.019c-.763.061-1.267.085-1.8.085a13.652,13.652,0,0,1-2.134-.128l-.006.413a2.268,2.268,0,0,1,.229.015c.474.026,1.275.055,1.673.055.673,0,1.467-.033,2.021-.083l.254-.023.018.255c.029.415.029.727.029,1.123,0,2.319-.241,3.37-.991,4.326a5.643,5.643,0,0,1-1.882,1.5,2.931,2.931,0,0,1,.36.381,6.228,6.228,0,0,0,1.937-1.63c.787-1.067,1.028-2.184,1.028-4.777,0-.4,0-.625-.014-1l-.008-.229.227-.028a13.07,13.07,0,0,0,1.5-.274c.294-.078.4-.1.538-.13l-.03-.433a8.846,8.846,0,0,1-1.965.464ZM32.339-11.329l.246.179a5.852,5.852,0,0,0,1.5.636,14.05,14.05,0,0,0,3.158.534,1.141,1.141,0,0,0,.175-.011l.289-.041-.021,1.5-.206.034a2.771,2.771,0,0,0-.966.39c-1,.592-1.555,1.216-1.555,1.757a1.116,1.116,0,0,0,.121.422,6.613,6.613,0,0,0,1.071,1.226A3.908,3.908,0,0,1,37.5-2.03a2.41,2.41,0,0,1-.789,1.807,2.9,2.9,0,0,1-1.967.711A4.371,4.371,0,0,1,31.8-.748l-.141-.12.074-.17a3.644,3.644,0,0,0,.278-.945l.093-.455.328.328A3.207,3.207,0,0,0,34.664-.978a1.177,1.177,0,0,0,1.29-1.094A1.8,1.8,0,0,0,35.568-3.1l-.007-.01a8.875,8.875,0,0,0-1.138-1.355,2.651,2.651,0,0,1-.863-1.862A3.071,3.071,0,0,1,35.046-8.67l0,0c.078-.057.152-.108.222-.155a13.5,13.5,0,0,1-2.884-.824l-.11-.042a1.927,1.927,0,0,0-.316-.1l-.3-.069ZM37.2-9.48a14.616,14.616,0,0,1-3.265-.557,8.215,8.215,0,0,1-1.385-.549l-.181.392.09.034.112.042a11.717,11.717,0,0,0,3.54.881l.079.481a3.8,3.8,0,0,0-.842.488A2.618,2.618,0,0,0,34.06-6.328,2.183,2.183,0,0,0,34.793-4.8,9.159,9.159,0,0,1,35.976-3.39a2.288,2.288,0,0,1,.478,1.318,1.663,1.663,0,0,1-1.79,1.594,3.464,3.464,0,0,1-2.258-.972,3.027,3.027,0,0,1-.141.439,3.749,3.749,0,0,0,2.484,1A2.076,2.076,0,0,0,37-2.03a3.474,3.474,0,0,0-1.22-2.335,6.673,6.673,0,0,1-1.138-1.317l-.005-.009a1.6,1.6,0,0,1-.185-.666c0-.737.623-1.494,1.8-2.189l0,0a3.7,3.7,0,0,1,.925-.406ZM4.339-11.329l.246.179a5.852,5.852,0,0,0,1.5.636A14.051,14.051,0,0,0,9.24-9.98a1.141,1.141,0,0,0,.175-.011l.289-.041-.021,1.5L9.477-8.5a2.771,2.771,0,0,0-.966.39c-1,.592-1.555,1.216-1.555,1.757a1.116,1.116,0,0,0,.121.422A6.612,6.612,0,0,0,8.148-4.708,3.908,3.908,0,0,1,9.5-2.03,2.41,2.41,0,0,1,8.715-.223,2.9,2.9,0,0,1,6.748.488,4.371,4.371,0,0,1,3.8-.748l-.141-.12.074-.17a3.644,3.644,0,0,0,.278-.945L4.1-2.437l.328.328A3.207,3.207,0,0,0,6.664-.978a1.177,1.177,0,0,0,1.29-1.094A1.8,1.8,0,0,0,7.568-3.1l-.007-.01A8.875,8.875,0,0,0,6.423-4.466,2.652,2.652,0,0,1,5.56-6.328,3.071,3.071,0,0,1,7.045-8.67l0,0c.079-.057.152-.108.222-.155a13.5,13.5,0,0,1-2.884-.824l-.11-.042a1.927,1.927,0,0,0-.316-.1l-.3-.069ZM9.2-9.48a14.616,14.616,0,0,1-3.265-.557,8.214,8.214,0,0,1-1.385-.549l-.181.392.09.034.112.042a11.718,11.718,0,0,0,3.54.881l.079.481a3.8,3.8,0,0,0-.842.488A2.619,2.619,0,0,0,6.06-6.328,2.183,2.183,0,0,0,6.793-4.8,9.159,9.159,0,0,1,7.976-3.39a2.288,2.288,0,0,1,.478,1.318A1.663,1.663,0,0,1,6.664-.478,3.464,3.464,0,0,1,4.406-1.45a3.025,3.025,0,0,1-.141.439,3.749,3.749,0,0,0,2.484,1A2.076,2.076,0,0,0,9-2.03a3.474,3.474,0,0,0-1.22-2.335A6.673,6.673,0,0,1,6.646-5.681L6.641-5.69a1.6,1.6,0,0,1-.185-.666c0-.737.623-1.494,1.8-2.189l0,0a3.7,3.7,0,0,1,.925-.406Zm76.865-1.77L87.734-11l-.1.282A24.172,24.172,0,0,0,86.8-4.69c0,.593.032,1.315.071,1.829.165-.431.4-.938.824-1.864l.106-.228,1.172.551-.112.228a26.148,26.148,0,0,0-1.025,2.423,5.233,5.233,0,0,0-.378,1.695V.173L86.028.3,85.993.066a2.787,2.787,0,0,0-.083-.374L85.886-.4a16.165,16.165,0,0,1-.526-4.208,28.741,28.741,0,0,1,.563-5.431,6.921,6.921,0,0,0,.123-.939Zm1.015.66-.552-.084c-.016.158-.046.352-.108.72a28.338,28.338,0,0,0-.556,5.348,15.674,15.674,0,0,0,.51,4.08l.024.091c.022.082.037.141.05.2l.52-.045a6.551,6.551,0,0,1,.4-1.628l0-.007c.308-.831.622-1.585.935-2.245l-.258-.121a14.008,14.008,0,0,0-1.057,2.7l-.491-.068a4.66,4.66,0,0,0-.08-.711l0-.016c-.055-.467-.114-1.507-.114-2.311A25.438,25.438,0,0,1,87.077-10.591ZM106.819-11l.9,1.18-.27.135c-.157.079-.2.107-.652.544-1.2,1.179-2.342,2.211-3.269,2.974a7.385,7.385,0,0,1,1.947-.253c2.482,0,4.086,1.252,4.086,3.19A3.367,3.367,0,0,1,108.053-.4a6.7,6.7,0,0,1-3.879,1.04,4.474,4.474,0,0,1-2.43-.565,1.944,1.944,0,0,1-.928-1.7,2.065,2.065,0,0,1,2.28-1.888,3.077,3.077,0,0,1,2.51,1.247,3.86,3.86,0,0,1,.606,1.185,2.283,2.283,0,0,0,1.829-2.14c0-1.2-1.006-1.892-2.76-1.892a8.71,8.71,0,0,0-5.724,2.328l-.21.194-.951-1.352.235-.137a15.473,15.473,0,0,0,1.929-1.406c1.464-1.163,3.489-2.946,4.486-3.9-.757.067-2.1.137-3.746.191a6.632,6.632,0,0,0-.73.068L100.3-9.1l-.087-1.636.31.055a6.176,6.176,0,0,0,1.272.08c1.1,0,2.936-.078,4.265-.181a1.2,1.2,0,0,0,.573-.125Zm.152,1.023-.3-.393a2.2,2.2,0,0,1-.574.094c-1.339.1-3.189.183-4.3.183a8.553,8.553,0,0,1-1.05-.041l.025.475c.158-.018.295-.028.509-.038,2.137-.07,3.793-.168,4.221-.248h0a.775.775,0,0,1,.167-.017h.1l.278.278-.485.485c-.928.915-3.133,2.865-4.7,4.107a18.383,18.383,0,0,1-1.757,1.307l.314.447a9.2,9.2,0,0,1,5.851-2.27A4.076,4.076,0,0,1,107.639-5a2.1,2.1,0,0,1,.9,1.779c0,1.3-.861,2.259-2.423,2.691l-.232.064-.073-.229a3.778,3.778,0,0,0-.606-1.27,2.554,2.554,0,0,0-2.11-1.048c-1.015,0-1.78.6-1.78,1.388,0,1.537,1.791,1.766,2.858,1.766a6.216,6.216,0,0,0,3.59-.948,2.886,2.886,0,0,0,1.3-2.428,2.362,2.362,0,0,0-.943-1.944,4.319,4.319,0,0,0-2.643-.746,6.809,6.809,0,0,0-3.311.838l-.2.108-.3-.443.214-.137A36,36,0,0,0,106.449-9.5,6.539,6.539,0,0,1,106.971-9.98Zm-27.9-.9.856,1.183-.216.144a11.506,11.506,0,0,0-1.474,1.411c-1.04,1.047-1.719,1.713-2.288,2.221A5.793,5.793,0,0,1,77.84-6.2c2.363,0,3.89,1.192,3.89,3.036a3.363,3.363,0,0,1-1.957,3,7.431,7.431,0,0,1-3.095.615A10.056,10.056,0,0,1,73.22-.226l-.189-.067.025-.2a1.549,1.549,0,0,0,.012-.221,5.1,5.1,0,0,0-.095-.842l-.081-.5.447.242a7.686,7.686,0,0,0,3.451.838,4.579,4.579,0,0,0,2.5-.635,1.834,1.834,0,0,0,.9-1.551c0-1.071-.948-1.71-2.536-1.71a8.089,8.089,0,0,0-4.352,1.5,6.839,6.839,0,0,0-1.057.853l-.2.2L71-3.638l.248-.147A13.2,13.2,0,0,0,73.03-5.146c1.392-1.218,3.158-2.892,4.4-4.166-.818.081-2.24.162-3.543.2h-.007a5.529,5.529,0,0,0-.959.065l-.283.057-.088-1.648.306.049a8.18,8.18,0,0,0,1.514.081c1.256,0,3.022-.079,4.021-.181a1.437,1.437,0,0,0,.5-.108Zm.154,1.066-.333-.46a2.374,2.374,0,0,1-.458.076c-1.012.1-2.8.183-4.07.183a11.109,11.109,0,0,1-1.288-.044l.025.474c.214-.022.478-.034.77-.034,1.592-.043,3.354-.153,3.943-.247A.917.917,0,0,1,78.05-9.9h.059l.391.2-.357.357a1.031,1.031,0,0,0-.108.119l-.015.017c-1.252,1.307-3.17,3.132-4.664,4.439a16.105,16.105,0,0,1-1.613,1.261l.352.436a7.776,7.776,0,0,1,.928-.72,8.6,8.6,0,0,1,4.634-1.583c1.873,0,3.036.847,3.036,2.21A2.342,2.342,0,0,1,79.57-1.2a5,5,0,0,1-2.78.719,8.273,8.273,0,0,1-3.252-.684,3.478,3.478,0,0,1,.03.448c0,.025,0,.051,0,.079a9.233,9.233,0,0,0,3.111.581A6.915,6.915,0,0,0,79.55-.616a2.871,2.871,0,0,0,1.68-2.548c0-1.564-1.3-2.536-3.39-2.536a6.006,6.006,0,0,0-3.429,1.071l-.167.1-.389-.389L74.1-5.09a25.209,25.209,0,0,0,3.788-3.4C78.771-9.377,79.063-9.669,79.229-9.811ZM115.248-7.25a4.014,4.014,0,0,1,1.862.432,8.887,8.887,0,0,1,1.349.86A4.325,4.325,0,0,0,121-4.856a2.488,2.488,0,0,0,1.016-.215l.008,0a3.508,3.508,0,0,0,1.5-1.281l.162-.207L124.8-5.6l-.162.189a5.927,5.927,0,0,1-1.675,1.5,4.049,4.049,0,0,1-1.973.509,4.663,4.663,0,0,1-1.407-.236l-.007,0a7.21,7.21,0,0,1-2.01-1.168,3.574,3.574,0,0,0-2.371-1.015,2.623,2.623,0,0,0-1.322.333,4.719,4.719,0,0,0-1.117.935l-.166.17-1.081-.951.193-.188A4.676,4.676,0,0,1,115.248-7.25ZM121-4.356a4.79,4.79,0,0,1-2.833-1.195,8.367,8.367,0,0,0-1.282-.82,3.532,3.532,0,0,0-1.638-.38,4.006,4.006,0,0,0-3,1.394l.318.28a4.6,4.6,0,0,1,1.064-.853,3.1,3.1,0,0,1,1.566-.4,4.017,4.017,0,0,1,2.67,1.114,6.806,6.806,0,0,0,1.877,1.1,4.156,4.156,0,0,0,1.25.211,3.535,3.535,0,0,0,1.723-.442,5.062,5.062,0,0,0,1.382-1.2l-.342-.3a3.7,3.7,0,0,1-1.529,1.228A2.958,2.958,0,0,1,121-4.356ZM10.944-5.887l.122.167a13.832,13.832,0,0,1,1.461,2.271,14.732,14.732,0,0,1,.953,2.29l.068.2-1.385.724-.074-.314A12.368,12.368,0,0,0,9.829-4.994l-.238-.25ZM12.938-1.2a13.657,13.657,0,0,0-.855-2.018,12.457,12.457,0,0,0-1.3-2.039l-.369.175A13.605,13.605,0,0,1,12.5-.969ZM38.944-5.887l.122.167a13.832,13.832,0,0,1,1.461,2.271,14.732,14.732,0,0,1,.953,2.29l.068.2-1.385.724-.074-.314a12.368,12.368,0,0,0-2.262-4.449l-.238-.25ZM40.938-1.2a13.657,13.657,0,0,0-.855-2.018,12.457,12.457,0,0,0-1.3-2.039l-.369.175A13.605,13.605,0,0,1,40.5-.969ZM2.677-5.77,4.153-5.3l-.08.24c-.07.21-.083.248-.193.62a16.24,16.24,0,0,1-1.308,3.3l0,.006c-.115.2-.121.211-.41.651-.03.052-.049.082-.073.12s-.042.067-.08.13L1.849.026,1.624-.179a2.745,2.745,0,0,0-.8-.549L.552-.866l.19-.241A10.71,10.71,0,0,0,2.624-5.492Zm.843.794-.46-.147A11.435,11.435,0,0,1,1.314-1.036a2.606,2.606,0,0,1,.42.288l0,0c.288-.439.29-.442.4-.628A15.728,15.728,0,0,0,3.4-4.574v-.005C3.46-4.781,3.492-4.889,3.52-4.976ZM30.677-5.77l1.477.471-.08.24c-.07.21-.083.248-.193.619a16.242,16.242,0,0,1-1.308,3.3l0,.006c-.115.2-.121.211-.41.651-.03.052-.049.082-.073.12s-.042.067-.08.13l-.157.261-.226-.205a2.744,2.744,0,0,0-.8-.549l-.274-.137.19-.241a10.71,10.71,0,0,0,1.883-4.386Zm.844.794-.46-.147a11.434,11.434,0,0,1-1.746,4.087,2.607,2.607,0,0,1,.42.288l0,0c.288-.439.29-.442.4-.628A15.728,15.728,0,0,0,31.4-4.574v-.005C31.46-4.781,31.492-4.889,31.52-4.976Zm71.59,2.262c1.124,0,1.926.759,2.259,2.137l.063.261-.265.044a5.319,5.319,0,0,1-1.063.1,3.826,3.826,0,0,1-1.687-.352l-.009-.005a1.2,1.2,0,0,1-.683-1.069C101.726-2.275,102.269-2.714,103.11-2.714Zm1.7,1.993c-.3-.991-.876-1.493-1.7-1.493-.207,0-.884.045-.884.618,0,.187.052.409.433.636a3.372,3.372,0,0,0,1.445.29A4.055,4.055,0,0,0,104.811-.721Z" transform="matrix(0.978, -0.208, 0.208, 0.978, 48.354, 2180.491)" fill="#fff"/><path d="M211.734,12396.69l-1.524-1.293a7.836,7.836,0,0,0,1.365-5.99c-.614-2.644-2.93-4.956-6.884-6.873-2.2-1.066-5.986-1.721-11.574-2-5.18-.26-11.454-.189-18.1-.115-9.4.1-20.053.225-29.857-.589-11.335-.94-19.8-2.987-25.879-6.258-6.718-3.615-10.292-7.99-10.623-13.006a13.8,13.8,0,0,1,1.425-6.782,24.628,24.628,0,0,1,3.645-5.489,34.889,34.889,0,0,1,5.441-5.115,1,1,0,1,1,1.171,1.621,33.554,33.554,0,0,0-5.122,4.83,22.551,22.551,0,0,0-3.334,5.026,11.817,11.817,0,0,0-1.229,5.782c.285,4.28,3.506,8.106,9.574,11.371,5.832,3.139,14.041,5.109,25.1,6.026,9.71.806,20.314.688,29.67.582,6.674-.073,12.979-.146,18.22.117,5.944.3,9.867,1,12.347,2.2,4.536,2.2,7.216,4.974,7.965,8.246a8.486,8.486,0,0,1,.138,3c.741-.681,1.59-1.433,2.533-2.226a57.753,57.753,0,0,1,14.278-9.043c4.426-1.835,8.6-2.007,12.629-2.172a43.809,43.809,0,0,0,9.535-1.118,28.74,28.74,0,0,0,10.648-5.514c3.739-2.957,5.572-6.016,5.449-9.088-.2-4.928-5.332-8.412-5.384-8.446a1,1,0,0,1,1.111-1.664c.246.165,6.033,4.1,6.271,10.029.151,3.748-1.937,7.361-6.206,10.737a30.682,30.682,0,0,1-11.383,5.88,45.4,45.4,0,0,1-9.958,1.182c-4.036.166-7.848.322-11.946,2.021a53.858,53.858,0,0,0-13.757,8.727A66.1,66.1,0,0,0,211.734,12396.69Z" transform="translate(-3065.285 -9783.291) rotate(-14)" fill="#fff"/></g></svg>