<svg xmlns="http://www.w3.org/2000/svg" width="146.839" height="109.422" viewBox="0 0 146.839 109.422"><g transform="translate(-735.079 -1665.118)"><path d="M10.486-1.008v.84h1.12a9.381,9.381,0,0,1-.07-1.274V-8.61c0-.5,0-.742.028-1.092-.35.014-.546.028-.728.028H4.116a7.658,7.658,0,0,1-1.61-.1v1.12a11.737,11.737,0,0,1,1.61-.07h6.37V-1.96H3.822a6.845,6.845,0,0,1-1.526-.1V-.952a11.263,11.263,0,0,1,1.5-.056ZM15.218-4.8a15.294,15.294,0,0,1,1.736-.056h8.12a16.015,16.015,0,0,1,1.708.056V-5.936a11.042,11.042,0,0,1-1.694.07H16.954a9.9,9.9,0,0,1-1.736-.084ZM38.7-11.06a5.849,5.849,0,0,1-1.6.672,22.5,22.5,0,0,1-5.88.882c-.21,0-.42,0-.812-.028a3.651,3.651,0,0,1,.336.938,26.553,26.553,0,0,0,4.144-.392c0,1.232-.014,2.016-.042,2.632H30.828a6.644,6.644,0,0,1-1.47-.1V-5.39a10.841,10.841,0,0,1,1.47-.07h3.934a5.265,5.265,0,0,1-.854,2.744A6.544,6.544,0,0,1,30.632-.308a2.652,2.652,0,0,1,.756.868,7.549,7.549,0,0,0,3.486-2.926,6.667,6.667,0,0,0,.91-3.094h3.43a10.841,10.841,0,0,1,1.47.07V-6.454a6.644,6.644,0,0,1-1.47.1h-3.36c.014-.546.028-1.456.042-2.8a21.694,21.694,0,0,0,3.08-.868,2.893,2.893,0,0,1,.434-.14Zm4.788,1.918A15.459,15.459,0,0,1,46.816-6.4l.728-.868A18.238,18.238,0,0,0,44.17-9.9Zm.1,9.1a7.355,7.355,0,0,1,.84-.224,14.115,14.115,0,0,0,5.222-2.086A12.279,12.279,0,0,0,53.914-7.7a2.8,2.8,0,0,1-.854-.826A10.579,10.579,0,0,1,47.348-2.3a12.186,12.186,0,0,1-4.074,1.078Zm19.474-9.24a4.029,4.029,0,0,1,1.624.35,3.691,3.691,0,0,1,2.226,3.514A4.226,4.226,0,0,1,64.428-1.5,8.392,8.392,0,0,1,62.09-.84,2.225,2.225,0,0,1,62.58.1a10.83,10.83,0,0,0,2.128-.644,5.1,5.1,0,0,0,3.206-4.83,4.686,4.686,0,0,0-1.358-3.416,5.42,5.42,0,0,0-3.85-1.386,5.848,5.848,0,0,0-4.522,1.862,5.824,5.824,0,0,0-1.47,3.864c0,1.96.994,3.416,2.324,3.416,1.008,0,1.834-.84,2.646-2.688A20.986,20.986,0,0,0,63.056-9.282Zm-1.008.014a19.229,19.229,0,0,1-1.274,5.18c-.6,1.372-1.162,2.03-1.75,2.03-.756,0-1.344-1.036-1.344-2.38A4.841,4.841,0,0,1,59.962-8.61,4.421,4.421,0,0,1,62.048-9.268ZM2.45,14.578a15.82,15.82,0,0,0,3.7-1.246c.406-.2.406-.2.574-.266l-.588-.77a2.765,2.765,0,0,1-.686.434,13.763,13.763,0,0,1-3.892,1.19A11.072,11.072,0,0,1,1.6,15.138v6.09c-.378.1-.658.154-.994.21l.28.91c.252-.1.392-.154.56-.21A36.19,36.19,0,0,0,5.25,20.766a4.722,4.722,0,0,1-.812,1.75,5.542,5.542,0,0,1-3.29,1.876,2.608,2.608,0,0,1,.532.826,6.461,6.461,0,0,0,3.136-1.834C5.992,22.054,6.4,20.486,6.4,17.1V15.614a8.127,8.127,0,0,1,.07-1.232H5.474a9.607,9.607,0,0,1,.07,1.26v1.582A23.807,23.807,0,0,1,5.4,19.94,30.15,30.15,0,0,1,2.45,20.99Zm5.348,8.9a14.93,14.93,0,0,1-.07,1.582H8.75a1.456,1.456,0,0,1-.028-.21c-.014-.084-.028-.14-.028-.168s-.014-.434-.028-1.218V13.934h3.276v7.9c0,.364-.112.448-.56.448a10.876,10.876,0,0,1-1.694-.14,2.046,2.046,0,0,1,.224.924c.462.042.966.056,1.274.056,1.274,0,1.624-.238,1.624-1.134V14.326a7.482,7.482,0,0,1,.07-1.232,10.087,10.087,0,0,1-1.246.056H9.016a10.635,10.635,0,0,1-1.26-.056c.028.378.042.574.042,1.218Zm3.808-3.99A15.656,15.656,0,0,0,9.73,16.034l-.7.35a14.671,14.671,0,0,1,1.848,3.528ZM5.194,18.54a14.371,14.371,0,0,0-1.61-2.856l-.672.364A12.337,12.337,0,0,1,4.48,18.96ZM18.41,13.724h-1.6a7.731,7.731,0,0,1-1.274-.07v.9a7.941,7.941,0,0,1,1.274-.07h1.6v1.484H16.142a9.549,9.549,0,0,1-1.414-.084V16.8a10.306,10.306,0,0,1,1.428-.084H20.44v1.064H17.808a11.959,11.959,0,0,1-1.554-.07,8.371,8.371,0,0,1,.084,1.386v2.128a8.829,8.829,0,0,1-.084,1.414,12.7,12.7,0,0,1,1.582-.07h6.3a12.5,12.5,0,0,1,1.554.07,7.588,7.588,0,0,1-.084-1.33V19.058a7.756,7.756,0,0,1,.084-1.344,12.887,12.887,0,0,1-1.624.07H21.28V16.72H25.9a9.815,9.815,0,0,1,1.414.084V15.88a9.549,9.549,0,0,1-1.414.084H23.394V14.48h1.848a7.751,7.751,0,0,1,1.26.07v-.9a7.545,7.545,0,0,1-1.26.07H23.394v-.182a4.959,4.959,0,0,1,.084-1.162H22.47a6.489,6.489,0,0,1,.07,1.162v.182H19.264v-.182a6.3,6.3,0,0,1,.07-1.162H18.326a5.1,5.1,0,0,1,.084,1.162Zm.854,2.24V14.48H22.54v1.484Zm2.016,5.894V20.514h3.458v1.344Zm0-2.058V18.512h3.458V19.8Zm-.84-1.288V19.8H17.206V18.512Zm0,2v1.344H17.206V20.514Zm-1.554,2.254a9.517,9.517,0,0,1-4.27,1.624,2.086,2.086,0,0,1,.588.756A10.876,10.876,0,0,0,19.572,23.3Zm3.36.518a12.041,12.041,0,0,0,4.424,1.876,3.823,3.823,0,0,1,.588-.784A10.26,10.26,0,0,1,22.89,22.74Zm7.112-6.02a8.012,8.012,0,0,1,.812-.182c.126-.028.8-.14,2-.322a23.112,23.112,0,0,1-1.54,4.438,13.426,13.426,0,0,1-1.456,2.534l.952.56c.434-.784.728-1.344.91-1.68a26.413,26.413,0,0,0,2.114-5.936,8.038,8.038,0,0,1,1.008-.07c1.3,0,1.722.476,1.722,1.96a10.837,10.837,0,0,1-.588,3.892q-.273.672-.8.672a5.233,5.233,0,0,1-2.086-.644,2.711,2.711,0,0,1,.042.56,3.045,3.045,0,0,1-.028.49,5.267,5.267,0,0,0,2.114.546,1.462,1.462,0,0,0,1.372-.658,9.65,9.65,0,0,0,.938-4.816,2.826,2.826,0,0,0-.686-2.254,2.676,2.676,0,0,0-2.016-.588,8.159,8.159,0,0,0-.826.042c.126-.672.224-1.19.294-1.6a8.606,8.606,0,0,1,.266-1.344l-1.12-.126v.182a17.112,17.112,0,0,1-.42,2.968c-1.134.182-2.59.35-3.094.364Zm8.26-1.848a11.46,11.46,0,0,1,2.856,5.026l.9-.518a12.66,12.66,0,0,0-2.926-4.956Zm8.834-1.568a15.592,15.592,0,0,0,2.142.882,21.593,21.593,0,0,0,2.73.8l.392-.98A16.879,16.879,0,0,1,46.97,13ZM45.29,15.362a4.709,4.709,0,0,1-.1.742c-.2,1.176-.448,2.8-.588,3.864-.056.448-.07.574-.112.826l1.092.028a2.434,2.434,0,0,1,.56-.574,6.783,6.783,0,0,1,3.92-1.218c1.708,0,2.716.672,2.716,1.82,0,1.428-1.47,2.352-3.78,2.352a9.943,9.943,0,0,1-3.57-.7,3.238,3.238,0,0,1,.1.868,2.207,2.207,0,0,1-.014.266c.854.21.854.21,1.12.28a11.632,11.632,0,0,0,2.45.252,5.811,5.811,0,0,0,3.486-.924,2.993,2.993,0,0,0,1.26-2.408c0-1.638-1.47-2.7-3.752-2.7a6.93,6.93,0,0,0-4.046,1.2,3.921,3.921,0,0,0-.434.42l-.028-.014a1.687,1.687,0,0,0,.056-.322c.042-.322.07-.42.406-2.45a11.717,11.717,0,0,1,.322-1.54Zm13.818-1.708a3.267,3.267,0,0,1,.182.742c.126.7.294,1.526.392,1.974a5.386,5.386,0,0,0-1.4,1.428,5.027,5.027,0,0,0-.812,2.674c0,1.652.8,2.744,2.016,2.744a3.418,3.418,0,0,0,2.492-1.6,15.839,15.839,0,0,0,2.716-5.488c1.932.406,2.954,1.526,2.954,3.234a3.444,3.444,0,0,1-.616,1.988,4.555,4.555,0,0,1-2.1,1.526,6.345,6.345,0,0,1-2.086.518,2.314,2.314,0,0,1,.546.938c.6-.14.672-.154.882-.21A7.427,7.427,0,0,0,67.1,22.74a4.4,4.4,0,0,0,1.526-3.36c0-2.114-1.386-3.64-3.71-4.074.07-.266.1-.42.168-.658a11.052,11.052,0,0,1,.378-1.47l-1.05-.224a15.722,15.722,0,0,1-.434,2.254c-.2-.014-.364-.014-.462-.014a6.671,6.671,0,0,0-3,.7,18.15,18.15,0,0,1-.378-2.436Zm.812,3.654a19.353,19.353,0,0,0,1.316,3.766c-.63.77-1.232,1.19-1.722,1.19-.686,0-1.134-.728-1.134-1.834a4.174,4.174,0,0,1,.56-1.96A4.13,4.13,0,0,1,59.92,17.308Zm1.946,3a2.255,2.255,0,0,0-.112-.322,19.848,19.848,0,0,1-1.05-3.248,5.232,5.232,0,0,1,2.7-.714c.07,0,.2.014.35.014A29.639,29.639,0,0,1,62.048,20s-.1.168-.168.308Zm9.156-4.438a41.121,41.121,0,0,1,4.83-.462,27.13,27.13,0,0,0,3.08-.308,9.164,9.164,0,0,0-1.33.742,5.307,5.307,0,0,0-2.618,4.3,3.408,3.408,0,0,0,1.554,2.856,7.062,7.062,0,0,0,3.024,1.078c.224.042.28.056.434.084l.182-1.134h-.14a7.175,7.175,0,0,1-2.1-.448,2.745,2.745,0,0,1-1.96-2.59A4.279,4.279,0,0,1,77.7,16.748a7.109,7.109,0,0,1,2.688-1.414,6.493,6.493,0,0,1,1.568-.182l-.084-1.05a9.4,9.4,0,0,1-1.666.154c-1.806.084-6.286.336-7.952.462-.434.028-.6.042-.8.042h-.5ZM3.108,37.654a3.267,3.267,0,0,1,.182.742c.126.7.294,1.526.392,1.974a5.386,5.386,0,0,0-1.4,1.428,5.027,5.027,0,0,0-.812,2.674c0,1.652.8,2.744,2.016,2.744a3.418,3.418,0,0,0,2.492-1.6,15.839,15.839,0,0,0,2.716-5.488c1.932.406,2.954,1.526,2.954,3.234a3.444,3.444,0,0,1-.616,1.988,4.555,4.555,0,0,1-2.1,1.526,6.345,6.345,0,0,1-2.086.518,2.314,2.314,0,0,1,.546.938c.6-.14.672-.154.882-.21A7.427,7.427,0,0,0,11.1,46.74a4.4,4.4,0,0,0,1.526-3.36c0-2.114-1.386-3.64-3.71-4.074.07-.266.1-.42.168-.658a11.052,11.052,0,0,1,.378-1.47l-1.05-.224a15.722,15.722,0,0,1-.434,2.254c-.2-.014-.364-.014-.462-.014a6.671,6.671,0,0,0-3,.7,18.15,18.15,0,0,1-.378-2.436Zm.812,3.654a19.353,19.353,0,0,0,1.316,3.766c-.63.77-1.232,1.19-1.722,1.19-.686,0-1.134-.728-1.134-1.834a4.174,4.174,0,0,1,.56-1.96A4.13,4.13,0,0,1,3.92,41.308Zm1.946,3a2.255,2.255,0,0,0-.112-.322A19.847,19.847,0,0,1,4.7,40.734a5.232,5.232,0,0,1,2.7-.714c.07,0,.2.014.35.014A15.987,15.987,0,0,1,6.048,44a2.292,2.292,0,0,0-.168.308ZM17.248,37.08a4.306,4.306,0,0,1,.056.742c0,.224,0,.49-.014.91-.112,4.41-.126,4.76-.126,5.7a3.9,3.9,0,0,0,.77,2.87,3.32,3.32,0,0,0,2.632.98,4.9,4.9,0,0,0,3.948-1.75,8.517,8.517,0,0,0,1.554-3.178,3.96,3.96,0,0,1-1.008-.672,8.317,8.317,0,0,1-.686,2.2,4.021,4.021,0,0,1-3.752,2.436,2.642,2.642,0,0,1-1.75-.546,2.2,2.2,0,0,1-.658-1.68c-.014-.322-.028-.672-.028-.84,0-.63.042-2.534.1-4.214a21.585,21.585,0,0,1,.182-2.954Zm12.684,2.352a1.451,1.451,0,0,1,.224-.014,2.274,2.274,0,0,1,.252.014c1.12.042,1.75.07,1.89.07h.56c-.07,1.022-.07,1.092-.084,2.114-2.03.882-3.248,2.45-3.248,4.172a1.911,1.911,0,0,0,1.806,2.128,4.59,4.59,0,0,0,3.122-1.694,12.608,12.608,0,0,0,2.66-4.2c1.512.392,2.31,1.232,2.31,2.436a3.087,3.087,0,0,1-2.408,2.8,6.52,6.52,0,0,1-2.1.378,2.886,2.886,0,0,1,.448.938,7.707,7.707,0,0,0,2.856-.8,3.591,3.591,0,0,0,2.2-3.234c0-1.638-1.078-2.828-3.01-3.276.238-.658.392-1.036.434-1.12l-.966-.294a5.257,5.257,0,0,1-.336,1.26c-.35-.028-.518-.042-.812-.042a7.4,7.4,0,0,0-2.072.28c.014-.686.014-.686.1-1.876a39.219,39.219,0,0,0,4.956-.56c.266-.042.308-.042.49-.07l-.056-.98a21.513,21.513,0,0,1-5.334.784,9.308,9.308,0,0,1,.294-1.96l-1.092-.07a1.487,1.487,0,0,1,.014.21c0,.1-.028.644-.042.8-.056.714-.056.714-.07,1.05-.252.014-.308.014-.35.014a9.8,9.8,0,0,1-2.618-.224ZM32.774,42.5a19.8,19.8,0,0,0,.28,3.794,2.528,2.528,0,0,1-1.61.714c-.6,0-1.008-.5-1.008-1.274a3.307,3.307,0,0,1,.854-2.086A5,5,0,0,1,32.774,42.5ZM33.81,45.7V45.55a.924.924,0,0,0-.014-.2,23.546,23.546,0,0,1-.154-3.206,6.3,6.3,0,0,1,1.946-.322c.154,0,.224,0,.672.028a12.645,12.645,0,0,1-2.142,3.5,1.518,1.518,0,0,0-.266.364ZM52.192,37.01a10.731,10.731,0,0,1,1.442,2.226l.7-.42a10.628,10.628,0,0,0-1.442-2.17Zm-9.016,4.312a18.225,18.225,0,0,1,2.814-.5,20.66,20.66,0,0,1-3,6.972l.952.56a27.191,27.191,0,0,0,3.024-7.616,8.038,8.038,0,0,1,1.008-.07c1.3,0,1.722.476,1.722,1.96a10.837,10.837,0,0,1-.588,3.892q-.273.672-.8.672a5.233,5.233,0,0,1-2.086-.644,2.583,2.583,0,0,1,.042.546,3.128,3.128,0,0,1-.028.5,5.267,5.267,0,0,0,2.114.546,1.462,1.462,0,0,0,1.372-.658,9.65,9.65,0,0,0,.938-4.816,2.826,2.826,0,0,0-.686-2.254,2.676,2.676,0,0,0-2.016-.588,8.159,8.159,0,0,0-.826.042c.112-.6.238-1.246.294-1.6a8.607,8.607,0,0,1,.266-1.344l-1.12-.126v.182a17.293,17.293,0,0,1-.42,2.968,28.719,28.719,0,0,1-3.094.364Zm10.612-5.054a10.14,10.14,0,0,1,1.428,2.2l.7-.406a11.244,11.244,0,0,0-1.442-2.17ZM51.436,39.46a11.822,11.822,0,0,1,2.856,5.026l.9-.5a12.82,12.82,0,0,0-2.926-4.956Zm6.1,6.8a2.967,2.967,0,0,1,.364-.448c.238-.266.434-.49.588-.658.476-.532.476-.532.686-.77a1.555,1.555,0,0,0,.252-.336h.028c-.042.63-.042.63-.042,2.268a11.971,11.971,0,0,1-.1,2.31H60.41a21.708,21.708,0,0,1-.042-2.324V43.282a22.7,22.7,0,0,1,2.7-2.38,3.985,3.985,0,0,1,2.114-.952.71.71,0,0,1,.77.756,10.494,10.494,0,0,1-.35,2.1,13.6,13.6,0,0,0-.532,3.262,1.611,1.611,0,0,0,1.638,1.89,2.41,2.41,0,0,0,1.932-1.008,6.91,6.91,0,0,0,.868-1.386,4.608,4.608,0,0,1-.644-.952,5.761,5.761,0,0,1-.8,1.61,1.688,1.688,0,0,1-1.19.77c-.546,0-.84-.35-.84-.994a15.4,15.4,0,0,1,.6-3.318,9.351,9.351,0,0,0,.322-2.044A1.522,1.522,0,0,0,65.324,39a5.627,5.627,0,0,0-3.164,1.54,9.994,9.994,0,0,0-1.778,1.638l-.028-.014c0-.084.014-.112.014-.224a.715.715,0,0,0,.014-.126c.014-.658.014-.658.028-.938a2.386,2.386,0,0,0,.014-.35,4.825,4.825,0,0,1,.714-.868l-.364-.434a.914.914,0,0,1-.28.07,16.3,16.3,0,0,1,.168-2.492l-1.106-.014a5.7,5.7,0,0,1,.042.7c0,.182-.014.812-.056,1.876-1.176.07-1.792.112-1.834.112a2.833,2.833,0,0,1-.434-.028l.056.966a14.266,14.266,0,0,1,2.2-.2c-.042,1.232-.07,2.114-.084,2.674a21.5,21.5,0,0,1-2.464,2.366Zm18.517-4.157-.171-.28a1.2,1.2,0,0,0,.321-.69q0-.444-.82-.725a5.521,5.521,0,0,1-1.326-.6l.007,6.05v.349a1.956,1.956,0,0,1-.027.4,1.118,1.118,0,0,1-.625.687,2.912,2.912,0,0,1-1.364.277q-1.907,0-1.907-1.107a.939.939,0,0,1,.6-.793,2.936,2.936,0,0,1,1.432-.328,2.213,2.213,0,0,1,1.456.608v-7.67l.417-.021a1.457,1.457,0,0,0,.345.588,2.123,2.123,0,0,0,.714.328q1.8.54,1.8,1.483A2.253,2.253,0,0,1,76.057,42.107Z" transform="matrix(0.978, -0.208, 0.208, 0.978, 761.624, 1693.355)" fill="#fff"/><path d="M38.753-11.39l1.1,1.374-.377.094a2.731,2.731,0,0,0-.408.132,22.1,22.1,0,0,1-2.919.837c-.011,1.021-.022,1.807-.034,2.346h3.1A6.439,6.439,0,0,0,40.639-6.7l.295-.054v1.643l-.278-.031a10.526,10.526,0,0,0-1.442-.068h-3.2a6.7,6.7,0,0,1-.924,2.973A7.754,7.754,0,0,1,31.5.785l-.206.1-.118-.2a2.414,2.414,0,0,0-.7-.8L30.14-.386l.4-.155A6.325,6.325,0,0,0,33.7-2.854a4.81,4.81,0,0,0,.788-2.356h-3.66a10.526,10.526,0,0,0-1.442.068l-.278.031V-6.754L29.4-6.7a6.439,6.439,0,0,0,1.425.094h3.778c.02-.538.03-1.2.032-2.079a29.856,29.856,0,0,1-3.883.339l-.207.008-.047-.2a3.4,3.4,0,0,0-.319-.888L30-9.814l.425.03c.383.027.583.027.794.027a22.3,22.3,0,0,0,5.809-.872,5.606,5.606,0,0,0,1.535-.644Zm.234,1.1-.35-.439a6.569,6.569,0,0,1-1.464.584,22.845,22.845,0,0,1-5.953.893c-.124,0-.251,0-.417-.006a3.045,3.045,0,0,1,.135.407,25.79,25.79,0,0,0,3.9-.378l.3-.062v.307c0,1.185-.013,2-.042,2.643l-.011.239H30.828a8.263,8.263,0,0,1-1.22-.054v.492a11.8,11.8,0,0,1,1.22-.043h4.205l-.022.27a5.491,5.491,0,0,1-.9,2.863A6.548,6.548,0,0,1,31.1-.229a2.469,2.469,0,0,1,.378.465,7.12,7.12,0,0,0,3.179-2.73,6.436,6.436,0,0,0,.875-2.987l.019-.229h3.66a11.8,11.8,0,0,1,1.22.043V-6.16a8.263,8.263,0,0,1-1.22.054H35.6l.007-.256c.014-.558.028-1.5.042-2.8l0-.2.2-.04a21.468,21.468,0,0,0,3.046-.858Zm23.719-.134A5.66,5.66,0,0,1,66.731-8.97a4.93,4.93,0,0,1,1.433,3.594,5.369,5.369,0,0,1-3.358,5.06,11.053,11.053,0,0,1-2.173.658l-.225.049L62.341.171a2,2,0,0,0-.447-.855l-.264-.333.419-.069a8.169,8.169,0,0,0,2.273-.638,3.992,3.992,0,0,0,2.334-3.694A3.442,3.442,0,0,0,64.578-8.7a3.631,3.631,0,0,0-1.3-.316,21.04,21.04,0,0,1-1.364,5.394c-.863,1.964-1.75,2.84-2.876,2.84a2.257,2.257,0,0,1-1.867-1.082,4.632,4.632,0,0,1-.707-2.584A6.04,6.04,0,0,1,58-8.483,6.079,6.079,0,0,1,62.706-10.428ZM62.748-.2a10.069,10.069,0,0,0,1.863-.581,5.055,5.055,0,0,0,2.253-1.834,4.986,4.986,0,0,0,.8-2.765,4.436,4.436,0,0,0-1.282-3.236,5.169,5.169,0,0,0-3.676-1.316,5.6,5.6,0,0,0-4.337,1.78,5.54,5.54,0,0,0-1.4,3.7c0,1.8.892,3.166,2.074,3.166.9,0,1.646-.783,2.417-2.539a20.632,20.632,0,0,0,1.352-5.484l.025-.232.233.009a4.306,4.306,0,0,1,1.713.37,3.925,3.925,0,0,1,2.377,3.743A4.485,4.485,0,0,1,64.531-1.27a7.884,7.884,0,0,1-2,.607A2.131,2.131,0,0,1,62.748-.2ZM44.126-10.222l.178.113A18.528,18.528,0,0,1,47.72-7.444l.164.162L46.825-6.02l-.193-.209a15.105,15.105,0,0,0-3.278-2.7L43.1-9.086ZM47.2-7.249a17.794,17.794,0,0,0-2.99-2.325L43.87-9.2a15.821,15.821,0,0,1,2.935,2.421ZM2.256-10.069l.292.05a7.477,7.477,0,0,0,1.568.094h6.72c.112,0,.231-.006.4-.013l.322-.014.282-.011-.022.281c-.027.34-.027.569-.027,1.072v7.168a9.231,9.231,0,0,0,.067,1.233L11.9.082H10.236v-.84H3.794A11.111,11.111,0,0,0,2.325-.7l-.279.032V-2.358l.295.054a6.681,6.681,0,0,0,1.481.094h6.414V-8.472H4.116A11.594,11.594,0,0,0,2.535-8.4l-.279.033Zm8.58.645H4.116a9.507,9.507,0,0,1-1.36-.056v.55c.359-.033.689-.042,1.36-.042h6.62V-1.71H3.822a8.725,8.725,0,0,1-1.276-.054v.534c.2-.016.442-.019,1.245-.029h6.945v.84h.589c-.024-.278-.039-.647-.039-1.024V-8.61c0-.362,0-.593.011-.83l-.041,0C11.084-9.43,10.96-9.424,10.836-9.424Zm51.491-.118-.03.3A19.534,19.534,0,0,1,61-3.988c-.662,1.508-1.272,2.18-1.979,2.18-.909,0-1.594-1.131-1.594-2.63a5.118,5.118,0,0,1,2.4-4.386,4.653,4.653,0,0,1,2.194-.693Zm-3.3,7.234c.462,0,.974-.633,1.521-1.88a18.851,18.851,0,0,0,1.22-4.8,4.068,4.068,0,0,0-1.673.59A4.616,4.616,0,0,0,57.93-4.438C57.93-3.264,58.421-2.308,59.024-2.308ZM52.989-9.041l.272.366a2.576,2.576,0,0,0,.794.768l.175.119-.088.192a12.562,12.562,0,0,1-4.355,5.449A14.429,14.429,0,0,1,44.477-.022,7.114,7.114,0,0,0,43.658.2l-.251.08-.454-1.732.311-.012a11.881,11.881,0,0,0,3.979-1.055,10.309,10.309,0,0,0,5.583-6.092ZM53.6-7.615a2.548,2.548,0,0,1-.466-.418A10.682,10.682,0,0,1,47.45-2.068,12.941,12.941,0,0,1,43.593-.989l.165.63c.192-.057.33-.089.61-.152A13.8,13.8,0,0,0,49.5-2.559,11.963,11.963,0,0,0,53.6-7.615ZM14.968-6.247l.292.05a9.877,9.877,0,0,0,1.694.08h8.134a10.86,10.86,0,0,0,1.662-.068l.282-.036v1.693l-.273-.026a15.859,15.859,0,0,0-1.685-.055h-8.12a15.115,15.115,0,0,0-1.711.055l-.275.027Zm10.12.631H16.954a14.166,14.166,0,0,1-1.486-.046v.587c.327-.025.685-.033,1.486-.033h8.12c.753,0,1.117.009,1.458.034v-.581C26.223-5.625,25.9-5.616,25.088-5.616ZM6.17,11.934l.945,1.238-.3.125c-.162.067-.162.067-.561.26A15.812,15.812,0,0,1,2.7,14.777v1.1l.96-.52.128.181A14.151,14.151,0,0,1,5.28,18.123c.009-.3.014-.6.014-.9V15.642a9.4,9.4,0,0,0-.067-1.223l-.043-.287H6.766l-.052.293a7.977,7.977,0,0,0-.066,1.189V17.1c0,3.433-.415,5.061-1.645,6.452A6.674,6.674,0,0,1,1.76,25.455l-.217.073-.091-.21a2.373,2.373,0,0,0-.484-.754l-.292-.308.41-.106A5.325,5.325,0,0,0,4.24,22.364,3.972,3.972,0,0,0,4.856,21.2c-1.1.447-1.377.546-3.337,1.179-.138.046-.256.092-.452.168l-.345.134-.443-1.44.282-.047c.252-.042.489-.087.785-.158v-5.9a10.772,10.772,0,0,0-.041-1.192l-.024-.232.229-.041a13.49,13.49,0,0,0,3.825-1.168,2.509,2.509,0,0,0,.634-.4Zm.159,1.032-.242-.317a3.363,3.363,0,0,1-.534.306,13.593,13.593,0,0,1-3.731,1.17c.015.22.023.506.023,1.013v6.283l-.187.049c-.285.074-.514.124-.735.165l.118.383c.117-.045.213-.081.321-.117a35.691,35.691,0,0,0,3.676-1.318l.584-.239-.131.488a4.967,4.967,0,0,1-.857,1.84,5.462,5.462,0,0,1-3.047,1.86,2.771,2.771,0,0,1,.225.378,5.983,5.983,0,0,0,2.816-1.69c1.136-1.285,1.52-2.829,1.52-6.121V15.614c0-.38.013-.72.037-.982H5.754c.025.285.04.647.04,1.01v1.582a24.076,24.076,0,0,1-.142,2.749l-.019.145-.136.054a30.412,30.412,0,0,1-2.972,1.056l-.324.1V14.378l.2-.044a15.657,15.657,0,0,0,3.639-1.226ZM4.874,18.438A13.667,13.667,0,0,0,3.507,16.01l-.23.125A11.928,11.928,0,0,1,4.6,18.6Zm-.517.884-.109-.269a12.113,12.113,0,0,0-1.541-2.862L2.7,16.181v4.469c.9-.281,1.276-.415,2.474-.888.031-.268.057-.6.077-.966ZM18.013,12.13h1.618l-.051.293a5.772,5.772,0,0,0-.066,1.051H22.29a5.961,5.961,0,0,0-.067-1.053l-.049-.291h1.616l-.069.305a4.394,4.394,0,0,0-.078,1.039h1.6a7.281,7.281,0,0,0,1.222-.067l.288-.044V14.84l-.287-.042a7.482,7.482,0,0,0-1.223-.067h-1.6v.984H25.9a9.322,9.322,0,0,0,1.379-.081l.285-.041v1.5l-.285-.041A9.577,9.577,0,0,0,25.9,16.97H21.53v.564h2.536a12.692,12.692,0,0,0,1.6-.068l.327-.036-.052.325a7.582,7.582,0,0,0-.081,1.3v2.254a7.356,7.356,0,0,0,.081,1.291l.05.321-.323-.034a12.26,12.26,0,0,0-1.528-.069h-.653a10.515,10.515,0,0,0,3.823,1.311l.46.091-.331.331a3.593,3.593,0,0,0-.551.737l-.1.157L26.61,25.4a12.335,12.335,0,0,1-4.5-1.911l-.276-.184.576-.488H19.364l.634.491-.285.193a11.062,11.062,0,0,1-4.448,1.884l-.189.047-.092-.171a1.846,1.846,0,0,0-.536-.689l-.365-.333.484-.1a9.773,9.773,0,0,0,3.791-1.325h-.522a12.523,12.523,0,0,0-1.556.069l-.32.034.047-.319a8.657,8.657,0,0,0,.081-1.378V19.1a8.147,8.147,0,0,0-.081-1.349l-.049-.322.324.036a11.726,11.726,0,0,0,1.526.068H20.19V16.97H16.156a10.054,10.054,0,0,0-1.4.082l-.282.036v-1.5l.285.041a9.322,9.322,0,0,0,1.379.081H18.16V14.73H16.814a7.687,7.687,0,0,0-1.237.067l-.287.042V13.363l.288.044a7.485,7.485,0,0,0,1.236.067H18.16a4.636,4.636,0,0,0-.078-1.039Zm1.034.5h-.424a7.638,7.638,0,0,1,.037.912v.432H16.814a10.086,10.086,0,0,1-1.024-.036v.329a10.011,10.011,0,0,1,1.024-.037H18.66v1.984H16.142a10.871,10.871,0,0,1-1.164-.051v.36a11.073,11.073,0,0,1,1.178-.053H20.69v1.564H17.808c-.589,0-.907-.009-1.265-.04a9.927,9.927,0,0,1,.045,1.106v2.128a10.269,10.269,0,0,1-.046,1.135c.38-.032.7-.041,1.294-.041h6.3c.574,0,.888.009,1.264.041a8.98,8.98,0,0,1-.044-1.051V19.058a9.448,9.448,0,0,1,.044-1.064c-.365.031-.717.04-1.334.04H21.03V16.47H25.9a11.188,11.188,0,0,1,1.164.051v-.358a10.871,10.871,0,0,1-1.164.051H23.144V14.23h2.1a9.694,9.694,0,0,1,1.01.036v-.328a9.771,9.771,0,0,1-1.01.036h-2.1v-.432a7.5,7.5,0,0,1,.037-.912h-.424a8.676,8.676,0,0,1,.033.912v.432H19.014v-.432A8.79,8.79,0,0,1,19.047,12.63Zm7.74,11.907a9.949,9.949,0,0,1-3.878-1.486l-.246.209a11.521,11.521,0,0,0,3.891,1.615C26.631,24.753,26.706,24.643,26.787,24.537Zm-7.642-1.252-.267-.207a9.138,9.138,0,0,1-3.757,1.466,2.066,2.066,0,0,1,.21.315A10.345,10.345,0,0,0,19.145,23.285ZM32.51,12.464l1.7.191-.092.29a8.368,8.368,0,0,0-.257,1.307c-.059.344-.137.761-.235,1.282.16-.011.313-.017.52-.017a2.887,2.887,0,0,1,2.19.658A3.053,3.053,0,0,1,37.1,18.61a9.809,9.809,0,0,1-.984,4.96,1.711,1.711,0,0,1-1.576.764,5.5,5.5,0,0,1-2.212-.566l-.175-.074.025-.189a2.79,2.79,0,0,0,.026-.457,2.482,2.482,0,0,0-.039-.519l-.081-.488.441.225a5.045,5.045,0,0,0,1.973.617c.153,0,.378-.054.566-.516a10.573,10.573,0,0,0,.57-3.8c0-1.342-.316-1.71-1.472-1.71a6.621,6.621,0,0,0-.806.05,26.429,26.429,0,0,1-2.092,5.817l0,.009-.18.335c-.177.33-.418.782-.731,1.347l-.124.225L28.8,23.8l.179-.225A13.164,13.164,0,0,0,30.4,21.1a21.952,21.952,0,0,0,1.43-4.029c-1.011.155-1.515.241-1.61.262l-.011,0a7.742,7.742,0,0,0-.792.178l-.279.072-.174-1.565.272-.008c.442-.012,1.743-.156,2.894-.335a16.447,16.447,0,0,0,.377-2.748Zm1.05.621-.552-.062a18.28,18.28,0,0,1-.425,2.926l-.038.164-.166.027c-.953.153-2.192.3-2.856.352l.051.459c.19-.047.316-.074.547-.114.149-.032.836-.146,2.013-.324l.373-.056-.094.366a23.174,23.174,0,0,1-1.556,4.482,15.052,15.052,0,0,1-1.314,2.354l.489.288c.252-.459.452-.833.6-1.116l.179-.333a26.057,26.057,0,0,0,2.093-5.878l.04-.173.176-.019a8.32,8.32,0,0,1,1.035-.071,1.9,1.9,0,0,1,1.537.508,2.5,2.5,0,0,1,.435,1.7,11.063,11.063,0,0,1-.608,3.989,1.1,1.1,0,0,1-1.028.825A4.86,4.86,0,0,1,32.7,22.9c0,.045,0,.092,0,.145,0,.125,0,.216-.009.331a4.757,4.757,0,0,0,1.845.455,1.222,1.222,0,0,0,1.168-.552A9.523,9.523,0,0,0,36.6,18.61a2.6,2.6,0,0,0-.608-2.072,2.46,2.46,0,0,0-1.844-.52,7.924,7.924,0,0,0-.8.041l-.328.029.1-.548c.106-.565.19-1.011.251-1.368C33.457,13.607,33.505,13.317,33.56,13.086Zm30.624-.436,1.616.345-.1.272a11.08,11.08,0,0,0-.369,1.44l0,.013c-.04.135-.065.24-.094.362l-.008.033a4.263,4.263,0,0,1,3.654,4.266,4.623,4.623,0,0,1-1.617,3.553,7.673,7.673,0,0,1-2.923,1.435c-.166.044-.247.063-.551.133l-.565.131-.069-.223a2.089,2.089,0,0,0-.5-.857l-.286-.363.461-.04a6.116,6.116,0,0,0,2.012-.5,4.29,4.29,0,0,0,1.989-1.436,3.191,3.191,0,0,0,.573-1.847,2.773,2.773,0,0,0-.687-1.937,3.623,3.623,0,0,0-1.844-1,15.9,15.9,0,0,1-2.7,5.351,3.648,3.648,0,0,1-2.684,1.686c-1.355,0-2.266-1.2-2.266-2.994a5.307,5.307,0,0,1,.852-2.81,5.54,5.54,0,0,1,1.332-1.4c-.1-.486-.251-1.218-.36-1.826a3.021,3.021,0,0,0-.17-.7l-.1-.278,1.615-.306.009.292a16.928,16.928,0,0,0,.307,2.086,6.912,6.912,0,0,1,2.817-.592c.065,0,.158,0,.27,0a14.781,14.781,0,0,0,.377-2.011Zm.955.715-.506-.108a18.649,18.649,0,0,1-.411,2.014l-.052.2-.208-.015c-.187-.013-.348-.013-.444-.013a6.386,6.386,0,0,0-2.887.675l-.284.138-.069-.308a21.169,21.169,0,0,1-.363-2.193l-.48.091c.029.11.055.248.1.5.121.672.288,1.5.39,1.965l.035.158-.13.1a5.14,5.14,0,0,0-1.341,1.366,4.792,4.792,0,0,0-.77,2.535c0,1.515.693,2.494,1.766,2.494.726,0,1.456-.478,2.3-1.5a15.567,15.567,0,0,0,2.669-5.4l.065-.223.227.048a4.257,4.257,0,0,1,2.335,1.2,3.256,3.256,0,0,1,.818,2.274,3.681,3.681,0,0,1-.66,2.13,4.76,4.76,0,0,1-2.21,1.615,6.542,6.542,0,0,1-1.716.487,1.894,1.894,0,0,1,.244.444l.118-.027c.305-.071.378-.087.535-.129a7.17,7.17,0,0,0,2.731-1.336,4.176,4.176,0,0,0,1.437-3.169c0-1.987-1.311-3.418-3.506-3.828l-.264-.049.068-.26c.028-.107.049-.2.069-.278.029-.121.057-.236.1-.38C65.02,13.841,65.091,13.538,65.139,13.364Zm-18.257-.705.211.119A16.576,16.576,0,0,0,51.755,14.3l.31.048-.59,1.476-.213-.055a21.753,21.753,0,0,1-2.752-.8,15.736,15.736,0,0,1-2.162-.89l-.254-.117Zm4.487,2.085a17.832,17.832,0,0,1-4.308-1.416l-.25.411a13.861,13.861,0,0,0,1.864.755,19.808,19.808,0,0,0,2.5.737ZM13.175,12.808l-.048.322a7.177,7.177,0,0,0-.067,1.2v7.658c0,1.17-.631,1.384-1.874,1.384-.324,0-.834-.015-1.3-.057l-.219-.02-.008-.22a1.806,1.806,0,0,0-.2-.825l-.2-.428.469.073a10.7,10.7,0,0,0,1.656.137c.236,0,.285-.028.293-.034a.458.458,0,0,0,.017-.164v-2.1l-.942.543L10.645,20a14.184,14.184,0,0,0-1.729-3.339v6.805c.011.592.021.967.026,1.127q0,.061,0,.082c0,.012,0,.027.008.046s.011.056.016.09l0,.02v.021a1.03,1.03,0,0,0,.017.126l.056.334h-1.6l.032-.279a14.83,14.83,0,0,0,.068-1.553v-9.17c0-.642-.014-.828-.041-1.2l-.022-.3.3.035a10.339,10.339,0,0,0,1.231.054h2.618a9.8,9.8,0,0,0,1.217-.054Zm-1.541.592H9.016c-.413,0-.717-.009-.99-.029.014.233.022.472.022.941v9.17c0,.494-.016.963-.045,1.332h.458a.671.671,0,0,1-.017-.128c0-.007,0-.033,0-.077,0-.161-.015-.538-.026-1.137V13.684h3.776V21.83c0,.581-.31.7-.81.7a10.664,10.664,0,0,1-1.307-.084,2.156,2.156,0,0,1,.072.386c.384.028.775.038,1.039.038,1.261,0,1.374-.229,1.374-.884V14.326c0-.43.008-.7.033-.954C12.329,13.392,12.042,13.4,11.634,13.4Zm.058.784H8.916v1.977l.9-.448.124.177a15.855,15.855,0,0,1,1.757,3.152Zm-.4,5.2a15.215,15.215,0,0,0-1.645-3.03l-.252.126A14.283,14.283,0,0,1,11,19.55ZM82.1,13.77l.131,1.632h-.271a6.213,6.213,0,0,0-1.507.174,6.87,6.87,0,0,0-2.587,1.362,4.013,4.013,0,0,0-1.634,3.044,2.483,2.483,0,0,0,1.8,2.356,6.926,6.926,0,0,0,2.011.432h.433L80.2,24.446l-.251-.046-.2-.038-.24-.047A7.314,7.314,0,0,1,76.4,23.2a3.664,3.664,0,0,1-1.663-3.062,5.57,5.57,0,0,1,2.729-4.505l.166-.11c-.462.045-1.012.086-1.761.133a40.741,40.741,0,0,0-4.791.456l-.286.064-.105-1.664h.77c.152,0,.291-.009.568-.027l.214-.014c1.685-.127,6.151-.378,7.956-.462a8.99,8.99,0,0,0,1.6-.143Zm-.411,1.137-.04-.505c-.439.063-1.111.093-1.43.1-1.8.084-6.259.334-7.942.461l-.216.014c-.288.019-.432.029-.6.029h-.238l.035.555c.713-.125,1.919-.231,4.582-.411a26.831,26.831,0,0,0,3.055-.305l.149.472a8.87,8.87,0,0,0-1.3.723,5.083,5.083,0,0,0-2.508,4.091,3.172,3.172,0,0,0,1.444,2.649A6.79,6.79,0,0,0,79.6,23.824l.186.036.1-.594a7.821,7.821,0,0,1-2.034-.459,2.99,2.99,0,0,1-2.124-2.825,4.551,4.551,0,0,1,1.811-3.426,7.385,7.385,0,0,1,2.784-1.464l.007,0A6.719,6.719,0,0,1,81.686,14.907ZM19.014,14.23H22.79v1.984H19.014Zm3.276.5H19.514v.984H22.29ZM38.5,14.658l.132.142a12.889,12.889,0,0,1,2.98,5.047l.064.193-1.353.782-.086-.312a11.163,11.163,0,0,0-2.794-4.917l-.232-.237Zm2.572,5.154a12.3,12.3,0,0,0-2.676-4.529l-.367.2a11.632,11.632,0,0,1,2.6,4.586ZM45.054,15.1l1.626.107-.087.3a11.47,11.47,0,0,0-.315,1.511c-.157.95-.248,1.484-.3,1.8-.021.121-.036.213-.049.289a7.261,7.261,0,0,1,4.151-1.22,4.9,4.9,0,0,1,2.878.784,2.585,2.585,0,0,1,1.124,2.168,3.226,3.226,0,0,1-1.365,2.611,6.049,6.049,0,0,1-3.631.971,11.943,11.943,0,0,1-2.5-.258l-.01,0c-.264-.069-.264-.069-1.116-.279l-.213-.052.024-.218a1.958,1.958,0,0,0,.012-.238,2.989,2.989,0,0,0-.092-.812l-.108-.47.446.182A9.7,9.7,0,0,0,49,22.952c2.144,0,3.53-.825,3.53-2.1,0-1-.9-1.57-2.466-1.57a6.494,6.494,0,0,0-3.772,1.17,2.178,2.178,0,0,0-.51.525l-.078.1L44.2,21.037l.047-.284c.035-.213.05-.332.09-.65l.021-.166c.146-1.107.4-2.743.589-3.874a4.493,4.493,0,0,0,.095-.715Zm.978.565-.511-.034c-.015.139-.037.277-.083.522C45.251,17.272,45,18.9,44.852,20l-.02.164c-.021.167-.035.282-.049.386l.683.018a2.464,2.464,0,0,1,.529-.521,7,7,0,0,1,4.07-1.268c1.857,0,2.966.774,2.966,2.07,0,1.581-1.582,2.6-4.03,2.6a10.3,10.3,0,0,1-3.245-.56,3.891,3.891,0,0,1,.023.478c0,.02,0,.044,0,.073.65.16.675.166.915.23a11.44,11.44,0,0,0,2.392.245,5.58,5.58,0,0,0,3.342-.879,2.725,2.725,0,0,0,1.154-2.2c0-1.49-1.375-2.452-3.5-2.452a6.7,6.7,0,0,0-3.891,1.15,3.678,3.678,0,0,0-.406.394l-.127.137-.37-.185.042-.191c.006-.029.012-.053.017-.075a1.122,1.122,0,0,0,.034-.214V19.39c.023-.176.042-.288.105-.659.054-.318.145-.851.3-1.8C45.884,16.327,45.949,15.988,46.032,15.661Zm17.374.109c.036,0,.077,0,.125.005s.14.009.225.009h.333L64,16.1a29.407,29.407,0,0,1-1.726,4.007l-.006.011s-.095.163-.16.294l-.069.138h-.364l-.047-.189a1.4,1.4,0,0,0-.072-.212l-.03-.078a19.971,19.971,0,0,1-1.061-3.284l-.042-.18.159-.093A5.515,5.515,0,0,1,63.406,15.77Zm.014.5h-.014a4.967,4.967,0,0,0-2.415.589,19.2,19.2,0,0,0,.922,2.851A30.835,30.835,0,0,0,63.42,16.27Zm-3.354.576.1.4a19.129,19.129,0,0,0,1.3,3.717l.068.143-.1.123a2.838,2.838,0,0,1-1.915,1.282c-.841,0-1.384-.818-1.384-2.084a4.424,4.424,0,0,1,.594-2.086,4.375,4.375,0,0,1,1.031-1.224Zm.875,4.19a19.6,19.6,0,0,1-1.162-3.257,3.479,3.479,0,0,0-.622.814,3.958,3.958,0,0,0-.528,1.837c0,.947.355,1.584.884,1.584C59.9,22.014,60.4,21.668,60.942,21.036ZM16.956,18.262H20.69V20.05H16.956Zm3.234.5H17.456v.788H20.19Zm.84-.5h3.958V20.05H21.03Zm3.458.5H21.53v.788h2.958Zm-7.532,1.5H20.69v1.844H16.956Zm3.234.5H17.456v.844H20.19Zm.84-.5h3.958v1.844H21.03Zm3.458.5H21.53v.844h2.958ZM54.536,35.571l.132.161a11.513,11.513,0,0,1,1.47,2.212l.111.212-1.147.666-.113-.254A9.976,9.976,0,0,0,53.6,36.432l-.2-.234Zm1.047,2.394a10.48,10.48,0,0,0-1.171-1.755l-.238.131a10.869,10.869,0,0,1,1.151,1.773Zm-2.627-1.633.129.155A10.854,10.854,0,0,1,54.557,38.7l.106.208-1.137.682-.118-.25a10.457,10.457,0,0,0-1.4-2.162l-.226-.241ZM54,38.723a10.129,10.129,0,0,0-1.176-1.761l-.241.125a11.948,11.948,0,0,1,1.151,1.8ZM32.721,36.349l1.719.11-.1.305a7.818,7.818,0,0,0-.256,1.619,20.528,20.528,0,0,0,4.975-.755l.314-.112.088,1.54-.225.035c-.081.012-.135.02-.193.027-.073.009-.148.019-.293.042a40.487,40.487,0,0,1-4.765.555c-.054.766-.066.95-.075,1.311a7.581,7.581,0,0,1,1.815-.206c.246,0,.405.009.645.028a4.958,4.958,0,0,0,.255-1.029l.039-.292,1.531.466-.132.265c-.028.055-.14.325-.328.834a3.54,3.54,0,0,1,2.93,3.45A3.842,3.842,0,0,1,38.336,48a7.94,7.94,0,0,1-2.942.825l-.207.025-.062-.2a2.647,2.647,0,0,0-.417-.873l-.249-.373.448-.015a6.31,6.31,0,0,0,2.025-.364,2.851,2.851,0,0,0,2.241-2.564c0-1.036-.645-1.754-1.917-2.137A12.65,12.65,0,0,1,34.632,46.4a4.789,4.789,0,0,1-3.3,1.768,2.161,2.161,0,0,1-2.056-2.378c0-1.788,1.212-3.4,3.25-4.335.011-.8.015-.965.064-1.7H32.3c-.093,0-.362-.011-.85-.03l-1.05-.04H30.38a2.042,2.042,0,0,0-.224-.012,1.2,1.2,0,0,0-.189.011l-.29.041.023-1.585.314.09a9.493,9.493,0,0,0,2.549.214c.022,0,.048,0,.11,0,.008-.168.02-.312.06-.831.014-.15.041-.69.041-.778a1.244,1.244,0,0,0-.011-.175Zm1.061.569-.507-.033c-.006.181-.029.627-.042.763-.055.706-.055.706-.069,1.038l-.009.227-.226.013c-.259.014-.317.014-.364.014a12.068,12.068,0,0,1-2.373-.157l-.006.385c.08,0,.161.006.24.014l1.042.04c.45.018.747.029.83.029h.828l-.018.267c-.068,1-.069,1.077-.083,2.05l0,.212-.148.064c-1.94.843-3.1,2.317-3.1,3.943a1.663,1.663,0,0,0,1.556,1.878,4.393,4.393,0,0,0,2.942-1.617,12.294,12.294,0,0,0,2.61-4.125l.085-.2.208.054c2.064.535,2.5,1.752,2.5,2.678,0,1.359-.939,2.465-2.576,3.036a6.5,6.5,0,0,1-1.749.369,2.726,2.726,0,0,1,.188.437,7.206,7.206,0,0,0,2.566-.745,3.331,3.331,0,0,0,2.064-3.013c0-1.534-1-2.611-2.816-3.032l-.274-.064.1-.265c.137-.379.25-.676.33-.877l-.427-.13a5.648,5.648,0,0,1-.3,1.03l-.068.171-.208-.017c-.327-.026-.491-.039-.768-.039a7.178,7.178,0,0,0-2.006.271l-.323.089.007-.335c.014-.692.014-.692.1-1.889l.016-.225.225-.007a38.946,38.946,0,0,0,4.919-.556h.006c.125-.02.2-.031.266-.039l-.024-.427a24,24,0,0,1-5.091.7l-.287.014.026-.286A13.423,13.423,0,0,1,33.782,36.918Zm12.546-.4,1.7.191-.092.29a8.366,8.366,0,0,0-.257,1.305c-.04.253-.115.649-.195,1.069l-.041.215c.16-.011.313-.017.52-.017a2.887,2.887,0,0,1,2.19.658,3.053,3.053,0,0,1,.762,2.434,9.809,9.809,0,0,1-.984,4.96,1.711,1.711,0,0,1-1.576.764,5.5,5.5,0,0,1-2.212-.566l-.175-.074.025-.189a2.9,2.9,0,0,0,.026-.471,2.349,2.349,0,0,0-.039-.5L45.9,46.1l.441.225a5.045,5.045,0,0,0,1.973.617c.153,0,.378-.054.566-.516a10.573,10.573,0,0,0,.57-3.8c0-1.342-.316-1.71-1.472-1.71a6.611,6.611,0,0,0-.8.05,27.423,27.423,0,0,1-3.011,7.51l-.125.221-1.414-.831.171-.224a20.088,20.088,0,0,0,2.863-6.521,15.594,15.594,0,0,0-2.413.445l-.285.082-.175-1.573.272-.008a26.974,26.974,0,0,0,2.894-.337,16.859,16.859,0,0,0,.377-2.745Zm1.051.621-.552-.062a18.357,18.357,0,0,1-.425,2.926l-.038.168-.17.024c-1.728.247-2.382.327-2.851.355l.05.451a23.293,23.293,0,0,1,2.563-.433l.363-.051-.085.356a21.589,21.589,0,0,1-2.874,6.839l.494.291a26.673,26.673,0,0,0,2.873-7.326l.039-.175.178-.019a8.32,8.32,0,0,1,1.035-.071,1.9,1.9,0,0,1,1.537.508,2.5,2.5,0,0,1,.435,1.7,11.063,11.063,0,0,1-.608,3.989,1.1,1.1,0,0,1-1.028.825,4.86,4.86,0,0,1-1.795-.478c0,.04,0,.082,0,.13,0,.135,0,.229-.009.345a4.756,4.756,0,0,0,1.845.455,1.222,1.222,0,0,0,1.168-.552,9.523,9.523,0,0,0,.892-4.672,2.6,2.6,0,0,0-.608-2.072,2.46,2.46,0,0,0-1.844-.52,7.924,7.924,0,0,0-.8.041l-.328.028.06-.323c.033-.178.068-.36.1-.537.079-.416.153-.809.192-1.052C47.265,37.69,47.324,37.372,47.379,37.142Zm11.9-.609,1.689.021-.062.3a13.827,13.827,0,0,0-.151,2.111l.1-.036.638.76-.19.161a4.257,4.257,0,0,0-.626.758,2.105,2.105,0,0,1-.015.295c-.011.214-.013.261-.021.614.3-.291.737-.663,1.364-1.17a5.8,5.8,0,0,1,3.321-1.6,1.769,1.769,0,0,1,1.888,1.888,9.545,9.545,0,0,1-.328,2.1,15.108,15.108,0,0,0-.6,3.263c0,.667.337.744.59.744a1.469,1.469,0,0,0,.988-.667,5.5,5.5,0,0,0,.761-1.536l.17-.554.286.5a4.37,4.37,0,0,0,.616.912l.112.129-.08.151a7.169,7.169,0,0,1-.9,1.428,2.652,2.652,0,0,1-2.125,1.1,1.857,1.857,0,0,1-1.888-2.14,13.93,13.93,0,0,1,.537-3.313,10.649,10.649,0,0,0,.345-2.049.463.463,0,0,0-.52-.506,3.786,3.786,0,0,0-1.968.9,21.757,21.757,0,0,0-2.6,2.283v2.918a21.621,21.621,0,0,0,.041,2.3l.027.275H59.024l.047-.29a11.864,11.864,0,0,0,.095-2.272c0-.849,0-1.259.006-1.546l-.494.552c-.1.105-.207.23-.335.374l-.253.284-.064.072a2.2,2.2,0,0,0-.275.343l-.225.354-.878-1.58.2-.127A20.926,20.926,0,0,0,59.2,42.788c.013-.5.036-1.24.072-2.3a11.9,11.9,0,0,0-1.886.172l-.286.062-.09-1.558.3.037a2.6,2.6,0,0,0,.4.026l.386-.024,1.207-.074c.037-.972.047-1.494.047-1.64a5.2,5.2,0,0,0-.037-.639Zm1.088.514-.536-.007c.011.133.017.258.017.446,0,.16-.012.76-.056,1.886l-.009.226-.226.013q-.972.058-1.431.088c-.332.021-.393.025-.418.025-.058,0-.108,0-.168,0l.023.393c.238-.033.644-.06,1.948-.148l.276-.019-.009.277c-.044,1.286-.071,2.135-.084,2.672l0,.1-.065.07a27.93,27.93,0,0,1-2.32,2.267l.268.483.079-.088.064-.072.252-.283c.13-.146.242-.272.339-.378.472-.528.473-.529.681-.764l.056-.066a.957.957,0,0,0,.162-.218l.069-.138h.45l-.018.267c-.041.622-.041.622-.041,2.251a19.015,19.015,0,0,1-.057,2.06h.528c-.02-.3-.02-.687-.02-2.074v-3.13l.077-.074a22.748,22.748,0,0,1,2.727-2.4,4.141,4.141,0,0,1,2.262-1,.959.959,0,0,1,1.02,1.006,10.716,10.716,0,0,1-.356,2.154,13.312,13.312,0,0,0-.526,3.208,1.511,1.511,0,0,0,.551,1.391,1.474,1.474,0,0,0,.837.249,2.155,2.155,0,0,0,1.738-.916,6.05,6.05,0,0,0,.761-1.2,3.544,3.544,0,0,1-.29-.4,6.038,6.038,0,0,1-.648,1.171,1.918,1.918,0,0,1-1.393.875c-.683,0-1.09-.465-1.09-1.244a15.671,15.671,0,0,1,.608-3.374,9.178,9.178,0,0,0,.316-1.988,1.275,1.275,0,0,0-1.388-1.388,5.457,5.457,0,0,0-3.008,1.485,10.112,10.112,0,0,0-1.728,1.584l-.123.18-.362-.181v-.155a1,1,0,0,1,.008-.123.788.788,0,0,0,.006-.1v-.025l0-.024a.486.486,0,0,0,.009-.079c.014-.665.014-.665.028-.949l0-.029a2.354,2.354,0,0,0,.011-.309v-.081l.047-.066a8.13,8.13,0,0,1,.575-.739l-.106-.126a1.268,1.268,0,0,1-.17.028l-.287.032.009-.289C60.287,37.98,60.322,37.4,60.368,37.046Zm-52.183-.4,1.616.345-.1.272a11.08,11.08,0,0,0-.369,1.44l0,.013c-.04.135-.065.24-.094.362l-.008.033a4.263,4.263,0,0,1,3.654,4.266,4.623,4.623,0,0,1-1.617,3.553,7.673,7.673,0,0,1-2.923,1.435c-.166.044-.247.063-.551.133l-.565.131-.069-.223a2.089,2.089,0,0,0-.5-.857l-.286-.363.461-.04a6.116,6.116,0,0,0,2.012-.5,4.29,4.29,0,0,0,1.989-1.436,3.191,3.191,0,0,0,.573-1.847,2.773,2.773,0,0,0-.687-1.937,3.623,3.623,0,0,0-1.844-1,15.9,15.9,0,0,1-2.7,5.351,3.648,3.648,0,0,1-2.684,1.686c-1.355,0-2.266-1.2-2.266-2.994a5.307,5.307,0,0,1,.852-2.81,5.54,5.54,0,0,1,1.332-1.4c-.1-.486-.251-1.218-.36-1.826a3.021,3.021,0,0,0-.17-.7l-.1-.278,1.615-.306.009.292A16.927,16.927,0,0,0,4.7,39.536a6.912,6.912,0,0,1,2.817-.592c.065,0,.158,0,.27,0a14.781,14.781,0,0,0,.377-2.011Zm.955.715-.506-.108a18.649,18.649,0,0,1-.411,2.014l-.052.2-.208-.015c-.187-.013-.348-.013-.444-.013a6.386,6.386,0,0,0-2.887.675l-.284.138-.069-.308a21.167,21.167,0,0,1-.363-2.193l-.48.091c.029.11.055.248.1.5.121.672.288,1.5.39,1.965l.035.158-.13.1A5.14,5.14,0,0,0,2.49,41.937a4.792,4.792,0,0,0-.77,2.535c0,1.515.693,2.494,1.766,2.494.726,0,1.456-.478,2.3-1.5a15.567,15.567,0,0,0,2.669-5.4l.065-.223.227.048a4.257,4.257,0,0,1,2.335,1.2,3.256,3.256,0,0,1,.818,2.274,3.681,3.681,0,0,1-.66,2.13,4.76,4.76,0,0,1-2.21,1.615,6.542,6.542,0,0,1-1.716.487,1.894,1.894,0,0,1,.244.444l.118-.027c.305-.071.378-.087.535-.129a7.17,7.17,0,0,0,2.731-1.336,4.176,4.176,0,0,0,1.437-3.169c0-1.987-1.311-3.418-3.506-3.828L8.608,39.5l.068-.26c.028-.107.049-.2.069-.278.029-.121.057-.236.1-.38C9.02,37.841,9.091,37.538,9.139,37.364Zm7.819-.534h1.806l-.052.293a21.158,21.158,0,0,0-.178,2.917c-.058,1.732-.1,3.607-.1,4.208,0,.168.015.53.028.826a1.975,1.975,0,0,0,.576,1.508,2.415,2.415,0,0,0,1.583.482,3.751,3.751,0,0,0,3.528-2.3,8.046,8.046,0,0,0,.664-2.135l.084-.419.324.278a3.726,3.726,0,0,0,.957.638l.192.1-.066.2a8.738,8.738,0,0,1-1.6,3.264,5.167,5.167,0,0,1-4.137,1.837,3.555,3.555,0,0,1-2.821-1.066,4.127,4.127,0,0,1-.831-3.034c0-.779.01-1.176.076-3.757l.05-1.948c.014-.418.014-.676.014-.9a4.081,4.081,0,0,0-.053-.7Zm1.218.5h-.643a4.625,4.625,0,0,1,.022.492c0,.22,0,.494-.014.918l-.05,1.946c-.066,2.576-.076,2.971-.076,3.744a3.668,3.668,0,0,0,.708,2.706,3.085,3.085,0,0,0,2.444.894,4.631,4.631,0,0,0,3.757-1.661,7.928,7.928,0,0,0,1.441-2.892,3.635,3.635,0,0,1-.544-.343,7.858,7.858,0,0,1-.621,1.852,4.27,4.27,0,0,1-3.977,2.578,2.868,2.868,0,0,1-1.917-.61,2.437,2.437,0,0,1-.741-1.85V45.1c-.013-.3-.028-.672-.028-.851,0-.6.04-2.487.1-4.222C18.07,38.517,18.116,37.8,18.175,37.33Zm56.042.677.064.172a1.2,1.2,0,0,0,.275.486,1.84,1.84,0,0,0,.624.278c1.309.393,1.973.973,1.973,1.722a2.446,2.446,0,0,1-.923,1.621l-.225.219-.425-.7.109-.137a.952.952,0,0,0,.267-.535c0-.231-.408-.4-.651-.488a6.971,6.971,0,0,1-.995-.4l.006,5.964a1.941,1.941,0,0,1-.035.464,1.358,1.358,0,0,1-.751.847,3.167,3.167,0,0,1-1.481.306c-1.783,0-2.157-.738-2.157-1.357a1.171,1.171,0,0,1,.728-1.012,3.2,3.2,0,0,1,1.552-.359,2.267,2.267,0,0,1,1.206.363V38.048Zm2.231,3.244a1.154,1.154,0,0,0,.206-.586c0-.5-.545-.921-1.62-1.244a2.318,2.318,0,0,1-.807-.379,1.445,1.445,0,0,1-.346-.518h0v.865l.319.213a5.306,5.306,0,0,0,1.265.572c.66.225.992.549.992.962A.815.815,0,0,1,76.449,41.251Zm-2.638,5.192-.344-.3a1.956,1.956,0,0,0-1.293-.548,2.7,2.7,0,0,0-1.312.3c-.468.257-.468.5-.468.574,0,.212,0,.857,1.657.857a2.685,2.685,0,0,0,1.247-.248.89.89,0,0,0,.5-.527A.685.685,0,0,0,73.811,46.443Zm-21.5-7.727.13.139a13.065,13.065,0,0,1,2.982,5.051l.062.194-1.356.763-.082-.314a11.624,11.624,0,0,0-2.79-4.911l-.243-.24Zm2.572,5.149a12.542,12.542,0,0,0-2.678-4.528l-.36.189a12.183,12.183,0,0,1,2.6,4.586ZM7.406,39.77c.036,0,.077,0,.125.005s.14.009.225.009h.333L8,40.1A16.345,16.345,0,0,1,6.259,44.13a1.556,1.556,0,0,0-.115.2l-.04.081-.069.138H5.671l-.047-.189a1.4,1.4,0,0,0-.072-.212l-.03-.078a19.971,19.971,0,0,1-1.061-3.284l-.042-.18.159-.093A5.515,5.515,0,0,1,7.406,39.77Zm.018.5H7.406a4.968,4.968,0,0,0-2.415.589,19.229,19.229,0,0,0,.929,2.869A15.832,15.832,0,0,0,7.424,40.27Zm-3.358.576.1.4a19.128,19.128,0,0,0,1.3,3.717l.068.143-.1.123a2.838,2.838,0,0,1-1.915,1.282c-.841,0-1.384-.818-1.384-2.084a4.424,4.424,0,0,1,.594-2.086A4.375,4.375,0,0,1,3.755,41.12Zm.875,4.19A19.6,19.6,0,0,1,3.78,41.779a3.479,3.479,0,0,0-.622.814A3.958,3.958,0,0,0,2.63,44.43c0,.947.355,1.584.884,1.584C3.9,46.014,4.4,45.668,4.942,45.036Zm30.646-3.46c.159,0,.232,0,.688.028l.357.022-.143.328a12.92,12.92,0,0,1-2.182,3.563l-.012.013a1.1,1.1,0,0,0-.2.272l-.134.215-.4-.133V45.55a.689.689,0,0,0-.011-.155l0-.014a23.733,23.733,0,0,1-.155-3.231v-.183l.174-.057A6.53,6.53,0,0,1,35.588,41.576Zm.3.507c-.141-.007-.2-.007-.3-.007a5.961,5.961,0,0,0-1.695.256,22.256,22.256,0,0,0,.125,2.754A12.1,12.1,0,0,0,35.884,42.083Zm-2.86-.008V42.5a19.574,19.574,0,0,0,.276,3.749l.027.147-.116.093a2.756,2.756,0,0,1-1.766.769c-.752,0-1.258-.612-1.258-1.524a3.551,3.551,0,0,1,.913-2.248,5.259,5.259,0,0,1,1.554-1.205Zm-.242,4.113a19.091,19.091,0,0,1-.256-3.256,4.4,4.4,0,0,0-1.048.879,3.051,3.051,0,0,0-.792,1.921c0,.622.3,1.024.758,1.024A2.145,2.145,0,0,0,32.782,46.188Z" transform="matrix(0.978, -0.208, 0.208, 0.978, 761.624, 1693.355)" fill="#fff"/><path d="M193.187,12418.214l-1.8-.878a18.606,18.606,0,0,0,1.331-6.661,15.835,15.835,0,0,0-1.115-6.187,16.314,16.314,0,0,0-4.735-6.364c-1.732-1.459-4.74-2.357-9.2-2.745-4.2-.365-9.3-.267-14.7-.162-7.686.148-16.4.317-24.436-.841-9.339-1.346-16.315-4.279-21.327-8.967a25.872,25.872,0,0,1-8.135-14.232,29.3,29.3,0,0,1,.893-13.636,44.733,44.733,0,0,1,4.452-10.145,38.051,38.051,0,0,1,2.691-4.029,1,1,0,1,1,1.564,1.246,43.937,43.937,0,0,0-6.8,13.541,27.28,27.28,0,0,0-.826,12.685,23.919,23.919,0,0,0,7.53,13.109c4.7,4.4,11.325,7.162,20.246,8.448,7.877,1.136,16.5.966,24.112.821,5.458-.107,10.614-.206,14.916.168,4.95.432,8.227,1.451,10.313,3.209a18.273,18.273,0,0,1,5.32,7.193,17.847,17.847,0,0,1,1.24,7c-.006.331-.02.656-.041.973.478-.747,1-1.541,1.566-2.367,3.967-5.8,7.895-10.12,11.673-12.843,3.706-2.671,7.178-2.92,10.535-3.16a20.79,20.79,0,0,0,7.607-1.543c2.963-1.346,5.773-3.882,8.588-7.754a23.071,23.071,0,0,0,4.337-10.018,19.735,19.735,0,0,0-.479-8.228,21.41,21.41,0,0,0-3.807-7.663,1,1,0,1,1,1.515-1.3,23.187,23.187,0,0,1,4.222,8.445,21.725,21.725,0,0,1,.525,9.057,25.048,25.048,0,0,1-4.7,10.887c-3.024,4.159-6.092,6.906-9.379,8.4a22.693,22.693,0,0,1-8.291,1.718c-3.221.23-6.263.448-9.508,2.788-3.535,2.547-7.4,6.81-11.177,12.327A85.913,85.913,0,0,0,193.187,12418.214Z" transform="translate(-2356.369 -10248.52) rotate(-14)" fill="#fff"/></g></svg>