<svg xmlns="http://www.w3.org/2000/svg" width="273.272" height="169.047" viewBox="0 0 273.272 169.047"><g transform="translate(-726.57 -2022.947)"><path d="M13.068-9.614v.132l.088,8.1V-.9A13,13,0,0,1,13.068.836H14.85a19.976,19.976,0,0,1-.11-2.244l-.154-10.714h3.278a18,18,0,0,1,1.826.066v-1.606a11.118,11.118,0,0,1-2.2.132h-2.9l-.044-2.2v-.528a8.45,8.45,0,0,1,.088-1.21H12.87a10.483,10.483,0,0,1,.11,1.782L13-13.53l-8.008.044a12.432,12.432,0,0,1-2.486-.154v1.65a17.286,17.286,0,0,1,2.442-.088l7.216-.044A21.207,21.207,0,0,1,9-8.118,24.975,24.975,0,0,1,1.54-2.86a3.547,3.547,0,0,1,1.1,1.32A33.843,33.843,0,0,0,6.27-3.806a25.675,25.675,0,0,0,5.214-4.862,13.7,13.7,0,0,0,1.65-2.464c-.044.946-.066,1.276-.066,1.43ZM23.914-7.546a24.033,24.033,0,0,1,2.728-.088H39.4a25.167,25.167,0,0,1,2.684.088V-9.328a17.352,17.352,0,0,1-2.662.11H26.642a15.563,15.563,0,0,1-2.728-.132ZM56.452-11.9v-1.936l.022-1.584a10.613,10.613,0,0,1,.11-1.87H54.736a10.592,10.592,0,0,1,.11,1.87v1.584c0,.682,0,1.122-.022,1.936H48.686a13.562,13.562,0,0,1-2.574-.154v1.716a20.251,20.251,0,0,1,2.552-.11h6.094c-.176,2.618-.418,3.74-1.122,5.06A10.163,10.163,0,0,1,48.18-.858,4.806,4.806,0,0,1,49.3.55a12.673,12.673,0,0,0,5.456-4.6c1.056-1.672,1.452-3.322,1.628-6.4h4.972a20.251,20.251,0,0,1,2.552.11v-1.716a13.428,13.428,0,0,1-2.574.154ZM67.914-7.546a24.033,24.033,0,0,1,2.728-.088H83.4a25.167,25.167,0,0,1,2.684.088V-9.328a17.352,17.352,0,0,1-2.662.11H70.642a15.563,15.563,0,0,1-2.728-.132ZM90.992-15.6a11.9,11.9,0,0,1,.066,1.3c.11,5.412.418,8.228,1.188,10.318C92.994-1.87,94.138-.638,95.37-.638c1.562,0,2.574-1.474,3.652-5.324a7.032,7.032,0,0,1-1.3-1.254A15.828,15.828,0,0,1,96.58-3.454c-.33.726-.7,1.1-1.1,1.1-.836,0-1.738-1.518-2.222-3.762a37.674,37.674,0,0,1-.572-6.842,15.948,15.948,0,0,1,.154-2.618Zm11.132,1.87A19.43,19.43,0,0,1,106.7-2.882l1.562-.638a21.065,21.065,0,0,0-1.65-5.874,19.1,19.1,0,0,0-3.146-5.016Zm10.494,1.012h.176c.132,0,.33,0,.616.022,1.276.088,2.244.132,3.652.154a33.168,33.168,0,0,1-2.948,7.172l1.584.638a4.707,4.707,0,0,1,1.848-1.408,11.981,11.981,0,0,1,5.1-1.188c2.64,0,4.224,1.012,4.224,2.684,0,2.112-2.288,3.5-5.764,3.5a13.426,13.426,0,0,1-5.5-1.1c.066.7.11,1.1.11,1.21V-.9a2.43,2.43,0,0,1-.022.352,16.447,16.447,0,0,0,5.434.858c4.444,0,7.37-1.958,7.37-4.95,0-2.464-2.222-4.048-5.7-4.048a11.285,11.285,0,0,0-6.4,1.848l-.022-.044a29.731,29.731,0,0,0,2.2-5.654,73.522,73.522,0,0,0,8.162-.638c.462-.066.594-.066.968-.11l-.11-1.584c-1.43.484-4.356.792-8.668.946.22-.792.286-1.056.594-2.332a11.155,11.155,0,0,1,.352-1.408l-1.76-.176a17.143,17.143,0,0,1-.7,3.938,20.113,20.113,0,0,1-4.752-.374Zm32.3-1.782a22.234,22.234,0,0,1-4.488.946v-2.112a12.582,12.582,0,0,1,.11-2.046h-1.628a14.615,14.615,0,0,1,.11,2.09v2.178c-.66.044-1.518.066-2.112.066a12.46,12.46,0,0,1-2.244-.154v1.452h.9c.242.022.836.022,1.166.022.638,0,1.012,0,1.408-.022.682-.044.682-.044.88-.066v4.158a11.769,11.769,0,0,0-3.1,1.8,3.982,3.982,0,0,0-1.738,2.926,2.653,2.653,0,0,0,1.012,2.068A5.81,5.81,0,0,0,138.82.22c1.078,0,1.606-.572,1.606-1.76v-5.5A14.844,14.844,0,0,1,145.09-7.9c2.882,0,4.708,1.342,4.708,3.5a2.92,2.92,0,0,1-2.948,3.1c-1.606,0-2.266-.946-2.266-3.234a6.533,6.533,0,0,1,.044-.858,4.768,4.768,0,0,1-1.452.572,8.028,8.028,0,0,0,.264,2.486A3.245,3.245,0,0,0,146.828.154,4.453,4.453,0,0,0,151.316-4.4a4.427,4.427,0,0,0-2.266-3.894,7.448,7.448,0,0,0-3.894-.924,15.586,15.586,0,0,0-4.73.792v-3.806a38.612,38.612,0,0,0,3.894-.66c.308-.066.4-.088.66-.132Zm-5.9,12.144c0,.946-.066,1.078-.506,1.078a4.109,4.109,0,0,1-1.958-.638c-.638-.418-.946-.858-.946-1.32,0-1.056,1.232-2.244,3.41-3.3ZM152.24-11.66a18.487,18.487,0,0,0-4.444-4.18l-1.144.858A18.019,18.019,0,0,1,151.1-10.67Zm6.864-5.5a6.768,6.768,0,0,1,.088,1.166c0,.352,0,.77-.022,1.43-.176,6.93-.2,7.48-.2,8.954,0,2.31.308,3.476,1.21,4.51A5.217,5.217,0,0,0,164.318.44a7.7,7.7,0,0,0,6.2-2.75A13.383,13.383,0,0,0,172.964-7.3,6.223,6.223,0,0,1,171.38-8.36,13.069,13.069,0,0,1,170.3-4.906a6.318,6.318,0,0,1-5.9,3.828,4.152,4.152,0,0,1-2.75-.858,3.463,3.463,0,0,1-1.034-2.64c-.022-.506-.044-1.056-.044-1.32,0-.99.066-3.982.154-6.622a33.92,33.92,0,0,1,.286-4.642ZM18.81,33.15a11.124,11.124,0,0,1,1.936.11V31.984a10.229,10.229,0,0,1-1.936.11H7.656c.088-.99.132-1.606.132-2.354V28.552h10.89a12.392,12.392,0,0,1,2.068.11v-1.32a11.893,11.893,0,0,1-2.09.11H8.36a14.221,14.221,0,0,1-1.914-.088,16.979,16.979,0,0,1,.088,2.046c0,4.048-.638,6.4-2.244,8.206a3.446,3.446,0,0,1,1.122.9A10.671,10.671,0,0,0,7.524,33.15h2.09v3.784a15.8,15.8,0,0,1-2.376.33l.4,1.342c.55-.154.946-.242,2.156-.528,2.024-.462,2.662-.616,4.554-1.188l-.088-1.144c-1.716.528-2.244.66-3.366.924V33.15h1.936A8.25,8.25,0,0,0,15.2,36.142a12.539,12.539,0,0,0,5.258,2.442,5.005,5.005,0,0,1,.66-1.276,10.833,10.833,0,0,1-4.026-1.3,17.826,17.826,0,0,0,2.618-1.892l-.968-.726a10.815,10.815,0,0,1-2.6,2.024,5.819,5.819,0,0,1-2-2.266ZM15.774,20.28v-.132a6.739,6.739,0,0,1,.11-1.43H14.5a7.169,7.169,0,0,1,.088,1.408v.154H12.078v-.154a7.169,7.169,0,0,1,.088-1.408H10.78a6.256,6.256,0,0,1,.11,1.43v.132H9.174a16.979,16.979,0,0,1-2.046-.088,13.96,13.96,0,0,1,.088,1.848v2.376a13.493,13.493,0,0,1-.088,1.87c.572-.044,1.166-.066,1.936-.066h8.624c.88,0,1.43.022,2.046.066a15.08,15.08,0,0,1-.088-1.914V22.018a13.6,13.6,0,0,1,.088-1.826,16.519,16.519,0,0,1-2.046.088Zm-4.84.99v1.474H8.426V21.27Zm1.144,0h2.508v1.474H12.078Zm3.652,0h2.684v1.474H15.73Zm-4.8,2.442v1.54H8.426v-1.54Zm1.144,0h2.508v1.54H12.078Zm3.652,0h2.684v1.54H15.73ZM1.87,19.862a15.539,15.539,0,0,1,3.3,3.014l.99-1.012a17.736,17.736,0,0,0-3.344-2.926Zm-.9,5.412A15.251,15.251,0,0,1,4.51,28.09l.858-1.1A18.144,18.144,0,0,0,1.8,24.284Zm3.256,5.3c-1.012,3.058-2.2,5.39-3.256,6.446l1.254,1.122c.088-.176.154-.286.748-1.342a25.585,25.585,0,0,0,2.31-5.324Zm15.2-.88a11.764,11.764,0,0,1-1.672.088H10.67A11.568,11.568,0,0,1,9,29.7v1.21a12.166,12.166,0,0,1,1.672-.088h7.062a12.935,12.935,0,0,1,1.694.088Zm9.5,3.674a14.85,14.85,0,0,1-2.266-.132v1.43a17.233,17.233,0,0,1,2.266-.132h5.06V36.67c0,.506-.22.638-1.012.638a21.021,21.021,0,0,1-3.08-.264,4.725,4.725,0,0,1,.374,1.32c.946.088,1.826.132,2.464.132a3.894,3.894,0,0,0,2.134-.33,1.659,1.659,0,0,0,.528-1.452V34.536h5.17a17.35,17.35,0,0,1,2.288.132v-1.43a16,16,0,0,1-2.288.132H35.4v-.308A27.055,27.055,0,0,0,40.546,30.6l-.77-.88a10.884,10.884,0,0,1-1.738.088H30.206a12.847,12.847,0,0,1-2.178-.132V31.06a13.9,13.9,0,0,1,2.2-.11H37.8a15.619,15.619,0,0,1-2.97,1.3h-.9c.022.308.044.594.066,1.122ZM26.422,20.72H40.106a16.458,16.458,0,0,1,2.442.11V19.4a15.656,15.656,0,0,1-2.464.132H27.61a23.95,23.95,0,0,1-2.706-.11,22.655,22.655,0,0,1,.132,3.476,51,51,0,0,1-.77,10.538,12.09,12.09,0,0,1-1.474,3.784,5.343,5.343,0,0,1,1.1,1.122,13.567,13.567,0,0,0,1.5-3.564c.7-2.618,1.034-6.512,1.034-12.32ZM28.6,26.682a14.836,14.836,0,0,1-.088,1.848c.726-.066,1.408-.088,2.4-.088h7.546c.968,0,1.65.022,2.4.088a14.545,14.545,0,0,1-.088-1.87V23.932a13.75,13.75,0,0,1,.088-1.848c-.726.066-1.32.088-2.4.088H30.91c-1.078,0-1.672-.022-2.4-.088a14.836,14.836,0,0,1,.088,1.848Zm1.342-3.432h9.482v1.5H29.942Zm0,2.552h9.482v1.584H29.942ZM52.1,32.116a5.657,5.657,0,0,1,.77.022,2.391,2.391,0,0,1,.286.022,3.142,3.142,0,0,1,.726.066V30.84a10.107,10.107,0,0,1-1.782.11H50.248a16.235,16.235,0,0,0,.176-1.914h1.584l1.034.044a3.118,3.118,0,0,1,.506.022,1.644,1.644,0,0,0,.242.044V27.782a9.119,9.119,0,0,1-1.76.11H50.468c.022-.7.022-.88.088-1.5H49.17a8.563,8.563,0,0,1,.088,1.5H47.7a8.981,8.981,0,0,1-1.76-.11v1.364a10.26,10.26,0,0,1,1.782-.11h1.5c-.022.748-.088,1.364-.154,1.914H47.08a9.957,9.957,0,0,1-1.782-.11v1.386a10.691,10.691,0,0,1,1.8-.11H48.84a6.613,6.613,0,0,1-1.254,2.816,7.809,7.809,0,0,1-2.816,2.354,3.474,3.474,0,0,1,.9,1.078,8.79,8.79,0,0,0,4.114-5.3A10.11,10.11,0,0,0,52.4,36.208a3.917,3.917,0,0,1,.77-1.188,8.085,8.085,0,0,1-2.728-2.9Zm4.818-11.682a15.805,15.805,0,0,1-2.068-.088,12.306,12.306,0,0,1,.088,1.694v8.1a15.956,15.956,0,0,1-.088,2,11.394,11.394,0,0,1,1.628-.066h6.732a22.337,22.337,0,0,1-.308,3.542c-.22,1.188-.484,1.518-1.232,1.518a13.563,13.563,0,0,1-2.442-.308,3.154,3.154,0,0,1,.308,1.342,19.3,19.3,0,0,0,2.178.176,2,2,0,0,0,1.914-.77,11.234,11.234,0,0,0,.88-4.664c.088-1.54.088-1.672.11-1.826a.488.488,0,0,0,.022-.2,16.719,16.719,0,0,1-1.782.066H56.188V29.432h6.93a12.246,12.246,0,0,1,1.8.088v-1.3a10.26,10.26,0,0,1-1.782.11H56.188v-1.5h5.28c.638,0,1.254.022,1.8.044-.044-.506-.066-1.012-.066-1.87V22.128c0-.814.022-1.3.066-1.782a16.152,16.152,0,0,1-2.112.088H58.938c.264-.506.44-.858.77-1.584L58.3,18.542a8,8,0,0,1-.7,1.892Zm-.726,2.684V21.512H61.93v1.606Zm0,1.012H61.93v1.65H56.188Zm-3.08-5.258c-1.5.968-4.818,1.782-7.964,1.936a3.552,3.552,0,0,1,.638,1.21,26.324,26.324,0,0,0,8.184-2.112ZM48.29,26.154a18.572,18.572,0,0,0-1.452-3.564l-1.078.352a15.37,15.37,0,0,1,1.408,3.652Zm6.028,6.71a11.117,11.117,0,0,1-1.628,4.554l1.122.66a13.643,13.643,0,0,0,1.606-4.84Zm1.782.352a18.953,18.953,0,0,1,.286,3.63c0,.132-.022.352-.022.616l1.166-.286a24.606,24.606,0,0,0-.374-4.114Zm2.046-.088a14.167,14.167,0,0,1,.7,3.366l1.056-.308a16.369,16.369,0,0,0-.77-3.278ZM60.214,33a12.464,12.464,0,0,1,.946,2.684l.968-.4a15.612,15.612,0,0,0-1.012-2.6Zm-9.306-7.722a19.011,19.011,0,0,0-1.034-3.322l-1.122.33a16.964,16.964,0,0,1,1.056,3.388ZM53.2,21.336a18.276,18.276,0,0,1-1.826,4.95l1.012.506a22.279,22.279,0,0,0,1.98-4.884Zm17.974,2.6a11.121,11.121,0,0,1-2.376-.154l.022,1.672a15.859,15.859,0,0,1,2.332-.11l4-.022A13.066,13.066,0,0,1,68.068,36.34a4.876,4.876,0,0,1,1.122,1.3,16.245,16.245,0,0,0,5.764-5.83,16.6,16.6,0,0,0,1.76-6.49l6.16-.022a48.441,48.441,0,0,1-.55,7.81c-.418,2.178-.77,2.706-1.848,2.706a9.844,9.844,0,0,1-2.838-.55,3.445,3.445,0,0,1,.242,1.364v.264a12.522,12.522,0,0,0,2.728.374c1.98,0,2.64-.792,3.19-3.806a59.662,59.662,0,0,0,.616-7.7,3.52,3.52,0,0,1,.176-1.3l-.814-.726a3.216,3.216,0,0,1-1.452.154l-5.5.022c.044-.55.066-.792.11-1.562a20.227,20.227,0,0,1,.176-2.838l-1.782-.022a5.662,5.662,0,0,1,.088,1.122c0,.968-.044,2.178-.132,3.322Zm10.868-4.29a17.156,17.156,0,0,1,2.244,3.5l1.1-.66a17.537,17.537,0,0,0-2.244-3.41Zm2.486-1.188a17.555,17.555,0,0,1,2.266,3.454l1.1-.616A16.962,16.962,0,0,0,85.6,17.86Zm8.4,3.586a14.661,14.661,0,0,1,2.288-.11h7.392a14.661,14.661,0,0,1,2.288.11V20.346a10.1,10.1,0,0,1-2.31.154H95.238a10.1,10.1,0,0,1-2.31-.154ZM91.036,27.1a20.251,20.251,0,0,1,2.552-.11h11.484a13.555,13.555,0,0,1-3.564,5.764A15.1,15.1,0,0,1,94.974,36.1a4.786,4.786,0,0,1,.946,1.518c5.7-1.914,8.734-4.73,10.6-9.856a6.381,6.381,0,0,1,.616-1.386l-.814-.946a3.715,3.715,0,0,1-1.43.154H93.61a15.829,15.829,0,0,1-2.574-.132Zm37.18-4.8c-.7,1.386-2.156,2.97-4.642,5.06a13.78,13.78,0,0,1-1.848-4.708V21.138a11.733,11.733,0,0,1,.176-2.2h-1.738a14.484,14.484,0,0,1,.154,2.222V36.186c0,.528-.132.638-.748.638a16.146,16.146,0,0,1-2.948-.308,4.378,4.378,0,0,1,.352,1.518,26.628,26.628,0,0,0,2.794.154c1.562,0,2-.374,2-1.76V29.916c0-1.166-.044-2.376-.176-4.29a14.431,14.431,0,0,0,1.166,2.794,19.41,19.41,0,0,0,2.486,3.652,18.774,18.774,0,0,0,4.73,4.026,5.019,5.019,0,0,1,1.166-1.386,15.963,15.963,0,0,1-4.29-3.08,20.159,20.159,0,0,1-2.6-3.146c1.254-.99,1.254-.99,1.87-1.54.814-.748,2.31-2.266,2.838-2.882a6.805,6.805,0,0,1,.616-.682Zm-9.878,1.87a13.928,13.928,0,0,1-2.09.088h-2.354a13.134,13.134,0,0,1-2.134-.11v1.606a12.731,12.731,0,0,1,2.09-.132h3.63a16.088,16.088,0,0,1-2.9,5.9,14.52,14.52,0,0,1-3.652,3.432,4.958,4.958,0,0,1,1.232,1.1,18.811,18.811,0,0,0,6.556-9.7c.264-.836.286-.924.462-1.364Zm18.524-5.148a22.828,22.828,0,0,1,.132,3.5,48.344,48.344,0,0,1-.572,8.316,12.1,12.1,0,0,1-3.476,6.512,4.188,4.188,0,0,1,1.056,1.1,14.817,14.817,0,0,0,3.586-6.864,12.631,12.631,0,0,0,2.816,3.388,4.152,4.152,0,0,1,.9-1.144A12.456,12.456,0,0,1,137.9,30a27.424,27.424,0,0,0,.33-3.1,14.763,14.763,0,0,0,2.86-2.97,2.685,2.685,0,0,1,.44-.55l-1.078-.946a10.63,10.63,0,0,1-2.156,2.926c.044-1.122.044-1.936.066-4.6a9.47,9.47,0,0,1,.132-1.738Zm7.9,2.992c.132-.4.22-.66.308-.968a17.827,17.827,0,0,1,.572-1.98l-1.562-.308a11.5,11.5,0,0,1-.506,2.618,14.376,14.376,0,0,1-3.454,6.028,3.446,3.446,0,0,1,1.122.9,17.531,17.531,0,0,0,3.058-5.038h6.754a16.336,16.336,0,0,1-2.662,4.664,3.745,3.745,0,0,1,1.254.7,21.674,21.674,0,0,0,2.53-4.554,10.037,10.037,0,0,1,.572-1.3l-.792-.858a9.474,9.474,0,0,1-1.65.088ZM134.4,29.52a18.651,18.651,0,0,0,1.1-6.226l-1.3-.2a16.9,16.9,0,0,1-.352,3.476,9.831,9.831,0,0,1-.748,2.42ZM145.09,24.7a15.141,15.141,0,0,1,.066,1.562,13.348,13.348,0,0,1-1.628,7.04,11.25,11.25,0,0,1-4.774,4.334,3.379,3.379,0,0,1,.99,1.166,13.136,13.136,0,0,0,4.07-3.52,10.2,10.2,0,0,0,2.112-5.236,11.066,11.066,0,0,0,2.178,5.038,13.526,13.526,0,0,0,4.29,3.63,4.643,4.643,0,0,1,.9-1.32,11.658,11.658,0,0,1-4.554-3.718,12.255,12.255,0,0,1-2.222-7.48,9.58,9.58,0,0,1,.088-1.5Zm12.32-.506a12.006,12.006,0,0,1,1.364-.066,46.8,46.8,0,0,0,5.94-.4c.55,1.188.682,1.43,1.254,2.508a43.826,43.826,0,0,1-6.93.55,17.1,17.1,0,0,1-1.76-.066l.044,1.452c.4-.044.484-.044,1.54-.088a45.834,45.834,0,0,0,7.722-.638,20.164,20.164,0,0,0,2.354,3.388,13.224,13.224,0,0,0-4.444-.638c-4.18,0-6.71,1.43-6.71,3.806a3.073,3.073,0,0,0,1.65,2.728,8.877,8.877,0,0,0,4.532.924,19.162,19.162,0,0,0,5.632-.814,12.811,12.811,0,0,1,1.32-.374l-.308-1.716A14.83,14.83,0,0,1,164.1,36.23c-3.014,0-4.686-.792-4.686-2.244,0-1.518,2.046-2.508,5.214-2.508a22.241,22.241,0,0,1,2.882.2,5.965,5.965,0,0,1,2.42.836l1.3-.924a25.786,25.786,0,0,1-3.234-4.378c.814-.154,1.914-.4,3.454-.792.726-.2.814-.2,1.188-.286l-.176-1.474a22.379,22.379,0,0,1-5.038,1.364c-.33-.594-.924-1.76-1.254-2.486,1.232-.2,3.586-.7,5.544-1.232l-.132-1.43a27.832,27.832,0,0,1-5.874,1.452,18.324,18.324,0,0,1-1.166-3.1l-1.65.286a28.491,28.491,0,0,1,1.32,3.014,43.468,43.468,0,0,1-5.214.308c-.748,0-1.122-.022-1.65-.066Zm20.812,5.368a7.755,7.755,0,0,1,1.848-1.54,4.508,4.508,0,0,1,2.266-.572c1.342,0,2.222.374,3.96,1.672a10.959,10.959,0,0,0,3.058,1.782,6.941,6.941,0,0,0,2.09.352,5.943,5.943,0,0,0,2.9-.748,9,9,0,0,0,2.53-2.266l-1.144-.99a5.866,5.866,0,0,1-2.508,2.134,4.279,4.279,0,0,1-1.76.374c-1.254,0-2.376-.484-4.224-1.8a13.511,13.511,0,0,0-2.068-1.32,5.943,5.943,0,0,0-2.75-.638c-1.98,0-3.344.682-5.3,2.6Zm31.592,3.322c-.044-.55-.066-.946-.066-1.342,0-.088,0-.088.022-1.012l.176-7.832c.022-.924.066-1.584.132-2.42H207.9c.088.836.11,1.5.132,2.42l.2,7.832v.792c0,.726,0,.88-.044,1.562ZM210.078,37V34.932h-2.134V37Z" transform="matrix(0.978, -0.208, 0.208, 0.978, 753.754, 2084.402)" fill="#fff"/><path d="M117.874-18.118l2.34.234-.1.3a11.042,11.042,0,0,0-.345,1.384c-.263,1.088-.35,1.442-.506,2.015a35.937,35.937,0,0,0,8.256-.92l.307-.1.149,2.145-.237.028c-.143.017-.251.027-.355.037-.167.016-.324.031-.607.072a73.064,73.064,0,0,1-8.008.634A35.87,35.87,0,0,1,117-7.526a12.212,12.212,0,0,1,5.8-1.414c3.613,0,5.948,1.687,5.948,4.3a4.456,4.456,0,0,1-2.129,3.8,9.876,9.876,0,0,1-5.491,1.4,16.745,16.745,0,0,1-5.514-.871l-.2-.066.029-.206a2.177,2.177,0,0,0,.02-.317v-.132c0-.061-.021-.28-.051-.584q-.024-.251-.058-.6l-.04-.422.388.169a13.246,13.246,0,0,0,5.4,1.079,7.915,7.915,0,0,0,4.056-.921,2.69,2.69,0,0,0,1.458-2.327c0-1.524-1.486-2.434-3.974-2.434a11.7,11.7,0,0,0-4.992,1.162A4.5,4.5,0,0,0,115.9-4.578l-.116.15-2.038-.821.16-.253A32.562,32.562,0,0,0,116.73-12.3c-1.192-.023-2.1-.064-3.337-.149-.278-.021-.471-.021-.6-.021h-.433l.06-2.132.3.077a19.324,19.324,0,0,0,4.5.366,16.485,16.485,0,0,0,.646-3.693Zm1.673.67-1.189-.119a18.564,18.564,0,0,1-.7,3.728l-.05.185h-.192a22.694,22.694,0,0,1-4.511-.311l-.028,1c.132,0,.312,0,.554.023,1.335.092,2.287.132,3.637.153l.327.005-.09.314a34.592,34.592,0,0,1-2.821,6.981l1.138.458a5.08,5.08,0,0,1,1.817-1.331,12.224,12.224,0,0,1,5.214-1.213,6.1,6.1,0,0,1,3.236.754,2.5,2.5,0,0,1,1.238,2.18,3.165,3.165,0,0,1-1.7,2.755,8.4,8.4,0,0,1-4.315.993,13.826,13.826,0,0,1-5.212-.959l.018.187c.038.389.053.55.053.632V-.9c0,.039,0,.1,0,.177a16.3,16.3,0,0,0,5.166.783,9.389,9.389,0,0,0,5.212-1.311,3.976,3.976,0,0,0,1.908-3.389,3.257,3.257,0,0,0-1.44-2.744A6.918,6.918,0,0,0,122.8-8.44a11.006,11.006,0,0,0-6.253,1.8l-.239.178-.217-.434.072-.118a29.381,29.381,0,0,0,2.173-5.593l.05-.174.182-.006a73.283,73.283,0,0,0,8.138-.636c.29-.042.453-.057.626-.074l.108-.011-.071-1.029a41.33,41.33,0,0,1-8.432.864l-.341.012.091-.329c.22-.793.285-1.054.592-2.324C119.441-17.019,119.5-17.268,119.547-17.448Zm19.075-.512h2.2l-.041.285a12.405,12.405,0,0,0-.108,2.011v1.827a21.266,21.266,0,0,0,4.156-.9l.316-.109.091,2.03-.219.036c-.21.035-.306.056-.5.1l-.15.032c-1.661.344-2.7.524-3.7.639V-8.76a15.454,15.454,0,0,1,4.48-.708,7.67,7.67,0,0,1,4.024.96A4.691,4.691,0,0,1,151.566-4.4,4.823,4.823,0,0,1,150.2-.982,4.69,4.69,0,0,1,146.828.4a3.485,3.485,0,0,1-3.63-2.672,8.287,8.287,0,0,1-.272-2.555l0-.19.184-.047a4.51,4.51,0,0,0,1.392-.548l.424-.238-.054.483a6.3,6.3,0,0,0-.042.83c0,2.477.806,2.984,2.016,2.984a2.632,2.632,0,0,0,1.936-.8,2.953,2.953,0,0,0,.762-2.055c0-2-1.708-3.248-4.458-3.248a14.276,14.276,0,0,0-4.414.791V-1.54c0,1.661-1.009,2.01-1.856,2.01A6.065,6.065,0,0,1,135.024-1a2.917,2.917,0,0,1-1.1-2.255,4.233,4.233,0,0,1,1.826-3.116,11.7,11.7,0,0,1,3.014-1.778v-3.719l-.614.041c-.405.023-.789.023-1.424.023-.345,0-.918,0-1.177-.022h-1.141v-2l.292.05a12.326,12.326,0,0,0,2.2.15c.492,0,1.228-.016,1.862-.051V-15.62a14.52,14.52,0,0,0-.108-2.057Zm1.628.5H139.19a16.155,16.155,0,0,1,.078,1.84v2.412l-.233.016c-.69.046-1.566.067-2.129.067a13.857,13.857,0,0,1-1.994-.112v.91h.675c.231.021.824.021,1.143.021.627,0,1.005,0,1.394-.022.674-.043.674-.043.866-.065l.278-.031v4.6l-.152.065a11.507,11.507,0,0,0-3.04,1.766,3.781,3.781,0,0,0-1.649,2.734,2.409,2.409,0,0,0,.926,1.879A5.539,5.539,0,0,0,138.82-.03c.938,0,1.356-.466,1.356-1.51V-7.222l.174-.056a15.023,15.023,0,0,1,4.74-.87,6,6,0,0,1,3.584.99A3.308,3.308,0,0,1,150.048-4.4a3.17,3.17,0,0,1-3.2,3.352,2.184,2.184,0,0,1-1.94-.866,4.542,4.542,0,0,1-.576-2.618c0-.144,0-.271.007-.422a4.614,4.614,0,0,1-.918.33,7.485,7.485,0,0,0,.258,2.227,2.978,2.978,0,0,0,1.106,1.7,3.374,3.374,0,0,0,2.041.6,4.194,4.194,0,0,0,3.015-1.237A4.326,4.326,0,0,0,151.066-4.4a4.2,4.2,0,0,0-2.143-3.679,7.187,7.187,0,0,0-3.767-.889,15.282,15.282,0,0,0-4.658.782l-.322.1v-4.366l.224-.024a38.3,38.3,0,0,0,3.87-.656l.148-.032c.121-.026.206-.045.3-.063l-.041-.925a23.755,23.755,0,0,1-4.221.853l-.282.036v-2.4A14.211,14.211,0,0,1,140.251-17.46ZM12.583-17.718h2.333l-.039.284a8.2,8.2,0,0,0-.086,1.176v.528l.039,1.95H17.49a10.832,10.832,0,0,0,2.161-.129l.289-.045v2.173l-.274-.026a17.712,17.712,0,0,0-1.8-.065H14.84l.15,10.46A19.818,19.818,0,0,0,15.1.808l.031.278H12.791L12.819.81A12.715,12.715,0,0,0,12.906-.9v-.484L12.818-9.7c0-.078.005-.193.015-.394-.248.383-.569.813-1.15,1.579A26.046,26.046,0,0,1,6.416-3.6,33.676,33.676,0,0,1,2.763-1.323l-.22.125-.122-.222A3.294,3.294,0,0,0,1.383-2.666l-.318-.256.373-.166A24.829,24.829,0,0,0,8.821-8.295a21.968,21.968,0,0,0,2.9-3.574l-6.769.041a17.018,17.018,0,0,0-2.414.086l-.279.033v-2.226l.291.049a12.11,12.11,0,0,0,2.445.151l7.755-.043-.019-1.9a10.311,10.311,0,0,0-.108-1.75Zm1.764.5H13.156a12.065,12.065,0,0,1,.074,1.527l.025,2.409L5-13.236a13.643,13.643,0,0,1-2.237-.111v1.078a20.309,20.309,0,0,1,2.192-.059l7.651-.047L12.382-12A21.279,21.279,0,0,1,9.175-7.941,25.537,25.537,0,0,1,2-2.8a3.375,3.375,0,0,1,.732.915A31.724,31.724,0,0,0,6.122-4.008a25.533,25.533,0,0,0,5.162-4.811,13.478,13.478,0,0,0,1.627-2.428l.472.126c-.018.387-.032.671-.043.882-.015.3-.023.452-.023.537v.22l.088,8.093V-.9A12.868,12.868,0,0,1,13.345.586h1.229c-.057-.6-.083-1.245-.083-1.994l-.158-10.964h3.532c.759,0,1.206.016,1.576.044v-1.043a12.179,12.179,0,0,1-1.95.092H14.341l-.049-2.445v-.533A8.211,8.211,0,0,1,14.347-17.218Zm40.094-.324h2.433l-.042.287a10.222,10.222,0,0,0-.107,1.8v.037L56.7-13.835v1.683h4.634a13.193,13.193,0,0,0,2.532-.15l.292-.05v2.294l-.279-.033a19.977,19.977,0,0,0-2.523-.108H56.622c-.19,3.038-.615,4.644-1.652,6.285A12.864,12.864,0,0,1,49.414.774L49.2.879l-.118-.2A4.576,4.576,0,0,0,48.011-.674l-.293-.268.368-.148a9.946,9.946,0,0,0,5.329-4.418A10.344,10.344,0,0,0,54.49-10.2H48.664a19.977,19.977,0,0,0-2.523.108l-.279.033v-2.292l.291.049a13.442,13.442,0,0,0,2.533.151H54.58c.016-.663.016-1.083.016-1.686v-1.584a10.261,10.261,0,0,0-.107-1.829Zm1.855.5h-1.27a12.563,12.563,0,0,1,.07,1.62v1.584c0,.678,0,1.125-.022,1.943l-.007.243H48.686a15.123,15.123,0,0,1-2.324-.112v1.145a22.459,22.459,0,0,1,2.3-.081h6.361l-.018.267c-.179,2.665-.437,3.823-1.151,5.161a10.253,10.253,0,0,1-5.226,4.5,4.533,4.533,0,0,1,.767,1,12.218,12.218,0,0,0,5.148-4.4c1.012-1.6,1.414-3.189,1.591-6.284l.013-.236h5.208a22.459,22.459,0,0,1,2.3.081v-1.144a15.034,15.034,0,0,1-2.324.111H56.2v-2.186l.023-1.625A12.96,12.96,0,0,1,56.3-17.042Zm102.518-.368h2.5l-.052.293a33.34,33.34,0,0,0-.282,4.6c-.091,2.723-.154,5.671-.154,6.616,0,.268.023.838.044,1.306a3.227,3.227,0,0,0,.952,2.468,3.935,3.935,0,0,0,2.583.794,5.988,5.988,0,0,0,3.323-.933,6.855,6.855,0,0,0,2.349-2.757,12.769,12.769,0,0,0,1.056-3.391l.084-.419.324.278a5.968,5.968,0,0,0,1.533,1.022l.192.1-.066.2a13.612,13.612,0,0,1-2.49,5.08A7.984,7.984,0,0,1,164.318.69a5.451,5.451,0,0,1-4.325-1.626c-.939-1.076-1.271-2.3-1.271-4.674,0-1.222.016-1.845.12-5.9.022-.855.048-1.862.078-3.061.022-.658.022-1.065.022-1.424a6.535,6.535,0,0,0-.085-1.129Zm1.911.5h-1.334a6.878,6.878,0,0,1,.051.916c0,.345,0,.774-.022,1.438-.03,1.2-.056,2.2-.078,3.059-.1,4.049-.12,4.671-.12,5.887,0,2.265.29,3.361,1.148,4.346A4.982,4.982,0,0,0,164.318.19a7.412,7.412,0,0,0,6.013-2.661,12.8,12.8,0,0,0,2.329-4.707A5.722,5.722,0,0,1,171.54-7.9a12.585,12.585,0,0,1-1.013,3.1,6.573,6.573,0,0,1-6.121,3.97,4.367,4.367,0,0,1-2.917-.922,3.7,3.7,0,0,1-1.117-2.81v-.006c-.021-.474-.044-1.053-.044-1.331,0-.949.063-3.905.154-6.63A40.328,40.328,0,0,1,160.725-16.91Zm-12.933.761.149.105a18.763,18.763,0,0,1,4.5,4.231l.146.187L151.052-10.3l-.16-.223a17.855,17.855,0,0,0-4.381-4.251l-.29-.2Zm4.1,4.456a18.073,18.073,0,0,0-4.1-3.838l-.721.541a18.447,18.447,0,0,1,4.059,3.953ZM90.712-15.851l2.421.029-.046.286a15.784,15.784,0,0,0-.151,2.578A37.5,37.5,0,0,0,93.5-6.173a9.121,9.121,0,0,0,.951,2.652c.345.583.719.917,1.028.917.283,0,.593-.339.872-.953a15.57,15.57,0,0,0,1.126-3.706l.1-.514.338.4a6.793,6.793,0,0,0,1.262,1.219l.131.1-.045.161a14.626,14.626,0,0,1-1.679,4.18A2.59,2.59,0,0,1,95.37-.388c-1.345,0-2.57-1.28-3.36-3.511-.764-2.074-1.09-4.893-1.2-10.4l0-.116a10.543,10.543,0,0,0-.061-1.16Zm1.839.522-1.283-.015c.018.21.023.4.036.921l0,.117c.111,5.444.428,8.218,1.173,10.238.706,1.993,1.785,3.18,2.889,3.18,1.4,0,2.347-1.4,3.366-4.981a6.6,6.6,0,0,1-.867-.8A15.309,15.309,0,0,1,96.807-3.35c-.376.826-.822,1.246-1.327,1.246-.979,0-1.948-1.554-2.466-3.959a38.052,38.052,0,0,1-.578-6.895A17.99,17.99,0,0,1,92.551-15.329Zm10.978.607.128.151a19.355,19.355,0,0,1,3.184,5.077,21.234,21.234,0,0,1,1.668,5.934l.032.2-2.057.84-.032-.334a19.133,19.133,0,0,0-4.517-10.707l-.208-.242Zm4.454,11.046a20.451,20.451,0,0,0-1.6-5.615A18.767,18.767,0,0,0,103.4-14.1l-.883.449a19.617,19.617,0,0,1,4.395,10.409ZM23.664-9.647l.292.05a15.61,15.61,0,0,0,2.686.128H39.424a17.163,17.163,0,0,0,2.63-.108l.282-.036v2.341L42.063-7.3A25.026,25.026,0,0,0,39.4-7.384H26.642a23.854,23.854,0,0,0-2.7.087l-.275.027Zm15.76.679H26.642a19.518,19.518,0,0,1-2.478-.091V-7.82c.558-.048,1.1-.064,2.478-.064H39.4c1.293,0,1.851.018,2.434.065V-9.046A20.262,20.262,0,0,1,39.424-8.968Zm28.24-.679.292.05a15.61,15.61,0,0,0,2.686.128H83.424a17.163,17.163,0,0,0,2.63-.108l.282-.036v2.341L86.063-7.3A25.026,25.026,0,0,0,83.4-7.384H70.642a23.854,23.854,0,0,0-2.7.087l-.275.027Zm15.76.679H70.642a19.518,19.518,0,0,1-2.478-.091V-7.82c.558-.048,1.1-.064,2.478-.064H83.4c1.293,0,1.851.018,2.434.065V-9.046A20.262,20.262,0,0,1,83.424-8.968Zm55.844,2.035v4.579c0,.873-.034,1.328-.756,1.328a4.359,4.359,0,0,1-2.091-.676,1.922,1.922,0,0,1-1.063-1.532c0-1.163,1.261-2.415,3.551-3.525Zm-.756,5.407c.173,0,.183-.022.192-.041a2.712,2.712,0,0,0,.064-.787V-6.129c-1.855.959-2.91,2-2.91,2.9,0,.375.28.749.833,1.111A3.877,3.877,0,0,0,138.512-1.526ZM85.662,17.542l.132.158a17.193,17.193,0,0,1,2.318,3.476l.113.215-1.547.866-.114-.244a17.382,17.382,0,0,0-2.23-3.4l-.2-.233Zm1.893,3.651a16.318,16.318,0,0,0-2.013-3.014l-.632.348A18.152,18.152,0,0,1,86.9,21.56ZM58.114,18.245l1.949.426-.128.282c-.247.543-.408.878-.587,1.231H61.16a15.813,15.813,0,0,0,2.078-.086l.311-.042-.028.313c-.047.514-.065,1.008-.065,1.759V25.01c0,.792.018,1.31.065,1.848l.025.283-.284-.011c-.53-.021-1.149-.044-1.794-.044h-5.03v1h6.7a9.975,9.975,0,0,0,1.744-.107l.288-.044v1.882l-.289-.046a11.908,11.908,0,0,0-1.765-.085h-6.68V30.7h6.416a16.629,16.629,0,0,0,1.753-.064l.279-.033v.281a.8.8,0,0,1-.028.262c-.01.085-.017.206-.04.622-.014.255-.034.62-.064,1.155a11.382,11.382,0,0,1-.92,4.785l0,.005a2.249,2.249,0,0,1-2.121.879,19.427,19.427,0,0,1-2.208-.178l-.212-.025-.008-.213a2.916,2.916,0,0,0-.287-1.252l-.082-.188-.278.081-.034-.295a13.928,13.928,0,0,0-.694-3.318l-.084-.261,1.478-.328.071.214a16.568,16.568,0,0,1,.78,3.318l.034.217-.8.235a12.719,12.719,0,0,0,2.283.283c.528,0,.765-.119.986-1.314a21.244,21.244,0,0,0,.3-3.246H56.474a11.1,11.1,0,0,0-1.6.064l-.318.037.041-.317a15.5,15.5,0,0,0,.086-1.97v-8.1a11.944,11.944,0,0,0-.086-1.659l-.047-.328.328.045a15.559,15.559,0,0,0,2.034.086h.528a7.729,7.729,0,0,0,.615-1.7Zm1.237.782-.869-.19a8.171,8.171,0,0,1-.665,1.711l-.07.135h-.834c-.818,0-1.357-.016-1.783-.054.036.376.053.827.053,1.41v8.1c0,.761-.017,1.289-.056,1.721.388-.035.668-.035,1.346-.035H63.46l0,.254a22.493,22.493,0,0,1-.313,3.587c-.211,1.139-.5,1.719-1.477,1.719a11.642,11.642,0,0,1-2.047-.233,3.109,3.109,0,0,1,.151.793,17.709,17.709,0,0,0,1.94.15c1.046,0,1.428-.252,1.706-.658a11.257,11.257,0,0,0,.839-4.538c.031-.537.051-.9.064-1.156.018-.335.026-.484.035-.579-.371.026-.866.039-1.5.039H55.938V29.182h7.18c.7,0,1.182.016,1.554.054V28.51a11.5,11.5,0,0,1-1.532.072h-7.2v-2h5.53c.543,0,1.065.016,1.533.033-.032-.46-.045-.939-.045-1.609V22.128c0-.62.012-1.07.042-1.5-.43.04-.975.055-1.838.055H58.526l.191-.366C58.945,19.88,59.105,19.561,59.352,19.028Zm.273,16.98A15.407,15.407,0,0,0,58.97,33.2l-.5.112a13.534,13.534,0,0,1,.6,2.858ZM143.837,18.46l2.139.422-.1.275a17.551,17.551,0,0,0-.565,1.958c-.064.222-.126.419-.2.654h5.2a9.193,9.193,0,0,0,1.6-.083l.138-.028,1.014,1.1-.1.161a10.231,10.231,0,0,0-.554,1.262,21.868,21.868,0,0,1-2.559,4.607l-.154.214-.206-.165a3.509,3.509,0,0,0-1.18-.663l-.335-.117.223-.276a15.619,15.619,0,0,0,2.486-4.257h-6.216a17.846,17.846,0,0,1-3.036,4.95l-.185.217-.191-.212A3.2,3.2,0,0,0,140,27.628l-.29-.157.23-.237a14.132,14.132,0,0,0,3.393-5.925,11.132,11.132,0,0,0,.5-2.555Zm1.469.8-1-.2a13.052,13.052,0,0,1-.5,2.387,14.7,14.7,0,0,1-3.293,5.9,3.228,3.228,0,0,1,.713.583,17.13,17.13,0,0,0,2.835-4.754l.063-.156h7.291l-.136.342a16.693,16.693,0,0,1-2.487,4.46,3.731,3.731,0,0,1,.793.459,21.227,21.227,0,0,0,2.352-4.291c.245-.612.381-.939.5-1.167l-.577-.626a11.352,11.352,0,0,1-1.559.068h-5.891l.11-.329c.131-.394.218-.655.3-.958C145.126,19.855,145.212,19.537,145.307,19.259ZM10.475,18.468h2l-.065.3a6.535,6.535,0,0,0-.082,1.26h2.008a6.535,6.535,0,0,0-.082-1.26l-.065-.3h2l-.063.3a6.165,6.165,0,0,0-.1,1.26h1.664a16.208,16.208,0,0,0,2.017-.086l.316-.037-.039.316a13.369,13.369,0,0,0-.086,1.8v2.354a14.832,14.832,0,0,0,.086,1.884l.036.3-.3-.022c-.565-.04-1.1-.065-2.028-.065H9.064c-.739,0-1.33.02-1.917.065l-.318.024.052-.315a12.938,12.938,0,0,0,.085-1.829V22.04a13.709,13.709,0,0,0-.086-1.816l-.041-.317.318.037a16.639,16.639,0,0,0,2.017.086H10.64a5.651,5.651,0,0,0-.1-1.263Zm1.4.5h-.795a7.6,7.6,0,0,1,.062,1.18v.382H9.174c-.784,0-1.291-.016-1.763-.058.039.415.055.887.055,1.568v2.376c0,.7-.017,1.224-.052,1.6.5-.031,1.025-.046,1.65-.046h8.624c.779,0,1.287.017,1.766.047-.042-.45-.058-.922-.058-1.645V22.018c0-.684.015-1.121.055-1.546-.473.042-.968.058-1.763.058H15.524v-.382a8.368,8.368,0,0,1,.063-1.18h-.8a10.546,10.546,0,0,1,.045,1.158v.4H11.828v-.4A10.546,10.546,0,0,1,11.873,18.968Zm41.286-.427L54.371,20l-.305.133a26.552,26.552,0,0,1-8.252,2.131l-.21.027-.062-.2a3.309,3.309,0,0,0-.6-1.134l-.276-.375.466-.023c3.078-.151,6.375-.948,7.84-1.9Zm.4,1.267-.506-.61a19.538,19.538,0,0,1-7.45,1.833,3.313,3.313,0,0,1,.351.712A25.887,25.887,0,0,0,53.56,19.808ZM2.79,18.614l.17.119A17.924,17.924,0,0,1,6.345,21.7l.159.174L5.16,23.244l-.178-.2a15.24,15.24,0,0,0-3.253-2.972l-.25-.172Zm3.026,3.245a17.054,17.054,0,0,0-2.974-2.6l-.581.567A15.21,15.21,0,0,1,5.18,22.508Zm114.058-3.171h2.33l-.056.3a11.4,11.4,0,0,0-.172,2.154v1.5a13.214,13.214,0,0,0,1.666,4.346,17.565,17.565,0,0,0,4.351-4.788l.138-.272,1.824,1.442-.2.2a6.635,6.635,0,0,0-.6.665c-.534.623-2.03,2.143-2.861,2.906-.593.529-.623.556-1.7,1.408a19.629,19.629,0,0,0,2.433,2.915,15.672,15.672,0,0,0,4.229,3.036l.327.167-.276.243a4.8,4.8,0,0,0-1.117,1.328l-.129.212-.213-.127a19.038,19.038,0,0,1-4.792-4.079,19.615,19.615,0,0,1-2.516-3.7c-.247-.463-.427-.825-.591-1.207.05.968.071,1.778.071,2.585v6.512c0,1.522-.547,2.01-2.252,2.01a27.028,27.028,0,0,1-2.82-.155l-.209-.022-.014-.21a4.153,4.153,0,0,0-.336-1.445l-.159-.414.436.078a15.878,15.878,0,0,0,2.9.3c.5,0,.5-.029.5-.388V21.16a14.292,14.292,0,0,0-.151-2.185Zm1.732.5h-1.154a15.216,15.216,0,0,1,.117,1.972V36.186c0,.751-.336.888-1,.888A15.172,15.172,0,0,1,117,36.835a4.086,4.086,0,0,1,.2.971c.907.089,1.747.132,2.562.132,1.425,0,1.752-.282,1.752-1.51V29.916c0-1.228-.051-2.466-.175-4.273l.487-.1a14.193,14.193,0,0,0,1.149,2.754,19.132,19.132,0,0,0,2.455,3.606,18.572,18.572,0,0,0,4.459,3.847,4.813,4.813,0,0,1,.814-.988,15.92,15.92,0,0,1-4.032-2.958,20.281,20.281,0,0,1-2.628-3.185l-.129-.192.182-.144c1.248-.985,1.248-.985,1.858-1.53.817-.751,2.292-2.248,2.815-2.858.235-.282.306-.367.431-.5l-.91-.719a19.637,19.637,0,0,1-4.56,4.87l-.228.192-.149-.258A14.013,14.013,0,0,1,121.48,22.7l0-.022V21.138A12.567,12.567,0,0,1,121.606,19.188Zm-38.4-.434.129.158A17.75,17.75,0,0,1,85.6,22.367l.106.208-1.537.922-.118-.25a17.033,17.033,0,0,0-2.2-3.434l-.225-.241Zm1.849,3.632a17.01,17.01,0,0,0-1.98-3l-.637.331a18.694,18.694,0,0,1,1.952,3.068Zm51.524-3.61h2.206l-.046.289a9.2,9.2,0,0,0-.129,1.7l-.009,1.1c-.011,1.4-.017,2.162-.037,2.88a11.665,11.665,0,0,0,1.665-2.429l.149-.277,1.515,1.33-.189.189a2.464,2.464,0,0,0-.409.512,14.664,14.664,0,0,1-2.826,2.956,26.86,26.86,0,0,1-.31,2.929,12.239,12.239,0,0,0,3.3,3.678l.241.185-.228.2a3.9,3.9,0,0,0-.853,1.085l-.156.26-.225-.2a13.17,13.17,0,0,1-2.559-2.938,14.906,14.906,0,0,1-3.492,6.4l-.213.231-.177-.26a3.915,3.915,0,0,0-1-1.042l-.228-.173.2-.2a11.787,11.787,0,0,0,3.408-6.386,48.236,48.236,0,0,0,.567-8.265,22.464,22.464,0,0,0-.13-3.465Zm1.622.5h-1.054a26.331,26.331,0,0,1,.1,3.248,48.711,48.711,0,0,1-.577,8.365,12.387,12.387,0,0,1-3.348,6.439,4.151,4.151,0,0,1,.7.726,14.522,14.522,0,0,0,3.321-6.527l.15-.6.309.538a11.98,11.98,0,0,0,2.544,3.125,4.083,4.083,0,0,1,.574-.739,12.573,12.573,0,0,1-3.243-3.72l-.045-.078.015-.089a27.017,27.017,0,0,0,.327-3.079l.008-.107.083-.068a14.583,14.583,0,0,0,2.812-2.917,3.407,3.407,0,0,1,.287-.394l-.648-.569a10.4,10.4,0,0,1-2.06,2.719l-.439.388.023-.585c.037-.946.043-1.69.057-3.489l.009-1.1A9.8,9.8,0,0,1,138.2,19.276Zm26.525-.338.056.225a17.789,17.789,0,0,0,1.07,2.885,26.789,26.789,0,0,0,5.629-1.4l.316-.135.183,1.982-.2.055c-1.867.5-3.995.963-5.244,1.183.308.651.734,1.485,1.02,2.012a21.409,21.409,0,0,0,4.8-1.307l.316-.154.244,2.045-.217.051c-.116.027-.2.046-.293.065-.2.043-.388.083-.887.219-1.213.312-2.236.551-3.116.727a24.861,24.861,0,0,0,3.02,4.04l.178.208-1.652,1.176-.139-.081a5.729,5.729,0,0,0-2.335-.806,22.072,22.072,0,0,0-2.842-.195c-2.969,0-4.964.907-4.964,2.258,0,1.735,2.779,1.994,4.436,1.994a14.61,14.61,0,0,0,6.381-1.437l.312-.193.416,2.315-.236.051a12.7,12.7,0,0,0-1.3.369,19.277,19.277,0,0,1-5.7.825,9.132,9.132,0,0,1-4.656-.957,3.326,3.326,0,0,1-1.776-2.945A3.387,3.387,0,0,1,159.448,31a10.464,10.464,0,0,1,5.046-1.045,13.81,13.81,0,0,1,3.717.416,24.318,24.318,0,0,1-1.756-2.639,46.534,46.534,0,0,1-7.585.611l-.328.014c-.754.031-.851.035-1.193.073l-.269.03-.061-2,.281.026a16.793,16.793,0,0,0,1.737.065,45.189,45.189,0,0,0,6.547-.487c-.423-.8-.584-1.108-1.02-2.047a47.726,47.726,0,0,1-5.787.373l-.078,0a11.058,11.058,0,0,0-1.263.063l-.265.029-.091-1.981.284.024c.541.045.9.065,1.629.065a41.931,41.931,0,0,0,4.858-.271,25.213,25.213,0,0,0-1.175-2.665l-.2-.317Zm.834,3.665-.08-.17a19.617,19.617,0,0,1-1.123-2.923l-1.081.187c.238.481.617,1.37,1.166,2.734l.123.306-.328.036a43.471,43.471,0,0,1-5.241.309c-.61,0-.971-.014-1.387-.044l.041.883c.22-.019.421-.024,1.041-.039l.079,0a46.29,46.29,0,0,0,5.911-.394l.184-.026.078.169c.524,1.132.662,1.393,1.178,2.363l.23.434-.336.061a44.284,44.284,0,0,1-6.975.554c-.711,0-1.116-.015-1.5-.044l.027.9c.208-.018.421-.026.958-.049l.33-.014a45.3,45.3,0,0,0,7.688-.634l.174-.032.088.153a19.916,19.916,0,0,0,2.319,3.341l.659.7-.917-.292a12.978,12.978,0,0,0-4.368-.626,9.983,9.983,0,0,0-4.8.979,2.878,2.878,0,0,0-1.661,2.577,2.839,2.839,0,0,0,1.523,2.51,8.677,8.677,0,0,0,4.409.892,18.786,18.786,0,0,0,5.559-.8c.717-.218.931-.283,1.1-.326l-.2-1.134A15.742,15.742,0,0,1,164.1,36.48c-4.295,0-4.936-1.563-4.936-2.494,0-1.675,2.145-2.758,5.464-2.758a22.624,22.624,0,0,1,2.917.2,6.188,6.188,0,0,1,2.37.787l.945-.673a25.292,25.292,0,0,1-3.079-4.2l-.192-.31.358-.068c.934-.177,2.091-.442,3.438-.788.509-.139.713-.182.911-.225l.065-.014-.109-.91a26.957,26.957,0,0,1-4.78,1.24l-.18.037-.089-.16c-.325-.585-.924-1.757-1.263-2.5l-.136-.3.324-.052c1.125-.181,3.34-.648,5.315-1.172l-.082-.885a30.328,30.328,0,0,1-5.616,1.341ZM42.8,19.109v2.01l-.285-.041a16.125,16.125,0,0,0-2.407-.108H26.672v1.488c0,5.8-.331,9.74-1.043,12.385a13.777,13.777,0,0,1-1.52,3.622l-.184.325L23.7,38.5a5.055,5.055,0,0,0-1.051-1.075l-.18-.132.111-.193a11.817,11.817,0,0,0,1.447-3.714A51.123,51.123,0,0,0,24.786,22.9a22.385,22.385,0,0,0-.129-3.439l-.049-.322.324.036a23.9,23.9,0,0,0,2.678.108H40.084a15.137,15.137,0,0,0,2.426-.129Zm-.5,1.437v-.859a18.251,18.251,0,0,1-2.214.1H27.61c-.933,0-1.684-.014-2.416-.08a28.722,28.722,0,0,1,.092,3.2,51.552,51.552,0,0,1-.776,10.591,12.294,12.294,0,0,1-1.394,3.665,5.175,5.175,0,0,1,.738.742,12.834,12.834,0,0,0,1.292-3.181c.7-2.6,1.026-6.5,1.026-12.257V20.47H40.106A19.649,19.649,0,0,1,42.3,20.546Zm32.731-1.312,2.382.029-.056.293a14.634,14.634,0,0,0-.147,2.193l-.024.608c-.036.639-.057.912-.089,1.3l5.228-.021a2.993,2.993,0,0,0,1.37-.14l.139-.049,1.053.939-.062.161a3.256,3.256,0,0,0-.159,1.215,60.063,60.063,0,0,1-.62,7.739,6.77,6.77,0,0,1-1.113,3.147,2.738,2.738,0,0,1-2.323.862,12.773,12.773,0,0,1-2.783-.38l-.195-.044v-.464a3.189,3.189,0,0,0-.227-1.279l-.171-.475.481.151a9.624,9.624,0,0,0,2.763.538c.869,0,1.185-.328,1.6-2.5a47.55,47.55,0,0,0,.543-7.512l-5.68.02a16.685,16.685,0,0,1-1.766,6.357,16.508,16.508,0,0,1-5.861,5.931l-.208.119-.128-.2A4.662,4.662,0,0,0,67.9,36.528l-.272-.238.319-.17a12.925,12.925,0,0,0,4.885-4.4,13.755,13.755,0,0,0,2.043-6.147l-3.729.02a15.648,15.648,0,0,0-2.3.108l-.276.032-.03-2.255.3.056a10.879,10.879,0,0,0,2.33.15h3.882c.073-1.022.114-2.129.114-3.072a5.432,5.432,0,0,0-.084-1.079Zm1.787.522-1.2-.015a6.449,6.449,0,0,1,.046.868c0,1.027-.048,2.245-.133,3.341l-.018.231H71.17a12.833,12.833,0,0,1-2.122-.106l.014,1.095a16.816,16.816,0,0,1,2.086-.08l4.276-.023-.023.272a14.359,14.359,0,0,1-2.145,6.648,13.321,13.321,0,0,1-4.758,4.4,4.591,4.591,0,0,1,.773.912,15.979,15.979,0,0,0,5.463-5.61,16.414,16.414,0,0,0,1.732-6.4l.021-.227,6.64-.024,0,.253a48.991,48.991,0,0,1-.554,7.855c-.412,2.147-.79,2.909-2.094,2.909a9.138,9.138,0,0,1-2.457-.424,3.671,3.671,0,0,1,.111.988v.063a11.791,11.791,0,0,0,2.478.325c1.716,0,2.382-.52,2.944-3.6a59.534,59.534,0,0,0,.612-7.661,4.565,4.565,0,0,1,.135-1.216l-.581-.518a3.757,3.757,0,0,1-1.395.12l-5.771.023.037-.458c.035-.433.056-.7.095-1.369l.024-.6C76.758,20.492,76.775,20.076,76.816,19.756Zm130.806.274h2.726l-.021.27c-.069.87-.11,1.512-.131,2.406l-.176,7.832c-.022.921-.022.921-.022,1.006,0,.365.018.736.065,1.322l.022.27h-2.165l.017-.266c.043-.674.043-.824.043-1.546v-.789l-.2-7.829c-.022-.9-.042-1.56-.131-2.4Zm2.186.5h-1.632c.068.732.087,1.348.106,2.164l.2,7.838v.792c0,.63,0,.832-.028,1.312h1.092c-.033-.452-.046-.773-.046-1.092,0-.091,0-.091.022-1.018l.176-7.832C209.715,21.883,209.751,21.279,209.808,20.53Zm-117.13-.491.3.062a9.954,9.954,0,0,0,2.259.149h7.348a9.954,9.954,0,0,0,2.259-.149l.3-.062V22.33l-.287-.042a14.406,14.406,0,0,0-2.251-.107H95.216a14.406,14.406,0,0,0-2.251.107l-.287.042Zm9.908.711H95.238a12.119,12.119,0,0,1-2.06-.1v1.107a17.554,17.554,0,0,1,2.038-.075h7.392a17.554,17.554,0,0,1,2.038.075V20.647A12.119,12.119,0,0,1,102.586,20.75Zm-49.556.226,1.634.8-.064.2a22.612,22.612,0,0,1-2,4.927l-.114.215-1.46-.73.121-.226a17.982,17.982,0,0,0,1.8-4.895Zm1.029,1.062-.7-.343a17.954,17.954,0,0,1-1.651,4.481l.565.282A21.231,21.231,0,0,0,54.059,22.038ZM8.176,21.02h3.008v1.974H8.176Zm2.508.5H8.676v.974h2.008Zm1.144-.5h3.008v1.974H11.828Zm2.508.5H12.328v.974h2.008Zm1.144-.5h3.184v1.974H15.48Zm2.684.5H15.98v.974h2.184Zm37.774-.258H62.18v2.106H55.938Zm5.742.5H56.438v1.106H61.68Zm-11.661-.113.086.208a19.34,19.34,0,0,1,1.046,3.361l.05.216L49.626,26l-.062-.277a16.66,16.66,0,0,0-1.042-3.344l-.11-.259Zm.595,3.465a18.2,18.2,0,0,0-.887-2.858l-.637.187a16.49,16.49,0,0,1,.9,2.9Zm-9.474-3.307-.038.308a13.58,13.58,0,0,0-.086,1.817V26.66A14.292,14.292,0,0,0,41.1,28.5l.035.3-.305-.027c-.71-.063-1.376-.087-2.376-.087H30.91c-1.021,0-1.687.024-2.375.087l-.306.028.035-.305a14.629,14.629,0,0,0,.086-1.819v-2.75a14.527,14.527,0,0,0-.086-1.82l-.034-.3.3.028a23.69,23.69,0,0,0,2.375.087h7.546a23.69,23.69,0,0,0,2.375-.087Zm-2.685.615H30.91c-.927,0-1.508-.017-2.119-.064.044.474.059.9.059,1.574v2.75c0,.666-.016,1.117-.058,1.574.6-.046,1.23-.064,2.118-.064h7.546c.874,0,1.5.018,2.118.064-.043-.461-.058-.9-.058-1.6V23.932c0-.7.015-1.145.056-1.573C39.963,22.405,39.381,22.422,38.456,22.422Zm8.507-.136.1.189a18.751,18.751,0,0,1,1.468,3.6l.07.223-1.6.627-.073-.269a15.2,15.2,0,0,0-1.388-3.6L45.4,22.8Zm1.019,3.72a17.626,17.626,0,0,0-1.268-3.113l-.6.194a15.051,15.051,0,0,1,1.218,3.172Zm85.973-3.2,1.8.275-.008.222a18.952,18.952,0,0,1-1.113,6.3l-.085.251-1.776-.723.1-.232a9.544,9.544,0,0,0,.733-2.369,16.649,16.649,0,0,0,.348-3.435Zm1.286.7-.8-.121a16.7,16.7,0,0,1-.351,3.233,9.481,9.481,0,0,1-.667,2.236l.819.333A18.166,18.166,0,0,0,135.24,23.508ZM29.692,23h9.982v2H29.692Zm9.482.5H30.192v1h8.982Zm-31-.038h3.008V25.5H8.176Zm2.508.5H8.676V25h2.008Zm1.144-.5h3.008V25.5H11.828Zm2.508.5H12.328V25h2.008Zm1.144-.5h3.184V25.5H15.48Zm2.684.5H15.98V25h2.184Zm93.346-.1.289.046a12.791,12.791,0,0,0,2.095.107h2.354a13.768,13.768,0,0,0,2.051-.085l.124-.02,1.046,1.018-.062.155c-.149.373-.182.477-.363,1.052l-.093.295a19.15,19.15,0,0,1-6.642,9.825l-.191.147-.154-.186a4.727,4.727,0,0,0-1.182-1.054l-.3-.21.308-.2a14.18,14.18,0,0,0,3.592-3.377,15.615,15.615,0,0,0,2.77-5.493h-3.3A12.514,12.514,0,0,0,111.8,26l-.291.049Zm7.37,1.192-.628-.612a16.109,16.109,0,0,1-2,.073h-2.354a16.158,16.158,0,0,1-1.884-.073v1.03a14.589,14.589,0,0,1,1.84-.093h3.959l-.088.317a16.437,16.437,0,0,1-2.946,5.981,14.883,14.883,0,0,1-3.412,3.285,4.553,4.553,0,0,1,.828.751,18.686,18.686,0,0,0,6.281-9.429l.094-.3C118.721,25.49,118.772,25.331,118.88,25.051ZM55.938,23.88H62.18v2.15H55.938Zm5.742.5H56.438v1.15H61.68ZM1.751,23.959l.183.111A18.414,18.414,0,0,1,5.54,26.809l.165.156L4.53,28.471l-.2-.207A14.958,14.958,0,0,0,.84,25.489l-.253-.151Zm3.28,3.056a17.531,17.531,0,0,0-3.174-2.407l-.509.6a14.987,14.987,0,0,1,3.141,2.5Zm139.786-2.564H146.9l-.046.289a9.308,9.308,0,0,0-.085,1.457,12.07,12.07,0,0,0,2.175,7.333,11.426,11.426,0,0,0,4.465,3.642l.306.156-.243.243a4.384,4.384,0,0,0-.852,1.247l-.113.247-.237-.134a13.818,13.818,0,0,1-4.365-3.695,11.06,11.06,0,0,1-1.945-3.886,10.644,10.644,0,0,1-1.949,4.082,13.329,13.329,0,0,1-4.141,3.583l-.224.132-.124-.228a3.132,3.132,0,0,0-.927-1.091L138.3,37.6l.333-.178a11.011,11.011,0,0,0,4.676-4.241,13.04,13.04,0,0,0,1.593-6.913,14.855,14.855,0,0,0-.065-1.54Zm1.505.5h-.961c.028.359.044.7.044,1.312a13.508,13.508,0,0,1-1.662,7.166,11.252,11.252,0,0,1-4.55,4.253,3.273,3.273,0,0,1,.641.775,12.655,12.655,0,0,0,3.78-3.324,9.889,9.889,0,0,0,2.063-5.112l.495-.018a10.792,10.792,0,0,0,2.131,4.931,13.191,13.191,0,0,0,3.984,3.432,5,5,0,0,1,.6-.9,11.639,11.639,0,0,1-4.352-3.644A12.55,12.55,0,0,1,146.27,26.2,11.6,11.6,0,0,1,146.323,24.952Zm-39.919.183,1.047,1.217-.1.157a6.211,6.211,0,0,0-.593,1.341,15.28,15.28,0,0,1-3.93,6.226A18.188,18.188,0,0,1,96,37.853l-.221.074-.089-.216a4.532,4.532,0,0,0-.908-1.454l-.244-.3.369-.1a14.931,14.931,0,0,0,6.433-3.287,12.944,12.944,0,0,0,3.371-5.33H93.588a19.977,19.977,0,0,0-2.523.108l-.279.033V25.163l.284.04a15.613,15.613,0,0,0,2.54.13H104.9a3.505,3.505,0,0,0,1.347-.14Zm.427,1.263-.586-.681a4.544,4.544,0,0,1-1.349.115H93.61a17.315,17.315,0,0,1-2.324-.1v1.086a22.459,22.459,0,0,1,2.3-.081h11.844l-.126.338a13.777,13.777,0,0,1-3.629,5.861,15.022,15.022,0,0,1-6.271,3.295,4.381,4.381,0,0,1,.654,1.071,17.481,17.481,0,0,0,6.428-3.6,14.808,14.808,0,0,0,3.8-6.035A9.025,9.025,0,0,1,106.831,26.4Zm-77.139-.846h9.982v2.084H29.692Zm9.482.5H30.192v1.084h8.982Zm143.25-.3a6.17,6.17,0,0,1,2.862.664,13.6,13.6,0,0,1,2.1,1.34c1.817,1.3,2.885,1.758,4.079,1.758a4.056,4.056,0,0,0,1.656-.351l.008,0a5.632,5.632,0,0,0,2.408-2.057l.162-.207,1.531,1.325-.162.189a9.2,9.2,0,0,1-2.6,2.32,6.215,6.215,0,0,1-3.029.781,7.184,7.184,0,0,1-2.167-.364l-.007,0a11.214,11.214,0,0,1-3.122-1.816c-1.706-1.274-2.525-1.623-3.812-1.623a4.258,4.258,0,0,0-2.146.541,7.531,7.531,0,0,0-1.789,1.495l-.166.17-1.481-1.3.193-.188C178.962,26.448,180.395,25.75,182.424,25.75Zm9.042,4.262c-1.313,0-2.456-.484-4.369-1.851a13.248,13.248,0,0,0-2.034-1.3,5.688,5.688,0,0,0-2.638-.612c-1.838,0-3.108.595-4.933,2.337l.719.632a7.385,7.385,0,0,1,1.737-1.413,4.737,4.737,0,0,1,2.39-.6c1.4,0,2.321.386,4.11,1.722a10.807,10.807,0,0,0,2.989,1.746,6.677,6.677,0,0,0,2.009.339,5.7,5.7,0,0,0,2.779-.714,8.323,8.323,0,0,0,2.3-2.024l-.758-.656a5.838,5.838,0,0,1-2.441,2A4.5,4.5,0,0,1,191.466,30.012ZM48.872,26.146h1.962l-.03.277c-.056.524-.063.715-.079,1.219h1.3a8.767,8.767,0,0,0,1.713-.106l.3-.057v1.971l-.3-.06c-.037-.007-.072-.012-.105-.016a.81.81,0,0,1-.147-.028,2.96,2.96,0,0,0-.447-.017h-.011L52,29.286H50.661c-.031.567-.056.914-.124,1.414H52.1a9.8,9.8,0,0,0,1.742-.107l.29-.046v1.972l-.289-.046a2.977,2.977,0,0,0-.687-.063.519.519,0,0,1-.069-.006,1.6,1.6,0,0,0-.217-.016h-.031l-.03-.007c-.067-.015-.379-.015-.709-.015H50.882a7.983,7.983,0,0,0,2.436,2.45l.234.165-.2.21a3.675,3.675,0,0,0-.729,1.129l-.142.283-.243-.2a10.3,10.3,0,0,1-2.393-2.731,9,9,0,0,1-4.041,4.9l-.235.154-.126-.251a3.2,3.2,0,0,0-.837-1l-.285-.234.323-.178a7.578,7.578,0,0,0,2.734-2.282,6.089,6.089,0,0,0,1.138-2.419H47.1a10.381,10.381,0,0,0-1.766.107l-.288.044V30.545l.291.049a9.627,9.627,0,0,0,1.741.107h1.758c.047-.407.093-.871.117-1.414H47.718a9.921,9.921,0,0,0-1.742.107l-.29.046V27.477l.3.06a8.623,8.623,0,0,0,1.711.105h1.311a7.18,7.18,0,0,0-.083-1.2Zm1.407.5h-.821a11.227,11.227,0,0,1,.05,1.246v.25H47.7a11.774,11.774,0,0,1-1.51-.066v.781a11.773,11.773,0,0,1,1.532-.072h1.753l-.008.257c-.023.781-.092,1.409-.156,1.936l-.026.22h-2.2a11.568,11.568,0,0,1-1.532-.07v.809a11.908,11.908,0,0,1,1.554-.073h2.053l-.071.307a6.862,6.862,0,0,1-1.3,2.909,7.722,7.722,0,0,1-2.589,2.25,3.7,3.7,0,0,1,.559.675,8.483,8.483,0,0,0,3.79-5.018l.171-.56L50,32.94a9.67,9.67,0,0,0,2.321,2.872,3.743,3.743,0,0,1,.477-.751,8.146,8.146,0,0,1-2.574-2.823l-.206-.371H52.1a6.2,6.2,0,0,1,.8.022,2.108,2.108,0,0,1,.255.02l.015,0a2.744,2.744,0,0,1,.466.025v-.806A11.608,11.608,0,0,1,52.1,31.2H49.957L50,30.913a16.115,16.115,0,0,0,.174-1.89l.012-.237h1.832l1.028.044a3.322,3.322,0,0,1,.493.02v-.774a11.555,11.555,0,0,1-1.51.067H50.21l.014-.457C50.238,27.237,50.244,27.019,50.279,26.646ZM21,27.045v1.91l-.29-.046a12.086,12.086,0,0,0-2.028-.107H8.038v.938c0,.679-.035,1.247-.109,2.1H18.81a9.912,9.912,0,0,0,1.891-.106L21,31.684v1.871l-.291-.049a9.135,9.135,0,0,0-1.532-.105l.939.7-.238.2A17.441,17.441,0,0,1,17.6,35.991a10.531,10.531,0,0,0,3.557,1.069l.4.056-.228.333a4.769,4.769,0,0,0-.63,1.217l-.074.213-.22-.052a12.713,12.713,0,0,1-5.357-2.49q-.277-.219-.528-.451l.091,1.185-.192.058c-1.928.583-2.586.739-4.571,1.192l-.567.134c-.775.183-1.129.266-1.577.391l-.237.066-.557-1.887.321-.012a14.543,14.543,0,0,0,2.136-.287V33.4H7.739a10.786,10.786,0,0,1-2.131,5.273l-.191.242-.2-.237a3.2,3.2,0,0,0-1.046-.841l-.284-.149L4.1,37.45c1.549-1.74,2.181-4.069,2.181-8.04A16.64,16.64,0,0,0,6.2,27.393l-.036-.315.314.038A14.1,14.1,0,0,0,8.36,27.2h10.3A11.65,11.65,0,0,0,20.7,27.1Zm-.5,1.329v-.742a15.232,15.232,0,0,1-1.84.07H8.36c-.757,0-1.186-.013-1.634-.056.042.473.058.979.058,1.764,0,3.934-.614,6.326-2.107,8.138a3.566,3.566,0,0,1,.719.578,10.644,10.644,0,0,0,1.88-5.012l.031-.214H9.864v4.241l-.2.039a18.842,18.842,0,0,1-2.094.316l.237.8c.361-.1.717-.18,1.36-.332l.568-.134c1.906-.435,2.581-.6,4.347-1.126l-.049-.632c-1.457.445-1.983.578-3.083.837l-.307.072V32.9h2.343l.068.142a7.983,7.983,0,0,0,2.306,2.9A12.086,12.086,0,0,0,20.3,38.289a4.954,4.954,0,0,1,.4-.791,10.821,10.821,0,0,1-3.723-1.268l-.381-.206.369-.227a17.346,17.346,0,0,0,2.348-1.667l-.542-.407a11.012,11.012,0,0,1-2.493,1.908l-.143.085-.134-.1a6.029,6.029,0,0,1-2.078-2.357l-.175-.36H18.81a13.331,13.331,0,0,1,1.686.071v-.694a13.185,13.185,0,0,1-1.686.068H7.383l.024-.272c.089-1,.131-1.6.131-2.332V28.3h11.14A14.941,14.941,0,0,1,20.5,28.374ZM12.67,33.4H11.14v2.954c.89-.211,1.459-.36,3-.835A8.542,8.542,0,0,1,12.67,33.4Zm5.715,0H14.562a5.648,5.648,0,0,0,1.6,1.715A10.189,10.189,0,0,0,18.385,33.4Zm9.393-4.023.293.051a12.668,12.668,0,0,0,2.135.128h7.832a10.748,10.748,0,0,0,1.7-.085l.135-.02,1.058,1.209-.258.154a27.565,27.565,0,0,1-4.7,2.307h4.6a15.744,15.744,0,0,0,2.253-.13l.285-.041v2l-.283-.038a17.1,17.1,0,0,0-2.255-.13h-4.92v1.928a1.9,1.9,0,0,1-.626,1.65,3.956,3.956,0,0,1-2.286.382c-.671,0-1.578-.049-2.487-.133l-.191-.018-.033-.189a4.459,4.459,0,0,0-.357-1.264l-.177-.414.445.069a20.9,20.9,0,0,0,3.042.261c.762,0,.762-.114.762-.388V34.786H28.93a16.944,16.944,0,0,0-2.235.13l-.281.035V32.945l.29.046a14.742,14.742,0,0,0,2.227.129h4.8c-.016-.33-.032-.557-.048-.777L33.656,32h1.13a17.133,17.133,0,0,0,2-.8H30.228a13.531,13.531,0,0,0-2.16.107l-.29.046Zm10.26.679H30.206a15.282,15.282,0,0,1-1.928-.091v.809a17.3,17.3,0,0,1,1.95-.073h8.5l-.812.467a15.954,15.954,0,0,1-3.016,1.318l-.038.013h-.674c.016.226.032.484.047.862l.011.26H28.93a17.315,17.315,0,0,1-2.016-.095v.862a17.684,17.684,0,0,1,2.016-.1h5.31V36.67c0,.82-.6.888-1.262.888a20.577,20.577,0,0,1-2.689-.2,4.869,4.869,0,0,1,.2.779c.83.073,1.641.114,2.251.114a3.853,3.853,0,0,0,1.98-.277l0,0c.2-.149.428-.427.428-1.252V34.286h5.42a18.537,18.537,0,0,1,2.038.1v-.863a17.532,17.532,0,0,1-2.038.1h-5.42v-.735l.166-.059a26.318,26.318,0,0,0,4.845-2.29l-.483-.552A12.157,12.157,0,0,1,38.038,30.056ZM8.748,29.41l.284.039a11.343,11.343,0,0,0,1.638.086h7.084a11.5,11.5,0,0,0,1.638-.086l.284-.039v1.78l-.281-.035a12.657,12.657,0,0,0-1.663-.086H10.67a11.89,11.89,0,0,0-1.64.086l-.282.037Zm10.428,1.217v-.649a13.58,13.58,0,0,1-1.422.056H10.67a13.388,13.388,0,0,1-1.422-.056v.647a13.654,13.654,0,0,1,1.422-.057h7.062A14.272,14.272,0,0,1,19.176,30.626ZM4.1,30.144,5.571,31.4l-.054.16a26.022,26.022,0,0,1-2.331,5.37l-.365.649c-.259.459-.312.554-.375.679l-.146.293L.6,37.032l.187-.187c1.04-1.04,2.2-3.354,3.2-6.348Zm.885,1.414-.646-.552a18.816,18.816,0,0,1-3.017,6l.826.739.233-.414.367-.652A24.811,24.811,0,0,0,4.989,31.558Zm56.257.822.1.2a15.843,15.843,0,0,1,1.025,2.628l.069.22-1.446.591-.072-.277a12.271,12.271,0,0,0-.93-2.641l-.118-.252Zm.574,2.76A14.226,14.226,0,0,0,60.986,33l-.429.146a11.758,11.758,0,0,1,.772,2.2Zm-7.7-2.607,1.577.536-.034.209A13.941,13.941,0,0,1,54.03,38.2l-.125.223L52.34,37.5l.14-.219a10.921,10.921,0,0,0,1.592-4.462Zm1.014.873-.623-.212a11.151,11.151,0,0,1-1.475,4.138l.679.4A13.16,13.16,0,0,0,55.136,33.406Zm2.225-.627.041.24a24.991,24.991,0,0,1,.378,4.148l.007.2-1.673.41v-.319c0-.161.008-.307.014-.423,0-.078.008-.145.008-.193a18.757,18.757,0,0,0-.282-3.584l-.048-.256Zm-.088,4.2a23.6,23.6,0,0,0-.323-3.637l-.559.081a19.83,19.83,0,0,1,.244,3.42c0,.061,0,.135-.009.22l0,.075Zm150.421-2.3h2.634V37.25h-2.634Zm2.134.5h-1.634V36.75h1.634Z" transform="matrix(0.978, -0.208, 0.208, 0.978, 753.754, 2084.402)" fill="#fff"/><path d="M13.5-15.157a23.244,23.244,0,0,1-4.692.989v-2.208a13.154,13.154,0,0,1,.115-2.139h-1.7a15.279,15.279,0,0,1,.115,2.185v2.277c-.69.046-1.587.069-2.208.069a13.027,13.027,0,0,1-2.346-.161v1.518h.943c.253.023.874.023,1.219.023.667,0,1.058,0,1.472-.023.713-.046.713-.046.92-.069v4.347A12.3,12.3,0,0,0,4.094-6.463,4.162,4.162,0,0,0,2.277-3.4,2.774,2.774,0,0,0,3.335-1.242,6.075,6.075,0,0,0,7.13.23c1.127,0,1.679-.6,1.679-1.84V-7.36a15.519,15.519,0,0,1,4.876-.9c3.013,0,4.922,1.4,4.922,3.657a3.053,3.053,0,0,1-3.082,3.243c-1.679,0-2.369-.989-2.369-3.381a6.831,6.831,0,0,1,.046-.9,4.985,4.985,0,0,1-1.518.6,8.393,8.393,0,0,0,.276,2.6A3.392,3.392,0,0,0,15.5.161,4.655,4.655,0,0,0,20.194-4.6a4.629,4.629,0,0,0-2.369-4.071,7.787,7.787,0,0,0-4.071-.966,16.294,16.294,0,0,0-4.945.828v-3.979a40.368,40.368,0,0,0,4.071-.69c.322-.069.414-.092.69-.138ZM7.337-2.461c0,.989-.069,1.127-.529,1.127A4.3,4.3,0,0,1,4.761-2c-.667-.437-.989-.9-.989-1.38,0-1.1,1.288-2.346,3.565-3.45ZM21.16-12.19a19.327,19.327,0,0,0-4.646-4.37l-1.2.9a18.838,18.838,0,0,1,4.646,4.508Zm5.8-.644H25.99a11.322,11.322,0,0,1-1.817-.115v1.518a10.743,10.743,0,0,1,1.771-.115h1.012v7.475A18.433,18.433,0,0,1,23.92-3.013l.414,1.564c.276-.138.575-.276.943-.437,2.162-.943,3.542-1.564,5.29-2.438L30.5-5.7c-.989.506-1.242.621-2.116,1.035v-6.877h.345a16.163,16.163,0,0,1,1.656.092v-1.472a11.022,11.022,0,0,1-1.7.092h-.3v-3.542a18.593,18.593,0,0,1,.138-2.553h-1.7a18.925,18.925,0,0,1,.138,2.53Zm15.111-2.6a22.122,22.122,0,0,1,2.392.115v-1.518a16.078,16.078,0,0,1-2.392.138H34.132c.184-.345.3-.621.575-1.219a6.838,6.838,0,0,1,.414-.943l-1.5-.506a7.817,7.817,0,0,1-.828,2.392,11.281,11.281,0,0,1-2.6,3.5,3.41,3.41,0,0,1,1.012.966,15,15,0,0,0,2.231-2.921ZM43.309-.391V-4.186A19.98,19.98,0,0,1,43.4-6.624a20.482,20.482,0,0,1-2.369.069H33.557a20.263,20.263,0,0,1-2.369-.069,21.957,21.957,0,0,1,.092,2.461V-.391h-.713a10.1,10.1,0,0,1-1.61-.092V.943A17.7,17.7,0,0,1,31.073.828h11.8a19.92,19.92,0,0,1,2.185.115V-.483a8.727,8.727,0,0,1-1.426.092ZM32.591-5.336h2.3V-.391h-2.3Zm3.542,0h2.254V-.391H36.133Zm3.5,0h2.346V-.391H39.629Zm1.265-3.013c.782,0,1.127.023,1.679.069A12.443,12.443,0,0,1,42.5-9.729v-2.346a12.858,12.858,0,0,1,.069-1.426,17.982,17.982,0,0,1-1.817.069h-6.67c-.782,0-1.334-.023-1.794-.069a13.463,13.463,0,0,1,.069,1.426v2.369a13.463,13.463,0,0,1-.069,1.426c.552-.046.989-.069,1.794-.069Zm-7.176-3.864h7.406v2.668H33.718Zm14.628-.621a3.425,3.425,0,0,1,.391-.023h.092c.9.046,1.1.046,1.909.046.851,0,1.127,0,1.587-.023A46.81,46.81,0,0,1,48-.115L49.68.6a61.5,61.5,0,0,0,4.255-13.524,30.688,30.688,0,0,0,3.887-.552l.414-.092.23-.023-.115-1.587a18.7,18.7,0,0,1-4.14.782c.115-.621.161-.943.3-1.748.138-.782.207-1.242.23-1.38.069-.322.092-.437.184-.8l-1.817-.184v.161a28.364,28.364,0,0,1-.506,4.071c-.667.046-.92.046-1.38.046a15.862,15.862,0,0,1-2.875-.207Zm17.365,1.127c-1.725-.069-2.07-.069-2.507-.069a26.058,26.058,0,0,0-6.1.759l.161,1.564a20.018,20.018,0,0,1,5.75-.782,23.091,23.091,0,0,1,2.714.161ZM57.339-6.739C56.12-5.175,55.8-4.462,55.8-3.427c0,2.277,1.955,3.45,5.727,3.45a25.181,25.181,0,0,0,4.094-.368l.713-.138.3-.046L66.47-2.254a17.089,17.089,0,0,1-5.083.782c-2.622,0-4.025-.736-4.025-2.116a2.768,2.768,0,0,1,.575-1.633,7.707,7.707,0,0,1,.69-.874Zm3.795-10.787A16.837,16.837,0,0,1,63.5-13.892l1.15-.69a17.461,17.461,0,0,0-2.369-3.565Zm2.622-1.242A17.23,17.23,0,0,1,66.1-15.157l1.15-.667a18.473,18.473,0,0,0-2.369-3.565ZM77.6-11.477a2.274,2.274,0,0,1,.345-.023,3.306,3.306,0,0,1,.414.023c.828.046,2.139.092,2.783.092,1.012,0,2.346-.046,3.358-.138.046.667.046,1.173.046,1.817,0,3.68-.368,5.359-1.541,6.854A9.429,9.429,0,0,1,79.488-.207,5.306,5.306,0,0,1,80.73,1.035a11.117,11.117,0,0,0,3.611-2.967c1.357-1.84,1.771-3.726,1.771-8.1,0-.667,0-1.035-.023-1.656a21.937,21.937,0,0,0,2.507-.46,11.628,11.628,0,0,1,1.219-.276L89.7-14.076a12.138,12.138,0,0,1-3.657.966c-.115-3.2-.115-3.2-.138-3.726-.023-.414-.023-.529-.023-.69a5.4,5.4,0,0,1,.069-.782l-1.771.023a44.352,44.352,0,0,1,.276,5.359c-1.15.092-2,.138-2.921.138a18.614,18.614,0,0,1-3.91-.3Zm-4.14-6.532a11.686,11.686,0,0,1-.207,1.587,47.268,47.268,0,0,0-.92,8.855,26.17,26.17,0,0,0,.851,6.808,6.116,6.116,0,0,1,.184.805l1.587-.138A8.978,8.978,0,0,1,75.6-3.013a43.624,43.624,0,0,1,1.7-4.025L76.13-7.59A25.139,25.139,0,0,0,74.2-2.714a8.008,8.008,0,0,0-.138-1.242c-.092-.782-.184-2.484-.184-3.749a39.772,39.772,0,0,1,1.4-10.028Zm20.723,4.6a76.569,76.569,0,0,1,7.935-.759,47.072,47.072,0,0,0,5.06-.506A15.056,15.056,0,0,0,105-13.455c-2.737,1.863-4.3,4.393-4.3,7.061A5.569,5.569,0,0,0,103.247-1.7,11.6,11.6,0,0,0,108.215.069c.414.069.46.092.713.138l.3-1.863H109a11.788,11.788,0,0,1-3.45-.736,4.51,4.51,0,0,1-3.22-4.255,7.03,7.03,0,0,1,2.829-5.313,11.313,11.313,0,0,1,4.416-2.3,9.647,9.647,0,0,1,2.576-.322l-.138-1.7a15.534,15.534,0,0,1-2.737.253l-1.311.046c-.759.023-1.058.046-3.887.207l-3.611.23c-2.829.161-2.967.184-4.255.276-.713.046-.989.069-1.311.069-.161,0-.391,0-.828-.023ZM108.307-11.2a16.175,16.175,0,0,1,2.346,3.657l1.173-.69a17.461,17.461,0,0,0-2.369-3.565Zm2.622-1.242a18.2,18.2,0,0,1,2.346,3.611l1.15-.644a18.639,18.639,0,0,0-2.369-3.588ZM120.4-14.9a5.4,5.4,0,0,1,.759.069,44.991,44.991,0,0,0,5.06.3,18.18,18.18,0,0,0,3.473-.3c-.23.138-.276.138-.437.23-.276.138-.322.161-.575.3a35.637,35.637,0,0,0-3.059,1.909l1.173.943a32.758,32.758,0,0,1,5.8-3.5l-.115-1.518a25.153,25.153,0,0,1-5.819.483,26.3,26.3,0,0,1-6.118-.552Zm1.38,5.888c-1.771,1.495-2.645,2.944-2.645,4.439A3.664,3.664,0,0,0,121.762-1.1a16.226,16.226,0,0,0,5.29.713,37.518,37.518,0,0,0,6.21-.529,6.433,6.433,0,0,1,.782-.115l-.207-1.886a21.819,21.819,0,0,1-6.9.874,14.646,14.646,0,0,1-4.209-.46c-1.288-.437-1.955-1.2-1.955-2.254,0-1.081.69-2.139,2.185-3.381Zm28.957-6.233a6.619,6.619,0,0,1,2.668.575A6.063,6.063,0,0,1,157.067-8.9,6.943,6.943,0,0,1,153-2.461a13.787,13.787,0,0,1-3.841,1.081,3.655,3.655,0,0,1,.8,1.541,17.793,17.793,0,0,0,3.5-1.058,8.375,8.375,0,0,0,5.267-7.935,7.7,7.7,0,0,0-2.231-5.612,8.9,8.9,0,0,0-6.325-2.277,9.607,9.607,0,0,0-7.429,3.059,9.568,9.568,0,0,0-2.415,6.348c0,3.22,1.633,5.612,3.818,5.612,1.656,0,3.013-1.38,4.347-4.416A34.478,34.478,0,0,0,150.742-15.249Zm-1.656.023a31.59,31.59,0,0,1-2.093,8.51c-.989,2.254-1.909,3.335-2.875,3.335-1.242,0-2.208-1.7-2.208-3.91a7.954,7.954,0,0,1,3.749-6.854A7.264,7.264,0,0,1,149.086-15.226Zm27.209-.161v-1.84a10.408,10.408,0,0,1,.115-1.863H174.8a9.951,9.951,0,0,1,.115,1.863v1.84h-2.576a22.63,22.63,0,0,1-2.369-.115v1.541a18.34,18.34,0,0,1,2.369-.115h2.576v3.887h-3.588A13.388,13.388,0,0,1,169.1-10.3v1.541a13.242,13.242,0,0,1,2.208-.115h3.22a20.086,20.086,0,0,1-7.613,7.935,5.106,5.106,0,0,1,1.1,1.127,18.764,18.764,0,0,0,6.992-7.958c-.092,1.357-.092,1.656-.092,2.53V-.736a18.884,18.884,0,0,1-.138,2.438h1.656a16.027,16.027,0,0,1-.138-2.438V-5.244c0-1.035-.023-1.679-.092-2.53A15.491,15.491,0,0,0,178.848-3.5a25.281,25.281,0,0,0,3.7,3.381,6.085,6.085,0,0,1,.989-1.426,18.6,18.6,0,0,1-4.324-3.519,18.06,18.06,0,0,1-2.53-3.818h3.519a17.981,17.981,0,0,1,2.6.138v-1.587a18.348,18.348,0,0,1-2.622.138h-3.887v-3.887h3.013a18.149,18.149,0,0,1,2.438.138v-1.587a16,16,0,0,1-2.415.138ZM164.22-1.725V-4.209h2.921v1.2h1.472a25.072,25.072,0,0,1-.092-2.53v-9.522a19.861,19.861,0,0,1,.069-2.139,14.818,14.818,0,0,1-1.932.092h-2.047a14.056,14.056,0,0,1-1.886-.092c.046.529.092,1.288.092,2.231V-4.209a18.654,18.654,0,0,1-.138,2.484Zm0-14.053h2.921V-5.5H164.22ZM186.527,0V-2.212h2.212V0Zm.281-4.436-.281-8.861v-3.324h2.212V-13.3l-.27,8.861ZM193.355,0V-2.212h2.212V0Zm0-4.436v-.606a6.03,6.03,0,0,1,1.651-4.032l.708-.82q1.763-2.021,1.763-3.313a1.878,1.878,0,0,0-.775-1.583,3.391,3.391,0,0,0-2.089-.584,9.254,9.254,0,0,0-3.65.831v-1.875a13.452,13.452,0,0,1,3.886-.629,5.833,5.833,0,0,1,3.633,1.028,3.317,3.317,0,0,1,1.342,2.78,3.557,3.557,0,0,1-.382,1.7,7.724,7.724,0,0,1-1.482,1.758l-.7.651a6.473,6.473,0,0,0-1.37,1.656,4.161,4.161,0,0,0-.326,1.8v1.235Z" transform="matrix(0.978, -0.208, 0.208, 0.978, 766.266, 2137.435)" fill="#fff"/><path d="M64.945-19.708l.132.161a18.774,18.774,0,0,1,2.4,3.607l.111.212-1.6.927-.113-.254a17.045,17.045,0,0,0-2.308-3.551l-.2-.233Zm1.974,3.789a17.638,17.638,0,0,0-2.1-3.15l-.679.374a17.83,17.83,0,0,1,2.071,3.185ZM33.429-19.7,35.481-19l-.14.26a6.559,6.559,0,0,0-.4.916l-.006.014c-.077.167-.141.308-.2.433-.075.166-.138.3-.2.431h7.53a16.031,16.031,0,0,0,2.357-.135l.285-.041v2.084l-.277-.03a22.145,22.145,0,0,0-2.365-.114H33.58c-.385.611-.683,1.057-.986,1.457.407.03.881.044,1.491.044h6.67a17.885,17.885,0,0,0,1.792-.068l.307-.031-.034.307a12.69,12.69,0,0,0-.067,1.4v2.346a12.247,12.247,0,0,0,.067,1.421l.034.3-.3-.025A16.508,16.508,0,0,0,40.894-8.1H34.086c-.808,0-1.231.023-1.773.068l-.3.025.032-.3a13.307,13.307,0,0,0,.068-1.4v-2.369c0-.37-.01-.685-.034-1.012-.2.233-.424.474-.685.748l-.212.223L31-12.37a3.043,3.043,0,0,0-.372-.447v1.636l-.271-.023a15.9,15.9,0,0,0-1.635-.091h-.095v6.232c.6-.285.916-.435,1.752-.863l.344-.176.1,1.929-.146.073c-1.746.873-3.1,1.483-5.3,2.444-.372.163-.668.3-.931.431l-.275.137-.561-2.12.263-.051a17.211,17.211,0,0,0,2.833-.981V-11.3h-.762a10.559,10.559,0,0,0-1.731.112l-.29.046v-2.1l.287.042a11.086,11.086,0,0,0,1.78.112h.716V-16.4a18.67,18.67,0,0,0-.136-2.5l-.039-.284h2.274l-.038.283a18.581,18.581,0,0,0-.136,2.52v3.292h.049a11.336,11.336,0,0,0,1.545-.074q-.078-.056-.163-.111l-.267-.174.232-.218a11.071,11.071,0,0,0,2.545-3.423,7.629,7.629,0,0,0,.807-2.325Zm1.337.981-.948-.321a8.271,8.271,0,0,1-.8,2.175,11.394,11.394,0,0,1-2.429,3.354,3.573,3.573,0,0,1,.641.609,14.752,14.752,0,0,0,2-2.667l.073-.117h8.763c.784,0,1.488.029,2.142.089v-.957a17.7,17.7,0,0,1-2.142.1H33.715l.2-.368c.129-.242.225-.452.369-.771.056-.124.12-.264.2-.429C34.617-18.374,34.686-18.547,34.766-18.716Zm-6.529.037H27.1a20.791,20.791,0,0,1,.1,2.28v3.815H25.99a12.3,12.3,0,0,1-1.567-.079v.944a11.979,11.979,0,0,1,1.521-.077h1.262V-3.9l-.157.063a23.212,23.212,0,0,1-2.821,1.014L24.5-1.807c.2-.1.422-.2.679-.308,2.132-.93,3.466-1.53,5.132-2.36l-.042-.831c-.634.321-.939.466-1.512.737l-.623.3V-11.8h.595c.52,0,.811.019,1.406.07v-.917a12.547,12.547,0,0,1-1.452.059h-.549v-3.792A20.35,20.35,0,0,1,28.237-18.679Zm12.519,5.5h-6.67c-.618,0-1.1-.014-1.518-.044.03.377.043.729.043,1.151v2.369c0,.412-.014.792-.043,1.154.427-.03.85-.047,1.518-.047h6.808c.633,0,.984.015,1.4.046-.029-.35-.041-.712-.041-1.176v-2.346c0-.424.014-.8.042-1.151C41.877-13.2,41.4-13.182,40.756-13.182ZM174.5-19.34h2.2l-.046.289a10.125,10.125,0,0,0-.112,1.824v1.59h2.786a15.7,15.7,0,0,0,2.38-.135l.285-.041v2.157l-.28-.034a17.765,17.765,0,0,0-2.408-.136h-2.763v3.387h3.637a18.24,18.24,0,0,0,2.588-.136l.284-.039v2.165l-.288-.044a17.948,17.948,0,0,0-2.561-.135H177.11a16.52,16.52,0,0,0,2.294,3.4,18.4,18.4,0,0,0,4.265,3.469l.259.157-.2.225A5.824,5.824,0,0,0,182.773,0l-.139.267L182.4.082a25.368,25.368,0,0,1-3.736-3.413,13.74,13.74,0,0,1-2.134-3.209c.013.384.019.793.019,1.3V-.736a15.725,15.725,0,0,0,.136,2.4l.039.284h-2.225l.034-.28a18.57,18.57,0,0,0,.136-2.408V-5.244c0-.534,0-.854.02-1.324a19.143,19.143,0,0,1-6.531,6.96l-.2.133-.143-.19a4.883,4.883,0,0,0-1.057-1.079l-.291-.225.316-.188a19.665,19.665,0,0,0,7.312-7.47H171.3a12.863,12.863,0,0,0-2.167.112l-.291.049V-10.6l.288.044a13.194,13.194,0,0,0,2.193.112h3.338v-3.387h-2.326a18.179,18.179,0,0,0-2.338.113l-.281.035v-2.1l.275.027a22.409,22.409,0,0,0,2.344.114h2.326v-1.59a9.657,9.657,0,0,0-.111-1.82Zm1.618.5h-1.029a11.8,11.8,0,0,1,.073,1.613v2.09h-2.826c-.765,0-1.414-.027-2.119-.09v.986a20.1,20.1,0,0,1,2.119-.085h2.826v4.387h-3.838a15.9,15.9,0,0,1-1.981-.078v.965a16.434,16.434,0,0,1,1.958-.076h3.645l-.206.371a20.242,20.242,0,0,1-7.4,7.843,4.991,4.991,0,0,1,.725.758,18.323,18.323,0,0,0,6.71-7.723l.476.122c-.091,1.349-.091,1.642-.091,2.513V-.736a19.537,19.537,0,0,1-.108,2.188h1.091a17.2,17.2,0,0,1-.1-2.188V-5.244c0-1.036-.023-1.669-.091-2.51l.475-.127a15.158,15.158,0,0,0,2.609,4.223A24.059,24.059,0,0,0,182.472-.5a5.977,5.977,0,0,1,.685-.988,18.7,18.7,0,0,1-4.127-3.41,18.387,18.387,0,0,1-2.563-3.864l-.2-.371H180.2a20.774,20.774,0,0,1,2.349.1v-1.017a20.337,20.337,0,0,1-2.372.1h-4.137v-4.387h3.263a18.644,18.644,0,0,1,2.188.107V-15.24a17.69,17.69,0,0,1-2.165.1h-3.286v-2.09A11.871,11.871,0,0,1,176.121-18.84Zm-123.264.048,2.38.241-.07.28c-.081.325-.108.451-.162.7l-.019.09q-.008.045-.021.132c-.035.222-.1.634-.208,1.245-.052.3-.091.54-.126.749-.04.239-.073.443-.115.676a17.992,17.992,0,0,0,3.753-.738l.308-.107.156,2.155-.457.046-.4.09a31.851,31.851,0,0,1-3.728.543A61.707,61.707,0,0,1,49.908.7l-.1.223L47.642,0l.143-.245a46.277,46.277,0,0,0,4.233-12.33c-.319.01-.639.01-1.28.01-.8,0-1.017,0-1.915-.046h-.086a3.185,3.185,0,0,0-.363.021l-.278.031v-2.191l.3.056a15.766,15.766,0,0,0,2.829.2c.405,0,.648,0,1.164-.032a26.951,26.951,0,0,0,.472-3.835Zm1.756.68-1.257-.127a31.581,31.581,0,0,1-.508,3.994l-.031.2-.2.014c-.676.047-.932.047-1.4.047a17.4,17.4,0,0,1-2.625-.161V-13.1c.069,0,.117,0,.141,0h.1c.891.046,1.084.046,1.9.046.838,0,1.121,0,1.575-.023l.319-.016-.062.314A48.2,48.2,0,0,1,48.357-.235l1.195.507A61.449,61.449,0,0,0,53.69-12.975l.037-.188.192-.012a30.493,30.493,0,0,0,3.852-.547l.429-.095-.074-1.026a20.015,20.015,0,0,1-3.892.694l-.327.028.06-.323c.071-.383.115-.651.172-.992.035-.21.074-.446.127-.753.107-.608.172-1.017.207-1.238q.015-.095.023-.141l0-.011.02-.1C54.552-17.843,54.577-17.957,54.613-18.111ZM6.936-18.765H9.212l-.041.285a12.984,12.984,0,0,0-.112,2.1v1.923a22.277,22.277,0,0,0,4.36-.94l.316-.109.094,2.1-.219.036c-.219.037-.321.058-.522.1l-.157.034c-1.742.361-2.825.549-3.873.669v3.421a16.166,16.166,0,0,1,4.695-.744,8.008,8.008,0,0,1,4.2,1A4.893,4.893,0,0,1,20.444-4.6a5.03,5.03,0,0,1-1.426,3.565A4.892,4.892,0,0,1,15.5.411a3.633,3.633,0,0,1-3.784-2.785,8.652,8.652,0,0,1-.284-2.668l0-.19.184-.047a4.725,4.725,0,0,0,1.458-.574l.424-.238-.054.483a6.6,6.6,0,0,0-.044.869c0,2.6.847,3.131,2.119,3.131a2.763,2.763,0,0,0,2.032-.836,3.1,3.1,0,0,0,.8-2.157c0-2.1-1.79-3.407-4.672-3.407a14.948,14.948,0,0,0-4.626.83V-1.61C9.059.117,8.01.48,7.13.48A6.329,6.329,0,0,1,3.169-1.055,3.039,3.039,0,0,1,2.027-3.4a4.415,4.415,0,0,1,1.9-3.249,12.231,12.231,0,0,1,3.155-1.86v-3.908c-.116.009-.3.02-.654.043-.423.024-.824.024-1.488.024-.36,0-.96,0-1.23-.023H2.533v-2.065l.292.05a12.9,12.9,0,0,0,2.3.157c.518,0,1.293-.017,1.958-.054V-16.33a15.191,15.191,0,0,0-.113-2.152Zm1.7.5H7.5a16.81,16.81,0,0,1,.083,1.935v2.511l-.233.016c-.721.048-1.637.07-2.225.07a14.419,14.419,0,0,1-2.1-.118v.975h.716c.242.022.863.022,1.2.022.655,0,1.051,0,1.458-.023.705-.045.705-.045.906-.068l.278-.031v4.791l-.152.065A12.042,12.042,0,0,0,4.255-6.271,3.964,3.964,0,0,0,2.527-3.4,2.53,2.53,0,0,0,3.5-1.431,5.8,5.8,0,0,0,7.13-.02c.988,0,1.429-.49,1.429-1.59V-7.542L8.733-7.6a15.7,15.7,0,0,1,4.952-.909,6.257,6.257,0,0,1,3.74,1.032A3.447,3.447,0,0,1,18.857-4.6a3.3,3.3,0,0,1-3.332,3.493,2.272,2.272,0,0,1-2.019-.9,4.739,4.739,0,0,1-.6-2.731c0-.156,0-.294.008-.46a4.813,4.813,0,0,1-.983.355A7.845,7.845,0,0,0,12.2-2.5a3.124,3.124,0,0,0,1.16,1.785,3.538,3.538,0,0,0,2.141.63,4.4,4.4,0,0,0,3.16-1.3A4.534,4.534,0,0,0,19.944-4.6,4.406,4.406,0,0,0,17.7-8.456a7.525,7.525,0,0,0-3.944-.931,15.987,15.987,0,0,0-4.873.818l-.322.1v-4.539l.224-.024a40.058,40.058,0,0,0,4.047-.686l.154-.033c.131-.028.221-.048.327-.068l-.044-.991a24.767,24.767,0,0,1-4.425.9l-.282.036v-2.492A14.761,14.761,0,0,1,8.639-18.265Zm77.6-.3-.053.421a4.157,4.157,0,0,0-.05.615c0,.156,0,.269.023.676.023.517.023.532.128,3.451a11.406,11.406,0,0,0,3.308-.9l.333-.162.156,2.247-.395.075c-.327.061-.438.082-1.024.239l-.007,0a22.228,22.228,0,0,1-2.307.435c.015.5.015.852.015,1.437,0,4.427-.425,6.353-1.82,8.244a11.32,11.32,0,0,1-3.686,3.034l-.19.111-.134-.174a5.064,5.064,0,0,0-1.2-1.2l-.32-.246.364-.177A9.232,9.232,0,0,0,82.81-3.006C83.937-4.442,84.3-6.07,84.3-9.706c0-.553,0-1.006-.03-1.546-.907.072-2.1.117-3.124.117-.668,0-2.01-.049-2.8-.092h-.014a3.047,3.047,0,0,0-.386-.021,2.019,2.019,0,0,0-.31.021l-.289.041.032-2.214.3.072a18.4,18.4,0,0,0,3.852.292c.8,0,1.56-.034,2.664-.119a42.215,42.215,0,0,0-.266-5.087l-.048-.287ZM85.8-12.823l-.01-.278c-.115-3.2-.115-3.2-.138-3.724-.023-.418-.023-.537-.023-.7a3.916,3.916,0,0,1,.035-.528l-1.2.016c.09.672.137,1.658.236,5.106l.007.237-.237.019c-1.249.1-2.073.139-2.941.139a20.873,20.873,0,0,1-3.664-.241l-.015,1.03h.091a3.558,3.558,0,0,1,.435.024c.781.043,2.1.091,2.762.091,1.111,0,2.42-.054,3.335-.137l.254-.023.018.255c.047.676.047,1.187.047,1.834,0,3.767-.387,5.47-1.594,7.008A9.328,9.328,0,0,1,79.952-.159a4.915,4.915,0,0,1,.84.867,10.568,10.568,0,0,0,3.349-2.791c1.318-1.787,1.72-3.644,1.72-7.945,0-.664,0-1.03-.023-1.647l-.008-.229.227-.028a21.629,21.629,0,0,0,2.477-.455c.575-.153.714-.181,1.015-.238L89.476-13.7a13.6,13.6,0,0,1-3.4.837ZM62.345-18.464l.131.157a17.685,17.685,0,0,1,2.4,3.612l.106.208-1.587.952-.118-.25a16.55,16.55,0,0,0-2.323-3.567l-.229-.237Zm1.978,3.788a16.948,16.948,0,0,0-2.1-3.154l-.689.372a18.439,18.439,0,0,1,2.075,3.211Zm8.9-3.622,2.383.362-.1.282A39.91,39.91,0,0,0,74.126-7.7c0,1.294.094,2.96.181,3.712l0,.025A34.485,34.485,0,0,1,75.9-7.7l.106-.228,1.631.767-.112.228a43.141,43.141,0,0,0-1.691,4,8.731,8.731,0,0,0-.63,2.838V.137L73.159.315,73.123.084a4.706,4.706,0,0,0-.14-.632L72.944-.7a26.4,26.4,0,0,1-.859-6.872,47.088,47.088,0,0,1,.923-8.9,11.48,11.48,0,0,0,.2-1.56Zm1.724.768-1.258-.191c-.024.295-.066.6-.192,1.341a46.685,46.685,0,0,0-.916,8.813,25.907,25.907,0,0,0,.843,6.744l.039.147c.055.209.085.321.111.453l1.135-.1a10.009,10.009,0,0,1,.652-2.772l0-.007c.527-1.423,1.065-2.707,1.6-3.82l-.716-.337a23.822,23.822,0,0,0-1.813,4.61l-.491-.068a7.827,7.827,0,0,0-.134-1.2l0-.016c-.09-.763-.186-2.463-.186-3.778A40.986,40.986,0,0,1,74.951-17.53Zm87.5.039.307.038a13.776,13.776,0,0,0,1.855.09h2.047a14.65,14.65,0,0,0,1.9-.09l.318-.038-.04.317a20.084,20.084,0,0,0-.067,2.108v9.522a24.739,24.739,0,0,0,.091,2.5l.029.276h-2v-1.2H164.47v2.484h-2.079l.041-.285a18.291,18.291,0,0,0,.135-2.449V-14.973c0-.771-.031-1.514-.091-2.209Zm5.89,14.227c-.047-.58-.068-1.284-.068-2.28v-9.522c0-.868.013-1.453.041-1.858-.466.045-.93.061-1.654.061h-2.047a15.923,15.923,0,0,1-1.613-.06c.046.62.069,1.275.069,1.949V-4.209a20.635,20.635,0,0,1-.1,2.234h1.007V-4.459h3.421v1.2ZM194.849-17.3a6.1,6.1,0,0,1,3.785,1.079,3.569,3.569,0,0,1,1.44,2.978,3.819,3.819,0,0,1-.411,1.819A7.874,7.874,0,0,1,198.132-9.6l-.7.653a6.28,6.28,0,0,0-1.316,1.583,3.943,3.943,0,0,0-.3,1.693v1.485H193.1v-.856a6.3,6.3,0,0,1,1.713-4.2l.706-.819a5.569,5.569,0,0,0,1.7-3.15,1.627,1.627,0,0,0-.675-1.384,3.167,3.167,0,0,0-1.938-.534,9.05,9.05,0,0,0-3.551.811l-.349.15V-16.6l.178-.054A13.763,13.763,0,0,1,194.849-17.3Zm.469,12.612v-.985a4.419,4.419,0,0,1,.351-1.912,6.631,6.631,0,0,1,1.423-1.729l.7-.652a7.531,7.531,0,0,0,1.433-1.693,3.328,3.328,0,0,0,.352-1.583,3.054,3.054,0,0,0-1.244-2.581,5.62,5.62,0,0,0-3.481-.976,13.105,13.105,0,0,0-3.636.565v1.315a9.288,9.288,0,0,1,3.4-.707,3.647,3.647,0,0,1,2.239.634,2.125,2.125,0,0,1,.874,1.783c0,.932-.6,2.07-1.825,3.477l-.707.819a5.816,5.816,0,0,0-1.59,3.868v.356Zm-45.15-12.285a9.14,9.14,0,0,1,6.5,2.349,7.941,7.941,0,0,1,2.306,5.79,8.849,8.849,0,0,1-1.424,4.908,8.965,8.965,0,0,1-3.994,3.257A18.019,18.019,0,0,1,150.013.405l-.225.049-.067-.221a3.407,3.407,0,0,0-.762-1.458l-.264-.333.419-.069a13.564,13.564,0,0,0,3.776-1.061A6.716,6.716,0,0,0,156.817-8.9a5.81,5.81,0,0,0-3.509-5.545,6.207,6.207,0,0,0-2.344-.542,34.482,34.482,0,0,1-2.247,8.968,11.438,11.438,0,0,1-2.1,3.423,3.386,3.386,0,0,1-2.472,1.144,3.553,3.553,0,0,1-2.935-1.708,7.449,7.449,0,0,1-1.133-4.154,9.763,9.763,0,0,1,2.479-6.515A9.832,9.832,0,0,1,150.167-16.971ZM150.13-.132a17.012,17.012,0,0,0,3.229-.995A8.466,8.466,0,0,0,157.132-4.2a8.351,8.351,0,0,0,1.341-4.632,7.447,7.447,0,0,0-2.155-5.432,8.649,8.649,0,0,0-6.151-2.207,9.351,9.351,0,0,0-7.244,2.977,9.262,9.262,0,0,0-2.35,6.18c0,3.057,1.534,5.362,3.568,5.362a2.912,2.912,0,0,0,2.116-.995,10.969,10.969,0,0,0,2-3.272,34.069,34.069,0,0,0,2.234-9.057l.025-.232.233.009a6.846,6.846,0,0,1,2.757.6,6.293,6.293,0,0,1,3.808,6A7.21,7.21,0,0,1,153.1-2.233a13.233,13.233,0,0,1-3.5,1.03A3.422,3.422,0,0,1,150.13-.132Zm36.147-16.739h2.712v3.582l-.277,9.1h-2.147l-.289-9.111Zm2.212.5h-1.712v3.07l.273,8.615h1.177l.262-8.614Zm-171.98-.5.149.105a19.606,19.606,0,0,1,4.7,4.42l.146.187-1.583,1.37-.16-.223a18.679,18.679,0,0,0-4.583-4.447l-.29-.2Zm4.307,4.646a18.915,18.915,0,0,0-4.3-4.028l-.773.58a19.269,19.269,0,0,1,4.261,4.149Zm99.5-4.623.281.066a26.165,26.165,0,0,0,6.061.545,25.142,25.142,0,0,0,5.757-.475l.288-.073.151,1.995-.166.07a32.426,32.426,0,0,0-5.746,3.468l-.155.112L125.2-12.415l.282-.189c1.365-.917,1.938-1.28,2.827-1.781a18.247,18.247,0,0,1-2.09.1,45.033,45.033,0,0,1-5.091-.3c-.126-.014-.219-.026-.3-.036a2.7,2.7,0,0,0-.432-.031h-.272Zm6.343,1.111a27.509,27.509,0,0,1-5.893-.5l-.092,1.086c.072.006.139.015.225.026s.165.021.29.035a44.5,44.5,0,0,0,5.032.3,17.946,17.946,0,0,0,3.432-.3l.17.461a2.92,2.92,0,0,1-.293.157c-.048.022-.089.042-.148.076l-.012.007c-.275.138-.318.159-.567.295-.957.532-1.491.861-2.757,1.708l.759.611a33.5,33.5,0,0,1,5.525-3.341l-.079-1.048A27.57,27.57,0,0,1,126.661-15.735Zm-14.426-.873.185,2.276h-.271a9.357,9.357,0,0,0-2.512.314,11.071,11.071,0,0,0-4.317,2.248,6.746,6.746,0,0,0-2.741,5.123,4.281,4.281,0,0,0,3.059,4.021,11.558,11.558,0,0,0,3.361.72h.523L109.134.5l-.251-.046c-.1-.019-.176-.034-.245-.049-.107-.023-.219-.047-.464-.088A11.888,11.888,0,0,1,103.106-1.5a5.787,5.787,0,0,1-2.662-4.9,7.521,7.521,0,0,1,1.161-3.963,10.979,10.979,0,0,1,3.249-3.3c.311-.21.6-.389.885-.554-.953.11-2.068.194-3.6.3a75.952,75.952,0,0,0-7.891.752l-.291.073-.152-2.4.28.015c.43.023.653.023.815.023.255,0,.485-.015.943-.045l.352-.023.689-.05c.771-.057,1.327-.1,3.568-.226l3.609-.23,1.532-.088c1.464-.084,1.768-.1,2.364-.12l1.307-.046a15.538,15.538,0,0,0,2.68-.244Zm-.357,1.779-.093-1.149c-.354.059-.967.108-2.5.2h-.006l-1.311.046c-.59.018-.893.035-2.351.119l-1.53.088-3.609.23c-2.238.127-2.793.168-3.561.225l-.692.051L95.874-15c-.469.031-.7.047-.976.047-.121,0-.29,0-.561-.01l.079,1.25c1.009-.186,3.319-.4,7.686-.7a47.173,47.173,0,0,0,5.034-.5l.15.472a14.718,14.718,0,0,0-2.152,1.2,10.484,10.484,0,0,0-3.1,3.152,7.029,7.029,0,0,0-1.087,3.7,5.3,5.3,0,0,0,2.443,4.485,11.3,11.3,0,0,0,4.87,1.732c.24.04.362.066.465.088l.211-1.317a12.136,12.136,0,0,1-3.473-.751,4.759,4.759,0,0,1-3.384-4.49,7.319,7.319,0,0,1,2.918-5.5,11.583,11.583,0,0,1,4.515-2.351A9.661,9.661,0,0,1,111.877-14.829Zm52.093-1.2h3.421V-5.247H163.97Zm2.921.5H164.47v9.781h2.421Zm-17.526.028-.03.3a31.913,31.913,0,0,1-2.113,8.585c-1.043,2.378-2.03,3.485-3.1,3.485-1.4,0-2.458-1.788-2.458-4.16a8.537,8.537,0,0,1,1.034-4.09,7.909,7.909,0,0,1,2.836-2.978,7.5,7.5,0,0,1,3.535-1.116ZM144.118-3.631c.84,0,1.706-1.042,2.646-3.185a31.248,31.248,0,0,0,2.041-8.131,6.9,6.9,0,0,0-3.016,1.016,7.41,7.41,0,0,0-2.656,2.79,8.036,8.036,0,0,0-.973,3.85C142.16-5.239,143.02-3.631,144.118-3.631Zm-32-9.752.132.161a18.851,18.851,0,0,1,2.4,3.63l.113.215-1.6.894-.114-.243a18.07,18.07,0,0,0-2.31-3.555l-.2-.233Zm1.972,3.808a17.953,17.953,0,0,0-2.1-3.169l-.68.374a18.819,18.819,0,0,1,2.07,3.19ZM33.468-12.463h7.906V-9.3H33.468Zm7.406.5H33.968V-9.8h6.906Zm68.646-.151.129.155a17.685,17.685,0,0,1,2.4,3.612l.107.21-1.615.95-.115-.253a16.039,16.039,0,0,0-2.3-3.586l-.233-.241ZM111.5-8.33a16.95,16.95,0,0,0-2.1-3.154l-.684.356a17.573,17.573,0,0,1,2.054,3.23ZM63.2-12.026c.44,0,.787,0,2.517.069l.237.009.03,2.151-.28-.029a22.816,22.816,0,0,0-2.688-.16,19.806,19.806,0,0,0-5.684.773l-.285.078-.214-2.08.219-.047A26.189,26.189,0,0,1,63.2-12.026Zm2.26.559c-1.516-.059-1.847-.059-2.26-.059a25.2,25.2,0,0,0-5.823.707l.108,1.049a20.111,20.111,0,0,1,5.531-.714,22.275,22.275,0,0,1,2.46.134Zm56.311,2.132,1.587,1.182-.244.2c-1.429,1.187-2.095,2.2-2.095,3.189,0,.937.6,1.615,1.785,2.017a14.55,14.55,0,0,0,4.129.447,21.8,21.8,0,0,0,6.805-.855l.307-.126.271,2.473-.257.02a4.617,4.617,0,0,0-.578.08l-.18.032a37.971,37.971,0,0,1-6.253.533,16.52,16.52,0,0,1-5.38-.73l-.005,0a3.927,3.927,0,0,1-2.777-3.7c0-1.563.894-3.077,2.734-4.63Zm.781,1.206L121.8-8.7c-1.618,1.406-2.406,2.754-2.406,4.119a3.421,3.421,0,0,0,2.465,3.241,16.044,16.044,0,0,0,5.2.7,37.452,37.452,0,0,0,6.168-.525L133.4-1.2c.153-.028.256-.046.371-.061l-.144-1.316a23.847,23.847,0,0,1-6.686.778,14.779,14.779,0,0,1-4.29-.473c-1.755-.6-2.124-1.683-2.124-2.491C120.523-5.864,121.153-6.911,122.557-8.129Zm-114.97.9v4.769c0,.9-.035,1.377-.779,1.377a4.545,4.545,0,0,1-2.18-.705A2,2,0,0,1,3.522-3.381c0-1.211,1.316-2.516,3.706-3.675ZM6.808-1.584c.188,0,.2-.024.211-.049a2.831,2.831,0,0,0,.068-.828V-6.427C5.133-5.419,4.022-4.319,4.022-3.381c0,.4.295.79.876,1.171A4.065,4.065,0,0,0,6.808-1.584Zm50.46-5.47,1.753.877-.2.243-.214.256a4.8,4.8,0,0,0-.457.592l-.012.017a2.509,2.509,0,0,0-.524,1.481c0,1.542,2.053,1.866,3.775,1.866a16.772,16.772,0,0,0,5-.768l.3-.106L66.9-.318l-.527.081L65.66-.1a25.453,25.453,0,0,1-4.135.371,8.7,8.7,0,0,1-4.407-.907,3.073,3.073,0,0,1-1.57-2.793c0-1.1.358-1.88,1.594-3.466Zm.965,1.041-.821-.411c-1.066,1.387-1.363,2.052-1.363,3,0,2.123,1.843,3.2,5.477,3.2a24.957,24.957,0,0,0,4.05-.364l.719-.139.066-.01-.11-1.178a17.836,17.836,0,0,1-4.863.7,6.865,6.865,0,0,1-3.112-.569,1.968,1.968,0,0,1-1.163-1.8,3.016,3.016,0,0,1,.62-1.776A5.238,5.238,0,0,1,58.222-6ZM43.683-6.9l-.034.3a19.91,19.91,0,0,0-.09,2.41V-.641h.072A8.416,8.416,0,0,0,45.018-.73l.289-.046v2l-.277-.03a19.789,19.789,0,0,0-2.158-.114h-11.8a17.577,17.577,0,0,0-2.087.113l-.279.032v-2L29-.73a9.774,9.774,0,0,0,1.569.089h.463V-4.163A21.7,21.7,0,0,0,30.939-6.6l-.029-.3.3.027a20.1,20.1,0,0,0,2.346.068h7.475a20.394,20.394,0,0,0,2.346-.068Zm-2.651.6H33.557c-1.232,0-1.543,0-2.093-.044.048.569.066,1.082.066,2.186V-.141h-.963A12.654,12.654,0,0,1,29.207-.2V.665A18.364,18.364,0,0,1,31.073.578h11.8c.672,0,1.293.028,1.935.089V-.2a9.964,9.964,0,0,1-1.176.055h-.572V-4.186c0-1.076.014-1.622.063-2.163C42.567-6.305,42.236-6.305,41.032-6.305Zm-8.691.719h2.8V-.141h-2.8Zm2.3.5h-1.8V-.641h1.8Zm1.242-.5h2.754V-.141H35.883Zm2.254.5H36.383V-.641h1.754Zm1.242-.5h2.846V-.141H39.379Zm2.346.5H39.879V-.641h1.846ZM186.277-2.462h2.712V.25h-2.712Zm2.212.5h-1.712V-.25h1.712Zm4.616-.5h2.712V.25H193.1Zm2.212.5H193.6V-.25h1.712Z" transform="matrix(0.978, -0.208, 0.208, 0.978, 766.266, 2137.435)" fill="#fff"/><path d="M754.438,12640.526a14.564,14.564,0,0,1-.037-3.824,45.739,45.739,0,0,0-1.439-8.688,54.523,54.523,0,0,0-5.024-12.452,64.5,64.5,0,0,0-10.737-14.185,39.469,39.469,0,0,0-13.5-9.274,26.414,26.414,0,0,0-11.2-1.823,23.331,23.331,0,0,0-10.615,3.154l-1.437-1.306a40.088,40.088,0,0,0,2.82-7.714,59.433,59.433,0,0,0,1.673-8.949,64.922,64.922,0,0,0,.207-11.73,29.4,29.4,0,0,0-2.016-9.371,12.427,12.427,0,0,0-3.229-4.635,7.335,7.335,0,0,0-4.591-1.878c-.07,0-.108,0-.111,0l-.17-1.992a9.011,9.011,0,0,1,6.171,2.347,14.4,14.4,0,0,1,3.768,5.368,31.363,31.363,0,0,1,2.173,10.015,66.941,66.941,0,0,1-.22,12.146,61.392,61.392,0,0,1-1.744,9.272,50.94,50.94,0,0,1-1.774,5.391,26.726,26.726,0,0,1,8.862-2.109,28.274,28.274,0,0,1,12.089,1.921,41.371,41.371,0,0,1,14.266,9.758,66.477,66.477,0,0,1,11.1,14.688,56.479,56.479,0,0,1,5.2,12.947c.331,1.271.594,2.471.8,3.589a26.26,26.26,0,0,1,2.807-5.414c3.065-4.562,7.675-8.624,13.7-12.074,7.461-4.269,17.144-7.615,28.779-9.944a95.243,95.243,0,0,1,35.007-.507,101.724,101.724,0,0,1,27.194,8.85,108.275,108.275,0,0,1,17.614,10.762q1.1.833,2.018,1.567a56.386,56.386,0,0,1-3.971-10.746,35.671,35.671,0,0,1-.84-14.59,25.816,25.816,0,0,1,7.7-14.528,26.833,26.833,0,0,1,14.2-7.436,30.794,30.794,0,0,1,13.381.816,44.992,44.992,0,0,1,10.76,4.573,14.512,14.512,0,0,1-.665-3.613,15.719,15.719,0,0,1,1.436-7.351,26.1,26.1,0,0,1,6.712-8.646,34.9,34.9,0,0,1,11.079-6.512,47.666,47.666,0,0,1,11.045-2.579,56.551,56.551,0,0,1,9.423-.3,46.3,46.3,0,0,1-4.18-6.3,54.877,54.877,0,0,1-4.3-9.969,59.459,59.459,0,0,1-2.631-13.7,31.121,31.121,0,0,1,1.369-12.61,19.126,19.126,0,0,1,4.605-7.394,15.96,15.96,0,0,1,7.31-4.224l.4,1.961-.2-.98.2.979a14.268,14.268,0,0,0-6.387,3.769,17.207,17.207,0,0,0-4.067,6.629,29.23,29.23,0,0,0-1.235,11.722,57.454,57.454,0,0,0,2.542,13.235,52.858,52.858,0,0,0,4.142,9.605,37.883,37.883,0,0,0,5.509,7.771l2.12,2.105-2.961-.4a50.886,50.886,0,0,0-11.482.1,45.527,45.527,0,0,0-10.557,2.473,32.892,32.892,0,0,0-10.419,6.123,24.223,24.223,0,0,0-6.18,7.9,13.791,13.791,0,0,0-1.3,6.385,11.85,11.85,0,0,0,1.895,6l-1.4,1.4a43.017,43.017,0,0,0-13.16-6.221,28.744,28.744,0,0,0-12.489-.755,24.871,24.871,0,0,0-13.114,6.9,23.857,23.857,0,0,0-7.121,13.424,33.694,33.694,0,0,0,.807,13.771,54.846,54.846,0,0,0,6.453,15.1l-1.537,1.264a67.9,67.9,0,0,0-6.163-5.146,106.27,106.27,0,0,0-17.3-10.552,99.7,99.7,0,0,0-26.638-8.652,93.2,93.2,0,0,0-34.228.5c-11.356,2.273-20.793,5.52-28.05,9.646-5.757,3.274-10.154,7.1-13.068,11.383a22.539,22.539,0,0,0-3.81,9.443q-.038.265-.066.516a26.166,26.166,0,0,1,0,3.729Z" transform="translate(31.54 -10448.533)" fill="#fff"/></g></svg>