<svg xmlns="http://www.w3.org/2000/svg" width="32.978" height="50.594" viewBox="0 0 32.978 50.594"><g transform="translate(-1259.61 -3721.466)" opacity="0.2"><g transform="translate(-52 33.906)"><g transform="translate(2604 4371) rotate(180)"><g transform="translate(601 -59)"><path d="M7,3a4,4,0,1,0,4,4A4,4,0,0,0,7,3M7,0A7,7,0,1,1,0,7,7,7,0,0,1,7,0Z" transform="translate(682 738.999) rotate(180)" fill="#fff"/></g><path d="M674,11294.473a1.5,1.5,0,0,1-1.5-1.5v-3.225a1.5,1.5,0,0,1,3,0v3.225A1.5,1.5,0,0,1,674,11294.473Z" transform="translate(1950 11971.688) rotate(180)" fill="#fff"/></g><path d="M-16.39-7.623q.462-.088,1.017-.137t1.106-.049a7.182,7.182,0,0,1,1.149.094,2.863,2.863,0,0,1,1.04.374,2.172,2.172,0,0,1,.753.781,2.57,2.57,0,0,1,.292,1.3,2.7,2.7,0,0,1-.253,1.227,2.341,2.341,0,0,1-.671.819,2.705,2.705,0,0,1-.951.462,4.251,4.251,0,0,1-1.106.143h-.176q-.121,0-.253-.005t-.259-.016q-.127-.011-.182-.022V0H-16.39Zm2.244,1.111q-.22,0-.418.016t-.319.038v2.5a1.206,1.206,0,0,0,.132.022q.088.011.187.017t.193.005h.137a3.167,3.167,0,0,0,.589-.055,1.454,1.454,0,0,0,.523-.2,1.061,1.061,0,0,0,.368-.412,1.5,1.5,0,0,0,.138-.693,1.219,1.219,0,0,0-.132-.6,2,2,0,0,0-.347-.379,2.5,2.5,0,0,0-.49-.2A2.854,2.854,0,0,0-14.146-6.512Zm10.3,4.807H-6.215L-6.8,0H-8.3l2.772-7.755h1.111L-1.65,0H-3.234Zm-1.98-1.21h1.65l-.572-1.716-.231-1.21h-.055L-5.269-4.62Zm10.516-1.1H7.557V-.583a2.893,2.893,0,0,1-1.106.561A4.8,4.8,0,0,1,5.181.154,3.962,3.962,0,0,1,3.812-.077,2.811,2.811,0,0,1,2.717-.8a3.432,3.432,0,0,1-.726-1.249,5.505,5.505,0,0,1-.264-1.8A4.886,4.886,0,0,1,2.041-5.7a3.478,3.478,0,0,1,.825-1.243,3.127,3.127,0,0,1,1.15-.693,4.048,4.048,0,0,1,1.3-.214,6.034,6.034,0,0,1,1.161.1,5.393,5.393,0,0,1,.8.209L6.963-6.281a3.131,3.131,0,0,0-.616-.171,5.126,5.126,0,0,0-.869-.061,2.542,2.542,0,0,0-.869.143,1.681,1.681,0,0,0-.688.468,2.224,2.224,0,0,0-.451.83,4.136,4.136,0,0,0-.16,1.232,4.084,4.084,0,0,0,.154,1.194,2.31,2.31,0,0,0,.429.825,1.693,1.693,0,0,0,.644.479,2.019,2.019,0,0,0,.786.154,2.22,2.22,0,0,0,.561-.071,1.283,1.283,0,0,0,.462-.214V-2.926L4.686-3.1ZM11.968-7.7h4.565v1.342H13.475v1.793h2.783v1.342H13.475v1.881h3.113V0h-4.62ZM-6.913,7.642H-9.157V14h-1.507V7.642h-2.255V6.3h6.006ZM-3.5,10.15a4.583,4.583,0,0,1,.847-2.964,2.943,2.943,0,0,1,2.42-1.04A3.391,3.391,0,0,1,1.2,6.432a2.715,2.715,0,0,1,1.023.814,3.558,3.558,0,0,1,.605,1.265,6.314,6.314,0,0,1,.2,1.639,4.562,4.562,0,0,1-.853,2.965,2.946,2.946,0,0,1-2.414,1.04,3.42,3.42,0,0,1-1.452-.286,2.669,2.669,0,0,1-1.018-.814,3.613,3.613,0,0,1-.6-1.265A6.314,6.314,0,0,1-3.5,10.15Zm1.584,0a5.417,5.417,0,0,0,.1,1.073,2.771,2.771,0,0,0,.3.842,1.539,1.539,0,0,0,.523.55,1.41,1.41,0,0,0,.759.2,1.43,1.43,0,0,0,1.243-.627,3.626,3.626,0,0,0,.44-2.035A5.511,5.511,0,0,0,1.353,9.1a2.915,2.915,0,0,0-.291-.847,1.518,1.518,0,0,0-.517-.566,1.423,1.423,0,0,0-.781-.2,1.419,1.419,0,0,0-1.243.644A3.638,3.638,0,0,0-1.92,10.15ZM7.408,6.377q.462-.088,1.017-.137T9.531,6.19a7.182,7.182,0,0,1,1.149.094,2.863,2.863,0,0,1,1.04.374,2.172,2.172,0,0,1,.753.781,2.57,2.57,0,0,1,.291,1.3,2.7,2.7,0,0,1-.253,1.226,2.341,2.341,0,0,1-.671.819,2.705,2.705,0,0,1-.951.462,4.251,4.251,0,0,1-1.105.143H9.608q-.121,0-.253-.005T9.1,11.371q-.127-.011-.182-.022V14H7.408ZM9.653,7.488q-.22,0-.418.016t-.319.038v2.5a1.206,1.206,0,0,0,.132.022q.088.011.187.016t.193.005h.137a3.167,3.167,0,0,0,.589-.055,1.454,1.454,0,0,0,.523-.2,1.061,1.061,0,0,0,.369-.413,1.5,1.5,0,0,0,.137-.693,1.219,1.219,0,0,0-.132-.6,1.08,1.08,0,0,0-.346-.38,1.349,1.349,0,0,0-.49-.2A2.854,2.854,0,0,0,9.653,7.488Z" transform="translate(1328 3724)" fill="#fff"/></g></g></svg>