<svg xmlns="http://www.w3.org/2000/svg" width="54" height="20.423" viewBox="0 0 54 20.423"><g transform="translate(-1218.506 -50.156)"><path d="M118.484,7.863a11.63,11.63,0,0,1-7.627-2.715,9.1,9.1,0,0,0-11.747,0,11.629,11.629,0,0,1-7.627,2.715,11.63,11.63,0,0,1-7.627-2.715,9.1,9.1,0,0,0-11.746,0,11.629,11.629,0,0,1-7.627,2.715v-3a8.752,8.752,0,0,0,5.873-2.149,12.071,12.071,0,0,1,15.253,0,8.752,8.752,0,0,0,5.874,2.149,8.751,8.751,0,0,0,5.873-2.149,12.072,12.072,0,0,1,15.254,0,8.752,8.752,0,0,0,5.873,2.149Z" transform="translate(1154.022 50.156)" fill="#fff"/><path d="M118.484,7.863a11.63,11.63,0,0,1-7.627-2.715,9.1,9.1,0,0,0-11.747,0,11.629,11.629,0,0,1-7.627,2.715,11.63,11.63,0,0,1-7.627-2.715,9.1,9.1,0,0,0-11.746,0,11.629,11.629,0,0,1-7.627,2.715v-3a8.752,8.752,0,0,0,5.873-2.149,12.071,12.071,0,0,1,15.253,0,8.752,8.752,0,0,0,5.874,2.149,8.751,8.751,0,0,0,5.873-2.149,12.072,12.072,0,0,1,15.254,0,8.752,8.752,0,0,0,5.873,2.149Z" transform="translate(1154.022 62.716)" fill="#fff"/></g></svg>