<svg xmlns="http://www.w3.org/2000/svg" width="10.094" height="7.339" viewBox="0 0 10.094 7.339"><g transform="translate(0 0)"><g transform="translate(9.094 7.339) rotate(180)"><path d="M3.67,2a1.67,1.67,0,1,0,1.67,1.67A1.671,1.671,0,0,0,3.67,2m0-2A3.67,3.67,0,1,1,0,3.67,3.67,3.67,0,0,1,3.67,0Z" transform="translate(1.755)" fill="#222"/><path d="M1.939,1H0A1,1,0,0,1-1,0,1,1,0,0,1,0-1H1.939a1,1,0,0,1,1,1A1,1,0,0,1,1.939,1Z" transform="translate(0 3.67)" fill="#222"/><circle cx="0.5" cy="0.5" r="0.5" transform="translate(4.959 5.167) rotate(180)" fill="#222"/></g></g></svg>