<svg xmlns="http://www.w3.org/2000/svg" width="45.76" height="35.035" viewBox="0 0 45.76 35.035"><path d="M51.194-88.374a8.5,8.5,0,0,1-2.789,6.649,10,10,0,0,1-6.936,2.5,10.552,10.552,0,0,1-8.294-3.36,12.913,12.913,0,0,1-3-8.937,23.779,23.779,0,0,1,1.788-9.724,23.528,23.528,0,0,1,4.29-6.649,21.684,21.684,0,0,1,5.219-4.147,33.074,33.074,0,0,1,4.719-2.216l4.576,7.722a11.73,11.73,0,0,0-4.862,3.646,10.1,10.1,0,0,0-2.288,5.363,7.065,7.065,0,0,1,5.22,2.5A9.3,9.3,0,0,1,51.194-88.374Zm-24.739,0a8.5,8.5,0,0,1-2.788,6.649,10,10,0,0,1-6.936,2.5,10.552,10.552,0,0,1-8.294-3.36,12.913,12.913,0,0,1-3-8.937,23.779,23.779,0,0,1,1.788-9.724,23.528,23.528,0,0,1,4.29-6.649,21.684,21.684,0,0,1,5.219-4.147,33.075,33.075,0,0,1,4.719-2.216l4.576,7.722a11.73,11.73,0,0,0-4.862,3.646,10.1,10.1,0,0,0-2.288,5.363,7.065,7.065,0,0,1,5.22,2.5A9.3,9.3,0,0,1,26.455-88.374Z" transform="translate(-5.434 114.257)" fill="#2e2e2e"/></svg>