<svg xmlns="http://www.w3.org/2000/svg" width="14.63" height="11" viewBox="0 0 14.63 11"><g transform="translate(-854.359 -2397.5)"><g transform="translate(1730.359 4806) rotate(180)"><path d="M5.5,2A3.5,3.5,0,1,0,9,5.5,3.5,3.5,0,0,0,5.5,2m0-2A5.5,5.5,0,1,1,0,5.5,5.5,5.5,0,0,1,5.5,0Z" transform="translate(865 2397.5)" fill="#fff"/><path d="M862.887,12966h-2.906a1,1,0,0,1,0-2h2.906a1,1,0,0,1,0,2Z" transform="translate(2.388 -10562)" fill="#fff"/><circle cx="1" cy="1" r="1" transform="translate(870.359 2405) rotate(180)" fill="#fff"/></g></g></svg>