<svg xmlns="http://www.w3.org/2000/svg" width="23" height="16.166" viewBox="0 0 23 16.166"><g transform="translate(-1112.723 -3867.51)"><path d="M2,2v8H17V2H2M2,0H17a2,2,0,0,1,2,2v8a2,2,0,0,1-2,2H2a2,2,0,0,1-2-2V2A2,2,0,0,1,2,0Z" transform="translate(1112.723 3871.675)" fill="#fff"/><g transform="translate(1117.642 3868.51)"><path d="M20.818,11.672a1,1,0,0,1-1-1V3.62A2.653,2.653,0,0,0,17.14,1H3.737a1,1,0,0,1-1-1,1,1,0,0,1,1-1h13.4a4.655,4.655,0,0,1,4.678,4.62v7.052A1,1,0,0,1,20.818,11.672Z" transform="translate(-3.737)" fill="#fff"/></g></g></svg>