<svg xmlns="http://www.w3.org/2000/svg" xmlns:xlink="http://www.w3.org/1999/xlink" width="30" height="44" viewBox="0 0 30 44"><defs><clipPath id="a"><rect width="14.663" height="19.123" fill="#fff"/></clipPath></defs><g transform="translate(-196 -3171)"><g transform="translate(8 3)"><path d="M4,2A2,2,0,0,0,2,4V40a2,2,0,0,0,2,2H26a2,2,0,0,0,2-2V4a2,2,0,0,0-2-2H4M4,0H26a4,4,0,0,1,4,4V40a4,4,0,0,1-4,4H4a4,4,0,0,1-4-4V4A4,4,0,0,1,4,0Z" transform="translate(188 3168)" fill="#fff"/><path d="M7055.8,3162.248l-1.485,1.29h-5.16l-1.531-1.29" transform="translate(-6848.465 6.983)" fill="#fff"/><path d="M7054.32,3164.538h-5.16a1,1,0,0,1-.645-.235l-1.531-1.29a1,1,0,0,1,1.289-1.529l1.251,1.054h4.421l1.2-1.045a1,1,0,0,1,1.312,1.51l-1.485,1.29A1,1,0,0,1,7054.32,3164.538Z" transform="translate(-6848.465 6.983)" fill="#fff"/><g transform="translate(195.944 3180.438)"><g clip-path="url(#a)"><path d="M1.311.811C0,1.663-.261,4.327.235,6.5a19.61,19.61,0,0,0,2.593,6.094,20.365,20.365,0,0,0,4.507,4.853c1.78,1.338,4.317,2.189,5.631,1.337a6.654,6.654,0,0,0,1.7-1.819l-.706-1.088-1.941-2.993c-.144-.222-1.049-.019-1.508.241a4.375,4.375,0,0,0-1.191,1.294c-.425.246-.781,0-1.525-.341a9.058,9.058,0,0,1-2.76-2.911A9.057,9.057,0,0,1,3.5,7.455c-.009-.819-.087-1.244.31-1.532a4.376,4.376,0,0,0,1.667-.56c.425-.313.98-1.056.835-1.279L4.37,1.092,3.664,0A6.655,6.655,0,0,0,1.311.811" transform="translate(0 0)" fill="#fff"/></g></g></g></g></svg>