<svg xmlns="http://www.w3.org/2000/svg" width="122.569" height="81.38" viewBox="0 0 122.569 81.38"><g transform="translate(0 0)"><path d="M117.42,166.232l-.155-.071.007-.075-.155-.045-.04-.457.047-.076-.155-.306a1.42,1.42,0,0,0-.333.362.847.847,0,0,1-.434.322l-.35-.347.982-1.02-.054-.041.1-.2-.908-.2-.471.5-.2.035-.2-.115-.1-.271.565-.493.37-.492h.1l.363-.533.41-.07a3.551,3.551,0,0,0,.844.141,1.835,1.835,0,0,1,.79.211v.231l-.686,1.1,1.127.01a2.579,2.579,0,0,1,1.019.206l.087,1.03-.169.608-.2.026-.458-.07-.255.035-.1-.04-.41.07-.1-.035-.054.035-.2-.035Zm-.175-2.362a1.325,1.325,0,0,0,.32-.306,1.277,1.277,0,0,0,.165-.341,1.311,1.311,0,0,0-.44-.078,2.314,2.314,0,0,1-.434-.043l-.518.568.861.236Zm2.072,1.849.061-.266-.148-.648-.357-.08-.1.035-.1-.035-.209.035-.4-.04-.309.03-.054.8.047.035-.054.041.047.15.821.01.558-.07.155.035Z" transform="translate(-74.81 -101.908)" fill="#fff"/><path d="M134.651,166.173l-.256-.075-.155-.306.047-.076a.629.629,0,0,1-.276-.419,1.648,1.648,0,0,0-.128-.46l.047-.035-.1-.341.054-.081.457-.035v-.075l.767-.081.047-.11-.047-.04.047-.035-.1-.422-1.379-.075-.047.04-.357-.382.155-.156h.2l1.325.115a.229.229,0,0,0,.1-.191v-.226l-.148-.382.3-.075.31.151.2.648.559.035.41-.035.256.116.1.191-.1.151-.309.116-.815-.076a.214.214,0,0,0-.1.171v.171l.155.3,1.325.156.047.226-.1.915.054.231-.511.342-1.48.04-.1-.04Zm1.681-.532q.2-.075.2-.211v-.286l-.047-.035.047-.382a1.011,1.011,0,0,0-.508-.115h-.616l-.659.075-.1-.04-.108.08.054.035-.054.266.209.382-.054.115.155.151.666.04Z" transform="translate(-85.187 -101.684)" fill="#fff"/><path d="M150.725,165.905a.331.331,0,0,1-.151-.362.542.542,0,0,0-.051-.4l.048-.081-.048-.417a8.77,8.77,0,0,0,.1-1.354,4.154,4.154,0,0,1,.2-1.314l.155-.075.155.035.047-.035.612.035.054-.035.1.035.612-.075.054.04.2-.04,1.124.075.255-.035a.652.652,0,0,1,.178.093.5.5,0,0,1,.124.133v.724l-.148.155-.464.035-.048-.035-1.433.116-.148-.04-.357.04-.565-.04c-.1.05-.138.12-.1.208a.231.231,0,0,1-.051.249l.054.04-.1,1.789.047.151-.148.347Zm3.161-3.317v-.266l-1.325-.076-.1.041-.054-.041-.4.076-.155-.035-.511.035-.054.306.108.076.047-.04.612.08.1-.04.411.04,1.224-.156.054.04Zm-1.738,3.547a1.1,1.1,0,0,1-.276-.115.25.25,0,0,1-.128-.231l.3-.111.464.035.357-.035v-.191h-.511a.9.9,0,0,1-.458-.115l-.108-.226.357-.081.511.041.209-.076.047-.342h-.38a.71.71,0,0,1-.333-.08l-.155-.3.309-.422h-.437a.366.366,0,0,1-.33-.151l-.1-.191a.525.525,0,0,1,.407-.078.939.939,0,0,0,.461-.038l.1.04,1.379-.116.3.116.1.151-.249.231.2.111a1.178,1.178,0,0,1,.128.4,3.494,3.494,0,0,1,.027.437l-.411.075-.2-.111v-.191h-.155v.341l.512.04.1.226-.31.191-.048-.04-.054.04-.1-.04-.155.231a.24.24,0,0,0,.255.078.3.3,0,0,1,.256.038l.511-.075.256.075.047.3-.4.08-.821-.04Zm1.434-2.02.047-.04-.047-.115.1-.111a.358.358,0,0,0-.229-.08h-.282l-.256.382.208.076Z" transform="translate(-94.983 -101.466)" fill="#fff"/><path d="M169.164,166.6l-.4-.115-.108-.226.108-.156.612-.076.868.041.1-.041.1.041.3-.076.108-.271-.108-.568.054-.04-.155-.417.054-.075-.054-.191h-.868l-1.17.11-.309-.382.054-.075a.75.75,0,0,1,.333-.076,1.477,1.477,0,0,0,.333-.035l.1.035,2.038-.075a1.6,1.6,0,0,1,.233.761,3.984,3.984,0,0,0,.124.8l-.047.115a.306.306,0,0,1,.124.3.375.375,0,0,0,.077.306l-.2.231Z" transform="translate(-105.076 -102.641)" fill="#fff"/><path d="M188.712,166.953a12.467,12.467,0,0,0-1.258-.113q-.666-.028-1.332-.073l-.72.03-.4-.276v-.151l2.523,0a8.291,8.291,0,0,0,.861.05,3.281,3.281,0,0,1,.868.121l.06.312a1.3,1.3,0,0,1-.266.106.785.785,0,0,1-.333,0" transform="translate(-114.561 -104.021)" fill="#fff"/><path d="M204.344,166.15l-.256-.115-.047-.417.047-.231-.047-.226.047-.422h-.612l-1.123.151-.3-.191-.054-.267a5.959,5.959,0,0,1,1.023-.13,9.516,9.516,0,0,0,1.022-.1l.047-.457-.047-.04.047-.151-.2-.306-.3.382-.209.041v.075h-.155l-.2-.422a2.037,2.037,0,0,0,.434-.437q.178-.246.333-.478l.357-.035.357.226-.155.156-.148.191.4.186a1.643,1.643,0,0,1,.128.5,1.643,1.643,0,0,0,.128.5h.457l.666-.076.255.151v.226a1.178,1.178,0,0,1-.69.174,2.887,2.887,0,0,0-.736.057l-.054.533.1.723-.1.156Z" transform="translate(-124.212 -101.756)" fill="#fff"/><path d="M220.926,164.967l-1.279-.231-.155-.341.411-.076q.357.075.689.133a2.294,2.294,0,0,1,.636.209l.1.115-.1.111Zm-.612,2.02-.256-.115-.155-.307a6.843,6.843,0,0,0,1.712-.666q.79-.439,1.551-.9l.054-.115.2-.035.209.075.1.151-.1.191-.155.04-.357.342a14.978,14.978,0,0,1-1.356.764,9.442,9.442,0,0,1-1.449.573" transform="translate(-134.148 -102.859)" fill="#fff"/><path d="M32.827,51.4a9.111,9.111,0,0,0,1.71.95,4.3,4.3,0,0,1,1.646,2.786,4.592,4.592,0,0,1-.824,1.837l.506.506a22.651,22.651,0,0,1,2.216,1.773,3.766,3.766,0,0,1,.38,1.71,1.623,1.623,0,0,1-1.837,1.836,1.771,1.771,0,0,1-.886-.253,6.289,6.289,0,0,1-1.013-.76A11.2,11.2,0,0,1,32.7,60.2q-1.14,1.329-2.026,2.343-1.267,1.2-1.9,1.2A1.714,1.714,0,0,1,27.445,60.7a10.467,10.467,0,0,0,1.836-1.964Q31.5,55.955,31.5,55.131q0-.443-1.2-1.2-.57-.507-.57-.76a3.013,3.013,0,0,1,.7-1.267,44.629,44.629,0,0,1-5.319.7q-1.774,0-2.026-2.532,0-.507,3.8-1.2,11.018-2.09,11.017-2.343,1.076,0,1.076-3.229A2.111,2.111,0,0,1,41,41.961q2.027,0,2.153,1.329.126,3.04,1.329,3.229.95.254,11.271,2.343,4.241.443,4.242,1.2,0,2.279-1.963,2.28-1.14,0-7.155-.95a9.893,9.893,0,0,1-2.28-.254,6.3,6.3,0,0,1,1.393.95q1.709,1.584,1.71,2.6a3.756,3.756,0,0,1-.633,1.773l1.013,1.013q1.519,1.266,2.47,2.026a3.681,3.681,0,0,1,.38,1.773q0,1.71-1.836,1.71a2.377,2.377,0,0,1-.95-.19,8.666,8.666,0,0,1-1.076-.76,27.035,27.035,0,0,1-2.343-2.026q-1.141,1.52-1.963,2.533-1.14,1.2-1.71,1.2a2.379,2.379,0,0,1-2.089-1.457v2.28q9.308,0,15.323.254,2.216.253,2.216,2.026a1.735,1.735,0,0,1-1.963,1.963q-1.2,0-7.535-.253H42.831v1.076c0,3.884.042,30.251.127,33.966a2.015,2.015,0,0,1-2.28,2.28q-1.71,0-1.963-4.053V68.555q-2.85,0-7.471.253a66.113,66.113,0,0,0-7.282.57q-1.709,0-1.962-2.279,0-1.773,2.913-2.027,7.154-.506,13.613-.506a15.227,15.227,0,0,0-.19-1.773,2.931,2.931,0,0,1,2.343-3.039,2.474,2.474,0,0,1,2.089,1.519,1.911,1.911,0,0,1,.57-.823,8.518,8.518,0,0,0,1.646-2.026q1.963-2.786,1.963-3.546,0-.7-1.14-1.456-.57-.57-.57-.823a2.339,2.339,0,0,1,1.519-1.71q-3.039-.569-5.636-.822-3.166.57-8.295,1.33m.7-24.568q5.888,0,5.888,3.292l-.126,7.346q0,3.039-1.267,3.989a8.712,8.712,0,0,0-1.583,3.039q-.507,2.026-.823,2.026-2.47,0-2.469-2.026a10.792,10.792,0,0,1,.443-1.963,12.251,12.251,0,0,1,1.392-2.786,2.5,2.5,0,0,0,.7-2.026l-.063-6.648q0-.76-1.456-.95l-8.041.444a1.806,1.806,0,0,1-2.026-1.457,1.931,1.931,0,0,1,1.837-1.773Zm-4.5,5.826a28.08,28.08,0,0,1,3.356.253q1.519.19,1.52,1.2,0,1.33-1.52,1.33H28.648a18.177,18.177,0,0,0-2.407.19,1.58,1.58,0,0,1-1.773-1.52q0-.759,1.33-1.2a15.237,15.237,0,0,1,3.229-.253m-.19,4.812a14.411,14.411,0,0,1,3.356.506q1.457.254,1.456,1.2,0,1.33-1.456,1.33H28.585a14.779,14.779,0,0,0-2.469.253,1.5,1.5,0,0,1-1.646-1.583q0-.76,1.33-1.2a27.8,27.8,0,0,1,3.039-.506M52.456,26.575q5.888.253,5.888,3.545l-.127,6.839q0,3.292-1.583,4.243a11.155,11.155,0,0,0-1.962,3.292q-.633,2.279-1.013,2.28-2.343,0-2.343-2.027a6.828,6.828,0,0,1,.57-1.963,15.327,15.327,0,0,1,1.773-3.356,2.015,2.015,0,0,0,.95-1.962l-.063-6.4q0-.95-1.456-.95l-7.725.444a1.939,1.939,0,0,1-2.153-1.71,2.169,2.169,0,0,1,1.836-1.774Zm-4.5,5.825a27.785,27.785,0,0,1,3.292.254q1.519.253,1.52,1.2,0,1.584-1.52,1.583a32.223,32.223,0,0,1-3.672-.253,8,8,0,0,0-2.343.443q-1.584,0-1.773-1.773,0-.506,1.33-1.2a28.644,28.644,0,0,0,3.166-.254m-.19,4.812a13.663,13.663,0,0,1,3.293.506q1.456.254,1.456,1.2,0,1.329-1.456,1.329H47.517a12.737,12.737,0,0,0-2.343.254,1.53,1.53,0,0,1-1.71-1.583q0-.7,1.33-1.2a24.6,24.6,0,0,1,2.976-.506" transform="translate(-22 -24.64)" fill="#fff"/><path d="M148.973,22.164c.758-.256.079.28.16.545.236,2.624-.051,4.961.022,7.5.719-.094,1.181-1.089,2.045-1.783a17.911,17.911,0,0,1,2.644-1.761,13.928,13.928,0,0,1,3.091-.9c-.289,2.387-2.6,3.666-2.98,6.005a11.484,11.484,0,0,0,2.076-1,10.513,10.513,0,0,1,3.957.026c.693.105,1.657-.113,1.955.612-.163.827-1.2,1.174-2.333,1.473-.882.484-1.277,1.236-2.515,1.526-.3.344-.207.9-.407,1.3-2,2.194-4.7,3.428-8.454,4.844A43.4,43.4,0,0,1,142,42.173a15.067,15.067,0,0,0-2.174,2.019c-.532.981-.551,2.244-1.725,2.875-1.55-.424-2.162-2.563-3.407-3.544q-2.414-7.734,1.64-11.932c-.12,1.727-.99,3.648.271,5.647.554.258.685-.641.878-1.047a26.223,26.223,0,0,0,1.716-4.254c.34-.323.427-.785.879-1.047a14.181,14.181,0,0,1,.869-2.426c.363-.7.786-1.712,1.681-1.677.039,1.5-.132,2.881-.1,4.374.256.151.646-.452.932-.866.15-.216.214-.47.386-.7a14.349,14.349,0,0,1,2.143-2.8,13.159,13.159,0,0,1,2.807-4.573l.182-.053" transform="translate(-85.482 -22.097)" fill="#fff" fill-rule="evenodd"/><path d="M154.074,73.428c.714.277,1.1,1.159,1.548,1.916.966.318,1.7,2.107,2.511,1.831,1.25,1.283.591,2.465.861,4.289-1.573,2.336-4.031,5.438-7.438,4.942a7.879,7.879,0,0,1-5.332-3.375c1.443-.495,3.736-.132,5.722-.689,1.881-1.182,2.59-3.744,1.131-6.254-.809-.32-1.922-1.246-3.079-1.073a2.5,2.5,0,0,0-2.111,3.579c-.983.582-1.426,1.46-2.826,1.814-1.525-1.4-.537-3.779.124-4.972a32.5,32.5,0,0,0,2.537-2.125,27.714,27.714,0,0,1,3.455-1.012c.866.556,2.076.487,2.64,1.6.328-.024.3-.242.257-.47" transform="translate(-91.424 -50.606)" fill="#fff" fill-rule="evenodd"/><path d="M154.266,88.478a3.721,3.721,0,0,1-1.237-2.2c.129-1.148,1.771-1.749,2.8-1.216,1.573,1.44.728,3.65-1.566,3.42m.066-1.8c.355.207.873-.035.621-.577-.331.124-.573.3-.621.577" transform="translate(-96.406 -57.738)" fill="#fff" fill-rule="evenodd"/><path d="M136.756,91.835a3.494,3.494,0,0,0-3.007,1.867c1.077.358,2.666-.22,3.646.315-.105.968-1.625,1.005-2.568,1.344a16.9,16.9,0,0,1-2.91.852c-.768.129-.871,1.127-1.53.843-.257-.769-.48-1.357-.169-1.925.275-.5.987-1.426,1.392-1.987.715-.99,1.58-1.789,2.013-2.564.785-.182.84-.762,1.712-.9-.013-.21.325-.229.257-.47.2-.091.335-.054.417.075.282.6.77.826,1.025,1.477-.271.259-.146.735-.279,1.069" transform="translate(-83.366 -60.181)" fill="#fff" fill-rule="evenodd"/><path d="M143.791,103.831c.382-.406,1.3.592,1.828.847a5.085,5.085,0,0,1,2.737.581c.666,1.761,1.781,2.7,2.475,4.409a17.928,17.928,0,0,1,2.671,2.377c-.215,2.4,1.967,3.782,1.522,5.872a4.871,4.871,0,0,1-1.242,1.153c-.069,1.38-.745,2.923-.625,3.935-.635.11-.684.542-.931.865-1.474-.1-2.359-1.273-3.4-2.164-.731.313-.875.947-1.606,1.26-1.048.334-1.4-.606-2.319-.506-4.294-4.16-2.368-10.723-.9-14.544a17.153,17.153,0,0,0-.329-2.47c-.239-.6.812-1.275.12-1.615" transform="translate(-90.298 -68.456)" fill="#fff" fill-rule="evenodd"/><path d="M217.753,40.876V35.557a2.824,2.824,0,0,0-.76-1.33q-.318-.506-.7-1.2l-.444.444q-.57.506-1.393,1.329a3.207,3.207,0,0,1-1.519.506q-1.646,0-1.963-1.836,0-.253,1.52-1.773a10.048,10.048,0,0,0,1.2-1.013,7.1,7.1,0,0,0,1.14-.443,9.54,9.54,0,0,1-1.33-3.547,2.328,2.328,0,0,1,2.533-2.279q.57.253,2.216,4.5,1.14,2.786,1.456,2.786.443,0,1.71-3.546,1.456-3.736,1.773-3.736,1.9.508,1.9,2.027a8.745,8.745,0,0,1-.887,3.292,6.743,6.743,0,0,1,1.71,1.2q1.773,1.33,1.773,2.089,0,1.52-1.393,1.52a6.992,6.992,0,0,1-2.216-1.076q-.7-.443-1.14-.7-.38.7-.823,1.456a10.234,10.234,0,0,1-.633,1.076q.064,2.787.064,5.572a12.315,12.315,0,0,1,2.406.254q2.152.253,2.153,1.773,0,1.709-2.153,1.709h-2.406q.063,2.787.064,5.572a24.776,24.776,0,0,1,3.355.254q2.09.317,2.09,1.836a1.819,1.819,0,0,1-2.09,2.026,23.358,23.358,0,0,1-3.292-.254q.253,18.173.38,23.492a2.211,2.211,0,0,1-2.47,2.533q-1.963,0-1.962-2.786.063-3.039.127-23.238-1.646.253-3.61.507a2.224,2.224,0,0,1-2.406-2.28q0-1.013,1.9-1.836,1.393,0,4.116-.254V44.612a17.884,17.884,0,0,0-2.786.254A2.11,2.11,0,0,1,212.56,42.9q0-1.076,1.963-1.773a15.232,15.232,0,0,1,3.229-.254m17.666-4.369a1.747,1.747,0,0,1-1.963,1.329h-2.786a3.018,3.018,0,0,0-1.076.253A2.057,2.057,0,0,1,227.377,36q0-.7,1.773-1.456a8.252,8.252,0,0,1,2.089-.57,6.3,6.3,0,0,1,2.216.57q1.646.253,1.963,1.267V31.441q0-1.962-1.773-1.962a17.3,17.3,0,0,0-3.926.506q-1.963,0-1.963-2.279a2.7,2.7,0,0,1,2.28-2.343h4.812q4.56.508,4.559,5.572,0,14.753-.316,18.742,0,3.863-1.52,5.572a19.2,19.2,0,0,0-3.1,6.4,51.228,51.228,0,0,0-1.456,12.375q0,1.773-1.962,1.773-1.773,0-1.773-2.533a55.469,55.469,0,0,1,1.646-12.692,28.969,28.969,0,0,1,2.786-6.775,7.218,7.218,0,0,0,1.583-4.559q0-1.013.127-5.319-.38.951-1.963.95h-2.723a2.457,2.457,0,0,0-.95.253,2.009,2.009,0,0,1-2.216-1.963q0-.823,1.773-1.583a16.36,16.36,0,0,1,1.963-.443,7.192,7.192,0,0,1,2.153.443q1.582.253,1.963,1.077ZM247.765,36q-.064,1.836-2.025,1.836a17.069,17.069,0,0,1-2.6-.253,1.386,1.386,0,0,0-.824.506A2.087,2.087,0,0,1,240.041,36q0-.949,1.836-1.456a6.9,6.9,0,0,1,1.9-.57,9.287,9.287,0,0,1,1.963.254q1.962.316,2.025,1.583,0-2.089.064-4.369,0-1.962-1.836-1.962-1.709.253-3.863.506-1.962,0-1.962-2.089a2.656,2.656,0,0,1,2.216-2.28h4.875q4.622.506,4.622,5.318,0,15.007-.38,19,0,3.863-1.773,5.572a16.043,16.043,0,0,0-3.8,6.649c-1.224,4.855-1.837,35.571-1.837,40.8q0,1.836-1.963,1.836-1.772,0-1.773-2.279c.127-5.91.78-36.921,1.963-41.691a28.984,28.984,0,0,1,3.42-6.776,6.681,6.681,0,0,0,1.962-4.812q.064-.76.064-5.129-.38.76-1.9.76H243.08a2.923,2.923,0,0,0-1.013.253,2.042,2.042,0,0,1-2.28-1.963q0-.823,1.837-1.583a20.387,20.387,0,0,1,2.089-.443,6.731,6.731,0,0,1,2.153.443,2.334,2.334,0,0,1,1.9,1.077Z" transform="translate(-129.312 -23.412)" fill="#fff"/><path d="M185.64,176.681l-1.032,4.111-.988-4.111h-1.411l1.678,6.194h0v6.383H185.3v-6.383h0l1.753-6.194Z" transform="translate(-112.976 -109.879)" fill="#fff" fill-rule="evenodd"/><path d="M131.418,176.784v9.981h0a.893.893,0,1,1-1.786,0v-9.981h-1.407v9.981a2.308,2.308,0,1,0,4.6,0v-9.981Z" transform="translate(-82.321 -109.937)" fill="#fff"/><path d="M226.353,176.784v9.981h0a.893.893,0,1,1-1.786,0v-9.981H223.16v9.981a2.308,2.308,0,1,0,4.6,0v-9.981Z" transform="translate(-136.231 -109.937)" fill="#fff"/><rect width="1.386" height="12.529" transform="translate(55.088 66.826)" fill="#fff"/><path d="M204.752,176.741a2.41,2.41,0,0,0-2.3,2.507v7.512a2.308,2.308,0,1,0,4.6,0v-7.512a2.41,2.41,0,0,0-2.3-2.507m.893,10.019h0a.893.893,0,0,1-1.786,0v-7.512h0a.893.893,0,0,1,1.786,0Z" transform="translate(-124.471 -109.913)" fill="#fff"/><path d="M110.105,179.1h0a.893.893,0,0,1,1.767-.185h1.418A2.391,2.391,0,0,0,111,176.59a2.44,2.44,0,0,0-2.3,2.507c0,1.338.583,2,1.459,3.531,1.308,2.289,1.725,2.732,1.725,4.111h0a.893.893,0,0,1-1.767.184H108.7a2.3,2.3,0,1,0,4.591-.184c0-1.279-.437-1.94-1.693-4.144-1.236-2.172-1.491-2.827-1.491-3.5" transform="translate(-71.232 -109.827)" fill="#fff"/><path d="M163.962,179.1h0a.893.893,0,0,1,1.767-.185h1.418a2.391,2.391,0,0,0-2.291-2.322,2.44,2.44,0,0,0-2.3,2.507c0,1.338.583,2,1.459,3.531,1.308,2.289,1.725,2.732,1.725,4.111h0a.893.893,0,0,1-1.767.184h-1.418a2.3,2.3,0,1,0,4.591-.184c0-1.279-.438-1.94-1.693-4.144-1.237-2.172-1.491-2.827-1.491-3.5" transform="translate(-101.815 -109.827)" fill="#fff"/></g></svg>