<svg height="42" viewBox="0 0 30 42" width="30" xmlns="http://www.w3.org/2000/svg"><g fill="#fff"><path d="m7 3a4 4 0 1 0 4 4 4 4 0 0 0 -4-4m0-3a7 7 0 1 1 -7 7 7 7 0 0 1 7-7z" transform="matrix(-1 0 0 -1 22 32.999)"/><path d="m15 3a12 12 0 0 0 -12 12v12a12 12 0 0 0 20.485 8.485 11.921 11.921 0 0 0 3.515-8.485v-12a12 12 0 0 0 -12-12m0-3a15 15 0 0 1 15 15v12a15 15 0 0 1 -30 0v-12a15 15 0 0 1 15-15z"/><path d="m674 11294.473a1.5 1.5 0 0 1 -1.5-1.5v-3.225a1.5 1.5 0 0 1 3 0v3.225a1.5 1.5 0 0 1 -1.5 1.5z" transform="matrix(-1 0 0 -1 689 11324.688)"/></g></svg>