<svg xmlns="http://www.w3.org/2000/svg" width="20.232" height="20.233" viewBox="0 0 20.232 20.233"><g transform="translate(-820.773 -4748.392)"><path d="M76.994,15.3a1.214,1.214,0,1,0,1.214,1.215A1.215,1.215,0,0,0,76.994,15.3" transform="translate(759.293 4736.596)" fill="#fff"/><path d="M73.259,16.465a5.195,5.195,0,1,0,5.195,5.195,5.195,5.195,0,0,0-5.195-5.195m0,8.567a3.372,3.372,0,1,1,3.372-3.372,3.372,3.372,0,0,1-3.372,3.372" transform="translate(757.629 4736.848)" fill="#fff"/><path d="M84.188,18.363a7.43,7.43,0,0,0-.47-2.456,5.175,5.175,0,0,0-2.959-2.959,7.434,7.434,0,0,0-2.456-.469c-1.078-.05-1.422-.062-4.17-.062s-3.093.012-4.171.062a7.434,7.434,0,0,0-2.456.469,5.175,5.175,0,0,0-2.959,2.959,7.434,7.434,0,0,0-.469,2.456c-.05,1.078-.061,1.424-.061,4.171s.011,3.092.061,4.17a7.434,7.434,0,0,0,.469,2.456,5.175,5.175,0,0,0,2.959,2.959,7.43,7.43,0,0,0,2.456.47c1.078.049,1.424.061,4.171.061s3.092-.012,4.17-.061a7.43,7.43,0,0,0,2.456-.47,5.175,5.175,0,0,0,2.959-2.959,7.43,7.43,0,0,0,.47-2.456c.049-1.078.061-1.424.061-4.17s-.012-3.093-.061-4.171m-1.821,8.258a5.631,5.631,0,0,1-.348,1.878,3.349,3.349,0,0,1-1.921,1.92,5.591,5.591,0,0,1-1.878.349c-1.066.049-1.386.058-4.087.058s-3.021-.01-4.088-.058a5.591,5.591,0,0,1-1.878-.349,3.343,3.343,0,0,1-1.92-1.92,5.591,5.591,0,0,1-.349-1.878c-.049-1.066-.058-1.387-.058-4.087s.01-3.021.058-4.088a5.591,5.591,0,0,1,.349-1.878,3.343,3.343,0,0,1,1.92-1.92,5.591,5.591,0,0,1,1.878-.349c1.067-.049,1.387-.058,4.088-.058s3.021.01,4.087.058a5.591,5.591,0,0,1,1.878.349,3.349,3.349,0,0,1,1.921,1.92,5.631,5.631,0,0,1,.348,1.878c.049,1.067.06,1.387.06,4.088s-.011,3.021-.06,4.087" transform="translate(756.756 4735.975)" fill="#fff"/></g></svg>